<?xml version="1.0" encoding="UTF-8" standalone="no"?>
<!-- Created with Inkscape (http://www.inkscape.org/) -->

<svg
   xmlns:dc="http://purl.org/dc/elements/1.1/"
   xmlns:cc="http://creativecommons.org/ns#"
   xmlns:rdf="http://www.w3.org/1999/02/22-rdf-syntax-ns#"
   xmlns:svg="http://www.w3.org/2000/svg"
   xmlns="http://www.w3.org/2000/svg"
   xmlns:sodipodi="http://sodipodi.sourceforge.net/DTD/sodipodi-0.dtd"
   xmlns:inkscape="http://www.inkscape.org/namespaces/inkscape"
   width="1052.3622"
   height="744.09448"
   id="svg2"
   version="1.1"
   inkscape:version="0.48.4 r9939"
   sodipodi:docname="desaku.svg">
  <defs
     id="defs4" />
  <sodipodi:namedview
     id="base"
     pagecolor="#ffffff"
     bordercolor="#666666"
     borderopacity="1.0"
     inkscape:pageopacity="0.0"
     inkscape:pageshadow="2"
     inkscape:zoom="0.24748737"
     inkscape:cx="-299.7581"
     inkscape:cy="170.90621"
     inkscape:document-units="px"
     inkscape:current-layer="layer1"
     showgrid="false"
     inkscape:window-width="1600"
     inkscape:window-height="876"
     inkscape:window-x="1366"
     inkscape:window-y="24"
     inkscape:window-maximized="1" />
  <metadata
     id="metadata7">
    <rdf:RDF>
      <cc:Work
         rdf:about="">
        <dc:format>image/svg+xml</dc:format>
        <dc:type
           rdf:resource="http://purl.org/dc/dcmitype/StillImage" />
        <dc:title></dc:title>
      </cc:Work>
    </rdf:RDF>
  </metadata>
  <g
     inkscape:label="Layer 1"
     inkscape:groupmode="layer"
     id="layer1"
     transform="translate(0,-308.2677)">
    <path
       style="fill:#000000"
       d=""
       id="path3019"
       inkscape:connector-curvature="0" />
    <g
       id="g3147">
      <g
         id="g3042">
        <path
           inkscape:connector-curvature="0"
           id="path2990"
           style="font-size:95.02555084px;font-style:normal;font-variant:normal;font-stretch:normal;line-height:125%;letter-spacing:26.84471703px;word-spacing:0px;fill:#d45500;fill-opacity:1;stroke:none;font-family:URW Gothic L;-inkscape-font-specification:URW Gothic L Book"
           d="m 246.61186,456.15842 18.91008,0 c 10.54783,0 17.95984,-1.61543 24.13649,-5.2264 10.64285,-6.27168 16.24937,-16.53446 16.24937,-29.64797 0,-13.20854 -5.51149,-23.66137 -15.96429,-29.83803 -6.65178,-3.99107 -14.0638,-5.51148 -26.79721,-5.51148 l -16.53444,0 0,70.22388 m 7.03189,-6.36671 0,-57.49046 9.78763,0 c 10.64285,0 17.29466,1.33036 22.61608,4.56123 8.07717,4.8463 12.73343,13.68369 12.73343,24.13649 0,9.21747 -3.61098,17.29466 -10.07271,22.52106 -5.60651,4.46619 -12.82847,6.27168 -25.2768,6.27168 l -9.78763,0" />
        <path
           inkscape:connector-curvature="0"
           id="path2992"
           style="font-size:95.02555084px;font-style:normal;font-variant:normal;font-stretch:normal;line-height:125%;letter-spacing:26.84471703px;word-spacing:0px;fill:#d45500;fill-opacity:1;stroke:none;font-family:URW Gothic L;-inkscape-font-specification:URW Gothic L Book"
           d="m 344.16895,456.15842 38.39032,0 0,-6.36671 -31.35843,0 0,-25.94197 30.31315,0 0,-6.36672 -30.31315,0 0,-25.18177 31.35843,0 0,-6.36671 -38.39032,0 0,70.22388" />
        <path
           inkscape:connector-curvature="0"
           id="path2994"
           style="font-size:95.02555084px;font-style:normal;font-variant:normal;font-stretch:normal;line-height:125%;letter-spacing:26.84471703px;word-spacing:0px;fill:#d45500;fill-opacity:1;stroke:none;font-family:URW Gothic L;-inkscape-font-specification:URW Gothic L Book"
           d="m 416.7358,436.48813 c 0.66518,12.63839 9.31252,20.90563 21.95091,20.90563 12.16325,0 21.19069,-8.83739 21.19069,-20.8106 0,-6.17665 -2.56569,-11.68815 -7.03189,-15.01404 -2.85076,-2.09056 -5.79656,-3.42092 -13.0185,-5.6065 -6.3667,-1.90051 -8.45727,-2.75575 -10.35778,-4.37118 -1.99554,-1.80548 -3.3259,-4.94133 -3.3259,-8.1722 0,-7.03188 5.13139,-12.25829 12.16327,-12.25829 7.12691,0 12.06825,4.94133 12.54338,12.54337 l 7.31696,0 c -0.28507,-11.40305 -8.17221,-19.00511 -19.67029,-19.00511 -11.30802,0 -19.48023,7.98216 -19.48023,18.91008 0,4.8463 1.80549,9.50256 4.94133,12.44835 2.75573,2.66071 4.94133,3.706 13.11352,6.17666 5.51148,1.71046 8.5523,3.04082 10.83291,4.65625 3.13584,2.18559 4.84631,5.79657 4.84631,10.07271 0,8.07717 -5.8916,13.96876 -13.87373,13.96876 -4.4662,0 -8.74236,-1.99554 -11.30804,-5.22641 -1.99554,-2.47066 -2.85077,-4.8463 -3.3259,-9.21748 l -7.50702,0" />
        <path
           inkscape:connector-curvature="0"
           id="path2998"
           style="font-size:95.02555084px;font-style:normal;font-variant:normal;font-stretch:normal;line-height:125%;letter-spacing:26.84471703px;word-spacing:0px;fill:#000000;fill-opacity:1;stroke:none;font-family:URW Gothic L;-inkscape-font-specification:URW Gothic L Book"
           d="m 593.22496,456.15842 7.03189,0 0,-19.19516 9.12245,-11.21301 23.37629,30.40817 8.83737,0 -27.74746,-36.01468 27.74746,-34.2092 -8.83737,0 -32.49874,40.38586 0,-40.38586 -7.03189,0 0,70.22388" />
        <path
           inkscape:connector-curvature="0"
           id="path3000"
           style="font-size:95.02555084px;font-style:normal;font-variant:normal;font-stretch:normal;line-height:125%;letter-spacing:26.84471703px;word-spacing:0px;fill:#000000;fill-opacity:1;stroke:none;font-family:URW Gothic L;-inkscape-font-specification:URW Gothic L Book"
           d="m 676.30552,385.93454 0,43.80678 c 0,9.02742 1.42539,14.34886 4.94133,19.00511 4.18112,5.41645 11.21302,8.64733 18.91009,8.64733 7.79208,0 14.82399,-3.23088 19.00511,-8.64733 3.51594,-4.65625 4.94132,-9.97769 4.94132,-19.00511 l 0,-43.80678 -7.03189,0 0,43.80678 c 0,6.36671 -1.04528,11.21302 -3.23087,14.53891 -2.66071,4.08609 -7.88712,6.65179 -13.58865,6.65179 -5.79655,0 -11.02297,-2.5657 -13.68368,-6.65179 -2.18558,-3.32589 -3.23087,-8.1722 -3.23087,-14.53891 l 0,-43.80678 -7.03189,0" />
        <path
           style="fill:#d45500"
           d="m 480.68885,475.37624 c 0.28086,-0.31489 2.43637,-2.20777 3.58335,-3.14667 7.41841,-6.07274 17.93062,-12.3054 28.18216,-16.70917 l 1.9141,-0.82224 0.65344,-1.74996 c 1.05494,-2.82546 1.8172,-5.19732 2.39976,-7.46721 0.29998,-1.16877 0.57606,-2.07545 0.61351,-2.01483 0.0377,0.0606 0.12878,0.56225 0.20289,1.11474 0.16832,1.25479 0.077,3.72037 -0.22848,6.16834 -0.3245,2.60066 -1.33933,9.07074 -1.43672,9.16018 -0.0457,0.042 -0.73969,0.26259 -1.54232,0.49043 -11.34743,3.22105 -22.83187,8.15678 -32.43329,13.93905 -1.16818,0.70352 -2.02695,1.17032 -1.9084,1.03734 z m 92.8274,-15.28167 c -2.66995,-1.37715 -7.22474,-2.83998 -11.22564,-3.60528 -7.52485,-1.43935 -16.76488,-1.55677 -26.70103,-0.3393 -0.79383,0.0973 -1.48114,0.13426 -1.52744,0.0822 -0.12901,-0.14509 -0.33651,-2.1119 -0.46587,-4.4158 -0.11878,-2.11534 -0.0722,-4.61948 0.1349,-7.24128 0.10585,-1.34022 0.39808,-3.53248 0.48211,-3.6165 0.0506,-0.0506 1.70479,2.39164 2.57273,3.79848 0.40459,0.65575 1.01832,1.75598 1.36381,2.44495 l 0.62825,1.25268 1.20412,-0.0876 c 1.90185,-0.13831 8.77693,-0.095 10.35306,0.0652 8.29299,0.8429 14.09639,2.66696 18.57362,5.83783 1.03793,0.73512 2.97213,2.60292 3.61933,3.49511 0.53055,0.73138 1.54524,2.45554 1.48158,2.51752 -0.0243,0.0238 -0.24655,-0.0608 -0.49353,-0.18822 z m -55.81612,-21.22543 c -0.36608,-2.30709 -1.99844,-4.76827 -4.29731,-6.47907 -2.69526,-2.0058 -6.67833,-3.39466 -11.78694,-4.10999 -2.04634,-0.28653 -8.17426,-0.28893 -10.38378,-0.004 -5.18547,0.66856 -9.78059,2.08665 -13.10915,4.04562 -0.59332,0.34921 -1.10687,0.63492 -1.14118,0.63492 -0.13418,0 -0.053,-3.20326 0.11108,-4.37908 0.43178,-3.09555 1.51508,-5.4021 3.38027,-7.19688 2.33052,-2.24255 5.40214,-3.28153 9.69257,-3.27848 2.27239,0.002 3.98489,0.23054 6.56775,0.87799 4.65068,1.16577 9.18837,3.33817 13.17418,6.30706 1.57641,1.17419 4.40325,3.97613 5.3294,5.28242 1.39419,1.96641 2.17495,3.63876 2.55572,5.47403 0.20568,0.9913 0.26333,2.67302 0.11511,3.35934 -0.0574,0.26604 -0.0969,0.1647 -0.20772,-0.53381 z m -19.28621,-1.07666 c -2.53226,-0.40606 -4.00838,-1.48417 -4.00838,-2.92756 0,-1.54005 1.77566,-2.82651 4.50276,-3.26225 1.06923,-0.17084 3.50786,-0.13558 4.90112,0.0709 2.0018,0.29662 4.30271,0.95065 6.76094,1.9218 l 1.04037,0.41101 -0.75974,0.44575 c -1.81883,1.06708 -4.43422,2.19793 -6.37259,2.75534 -1.89471,0.54487 -4.65462,0.81111 -6.06448,0.58503 z m 38.61894,-1.36036 c 2.35562,-2.43625 6.62361,-4.67763 10.49596,-5.51209 0.98764,-0.21283 1.5154,-0.25369 3.25547,-0.25204 1.88241,0.002 2.17845,0.0294 3.16356,0.29493 2.21702,0.59762 4.21391,1.91667 5.44924,3.59954 l 0.39818,0.54243 -0.41956,0.42968 c -0.8979,0.91956 -2.13882,1.31499 -3.76441,1.1996 -0.52479,-0.0372 -2.16654,-0.29483 -3.64833,-0.57239 -3.47617,-0.65113 -5.12137,-0.84784 -7.09112,-0.84784 -2.58645,0 -5.33741,0.47212 -7.50568,1.28814 l -0.78235,0.29444 z m -1.40574,-2.80202 c 1.46909,-2.9415 3.26508,-5.40442 5.77791,-7.92366 5.20211,-5.21535 12.29447,-8.73853 20.09977,-9.98474 1.47515,-0.23553 5.21013,-0.33979 6.49191,-0.18122 1.99476,0.24676 3.4851,0.77198 4.31302,1.51996 0.41088,0.37121 0.81361,1.00203 0.81361,1.27436 0,0.0584 -0.66933,0.13987 -1.48738,0.1812 -5.62472,0.2841 -13.2385,2.43837 -20.96394,5.93162 -6.15443,2.78287 -11.39891,6.08955 -14.52418,9.15765 l -0.99725,0.97901 z m -14.92762,-5.65388 c -1.89335,-1.99984 -5.68955,-4.81282 -8.30017,-6.15042 l -0.83508,-0.42787 -0.63786,-1.82607 c -1.91658,-5.48689 -4.08534,-9.64557 -7.0658,-13.54898 -1.20284,-1.57537 -2.15254,-2.68907 -4.57178,-5.36145 -2.97705,-3.28858 -4.02238,-4.68904 -4.92578,-6.59932 -0.98609,-2.08503 -1.43938,-4.44602 -1.37266,-7.14966 0.0208,-0.84387 0.0714,-1.56778 0.11235,-1.60866 0.1577,-0.15739 4.57268,3.01108 7.22216,5.18313 4.30174,3.52652 8.86387,8.14418 11.98502,12.13101 5.20841,6.65283 8.13569,12.82623 9.19608,19.3936 0.16867,1.04461 0.18948,5.73826 0.0279,6.34251 l -0.10492,0.39289 -0.72964,-0.77071 z m 12.01144,-0.73081 c 0,-0.12293 0.12723,-0.92146 0.28271,-1.77452 1.90822,-10.46851 6.72283,-20.37469 13.07587,-26.90386 3.51972,-3.61736 6.71445,-5.65815 10.32759,-6.5973 1.81086,-0.4707 4.13501,-0.39747 5.84502,0.18414 5.3537,1.82091 9.05865,8.61264 10.31698,18.91264 0.39162,3.2054 0.37878,2.95907 0.14901,2.85927 -0.85744,-0.3725 -2.92052,-0.9808 -4.13116,-1.21811 -2.23302,-0.43769 -3.49294,-0.55184 -6.06186,-0.54925 -4.89602,0.005 -8.84814,0.88322 -12.78906,2.84209 -0.61294,0.30465 -1.13932,0.52898 -1.16978,0.49852 -0.0305,-0.0305 0.0535,-0.57298 0.18656,-1.20559 1.00119,-4.75901 3.74507,-9.2426 7.12344,-11.63999 0.47375,-0.33616 0.84526,-0.62724 0.82565,-0.64685 -0.0195,-0.0196 -0.48038,0.0932 -1.02404,0.25078 -3.56262,1.0324 -6.73938,3.6748 -10.38819,8.64074 -0.27223,0.37045 -1.92208,2.78331 -3.6664,5.3619 -3.13904,4.64033 -4.32639,6.30072 -5.51786,7.716 -1.08176,1.28494 -2.15122,2.42817 -2.77633,2.96785 -0.50628,0.43709 -0.60815,0.48761 -0.60815,0.30154 z m -4.19933,-7.51483 c -1.17452,-2.31781 -1.89786,-5.44923 -2.20882,-9.56213 -0.26138,-3.45671 -0.0425,-9.65125 0.52196,-14.76175 1.27447,-11.54229 4.81722,-27.59739 8.41593,-38.13916 l 0.29697,-0.86995 0.90397,0.81382 c 2.44301,2.19935 5.21425,5.68235 6.75572,8.49086 3.09291,5.63509 3.71863,11.64895 1.92278,18.47876 -1.20187,4.57074 -3.09083,8.82482 -8.00022,18.0172 -2.6916,5.03968 -4.65869,8.95316 -5.72722,11.39405 -0.83189,1.90029 -1.90158,4.71271 -2.22019,5.83735 -0.10497,0.37045 -0.2318,0.71757 -0.28187,0.77137 -0.0501,0.0538 -0.22061,-0.15787 -0.37901,-0.47042 z m -22.90364,-0.31134 c -5.65363,-0.77188 -10.24738,-2.26878 -13.45065,-4.38298 -1.20506,-0.79538 -2.75004,-2.39226 -3.2568,-3.3663 -0.87794,-1.68739 -0.97184,-3.14172 -0.29197,-4.52269 0.55086,-1.11901 2.21289,-2.72703 3.4655,-3.35293 2.49604,-1.24722 4.79282,-0.66686 7.45073,1.88265 2.65962,2.55118 5.56748,7.56573 7.4053,12.77039 l 0.40628,1.15063 -0.3064,-0.0132 c -0.16854,-0.007 -0.80843,-0.0818 -1.42199,-0.16554 z m 12.82356,-13.05204 c -3.34817,-3.47276 -6.8896,-7.8472 -9.3732,-11.57791 -3.40693,-5.11766 -5.0972,-9.33891 -4.94441,-12.34823 0.1278,-2.51754 1.3607,-4.09654 3.17711,-4.069 1.25066,0.0189 2.51367,0.70931 4.11282,2.24809 5.5531,5.34341 9.27842,16.1906 8.62511,25.11417 -0.0723,0.98785 -0.17039,1.83613 -0.21794,1.88506 -0.0475,0.0489 -0.66832,-0.51455 -1.37949,-1.25218 z m 3.42216,-11.4417 c -3.39596,-9.82161 -4.33402,-18.22898 -2.72604,-24.4322 0.78448,-3.02638 2.09362,-5.33695 4.1076,-7.24962 2.3086,-2.19251 5.56983,-3.60423 9.54502,-4.13189 l 0.68678,-0.0912 -0.50837,0.73712 c -3.31984,4.81394 -8.95059,24.42025 -10.18969,35.48056 -0.10028,0.89525 -0.19258,1.6385 -0.20506,1.65168 -0.0124,0.0132 -0.33209,-0.87085 -0.71024,-1.9645 z m 24.10355,-1.80486 c 0,-0.51761 0.78878,-3.27288 1.39167,-4.86113 0.95022,-2.50327 1.80665,-4.04568 4.44627,-8.00746 2.1177,-3.1784 2.95793,-4.56843 3.57471,-5.91374 0.49973,-1.08998 0.45714,-1.11784 1.06052,0.69381 0.63918,1.91912 0.80015,2.87662 0.79258,4.71478 -0.006,1.43083 -0.0434,1.74992 -0.30906,2.63803 -1.02288,3.41738 -3.55829,6.2471 -8.28431,9.246 -1.8121,1.14988 -2.67238,1.62944 -2.67238,1.48971 z m -45.32853,-5.9651 c -1.9967,-1.03876 -3.22572,-1.79091 -4.52206,-2.76743 -4.68738,-3.53095 -5.29597,-7.62711 -2.01358,-13.55223 l 0.59089,-1.06664 0.29471,0.18443 c 1.01093,0.63271 2.15383,1.63401 2.97771,2.6088 2.86461,3.38924 4.30975,8.09172 4.19867,13.66239 l -0.0341,1.70705 -1.49234,-0.77637 z m 14.20668,-8.57412 c -2.55709,-1.45722 -4.12743,-3.35952 -4.482,-5.42946 -0.47494,-2.77233 1.52314,-5.5017 5.46977,-7.47166 0.81052,-0.40457 2.36005,-1.08805 2.4667,-1.08805 0.0115,0 -0.31725,0.6761 -0.73105,1.50245 -0.83986,1.67718 -1.43513,3.35789 -1.81356,5.12069 -0.21444,0.99903 -0.25385,1.52948 -0.25841,3.47995 -0.004,1.32617 0.0561,2.72291 0.13985,3.29633 0.0799,0.5473 0.12688,1.01348 0.10439,1.03597 -0.0226,0.0225 -0.42553,-0.1783 -0.89569,-0.44622 z"
           id="path3021"
           inkscape:connector-curvature="0"
           sodipodi:nodetypes="ccsccccsscssccsscssccccsscscccssccscscsssccccsssssccsscsscscccssscccssscsssscccscscscccsssccccscsssscsscccccccscsscscscssssccscscccsscccsssscsccscssccccccsssssccsscssccsccccccsssccccc" />
      </g>
      <g
         id="text3050"
         style="font-size:14.54706955px;font-style:normal;font-variant:normal;font-stretch:normal;line-height:125%;letter-spacing:4.10954762px;word-spacing:0px;fill:#d45500;fill-opacity:1;stroke:none;font-family:URW Gothic L;-inkscape-font-specification:URW Gothic L Book">
        <path
           id="path3075"
           style=""
           d="m 247.26006,495.70456 2.89486,0 c 1.61473,0 2.7494,-0.2473 3.69496,-0.80009 1.62927,-0.96011 2.48755,-2.53119 2.48755,-4.53869 0,-2.02204 -0.84373,-3.62222 -2.44391,-4.56778 -1.01829,-0.61097 -2.15297,-0.84373 -4.10227,-0.84373 l -2.53119,0 0,10.75029 m 1.07648,-0.97465 0,-8.80098 1.49835,0 c 1.62927,0 2.64757,0.20366 3.4622,0.69826 1.2365,0.7419 1.94931,2.09478 1.94931,3.69495 0,1.41107 -0.55279,2.64757 -1.54199,3.44766 -0.85828,0.68371 -1.96386,0.96011 -3.86952,0.96011 l -1.49835,0" />
        <path
           id="path3077"
           style=""
           d="m 269.97735,492.08234 c 0,-1.09103 -0.14547,-1.7602 -0.53824,-2.45846 -0.7128,-1.26559 -2.09478,-2.06568 -3.60767,-2.06568 -2.31298,0 -4.13137,1.81839 -4.13137,4.13137 0,2.35662 1.84748,4.2041 4.2041,4.2041 1.0183,0 1.97841,-0.37822 2.70576,-1.06193 0.56733,-0.53825 0.94556,-1.09104 1.16376,-1.74565 l -1.12012,0 c -0.45096,1.09103 -1.57109,1.81838 -2.77849,1.81838 -1.62927,0 -3.01124,-1.25105 -3.09853,-2.82213 l 7.2008,0 m -7.1717,-0.97465 c 0.29094,-1.52745 1.49835,-2.56029 3.01124,-2.56029 1.54199,0 2.7203,0.97466 3.08398,2.56029 l -6.09522,0" />
        <path
           id="path3079"
           style=""
           d="m 274.92177,493.36248 c 0.0145,1.54199 1.03284,2.53119 2.56028,2.53119 1.42561,0 2.42936,-1.0183 2.42936,-2.473 0,-0.97465 -0.45096,-1.64382 -1.38197,-2.03659 -1.20741,-0.4946 -1.2656,-0.52369 -1.49835,-0.64007 -0.4946,-0.2473 -0.72735,-0.58188 -0.72735,-1.04739 0,-0.64007 0.50915,-1.14922 1.14922,-1.14922 0.69826,0 1.10557,0.40732 1.16376,1.16377 l 1.09103,0 c -0.0436,-1.28014 -0.9601,-2.15297 -2.24025,-2.15297 -1.29468,0 -2.25479,0.94556 -2.25479,2.24025 0,0.56733 0.20366,1.06194 0.59643,1.42561 0.33458,0.30549 0.34913,0.30549 1.46925,0.771 0.48006,0.18911 0.82919,0.36367 1.03284,0.4946 0.32004,0.2182 0.50915,0.59643 0.50915,1.03284 0,0.80009 -0.56733,1.38197 -1.33833,1.38197 -0.88737,0 -1.44016,-0.56734 -1.49835,-1.54199 l -1.06193,0" />
        <path
           id="path3081"
           style=""
           d="m 293.44269,487.74731 -1.07649,0 0,1.41107 c -0.78554,-1.10558 -1.76019,-1.60018 -3.14216,-1.60018 -2.38572,0 -4.18956,1.80384 -4.18956,4.18956 0,2.37117 1.81839,4.14591 4.26229,4.14591 1.35288,0 2.2257,-0.45096 3.06943,-1.58563 l 0,1.39652 1.07649,0 0,-7.95725 m -4.18956,0.80009 c 1.74565,0 3.11307,1.36743 3.11307,3.14217 0,1.80383 -1.33833,3.2149 -3.05488,3.2149 -1.80384,0 -3.18581,-1.41107 -3.18581,-3.22945 0,-1.7311 1.39652,-3.12762 3.12762,-3.12762" />
        <path
           id="path3083"
           style=""
           d="m 306.78144,495.70456 1.13467,0 1.57108,-3.62222 5.0042,0 1.55653,3.62222 1.17832,0 -4.62597,-10.75029 -1.20741,0 -4.61142,10.75029 m 3.11307,-4.59687 2.10933,-4.93146 2.06568,4.93146 -4.17501,0" />
        <path
           id="path3085"
           style=""
           d="m 321.76106,493.36248 c 0.0145,1.54199 1.03284,2.53119 2.56029,2.53119 1.42561,0 2.42936,-1.0183 2.42936,-2.473 0,-0.97465 -0.45096,-1.64382 -1.38198,-2.03659 -1.2074,-0.4946 -1.26559,-0.52369 -1.49834,-0.64007 -0.4946,-0.2473 -0.72736,-0.58188 -0.72736,-1.04739 0,-0.64007 0.50915,-1.14922 1.14922,-1.14922 0.69826,0 1.10558,0.40732 1.16377,1.16377 l 1.09103,0 c -0.0436,-1.28014 -0.96011,-2.15297 -2.24025,-2.15297 -1.29469,0 -2.2548,0.94556 -2.2548,2.24025 0,0.56733 0.20366,1.06194 0.59643,1.42561 0.33458,0.30549 0.34913,0.30549 1.46926,0.771 0.48005,0.18911 0.82918,0.36367 1.03284,0.4946 0.32003,0.2182 0.50915,0.59643 0.50915,1.03284 0,0.80009 -0.56734,1.38197 -1.33833,1.38197 -0.88737,0 -1.44016,-0.56734 -1.49835,-1.54199 l -1.06194,0" />
        <path
           id="path3087"
           style=""
           d="m 340.15105,492.08234 c 0,-1.09103 -0.14547,-1.7602 -0.53824,-2.45846 -0.7128,-1.26559 -2.09478,-2.06568 -3.60767,-2.06568 -2.31298,0 -4.13137,1.81839 -4.13137,4.13137 0,2.35662 1.84748,4.2041 4.2041,4.2041 1.0183,0 1.97841,-0.37822 2.70576,-1.06193 0.56733,-0.53825 0.94556,-1.09104 1.16377,-1.74565 l -1.12013,0 c -0.45096,1.09103 -1.57108,1.81838 -2.77849,1.81838 -1.62927,0 -3.01124,-1.25105 -3.09853,-2.82213 l 7.2008,0 m -7.1717,-0.97465 c 0.29094,-1.52745 1.49835,-2.56029 3.01124,-2.56029 1.54199,0 2.7203,0.97466 3.08398,2.56029 l -6.09522,0" />
        <path
           id="path3089"
           style=""
           d="m 346.72474,495.70456 1.07648,0 0,-6.98259 1.78929,0 0,-0.97466 -1.78929,0 0,-2.79304 -1.07648,0 0,2.79304 -1.71656,0 0,0.97466 1.71656,0 0,6.98259" />
        <path
           id="path3091"
           style=""
           d="m 363.13656,495.70456 2.66211,0 c 1.44016,0 2.2548,-0.16002 2.93851,-0.56734 0.75645,-0.4655 1.20741,-1.41106 1.20741,-2.51664 0,-1.30923 -0.55279,-2.13842 -1.80384,-2.64757 0.82918,-0.4655 1.19286,-1.16376 1.19286,-2.2257 0,-0.93101 -0.34913,-1.71655 -0.9601,-2.16751 -0.61098,-0.43641 -1.41107,-0.62553 -2.72031,-0.62553 l -2.51664,0 0,10.75029 m 1.07648,-0.97465 0,-4.17501 1.28015,0 c 1.26559,0 1.90566,0.0873 2.35662,0.30549 0.64007,0.32003 1.00375,0.9601 1.00375,1.81838 0,0.7419 -0.33458,1.39652 -0.84373,1.65836 -0.50915,0.2764 -1.2365,0.39278 -2.32753,0.39278 l -1.46926,0 m 0,-5.14967 0,-3.65131 1.29469,0 c 1.10558,0 1.70201,0.10183 2.10933,0.37822 0.37822,0.2473 0.62552,0.82919 0.62552,1.45471 0,0.7419 -0.29094,1.29469 -0.82918,1.54199 -0.45096,0.20366 -0.91647,0.27639 -1.89112,0.27639 l -1.30924,0" />
        <path
           id="path3093"
           style=""
           d="m 382.42188,487.74731 -1.07648,0 0,4.08773 c 0,0.97465 -0.14547,1.58563 -0.48005,2.08023 -0.45096,0.62552 -1.16377,0.9892 -1.99295,0.9892 -0.88737,0 -1.64382,-0.36368 -2.0075,-1.00375 -0.2473,-0.40731 -0.37822,-1.04739 -0.37822,-1.86202 l 0,-4.29139 -1.07649,0 0,4.29139 c 0,1.17831 0.20366,2.00749 0.62553,2.58938 0.59643,0.82918 1.55654,1.26559 2.74939,1.26559 1.2365,0 2.02205,-0.43641 2.56029,-1.42561 l 0,1.2365 1.07648,0 0,-7.95725" />
        <path
           id="path3095"
           style=""
           d="m 396.48776,484.95427 -1.07648,0 0,4.05864 c -0.78554,-0.94556 -1.87658,-1.45471 -3.12762,-1.45471 -2.40027,0 -4.2332,1.80384 -4.2332,4.17501 0,2.35662 1.87657,4.16046 4.33503,4.16046 1.32378,0 2.2257,-0.48005 3.02579,-1.62927 l 0,1.44016 1.07648,0 0,-10.75029 m -4.2332,3.59313 c 1.7602,0 3.20036,1.41107 3.20036,3.15672 0,1.74564 -1.39652,3.20035 -3.09853,3.20035 -1.81838,0 -3.2149,-1.39652 -3.2149,-3.2149 0,-1.74565 1.38197,-3.14217 3.11307,-3.14217" />
        <path
           id="path3097"
           style=""
           d="m 410.54091,487.74731 -1.07648,0 0,1.41107 c -0.78554,-1.10558 -1.7602,-1.60018 -3.14217,-1.60018 -2.38572,0 -4.18955,1.80384 -4.18955,4.18956 0,2.37117 1.81838,4.14591 4.26229,4.14591 1.35287,0 2.2257,-0.45096 3.06943,-1.58563 l 0,1.39652 1.07648,0 0,-7.95725 m -4.18955,0.80009 c 1.74564,0 3.11307,1.36743 3.11307,3.14217 0,1.80383 -1.33833,3.2149 -3.05489,3.2149 -1.80383,0 -3.1858,-1.41107 -3.1858,-3.22945 0,-1.7311 1.39652,-3.12762 3.12762,-3.12762" />
        <path
           id="path3099"
           style=""
           d="m 417.49577,498.4976 1.14922,0 4.59688,-10.75029 -1.14922,0 -2.69121,6.34252 -2.51664,-6.34252 -1.17831,0 3.08397,7.6954 -1.29469,3.05489" />
        <path
           id="path3101"
           style=""
           d="m 436.48926,487.74731 -1.07648,0 0,1.41107 c -0.78554,-1.10558 -1.7602,-1.60018 -3.14217,-1.60018 -2.38572,0 -4.18956,1.80384 -4.18956,4.18956 0,2.37117 1.81839,4.14591 4.2623,4.14591 1.35287,0 2.2257,-0.45096 3.06943,-1.58563 l 0,1.39652 1.07648,0 0,-7.95725 m -4.18956,0.80009 c 1.74565,0 3.11308,1.36743 3.11308,3.14217 0,1.80383 -1.33833,3.2149 -3.05489,3.2149 -1.80383,0 -3.18581,-1.41107 -3.18581,-3.22945 0,-1.7311 1.39653,-3.12762 3.12762,-3.12762" />
        <path
           id="path3103"
           style=""
           d="m 449.92983,493.36248 c 0.0146,1.54199 1.03284,2.53119 2.56029,2.53119 1.42561,0 2.42936,-1.0183 2.42936,-2.473 0,-0.97465 -0.45096,-1.64382 -1.38198,-2.03659 -1.2074,-0.4946 -1.26559,-0.52369 -1.49834,-0.64007 -0.4946,-0.2473 -0.72736,-0.58188 -0.72736,-1.04739 0,-0.64007 0.50915,-1.14922 1.14922,-1.14922 0.69826,0 1.10558,0.40732 1.16377,1.16377 l 1.09103,0 c -0.0436,-1.28014 -0.96011,-2.15297 -2.24025,-2.15297 -1.29469,0 -2.2548,0.94556 -2.2548,2.24025 0,0.56733 0.20366,1.06194 0.59643,1.42561 0.33458,0.30549 0.34913,0.30549 1.46926,0.771 0.48005,0.18911 0.82918,0.36367 1.03284,0.4946 0.32003,0.2182 0.50915,0.59643 0.50915,1.03284 0,0.80009 -0.56734,1.38197 -1.33833,1.38197 -0.88737,0 -1.44016,-0.56734 -1.49835,-1.54199 l -1.06194,0" />
        <path
           id="path3105"
           style=""
           d="m 468.31984,492.08234 c 0,-1.09103 -0.14547,-1.7602 -0.53824,-2.45846 -0.71281,-1.26559 -2.09478,-2.06568 -3.60768,-2.06568 -2.31298,0 -4.13136,1.81839 -4.13136,4.13137 0,2.35662 1.84748,4.2041 4.2041,4.2041 1.01829,0 1.9784,-0.37822 2.70575,-1.06193 0.56734,-0.53825 0.94556,-1.09104 1.16377,-1.74565 l -1.12012,0 c -0.45096,1.09103 -1.57109,1.81838 -2.77849,1.81838 -1.62927,0 -3.01125,-1.25105 -3.09853,-2.82213 l 7.2008,0 m -7.17171,-0.97465 c 0.29094,-1.52745 1.49835,-2.56029 3.01125,-2.56029 1.54199,0 2.7203,0.97466 3.08398,2.56029 l -6.09523,0" />
        <path
           id="path3107"
           style=""
           d="m 473.91886,495.70456 1.07648,0 0,-1.36743 c 0.66917,0.9892 1.80384,1.55654 3.11308,1.55654 2.40026,0 4.2041,-1.78929 4.2041,-4.17501 0,-2.34207 -1.83293,-4.16046 -4.18956,-4.16046 -1.33832,0 -2.4439,0.55279 -3.12762,1.55654 l 0,-4.16047 -1.07648,0 0,10.75029 m 4.17501,-7.15716 c 1.78929,0 3.12762,1.35288 3.12762,3.14217 0,1.83293 -1.35288,3.2149 -3.14217,3.2149 -0.88737,0 -1.61472,-0.30549 -2.24025,-0.94556 -0.62552,-0.64007 -0.91646,-1.36742 -0.91646,-2.26934 0,-1.7602 1.39652,-3.14217 3.17126,-3.14217" />
        <path
           id="path3109"
           style=""
           d="m 496.047,487.74731 -1.07648,0 0,1.41107 c -0.78554,-1.10558 -1.7602,-1.60018 -3.14217,-1.60018 -2.38572,0 -4.18956,1.80384 -4.18956,4.18956 0,2.37117 1.81839,4.14591 4.2623,4.14591 1.35287,0 2.2257,-0.45096 3.06943,-1.58563 l 0,1.39652 1.07648,0 0,-7.95725 m -4.18956,0.80009 c 1.74565,0 3.11308,1.36743 3.11308,3.14217 0,1.80383 -1.33834,3.2149 -3.05489,3.2149 -1.80383,0 -3.18581,-1.41107 -3.18581,-3.22945 0,-1.7311 1.39652,-3.12762 3.12762,-3.12762" />
        <path
           id="path3111"
           style=""
           d="m 509.95536,487.74731 -1.07648,0 0,1.41107 c -0.80009,-1.09103 -1.77474,-1.60018 -3.11307,-1.60018 -2.32753,0 -4.07318,1.80384 -4.07318,4.2041 0,2.32753 1.81838,4.13137 4.14591,4.13137 1.42561,0 2.41482,-0.58188 3.04034,-1.80384 l 0,0.53825 c 0,0.78554 -0.0873,1.28014 -0.32004,1.77474 -0.42186,0.91646 -1.38197,1.44016 -2.60392,1.44016 -0.88737,0 -1.57109,-0.26185 -2.13842,-0.80009 -0.2764,-0.2473 -0.43641,-0.48005 -0.78554,-1.09103 l -1.04739,0 c 0.58188,1.86202 1.99295,2.88032 4.00044,2.88032 1.38197,0 2.54574,-0.5237 3.22945,-1.42561 0.53824,-0.72736 0.7419,-1.57109 0.7419,-3.12762 l 0,-6.53164 m -4.13137,0.80009 c 1.71656,0 3.05489,1.35288 3.05489,3.08398 0,1.86202 -1.30924,3.27309 -3.04034,3.27309 -1.74565,0 -3.05488,-1.38197 -3.05488,-3.22945 0,-1.81838 1.28014,-3.12762 3.04033,-3.12762" />
        <path
           id="path3113"
           style=""
           d="m 524.01262,487.74731 -1.07648,0 0,1.41107 c -0.78554,-1.10558 -1.7602,-1.60018 -3.14217,-1.60018 -2.38572,0 -4.18955,1.80384 -4.18955,4.18956 0,2.37117 1.81838,4.14591 4.26229,4.14591 1.35287,0 2.2257,-0.45096 3.06943,-1.58563 l 0,1.39652 1.07648,0 0,-7.95725 m -4.18955,0.80009 c 1.74564,0 3.11307,1.36743 3.11307,3.14217 0,1.80383 -1.33833,3.2149 -3.05489,3.2149 -1.80383,0 -3.1858,-1.41107 -3.1858,-3.22945 0,-1.7311 1.39652,-3.12762 3.12762,-3.12762" />
        <path
           id="path3115"
           style=""
           d="m 529.96374,495.70456 1.07648,0 0,-7.95725 -1.07648,0 0,7.95725 m 0,-8.91735 1.07648,0 0,-1.83294 -1.07648,0 0,1.83294" />
        <path
           id="path3117"
           style=""
           d="m 545.30452,495.70456 1.07648,0 0,-10.75029 -1.07648,0 0,10.75029" />
        <path
           id="path3119"
           style=""
           d="m 560.65259,484.95427 -1.07649,0 0,4.05864 c -0.78554,-0.94556 -1.87657,-1.45471 -3.12762,-1.45471 -2.40026,0 -4.23319,1.80384 -4.23319,4.17501 0,2.35662 1.87657,4.16046 4.33502,4.16046 1.32378,0 2.22571,-0.48005 3.02579,-1.62927 l 0,1.44016 1.07649,0 0,-10.75029 m -4.2332,3.59313 c 1.76019,0 3.20035,1.41107 3.20035,3.15672 0,1.74564 -1.39652,3.20035 -3.09852,3.20035 -1.81838,0 -3.2149,-1.39652 -3.2149,-3.2149 0,-1.74565 1.38197,-3.14217 3.11307,-3.14217" />
        <path
           id="path3121"
           style=""
           d="m 574.57481,492.08234 c 0,-1.09103 -0.14547,-1.7602 -0.53824,-2.45846 -0.7128,-1.26559 -2.09478,-2.06568 -3.60767,-2.06568 -2.31298,0 -4.13137,1.81839 -4.13137,4.13137 0,2.35662 1.84748,4.2041 4.2041,4.2041 1.0183,0 1.97841,-0.37822 2.70576,-1.06193 0.56733,-0.53825 0.94556,-1.09104 1.16376,-1.74565 l -1.12012,0 c -0.45096,1.09103 -1.57108,1.81838 -2.77849,1.81838 -1.62927,0 -3.01124,-1.25105 -3.09853,-2.82213 l 7.2008,0 m -7.1717,-0.97465 c 0.29094,-1.52745 1.49835,-2.56029 3.01124,-2.56029 1.54199,0 2.7203,0.97466 3.08398,2.56029 l -6.09522,0" />
        <path
           id="path3123"
           style=""
           d="m 580.17385,495.70456 1.07648,0 0,-4.37867 c 0,-0.88737 0.11638,-1.35288 0.42187,-1.80384 0.42186,-0.61097 1.16377,-0.97465 2.00749,-0.97465 0.78555,0 1.49835,0.32004 1.93476,0.85828 0.37823,0.4946 0.5237,1.07648 0.5237,2.12387 l 0,4.17501 1.07648,0 0,-4.17501 c 0,-1.33833 -0.18911,-2.05114 -0.69826,-2.73485 -0.62552,-0.78554 -1.58563,-1.2365 -2.70575,-1.2365 -1.04739,0 -1.89112,0.40732 -2.56029,1.22195 l 0,-1.03284 -1.07648,0 0,7.95725" />
        <path
           id="path3125"
           style=""
           d="m 594.12266,495.70456 1.07648,0 0,-6.98259 1.78929,0 0,-0.97466 -1.78929,0 0,-2.79304 -1.07648,0 0,2.79304 -1.71656,0 0,0.97466 1.71656,0 0,6.98259" />
        <path
           id="path3127"
           style=""
           d="m 602.20129,495.70456 1.07648,0 0,-7.95725 -1.07648,0 0,7.95725 m 0,-8.91735 1.07648,0 0,-1.83294 -1.07648,0 0,1.83294" />
        <path
           id="path3129"
           style=""
           d="m 610.18354,495.70456 1.07648,0 0,-6.98259 1.78929,0 0,-0.97466 -1.78929,0 0,-2.79304 -1.07648,0 0,2.79304 -1.71656,0 0,0.97466 1.71656,0 0,6.98259" />
        <path
           id="path3131"
           style=""
           d="m 626.36489,487.74731 -1.07649,0 0,1.41107 c -0.78554,-1.10558 -1.76019,-1.60018 -3.14216,-1.60018 -2.38572,0 -4.18956,1.80384 -4.18956,4.18956 0,2.37117 1.81839,4.14591 4.26229,4.14591 1.35288,0 2.2257,-0.45096 3.06943,-1.58563 l 0,1.39652 1.07649,0 0,-7.95725 m -4.18956,0.80009 c 1.74565,0 3.11307,1.36743 3.11307,3.14217 0,1.80383 -1.33833,3.2149 -3.05488,3.2149 -1.80384,0 -3.18581,-1.41107 -3.18581,-3.22945 0,-1.7311 1.39652,-3.12762 3.12762,-3.12762" />
        <path
           id="path3133"
           style=""
           d="m 631.66138,493.36248 c 0.0145,1.54199 1.03285,2.53119 2.56029,2.53119 1.42561,0 2.42936,-1.0183 2.42936,-2.473 0,-0.97465 -0.45096,-1.64382 -1.38197,-2.03659 -1.20741,-0.4946 -1.2656,-0.52369 -1.49835,-0.64007 -0.4946,-0.2473 -0.72736,-0.58188 -0.72736,-1.04739 0,-0.64007 0.50915,-1.14922 1.14922,-1.14922 0.69826,0 1.10558,0.40732 1.16377,1.16377 l 1.09103,0 c -0.0436,-1.28014 -0.96011,-2.15297 -2.24025,-2.15297 -1.29469,0 -2.2548,0.94556 -2.2548,2.24025 0,0.56733 0.20366,1.06194 0.59643,1.42561 0.33459,0.30549 0.34914,0.30549 1.46926,0.771 0.48005,0.18911 0.82918,0.36367 1.03284,0.4946 0.32004,0.2182 0.50915,0.59643 0.50915,1.03284 0,0.80009 -0.56734,1.38197 -1.33833,1.38197 -0.88737,0 -1.44016,-0.56734 -1.49835,-1.54199 l -1.06194,0" />
        <path
           id="path3135"
           style=""
           d="m 650.4128,495.70456 1.07648,0 0,-9.4556 6.40071,9.4556 1.07648,0 0,-10.75029 -1.07648,0 0,8.91736 -6.02249,-8.91736 -1.4547,0 0,10.75029" />
        <path
           id="path3137"
           style=""
           d="m 673.07326,492.08234 c 0,-1.09103 -0.14547,-1.7602 -0.53824,-2.45846 -0.71281,-1.26559 -2.09478,-2.06568 -3.60768,-2.06568 -2.31298,0 -4.13137,1.81839 -4.13137,4.13137 0,2.35662 1.84748,4.2041 4.20411,4.2041 1.01829,0 1.9784,-0.37822 2.70575,-1.06193 0.56734,-0.53825 0.94556,-1.09104 1.16377,-1.74565 l -1.12013,0 c -0.45095,1.09103 -1.57108,1.81838 -2.77849,1.81838 -1.62927,0 -3.01124,-1.25105 -3.09852,-2.82213 l 7.2008,0 m -7.17171,-0.97465 c 0.29094,-1.52745 1.49835,-2.56029 3.01125,-2.56029 1.54198,0 2.7203,0.97466 3.08397,2.56029 l -6.09522,0" />
        <path
           id="path3139"
           style=""
           d="m 686.62954,487.74731 -1.07648,0 0,1.41107 c -0.80009,-1.09103 -1.77475,-1.60018 -3.11307,-1.60018 -2.32753,0 -4.07318,1.80384 -4.07318,4.2041 0,2.32753 1.81838,4.13137 4.14591,4.13137 1.42561,0 2.41481,-0.58188 3.04034,-1.80384 l 0,0.53825 c 0,0.78554 -0.0873,1.28014 -0.32004,1.77474 -0.42186,0.91646 -1.38197,1.44016 -2.60392,1.44016 -0.88737,0 -1.57109,-0.26185 -2.13842,-0.80009 -0.2764,-0.2473 -0.43641,-0.48005 -0.78554,-1.09103 l -1.04739,0 c 0.58188,1.86202 1.99295,2.88032 4.00044,2.88032 1.38197,0 2.54574,-0.5237 3.22945,-1.42561 0.53824,-0.72736 0.7419,-1.57109 0.7419,-3.12762 l 0,-6.53164 m -4.13137,0.80009 c 1.71656,0 3.05489,1.35288 3.05489,3.08398 0,1.86202 -1.30924,3.27309 -3.04034,3.27309 -1.74565,0 -3.05488,-1.38197 -3.05488,-3.22945 0,-1.81838 1.28014,-3.12762 3.04033,-3.12762" />
        <path
           id="path3141"
           style=""
           d="m 700.68679,487.74731 -1.07649,0 0,1.41107 c -0.78554,-1.10558 -1.76019,-1.60018 -3.14216,-1.60018 -2.38572,0 -4.18956,1.80384 -4.18956,4.18956 0,2.37117 1.81839,4.14591 4.26229,4.14591 1.35288,0 2.2257,-0.45096 3.06943,-1.58563 l 0,1.39652 1.07649,0 0,-7.95725 m -4.18956,0.80009 c 1.74565,0 3.11307,1.36743 3.11307,3.14217 0,1.80383 -1.33833,3.2149 -3.05488,3.2149 -1.80384,0 -3.18581,-1.41107 -3.18581,-3.22945 0,-1.7311 1.39652,-3.12762 3.12762,-3.12762" />
        <path
           id="path3143"
           style=""
           d="m 706.6379,495.70456 1.07648,0 0,-4.64052 c 0,-1.4838 0.75645,-2.29843 2.2548,-2.4439 l 0,-1.06194 c -1.14922,0.0582 -1.83293,0.45096 -2.2548,1.32378 l 0,-1.13467 -1.07648,0 0,7.95725" />
        <path
           id="path3145"
           style=""
           d="m 723.22563,487.74731 -1.07648,0 0,1.41107 c -0.78554,-1.10558 -1.7602,-1.60018 -3.14217,-1.60018 -2.38571,0 -4.18955,1.80384 -4.18955,4.18956 0,2.37117 1.81838,4.14591 4.26229,4.14591 1.35288,0 2.2257,-0.45096 3.06943,-1.58563 l 0,1.39652 1.07648,0 0,-7.95725 m -4.18955,0.80009 c 1.74565,0 3.11307,1.36743 3.11307,3.14217 0,1.80383 -1.33833,3.2149 -3.05488,3.2149 -1.80384,0 -3.18581,-1.41107 -3.18581,-3.22945 0,-1.7311 1.39652,-3.12762 3.12762,-3.12762" />
      </g>
    </g>
    <rect
       style="fill:#999999;stroke:none"
       id="rect3081"
       width="659.85193"
       height="200.97012"
       x="177.18076"
       y="559.00079"
       inkscape:export-filename="/home/aank/Greenbox/base_project/desa.id/logo-transparent.png"
       inkscape:export-xdpi="88"
       inkscape:export-ydpi="88" />
    <g
       id="g3133"
       inkscape:export-filename="/home/aank/Greenbox/base_project/desa.id/logo-transparent.png"
       inkscape:export-xdpi="88"
       inkscape:export-ydpi="88">
      <path
         inkscape:connector-curvature="0"
         id="path4133"
         style="font-size:95.02555083999999397px;font-style:normal;font-variant:normal;font-stretch:normal;line-height:125%;letter-spacing:26.84471703000000176px;word-spacing:0px;fill:#ffffff;fill-opacity:1;stroke:none;font-family:URW Gothic L;-inkscape-font-specification:URW Gothic L Book"
         d="m 200.18328,696.36203 24.36451,0 c 13.59025,0 23.14018,-2.08139 31.09843,-6.73391 13.71267,-8.08068 20.93634,-21.30366 20.93634,-38.19963 0,-17.01842 -7.10123,-30.48626 -20.56904,-38.44452 -8.57042,-5.14226 -18.12036,-7.10121 -34.5266,-7.10121 l -21.30364,0 0,90.47927 m 9.06017,-8.20313 0,-74.07302 12.61078,0 c 13.71268,0 22.28314,1.71409 29.13947,5.87687 10.40695,6.24417 16.40626,17.63062 16.40626,31.09843 0,11.87616 -4.65253,22.28313 -12.97808,29.01704 -7.22366,5.75441 -16.52872,8.08068 -32.56765,8.08068 l -12.61078,0" />
      <path
         inkscape:connector-curvature="0"
         id="path4135"
         style="font-size:95.02555083999999397px;font-style:normal;font-variant:normal;font-stretch:normal;line-height:125%;letter-spacing:26.84471703000000176px;word-spacing:0px;fill:#ffffff;fill-opacity:1;stroke:none;font-family:URW Gothic L;-inkscape-font-specification:URW Gothic L Book"
         d="m 325.87976,696.36203 49.46363,0 0,-8.20313 -40.40346,0 0,-33.42468 39.05668,0 0,-8.20313 -39.05668,0 0,-32.44521 40.40346,0 0,-8.20312 -49.46363,0 0,90.47927" />
      <path
         inkscape:connector-curvature="0"
         id="path4137"
         style="font-size:95.02555083999999397px;font-style:normal;font-variant:normal;font-stretch:normal;line-height:125%;letter-spacing:26.84471703000000176px;word-spacing:0px;fill:#ffffff;fill-opacity:1;stroke:none;font-family:URW Gothic L;-inkscape-font-specification:URW Gothic L Book"
         d="m 419.37781,671.01803 c 0.85704,16.28381 11.99862,26.93566 28.28243,26.93566 15.67162,0 27.30294,-11.38645 27.30294,-26.81322 0,-7.95824 -3.30574,-15.05948 -9.06017,-19.34469 -3.67303,-2.69356 -7.46852,-4.40765 -16.77356,-7.22364 -8.20311,-2.44869 -10.89669,-3.55062 -13.34538,-5.632 -2.57113,-2.32626 -4.28522,-6.36661 -4.28522,-10.52939 0,-9.06016 6.61149,-15.79408 15.67164,-15.79408 9.1826,0 15.54922,6.36661 16.1614,16.16138 l 9.42746,0 c -0.36729,-14.69214 -10.5294,-24.48694 -25.34399,-24.48694 -14.56971,0 -25.09911,10.28453 -25.09911,24.3645 0,6.24417 2.32627,12.24348 6.36661,16.03896 3.55059,3.42816 6.36661,4.77496 16.89598,7.95826 7.10122,2.20382 11.01913,3.91791 13.95756,5.9993 4.04034,2.816 6.24418,7.46853 6.24418,12.97808 0,10.40695 -7.59097,17.99791 -17.87547,17.99791 -5.75443,0 -11.26401,-2.57113 -14.56973,-6.73391 -2.57114,-3.1833 -3.67305,-6.24417 -4.28523,-11.87618 l -9.67234,0" />
      <path
         inkscape:connector-curvature="0"
         id="path4139"
         style="font-size:95.02555083999999397px;font-style:normal;font-variant:normal;font-stretch:normal;line-height:125%;letter-spacing:26.84471703000000176px;word-spacing:0px;fill:#ffffff;fill-opacity:1;stroke:none;font-family:URW Gothic L;-inkscape-font-specification:URW Gothic L Book"
         d="m 646.77354,696.36203 9.06017,0 0,-24.73182 11.75373,-14.44729 30.11895,39.17911 11.38642,0 -35.75094,-46.40277 35.75094,-44.0765 -11.38642,0 -41.87268,52.03476 0,-52.03476 -9.06017,0 0,90.47927" />
      <path
         inkscape:connector-curvature="0"
         id="path4141"
         style="font-size:95.02555083999999397px;font-style:normal;font-variant:normal;font-stretch:normal;line-height:125%;letter-spacing:26.84471703000000176px;word-spacing:0px;fill:#ffffff;fill-opacity:1;stroke:none;font-family:URW Gothic L;-inkscape-font-specification:URW Gothic L Book"
         d="m 753.81787,605.88276 0,56.44241 c 0,11.63129 1.83653,18.48765 6.36661,24.48695 5.38712,6.97877 14.4473,11.14157 24.36452,11.14157 10.03963,0 19.09982,-4.1628 24.48695,-11.14157 4.53007,-5.9993 6.36659,-12.85566 6.36659,-24.48695 l 0,-56.44241 -9.06017,0 0,56.44241 c 0,8.20313 -1.34678,14.44731 -4.16278,18.73252 -3.42817,5.26468 -10.16208,8.57043 -17.50816,8.57043 -7.46851,0 -14.20244,-3.30575 -17.63061,-8.57043 -2.81599,-4.28521 -4.16278,-10.52939 -4.16278,-18.73252 l 0,-56.44241 -9.06017,0" />
      <path
         style="fill:#ffffff"
         d="m 501.77749,721.12304 c 0.36187,-0.40572 3.13912,-2.84458 4.61693,-4.0543 9.55818,-7.82436 23.10253,-15.85477 36.31103,-21.52876 l 2.4662,-1.05941 0.84192,-2.25472 c 1.35923,-3.64044 2.34135,-6.69644 3.09195,-9.62105 0.3865,-1.50589 0.74222,-2.6741 0.79047,-2.59599 0.0486,0.0781 0.16592,0.72442 0.26141,1.43627 0.21687,1.61673 0.0992,4.79348 -0.29438,7.94754 -0.4181,3.3508 -1.72565,11.68711 -1.85113,11.80235 -0.0589,0.0541 -0.95305,0.33833 -1.98719,0.63188 -14.62048,4.15014 -29.4175,10.50953 -41.78835,17.95964 -1.50513,0.90644 -2.61161,1.50788 -2.45886,1.33655 z m 119.60255,-19.68952 c -3.44007,-1.77438 -9.30864,-3.65914 -14.46356,-4.64519 -9.69532,-1.85451 -21.60055,-2.0058 -34.40268,-0.43717 -1.02281,0.12537 -1.90836,0.17299 -1.96802,0.10591 -0.16622,-0.18694 -0.43357,-2.72105 -0.60025,-5.68949 -0.15304,-2.72549 -0.093,-5.95192 0.17382,-9.32996 0.13638,-1.72679 0.5129,-4.55139 0.62117,-4.65964 0.0652,-0.0652 2.19652,3.08148 3.3148,4.89411 0.52129,0.8449 1.31205,2.26248 1.75719,3.15018 l 0.80946,1.614 1.55144,-0.11287 c 2.45042,-0.1782 11.30855,-0.1224 13.3393,0.084 10.68502,1.08602 18.16236,3.43622 23.931,7.52169 1.33731,0.94716 3.82941,3.35371 4.66329,4.50324 0.68358,0.94234 1.99095,3.16382 1.90893,3.24368 -0.0313,0.0307 -0.31767,-0.0783 -0.63589,-0.24251 z m -71.91573,-27.3477 c -0.47167,-2.97254 -2.57487,-6.14363 -5.53683,-8.34789 -3.47268,-2.58436 -8.60463,-4.37382 -15.18677,-5.29548 -2.63658,-0.36917 -10.53204,-0.37227 -13.37887,-0.005 -6.68117,0.8614 -12.60171,2.68852 -16.89036,5.21254 -0.76446,0.44993 -1.42614,0.81805 -1.47034,0.81805 -0.17289,0 -0.0683,-4.1272 0.14312,-5.64218 0.55632,-3.98843 1.95209,-6.96028 4.35527,-9.27275 3.00274,-2.88939 6.96034,-4.22805 12.4883,-4.22412 2.92784,0.003 5.13429,0.29703 8.46215,1.13123 5.99213,1.50203 11.83867,4.30104 16.97415,8.12627 2.03111,1.51288 5.67332,5.12301 6.86661,6.80609 1.79633,2.5336 2.80229,4.68832 3.29289,7.05296 0.26501,1.27723 0.33929,3.44402 0.14831,4.3283 -0.0739,0.34278 -0.12485,0.21221 -0.26763,-0.68778 z m -24.84913,-1.38721 c -3.26266,-0.52318 -5.16456,-1.91226 -5.16456,-3.77199 0,-1.98426 2.28783,-3.64178 5.80154,-4.20321 1.37764,-0.22012 4.51967,-0.17469 6.3148,0.0914 2.5792,0.38218 5.54378,1.22486 8.71107,2.47613 l 1.34045,0.52956 -0.97888,0.57432 c -2.34345,1.37487 -5.71323,2.8319 -8.2107,3.55009 -2.44122,0.70203 -5.9972,1.04507 -7.81372,0.75378 z m 49.7582,-1.75274 c 3.03507,-3.13896 8.53412,-6.02685 13.52341,-7.102 1.27252,-0.27422 1.9525,-0.32686 4.19448,-0.32474 2.42537,0.003 2.8068,0.0379 4.07606,0.38 2.8565,0.77 5.42937,2.46952 7.02102,4.63779 l 0.51303,0.69889 -0.54058,0.55362 c -1.15689,1.1848 -2.75574,1.69428 -4.85022,1.54561 -0.67616,-0.0479 -2.79145,-0.37987 -4.70065,-0.73749 -4.47884,-0.83894 -6.59858,-1.09239 -9.13648,-1.09239 -3.33249,0 -6.87694,0.6083 -9.67062,1.65969 l -1.00802,0.37937 z m -1.81122,-3.61024 c 1.89284,-3.78994 4.20686,-6.96327 7.4445,-10.20916 6.7026,-6.71967 15.84068,-11.25907 25.89735,-12.86474 1.90064,-0.30347 6.71294,-0.4378 8.36443,-0.23349 2.57013,0.31793 4.49035,0.99465 5.55707,1.95838 0.5294,0.47828 1.04829,1.29105 1.04829,1.64193 0,0.0752 -0.86239,0.18022 -1.9164,0.23347 -7.24711,0.36604 -17.05701,3.14169 -27.01078,7.64254 -7.92962,3.58556 -14.68682,7.84602 -18.71354,11.79908 l -1.2849,1.2614 z m -19.23334,-7.28468 c -2.43947,-2.57668 -7.33065,-6.20103 -10.69427,-7.92445 l -1.07596,-0.55129 -0.82184,-2.35278 c -2.4694,-7.06953 -5.26372,-12.42774 -9.10386,-17.45705 -1.54979,-2.02977 -2.77342,-3.46471 -5.89047,-6.90791 -3.83575,-4.23714 -5.18259,-6.04154 -6.34657,-8.50283 -1.27052,-2.68643 -1.85455,-5.72843 -1.76859,-9.21191 0.0268,-1.08727 0.092,-2.01999 0.14476,-2.07266 0.20318,-0.20279 5.89162,3.8796 9.30532,6.67816 5.54253,4.54371 11.42056,10.49328 15.44198,15.63008 6.71072,8.57177 10.48235,16.52583 11.8486,24.98749 0.21732,1.34592 0.24413,7.3934 0.0359,8.17194 l -0.13519,0.50622 -0.94009,-0.99301 z m 15.47602,-0.94161 c 0,-0.15839 0.16393,-1.18724 0.36426,-2.28636 2.45862,-13.48805 8.66196,-26.25157 16.84747,-34.66402 4.53495,-4.66075 8.65117,-7.29018 13.30648,-8.50022 2.33319,-0.60647 5.32772,-0.51212 7.53096,0.23725 6.89792,2.34613 11.67153,11.09687 13.29281,24.36781 0.50458,4.12996 0.48804,3.81258 0.19199,3.68399 -1.10476,-0.47994 -3.76291,-1.2637 -5.32275,-1.56946 -2.87711,-0.56393 -4.50044,-0.71101 -7.81034,-0.70767 -6.30823,0.006 -11.4003,1.13797 -16.47794,3.66186 -0.78974,0.39252 -1.46795,0.68156 -1.50719,0.64231 -0.0393,-0.0393 0.0689,-0.73825 0.24037,-1.55333 1.28997,-6.1317 4.8253,-11.90853 9.17813,-14.99743 0.61039,-0.43312 1.08906,-0.80816 1.0638,-0.83343 -0.0251,-0.0253 -0.61895,0.12009 -1.31942,0.32312 -4.59022,1.33018 -8.68329,4.73476 -13.38456,11.13308 -0.35075,0.4773 -2.47649,3.58612 -4.72394,6.90848 -4.04446,5.97879 -5.57429,8.1181 -7.10943,9.94161 -1.39378,1.65557 -2.77172,3.12855 -3.57714,3.8239 -0.65231,0.56316 -0.78356,0.62825 -0.78356,0.38851 z m -5.41059,-9.68241 c -1.51329,-2.98636 -2.44527,-7.021 -2.84593,-12.32023 -0.33677,-4.45376 -0.0548,-12.43506 0.67252,-19.01963 1.64207,-14.87155 6.2067,-35.55759 10.84342,-49.14003 l 0.38263,-1.12088 1.16471,1.04856 c 3.14767,2.83373 6.71825,7.32137 8.70434,10.93997 3.98503,7.26047 4.79123,15.00897 2.47739,23.80877 -1.54854,5.88913 -3.98235,11.37026 -10.30781,23.21409 -3.46796,6.49332 -6.00244,11.53561 -7.37918,14.68055 -1.07184,2.44841 -2.45007,6.07204 -2.86058,7.52108 -0.13525,0.4773 -0.29866,0.92454 -0.36317,0.99386 -0.0646,0.0693 -0.28425,-0.20341 -0.48834,-0.60611 z m -29.50997,-0.40114 c -7.28436,-0.99452 -13.20313,-2.92319 -17.33035,-5.64721 -1.55265,-1.0248 -3.54327,-3.08228 -4.1962,-4.33727 -1.13117,-2.17411 -1.25215,-4.04792 -0.37618,-5.82722 0.70975,-1.44178 2.85117,-3.51362 4.46509,-4.32005 3.216,-1.60697 6.17526,-0.85921 9.59982,2.42568 3.42676,3.28705 7.17336,9.74799 9.54128,16.45389 l 0.52347,1.48251 -0.39478,-0.017 c -0.21715,-0.009 -1.04161,-0.1054 -1.83215,-0.21329 z m 16.52239,-16.81677 c -4.31391,-4.47445 -8.87683,-10.11065 -12.0768,-14.91745 -4.38963,-6.5938 -6.56744,-12.03263 -6.37058,-15.90995 0.16466,-3.2437 1.75318,-5.27815 4.09352,-5.24267 1.6114,0.0244 3.23871,0.91391 5.29912,2.89653 7.15484,6.88467 11.95469,20.86062 11.11294,32.35811 -0.0932,1.27278 -0.21954,2.36574 -0.28081,2.42879 -0.0612,0.063 -0.86109,-0.66297 -1.77739,-1.61336 z m 4.40925,-14.74195 c -4.37549,-12.65456 -5.58412,-23.48695 -3.51234,-31.47943 1.01076,-3.89931 2.69751,-6.87634 5.2924,-9.3407 2.97449,-2.82492 7.17639,-4.64384 12.29819,-5.32369 l 0.88487,-0.11751 -0.655,0.94974 c -4.27742,6.20247 -11.5323,31.46403 -13.12881,45.71458 -0.1292,1.15347 -0.24813,2.1111 -0.26421,2.12809 -0.016,0.017 -0.42787,-1.12204 -0.9151,-2.53114 z m 31.05599,-2.32545 c 0,-0.66691 1.01629,-4.21691 1.79308,-6.26328 1.2243,-3.22531 2.32776,-5.21262 5.72875,-10.31713 2.72853,-4.09518 3.81112,-5.88615 4.6058,-7.6195 0.64387,-1.40438 0.589,-1.44027 1.36642,0.89393 0.82354,2.47267 1.03094,3.70635 1.02119,6.07471 -0.008,1.84354 -0.0559,2.25467 -0.3982,3.39895 -1.31792,4.40309 -4.58465,8.04901 -10.67384,11.91291 -2.33479,1.48156 -3.4432,2.09944 -3.4432,1.91941 z m -58.4031,-7.68568 c -2.57263,-1.33838 -4.15615,-2.30748 -5.82641,-3.56567 -6.03941,-4.54941 -6.82354,-9.82707 -2.59438,-17.46123 l 0.76133,-1.37431 0.37972,0.23763 c 1.30252,0.81521 2.77508,2.10532 3.8366,3.36128 3.69088,4.36684 5.55285,10.4257 5.40973,17.60318 l -0.0439,2.19943 -1.92279,-1.00031 z m 18.30445,-11.04724 c -3.29465,-1.87754 -5.31794,-4.32854 -5.77479,-6.99553 -0.61193,-3.57199 1.96248,-7.08862 7.04748,-9.62679 1.0443,-0.52127 3.04078,-1.40189 3.17819,-1.40189 0.0148,0 -0.40876,0.87112 -0.94191,1.93582 -1.08211,2.16094 -1.84908,4.32644 -2.33667,6.5977 -0.27629,1.28719 -0.32707,1.97064 -0.33294,4.48371 -0.005,1.70869 0.0723,3.50831 0.18019,4.24712 0.10294,0.70517 0.16347,1.30581 0.1345,1.33479 -0.0291,0.029 -0.54827,-0.22973 -1.15405,-0.57493 z"
         id="path4143"
         inkscape:connector-curvature="0"
         sodipodi:nodetypes="ccsccccsscssccsscssccccsscscccssccscscsssccccsssssccsscsscscccssscccssscsssscccscscscccsssccccscsssscsscccccccscsscscscssssccscscccsscccsssscsccscssccccccsssssccsscssccsccccccsssccccc" />
      <g
         transform="matrix(1.2884402,0,0,1.2884402,-117.56135,108.62918)"
         style="font-size:14.54706954999999979px;font-style:normal;font-variant:normal;font-stretch:normal;line-height:125%;letter-spacing:4.10954761999999985px;word-spacing:0px;fill:#ffffff;fill-opacity:1;stroke:none;font-family:URW Gothic L;-inkscape-font-specification:URW Gothic L Book"
         id="g4145">
        <path
           style="fill:#ffffff"
           d="m 247.26006,495.70456 2.89486,0 c 1.61473,0 2.7494,-0.2473 3.69496,-0.80009 1.62927,-0.96011 2.48755,-2.53119 2.48755,-4.53869 0,-2.02204 -0.84373,-3.62222 -2.44391,-4.56778 -1.01829,-0.61097 -2.15297,-0.84373 -4.10227,-0.84373 l -2.53119,0 0,10.75029 m 1.07648,-0.97465 0,-8.80098 1.49835,0 c 1.62927,0 2.64757,0.20366 3.4622,0.69826 1.2365,0.7419 1.94931,2.09478 1.94931,3.69495 0,1.41107 -0.55279,2.64757 -1.54199,3.44766 -0.85828,0.68371 -1.96386,0.96011 -3.86952,0.96011 l -1.49835,0"
           id="path4147"
           inkscape:connector-curvature="0" />
        <path
           style="fill:#ffffff"
           d="m 269.97735,492.08234 c 0,-1.09103 -0.14547,-1.7602 -0.53824,-2.45846 -0.7128,-1.26559 -2.09478,-2.06568 -3.60767,-2.06568 -2.31298,0 -4.13137,1.81839 -4.13137,4.13137 0,2.35662 1.84748,4.2041 4.2041,4.2041 1.0183,0 1.97841,-0.37822 2.70576,-1.06193 0.56733,-0.53825 0.94556,-1.09104 1.16376,-1.74565 l -1.12012,0 c -0.45096,1.09103 -1.57109,1.81838 -2.77849,1.81838 -1.62927,0 -3.01124,-1.25105 -3.09853,-2.82213 l 7.2008,0 m -7.1717,-0.97465 c 0.29094,-1.52745 1.49835,-2.56029 3.01124,-2.56029 1.54199,0 2.7203,0.97466 3.08398,2.56029 l -6.09522,0"
           id="path4149"
           inkscape:connector-curvature="0" />
        <path
           style="fill:#ffffff"
           d="m 274.92177,493.36248 c 0.0145,1.54199 1.03284,2.53119 2.56028,2.53119 1.42561,0 2.42936,-1.0183 2.42936,-2.473 0,-0.97465 -0.45096,-1.64382 -1.38197,-2.03659 -1.20741,-0.4946 -1.2656,-0.52369 -1.49835,-0.64007 -0.4946,-0.2473 -0.72735,-0.58188 -0.72735,-1.04739 0,-0.64007 0.50915,-1.14922 1.14922,-1.14922 0.69826,0 1.10557,0.40732 1.16376,1.16377 l 1.09103,0 c -0.0436,-1.28014 -0.9601,-2.15297 -2.24025,-2.15297 -1.29468,0 -2.25479,0.94556 -2.25479,2.24025 0,0.56733 0.20366,1.06194 0.59643,1.42561 0.33458,0.30549 0.34913,0.30549 1.46925,0.771 0.48006,0.18911 0.82919,0.36367 1.03284,0.4946 0.32004,0.2182 0.50915,0.59643 0.50915,1.03284 0,0.80009 -0.56733,1.38197 -1.33833,1.38197 -0.88737,0 -1.44016,-0.56734 -1.49835,-1.54199 l -1.06193,0"
           id="path4151"
           inkscape:connector-curvature="0" />
        <path
           style="fill:#ffffff"
           d="m 293.44269,487.74731 -1.07649,0 0,1.41107 c -0.78554,-1.10558 -1.76019,-1.60018 -3.14216,-1.60018 -2.38572,0 -4.18956,1.80384 -4.18956,4.18956 0,2.37117 1.81839,4.14591 4.26229,4.14591 1.35288,0 2.2257,-0.45096 3.06943,-1.58563 l 0,1.39652 1.07649,0 0,-7.95725 m -4.18956,0.80009 c 1.74565,0 3.11307,1.36743 3.11307,3.14217 0,1.80383 -1.33833,3.2149 -3.05488,3.2149 -1.80384,0 -3.18581,-1.41107 -3.18581,-3.22945 0,-1.7311 1.39652,-3.12762 3.12762,-3.12762"
           id="path4153"
           inkscape:connector-curvature="0" />
        <path
           style="fill:#ffffff"
           d="m 306.78144,495.70456 1.13467,0 1.57108,-3.62222 5.0042,0 1.55653,3.62222 1.17832,0 -4.62597,-10.75029 -1.20741,0 -4.61142,10.75029 m 3.11307,-4.59687 2.10933,-4.93146 2.06568,4.93146 -4.17501,0"
           id="path4155"
           inkscape:connector-curvature="0" />
        <path
           style="fill:#ffffff"
           d="m 321.76106,493.36248 c 0.0145,1.54199 1.03284,2.53119 2.56029,2.53119 1.42561,0 2.42936,-1.0183 2.42936,-2.473 0,-0.97465 -0.45096,-1.64382 -1.38198,-2.03659 -1.2074,-0.4946 -1.26559,-0.52369 -1.49834,-0.64007 -0.4946,-0.2473 -0.72736,-0.58188 -0.72736,-1.04739 0,-0.64007 0.50915,-1.14922 1.14922,-1.14922 0.69826,0 1.10558,0.40732 1.16377,1.16377 l 1.09103,0 c -0.0436,-1.28014 -0.96011,-2.15297 -2.24025,-2.15297 -1.29469,0 -2.2548,0.94556 -2.2548,2.24025 0,0.56733 0.20366,1.06194 0.59643,1.42561 0.33458,0.30549 0.34913,0.30549 1.46926,0.771 0.48005,0.18911 0.82918,0.36367 1.03284,0.4946 0.32003,0.2182 0.50915,0.59643 0.50915,1.03284 0,0.80009 -0.56734,1.38197 -1.33833,1.38197 -0.88737,0 -1.44016,-0.56734 -1.49835,-1.54199 l -1.06194,0"
           id="path4157"
           inkscape:connector-curvature="0" />
        <path
           style="fill:#ffffff"
           d="m 340.15105,492.08234 c 0,-1.09103 -0.14547,-1.7602 -0.53824,-2.45846 -0.7128,-1.26559 -2.09478,-2.06568 -3.60767,-2.06568 -2.31298,0 -4.13137,1.81839 -4.13137,4.13137 0,2.35662 1.84748,4.2041 4.2041,4.2041 1.0183,0 1.97841,-0.37822 2.70576,-1.06193 0.56733,-0.53825 0.94556,-1.09104 1.16377,-1.74565 l -1.12013,0 c -0.45096,1.09103 -1.57108,1.81838 -2.77849,1.81838 -1.62927,0 -3.01124,-1.25105 -3.09853,-2.82213 l 7.2008,0 m -7.1717,-0.97465 c 0.29094,-1.52745 1.49835,-2.56029 3.01124,-2.56029 1.54199,0 2.7203,0.97466 3.08398,2.56029 l -6.09522,0"
           id="path4159"
           inkscape:connector-curvature="0" />
        <path
           style="fill:#ffffff"
           d="m 346.72474,495.70456 1.07648,0 0,-6.98259 1.78929,0 0,-0.97466 -1.78929,0 0,-2.79304 -1.07648,0 0,2.79304 -1.71656,0 0,0.97466 1.71656,0 0,6.98259"
           id="path4161"
           inkscape:connector-curvature="0" />
        <path
           style="fill:#ffffff"
           d="m 363.13656,495.70456 2.66211,0 c 1.44016,0 2.2548,-0.16002 2.93851,-0.56734 0.75645,-0.4655 1.20741,-1.41106 1.20741,-2.51664 0,-1.30923 -0.55279,-2.13842 -1.80384,-2.64757 0.82918,-0.4655 1.19286,-1.16376 1.19286,-2.2257 0,-0.93101 -0.34913,-1.71655 -0.9601,-2.16751 -0.61098,-0.43641 -1.41107,-0.62553 -2.72031,-0.62553 l -2.51664,0 0,10.75029 m 1.07648,-0.97465 0,-4.17501 1.28015,0 c 1.26559,0 1.90566,0.0873 2.35662,0.30549 0.64007,0.32003 1.00375,0.9601 1.00375,1.81838 0,0.7419 -0.33458,1.39652 -0.84373,1.65836 -0.50915,0.2764 -1.2365,0.39278 -2.32753,0.39278 l -1.46926,0 m 0,-5.14967 0,-3.65131 1.29469,0 c 1.10558,0 1.70201,0.10183 2.10933,0.37822 0.37822,0.2473 0.62552,0.82919 0.62552,1.45471 0,0.7419 -0.29094,1.29469 -0.82918,1.54199 -0.45096,0.20366 -0.91647,0.27639 -1.89112,0.27639 l -1.30924,0"
           id="path4163"
           inkscape:connector-curvature="0" />
        <path
           style="fill:#ffffff"
           d="m 382.42188,487.74731 -1.07648,0 0,4.08773 c 0,0.97465 -0.14547,1.58563 -0.48005,2.08023 -0.45096,0.62552 -1.16377,0.9892 -1.99295,0.9892 -0.88737,0 -1.64382,-0.36368 -2.0075,-1.00375 -0.2473,-0.40731 -0.37822,-1.04739 -0.37822,-1.86202 l 0,-4.29139 -1.07649,0 0,4.29139 c 0,1.17831 0.20366,2.00749 0.62553,2.58938 0.59643,0.82918 1.55654,1.26559 2.74939,1.26559 1.2365,0 2.02205,-0.43641 2.56029,-1.42561 l 0,1.2365 1.07648,0 0,-7.95725"
           id="path4165"
           inkscape:connector-curvature="0" />
        <path
           style="fill:#ffffff"
           d="m 396.48776,484.95427 -1.07648,0 0,4.05864 c -0.78554,-0.94556 -1.87658,-1.45471 -3.12762,-1.45471 -2.40027,0 -4.2332,1.80384 -4.2332,4.17501 0,2.35662 1.87657,4.16046 4.33503,4.16046 1.32378,0 2.2257,-0.48005 3.02579,-1.62927 l 0,1.44016 1.07648,0 0,-10.75029 m -4.2332,3.59313 c 1.7602,0 3.20036,1.41107 3.20036,3.15672 0,1.74564 -1.39652,3.20035 -3.09853,3.20035 -1.81838,0 -3.2149,-1.39652 -3.2149,-3.2149 0,-1.74565 1.38197,-3.14217 3.11307,-3.14217"
           id="path4167"
           inkscape:connector-curvature="0" />
        <path
           style="fill:#ffffff"
           d="m 410.54091,487.74731 -1.07648,0 0,1.41107 c -0.78554,-1.10558 -1.7602,-1.60018 -3.14217,-1.60018 -2.38572,0 -4.18955,1.80384 -4.18955,4.18956 0,2.37117 1.81838,4.14591 4.26229,4.14591 1.35287,0 2.2257,-0.45096 3.06943,-1.58563 l 0,1.39652 1.07648,0 0,-7.95725 m -4.18955,0.80009 c 1.74564,0 3.11307,1.36743 3.11307,3.14217 0,1.80383 -1.33833,3.2149 -3.05489,3.2149 -1.80383,0 -3.1858,-1.41107 -3.1858,-3.22945 0,-1.7311 1.39652,-3.12762 3.12762,-3.12762"
           id="path4169"
           inkscape:connector-curvature="0" />
        <path
           style="fill:#ffffff"
           d="m 417.49577,498.4976 1.14922,0 4.59688,-10.75029 -1.14922,0 -2.69121,6.34252 -2.51664,-6.34252 -1.17831,0 3.08397,7.6954 -1.29469,3.05489"
           id="path4171"
           inkscape:connector-curvature="0" />
        <path
           style="fill:#ffffff"
           d="m 436.48926,487.74731 -1.07648,0 0,1.41107 c -0.78554,-1.10558 -1.7602,-1.60018 -3.14217,-1.60018 -2.38572,0 -4.18956,1.80384 -4.18956,4.18956 0,2.37117 1.81839,4.14591 4.2623,4.14591 1.35287,0 2.2257,-0.45096 3.06943,-1.58563 l 0,1.39652 1.07648,0 0,-7.95725 m -4.18956,0.80009 c 1.74565,0 3.11308,1.36743 3.11308,3.14217 0,1.80383 -1.33833,3.2149 -3.05489,3.2149 -1.80383,0 -3.18581,-1.41107 -3.18581,-3.22945 0,-1.7311 1.39653,-3.12762 3.12762,-3.12762"
           id="path4173"
           inkscape:connector-curvature="0" />
        <path
           style="fill:#ffffff"
           d="m 449.92983,493.36248 c 0.0146,1.54199 1.03284,2.53119 2.56029,2.53119 1.42561,0 2.42936,-1.0183 2.42936,-2.473 0,-0.97465 -0.45096,-1.64382 -1.38198,-2.03659 -1.2074,-0.4946 -1.26559,-0.52369 -1.49834,-0.64007 -0.4946,-0.2473 -0.72736,-0.58188 -0.72736,-1.04739 0,-0.64007 0.50915,-1.14922 1.14922,-1.14922 0.69826,0 1.10558,0.40732 1.16377,1.16377 l 1.09103,0 c -0.0436,-1.28014 -0.96011,-2.15297 -2.24025,-2.15297 -1.29469,0 -2.2548,0.94556 -2.2548,2.24025 0,0.56733 0.20366,1.06194 0.59643,1.42561 0.33458,0.30549 0.34913,0.30549 1.46926,0.771 0.48005,0.18911 0.82918,0.36367 1.03284,0.4946 0.32003,0.2182 0.50915,0.59643 0.50915,1.03284 0,0.80009 -0.56734,1.38197 -1.33833,1.38197 -0.88737,0 -1.44016,-0.56734 -1.49835,-1.54199 l -1.06194,0"
           id="path4175"
           inkscape:connector-curvature="0" />
        <path
           style="fill:#ffffff"
           d="m 468.31984,492.08234 c 0,-1.09103 -0.14547,-1.7602 -0.53824,-2.45846 -0.71281,-1.26559 -2.09478,-2.06568 -3.60768,-2.06568 -2.31298,0 -4.13136,1.81839 -4.13136,4.13137 0,2.35662 1.84748,4.2041 4.2041,4.2041 1.01829,0 1.9784,-0.37822 2.70575,-1.06193 0.56734,-0.53825 0.94556,-1.09104 1.16377,-1.74565 l -1.12012,0 c -0.45096,1.09103 -1.57109,1.81838 -2.77849,1.81838 -1.62927,0 -3.01125,-1.25105 -3.09853,-2.82213 l 7.2008,0 m -7.17171,-0.97465 c 0.29094,-1.52745 1.49835,-2.56029 3.01125,-2.56029 1.54199,0 2.7203,0.97466 3.08398,2.56029 l -6.09523,0"
           id="path4177"
           inkscape:connector-curvature="0" />
        <path
           style="fill:#ffffff"
           d="m 473.91886,495.70456 1.07648,0 0,-1.36743 c 0.66917,0.9892 1.80384,1.55654 3.11308,1.55654 2.40026,0 4.2041,-1.78929 4.2041,-4.17501 0,-2.34207 -1.83293,-4.16046 -4.18956,-4.16046 -1.33832,0 -2.4439,0.55279 -3.12762,1.55654 l 0,-4.16047 -1.07648,0 0,10.75029 m 4.17501,-7.15716 c 1.78929,0 3.12762,1.35288 3.12762,3.14217 0,1.83293 -1.35288,3.2149 -3.14217,3.2149 -0.88737,0 -1.61472,-0.30549 -2.24025,-0.94556 -0.62552,-0.64007 -0.91646,-1.36742 -0.91646,-2.26934 0,-1.7602 1.39652,-3.14217 3.17126,-3.14217"
           id="path4179"
           inkscape:connector-curvature="0" />
        <path
           style="fill:#ffffff"
           d="m 496.047,487.74731 -1.07648,0 0,1.41107 c -0.78554,-1.10558 -1.7602,-1.60018 -3.14217,-1.60018 -2.38572,0 -4.18956,1.80384 -4.18956,4.18956 0,2.37117 1.81839,4.14591 4.2623,4.14591 1.35287,0 2.2257,-0.45096 3.06943,-1.58563 l 0,1.39652 1.07648,0 0,-7.95725 m -4.18956,0.80009 c 1.74565,0 3.11308,1.36743 3.11308,3.14217 0,1.80383 -1.33834,3.2149 -3.05489,3.2149 -1.80383,0 -3.18581,-1.41107 -3.18581,-3.22945 0,-1.7311 1.39652,-3.12762 3.12762,-3.12762"
           id="path4181"
           inkscape:connector-curvature="0" />
        <path
           style="fill:#ffffff"
           d="m 509.95536,487.74731 -1.07648,0 0,1.41107 c -0.80009,-1.09103 -1.77474,-1.60018 -3.11307,-1.60018 -2.32753,0 -4.07318,1.80384 -4.07318,4.2041 0,2.32753 1.81838,4.13137 4.14591,4.13137 1.42561,0 2.41482,-0.58188 3.04034,-1.80384 l 0,0.53825 c 0,0.78554 -0.0873,1.28014 -0.32004,1.77474 -0.42186,0.91646 -1.38197,1.44016 -2.60392,1.44016 -0.88737,0 -1.57109,-0.26185 -2.13842,-0.80009 -0.2764,-0.2473 -0.43641,-0.48005 -0.78554,-1.09103 l -1.04739,0 c 0.58188,1.86202 1.99295,2.88032 4.00044,2.88032 1.38197,0 2.54574,-0.5237 3.22945,-1.42561 0.53824,-0.72736 0.7419,-1.57109 0.7419,-3.12762 l 0,-6.53164 m -4.13137,0.80009 c 1.71656,0 3.05489,1.35288 3.05489,3.08398 0,1.86202 -1.30924,3.27309 -3.04034,3.27309 -1.74565,0 -3.05488,-1.38197 -3.05488,-3.22945 0,-1.81838 1.28014,-3.12762 3.04033,-3.12762"
           id="path4183"
           inkscape:connector-curvature="0" />
        <path
           style="fill:#ffffff"
           d="m 524.01262,487.74731 -1.07648,0 0,1.41107 c -0.78554,-1.10558 -1.7602,-1.60018 -3.14217,-1.60018 -2.38572,0 -4.18955,1.80384 -4.18955,4.18956 0,2.37117 1.81838,4.14591 4.26229,4.14591 1.35287,0 2.2257,-0.45096 3.06943,-1.58563 l 0,1.39652 1.07648,0 0,-7.95725 m -4.18955,0.80009 c 1.74564,0 3.11307,1.36743 3.11307,3.14217 0,1.80383 -1.33833,3.2149 -3.05489,3.2149 -1.80383,0 -3.1858,-1.41107 -3.1858,-3.22945 0,-1.7311 1.39652,-3.12762 3.12762,-3.12762"
           id="path4185"
           inkscape:connector-curvature="0" />
        <path
           style="fill:#ffffff"
           d="m 529.96374,495.70456 1.07648,0 0,-7.95725 -1.07648,0 0,7.95725 m 0,-8.91735 1.07648,0 0,-1.83294 -1.07648,0 0,1.83294"
           id="path4187"
           inkscape:connector-curvature="0" />
        <path
           style="fill:#ffffff"
           d="m 545.30452,495.70456 1.07648,0 0,-10.75029 -1.07648,0 0,10.75029"
           id="path4189"
           inkscape:connector-curvature="0" />
        <path
           style="fill:#ffffff"
           d="m 560.65259,484.95427 -1.07649,0 0,4.05864 c -0.78554,-0.94556 -1.87657,-1.45471 -3.12762,-1.45471 -2.40026,0 -4.23319,1.80384 -4.23319,4.17501 0,2.35662 1.87657,4.16046 4.33502,4.16046 1.32378,0 2.22571,-0.48005 3.02579,-1.62927 l 0,1.44016 1.07649,0 0,-10.75029 m -4.2332,3.59313 c 1.76019,0 3.20035,1.41107 3.20035,3.15672 0,1.74564 -1.39652,3.20035 -3.09852,3.20035 -1.81838,0 -3.2149,-1.39652 -3.2149,-3.2149 0,-1.74565 1.38197,-3.14217 3.11307,-3.14217"
           id="path4191"
           inkscape:connector-curvature="0" />
        <path
           style="fill:#ffffff"
           d="m 574.57481,492.08234 c 0,-1.09103 -0.14547,-1.7602 -0.53824,-2.45846 -0.7128,-1.26559 -2.09478,-2.06568 -3.60767,-2.06568 -2.31298,0 -4.13137,1.81839 -4.13137,4.13137 0,2.35662 1.84748,4.2041 4.2041,4.2041 1.0183,0 1.97841,-0.37822 2.70576,-1.06193 0.56733,-0.53825 0.94556,-1.09104 1.16376,-1.74565 l -1.12012,0 c -0.45096,1.09103 -1.57108,1.81838 -2.77849,1.81838 -1.62927,0 -3.01124,-1.25105 -3.09853,-2.82213 l 7.2008,0 m -7.1717,-0.97465 c 0.29094,-1.52745 1.49835,-2.56029 3.01124,-2.56029 1.54199,0 2.7203,0.97466 3.08398,2.56029 l -6.09522,0"
           id="path4193"
           inkscape:connector-curvature="0" />
        <path
           style="fill:#ffffff"
           d="m 580.17385,495.70456 1.07648,0 0,-4.37867 c 0,-0.88737 0.11638,-1.35288 0.42187,-1.80384 0.42186,-0.61097 1.16377,-0.97465 2.00749,-0.97465 0.78555,0 1.49835,0.32004 1.93476,0.85828 0.37823,0.4946 0.5237,1.07648 0.5237,2.12387 l 0,4.17501 1.07648,0 0,-4.17501 c 0,-1.33833 -0.18911,-2.05114 -0.69826,-2.73485 -0.62552,-0.78554 -1.58563,-1.2365 -2.70575,-1.2365 -1.04739,0 -1.89112,0.40732 -2.56029,1.22195 l 0,-1.03284 -1.07648,0 0,7.95725"
           id="path4195"
           inkscape:connector-curvature="0" />
        <path
           style="fill:#ffffff"
           d="m 594.12266,495.70456 1.07648,0 0,-6.98259 1.78929,0 0,-0.97466 -1.78929,0 0,-2.79304 -1.07648,0 0,2.79304 -1.71656,0 0,0.97466 1.71656,0 0,6.98259"
           id="path4197"
           inkscape:connector-curvature="0" />
        <path
           style="fill:#ffffff"
           d="m 602.20129,495.70456 1.07648,0 0,-7.95725 -1.07648,0 0,7.95725 m 0,-8.91735 1.07648,0 0,-1.83294 -1.07648,0 0,1.83294"
           id="path4199"
           inkscape:connector-curvature="0" />
        <path
           style="fill:#ffffff"
           d="m 610.18354,495.70456 1.07648,0 0,-6.98259 1.78929,0 0,-0.97466 -1.78929,0 0,-2.79304 -1.07648,0 0,2.79304 -1.71656,0 0,0.97466 1.71656,0 0,6.98259"
           id="path4201"
           inkscape:connector-curvature="0" />
        <path
           style="fill:#ffffff"
           d="m 626.36489,487.74731 -1.07649,0 0,1.41107 c -0.78554,-1.10558 -1.76019,-1.60018 -3.14216,-1.60018 -2.38572,0 -4.18956,1.80384 -4.18956,4.18956 0,2.37117 1.81839,4.14591 4.26229,4.14591 1.35288,0 2.2257,-0.45096 3.06943,-1.58563 l 0,1.39652 1.07649,0 0,-7.95725 m -4.18956,0.80009 c 1.74565,0 3.11307,1.36743 3.11307,3.14217 0,1.80383 -1.33833,3.2149 -3.05488,3.2149 -1.80384,0 -3.18581,-1.41107 -3.18581,-3.22945 0,-1.7311 1.39652,-3.12762 3.12762,-3.12762"
           id="path4203"
           inkscape:connector-curvature="0" />
        <path
           style="fill:#ffffff"
           d="m 631.66138,493.36248 c 0.0145,1.54199 1.03285,2.53119 2.56029,2.53119 1.42561,0 2.42936,-1.0183 2.42936,-2.473 0,-0.97465 -0.45096,-1.64382 -1.38197,-2.03659 -1.20741,-0.4946 -1.2656,-0.52369 -1.49835,-0.64007 -0.4946,-0.2473 -0.72736,-0.58188 -0.72736,-1.04739 0,-0.64007 0.50915,-1.14922 1.14922,-1.14922 0.69826,0 1.10558,0.40732 1.16377,1.16377 l 1.09103,0 c -0.0436,-1.28014 -0.96011,-2.15297 -2.24025,-2.15297 -1.29469,0 -2.2548,0.94556 -2.2548,2.24025 0,0.56733 0.20366,1.06194 0.59643,1.42561 0.33459,0.30549 0.34914,0.30549 1.46926,0.771 0.48005,0.18911 0.82918,0.36367 1.03284,0.4946 0.32004,0.2182 0.50915,0.59643 0.50915,1.03284 0,0.80009 -0.56734,1.38197 -1.33833,1.38197 -0.88737,0 -1.44016,-0.56734 -1.49835,-1.54199 l -1.06194,0"
           id="path4205"
           inkscape:connector-curvature="0" />
        <path
           style="fill:#ffffff"
           d="m 650.4128,495.70456 1.07648,0 0,-9.4556 6.40071,9.4556 1.07648,0 0,-10.75029 -1.07648,0 0,8.91736 -6.02249,-8.91736 -1.4547,0 0,10.75029"
           id="path4207"
           inkscape:connector-curvature="0" />
        <path
           style="fill:#ffffff"
           d="m 673.07326,492.08234 c 0,-1.09103 -0.14547,-1.7602 -0.53824,-2.45846 -0.71281,-1.26559 -2.09478,-2.06568 -3.60768,-2.06568 -2.31298,0 -4.13137,1.81839 -4.13137,4.13137 0,2.35662 1.84748,4.2041 4.20411,4.2041 1.01829,0 1.9784,-0.37822 2.70575,-1.06193 0.56734,-0.53825 0.94556,-1.09104 1.16377,-1.74565 l -1.12013,0 c -0.45095,1.09103 -1.57108,1.81838 -2.77849,1.81838 -1.62927,0 -3.01124,-1.25105 -3.09852,-2.82213 l 7.2008,0 m -7.17171,-0.97465 c 0.29094,-1.52745 1.49835,-2.56029 3.01125,-2.56029 1.54198,0 2.7203,0.97466 3.08397,2.56029 l -6.09522,0"
           id="path4209"
           inkscape:connector-curvature="0" />
        <path
           style="fill:#ffffff"
           d="m 686.62954,487.74731 -1.07648,0 0,1.41107 c -0.80009,-1.09103 -1.77475,-1.60018 -3.11307,-1.60018 -2.32753,0 -4.07318,1.80384 -4.07318,4.2041 0,2.32753 1.81838,4.13137 4.14591,4.13137 1.42561,0 2.41481,-0.58188 3.04034,-1.80384 l 0,0.53825 c 0,0.78554 -0.0873,1.28014 -0.32004,1.77474 -0.42186,0.91646 -1.38197,1.44016 -2.60392,1.44016 -0.88737,0 -1.57109,-0.26185 -2.13842,-0.80009 -0.2764,-0.2473 -0.43641,-0.48005 -0.78554,-1.09103 l -1.04739,0 c 0.58188,1.86202 1.99295,2.88032 4.00044,2.88032 1.38197,0 2.54574,-0.5237 3.22945,-1.42561 0.53824,-0.72736 0.7419,-1.57109 0.7419,-3.12762 l 0,-6.53164 m -4.13137,0.80009 c 1.71656,0 3.05489,1.35288 3.05489,3.08398 0,1.86202 -1.30924,3.27309 -3.04034,3.27309 -1.74565,0 -3.05488,-1.38197 -3.05488,-3.22945 0,-1.81838 1.28014,-3.12762 3.04033,-3.12762"
           id="path4211"
           inkscape:connector-curvature="0" />
        <path
           style="fill:#ffffff"
           d="m 700.68679,487.74731 -1.07649,0 0,1.41107 c -0.78554,-1.10558 -1.76019,-1.60018 -3.14216,-1.60018 -2.38572,0 -4.18956,1.80384 -4.18956,4.18956 0,2.37117 1.81839,4.14591 4.26229,4.14591 1.35288,0 2.2257,-0.45096 3.06943,-1.58563 l 0,1.39652 1.07649,0 0,-7.95725 m -4.18956,0.80009 c 1.74565,0 3.11307,1.36743 3.11307,3.14217 0,1.80383 -1.33833,3.2149 -3.05488,3.2149 -1.80384,0 -3.18581,-1.41107 -3.18581,-3.22945 0,-1.7311 1.39652,-3.12762 3.12762,-3.12762"
           id="path4213"
           inkscape:connector-curvature="0" />
        <path
           style="fill:#ffffff"
           d="m 706.6379,495.70456 1.07648,0 0,-4.64052 c 0,-1.4838 0.75645,-2.29843 2.2548,-2.4439 l 0,-1.06194 c -1.14922,0.0582 -1.83293,0.45096 -2.2548,1.32378 l 0,-1.13467 -1.07648,0 0,7.95725"
           id="path4215"
           inkscape:connector-curvature="0" />
        <path
           style="fill:#ffffff"
           d="m 723.22563,487.74731 -1.07648,0 0,1.41107 c -0.78554,-1.10558 -1.7602,-1.60018 -3.14217,-1.60018 -2.38571,0 -4.18955,1.80384 -4.18955,4.18956 0,2.37117 1.81838,4.14591 4.26229,4.14591 1.35288,0 2.2257,-0.45096 3.06943,-1.58563 l 0,1.39652 1.07648,0 0,-7.95725 m -4.18955,0.80009 c 1.74565,0 3.11307,1.36743 3.11307,3.14217 0,1.80383 -1.33833,3.2149 -3.05488,3.2149 -1.80384,0 -3.18581,-1.41107 -3.18581,-3.22945 0,-1.7311 1.39652,-3.12762 3.12762,-3.12762"
           id="path4217"
           inkscape:connector-curvature="0" />
      </g>
    </g>
    <path
       style="fill:#ff6600;fill-opacity:1;stroke:none"
       d="m 43.548934,513.98686 c -2.370018,-0.63815 -3.791324,-1.45678 -5.868523,-3.37986 -2.21998,-2.05533 -3.834567,-5.09031 -4.301716,-8.08619 -0.422597,-2.71006 -0.420581,-141.38278 0,-144.30687 0.879061,-6.08129 5.893219,-11.02512 11.984154,-11.81603 1.321717,-0.17163 19.056864,-0.28656 43.261494,-0.28037 l 41.021507,0.0105 -2.20239,1.02563 c -5.0636,2.35808 -9.01887,5.67722 -10.68512,8.96666 -0.78476,1.54929 -0.88833,2.07514 -0.88818,4.509 1.5e-4,2.36374 0.11949,3.00988 0.8398,4.54794 1.33517,2.85082 6.10882,7.17419 9.20146,8.33346 0.50541,0.18944 0.53161,0.0693 0.31429,-1.43927 -0.3732,-2.59031 -0.27407,-11.55244 0.14858,-13.43198 0.64949,-2.8881 1.86472,-6.36236 3.32881,-9.51681 l 1.40846,-3.03454 3.33808,0 3.33808,0 -0.94584,1.37471 c -2.59263,3.76825 -4.55598,9.53242 -5.24932,15.41121 -0.43988,3.7301 -0.16011,14.51522 0.47955,18.48414 0.78436,4.8669 1.93044,9.95301 3.37175,14.96308 1.44495,5.02291 3.44514,10.9948 3.81053,11.37688 0.12141,0.12696 0.60423,-2.49047 1.07295,-5.81651 2.13919,-15.17938 7.29456,-35.72214 12.82894,-51.11995 l 1.62477,-4.52049 2.1403,-0.0887 2.14025,-0.0887 -2.24196,8.96171 c -4.88372,19.52144 -8.21959,37.76971 -9.7545,53.36013 -0.65272,6.62971 -0.91761,22.77602 -0.44512,27.13081 0.69455,6.40154 1.65884,10.57212 3.4417,14.88558 0.50455,1.22072 1.08726,2.21947 1.29496,2.21947 0.20769,0 0.76702,-1.1365 1.24289,-2.5256 2.7461,-8.01562 5.74016,-14.45517 14.69593,-31.60795 9.09926,-17.42754 12.12532,-23.99281 14.53354,-31.53145 2.19221,-6.86235 3.22348,-14.68035 2.75558,-20.88972 -0.46393,-6.156 -1.76493,-10.82754 -4.60502,-16.53473 l -1.71382,-3.44397 4.3132,0.009 c 7.84886,0.0172 10.90199,0.83037 14.15359,3.76969 3.47959,3.14544 4.70087,6.36294 4.70087,12.38464 0,4.44763 0.53254,3.26519 -6.09385,13.53087 -5.39145,8.35247 -7.52994,12.47728 -9.33992,18.01537 -1.61877,4.95311 -1.98809,6.7812 -1.37,6.7812 0.64199,0 6.31995,-3.51286 9.34168,-5.77951 1.48612,-1.11475 3.77303,-3.09444 5.08206,-4.39933 l 2.38003,-2.37251 0,5.47337 0,5.47337 -3.44397,1.69508 c -1.8942,0.9323 -4.6149,2.54759 -6.04608,3.58959 -3.35774,2.44466 -10.23929,9.39969 -13.30254,13.44462 -8.97029,11.84495 -15.58427,26.77367 -18.80815,42.45264 -1.03036,5.01093 -1.14713,6.24072 -0.59254,6.24072 0.55041,0 4.72275,-4.45488 7.49178,-7.99915 1.3641,-1.74603 5.69127,-7.85838 9.61595,-13.58301 3.92463,-5.72469 8.12847,-11.6483 9.34188,-13.16365 4.34067,-5.42093 10.13602,-10.41014 14.03185,-12.08011 1.76138,-0.75498 1.71182,-0.75251 1.71182,-0.086 0,0.29599 -0.86099,1.43975 -1.91331,2.54157 -3.71934,3.89444 -7.00073,9.47206 -8.78536,14.93321 -0.90688,2.77513 -1.69906,6.42695 -1.44852,6.67748 0.0751,0.0751 1.49574,-0.47431 3.1571,-1.22087 2.91554,-1.31012 8.12954,-3.26505 8.70835,-3.26505 0.15701,0 0.28174,1.74799 0.28174,3.94806 l 0,3.94807 -2.83172,1.09905 c -12.33765,4.78837 -23.55363,13.56568 -30.51248,23.8783 -1.47408,2.18444 -4.61596,7.81403 -4.61596,8.27069 0,0.12368 1.20535,-0.88637 2.67861,-2.24452 5.44679,-5.02122 13.28103,-10.17402 22.27102,-14.64825 4.39445,-2.18712 12.10585,-5.57742 12.686,-5.57742 0.22033,0 0.32453,2.56597 0.32453,7.99214 0,7.49601 -0.0333,7.97773 -0.53572,7.7598 -1.10701,-0.48015 -4.90506,-1.03384 -7.17191,-1.04553 -6.77858,-0.0353 -14.407,2.42969 -21.22171,6.8568 -2.42581,1.57588 -6.4269,5.02091 -6.15137,5.29644 0.0786,0.0787 1.21936,-0.21062 2.53493,-0.64289 3.58867,-1.17919 6.30523,-1.71276 10.1217,-1.98799 4.36643,-0.31495 8.44528,0.005 16.14839,1.26542 l 6.12263,1.00203 0.0834,8.71678 c 0.086,8.9842 -0.0508,10.52117 -1.16674,13.11537 l -0.6201,1.44146 -3.12798,-0.45006 c -2.27935,-0.32795 -6.21532,-0.45571 -14.50739,-0.47103 l -11.37936,-0.0212 -0.66481,-1.37761 c -1.04377,-2.16263 -4.67533,-8.19016 -6.44414,-10.69565 -1.45729,-2.0642 -1.63091,-2.21398 -1.8573,-1.60199 -0.55843,1.50956 -0.90704,5.82841 -1.08535,13.44563 l -0.18814,8.03594 -14.99727,0 -14.99726,0 0.1774,-1.30105 c 0.86415,-6.33663 1.00516,-14.86538 0.2582,-15.61234 -0.29685,-0.29685 -0.57954,0.50953 -2.22663,6.3519 -0.33229,1.17858 -1.2371,4.03707 -2.01073,6.35221 l -1.40659,4.20928 -39.982876,-0.0202 c -33.444502,-0.0166 -40.245661,-0.0909 -41.589856,-0.45289 z m 87.071226,-27.6929 c -0.29846,-5.21666 -2.00578,-9.48819 -5.81868,-14.55788 -1.83528,-2.44018 -7.14558,-7.56557 -10.10245,-9.75067 -12.36421,-9.13701 -28.599531,-14.43804 -40.910221,-13.35773 -4.565253,0.40062 -7.037985,1.03046 -10.344218,2.63476 -5.668338,2.75048 -9.655362,8.03251 -11.088764,14.69039 -0.695608,3.23093 -1.192291,11.15917 -0.699086,11.15917 0.175036,0 2.159048,-0.93047 4.408915,-2.06773 5.932178,-2.99849 11.426035,-4.72708 19.856396,-6.24747 3.418169,-0.61643 4.823296,-0.69057 13.163594,-0.69455 8.441454,-0.005 9.688774,0.0623 13.004884,0.69127 16.04759,3.04381 25.23499,9.40251 27.59896,19.10162 0.73916,3.03267 1.1549,2.31745 0.93067,-1.60118 z m -29.22665,-0.14394 c 1.42549,-0.24857 4.02654,-0.95027 5.78003,-1.5593 3.26788,-1.13499 10.4504,-4.5272 11.00777,-5.19877 0.39246,-0.47284 -5.6501,-2.7473 -10.52888,-3.96318 -5.88904,-1.46762 -13.242772,-1.52377 -17.187511,-0.13114 -7.321984,2.58487 -7.060765,8.79031 0.457523,10.86882 1.92192,0.53131 7.379138,0.52279 10.471068,-0.0166 l 0,0 z m 36.23274,-19.05822 c 0.39407,-3.67964 -0.0635,-11.21255 -0.89756,-14.77637 -2.50534,-10.70548 -6.99505,-20.02095 -14.82793,-30.76614 -8.4167,-11.54604 -23.12467,-25.54701 -36.01949,-34.28801 l -3.051313,-2.0684 -0.273466,1.0349 c -0.383235,1.45018 -0.06451,7.61069 0.541085,10.45847 0.975324,4.58642 3.322159,9.07839 7.072054,13.53624 0.991452,1.17858 3.404461,3.93375 5.362315,6.12259 10.789445,12.06252 15.333325,19.42361 20.596155,33.36572 l 1.96355,5.2017 3.57844,2.14544 c 4.78736,2.87018 9.187,6.16648 12.55265,9.40467 1.52478,1.46707 2.86469,2.67247 2.97758,2.67867 0.11285,0.006 0.30451,-0.91606 0.42593,-2.04948 z m -27.41758,-15.71294 c 0,-0.17836 -0.77408,-2.2792 -1.72022,-4.66852 -5.48705,-13.85693 -12.801175,-23.75224 -19.41369,-26.26479 -1.889513,-0.71799 -4.884229,-0.75594 -6.951853,-0.0882 -3.251297,1.05007 -7.485579,5.12604 -8.54008,8.22085 -1.981441,5.81525 3.030298,12.73581 12.346575,17.04907 5.141667,2.38045 11.993178,4.29561 19.490198,5.44794 4.52579,0.69561 4.78907,0.71229 4.78907,0.30365 z m 24.35069,-25.92288 c 1.3073,-17.43719 -5.44815,-37.79427 -16.08362,-48.46681 -3.63292,-3.64559 -5.59954,-4.72688 -8.59703,-4.72688 -1.7492,0 -2.16621,0.11632 -3.17484,0.88565 -0.70262,0.53591 -1.47896,1.56347 -1.96602,2.6021 -0.73104,1.55906 -0.80205,2.03933 -0.77413,5.23697 0.0252,2.88338 0.17997,4.01467 0.85557,6.25109 2.4055,7.96321 8.78467,18.22097 18.95793,30.48459 3.40895,4.10939 9.66691,10.71455 10.15139,10.71455 0.2957,0 0.46841,-0.81647 0.63075,-2.98126 l 0,0 z M 100.0853,383.28299 c -0.56401,-10.04365 -3.39236,-17.47626 -8.838338,-23.22624 -1.735141,-1.83197 -4.955342,-4.47857 -5.449253,-4.47857 -0.366604,0 -3.565385,6.69687 -4.371116,9.15112 -0.914895,2.78701 -1.115282,6.43337 -0.487712,8.87601 1.457593,5.67344 5.627263,9.83235 15.034709,14.99602 l 3.97972,2.18441 0.18632,-1.60846 c 0.10247,-0.88465 0.078,-3.53709 -0.0543,-5.89429 z"
       id="path3088"
       inkscape:connector-curvature="0"
       inkscape:export-filename="/home/aank/Greenbox/base_project/desa.id/favicon.png"
       inkscape:export-xdpi="88"
       inkscape:export-ydpi="88" />
  </g>
</svg>
