<?xml version="1.0" encoding="UTF-8" standalone="no"?>
<svg
   xmlns:dc="http://purl.org/dc/elements/1.1/"
   xmlns:cc="http://creativecommons.org/ns#"
   xmlns:rdf="http://www.w3.org/1999/02/22-rdf-syntax-ns#"
   xmlns:svg="http://www.w3.org/2000/svg"
   xmlns="http://www.w3.org/2000/svg"
   xmlns:sodipodi="http://sodipodi.sourceforge.net/DTD/sodipodi-0.dtd"
   xmlns:inkscape="http://www.inkscape.org/namespaces/inkscape"
   width="256"
   height="256"
   viewBox="0 0 67.73333 67.733336"
   id="svg1031"
   inkscape:version="0.92.5 (2060ec1f9f, 2020-04-08)"
   sodipodi:docname="icon-albert-256.svg"
   version="1.1">
  <sodipodi:namedview
     pagecolor="#ffffff"
     bordercolor="#666666"
     borderopacity="1"
     objecttolerance="10"
     gridtolerance="10"
     guidetolerance="10"
     inkscape:pageopacity="0"
     inkscape:pageshadow="2"
     inkscape:window-width="1920"
     inkscape:window-height="1015"
     id="namedview70"
     showgrid="false"
     inkscape:zoom="1.84375"
     inkscape:cx="51.356161"
     inkscape:cy="127.16629"
     inkscape:window-x="0"
     inkscape:window-y="28"
     inkscape:window-maximized="1"
     inkscape:current-layer="layer1" />
  <defs
     id="defs1025" />
  <metadata
     id="metadata1028">
    <rdf:RDF>
      <cc:Work
         rdf:about="">
        <dc:format>image/svg+xml</dc:format>
        <dc:type
           rdf:resource="http://purl.org/dc/dcmitype/StillImage" />
      </cc:Work>
    </rdf:RDF>
  </metadata>
  <g
     inkscape:label="Layer 1"
     inkscape:groupmode="layer"
     id="layer1"
     transform="translate(0,-229.26665)">
    <path
       style="opacity:0.64197531;fill:#916f6f;fill-opacity:1;fill-rule:nonzero;stroke:none;stroke-width:0.34011167"
       d="m 31.408477,268.7207 c -6.218646,-0.0337 -3.857243,0.0853 -10.075981,0.0719 -2.359743,-4.46009 -1.047794,-7.76584 -0.718568,-10.49327 3.206561,-1.94013 2.975702,-1.74995 6.500954,-3.4891 l -0.494927,0.83182 c 0.143999,1.15809 0.02381,1.23217 -0.302541,2.00839 0.438126,0.0154 0.989665,0.0266 1.566341,0.12244 l 2.043573,-1.01072 -0.04343,-0.43099 0.458293,-0.55785 -0.12143,-0.40713 c -0.09888,-0.51476 -0.404944,-0.81748 0.161277,-0.92572 l 0.551066,0.24939 0.89828,1.45136 c 0.828276,0.29771 1.593623,0.6061 2.408198,0.93317 l 0.61753,0.98679 c 1.06627,1.58662 1.633923,3.87905 2.307147,5.65188 0.0444,-1.85923 0.03987,-3.1179 0.07475,-3.96178 0.307356,-0.41046 0.614708,-0.82092 0.922063,-1.23139 0.416093,-0.0776 0.832182,-0.15528 1.248271,-0.23291 l 0.312713,-0.34805 c 0.171987,-0.19142 0.35445,-0.40057 0.405467,-0.46478 0.07482,-0.0942 1.596362,-1.43203 1.883845,-1.65643 0.06228,-0.0486 0.260223,-0.01 1.159447,0.22861 l 1.084341,0.28723 0.940524,0.83809 c 0.921876,0.82147 1.070393,0.93927 1.020611,0.80954 -0.0136,-0.0354 -0.11521,-0.45389 -0.225828,-0.92994 l -0.201121,-0.86556 -0.929413,-0.34633 -0.929417,-0.34632 -0.337496,-0.91629 c -0.185622,-0.50397 -0.326708,-0.92708 -0.313525,-0.94027 0.01316,-0.0132 0.311148,0.0447 0.662143,0.12868 l 0.638169,0.15265 0.401308,0.3814 c 0.71452,0.67907 1.32969,1.02342 2.729202,1.52771 0.471895,0.17004 0.972777,0.36551 1.11307,0.43437 l 0.255077,0.12522 0.725145,2.00265 0.725145,2.00265 -1.029701,4.21199 -1.029702,4.21199 -1.017213,0.005 c -0.55947,0.003 -7.779116,-0.0422 -16.043659,-0.10042 z"
       id="path7375"
       inkscape:connector-curvature="0"
       sodipodi:nodetypes="ccccccccccccccccccccsssscssscccssscssscccccscc" />
    <circle
       id="path7377"
       style="fill:#e3dbdb;fill-opacity:1;fill-rule:nonzero;stroke:none;stroke-width:0.16744179"
       cx="33.353905"
       cy="258.09778"
       r="0.72333515" />
    <circle
       style="fill:#e3dbdb;fill-opacity:1;fill-rule:nonzero;stroke:none;stroke-width:0.10046508"
       id="path7379"
       cx="39.016582"
       cy="259.00714"
       r="0.43400112" />
    <circle
       style="fill:#e3dbdb;fill-opacity:1;fill-rule:nonzero;stroke:none;stroke-width:0.12916937"
       id="path7381"
       cx="34.924572"
       cy="259.75113"
       r="0.5580014" />
    <path
       sodipodi:nodetypes="cccccccscccccccc"
       inkscape:connector-curvature="0"
       id="path7383"
       d="m 26.579948,255.6343 -0.185822,1.2731 -0.652598,0.55116 -1.283056,1.5532 -0.146137,1.11063 1.344449,-0.87682 -1.169085,2.2505 c 0,0 3.916438,-3.12731 4.968616,-2.80581 0.139758,0.0427 -1.782857,-0.17536 -1.782857,-0.17536 l 2.893488,-1.25677 1.256768,0.17536 h 0.847587 l -1.256768,-0.7599 -0.423794,-1.91438 -1.0544,-0.20649 z"
       style="fill:#ac9393;stroke:none;stroke-width:0.34011167" />
    <path
       inkscape:connector-curvature="0"
       id="path7385"
       d="m 39.677918,257.99446 -0.08266,1.32267 0.433999,-0.806 1.012669,-0.51667 0.537336,-0.90933 1.90134,0.64067 0.516667,-0.28934 1.054002,0.82667 -0.08267,0.682 1.694671,-0.16533 0.268668,-0.51667 -0.392669,-1.40534 -0.682002,-1.15734 -1.446669,-0.30999 -1.13667,-0.95067 -1.632672,1.07466 -1.343336,1.61201 z"
       style="fill:#ac9393;fill-opacity:1;stroke:none;stroke-width:0.34011167" />
    <path
       sodipodi:nodetypes="cscssccsccc"
       inkscape:connector-curvature="0"
       id="path7387"
       d="m 23.220791,262.49043 c 0.151481,-0.49097 0.128796,-1.81183 -0.0086,-1.76768 l 0.473666,-0.15222 0.232961,-0.65817 c 0.120188,-0.33956 0.515076,-1.09657 0.520522,-1.09657 0.0054,0 -0.0886,0.84101 -0.08396,1.15447 0.0092,0.62419 -0.109532,1.80898 -0.03152,1.90927 0.02719,0.035 0.474743,-1.07948 0.475536,-0.92267 l 0.006,1.17658 c -0.430988,0.0933 -1.273483,0.26772 -1.569971,0.33142 z"
       style="fill:#916f6f;fill-opacity:1;fill-rule:nonzero;stroke:none;stroke-width:0.34011167" />
    <path
       sodipodi:nodetypes="ccccccccccccccccccccccccccccccccccccccccccccccc"
       inkscape:connector-curvature="0"
       id="path7395"
       d="m 25.239456,243.47006 c -0.109292,-0.77903 -0.548848,-1.39293 -0.888213,-2.05692 -0.278055,-1.04431 -0.06208,-2.0177 -0.560977,-3.17886 l -0.701221,-0.65448 0.981709,-0.65447 0.0935,-1.44919 c 0.962063,-1.43396 2.142954,-2.46244 3.295738,-3.73985 l 0.186992,0.60773 2.851633,-0.88821 2.454272,-1.96343 -0.490854,1.49595 1.940045,-0.79472 -0.701221,1.14532 3.763217,0.14025 -0.701218,0.67784 1.379068,1.58944 0.537601,0.93496 1.192077,0.67785 -0.02336,0.65447 0.771342,0.30386 -0.210365,0.93496 0.0935,1.3557 1.05183,0.77134 -0.140242,0.86484 0.04675,1.86992 -0.16528,0.92597 -1.025621,0.63041 c 0.229787,2.13306 0.264791,2.02887 -0.782355,3.75666 -0.219399,0.30191 -0.841124,1.47306 -1.495747,1.75308 0.125525,0.7862 0.24754,1.53691 0.501784,2.26477 0.54694,1.53111 2.082555,2.23211 3.013968,2.68337 l -0.140245,1.02846 -2.056914,3.08537 -4.020334,0.23374 -1.075207,-1.49594 -2.384151,-0.84147 -1.075206,-1.72967 -1.215449,-1.63619 c 0.449497,-0.16764 0.741379,-0.14306 2.002674,-0.25508 -0.07804,-0.5888 -0.298082,-1.10852 -0.607401,-1.6395 -0.769594,-0.12259 -1.968805,-0.80897 -2.528914,-1.37778 l -1.390755,-1.96342 -0.70122,-0.0701 -0.537603,-0.98171 -1.028458,-1.37907 -0.134401,-1.40829 z"
       style="fill:#ffe6d5;stroke:none;stroke-width:0.34011167" />
    <path
       sodipodi:nodetypes="cscccc"
       inkscape:connector-curvature="0"
       id="path7397"
       d="m 40.257502,243.68839 c 0.01925,-0.18591 -0.636461,-3.02949 -0.662211,-3.04203 -0.03098,-0.0151 0.110166,-1.29422 0.602073,-1.66813 0.684981,-0.29451 1.042238,0.0521 1.270201,0.70221 0.359961,2.3403 0.225154,2.81333 -0.03333,3.45225 -0.145717,0.31212 -0.810649,0.60795 -1.176721,0.5557 z"
       style="fill:#fff5ed;fill-opacity:1;fill-rule:nonzero;stroke:none;stroke-width:0.34011167" />
    <path
       sodipodi:nodetypes="cssccccccc"
       inkscape:connector-curvature="0"
       id="path7399"
       d="m 28.417103,249.52869 -1.372063,-1.948 c -0.123751,-0.17569 -0.259214,-1.57449 -1.759755,-4.09352 -0.603156,-1.01255 0.534879,-4.52541 0.442585,-4.50336 2.84323,6.43958 0.529844,4.90089 4.413865,10.28143 1.918333,0.74501 3.10858,0.21663 4.890938,-0.87176 1.138854,-0.33298 3.212671,-0.85339 2.410885,-2.43023 0.721356,0.95521 0.55112,2.88595 -0.564973,4.04357 -0.813245,0.55043 -1.933987,0.79398 -3.33304,1.0355 -3.200786,0.17376 -4.239455,-0.81191 -5.128442,-1.51363 z"
       style="opacity:0.64197531;fill:#ccae99;fill-opacity:1;fill-rule:nonzero;stroke:none;stroke-width:0.34011167" />
    <path
       sodipodi:nodetypes="cccccccccc"
       inkscape:connector-curvature="0"
       id="path7401"
       d="m 35.70324,249.77447 c 0.321379,-1.43713 2.482996,-2.13809 1.778387,-3.74591 1.036514,-0.53745 1.18956,-1.75339 1.192036,-2.77598 0.263543,-2.28173 -0.234486,-3.3928 -0.920695,-5.63936 0.657106,0.97567 1.121797,1.77956 1.789365,2.87267 l 0.397304,1.53923 c 0.220593,1.00469 0.627057,2.73825 0.429833,3.82852 -0.207019,0.46612 -0.881059,1.63188 -1.456014,2.5913 -0.506787,0.41435 -1.55562,1.26039 -2.173191,1.65551 -0.01394,0 -1.475017,0.8317 -1.037025,-0.32598 z"
       style="opacity:0.58024693;fill:#ffffff;fill-opacity:1;fill-rule:nonzero;stroke:none;stroke-width:0.34011167" />
    <path
       sodipodi:nodetypes="ccccccsscscccssscssscsssscssscssssscccccsscssscccsssscsssssssc"
       inkscape:connector-curvature="0"
       id="path7403"
       d="m 25.278296,243.46207 c -0.04501,-0.0286 -0.495681,-0.72406 -0.949536,-1.1845 0.02082,-1.07633 -0.220258,-2.32652 -0.584454,-3.98544 -0.20278,-0.20587 -0.732797,-0.55199 -0.935577,-0.75787 0.439322,-0.18892 0.855644,-0.3934 1.238507,-0.67607 0.06714,-0.3964 -0.162455,-1.08186 -0.223937,-1.46883 -0.0015,-0.11935 1.197142,-1.06594 2.471405,-2.48422 0.42074,-0.4683 0.84593,-0.9443 0.944866,-1.05779 0.114076,-0.13086 0.198727,-0.1808 0.23139,-0.13651 0.02833,0.0384 0.09921,0.1355 0.157519,0.21575 l 0.10601,0.14591 1.315392,-0.47663 1.315392,-0.47662 1.377966,-0.91748 c 0.757881,-0.50461 1.392127,-0.90332 1.409437,-0.88601 0.01731,0.0173 -0.05635,0.32444 -0.163696,0.68252 -0.107343,0.35808 -0.186951,0.66026 -0.176909,0.67153 0.01004,0.0112 0.467323,-0.20443 1.016177,-0.47931 0.548854,-0.27489 1.010742,-0.49979 1.026421,-0.49979 0.01568,0 -0.11489,0.31981 -0.290147,0.7107 l -0.318649,0.7107 0.241388,0.0413 c 0.132763,0.0227 0.866144,0.0771 1.629735,0.12084 0.763589,0.0438 1.427867,0.0921 1.47617,0.10738 0.05853,0.0185 -0.01541,0.14865 -0.22161,0.39003 l -0.309433,0.36219 0.200114,0.24943 c 0.110064,0.13718 0.411505,0.45767 0.669867,0.7122 0.413893,0.40775 0.485449,0.51543 0.601706,0.90545 l 0.131949,0.44266 0.600893,0.31682 c 0.619805,0.3268 0.71788,0.43798 0.71788,0.81382 0,0.16902 0.03918,0.20394 0.366096,0.32625 0.20135,0.0753 0.395662,0.13697 0.431799,0.13697 0.135055,0 0.12041,0.18148 -0.06123,0.75875 l -0.186735,0.59348 0.121832,0.56348 c -0.03554,0.77371 0.990062,0.98583 0.883658,1.56884 l -0.04647,0.24769 c -0.417501,-1.39843 -1.881359,-0.92672 -1.842106,1.08062 -0.18612,-0.53823 -0.269974,-1.17836 -0.461641,-1.7056 -0.309916,-0.85254 -0.475119,-1.1696 -1.492791,-2.86507 l -1.144309,-1.90645 -0.906547,-0.61858 c -0.885624,-0.60431 -0.911255,-0.61662 -1.110334,-0.53342 -0.112081,0.0468 -0.531036,0.22191 -0.931012,0.38905 l -0.727229,0.30388 -1.511902,0.0818 -1.511901,0.0819 -0.711775,0.48105 c -0.703799,0.47567 -0.713107,0.47959 -0.830894,0.34944 -0.06552,-0.0724 -0.156341,-0.11735 -0.201833,-0.0999 -0.04549,0.0174 -0.496841,0.37526 -1.002995,0.79511 l -0.92028,0.76338 -0.144767,0.74432 c -0.07962,0.40937 -0.159018,0.78601 -0.176434,0.83697 -0.0201,0.0588 -0.142021,-0.0558 -0.333888,-0.31403 -0.166221,-0.22368 -0.343189,-0.40669 -0.393261,-0.40669 -0.104792,0 -0.120043,-0.0459 0.357558,1.07647 0.288118,0.67709 0.336257,0.82487 0.304153,1.1239 -0.06177,0.57538 0.683041,1.84434 0.278832,2.53567 -0.616258,1.054 0.223428,3.27882 -0.799837,1.49858 z"
       style="fill:#1a1a1a;fill-opacity:1;fill-rule:nonzero;stroke:none;stroke-width:0.34011167" />
    <path
       sodipodi:nodetypes="cccssccc"
       inkscape:connector-curvature="0"
       id="path7405"
       d="m 24.506681,245.14146 c -0.680161,-1.3095 -0.08423,-1.64455 0.116458,-1.68903 0.488273,-0.13345 0.378638,-0.0561 0.699208,0.007 l 0.527395,1.02349 c 0.249084,0.48338 0.769219,1.15367 0.938105,1.97972 0.120821,0.59094 0.292229,0.86044 0.246486,1.08045 -0.04603,0.22938 -0.470481,0.38336 -0.845414,0.33541 -0.431946,-1.3478 -1.14272,-1.36428 -1.682238,-2.73713 z"
       style="fill:#dec2ae;fill-opacity:1;fill-rule:nonzero;stroke:none;stroke-width:0.34011167" />
    <path
       sodipodi:nodetypes="cccc"
       inkscape:connector-curvature="0"
       id="path7407"
       d="m 30.551146,243.25904 c -0.988963,-0.79289 0.30297,-1.37474 0.272042,-2.03792 -0.03759,0.52456 -0.962089,0.89333 -0.976872,1.5546 -0.0057,0.42427 0.361566,0.5558 0.70483,0.48332 z"
       style="fill:#e9c6af;fill-opacity:1;stroke:none;stroke-width:0.34011167" />
    <path
       sodipodi:nodetypes="ccc"
       inkscape:connector-curvature="0"
       id="path7409"
       d="m 31.30129,241.99158 c -0.472493,0.40413 -0.819428,0.9336 0.09917,0.80987 -0.159628,-0.27168 -0.242698,-0.29181 -0.09917,-0.80987 z"
       style="fill:#e9c6af;fill-opacity:1;stroke:none;stroke-width:0.34011167" />
    <path
       sodipodi:nodetypes="ccsssssscscssccccccccc"
       inkscape:connector-curvature="0"
       id="path7411"
       d="m 26.971229,247.06661 c -0.249809,-0.94268 -0.738883,-1.95881 -1.151842,-2.59163 -0.01956,-0.32015 -0.02673,-0.83412 -0.03687,-0.99095 -0.09463,-1.46347 0.594167,-1.60704 0.336604,-2.50743 -0.29128,-1.01826 -0.305369,-1.83087 -0.364641,-2.04343 -0.02616,-0.0938 -0.183915,-0.49349 -0.347087,-0.88916 -0.163171,-0.39568 -0.296675,-0.73902 -0.296675,-0.76298 0,-0.0869 0.120819,0.0213 0.396198,0.35486 0.171192,0.20738 0.295397,0.33012 0.32775,0.32388 0.03994,-0.008 0.08841,-0.18731 0.207759,-0.76994 0.08562,-0.41794 0.156446,-0.77117 0.157401,-0.78493 0.0039,-0.0563 1.880253,-1.57818 1.945798,-1.57818 0.01882,0 0.08038,0.0388 0.136808,0.0863 0.09934,0.0836 0.164402,0.0905 0.301885,0.0322 0.255675,1.40407 -0.250986,2.38996 0.634699,2.88955 0.639147,1.02273 1.337206,1.63434 1.673155,2.72377 0.111562,0.36177 -0.131932,0.87414 -0.13708,0.87598 -0.02374,0.31453 -1.146612,1.37297 -0.172099,1.78202 1.349694,0.52088 0.5022,1.80565 -0.394229,2.30673 0.555545,0.48631 2.384724,-1.30001 2.461098,0.88319 -0.892592,0.85484 -1.290425,3.38272 0.807453,2.89044 -5.201994,2.18982 -7.76428,-6.82257 -6.48608,-2.23032 z"
       style="opacity:0.39506172;fill:#dec2ae;fill-opacity:1;fill-rule:nonzero;stroke:none;stroke-width:0.34011167" />
    <path
       sodipodi:nodetypes="cccccccccccccc"
       inkscape:connector-curvature="0"
       id="path7415"
       d="m 40.69829,241.24361 v 0.50254 l 0.222056,0.30387 c 0.281017,-0.96111 0.0077,-1.10694 -0.0935,-1.34401 l -0.292176,-0.4558 c -0.388676,-0.64727 0.161764,-1.19906 0.733345,-0.69745 -0.461317,-0.15989 -0.410776,0.50766 0.0089,1.07486 0.127835,0.26266 0.285796,0.8297 0.0641,1.18865 0.06656,-0.3616 0.01167,-0.62417 -0.338921,-1.00508 0.283521,0.71492 0.173161,1.186 -0.222052,1.75305 -0.431819,-0.62626 -0.399583,0.1323 -0.06871,0.49736 l -0.433836,-0.38049 c -0.04729,-0.56149 -0.21289,-1.06308 -0.420735,-1.57774 0.413252,0.44678 0.673285,-0.16401 0.841467,0.14024 z"
       style="fill:#f4e3d7;stroke:none;stroke-width:0.34011167" />
    <path
       sodipodi:nodetypes="ccccccccccccc"
       inkscape:connector-curvature="0"
       id="path7417"
       d="m 26.880067,246.84253 c -0.145132,-0.22042 -0.407851,-0.4324 -0.836164,-0.43499 -0.286771,-0.0953 -0.701142,-0.0603 -0.859451,-0.85945 l -0.117199,-0.72272 -0.27271,-0.60177 c 0.103543,-0.1992 0.358567,-0.43887 0.855695,-0.2652 0.164686,0.45939 0.356661,0.76927 0.564204,1.20654 -0.169869,-0.20623 -0.321402,-0.38565 -0.424468,-0.45677 l 0.410194,0.72272 c -0.728636,-0.80811 -0.669853,-0.0134 -0.449259,0.21486 0.823121,-0.29033 0.646769,0.26284 0.222375,0.26671 0.02475,0.3229 0.85192,0.5389 0.492833,-0.39442 0.249064,0.48503 0.318427,0.72441 0.41395,1.32449 z"
       style="fill:#cab09e;fill-opacity:1;stroke:none;stroke-width:0.34011167" />
    <path
       sodipodi:nodetypes="ccsscccscscsccc"
       inkscape:connector-curvature="0"
       id="path7419"
       d="m 35.180791,258.30222 c -0.05454,-0.0824 -0.09661,-0.16014 -0.09349,-0.17281 0.0031,-0.0127 -0.09424,-0.828 0.498896,-1.11389 1.739926,-0.83862 -0.292472,-2.05574 0.843065,-3.36001 l 1.020726,-1.17239 c 0.720979,-0.69229 0.507529,-1.64552 0.553212,-3.28459 0.312954,1.91067 0.29801,2.12159 1.144537,3.23288 0.412467,0.64206 1.007921,0.9353 1.531064,1.39291 0.477224,0.41745 0.797307,0.3027 0.797443,0.38146 9.5e-5,0.0545 -0.02833,0.291 -0.06314,0.52546 l -0.06332,0.4263 -1.001976,1.50307 c -0.55109,0.82669 -1.011271,1.51779 -1.022631,1.53577 -0.01734,0.0275 -3.489576,0.25394 -3.912998,0.25522 -0.120389,3.4e-4 -0.141102,-0.013 -0.231392,-0.14938 z"
       style="fill:#fff5ed;fill-opacity:1;fill-rule:nonzero;stroke:none;stroke-width:0.34011167" />
    <path
       sodipodi:nodetypes="scssccccccccs"
       inkscape:connector-curvature="0"
       id="path7421"
       d="m 32.568751,256.38932 c -0.396197,-0.14178 -0.733614,-0.24696 -0.739793,-0.25377 -0.0062,-0.007 -0.238531,-0.40809 -0.526355,-0.8717 -0.313949,-0.50569 -0.965746,-1.07408 -1.133308,-1.6648 l -0.0839,-0.29579 c 0.09244,-0.18639 1.350784,0.0299 1.384774,-0.82872 -0.07001,-0.55748 -0.221119,-1.07363 -0.602867,-1.63111 1.630371,0.28494 1.747798,0.21527 2.698772,0.19813 -1.208027,0.50083 -2.222924,2.96854 -1.360642,3.08187 0.135966,0.43633 0.132129,1.33969 0.15308,1.36104 0.08355,0.34063 0.104502,0.66848 0.875524,0.47957 0.06634,0.46062 0.09111,0.68772 0.07476,0.68561 -0.01083,-0.001 -0.343847,-0.11855 -0.740045,-0.26033 z"
       style="fill:#dec2ae;fill-opacity:1;fill-rule:nonzero;stroke:none;stroke-width:0.34011167" />
    <path
       inkscape:connector-curvature="0"
       id="path7425"
       d="m 29.30141,237.99182 0.95862,1.37182 0.512366,0.8925 0.09917,0.5289 -0.991675,-0.76029 -1.669323,-0.82639 -0.132223,-0.34709 -0.47931,-0.0165 1.024732,-0.94209 z"
       style="fill:#dec2ae;fill-opacity:1;stroke:none;stroke-width:0.34011167" />
    <path
       sodipodi:nodetypes="ccscc"
       inkscape:connector-curvature="0"
       id="path7429"
       d="m 27.487792,240.92986 c -0.153242,-0.2545 0.131478,-1.06646 0.622105,-1.35489 0.01862,-0.0182 0.76494,-0.32851 0.791581,-0.33665 0.445261,-0.13608 0.842931,0.25227 1.004415,0.42607 -0.815245,1.10889 -1.596615,0.91944 -2.418101,1.26547 z"
       style="fill:#ffffff;fill-opacity:1;fill-rule:nonzero;stroke:none;stroke-width:0.34011167" />
    <path
       sodipodi:nodetypes="ccccc"
       inkscape:connector-curvature="0"
       id="path7431"
       d="m 26.669549,240.55726 c 0.209233,-0.37749 0.911223,-2.12019 2.39739,-2.47495 0.378581,-0.0301 0.417259,-0.45157 -0.10623,-0.52229 -0.231274,-0.0115 -0.223929,-0.03 -0.448262,0.1024 -1.414916,0.73354 -1.48031,1.71335 -1.842903,2.89481 z"
       style="fill:#1a1a1a;stroke:none;stroke-width:0.34011167" />
    <path
       sodipodi:nodetypes="cccc"
       inkscape:connector-curvature="0"
       id="path7433"
       d="m 33.08265,236.87084 c 1.33767,-0.41156 2.371578,-0.62665 3.866052,0.71375 -1.878022,-2.60563 -3.861619,-1.45908 -4.293746,-1.17061 -0.512387,0.35126 0.294446,0.50846 0.427694,0.45686 z"
       style="fill:#1a1a1a;stroke:none;stroke-width:0.34011167" />
    <path
       sodipodi:nodetypes="ccccc"
       inkscape:connector-curvature="0"
       id="path7435"
       d="m 33.271438,238.65127 c 0.01802,-0.4566 0.535373,-1.09081 1.41808,-1.05613 l 0.677644,0.0165 c 0.524153,0.22589 0.77422,0.45177 0.958622,0.67765 -0.509327,0.66923 -2.020341,0.20989 -3.054346,0.36195 z"
       style="fill:#ffffff;stroke:none;stroke-width:0.34011167" />
    <g
       transform="matrix(0.09468823,0,0,0.09468823,-10.084666,227.12919)"
       id="g7437">
      <path
         style="opacity:0.69135802;fill:#483737;fill-opacity:1;fill-rule:nonzero;stroke:none"
         d="m 479.9952,121.17458 c -6.66712,-1.25054 -9.5464,-5.84103 -9.94094,-10.15563 6.93313,-0.60862 13.48631,-0.84925 20.03181,6.72861 l -0.2961,0.23547 c -3.17718,2.08825 -4.33191,3.15564 -9.79477,3.19155 z"
         id="path7439"
         inkscape:connector-curvature="0"
         sodipodi:nodetypes="ccccc" />
      <ellipse
         id="path7441"
         style="fill:#ffffff;fill-opacity:1;fill-rule:nonzero;stroke:none"
         transform="matrix(0.41059602,0,0,0.41059602,277.34151,70.743271)"
         cx="481.2811"
         cy="113.10532"
         rx="6.5893049"
         ry="6.3274784" />
      <path
         style="fill:#28170b;fill-opacity:1;fill-rule:nonzero;stroke:none"
         d="m 479.94552,119.19123 c -0.36425,-0.0705 -1.04282,-0.30649 -1.50792,-0.52433 -0.82887,-0.38822 -0.84388,-0.40932 -0.7562,-1.06299 0.12332,-0.91939 -0.0416,-1.44989 -0.67479,-2.1711 -0.35598,-0.40543 -0.79943,-0.68169 -1.29425,-0.80629 -0.68962,-0.17364 -0.76216,-0.24538 -0.86525,-0.85556 -0.1214,-0.71857 0.0256,-2.05762 0.26913,-2.45167 0.347,-0.56146 7.63549,0.79734 9.24442,1.72345 0.43201,0.24867 1.21418,0.77021 1.73814,1.15898 0.52397,0.38877 1.02951,0.7598 1.12343,0.82451 0.28301,0.19499 -0.40192,1.4669 -1.25699,2.33422 -1.5631,1.58549 -3.78962,2.26265 -6.01972,1.83078 z"
         id="path7443"
         inkscape:connector-curvature="0" />
    </g>
    <path
       sodipodi:nodetypes="ccc"
       inkscape:connector-curvature="0"
       id="path7445"
       d="m 33.396993,237.86029 c 1.088348,-0.77135 2.155717,-0.69392 3.459355,0.42073 -1.260528,-0.69695 -2.272927,-0.82119 -3.459355,-0.42073 z"
       style="fill:#e5bb9f;fill-opacity:1;stroke:none;stroke-width:0.34011167" />
    <g
       transform="matrix(0.09468823,0,0,0.09468823,-10.084666,227.12919)"
       id="g7447">
      <path
         style="opacity:0.69135802;fill:#483737;fill-opacity:1;fill-rule:nonzero;stroke:none"
         d="m 403.77183,132.59507 c 2.1047,-2.91292 8.14851,-5.02484 12.49862,-4.59751 1.04697,0.39172 3.09793,1.62966 4.2217,2.60894 l 0.27376,0.23856 -0.14366,0.57471 c -1.06403,3.39523 -3.98754,5.687 -7.17494,6.20168 -4.21736,0.45672 -8.43638,-1.26744 -9.67548,-5.02638 z"
         id="path7449"
         inkscape:connector-curvature="0"
         sodipodi:nodetypes="ccscccc" />
      <path
         style="opacity:0.60905349;fill:#28170b;fill-opacity:1;fill-rule:nonzero;stroke:none"
         d="m 411.51983,136.44811 c -1.8536,-0.32339 -3.63018,-1.23491 -4.73705,-2.43046 -0.56998,-0.61565 -1.19072,-1.79436 -1.2211,-2.3187 l -0.0202,-0.3491 1.48368,-0.74791 c 2.32919,-1.17412 4.61241,-1.89955 7.11296,-2.25994 1.9534,-0.28153 2.21967,-0.27185 2.9896,0.10867 1.27991,0.63257 3.55607,2.23588 3.55607,2.50487 0,0.44006 -0.60416,1.79603 -1.22175,2.74208 -0.93036,1.42518 -1.87874,2.08926 -3.65531,2.55957 -0.71113,0.18826 -1.06635,0.22624 -2.32318,0.24845 -0.81602,0.0144 -1.69969,-0.0115 -1.9637,-0.0575 z"
         id="path7451"
         inkscape:connector-curvature="0" />
      <ellipse
         style="fill:#ffffff;fill-opacity:1;fill-rule:nonzero;stroke:none"
         id="path7453"
         cx="410.0206"
         cy="136.757"
         rx="2.007338"
         ry="1.8764246" />
    </g>
    <path
       sodipodi:nodetypes="ccc"
       inkscape:connector-curvature="0"
       id="path7455"
       d="m 26.82889,241.50664 c 0.388701,-1.7254 1.714182,-3.17494 3.061998,-2.22054 -1.96108,-0.30483 -2.734709,1.54 -3.038625,2.22054"
       style="fill:#e5bb9f;fill-opacity:1;stroke:none;stroke-width:0.34011167" />
    <path
       sodipodi:nodetypes="cccccc"
       inkscape:connector-curvature="0"
       id="path7457"
       d="m 29.979055,239.67767 c -0.343559,0.98473 -1.496958,1.58596 -2.64447,2.21474 0.292052,-0.84439 0.531976,-0.88993 1.289179,-1.28918 l 0.512366,-0.18181 0.347087,-0.24792 z"
       style="fill:#dec2ae;fill-opacity:1;stroke:none;stroke-width:0.34011167" />
    <path
       style="fill:#dec2ae;fill-opacity:1;stroke:none;stroke-width:0.34011167"
       d="m 29.367521,245.198 c 0.292053,-0.84439 0.08572,-3.10467 1.107372,-2.01641 1.783133,0.50811 -0.539799,2.80712 -1.107372,2.01641 z"
       id="path7459"
       inkscape:connector-curvature="0"
       sodipodi:nodetypes="ccc" />
    <path
       sodipodi:nodetypes="ccccccccc"
       inkscape:connector-curvature="0"
       id="path7461"
       d="m 33.372221,256.53967 c 4.123462,1.49617 7.567603,-1.04014 7.816004,-2.85707 1.566105,1.53014 -1.327592,3.13947 -1.785549,4.59142 l -1.252203,0.30145 -0.834804,1.04351 -0.115944,4.56822 -1.785549,-5.17114 -1.298583,-1.8783 c -0.79283,-0.32811 -2.136156,-0.59049 -2.279069,-0.9962"
       style="fill:#e3dbdb;stroke:none;stroke-width:0.34011167" />
    <path
       inkscape:connector-curvature="0"
       id="path7463"
       d="m 34.344852,257.44874 -0.229559,-0.33435 -0.869044,-0.29695 c -0.477975,-0.16332 -0.942832,-0.33622 -1.033016,-0.38421 -0.200681,-0.1068 -0.333822,-0.20942 -0.306778,-0.23647 0.02106,-0.0211 1.410639,0.33344 1.667734,0.42547 0.230758,0.0826 0.870413,0.23867 1.213384,0.29606 0.435416,0.0728 1.316911,0.0989 1.764015,0.0521 2.039122,-0.21351 3.92079,-1.38538 4.50802,-2.80752 0.04469,-0.10822 0.09089,-0.23734 0.102659,-0.28695 0.01177,-0.0496 0.03272,-0.0902 0.04657,-0.0902 0.04605,0 0.235953,0.27326 0.235953,0.33953 0,0.0359 -0.03954,0.28777 -0.08787,0.55973 l -0.08787,0.49449 -0.899881,0.85173 -0.899881,0.85172 -0.999098,0.45185 -0.999095,0.45183 -1.448338,-0.002 -1.448341,-0.002 -0.229559,-0.33435 v 0 z"
       style="fill:#e3dbdb;fill-opacity:0;fill-rule:nonzero;stroke:none;stroke-width:0.34011167" />
    <path
       sodipodi:nodetypes="ccccsccccc"
       inkscape:connector-curvature="0"
       id="path7465"
       d="m 34.086066,257.16554 -2.038131,-0.71344 -0.09033,-0.26996 c 0.972362,0.11637 1.877632,0.5672 2.829971,0.73615 0.435416,0.0728 1.316911,0.0989 1.764015,0.0521 2.039122,-0.21351 3.92079,-1.38538 4.50802,-2.80752 0.05281,-0.14073 0.06903,-0.17523 0.06415,-0.29592 0.06671,0.0517 0.212359,0.17431 0.331194,0.26641 -0.457443,2.28166 -2.994088,4.13554 -6.931682,3.60594 -0.159599,-0.19692 -0.262226,-0.38223 -0.437199,-0.57371 z"
       style="fill:#cfc7c7;fill-opacity:1;fill-rule:nonzero;stroke:none;stroke-width:0.34011167" />
    <path
       sodipodi:nodetypes="ccccccccccscscccc"
       inkscape:connector-curvature="0"
       id="path7467"
       d="m 25.561788,258.49744 c 0.106613,-0.31369 0.85871,-1.30242 1.000194,-1.62863 0,-0.41816 0,-0.83631 0,-1.25447 0.239619,-0.5735 0.320997,-0.66372 0.560617,-1.23721 1.021803,-0.76227 1.2106,-0.88471 1.549578,-1.29617 l 0.02319,-0.71251 0.02319,-0.71252 c 0.237628,-0.57864 2.022067,-0.15754 2.384284,-0.42802 0.232288,0.46993 0.473948,1.16201 0.384546,1.56123 -0.0702,0.20255 -0.373807,0.45806 -1.376508,0.56019 l 0.512035,0.68964 c 0.03004,0.0404 1.327763,0.84337 1.436859,2.41383 6.8e-4,0.0164 -1.237863,-1.1328 -1.323776,-1.29533 -0.195336,-0.36953 -0.602913,-0.4297 -0.602913,-0.3933 0.06562,0.36352 0.1364,0.63765 0.225659,1.01533 -0.132895,0.32222 -0.265792,0.64443 -0.398687,0.96665 -0.753261,0.21724 -2.719574,0.8698 -4.398266,1.75129 z"
       style="fill:#241c1c;fill-opacity:1;fill-rule:nonzero;stroke:none;stroke-width:0.34011167" />
    <path
       sodipodi:nodetypes="ccccccsccccccc"
       inkscape:connector-curvature="0"
       id="path7469"
       d="m 44.224106,256.4089 c -0.682258,-0.26909 -1.640424,-0.36311 -2.13166,-0.4379 -0.995752,0.30997 -1.645699,1.39798 -2.784032,2.48692 0.366957,-1.37758 2.009526,-2.5211 2.132354,-3.2468 0.170386,-0.57213 0.146534,-0.82223 -0.03296,-1.01303 -2.867689,-1.26733 -3.022882,-2.82943 -3.098502,-3.40886 l 1.668574,0.0246 c 0.984525,0.0145 1.430959,0.94514 2.03681,1.83986 0.66836,0.64324 1.060781,0.50023 1.271963,0.97419 0.389986,0.96645 0.601338,1.63184 0.788664,1.75955 0.565042,0.22956 1.540791,0.64357 1.746348,0.73899 0.215093,0.49639 0.149034,0.99488 0.670537,2.29372 -0.604276,-0.52303 -1.46197,-1.31677 -2.268086,-2.01119 z"
       style="fill:#241c1c;fill-opacity:1;fill-rule:nonzero;stroke:none;stroke-width:0.34011167" />
    <path
       sodipodi:nodetypes="ccccc"
       inkscape:connector-curvature="0"
       id="path7475"
       d="m 24.111999,284.37259 c 10.038797,-0.66641 18.466058,-2.21751 27.486132,-4.39196 -0.02357,0.30117 -0.182187,1.03863 -0.305787,1.2595 -8.291355,2.28771 -19.509193,4.1639 -26.829586,4.19063 -0.157899,-0.32803 -0.228836,-0.73667 -0.350759,-1.05817 z"
       style="fill:#b3b3b3;fill-opacity:1;fill-rule:nonzero;stroke:none;stroke-width:0.34011167" />
    <path
       sodipodi:nodetypes="cccccccc"
       inkscape:connector-curvature="0"
       id="path7477"
       d="m 24.180793,284.38292 c -2.444683,-6.11666 -4.626433,-13.47721 -6.505588,-20.3532 l 11.802999,-2.41637 15.14873,-2.13755 8.085515,-0.55762 -0.650555,13.66174 -0.464688,7.43058 c -9.974944,2.40544 -17.731269,3.66028 -27.416413,4.37242 z"
       style="fill:#cccccc;fill-opacity:1;stroke:none;stroke-width:0.34011167" />
    <path
       style="fill:#e6e6e6;fill-opacity:1;stroke:none;stroke-width:0.34011167"
       d="m 24.470751,284.04769 c -2.380317,-5.95561 -4.504628,-13.12237 -6.334306,-19.81733 14.833904,-2.9394 25.636941,-4.25136 34.114765,-4.97696 l -0.63343,13.30205 -0.452451,7.23494 c -9.712317,2.34212 -17.264431,3.56391 -26.694578,4.2573 z"
       id="path7479"
       inkscape:connector-curvature="0"
       sodipodi:nodetypes="cccccc" />
    <path
       sodipodi:nodetypes="ccccc"
       inkscape:connector-curvature="0"
       id="path7481"
       d="m 17.61235,264.07596 1.090214,-0.57189 c 11.100583,-2.65612 23.999314,-4.77573 33.185938,-5.03713 l 0.77806,0.45851 c -11.971792,0.86792 -22.623857,2.44102 -35.054212,5.15051 z"
       style="fill:#e6e6e6;stroke:none;stroke-width:0.34011167" />
    <path
       inkscape:connector-curvature="0"
       id="path7483"
       d="m 40.99682,279.1897 c -0.179382,-0.0242 -0.741984,-0.0984 -1.250227,-0.1648 -7.952736,-1.03879 -14.739711,-6.95126 -16.791575,-14.62797 -0.141736,-0.53028 -0.247784,-0.97426 -0.235666,-0.98663 0.09232,-0.0942 8.765662,-1.54924 12.787348,-2.14521 4.876344,-0.72263 15.07478,-1.90913 16.409633,-1.90913 h 0.28116 l -0.292958,6.22395 c -0.290952,6.18132 -0.616555,11.84144 -0.685135,11.91002 -0.01969,0.0197 -0.493254,0.20596 -1.052367,0.41395 -1.174378,0.43684 -2.790381,0.86534 -4.114956,1.09112 -0.888114,0.15138 -4.380761,0.28589 -5.055257,0.1947 z"
       style="fill:#f9f9f9;fill-opacity:1;fill-rule:nonzero;stroke:none;stroke-width:0.34011167" />
    <circle
       id="path7487"
       style="fill:#b3b3b3;fill-opacity:1;fill-rule:nonzero;stroke:none;stroke-width:0.18506725"
       cx="36.929249"
       cy="272.79184"
       r="5.2080131" />
    <polygon
       style="fill:#ffffff;fill-rule:evenodd"
       transform="matrix(0.00624846,-9.359431e-4,9.1028508e-4,0.00607714,17.325005,212.43525)"
       id="polygon7489"
       points="1196,10115 1196,10280 1425,10128 1425,10291 1092,10510 1626,10803 2147,10511 2147,10507 2147,9971 1815,9775 1815,9978 2019,10095 2019,10283 1770,10141 1770,9632 1770,9629 1626,9539 1618,9534 1618,9640 1618,10231 1618,10519 1471,10623 1471,9923 "
       class="fil0" />
    <path
       inkscape:connector-curvature="0"
       id="path7491"
       d="m 18.111394,296.82167 c -2.108047,-0.33058 -3.758331,-1.08314 -4.022512,-1.83433 -0.149129,-0.42405 0.130618,-0.81904 0.885348,-1.25009 l 0.600251,-0.34281 -0.5144,-0.13438 c -2.446495,-0.63905 -4.73302,-1.6295 -5.6328421,-2.43997 -0.6010222,-0.54133 -0.9294762,-1.25379 -0.8233263,-1.78589 0.1098033,-0.55042 1.1890307,-1.58526 2.2006944,-2.11017 6.236656,-3.23601 22.809562,-4.34958 35.131036,-2.36053 4.242359,0.68484 7.720171,1.78775 9.323036,2.95661 2.658499,1.93865 0.82005,4.07936 -4.822053,5.61483 -0.514398,0.14 -1.009227,0.2793 -1.099618,0.30956 -0.113176,0.0379 -0.04263,0.14483 0.226596,0.34346 0.482101,0.35568 0.57668,0.49966 0.578962,0.88137 0.0037,0.61836 -0.99179,1.23438 -2.717965,1.6819 -1.698501,0.44035 -3.012713,0.5818 -5.405395,0.5818 -2.392686,0 -3.706898,-0.14145 -5.405395,-0.5818 -1.109587,-0.28767 -1.899657,-0.62476 -2.310574,-0.98583 -0.203617,-0.17891 -0.59362,-0.21471 -3.019548,-0.27717 l -2.785732,-0.0717 -0.292089,0.34713 c -0.549292,0.6528 -2.157428,1.23536 -4.190589,1.51808 -1.158768,0.16113 -4.724732,0.12486 -5.903885,-0.06 z"
       style="fill:#cccccc;fill-opacity:1;fill-rule:nonzero;stroke:none;stroke-width:0.34011167" />
    <path
       sodipodi:nodetypes="scsscsccs"
       inkscape:connector-curvature="0"
       id="path7495"
       d="m 35.370689,285.89713 c -1.029637,-0.62086 -1.851943,-1.14897 -1.827341,-1.17357 0.0246,-0.0246 1.218318,-0.19406 2.475894,-0.37657 1.257573,-0.18251 3.314425,-0.54063 4.747595,-0.79583 1.433169,-0.25519 2.625032,-0.44472 2.648582,-0.42117 0.02354,0.0236 -0.521623,0.45538 -1.075165,1.11622 l -1.262647,1.50741 c -1.037065,0.65598 -1.938824,1.2211 -3.204063,1.49732 -0.10823,10e-4 -1.473214,-0.73294 -2.502855,-1.35381 z"
       style="fill:#ac9393;fill-opacity:1;fill-rule:nonzero;stroke:none;stroke-width:0.34011167" />
    <path
       inkscape:connector-curvature="0"
       id="path7497"
       d="m 21.830002,295.96447 c -0.932346,-0.18445 -1.813545,-0.36454 -1.958219,-0.40019 -0.253636,-0.0625 -0.263045,-0.11254 -0.263045,-1.39907 0,-1.56551 -0.29637,-1.22274 2.455104,-2.83949 l 1.812107,-1.06478 1.696588,-0.20427 1.696589,-0.20426 2.17383,0.58165 2.173828,0.58165 1.880388,1.15988 c 1.034213,0.63793 1.866164,1.1741 1.848784,1.19148 -0.01738,0.0174 -1.368943,0.31738 -3.003474,0.66667 -1.63453,0.34929 -4.241418,1.0071 -5.793083,1.4618 -1.551664,0.45471 -2.866888,0.82169 -2.922716,0.81552 -0.05583,-0.006 -0.864335,-0.16214 -1.796681,-0.34659 z"
       style="fill:#483737;fill-opacity:1;fill-rule:nonzero;stroke:none;stroke-width:0.34011167" />
    <path
       sodipodi:nodetypes="ccsssscsscsscsscsscccccscsssscscc"
       inkscape:connector-curvature="0"
       id="path7499"
       d="m 41.685267,295.73786 c -1.382445,-0.3441 -2.572914,-0.62777 -2.645487,-0.6304 -0.07257,-0.003 -0.197326,0.15306 -0.277228,0.34596 -0.0799,0.1929 -0.188147,0.35072 -0.240548,0.35072 -0.0524,0 -0.427428,-0.29117 -0.833403,-0.64706 -0.40597,-0.35588 -2.027048,-1.44543 -3.602394,-2.42122 L 31.221946,290.9617 27.1886,289.88003 c -2.457633,-0.65909 -5.186059,-1.48569 -6.98394,-2.11584 l -2.950593,-1.03416 -1.058919,-1.57142 c -0.835503,-1.23987 -1.335274,-1.83365 -2.368749,-2.81432 l -1.30983,-1.24291 0.632646,-1.5629 c 1.207641,-2.98337 0.962416,-2.64206 2.455701,-3.41793 l 1.31342,-0.68242 1.448031,0.5965 c 1.172411,0.48296 1.577411,0.5965 2.127753,0.5965 h 0.907054 c 0.972981,2.99287 2.088289,5.92813 3.145493,8.8222 1.555892,-0.0569 7.159024,-0.53585 9.021152,-0.71687 3.177285,2.09216 6.325152,3.58719 8.547462,4.56969 -0.205394,0.87046 -0.354747,1.06448 -0.763857,1.8775 0.0235,0.0235 1.086708,-0.48228 2.275082,-0.52133 l 1.891687,-0.0622 1.4526,0.42756 c 0.944861,0.27811 1.586978,0.51661 2.4359,1.00301 1.201418,0.68836 1.215178,0.70573 1.322212,1.66906 0.05819,0.52375 0.05492,0.52936 -0.73606,1.26183 l -0.794514,0.73574 -2.03213,0.34431 c -1.117668,0.18938 -2.242564,0.33926 -2.499763,0.33307 -0.257199,-0.006 -1.598726,-0.29279 -2.981171,-0.63688 z"
       style="fill:#6c5353;fill-opacity:1;fill-rule:nonzero;stroke:none;stroke-width:0.34011167" />
    <path
       sodipodi:nodetypes="cccccsscssccscscsscsccc"
       inkscape:connector-curvature="0"
       id="path7501"
       d="m 42.024083,289.47479 c -1.159492,-0.53769 -2.426741,-1.10132 -4.21216,-2.24789 0.942401,-0.33617 2.078313,-0.61659 3.155267,-1.475 l 1.160478,-1.30553 1.160478,-1.30554 2.32085,-0.49961 c 1.27647,-0.27479 3.053968,-0.69566 3.949999,-0.93527 l 1.629145,-0.43565 0.151456,-0.58454 c 0.0833,-0.32151 0.0981,-0.91624 0.126212,-1.26888 l 0.08707,-1.35187 2.236768,-0.26178 2.316881,0.58932 c 1.274286,0.32412 2.327612,0.60442 2.340724,0.62289 0.01313,0.0185 0.161685,0.76414 0.33016,1.65703 l 0.306321,1.62344 -0.666782,0.74869 c -0.366729,0.41178 -1.482217,1.3889 -2.478863,2.17138 l -1.812084,1.4227 -1.298383,0.19877 c -1.155816,0.17694 -1.548509,0.30801 -3.576251,1.19361 -2.534053,1.18662 -5.186815,1.78939 -7.761222,2.8403 0.280177,-0.61514 0.304784,-0.74924 0.533934,-1.39657 z"
       style="fill:#483737;fill-opacity:1;fill-rule:nonzero;stroke:none;stroke-width:0.34011167" />
    <path
       sodipodi:nodetypes="ccccccccc"
       inkscape:connector-curvature="0"
       id="path7503"
       d="m 35.699577,284.57186 c 0.320685,0.2952 2.079848,1.22811 4.216011,0.64067 1.160179,-0.63047 1.358736,-0.85389 1.911673,-1.57067 -0.238837,0.59075 -0.454798,0.98509 -1.281337,1.65334 -1.020029,0.73148 -2.211777,1.00674 -3.368677,1.38467 l 1.32267,-0.64067 0.878335,-0.44434 c -0.333561,0.0803 -0.55028,0.18812 -1.405338,0.031 -1.241091,-0.30986 -2.027351,-0.74987 -2.273337,-1.05401 z"
       style="fill:#6c5353;fill-opacity:1;stroke:none;stroke-width:0.34011167" />
    <path
       sodipodi:nodetypes="cccccccccccccccccccccccccccccccc"
       inkscape:connector-curvature="0"
       id="path7505"
       d="m 57.017294,279.28118 -3.045703,-0.46642 -2.141034,1.4638 0.640059,4.37597 -1.074667,-2.06667 v 2.27334 l 0.868002,1.03333 -2.123406,-1.07051 -0.437546,-1.58364 -1.107693,0.64249 -1.283058,0.008 -1.45498,1.87956 v -2.06667 l -0.496002,2.356 -0.372001,0.82667 -0.247999,-1.488 -0.124001,-0.744 -1.446672,3.38934 -0.04133,1.57066 2.869631,-1.01621 -0.677029,-0.70388 1.692739,0.43876 2.108009,-1.52934 2.56267,-0.57867 1.694671,-0.45466 -0.330667,-1.44667 1.198669,0.90933 2.89334,-1.90134 0.868003,-1.984 -1.074668,-0.90934 1.116001,0.41334 z"
       style="fill:#6c5353;fill-opacity:1;stroke:none;stroke-width:0.34011167" />
    <path
       sodipodi:nodetypes="ccccccccccccc"
       inkscape:connector-curvature="0"
       id="path7507"
       d="m 44.27448,283.94252 -1.432129,3.94566 -0.496862,2.33818 -0.233817,-2.0459 0.70145,-1.95822 -0.935266,1.54903 -0.139045,1.10856 -2.856312,-1.56115 2.936902,-1.35949 -0.350727,1.92899 1.256767,-2.51353 0.321501,0.35072 z"
       style="fill:#6c5353;fill-opacity:1;stroke:none;stroke-width:0.34011167" />
    <path
       sodipodi:nodetypes="ccscsscsssscccccccscsscc"
       inkscape:connector-curvature="0"
       id="path7509"
       d="m 35.511968,293.57793 c -2.783636,-1.53808 -6.023086,-2.93784 -8.359542,-3.71995 -2.006068,-0.53465 -4.602467,-1.37611 -6.944018,-2.16142 -1.500403,-0.50321 -2.772509,-0.9396 -2.826901,-0.96977 -0.05439,-0.0302 -0.440658,-0.55668 -0.858367,-1.17004 -1.085926,-1.59456 -1.533622,-2.132 -2.811254,-3.37474 l -1.133147,-1.10222 0.726538,-1.79925 c 0.669849,-1.65886 1.029913,-2.39689 1.229592,-2.5203 0.04363,-0.027 0.120903,0.19946 0.173946,0.50972 0.05249,0.30703 0.21397,1.24867 0.358843,2.09253 l 0.263405,1.5343 2.066672,2.3136 2.066672,2.3136 2.801394,1.46733 2.801397,1.46734 3.471577,0.49728 3.471578,0.49728 2.973684,2.31504 c 1.635525,1.27327 3.016297,2.29781 3.068385,2.27676 0.05208,-0.0211 0.685288,-0.54586 1.407114,-1.16623 0.721829,-0.62037 1.327143,-1.11323 1.345141,-1.09523 0.04058,0.0406 -2.22569,3.93376 -2.292675,3.93855 -0.02667,0.002 -2.717935,-1.91777 -3.000034,-2.14418 z"
       style="fill:#483737;fill-opacity:1;fill-rule:nonzero;stroke:none;stroke-width:0.34011167" />
    <path
       sodipodi:nodetypes="ccsscsscscccsscscsscsscccssscsscsccc"
       inkscape:connector-curvature="0"
       id="path7511"
       d="m 32.294433,285.69471 c -0.754289,-0.10114 -1.379692,-0.17622 -1.389787,-0.16685 -0.0101,0.009 0.100969,0.13741 0.246807,0.28455 0.145837,0.14715 0.239,0.26754 0.207029,0.26754 -0.04716,0 -1.480818,-0.36 -1.748089,-0.43896 -0.04949,-0.0146 -0.08397,0.009 -0.108318,0.0744 -0.03382,0.0908 0.0029,0.11607 0.692604,0.47727 0.400576,0.20977 0.709719,0.38186 0.686987,0.38242 -0.02273,3.4e-4 -0.562135,-0.14876 -1.198671,-0.33181 l -1.157335,-0.33284 -1.942671,0.41262 -1.942672,0.41261 -1.327864,-0.91112 c -0.56817,-0.38986 -1.248647,0.50159 -0.977268,-0.31754 l 0.433257,-1.30775 0.147302,-1.26357 c 0.109614,-0.94028 -0.361447,-2.19353 -0.377033,-2.21875 -0.01559,-0.0252 -0.404701,-0.33899 -0.864704,-0.69726 -0.460001,-0.35828 -0.888304,-0.69386 -0.951784,-0.74573 l -0.115416,-0.0943 0.500409,-0.25085 c 0.433613,-0.21736 0.498676,-0.26304 0.487419,-0.34219 -0.01286,-0.0904 -0.02305,-0.0916 -0.99854,-0.11934 -0.54205,-0.0154 -0.992366,-0.0348 -1.000702,-0.0431 -0.0116,-0.0116 1.858535,-0.58176 2.112697,-0.6441 0.03285,-0.008 0.128719,0.22165 0.267389,0.64067 0.23243,0.70232 1.216927,3.45936 1.465682,4.10457 0.315514,0.81837 0.649434,1.75377 0.662744,1.85653 0.01846,0.14249 0.302996,1.00592 0.345503,1.04844 0.04205,0.0421 2.375668,-0.0343 3.559583,-0.11646 1.658381,-0.11509 3.84189,-0.32567 5.119443,-0.49374 l 0.439904,-0.0579 0.197486,0.12659 c 0.108617,0.0696 0.248117,0.18729 0.31,0.26147 1.61437,0.84521 3.947808,2.13806 4.482052,2.49989 -2.396485,-0.72441 -3.778778,-1.28697 -6.263443,-1.95543 z"
       style="fill:#483737;fill-opacity:1;fill-rule:nonzero;stroke:none;stroke-width:0.34011167" />
    <path
       sodipodi:nodetypes="csssscccssscccccccssc"
       inkscape:connector-curvature="0"
       id="path7513"
       d="m 50.106803,294.72618 c 0.310906,-0.31956 0.423286,-0.46397 0.442288,-0.56834 0.03442,-0.18908 -0.08156,-1.03439 -0.166485,-1.21335 -0.100173,-0.21111 -0.31948,-0.39021 -0.889031,-0.72608 -1.074474,-0.63361 -1.780964,-0.91871 -3.256559,-1.31417 l -0.758432,-0.20325 c -1.036793,-0.0182 -1.993061,0.13208 -3.356695,0.28454 l -1.390577,1.02772 0.809401,-1.26314 c 0.08327,-0.12995 -0.134841,0.13032 0.536057,-0.11039 0.410294,-0.14721 0.426735,-0.14945 2.2352,-0.30491 l 1.821863,-0.15661 2.104811,0.72374 2.104812,0.72375 0.346387,0.69785 0.346383,0.69786 -0.09459,0.51893 -0.09459,0.51892 -0.355128,0.41676 c -0.300744,0.35294 -0.672356,0.67858 -0.774383,0.67858 -0.01517,0 0.160019,-0.19279 0.389268,-0.42841 z"
       style="fill:#483737;fill-opacity:1;fill-rule:nonzero;stroke:none;stroke-width:0.34011167" />
    <path
       style="fill:#dec2ae;fill-opacity:1;stroke:none;stroke-width:0.34011167"
       d="m 32.119259,244.36952 0.80506,-0.1464 0.602484,-0.46672 c 0.948663,0.0497 1.906664,-0.45273 2.400717,-0.80789 l -0.835117,1.79689 -1.789006,1.0011 -1.237345,0.15154 c -0.504273,0.18474 -1.263373,-0.20108 -1.663205,-0.43909 0.483974,0.0143 0.744444,-0.17063 1.135065,-0.45726 z"
       id="path7774"
       inkscape:connector-curvature="0"
       sodipodi:nodetypes="cccccccccc" />
    <path
       style="fill:#ffe6d5;fill-opacity:1;stroke:none;stroke-width:0.34011167"
       d="m 31.195085,245.45251 1.10621,-0.64779 0.876035,-0.16424 0.609478,-0.513 1.714532,-0.69774 c -0.576146,0.6552 -1.209175,1.25228 -1.762688,1.72582 l -1.242558,0.34179 c -0.54566,-0.0256 -0.952367,-0.0618 -1.301009,-0.0448 z"
       id="path7776"
       inkscape:connector-curvature="0"
       sodipodi:nodetypes="cccccccc" />
    <path
       style="fill:#ffffff;fill-opacity:1;stroke:none;stroke-width:0.34011167"
       d="m 31.83658,245.4776 -0.641586,-0.0223 1.098477,-0.64914 0.632518,-0.3335 0.872676,-0.3587 c 0.479219,-0.19699 1.507332,-0.60545 1.69806,-0.68054 0.0064,0.006 -0.664154,0.75606 -0.922233,0.97163 l -1.006581,0.36142 -0.616763,0.27112 z"
       id="path7780"
       inkscape:connector-curvature="0"
       sodipodi:nodetypes="ccccsccccc" />
  </g>
</svg>
