<!--?xml version="1.0" encoding="UTF-8" standalone="no"?-->
<!-- Created with Inkscape (http://www.inkscape.org/) -->

<svg xmlns:dc="http://purl.org/dc/elements/1.1/" xmlns:cc="http://creativecommons.org/ns#" xmlns:rdf="http://www.w3.org/1999/02/22-rdf-syntax-ns#" xmlns:svg="http://www.w3.org/2000/svg" xmlns="http://www.w3.org/2000/svg" xmlns:sodipodi="http://sodipodi.sourceforge.net/DTD/sodipodi-0.dtd" xmlns:inkscape="http://www.inkscape.org/namespaces/inkscape" width="35mm" height="35mm" viewBox="0 0 35 35" version="1.1" id="svg3367" inkscape:version="0.92.5 (2060ec1f9f, 2020-04-08)" sodipodi:docname="logo-aank-line.svg" style="">
  <defs id="defs3361"></defs>
  <sodipodi:namedview id="base" pagecolor="#ffffff" bordercolor="#666666" borderopacity="1.0" inkscape:pageopacity="0.0" inkscape:pageshadow="2" inkscape:zoom="2.8" inkscape:cx="56.850517" inkscape:cy="78.820085" inkscape:document-units="mm" inkscape:current-layer="g3334" showgrid="false" inkscape:window-width="1920" inkscape:window-height="1015" inkscape:window-x="0" inkscape:window-y="28" inkscape:window-maximized="1" width="36mm"></sodipodi:namedview>
  <metadata id="metadata3364">
    <rdf:rdf>
      <cc:work rdf:about="">
        <dc:format>image/svg+xml</dc:format>
        <dc:type rdf:resource="http://purl.org/dc/dcmitype/StillImage"></dc:type>
        <dc:title></dc:title>
      </cc:work>
    </rdf:rdf>
  </metadata>
  <g inkscape:label="Layer 1" inkscape:groupmode="layer" id="layer1" transform="translate(0,-262)">
    <g id="g3334" transform="translate(-188.58201,68.997273)">
      <path inkscape:connector-curvature="0" id="path1741" d="m 205.92466,194.00896 a 16.559474,16.559474 0 0 0 -16.55969,16.55974 16.559474,16.559474 0 0 0 2.24634,8.28683 l 6.15707,-10.67526 6.02598,10.28408 -4.33821,7.34673 a 16.559474,16.559474 0 0 0 6.46851,1.31685 16.559474,16.559474 0 0 0 10.71557,-3.95867 l -5.67286,0.0141 -10.89935,-18.9745 5.94252,-10.1978 a 16.559474,16.559474 0 0 0 -0.0857,-0.002 z m 0.13999,0.002 14.25574,24.71356 a 16.559474,16.559474 0 0 0 2.16334,-8.16104 16.559474,16.559474 0 0 0 -16.41908,-16.55252 z" style="opacity: 1; fill: none; fill-opacity: 1; stroke: rgb(153, 153, 153); stroke-width: 0.117449; stroke-miterlimit: 4; stroke-opacity: 1;" class="BiUGhOVo_0"></path>
    </g>
  </g>
<style data-made-with="vivus-instant">.BiUGhOVo_0{stroke-dasharray:189 191;stroke-dashoffset:190;animation:BiUGhOVo_draw_0 6900ms linear 0ms infinite,BiUGhOVo_fade 6900ms linear 0ms infinite;}@keyframes BiUGhOVo_draw{100%{stroke-dashoffset:0;}}@keyframes BiUGhOVo_fade{0%{stroke-opacity:1;}94.20289855072464%{stroke-opacity:1;}100%{stroke-opacity:0;}}@keyframes BiUGhOVo_draw_0{7.246376811594203%{stroke-dashoffset: 190}36.231884057971016%{ stroke-dashoffset: 0;}100%{ stroke-dashoffset: 0;}}</style></svg>
