<?xml version="1.0" encoding="UTF-8" standalone="no"?>
<!-- Created with Inkscape (http://www.inkscape.org/) -->

<svg
   xmlns:dc="http://purl.org/dc/elements/1.1/"
   xmlns:cc="http://creativecommons.org/ns#"
   xmlns:rdf="http://www.w3.org/1999/02/22-rdf-syntax-ns#"
   xmlns:svg="http://www.w3.org/2000/svg"
   xmlns="http://www.w3.org/2000/svg"
   xmlns:sodipodi="http://sodipodi.sourceforge.net/DTD/sodipodi-0.dtd"
   xmlns:inkscape="http://www.inkscape.org/namespaces/inkscape"
   width="283.46457"
   height="283.46457"
   viewBox="0 0 75 75"
   version="1.1"
   id="svg3367"
   inkscape:version="0.92.5 (2060ec1f9f, 2020-04-08)"
   sodipodi:docname="logo-aank-line.svg">
  <defs
     id="defs3361" />
  <sodipodi:namedview
     id="base"
     pagecolor="#ffffff"
     bordercolor="#666666"
     borderopacity="1.0"
     inkscape:pageopacity="0.0"
     inkscape:pageshadow="2"
     inkscape:zoom="1.4"
     inkscape:cx="28.207655"
     inkscape:cy="58.995901"
     inkscape:document-units="mm"
     inkscape:current-layer="g3334"
     showgrid="false"
     inkscape:window-width="1920"
     inkscape:window-height="1015"
     inkscape:window-x="0"
     inkscape:window-y="28"
     inkscape:window-maximized="1"
     width="36mm"
     units="px" />
  <metadata
     id="metadata3364">
    <rdf:RDF>
      <cc:Work
         rdf:about="">
        <dc:format>image/svg+xml</dc:format>
        <dc:type
           rdf:resource="http://purl.org/dc/dcmitype/StillImage" />
        <dc:title />
      </cc:Work>
    </rdf:RDF>
  </metadata>
  <g
     inkscape:label="Layer 1"
     inkscape:groupmode="layer"
     id="layer1"
     transform="translate(0,-222)">
    <g
       id="g3334"
       transform="translate(-188.58201,68.997273)">
      <path
         inkscape:connector-curvature="0"
         id="path1741"
         d="m 226.05214,153.82562 a 36.615568,36.615568 0 0 0 -36.61605,36.61616 36.615568,36.615568 0 0 0 4.96701,18.32346 l 13.61424,-23.60465 13.32438,22.73969 -9.59246,16.24476 a 36.615568,36.615568 0 0 0 14.30288,2.91176 36.615568,36.615568 0 0 0 23.69379,-8.75323 l -12.54357,0.0312 -24.10016,-41.95557 13.13983,-22.54892 a 36.615568,36.615568 0 0 0 -0.18949,-0.004 z m 0.30954,0.004 31.52165,54.64552 a 36.615568,36.615568 0 0 0 4.78349,-18.04533 36.615568,36.615568 0 0 0 -36.30514,-36.60019 z"
         style="opacity:1;fill:none;fill-opacity:1;stroke:#333333;stroke-width:0.26;stroke-miterlimit:4;stroke-dasharray:none;stroke-opacity:1" />
    </g>
  </g>
</svg>
