<?xml version="1.0" encoding="UTF-8" standalone="no"?>
<!-- Created with Inkscape (http://www.inkscape.org/) -->

<svg
   xmlns:dc="http://purl.org/dc/elements/1.1/"
   xmlns:cc="http://creativecommons.org/ns#"
   xmlns:rdf="http://www.w3.org/1999/02/22-rdf-syntax-ns#"
   xmlns:svg="http://www.w3.org/2000/svg"
   xmlns="http://www.w3.org/2000/svg"
   xmlns:sodipodi="http://sodipodi.sourceforge.net/DTD/sodipodi-0.dtd"
   xmlns:inkscape="http://www.inkscape.org/namespaces/inkscape"
   width="379"
   height="100"
   viewBox="0 0 100.27732 26.458333"
   version="1.1"
   id="svg3367"
   inkscape:version="0.92.5 (2060ec1f9f, 2020-04-08)"
   sodipodi:docname="logo-aank-with-text.svg">
  <defs
     id="defs3361" />
  <sodipodi:namedview
     id="base"
     pagecolor="#ffffff"
     bordercolor="#666666"
     borderopacity="1.0"
     inkscape:pageopacity="0.0"
     inkscape:pageshadow="2"
     inkscape:zoom="1.979899"
     inkscape:cx="83.183698"
     inkscape:cy="-2.9505331"
     inkscape:document-units="mm"
     inkscape:current-layer="g3334"
     showgrid="false"
     inkscape:window-width="1920"
     inkscape:window-height="1015"
     inkscape:window-x="0"
     inkscape:window-y="28"
     inkscape:window-maximized="1"
     units="px" />
  <metadata
     id="metadata3364">
    <rdf:RDF>
      <cc:Work
         rdf:about="">
        <dc:format>image/svg+xml</dc:format>
        <dc:type
           rdf:resource="http://purl.org/dc/dcmitype/StillImage" />
        <dc:title />
      </cc:Work>
    </rdf:RDF>
  </metadata>
  <g
     inkscape:label="Layer 1"
     inkscape:groupmode="layer"
     id="layer1"
     transform="translate(0,-270.54167)">
    <g
       id="g3334"
       transform="translate(-188.58201,68.997273)">
      <g
         id="g873"
         transform="matrix(1.0123914,0,0,1.0123914,-3.5653702,-2.5474121)"
         inkscape:export-xdpi="127"
         inkscape:export-ydpi="127">
        <path
           inkscape:export-ydpi="127.90833"
           inkscape:export-xdpi="127.90833"
           style="opacity:1;fill:#008000;fill-opacity:1;stroke:none;stroke-width:0.22926071;stroke-miterlimit:4;stroke-dasharray:none"
           d="m 199.81411,205.57923 a 9.1449167,9.1449167 0 0 0 -9.14504,9.14505 9.1449167,9.1449167 0 0 0 1.24054,4.57638 l 3.40023,-5.89538 3.32783,5.67936 -2.39576,4.05719 a 9.1449167,9.1449167 0 0 0 3.5722,0.72723 9.1449167,9.1449167 0 0 0 5.91763,-2.18614 l -3.1328,0.008 -6.01913,-10.4786 3.28173,-5.63171 a 9.1449167,9.1449167 0 0 0 -0.0472,-0.001 z m 0.0772,0.001 7.87269,13.648 a 9.1449167,9.1449167 0 0 0 1.19469,-4.50692 9.1449167,9.1449167 0 0 0 -9.06738,-9.14108 z"
           id="path1741"
           inkscape:connector-curvature="0" />
        <g
           transform="matrix(1.0283161,0,0,1.0283161,-7.3228804,-6.7513662)"
           style="fill:#808080"
           id="g936">
          <path
             inkscape:connector-curvature="0"
             id="path831"
             style="font-style:normal;font-variant:normal;font-weight:normal;font-stretch:normal;font-size:7.33832359px;line-height:1.25;font-family:'Hall Fetica Decompose';-inkscape-font-specification:'Hall Fetica Decompose';letter-spacing:0.25017011px;word-spacing:0.33022457px;fill:#808080;fill-opacity:1;stroke:none;stroke-width:0.27339455"
             d="m 218.79099,209.54345 q 0,-0.34484 -0.24059,-0.57741 -0.23256,-0.24059 -0.57741,-0.24059 h -2.26954 l -0.16841,0.17643 v 1.86856 l 0.16841,0.16841 h 2.26954 q 0.34485,0 0.57741,-0.23257 0.24059,-0.23257 0.24059,-0.58543 z m 0,2.51814 q 0,-0.34484 -0.24059,-0.57741 -0.23256,-0.24059 -0.57741,-0.24059 h -2.26954 l -0.16841,0.16841 v 1.87658 l 0.16841,0.16842 h 2.26954 q 0.34485,0 0.57741,-0.23257 0.24059,-0.24058 0.24059,-0.58543 z m 0.32078,0.57741 q 0,0.48118 -0.33682,0.80196 -0.33682,0.32078 -0.80196,0.32078 h -2.75072 v -5.34104 h 2.75072 q 0.46514,0 0.80196,0.32078 0.33682,0.32881 0.33682,0.80197 v 0.5774 q 0,0.52128 -0.38494,0.84206 v 0.25662 q 0.38494,0.33682 0.38494,0.84206 z" />
          <path
             inkscape:connector-curvature="0"
             id="path833"
             style="font-style:normal;font-variant:normal;font-weight:normal;font-stretch:normal;font-size:7.33832359px;line-height:1.25;font-family:'Hall Fetica Decompose';-inkscape-font-specification:'Hall Fetica Decompose';letter-spacing:0.25017011px;word-spacing:0.33022457px;fill:#808080;fill-opacity:1;stroke:none;stroke-width:0.27339455"
             d="m 223.6997,213.44096 -0.008,0.29672 h -1.98083 q -0.4892,0 -0.82602,-0.31277 -0.32078,-0.33682 -0.32078,-0.80997 v -1.53976 q 0,-0.47316 0.32078,-0.80998 0.33682,-0.31276 0.82602,-0.31276 h 1.98083 v 0.30475 h -1.98083 q -0.16842,0 -0.32079,0.0641 -0.15237,0.0642 -0.27266,0.17644 -0.11228,0.10425 -0.17643,0.25662 -0.0641,0.15237 -0.0641,0.32078 v 0.37693 l 0.16841,0.1684 h 2.42994 v 0.31277 h -2.42192 l -0.16841,0.16841 v 0.51325 q 0,0.16841 0.0642,0.32079 0.0641,0.15236 0.17644,0.26464 0.11227,0.10426 0.26464,0.16842 0.15237,0.0642 0.32079,0.0642 z" />
          <path
             inkscape:connector-curvature="0"
             id="path835"
             style="font-style:normal;font-variant:normal;font-weight:normal;font-stretch:normal;font-size:7.33832359px;line-height:1.25;font-family:'Hall Fetica Decompose';-inkscape-font-specification:'Hall Fetica Decompose';letter-spacing:0.25017011px;word-spacing:0.33022457px;fill:#808080;fill-opacity:1;stroke:none;stroke-width:0.27339455"
             d="m 228.08713,211.44409 h -0.31277 v -0.36891 q 0,-0.16841 -0.0721,-0.31276 -0.0641,-0.15237 -0.17644,-0.26464 -0.11227,-0.11228 -0.26464,-0.17644 -0.14435,-0.0641 -0.31277,-0.0641 h -1.30718 l -0.16842,0.16841 v 3.31208 h -0.31276 v -3.78524 h 1.78836 q 0.46514,0 0.80197,0.32078 0.33682,0.3288 0.33682,0.80196 z" />
          <path
             inkscape:connector-curvature="0"
             id="path837"
             style="font-style:normal;font-variant:normal;font-weight:normal;font-stretch:normal;font-size:7.33832359px;line-height:1.25;font-family:'Hall Fetica Decompose';-inkscape-font-specification:'Hall Fetica Decompose';letter-spacing:0.25017011px;word-spacing:0.33022457px;fill:#808080;fill-opacity:1;stroke:none;stroke-width:0.27339455"
             d="m 232.31417,211.10726 q 0,-0.16841 -0.0641,-0.32078 -0.0642,-0.15237 -0.17643,-0.25663 -0.11228,-0.11227 -0.26465,-0.17642 -0.15237,-0.0642 -0.32078,-0.0642 h -1.58788 l -0.16841,0.17642 v 2.80686 l 0.16841,0.16841 h 1.58788 q 0.16841,0 0.32078,-0.0641 0.15237,-0.0642 0.26465,-0.16841 0.11228,-0.11228 0.17643,-0.26465 0.0641,-0.15236 0.0641,-0.32078 z m 0.31276,1.5157 q 0,0.48117 -0.33682,0.80195 -0.33682,0.32079 -0.80195,0.32079 h -2.06906 v -5.34104 h 0.31277 v 1.41145 l 0.16841,0.16841 h 1.58788 q 0.47315,0 0.80195,0.3288 0.33682,0.31277 0.33682,0.79394 z" />
          <path
             inkscape:connector-curvature="0"
             id="path839"
             style="font-style:normal;font-variant:normal;font-weight:normal;font-stretch:normal;font-size:7.33832359px;line-height:1.25;font-family:'Hall Fetica Decompose';-inkscape-font-specification:'Hall Fetica Decompose';letter-spacing:0.25017011px;word-spacing:0.33022457px;fill:#808080;fill-opacity:1;stroke:none;stroke-width:0.27339455"
             d="m 236.80586,213.44096 0.17642,-0.16841 -0.008,-1.36333 -0.17642,-0.16841 h -1.57184 q -0.16842,0 -0.32078,0.0641 -0.15237,0.0642 -0.27267,0.17644 -0.11227,0.10426 -0.17643,0.25662 -0.0642,0.14435 -0.0642,0.32078 v 0.0642 q 0,0.16842 0.0642,0.32078 0.0641,0.15237 0.17643,0.26465 0.1203,0.10426 0.27267,0.16841 0.15236,0.0641 0.32078,0.0641 z m 0.48919,0.30474 H 235.226 q -0.4892,0 -0.82602,-0.31276 -0.32078,-0.33683 -0.32078,-0.80998 v -0.0642 q 0,-0.48919 0.32078,-0.80998 0.32079,-0.31275 0.82602,-0.31275 h 1.57986 l 0.17642,-0.19247 -0.008,-0.0721 v -0.0963 q 0,-0.16841 -0.0641,-0.32078 -0.0642,-0.15237 -0.17643,-0.25662 -0.11227,-0.11228 -0.26465,-0.17644 -0.15237,-0.0642 -0.32077,-0.0642 H 234.256 v -0.30475 h 1.89263 q 0.48918,0 0.81799,0.30475 l 0.008,0.008 q 0.32079,0.30475 0.32079,0.7779 z" />
          <path
             inkscape:connector-curvature="0"
             id="path841"
             style="font-style:normal;font-variant:normal;font-weight:normal;font-stretch:normal;font-size:7.33832359px;line-height:1.25;font-family:'Hall Fetica Decompose';-inkscape-font-specification:'Hall Fetica Decompose';letter-spacing:0.25017011px;word-spacing:0.33022457px;fill:#808080;fill-opacity:1;stroke:none;stroke-width:0.27339455"
             d="m 241.46594,213.40888 0.17643,-0.17644 v -2.80684 l -0.17643,-0.16841 h -1.57985 q -0.16841,0 -0.32078,0.0641 -0.15238,0.0642 -0.26465,0.17644 -0.11227,0.10425 -0.17643,0.25662 -0.0642,0.15237 -0.0642,0.32078 v 1.5157 q 0,0.16841 0.0642,0.32078 0.0641,0.15238 0.17643,0.26466 0.11227,0.10425 0.26465,0.1684 0.15237,0.0642 0.32078,0.0642 z m 0.4892,0.74582 q 0,0.48117 -0.33682,0.80195 -0.33683,0.32079 -0.80196,0.32079 h -1.80441 v -0.30474 h 1.80441 q 0.16841,0 0.32078,-0.0642 0.15238,-0.0641 0.26465,-0.17643 0.11227,-0.10426 0.17643,-0.25663 0.0642,-0.15236 0.0642,-0.32078 V 213.882 l -0.17643,-0.16842 h -1.57985 q -0.46514,0 -0.80998,-0.32078 -0.3288,-0.3288 -0.3288,-0.80195 v -1.51571 q 0,-0.47316 0.3288,-0.80196 0.34484,-0.32078 0.80998,-0.32078 h 2.06905 z" />
          <path
             inkscape:connector-curvature="0"
             id="path843"
             style="font-style:normal;font-variant:normal;font-weight:normal;font-stretch:normal;font-size:7.33832359px;line-height:1.25;font-family:'Hall Fetica Decompose';-inkscape-font-specification:'Hall Fetica Decompose';letter-spacing:0.25017011px;word-spacing:0.33022457px;fill:#808080;fill-opacity:1;stroke:none;stroke-width:0.27339455"
             d="m 243.4956,208.81367 h -0.31276 v -0.40901 h 0.31276 z m 0,4.93203 h -0.31276 v -3.8093 h 0.31276 z" />
          <path
             inkscape:connector-curvature="0"
             id="path845"
             style="font-style:normal;font-variant:normal;font-weight:normal;font-stretch:normal;font-size:7.33832359px;line-height:1.25;font-family:'Hall Fetica Decompose';-inkscape-font-specification:'Hall Fetica Decompose';letter-spacing:0.25017011px;word-spacing:0.33022457px;fill:#808080;fill-opacity:1;stroke:none;stroke-width:0.27339455"
             d="m 251.0996,213.44096 0.17643,-0.16841 v -2.80686 l -0.17643,-0.17642 h -1.57986 q -0.16841,0 -0.32078,0.0641 -0.15237,0.0642 -0.26464,0.17643 -0.11228,0.10426 -0.17644,0.25663 -0.0642,0.15237 -0.0642,0.32078 v 1.5157 q 0,0.16842 0.0642,0.32078 0.0642,0.15237 0.17644,0.26465 0.11227,0.10426 0.26464,0.16841 0.15237,0.0641 0.32078,0.0641 z m 0.48919,0.30474 h -2.06905 q -0.46513,0 -0.80998,-0.32079 -0.3288,-0.3288 -0.3288,-0.80195 v -1.5157 q 0,-0.48117 0.3288,-0.79394 0.34485,-0.3288 0.80998,-0.3288 h 1.57986 l 0.17643,-0.16841 v -1.41145 h 0.31276 z" />
          <path
             inkscape:connector-curvature="0"
             id="path847"
             style="font-style:normal;font-variant:normal;font-weight:normal;font-stretch:normal;font-size:7.33832359px;line-height:1.25;font-family:'Hall Fetica Decompose';-inkscape-font-specification:'Hall Fetica Decompose';letter-spacing:0.25017011px;word-spacing:0.33022457px;fill:#808080;fill-opacity:1;stroke:none;stroke-width:0.27339455"
             d="m 256.17671,213.44096 -0.008,0.29672 h -1.98083 q -0.4892,0 -0.82602,-0.31277 -0.32078,-0.33682 -0.32078,-0.80997 v -1.53976 q 0,-0.47316 0.32078,-0.80998 0.33682,-0.31276 0.82602,-0.31276 h 1.98083 v 0.30475 h -1.98083 q -0.16842,0 -0.32079,0.0641 -0.15236,0.0642 -0.27266,0.17644 -0.11227,0.10425 -0.17643,0.25662 -0.0642,0.15237 -0.0642,0.32078 v 0.37693 l 0.16842,0.1684 h 2.42993 v 0.31277 h -2.42191 l -0.16842,0.16841 v 0.51325 q 0,0.16841 0.0641,0.32079 0.0642,0.15236 0.17643,0.26464 0.11228,0.10426 0.26464,0.16842 0.15237,0.0642 0.32079,0.0642 z" />
          <path
             inkscape:connector-curvature="0"
             id="path849"
             style="font-style:normal;font-variant:normal;font-weight:normal;font-stretch:normal;font-size:7.33832359px;line-height:1.25;font-family:'Hall Fetica Decompose';-inkscape-font-specification:'Hall Fetica Decompose';letter-spacing:0.25017011px;word-spacing:0.33022457px;fill:#808080;fill-opacity:1;stroke:none;stroke-width:0.27339455"
             d="m 260.90097,213.73768 h -0.31277 v -2.6625 q 0,-0.16841 -0.0721,-0.31276 -0.0642,-0.15237 -0.17643,-0.26464 -0.11227,-0.11228 -0.26465,-0.17644 -0.14435,-0.0641 -0.31276,-0.0641 h -1.64401 l -0.16841,0.16841 v 3.31208 h -0.31277 v -3.78524 h 2.12519 q 0.46514,0 0.80998,0.32078 0.3288,0.3288 0.3288,0.80196 z" />
          <path
             inkscape:connector-curvature="0"
             id="path851"
             style="font-style:normal;font-variant:normal;font-weight:normal;font-stretch:normal;font-size:7.33832359px;line-height:1.25;font-family:'Hall Fetica Decompose';-inkscape-font-specification:'Hall Fetica Decompose';letter-spacing:0.25017011px;word-spacing:0.33022457px;fill:#808080;fill-opacity:1;stroke:none;stroke-width:0.27339455"
             d="m 265.07988,213.40888 0.17643,-0.17644 v -2.80684 l -0.17643,-0.16841 h -1.57986 q -0.16841,0 -0.32078,0.0641 -0.15237,0.0642 -0.26465,0.17644 -0.11227,0.10425 -0.17643,0.25662 -0.0641,0.15237 -0.0641,0.32078 v 1.5157 q 0,0.16841 0.0641,0.32078 0.0641,0.15238 0.17643,0.26466 0.11228,0.10425 0.26465,0.1684 0.15237,0.0642 0.32078,0.0642 z m 0.4892,0.74582 q 0,0.48117 -0.33683,0.80195 -0.33682,0.32079 -0.80196,0.32079 h -1.8044 v -0.30474 h 1.8044 q 0.16841,0 0.32079,-0.0642 0.15237,-0.0641 0.26464,-0.17643 0.11228,-0.10426 0.17644,-0.25663 0.0641,-0.15236 0.0641,-0.32078 V 213.882 l -0.17643,-0.16842 h -1.57986 q -0.46513,0 -0.80997,-0.32078 -0.3288,-0.3288 -0.3288,-0.80195 v -1.51571 q 0,-0.47316 0.3288,-0.80196 0.34484,-0.32078 0.80997,-0.32078 h 2.06906 z" />
          <path
             inkscape:connector-curvature="0"
             id="path853"
             style="font-style:normal;font-variant:normal;font-weight:normal;font-stretch:normal;font-size:7.33832359px;line-height:1.25;font-family:'Hall Fetica Decompose';-inkscape-font-specification:'Hall Fetica Decompose';letter-spacing:0.25017011px;word-spacing:0.33022457px;fill:#808080;fill-opacity:1;stroke:none;stroke-width:0.27339455"
             d="m 269.65976,213.44096 0.17644,-0.16841 -0.008,-1.36333 -0.17644,-0.16841 h -1.57183 q -0.16841,0 -0.32078,0.0641 -0.15237,0.0642 -0.27266,0.17644 -0.11228,0.10426 -0.17644,0.25662 -0.0642,0.14435 -0.0642,0.32078 v 0.0642 q 0,0.16842 0.0642,0.32078 0.0641,0.15237 0.17644,0.26465 0.12029,0.10426 0.27266,0.16841 0.15237,0.0641 0.32078,0.0641 z m 0.4892,0.30474 h -2.06905 q -0.4892,0 -0.82602,-0.31276 -0.32078,-0.33683 -0.32078,-0.80998 v -0.0642 q 0,-0.48919 0.32078,-0.80998 0.32079,-0.31275 0.82602,-0.31275 h 1.57985 l 0.17644,-0.19247 -0.008,-0.0721 v -0.0963 q 0,-0.16841 -0.0641,-0.32078 -0.0642,-0.15237 -0.17642,-0.25662 -0.11228,-0.11228 -0.26466,-0.17644 -0.15237,-0.0642 -0.32078,-0.0642 h -1.89261 v -0.30475 h 1.89261 q 0.4892,0 0.818,0.30475 l 0.008,0.008 q 0.32078,0.30475 0.32078,0.7779 z" />
          <path
             inkscape:connector-curvature="0"
             id="path855"
             style="font-style:normal;font-variant:normal;font-weight:normal;font-stretch:normal;font-size:7.33832359px;line-height:1.25;font-family:'Hall Fetica Decompose';-inkscape-font-specification:'Hall Fetica Decompose';letter-spacing:0.25017011px;word-spacing:0.33022457px;fill:#808080;fill-opacity:1;stroke:none;stroke-width:0.27339455"
             d="m 274.86519,213.73768 h -0.31276 v -2.6625 q 0,-0.16841 -0.0722,-0.31276 -0.0641,-0.15237 -0.17643,-0.26464 -0.11227,-0.11228 -0.26465,-0.17644 -0.14435,-0.0641 -0.31276,-0.0641 h -1.64401 l -0.16841,0.16841 v 3.31208 h -0.31277 v -3.78524 h 2.12519 q 0.46514,0 0.80998,0.32078 0.3288,0.3288 0.3288,0.80196 z" />
          <path
             inkscape:connector-curvature="0"
             id="path857"
             style="font-style:normal;font-variant:normal;font-weight:normal;font-stretch:normal;font-size:7.33832359px;line-height:1.25;font-family:'Hall Fetica Decompose';-inkscape-font-specification:'Hall Fetica Decompose';letter-spacing:0.25017011px;word-spacing:0.33022457px;fill:#808080;fill-opacity:1;stroke:none;stroke-width:0.27339455"
             d="m 219.00751,220.76654 q 0,0.44909 -0.3288,0.70572 -0.32078,0.24861 -0.80997,0.24861 h -2.55023 v -0.30475 h 2.55023 q 0.82602,0 0.82602,-0.64958 v -1.00244 q 0,-0.64157 -0.82602,-0.64157 h -1.50768 q -0.47315,0 -0.80997,-0.24861 -0.32882,-0.25662 -0.32882,-0.70572 v -0.83404 q 0,-0.44909 0.32882,-0.70572 0.33682,-0.24861 0.80997,-0.24861 h 2.55824 v 0.30475 h -2.55824 q -0.82602,0 -0.82602,0.64958 v 0.83404 q 0,0.64157 0.82602,0.64157 h 1.50768 q 0.47315,0 0.80997,0.2486 0.3288,0.25663 0.3288,0.70573 z" />
          <path
             inkscape:connector-curvature="0"
             id="path859"
             style="font-style:normal;font-variant:normal;font-weight:normal;font-stretch:normal;font-size:7.33832359px;line-height:1.25;font-family:'Hall Fetica Decompose';-inkscape-font-specification:'Hall Fetica Decompose';letter-spacing:0.25017011px;word-spacing:0.33022457px;fill:#808080;fill-opacity:1;stroke:none;stroke-width:0.27339455"
             d="m 223.59544,221.40008 -0.008,0.29673 h -1.98084 q -0.48918,0 -0.82601,-0.31276 -0.32079,-0.33682 -0.32079,-0.80998 v -1.53976 q 0,-0.47315 0.32079,-0.80997 0.33683,-0.31277 0.82601,-0.31277 h 1.98084 v 0.30475 h -1.98084 q -0.1684,0 -0.32078,0.0642 -0.15237,0.0641 -0.27266,0.17642 -0.11228,0.10426 -0.17644,0.25663 -0.0642,0.15237 -0.0642,0.32078 v 0.37692 l 0.16841,0.16842 h 2.42994 v 0.31276 h -2.42192 l -0.16841,0.1684 v 0.51326 q 0,0.16841 0.0642,0.32078 0.0642,0.15238 0.17644,0.26465 0.11227,0.10426 0.26464,0.16841 0.15238,0.0642 0.32078,0.0642 z" />
          <path
             inkscape:connector-curvature="0"
             id="path861"
             style="font-style:normal;font-variant:normal;font-weight:normal;font-stretch:normal;font-size:7.33832359px;line-height:1.25;font-family:'Hall Fetica Decompose';-inkscape-font-specification:'Hall Fetica Decompose';letter-spacing:0.25017011px;word-spacing:0.33022457px;fill:#808080;fill-opacity:1;stroke:none;stroke-width:0.27339455"
             d="m 228.19138,221.40008 -0.008,0.29673 h -1.98083 q -0.48919,0 -0.82602,-0.31276 -0.32078,-0.33682 -0.32078,-0.80998 v -1.53976 q 0,-0.47315 0.32078,-0.80997 0.33683,-0.31277 0.82602,-0.31277 h 1.98083 v 0.30475 h -1.98083 q -0.16842,0 -0.32079,0.0642 -0.15236,0.0641 -0.27266,0.17642 -0.11228,0.10426 -0.17643,0.25663 -0.0642,0.15237 -0.0642,0.32078 l 0.008,1.53976 q 0,0.16841 0.0642,0.32078 0.0641,0.15238 0.17643,0.26465 0.11228,0.10426 0.26464,0.16841 0.15237,0.0642 0.32079,0.0642 z" />
          <path
             inkscape:connector-curvature="0"
             id="path863"
             style="font-style:normal;font-variant:normal;font-weight:normal;font-stretch:normal;font-size:7.33832359px;line-height:1.25;font-family:'Hall Fetica Decompose';-inkscape-font-specification:'Hall Fetica Decompose';letter-spacing:0.25017011px;word-spacing:0.33022457px;fill:#808080;fill-opacity:1;stroke:none;stroke-width:0.27339455"
             d="m 232.37832,221.40008 0.17643,-0.1684 -0.008,-1.36333 -0.17643,-0.16841 h -1.57183 q -0.16841,0 -0.32078,0.0642 -0.15237,0.0641 -0.27267,0.17642 -0.11227,0.10426 -0.17643,0.25663 -0.0642,0.14436 -0.0642,0.32078 v 0.0641 q 0,0.16841 0.0642,0.32078 0.0641,0.15238 0.17643,0.26464 0.1203,0.10426 0.27267,0.16842 0.15237,0.0641 0.32078,0.0641 z m 0.4892,0.30475 h -2.06905 q -0.4892,0 -0.82602,-0.31276 -0.32078,-0.33682 -0.32078,-0.80997 v -0.0641 q 0,-0.4892 0.32078,-0.80998 0.32079,-0.31277 0.82602,-0.31277 h 1.57985 l 0.17643,-0.19247 -0.008,-0.0721 v -0.0963 q 0,-0.16841 -0.0642,-0.32078 -0.0641,-0.15237 -0.17643,-0.25663 -0.11227,-0.11227 -0.26465,-0.17642 -0.15237,-0.0641 -0.32078,-0.0641 h -1.89262 v -0.30475 h 1.89262 q 0.4892,0 0.818,0.30475 l 0.008,0.008 q 0.32079,0.30475 0.32079,0.7779 z" />
          <path
             inkscape:connector-curvature="0"
             id="path865"
             style="font-style:normal;font-variant:normal;font-weight:normal;font-stretch:normal;font-size:7.33832359px;line-height:1.25;font-family:'Hall Fetica Decompose';-inkscape-font-specification:'Hall Fetica Decompose';letter-spacing:0.25017011px;word-spacing:0.33022457px;fill:#808080;fill-opacity:1;stroke:none;stroke-width:0.27339455"
             d="m 237.58375,221.69681 h -0.31277 v -2.6625 q 0,-0.16841 -0.0721,-0.31277 -0.0641,-0.15236 -0.17644,-0.26464 -0.11226,-0.11227 -0.26464,-0.17642 -0.14435,-0.0642 -0.31276,-0.0642 H 234.801 l -0.16842,0.16841 v 3.31208 h -0.31276 v -3.78524 h 2.12519 q 0.46514,0 0.80998,0.32079 0.3288,0.3288 0.3288,0.80195 z" />
          <path
             inkscape:connector-curvature="0"
             id="path867"
             style="font-style:normal;font-variant:normal;font-weight:normal;font-stretch:normal;font-size:7.33832359px;line-height:1.25;font-family:'Hall Fetica Decompose';-inkscape-font-specification:'Hall Fetica Decompose';letter-spacing:0.25017011px;word-spacing:0.33022457px;fill:#808080;fill-opacity:1;stroke:none;stroke-width:0.27339455"
             d="m 241.76266,221.36801 0.17643,-0.17643 v -2.80685 l -0.17643,-0.16841 h -1.57986 q -0.16841,0 -0.32078,0.0642 -0.15237,0.0641 -0.26465,0.17642 -0.11227,0.10426 -0.17643,0.25663 -0.0642,0.15237 -0.0642,0.32078 v 1.5157 q 0,0.16842 0.0642,0.32079 0.0642,0.15236 0.17643,0.26464 0.11228,0.10426 0.26465,0.16842 0.15237,0.0641 0.32078,0.0641 z m 0.48919,0.74582 q 0,0.48118 -0.33682,0.80196 -0.33682,0.32078 -0.80196,0.32078 h -1.8044 v -0.30475 h 1.8044 q 0.16841,0 0.32079,-0.0641 0.15237,-0.0642 0.26464,-0.17643 0.11228,-0.10425 0.17644,-0.25663 0.0641,-0.15237 0.0641,-0.32078 v -0.27267 l -0.17643,-0.1684 h -1.57986 q -0.46513,0 -0.80997,-0.32078 -0.32881,-0.32882 -0.32881,-0.80197 v -1.5157 q 0,-0.47315 0.32881,-0.80195 0.34484,-0.32079 0.80997,-0.32079 h 2.06905 z" />
          <path
             inkscape:connector-curvature="0"
             id="path869"
             style="font-style:normal;font-variant:normal;font-weight:normal;font-stretch:normal;font-size:7.33832359px;line-height:1.25;font-family:'Hall Fetica Decompose';-inkscape-font-specification:'Hall Fetica Decompose';letter-spacing:0.25017011px;word-spacing:0.33022457px;fill:#808080;fill-opacity:1;stroke:none;stroke-width:0.27339455"
             d="m 246.92798,217.88751 -1.1067,1.38739 0.13633,0.27266 h 0.0321 q 0.409,0 0.68166,0.32079 0.16039,0.16841 0.22455,0.36088 0.0721,0.19247 0.0721,0.42504 v 1.04254 h -0.31276 v -1.04254 q 0,-0.17643 -0.0641,-0.32078 -0.0642,-0.15238 -0.18445,-0.25663 -0.11227,-0.11227 -0.26465,-0.17643 -0.15236,-0.0642 -0.32078,-0.0642 h -1.63599 l -0.16841,0.16842 v 1.69212 h -0.31277 v -5.34103 h 0.31277 v 2.99931 l 0.16841,0.17644 h 1.04255 l 0.13633,-0.0722 1.24304,-1.57184 z" />
          <path
             inkscape:connector-curvature="0"
             id="path871"
             style="font-style:normal;font-variant:normal;font-weight:normal;font-stretch:normal;font-size:7.33832359px;line-height:1.25;font-family:'Hall Fetica Decompose';-inkscape-font-specification:'Hall Fetica Decompose';letter-spacing:0.25017011px;word-spacing:0.33022457px;fill:#808080;fill-opacity:1;stroke:none;stroke-width:0.27339455"
             d="m 248.88549,216.77279 h -0.31277 v -0.40899 h 0.31277 z m 0,4.93204 h -0.31277 v -3.80929 h 0.31277 z" />
          <path
             inkscape:connector-curvature="0"
             id="path873"
             style="font-style:normal;font-variant:normal;font-weight:normal;font-stretch:normal;font-size:7.33832359px;line-height:1.25;font-family:'Hall Fetica Decompose';-inkscape-font-specification:'Hall Fetica Decompose';letter-spacing:0.25017011px;word-spacing:0.33022457px;fill:#808080;fill-opacity:1;stroke:none;stroke-width:0.27339455"
             d="m 253.27292,219.40321 h -0.31277 v -0.3689 q 0,-0.16841 -0.0721,-0.31277 -0.0642,-0.15236 -0.17643,-0.26464 -0.11227,-0.11227 -0.26465,-0.17642 -0.14435,-0.0642 -0.31276,-0.0642 h -1.30719 l -0.16842,0.16841 v 3.31208 h -0.31276 v -3.78524 h 1.78837 q 0.46514,0 0.80196,0.32079 0.33682,0.3288 0.33682,0.80195 z" />
          <path
             inkscape:connector-curvature="0"
             id="path875"
             style="font-style:normal;font-variant:normal;font-weight:normal;font-stretch:normal;font-size:7.33832359px;line-height:1.25;font-family:'Hall Fetica Decompose';-inkscape-font-specification:'Hall Fetica Decompose';letter-spacing:0.25017011px;word-spacing:0.33022457px;fill:#808080;fill-opacity:1;stroke:none;stroke-width:0.27339455"
             d="m 261.82323,216.35578 -1.34729,2.2535 0.14435,0.25662 h 0.0401 q 0.38494,0 0.68167,0.32079 0.29672,0.3288 0.29672,0.78591 v 1.72421 H 261.318 v -1.72421 q 0,-0.35285 -0.24058,-0.58542 -0.24059,-0.23258 -0.59345,-0.23258 h -1.97281 l -0.16841,0.16842 v 2.37379 h -0.31277 v -5.34103 h 0.31277 v 2.31765 l 0.16841,0.17644 h 1.37936 l 0.14435,-0.0882 1.41145,-2.40587 z" />
          <path
             inkscape:connector-curvature="0"
             id="path877"
             style="font-style:normal;font-variant:normal;font-weight:normal;font-stretch:normal;font-size:7.33832359px;line-height:1.25;font-family:'Hall Fetica Decompose';-inkscape-font-specification:'Hall Fetica Decompose';letter-spacing:0.25017011px;word-spacing:0.33022457px;fill:#808080;fill-opacity:1;stroke:none;stroke-width:0.27339455"
             d="m 266.36304,219.03431 q 0,-0.16841 -0.0642,-0.32078 -0.0641,-0.15237 -0.18445,-0.25663 -0.11227,-0.11227 -0.26465,-0.17642 -0.15237,-0.0642 -0.32078,-0.0642 h -0.97839 q -0.16841,0 -0.32078,0.0642 -0.15237,0.0641 -0.26464,0.17642 -0.11228,0.10426 -0.17644,0.25663 -0.0642,0.15237 -0.0642,0.32078 v 1.5157 q 0,0.16842 0.0642,0.32079 0.0641,0.15236 0.17644,0.26464 0.11227,0.10426 0.26464,0.16842 0.15237,0.0642 0.32078,0.0642 h 0.97839 q 0.16841,0 0.32078,-0.0642 0.15238,-0.0641 0.26465,-0.16842 0.12029,-0.11228 0.18445,-0.26464 0.0642,-0.15237 0.0642,-0.32079 z m 0.31276,1.5157 q 0,0.4892 -0.3288,0.80998 -0.3288,0.31277 -0.818,0.31277 h -0.97839 q -0.48919,0 -0.82601,-0.31277 -0.32079,-0.33683 -0.32079,-0.80998 v -1.5157 q 0,-0.47315 0.32079,-0.80997 0.33682,-0.31277 0.82601,-0.31277 h 0.97839 q 0.4892,0 0.818,0.31277 0.3288,0.32078 0.3288,0.80997 z" />
          <path
             inkscape:connector-curvature="0"
             id="path879"
             style="font-style:normal;font-variant:normal;font-weight:normal;font-stretch:normal;font-size:7.33832359px;line-height:1.25;font-family:'Hall Fetica Decompose';-inkscape-font-specification:'Hall Fetica Decompose';letter-spacing:0.25017011px;word-spacing:0.33022457px;fill:#808080;fill-opacity:1;stroke:none;stroke-width:0.27339455"
             d="m 271.03115,219.03431 q 0,-0.16841 -0.0642,-0.32078 -0.0641,-0.15237 -0.17643,-0.25663 -0.11227,-0.11227 -0.26465,-0.17642 -0.15237,-0.0642 -0.32078,-0.0642 h -1.58788 l -0.16841,0.16841 v 2.80685 l 0.16841,0.17643 h 1.58788 q 0.16841,0 0.32078,-0.0642 0.15238,-0.0641 0.26465,-0.16842 0.11227,-0.11228 0.17643,-0.26464 0.0642,-0.15237 0.0642,-0.32079 z m 0.31277,1.5157 q 0,0.48117 -0.33682,0.80197 -0.33683,0.32078 -0.80196,0.32078 h -1.58788 l -0.16841,0.1684 v 1.32324 h -0.31276 v -5.25283 h 2.06905 q 0.46513,0 0.80196,0.32079 0.33682,0.3288 0.33682,0.80195 z" />
          <path
             inkscape:connector-curvature="0"
             id="path881"
             style="font-style:normal;font-variant:normal;font-weight:normal;font-stretch:normal;font-size:7.33832359px;line-height:1.25;font-family:'Hall Fetica Decompose';-inkscape-font-specification:'Hall Fetica Decompose';letter-spacing:0.25017011px;word-spacing:0.33022457px;fill:#808080;fill-opacity:1;stroke:none;stroke-width:0.27339455"
             d="m 273.10895,216.77279 h -0.31276 v -0.40899 h 0.31276 z m 0,4.93204 h -0.31276 v -3.80929 h 0.31276 z" />
        </g>
        <text
           id="text829"
           y="221.17928"
           x="276.91882"
           style="font-style:normal;font-variant:normal;font-weight:normal;font-stretch:normal;font-size:2.75187683px;line-height:1.25;font-family:'Hall Fetica Decompose';-inkscape-font-specification:'Hall Fetica Decompose';letter-spacing:0.09381397px;word-spacing:0.12383445px;fill:#4d4d4d;fill-opacity:1;stroke:none;stroke-width:0.09381397"
           xml:space="preserve"><tspan
             style="font-style:normal;font-variant:normal;font-weight:normal;font-stretch:normal;font-family:'Hall Fetica Decompose';-inkscape-font-specification:'Hall Fetica Decompose';fill:#4d4d4d;stroke-width:0.09381397"
             y="221.17928"
             x="276.91882"
             id="tspan827"
             sodipodi:role="line">by Aank</tspan></text>
      </g>
    </g>
  </g>
</svg>
