<?xml version="1.0" encoding="UTF-8" standalone="no"?>
<!-- Created with Inkscape (http://www.inkscape.org/) -->

<svg
   xmlns:dc="http://purl.org/dc/elements/1.1/"
   xmlns:cc="http://creativecommons.org/ns#"
   xmlns:rdf="http://www.w3.org/1999/02/22-rdf-syntax-ns#"
   xmlns:svg="http://www.w3.org/2000/svg"
   xmlns="http://www.w3.org/2000/svg"
   xmlns:sodipodi="http://sodipodi.sourceforge.net/DTD/sodipodi-0.dtd"
   xmlns:inkscape="http://www.inkscape.org/namespaces/inkscape"
   width="17mm"
   height="17mm"
   viewBox="0 0 17 17"
   version="1.1"
   id="svg3367"
   inkscape:version="0.92.5 (2060ec1f9f, 2020-04-08)"
   sodipodi:docname="logo-aank-white.svg">
  <defs
     id="defs3361" />
  <sodipodi:namedview
     id="base"
     pagecolor="#ffffff"
     bordercolor="#666666"
     borderopacity="1.0"
     inkscape:pageopacity="0.0"
     inkscape:pageshadow="2"
     inkscape:zoom="5.6"
     inkscape:cx="12.651746"
     inkscape:cy="31.676445"
     inkscape:document-units="mm"
     inkscape:current-layer="g3334"
     showgrid="false"
     inkscape:window-width="1920"
     inkscape:window-height="1015"
     inkscape:window-x="0"
     inkscape:window-y="28"
     inkscape:window-maximized="1" />
  <metadata
     id="metadata3364">
    <rdf:RDF>
      <cc:Work
         rdf:about="">
        <dc:format>image/svg+xml</dc:format>
        <dc:type
           rdf:resource="http://purl.org/dc/dcmitype/StillImage" />
        <dc:title></dc:title>
      </cc:Work>
    </rdf:RDF>
  </metadata>
  <g
     inkscape:label="Layer 1"
     inkscape:groupmode="layer"
     id="layer1"
     transform="translate(0,-280)">
    <g
       id="g3334"
       transform="translate(-188.58201,68.997273)">
      <path
         inkscape:connector-curvature="0"
         id="path1741"
         d="m 197.04241,212.40095 a 7.0496189,7.0496189 0 0 0 -7.04971,7.04973 7.0496189,7.0496189 0 0 0 0.9563,3.52783 l 2.62116,-4.54462 2.56535,4.37809 -1.84684,3.12761 a 7.0496189,7.0496189 0 0 0 2.75374,0.56061 7.0496189,7.0496189 0 0 0 4.56178,-1.68527 l -2.41502,0.006 -4.64002,-8.07773 2.52982,-4.34136 a 7.0496189,7.0496189 0 0 0 -0.0365,-0.001 z m 0.0596,0.001 6.06888,10.52094 a 7.0496189,7.0496189 0 0 0 0.92097,-3.47428 7.0496189,7.0496189 0 0 0 -6.98985,-7.04666 z"
         style="opacity:1;fill:#ffffff;fill-opacity:1;stroke:none;stroke-width:0.17673214;stroke-miterlimit:4;stroke-dasharray:none" />
    </g>
  </g>
</svg>
