<?xml version="1.0" encoding="UTF-8" standalone="no"?>
<!-- Creator: CorelDRAW X5 -->

<svg
   xmlns:dc="http://purl.org/dc/elements/1.1/"
   xmlns:cc="http://creativecommons.org/ns#"
   xmlns:rdf="http://www.w3.org/1999/02/22-rdf-syntax-ns#"
   xmlns:svg="http://www.w3.org/2000/svg"
   xmlns="http://www.w3.org/2000/svg"
   xmlns:sodipodi="http://sodipodi.sourceforge.net/DTD/sodipodi-0.dtd"
   xmlns:inkscape="http://www.inkscape.org/namespaces/inkscape"
   xml:space="preserve"
   width="1052.361"
   height="744.09485"
   style="fill-rule:evenodd"
   viewBox="0 0 11693.295 8267.7915"
   id="svg2"
   version="1.1"
   inkscape:version="0.92.5 (2060ec1f9f, 2020-04-08)"
   sodipodi:docname="all-maskot.svg"><metadata
   id="metadata332"><rdf:RDF><cc:Work
       rdf:about=""><dc:format>image/svg+xml</dc:format><dc:type
         rdf:resource="http://purl.org/dc/dcmitype/StillImage" /><dc:title /></cc:Work></rdf:RDF></metadata><sodipodi:namedview
   pagecolor="#ffffff"
   bordercolor="#666666"
   borderopacity="1"
   objecttolerance="10"
   gridtolerance="10"
   guidetolerance="10"
   inkscape:pageopacity="0"
   inkscape:pageshadow="2"
   inkscape:window-width="1920"
   inkscape:window-height="1015"
   id="namedview330"
   showgrid="false"
   inkscape:zoom="0.89074052"
   inkscape:cx="323.40567"
   inkscape:cy="391.22609"
   inkscape:window-x="0"
   inkscape:window-y="28"
   inkscape:window-maximized="1"
   inkscape:current-layer="Layer_x0020_1" />
 <defs
   id="defs4">
  <style
   type="text/css"
   id="style6">
   
    .fil13 {fill:#201E1E}
    .fil0 {fill:#57884E}
    .fil10 {fill:#59874D}
    .fil9 {fill:#6B9F50}
    .fil5 {fill:#72A14E}
    .fil8 {fill:#7FB551}
    .fil6 {fill:#88B74C}
    .fil7 {fill:#96CA53}
    .fil4 {fill:#A8CF45}
    .fil3 {fill:#FEFEFE}
    .fil1 {fill:#57884E;fill-rule:nonzero}
    .fil11 {fill:#6B9F50;fill-rule:nonzero}
    .fil2 {fill:#96989A;fill-rule:nonzero}
    .fil12 {fill:#A8CF45;fill-rule:nonzero;fill-opacity:0.501961}
   
  </style>
    <clipPath
   id="id0">
     <path
   d="m 5532,7596 c -3,-25 1,-51 12,-77 7,-16 16,-32 29,-47 13,-15 26,-28 41,-37 23,-16 49,-24 74,-26 28,-2 55,3 81,14 35,15 65,40 86,71 15,23 26,49 29,76 3,25 -1,51 -12,77 -7,16 -16,32 -29,47 -13,15 -26,28 -41,37 -23,16 -49,24 -74,26 -28,2 -55,-3 -81,-14 -35,-15 -65,-40 -86,-71 -15,-23 -26,-49 -29,-76 z"
   id="path9"
   inkscape:connector-curvature="0" />
    </clipPath>
    <clipPath
   id="id1">
     <path
   d="m 5652,7586 c -1,-8 0,-16 4,-25 2,-5 5,-10 9,-15 4,-5 8,-9 13,-12 7,-5 15,-8 23,-8 9,-1 18,1 26,4 11,5 21,13 27,23 5,7 8,16 9,24 1,8 0,16 -4,25 -2,5 -5,10 -9,15 -4,5 -8,9 -13,12 -7,5 -15,8 -23,8 -9,1 -18,-1 -26,-4 -11,-5 -21,-13 -27,-23 -5,-7 -8,-16 -9,-24 z"
   id="path12"
   inkscape:connector-curvature="0" />
    </clipPath>
   <mask
   id="id2">
  <linearGradient
   id="id3"
   gradientUnits="userSpaceOnUse"
   x1="3664.0601"
   y1="9333.29"
   x2="3841.0901"
   y2="9144.3799">
   <stop
   offset="0"
   style="stop-opacity:1; stop-color:white"
   id="stop16" />
   <stop
   offset="0.611765"
   style="stop-opacity:0.501961; stop-color:white"
   id="stop18" />
   <stop
   offset="1"
   style="stop-opacity:0; stop-color:white"
   id="stop20" />
  </linearGradient>
    <rect
   style="fill:url(#id3)"
   x="3268"
   y="8799"
   width="969"
   height="880"
   id="rect22" />
   </mask>
     <clipPath
   id="id4">
      <path
   d="m 1450,1287 c -22,-7 -43,-19 -60,-37 -11,-11 -21,-25 -29,-41 -8,-16 -14,-32 -17,-47 -5,-25 -3,-49 4,-71 8,-24 22,-45 40,-63 24,-24 56,-40 89,-47 25,-5 50,-4 74,3 22,7 43,19 60,37 11,11 21,25 29,41 8,16 14,32 17,47 5,25 3,49 -4,71 -8,24 -22,45 -40,63 -24,24 -56,40 -89,47 -25,5 -50,4 -74,-3 z"
   id="path25"
   inkscape:connector-curvature="0" />
     </clipPath>
     <clipPath
   id="id5">
      <path
   d="m 1485,1184 c -7,-2 -14,-6 -19,-12 -3,-4 -7,-8 -9,-13 -3,-5 -4,-10 -5,-15 -2,-8 -1,-16 1,-23 2,-8 7,-14 13,-20 8,-8 18,-13 28,-15 8,-2 16,-1 24,1 7,2 14,6 19,12 3,4 7,8 9,13 3,5 4,10 5,15 2,8 1,16 -1,23 -2,8 -7,14 -13,20 -8,8 -18,13 -28,15 -8,2 -16,1 -24,-1 z"
   id="path28"
   inkscape:connector-curvature="0" />
     </clipPath>
     <clipPath
   id="id6">
      <path
   d="m 5853,4328 c -8,-18 -11,-38 -9,-60 1,-13 5,-27 11,-41 6,-14 13,-26 21,-37 14,-17 30,-29 48,-36 20,-8 41,-10 62,-8 29,3 57,15 79,33 16,13 30,30 38,50 8,18 11,38 9,60 -1,13 -5,27 -11,41 -6,14 -13,26 -21,37 -14,17 -30,29 -48,36 -20,8 -41,10 -62,8 -29,-3 -57,-15 -79,-33 -16,-13 -30,-30 -38,-50 z"
   id="path31"
   inkscape:connector-curvature="0" />
     </clipPath>
     <clipPath
   id="id7">
      <path
   d="m 5939,4294 c -2,-6 -4,-12 -3,-19 0,-4 2,-9 3,-13 2,-5 4,-8 7,-12 4,-5 10,-9 15,-11 6,-3 13,-3 20,-3 9,1 18,5 25,10 5,4 10,10 12,16 2,6 4,12 3,19 0,4 -2,9 -3,13 -2,5 -4,8 -7,12 -4,5 -10,9 -15,11 -6,3 -13,3 -20,3 -9,-1 -18,-5 -25,-10 -5,-4 -10,-10 -12,-16 z"
   id="path34"
   inkscape:connector-curvature="0" />
     </clipPath>
     <clipPath
   id="id8">
      <path
   d="m 345,5219 c -20,-17 -37,-39 -47,-67 -6,-17 -11,-36 -12,-57 -2,-21 0,-40 4,-58 6,-29 19,-54 37,-74 19,-22 44,-38 71,-48 37,-14 78,-17 117,-9 28,6 55,19 77,37 20,17 37,39 47,67 6,17 11,36 12,57 2,21 0,40 -4,58 -6,29 -19,54 -37,74 -19,22 -44,38 -71,48 -37,14 -78,17 -117,9 -28,-6 -55,-19 -77,-37 z"
   id="path37"
   inkscape:connector-curvature="0" />
     </clipPath>
     <clipPath
   id="id9">
      <path
   d="m 429,5125 c -6,-5 -12,-13 -15,-21 -2,-5 -3,-11 -4,-18 0,-7 0,-13 1,-18 2,-9 6,-17 12,-23 6,-7 14,-12 23,-15 12,-4 25,-5 37,-3 9,2 18,6 25,12 6,5 12,13 15,21 2,5 3,11 4,18 0,7 0,13 -1,18 -2,9 -6,17 -12,23 -6,7 -14,12 -23,15 -12,4 -25,5 -37,3 -9,-2 -18,-6 -25,-12 z"
   id="path40"
   inkscape:connector-curvature="0" />
     </clipPath>
     <clipPath
   id="id10">
      <path
   d="m 5075,1175 c 2,-24 -1,-49 -12,-74 -7,-15 -16,-30 -28,-45 -12,-15 -26,-26 -39,-35 -23,-15 -47,-22 -71,-24 -27,-2 -53,3 -77,14 -33,15 -62,39 -81,69 -14,22 -24,47 -26,74 -2,24 1,49 12,74 7,15 16,30 28,45 12,15 26,26 39,35 23,15 47,22 71,24 27,2 53,-3 77,-14 33,-15 62,-39 81,-69 14,-22 24,-47 26,-74 z"
   id="path43"
   inkscape:connector-curvature="0" />
     </clipPath>
     <clipPath
   id="id11">
      <path
   d="m 4961,1168 c 1,-8 0,-16 -4,-24 -2,-5 -5,-10 -9,-14 -4,-5 -8,-8 -13,-11 -7,-5 -15,-7 -23,-8 -8,-1 -17,1 -25,4 -10,5 -20,12 -26,22 -5,7 -8,15 -8,23 -1,8 0,16 4,24 2,5 5,10 9,14 4,5 8,8 13,11 7,5 15,7 23,8 8,1 17,-1 25,-4 10,-5 20,-12 26,-22 5,-7 8,-15 8,-24 z"
   id="path46"
   inkscape:connector-curvature="0" />
     </clipPath>
 
   
   
   
  
   
   
   
  
   
   
   
  
   
   
   
  </defs>
 <g
   id="Layer_x0020_1"
   transform="translate(0,-3425.2948)">
  <metadata
   id="CorelCorpID_0Corel-Layer" />
  
  
  
  
  
  
  
  
  
  
  
  
  
  
  
  
  
  
  
  
  
  
  
  
  
  
  
  
  <g
   id="g3196"
   transform="matrix(0.48443222,0,0,0.48443222,8401.8554,5795.5404)"><polygon
     id="polygon80"
     points="3272,8802 4956,8596 5212,7661 3925,7796 "
     class="fil4"
     style="fill:#a8cf45" /><path
     id="path94"
     d="m 5778,7495 c 49,40 56,112 15,161 -24,29 -60,43 -95,41 -99,244 -203,504 -301,742 -13,8 -28,1 -41,9 89,-254 187,-519 278,-775 l -2,-2 c -49,-40 -56,-112 -15,-161 40,-49 112,-56 161,-15 z m -21,27 c 33,28 38,77 11,110 -28,33 -77,38 -110,11 -33,-28 -38,-77 -11,-110 28,-33 77,-38 110,-11 z"
     class="fil0"
     inkscape:connector-curvature="0"
     style="fill:#57884e" /><path
     id="path96"
     d="m 4956,8596 -1685,207 635,873 150,-16 c 49,-77 -36,-98 134,-196 l 70,-190 c 180,-121 379,-126 562,-45 58,64 0,95 129,177 61,21 150,69 193,107 32,28 49,72 73,109 l 239,-7 -499,-1019 z"
     class="fil5"
     inkscape:connector-curvature="0"
     style="fill:#72a14e" /><polygon
     id="polygon98"
     points="4956,8596 5455,9614 5606,8699 5212,7661 "
     class="fil6"
     style="fill:#88b74c" /><path
     mask="url(#id2)"
     id="path100"
     d="m 4233,9439 c -108,-391 -395,-596 -962,-636 177,243 505,683 635,873 357,-14 228,-181 327,-237 z"
     style="fill:#88b74c"
     class="fil6"
     inkscape:connector-curvature="0" /><path
     id="path102"
     d="m 4309,9304 -75,135 c -49,28 -149,86 -190,131 -67,360 -241,575 -147,846 -35,207 -98,551 -133,758 35,2 70,3 106,3 233,2 483,-21 710,-10 -3,-151 -45,-423 -48,-574 74,-26 80,-33 158,-33 -6,232 27,464 22,696 l 912,-8 184,-2 c -75,-273 -256,-554 -331,-827 30,-370 -262,-724 -306,-925 -43,-38 -199,-116 -260,-137 -63,-77 -39,-75 -97,-139 -182,-81 -383,-50 -504,86 z"
     class="fil7"
     inkscape:connector-curvature="0"
     style="fill:#96ca53" /><path
     id="path104"
     d="m 5807,11246 c -75,-273 -256,-554 -331,-827 l -269,-517 416,1346 z"
     class="fil8"
     inkscape:connector-curvature="0"
     style="fill:#7fb551" /><path
     id="path106"
     d="m 3870,11177 117,-1125 -106,429 c -35,207 -82,486 -117,694 35,2 70,3 106,3 z"
     class="fil8"
     inkscape:connector-curvature="0"
     style="fill:#7fb551" /><path
     id="path108"
     d="m 4801,10290 -424,48 154,254 c 74,-26 80,-33 158,-33 z"
     class="fil9"
     inkscape:connector-curvature="0"
     style="fill:#6b9f50" /><path
     id="path110"
     d="m 4580,11167 c -3,-151 -45,-423 -48,-574 l -154,-254 129,826 c 24,0 49,1 73,2 z"
     class="fil8"
     inkscape:connector-curvature="0"
     style="fill:#7fb551" /><path
     id="path112"
     d="m 4785,11255 16,-964 -112,269 c -6,232 27,464 22,696 z"
     class="fil8"
     inkscape:connector-curvature="0"
     style="fill:#7fb551" /><path
     id="path114"
     d="m 4983,9389 c -55,-25 -149,-68 -190,-105 -154,-139 -424,-77 -518,141 -12,7 -68,29 -84,39 -34,-445 701,-486 792,-75 z"
     class="fil10"
     inkscape:connector-curvature="0"
     style="fill:#59874d" /><ellipse
     id="ellipse116"
     ry="178"
     rx="267"
     transform="matrix(0.780088,-0.935536,0.678671,0.505055,4001.57,8107.07)"
     class="fil0"
     cx="0"
     cy="0"
     style="fill:#57884e" /><ellipse
     id="ellipse118"
     ry="178"
     rx="267"
     transform="matrix(0.50325,-0.603533,0.437825,0.325821,4028.32,8136.57)"
     class="fil9"
     cx="0"
     cy="0"
     style="fill:#6b9f50" /><ellipse
     id="ellipse120"
     ry="178"
     rx="267"
     transform="matrix(0.559254,-0.670697,0.486548,0.36208,4679.73,8031.03)"
     class="fil0"
     cx="0"
     cy="0"
     style="fill:#57884e" /><ellipse
     id="ellipse122"
     ry="178"
     rx="267"
     transform="matrix(0.384152,-0.460703,0.33421,0.248713,4700.64,8054.08)"
     class="fil9"
     cx="0"
     cy="0"
     style="fill:#6b9f50" /><polygon
     id="polygon124"
     points="3676,8525 3563,8767 3522,8772 3678,8450 4778,8266 4604,8640 4569,8644 4670,8426 "
     class="fil11"
     style="fill:#6b9f50;fill-rule:nonzero" /><g
     id="g126">
   <path
   id="path128"
   d="m 4588,10000 c 71,-47 138,-91 200,-132 58,-38 113,-75 164,-109 0,-1 -1,-2 -1,-2 -20,-47 -39,-90 -56,-129 -15,-36 -30,-68 -43,-99 -34,-8 -68,-16 -100,-23 -32,-7 -63,-14 -93,-21 4,20 8,41 12,63 41,10 82,20 126,31 8,24 16,49 26,76 -58,-16 -114,-31 -167,-45 -5,-32 -10,-62 -14,-89 -4,-25 -8,-49 -11,-72 0,0 0,-1 0,-1 -24,-6 -47,-11 -70,-16 -1,0 -3,-1 -4,-1 0,9 1,17 1,27 1,26 2,55 4,86 2,34 3,71 5,112 2,43 4,92 6,145 -36,25 -73,50 -112,77 5,-74 9,-138 12,-195 3,-50 6,-95 8,-136 -26,13 -53,26 -81,40 -28,14 -58,29 -88,44 -6,22 -12,46 -18,71 54,-28 106,-54 155,-79 -2,22 -4,46 -7,70 -38,21 -79,42 -120,65 -44,24 -89,48 -137,74 58,24 119,50 184,77 68,29 141,59 218,91 z"
   class="fil0"
   inkscape:connector-curvature="0"
   style="fill:#57884e" />
   <path
   id="path130"
   d="m 4587,9992 c 41,-27 74,-48 100,-66 26,-17 60,-39 96,-64 21,-14 42,-28 63,-42 30,-20 60,-40 96,-64 l -54,-125 -13,-30 c -10,-23 -19,-45 -28,-65 l -96,-22 c -15,-3 -29,-7 -44,-10 l -37,-9 v 3 c 3,14 5,28 8,44 l 57,14 64,16 4,1 1,4 c 3,9 7,22 12,37 3,10 8,23 13,39 l 5,14 -14,-4 c -29,-8 -57,-16 -85,-23 -32,-9 -59,-16 -82,-22 l -5,-1 -1,-5 -5,-33 c -5,-32 -7,-44 -9,-56 l -6,-37 v 0 l -5,-30 c -12,-3 -22,-5 -30,-7 l -29,-7 1,16 2,49 2,38 1,19 c 1,29 3,59 4,92 l 1,33 c 2,34 3,72 5,112 v 4 l -4,2 -55,38 -57,39 -13,9 1,-16 c 4,-68 8,-127 11,-179 l 1,-16 6,-90 2,-33 c -13,7 -27,13 -40,20 l -28,14 -43,21 -42,21 c -5,19 -9,35 -13,52 37,-19 77,-39 115,-59 l 25,-13 12,-6 -1,14 c -2,22 -4,44 -6,67 v 4 4 l -4,2 -46,25 c -24,13 -49,27 -75,40 l -52,28 -71,38 c 34,14 69,29 105,44 l 64,27 11,4 c 64,27 132,55 204,85 z m 108,-53 c -40,26 -75,49 -103,68 l -3,2 -4,-2 c -73,-30 -142,-59 -208,-87 l -11,-4 -64,-27 c -41,-17 -81,-34 -120,-50 l -15,-6 14,-8 c 29,-16 57,-31 85,-46 l 52,-28 c 25,-14 50,-27 75,-40 l 42,-23 c 2,-18 3,-36 5,-52 l -12,6 c -39,20 -80,41 -130,66 l -15,8 4,-16 4,-16 c 5,-21 10,-41 14,-56 l 1,-3 3,-2 45,-22 43,-21 28,-14 c 18,-9 35,-17 52,-26 l 12,-6 -1,13 -3,46 -6,90 -1,16 c -3,49 -6,104 -10,163 l 44,-30 51,-35 c -2,-39 -3,-75 -5,-108 l -1,-33 c -2,-33 -3,-64 -4,-92 l -1,-19 -2,-38 -2,-49 -1,-27 v -11 l 10,3 c 1,0 2,1 3,1 v 0 l 35,8 c 13,3 25,6 35,8 l 5,1 1,5 v 1 0 l 5,35 v 0 l 6,37 c 7,46 7,49 9,55 l 4,29 c 29,8 54,15 77,21 23,6 47,13 71,19 l -9,-26 c -3,-9 -7,-20 -11,-33 l -60,-15 -62,-15 -5,-1 -1,-5 c -3,-17 -6,-33 -9,-48 l -3,-14 -2,-11 11,3 c 16,4 32,7 49,11 14,3 29,7 44,10 l 100,23 4,1 2,4 c 9,22 19,45 30,69 l 13,30 56,129 1,1 v 1 l 3,6 -5,4 c -26,17 -63,42 -101,67 -20,14 -41,27 -63,42 -25,17 -56,37 -96,64 z"
   class="fil12"
   inkscape:connector-curvature="0"
   style="fill:#a8cf45;fill-opacity:0.50196078;fill-rule:nonzero" />
  </g><path
     id="path132"
     d="m 3939,7818 -639,984 618,849 114,-23 -129,523 -9,139 25,121 1,4 -1,4 -128,731 764,-7 -23,-551 167,-53 35,693 1040,-9 -319,-796 -1,-3 v -3 l -32,-283 -215,-539 229,-7 147,-891 -386,-1015 z m -72,-111 1407,-167 431,1162 -207,978 -173,17 192,438 10,287 384,882 -1234,10 -30,-685 -45,40 12,536 -937,5 161,-748 -33,-136 10,-181 113,-399 -78,-7 -709,-968 727,-1065 z"
     class="fil1"
     inkscape:connector-curvature="0"
     style="fill:#57884e;fill-rule:nonzero" /></g>
  
  
  
  
  
  
  
  
  
  
  
  
  
  <g
   id="g3180"
   transform="matrix(0.55711156,0,0,0.55711156,9464.8383,6956.502)"><path
     class="fil13"
     d="m 758.32997,353.32997 c 51,-26 113,-7 140,44 16,31 15,65 1,94 169.00003,169 349.00003,348 514.00003,513.00003 2,14 -9,24 -7,37 -181,-164.00003 -367,-339.00003 -549.00003,-506.00003 l -2,1 c -51,26 -113,7 -140,-44 -26,-51 -7,-113 44,-140 z m 15,27 c 35,-18 78,-5 96,30 18,35 5,78 -30,96 -35,18 -78,5 -96,-30 -18,-35 -5,-78 30,-96 z"
     id="path148"
     inkscape:connector-curvature="0"
     style="fill:#201e1e" /><path
     style="fill:#96ca53"
     inkscape:connector-curvature="0"
     id="path150"
     d="m 2767.33,3878.33 c -33,-402 -66,-804 -98,-1205 26,-129 529,-755 160,-715 -181,88 -340,254 -348,44 -5,5 -9,10 -14,16 -283,314 -565,629 -848,943 -11,12 -22,25 -33,37 -56,136 -178,357 -125,502 50,74 141,-9 260,-199 24,-61 49,-123 73,-184 -49,123 -98,246 -146,369 -39,133 -68,232 -108,365 -15,161 239,102 317,15 107,-85 214,-170 321,-255 57,158 84,229 144,302 179,93 285,86 446,-33 z"
     class="fil7" /><path
     style="fill:#57884e"
     inkscape:connector-curvature="0"
     id="path152"
     d="m 2220.33,3055.33 c 56,-31 108,-61 157,-88 46,-26 89,-50 129,-73 0,-1 0,-1 -1,-2 -13,-36 -25,-70 -35,-100 -10,-28 -19,-53 -27,-77 -25,-8 -50,-15 -74,-23 -23,-7 -46,-14 -68,-21 2,15 4,31 5,48 30,10 61,20 93,30 5,18 10,38 15,58 -43,-15 -84,-29 -123,-43 -2,-24 -4,-47 -6,-68 -2,-19 -3,-37 -4,-54 0,0 0,0 0,-1 -18,-5 -35,-11 -52,-16 -1,0 -2,-1 -3,-1 0,7 0,13 -1,20 -1,20 -1,42 -2,65 -1,26 -1,53 -2,84 -1,33 -2,69 -3,109 -28,17 -58,34 -88,52 7,-55 14,-103 20,-146 5,-38 10,-71 14,-102 -20,8 -41,17 -63,26 -22,9 -45,18 -68,28 -5,17 -11,34 -17,53 42,-18 82,-35 120,-51 -3,17 -6,34 -9,53 -30,14 -61,28 -94,42 -34,15 -70,31 -107,48 42,21 87,44 134,68 50,25 103,52 159,80 z"
     class="fil0" /><path
     style="fill:#6b9f50"
     inkscape:connector-curvature="0"
     id="path154"
     d="m 2767.33,3878.33 c -33,-402 -66,-804 -98,-1205 110,-231 389,-608 263,-699 -43,244 -229,476 -343,566 l 30,374 c 31,341 62,681 62,1016 33,-17 55,-30 86,-52 z"
     class="fil9" /><path
     style="fill:#6b9f50"
     inkscape:connector-curvature="0"
     id="path156"
     d="m 1856.33,3865.33 321,-255 -20,-94 c -121,116 -242,229 -363,396 16,-9 31,-19 62,-46 z"
     class="fil9" /><path
     style="fill:#6b9f50"
     inkscape:connector-curvature="0"
     id="path158"
     d="m 1916.33,2810.33 c -112,238 -223,476 -379,707 58,-34 122,-118 182,-216 l -73,184 -108,364 c -4,20 2,50 7,54 72,-31 330,-972 370,-1094 z"
     class="fil9" /><polygon
     style="fill:#a8cf45"
     transform="translate(-693.67003,-693.67003)"
     id="polygon160"
     points="1079,2734 2236,3788 3357,2634 2193,1544 "
     class="fil4" /><path
     style="fill:#88b74c"
     inkscape:connector-curvature="0"
     id="path162"
     d="m 2661.33,1696.33 -750,-695 -413,-151.00003 1165,1090.00003 c 0,-19 0,-151 -2,-244 z"
     class="fil6" /><ellipse
     style="fill:#57884e"
     cy="0"
     cx="0"
     id="ellipse164"
     ry="178"
     rx="267"
     transform="matrix(-1.0036,-1.13303,1.1819,-0.691993,1148.55,2155.52)"
     class="fil0" /><ellipse
     style="fill:#6b9f50"
     cy="0"
     cx="0"
     id="ellipse166"
     ry="178"
     rx="267"
     transform="matrix(-0.759086,-0.856984,0.89395,-0.523401,1178.18,2175.05)"
     class="fil9" /><ellipse
     style="fill:#57884e"
     cy="0"
     cx="0"
     id="ellipse168"
     ry="178"
     rx="267"
     transform="matrix(-0.742555,-0.817516,0.856014,-0.515654,1750.94,1583.13)"
     class="fil0" /><ellipse
     style="fill:#6b9f50"
     cy="0"
     cx="0"
     id="ellipse170"
     ry="178"
     rx="267"
     transform="matrix(-0.539945,-0.594453,0.622446,-0.374955,1778.89,1609.76)"
     class="fil9" /><polygon
     style="fill:#6b9f50"
     transform="translate(-693.67003,-693.67003)"
     id="polygon172"
     points="2967,3144 3206,2790 2618,3413 "
     class="fil9" /><path
     style="fill:#57884e"
     inkscape:connector-curvature="0"
     id="path174"
     d="m 1964.33,2092.33 c 69,14 167,140 162,346 4,-36 -31,-89 -81,-156 16,129 -61,249 -166,242 -105,-7 -153,-92 -129,-214 24,-122 125,-235 215,-218 z"
     class="fil0" /></g>
  
  
  
  
  
  
  
  
  
  
  
  
  
  <g
   id="g3137"
   transform="matrix(0.55711156,0,0,0.55711156,6743.4503,2537.9588)"><path
     class="fil13"
     d="m 6159.6436,2216.0856 c 45,19 66,70 48,115 -11,27 -34,46 -61,52 -18,202 -36,417 -54,614 -8,9 -20,7 -28,16 9,-207 21,-424 30,-634 l -2,-1 c -45,-19 -66,-70 -48,-115 19,-45 70,-66 115,-48 z m -9,25 c 31,13 45,48 33,79 -13,31 -48,45 -79,33 -31,-13 -45,-48 -33,-79 13,-31 48,-45 79,-33 z"
     id="path190"
     inkscape:connector-curvature="0"
     style="fill:#201e1e" /><path
     style="fill:#96ca53"
     inkscape:connector-curvature="0"
     id="path192"
     d="m 7696.6436,3987.0856 c -6,-209 -134,-127 -228,-68 -53,34 -267,236 -336,229 -39,-11 -68,-31 -171,-45 -39,-34 -111,-52 -191,-44 -84,8 -153,43 -182,87 -29,7 -55,15 -76,23 v 0 c -153,56 -341,172 -443,248 -69,52 -418,345 -122,346 99,0 246,-19 350,-49 v -2 c -9,101 -8,200 3,282 29,167 150,326 447,404 335,88 -48,-275 183,-423 88,-56 374,-131 494,-131 220,0 460,172 460,-61 0,-278 -175,-402 -492,-330 l 9,-2 c 61,-84 288,-251 295,-463 z m -319,468 c 4,-1 9,-2 13,-3 -4,1 -8,2 -13,3 z"
     class="fil7" /><path
     style="fill:#6b9f50"
     inkscape:connector-curvature="0"
     id="path194"
     d="m 7047.6436,4769.0856 c -332,78 -300,333 -168,628 64,-62 -128,-307 51,-422 88,-56 374,-131 494,-131 140,0 287,69 376,61 -135,-158 -563,-165 -753,-135 z"
     class="fil9" /><path
     style="fill:#57884e"
     inkscape:connector-curvature="0"
     id="path196"
     d="m 6736.6436,4562.0856 c 26,-18 51,-36 75,-53 24,-17 46,-33 68,-48 40,-28 77,-55 112,-79 0,-1 0,-1 -1,-2 -13,-33 -25,-63 -36,-89 -10,-24 -18,-46 -26,-65 -22,-5 -43,-10 -63,-15 -20,-5 -39,-9 -58,-14 2,13 3,26 5,40 26,7 52,13 79,20 5,16 10,33 15,51 -37,-11 -73,-21 -107,-31 -2,-21 -4,-41 -5,-59 -1,-16 -3,-32 -4,-46 0,0 0,0 0,-1 -15,-4 -29,-7 -43,-10 -1,0 -2,0 -2,-1 0,5 0,11 -1,17 -1,17 -1,35 -2,55 -1,22 -2,47 -2,74 -1,15 -1,31 -2,48 -1,17 -1,35 -2,54 -25,18 -52,37 -81,57 4,-27 8,-53 12,-76 3,-23 7,-44 10,-64 5,-34 10,-65 14,-91 -17,8 -36,17 -54,26 -19,9 -39,19 -60,29 -6,15 -12,32 -18,49 38,-19 74,-37 107,-54 -3,15 -6,31 -9,48 -27,14 -55,30 -85,46 -31,17 -64,35 -99,53 37,18 76,37 118,58 22,11 46,22 70,34 24,12 49,24 76,37 z"
     class="fil0" /><path
     style="fill:#6b9f50"
     inkscape:connector-curvature="0"
     id="path198"
     d="m 7696.6436,3987.0856 c -2,-64 -15,-101 -36,-119 -30,232 -206,440 -391,571 -100,-24 -117,-72 -146,-213 -2,117 10,273 146,275 201,-2 411,-19 562,65 -78,-131 -258,-153 -431,-115 61,-84 288,-251 295,-463 z"
     class="fil9" /><path
     style="fill:#6b9f50"
     inkscape:connector-curvature="0"
     id="path200"
     d="m 6549.6436,5321.0856 c -195,-181 -244,-702 -136,-1049 -5,9 -9,17 -14,26 -60,116 -95,220 -115,358 -78,40 -295,91 -440,81 17,16 49,26 103,26 99,0 246,-19 350,-49 -9,101 -8,199 3,281 9,52 37,207 248,327 z"
     class="fil9" /><path
     style="fill:#a8cf45"
     inkscape:connector-curvature="0"
     id="path202"
     d="m 5811.6436,4147.0856 c 28,-403 56,-806 84,-1209 379,-166 1192,-228 1540,-66 66,329 133,658 199,987 -654,42 -1118,0 -1823,288 z"
     class="fil4" /><path
     style="fill:#72a14e"
     inkscape:connector-curvature="0"
     id="path204"
     d="m 7570.6436,3863.0856 c -593,28 -1018,-15 -1759,283 110,64 227,174 330,219 90,-57 249,-149 346,-187 160,-223 428,-200 599,-46 17,6 31,12 46,16 69,7 283,-195 336,-229 32,-20 68,-43 102,-56 z"
     class="fil5" /><ellipse
     style="fill:#57884e"
     cy="0"
     cx="0"
     id="ellipse206"
     ry="178"
     rx="267"
     transform="matrix(0.168397,-1.21148,1.04583,0.362115,6271.7036,3281.2056)"
     class="fil0" /><ellipse
     style="fill:#6b9f50"
     cy="0"
     cx="0"
     id="ellipse208"
     ry="178"
     rx="267"
     transform="matrix(0.12737,-0.916322,0.791033,0.273892,6314.1636,3317.3556)"
     class="fil9" /><ellipse
     style="fill:#57884e"
     cy="0"
     cx="0"
     id="ellipse210"
     ry="178"
     rx="267"
     transform="matrix(0.133781,-0.962448,0.830853,0.287679,7135.6136,3285.6056)"
     class="fil0" /><ellipse
     style="fill:#6b9f50"
     cy="0"
     cx="0"
     id="ellipse212"
     ry="178"
     rx="267"
     transform="matrix(0.0972783,-0.699839,0.60415,0.209185,7152.2736,3351.2156)"
     class="fil9" /><path
     style="fill:#57884e"
     inkscape:connector-curvature="0"
     id="path214"
     d="m 7087.6436,4132.0856 c -125,-167 -459,-197 -599,46 8,-3 16,-6 25,-9 v 0 c 21,-8 47,-16 76,-23 29,-43 99,-78 182,-87 80,-8 153,11 191,44 62,9 98,20 124,29 z"
     class="fil0" /><path
     style="fill:#57884e"
     inkscape:connector-curvature="0"
     id="path216"
     d="m 7208.6436,3651.0856 c -273,34 180,59 -1109,212 401,-22 891,-65 1154,-149 98,-31 95,-80 -45,-63 z"
     class="fil0" /></g>
  
  
  
  
  
  
  
  
  
  
  
  
  
  
  
  
  <g
   id="g973"
   inkscape:export-xdpi="127.95676"
   inkscape:export-ydpi="127.95676"><path
     sodipodi:nodetypes="ccccccccccccc"
     inkscape:connector-curvature="0"
     id="path936"
     d="m 1929.2573,6620.6348 765.2212,2253.333 1135.1738,137.2189 c -560.1056,541.9307 -352.6223,946.3295 212.0655,711.0429 -415.4587,1001.4934 451.1633,1534.3104 941.82,966.7694 349.9887,-413.208 363.3594,-850.8496 1091.5133,-1041.616 700.1739,-182.061 1095.1096,-317.2641 935.5829,-948.0573 -153.1563,-371.9818 -1107.0669,40.0476 -1297.3416,-112.2699 L 5563.5992,8374.9903 6511.6564,7813.6406 5838.7935,5667.4105 3729.8568,5006.8922 Z"
     style="fill:#57884e;stroke:none;stroke-width:11.11148739px;stroke-linecap:butt;stroke-linejoin:miter;stroke-opacity:1;fill-opacity:1" /><path
     style="fill:#a8cf45;stroke-width:1.83267295"
     inkscape:connector-curvature="0"
     id="path218"
     d="m 5723.9651,5819.9252 -1946.2987,-584.6226 670.7583,2190.0442 h 1.8327 c 623.1088,108.1277 1246.2176,219.9208 1871.1591,322.5504 l -595.6187,-1927.972 z"
     class="fil4" /><path
     class="fil13"
     d="m 1775.8732,4469.2724 c 167.2572,-12.6709 314.241,114.0391 326.9119,281.2963 7.6027,101.3682 -35.4788,195.1336 -106.4364,255.9544 258.4885,653.8239 537.2506,1343.1266 790.6707,1984.2796 -10.1367,40.5471 -53.2182,53.2182 -63.355,91.2312 C 2427.1629,6428.21 2128.1272,5738.9072 1831.6256,5077.4808 h -7.6026 c -167.2572,12.6709 -314.2409,-114.0391 -326.9119,-281.2963 -12.6711,-167.2574 114.0391,-314.241 281.2963,-326.9121 z m 10.1368,88.6971 c 114.0391,-7.6026 215.4071,78.5603 223.0097,192.5992 7.6027,114.0391 -78.5602,215.4071 -192.5993,223.0098 -114.039,7.6026 -215.4071,-78.5602 -223.0096,-192.5993 -7.6028,-114.0391 78.5601,-215.4071 192.5992,-223.0097 z"
     id="path234"
     inkscape:connector-curvature="0"
     style="fill:#57884e;stroke-width:2.53420115;fill-opacity:1" /><path
     style="fill:#72a14e;stroke-width:1.83267295"
     inkscape:connector-curvature="0"
     id="path236"
     d="m 6319.5838,7746.0646 -799.0454,-137.4505 c -27.4901,395.8574 -265.7376,329.8811 -465.4989,580.9573 12.8287,9.1634 113.6257,60.4782 139.2831,76.9723 7.3307,3.6653 12.8287,9.1634 20.1594,12.8287 0,0 0,0 0,0 47.6495,31.1555 95.299,64.1436 141.1158,102.6297 l 962.1534,-637.7702 z"
     class="fil5" /><path
     style="fill:#72a14e;stroke-width:1.83267295"
     inkscape:connector-curvature="0"
     id="path238"
     d="m 4448.4247,7425.3468 -1647.5731,1268.2097 1193.0702,183.2673 c -194.2633,-263.9049 -141.1158,-381.196 108.1277,-707.4118 276.7336,-364.7019 597.4514,-461.8336 978.6474,-635.9375 l -632.2722,-106.295 h -1.8327 z"
     class="fil5" /><path
     style="fill:#96ca53;stroke-width:1.83267295"
     inkscape:connector-curvature="0"
     id="path240"
     d="m 5603.0087,8737.5407 c -122.7891,-315.2198 -309.7217,-399.5227 -485.6583,-522.3118 58.6455,-73.307 318.8851,-258.4069 364.7019,-311.5545 109.9604,-124.6217 137.4505,-438.0088 45.8168,-511.3157 -383.0286,-133.7851 -1416.6562,588.288 -1546.776,758.7266 -284.0643,373.8653 -161.2752,491.1564 97.1317,839.3642 v 0 c -95.299,100.7971 -113.6258,126.4545 -185.1,227.2515 -42.1515,58.6455 -111.7931,137.4505 -135.6178,181.4346 -115.4584,203.4267 86.1356,238.2475 227.2514,227.2515 75.1396,-5.498 194.2634,-89.801 254.7416,-146.6139 -3.6654,392.1921 -267.5703,771.5558 -80.6376,1068.4488 218.0881,346.375 692.7504,295.06 982.3127,-368.368 417.8495,-954.8223 1850.9997,-368.367 1704.3859,-1389.1658 -40.3188,-278.5663 -1009.8028,23.8247 -1242.5523,-53.1475 z"
     class="fil7" /><path
     style="fill:#57884e;stroke-width:1.83267295;fill-opacity:1"
     inkscape:connector-curvature="0"
     id="path242"
     d="m 5546.1958,8612.9189 c -40.3188,-73.3069 -86.1356,-130.1198 -133.7851,-177.7693 l -64.1435,-5.498 c -20.1594,-20.1594 -38.4862,-38.4861 -54.9802,-56.8129 -14.6614,-16.494 -29.3228,-31.1554 -43.9842,-43.9841 0,0 0,0 0,0 -18.3267,-1.8327 -36.6534,-5.498 -54.9802,-7.3307 -1.8326,0 -1.8326,0 -3.6653,0 5.498,5.498 9.1633,10.996 14.6614,18.3267 14.6613,18.3268 31.1554,36.6535 49.4821,58.6456 20.1594,23.8247 42.1515,49.4821 65.9763,78.8049 12.8287,16.4941 27.4901,32.9881 42.1514,51.3148 14.6614,18.3268 31.1555,38.4862 49.4822,58.6456 -3.6653,32.9881 -9.1634,69.6416 -12.8287,113.6257 -23.8247,-36.6535 -47.6495,-69.6416 -67.8089,-100.797 -20.1594,-29.3228 -38.4861,-56.8129 -54.9802,-80.6376 -29.3228,-42.1515 -54.9802,-78.805 -76.9723,-109.9604 -12.8287,12.8287 -27.4901,29.3228 -43.9841,45.8168 -18.3267,18.3268 -38.4861,40.3188 -60.4782,64.1436 9.1633,25.6574 20.1594,53.1475 31.1554,82.4703 38.4862,-51.3149 69.6416,-91.6337 95.299,-124.6218 12.8287,20.1594 25.6574,40.3188 40.3188,62.3109 -16.494,31.1554 -38.4861,67.8089 -62.3109,111.793 -29.3227,53.1476 -64.1435,117.2911 -106.295,196.096 51.3149,-10.996 100.797,-21.992 148.4465,-31.1554 42.1515,-9.1634 82.4703,-16.4941 119.1238,-23.8247 36.6534,-7.3307 71.4742,-14.6614 104.4623,-20.1594 31.1555,-5.4981 60.4782,-12.8288 87.9683,-18.3268 -1.8326,-36.6534 -3.6653,-71.4742 -3.6653,-100.797 l -1.8327,-36.6535 z m -177.7692,-219.9208 c -14.6614,-12.8287 -31.1555,-25.6574 -47.6495,-38.4861 l -34.8208,-3.6653 c 10.996,12.8287 23.8247,23.8247 38.4861,38.4861 z"
     class="fil0" /><path
     style="fill:#6b9f50;stroke-width:1.83267295"
     inkscape:connector-curvature="0"
     id="path244"
     d="m 5736.7938,9465.1118 c -230.9168,51.3149 -416.0167,91.6337 -538.8058,324.3832 -131.9525,293.228 -311.5544,874.185 -720.2405,868.687 207.092,-674.4237 274.9009,-870.5197 93.4663,-1544.9434 -122.7891,-353.7059 -439.8415,-641.4355 -249.2435,-982.3127 249.2435,-372.0326 870.5197,-648.7662 1198.5681,-736.7345 -392.192,-115.4584 -1405.6602,593.786 -1533.9473,762.3919 -91.6336,333.5465 82.4703,626.7742 203.4267,799.0455 227.2515,492.989 201.5941,866.8543 -89.801,1422.1542 7.3307,60.478 27.4901,119.124 62.3109,175.937 25.6574,40.318 53.1475,73.307 84.303,102.629 240.0801,223.586 641.4355,115.459 898.0098,-470.997 417.8494,-954.8223 1850.9997,-368.3669 1704.3858,-1389.1658 0,-5.498 98.9644,503.9851 -1110.5998,672.591 z"
     class="fil9" /><path
     style="fill:#6b9f50;stroke-width:1.83267295"
     inkscape:connector-curvature="0"
     id="path246"
     d="m 5903.5671,8739.3733 c -97.1317,12.8287 -280.399,12.8287 -300.5584,0 16.4941,126.4545 5.498,164.9406 3.6653,252.9089 73.307,-207.092 241.9129,-230.9168 296.8931,-252.9089 z"
     class="fil9" /><path
     style="fill:#6b9f50;stroke-width:1.83267295"
     inkscape:connector-curvature="0"
     id="path248"
     d="m 5581.0166,7654.4309 c -21.992,161.2752 -569.9613,399.5227 -665.2603,766.0573 86.1357,-54.9802 203.4267,-203.4267 300.5584,-137.4504 -20.1594,-12.8288 -78.8049,-53.1476 -97.1317,-64.1436 58.6456,-73.3069 328.0485,-260.2396 372.0327,-315.2198 93.4663,-120.9564 86.1356,-218.088 89.8009,-247.4108 z"
     class="fil9" /><path
     style="fill:#6b9f50;stroke-width:1.83267295"
     inkscape:connector-curvature="0"
     id="path250"
     d="m 4234.002,9488.9366 -14.6614,-146.6138 -317.0524,287.7296 c 29.3227,1.8327 56.8128,1.8327 84.3029,0 71.4743,-5.498 185.1,-84.3029 247.4109,-141.1158 z"
     class="fil9" /><polygon
     style="fill:#88b74c"
     transform="matrix(1.832673,0,0,1.832673,1100.1311,-4408.2227)"
     id="polygon252"
     points="1460,5262 545,6030 928,7148 1827,6457 "
     class="fil6" /><path
     style="fill:#59874d;stroke-width:1.83267295"
     inkscape:connector-curvature="0"
     id="path254"
     d="m 4382.4485,7834.0329 c -322.5505,14.6614 -577.292,221.7534 -577.292,472.8296 0,47.6495 9.1634,91.6337 25.6574,133.7851 18.3267,-80.6376 65.9762,-172.2712 155.7772,-289.5623 45.8168,-58.6455 199.7614,-185.1 397.6901,-318.8851 z"
     class="fil10" /><ellipse
     style="fill:#57884e;stroke-width:1.83415294"
     cy="-2790.7385"
     cx="-7120.8408"
     id="ellipse256"
     ry="272.07788"
     rx="587.63696"
     transform="matrix(-0.26741822,-0.96358056,-0.97688173,0.21378044,0,0)"
     class="fil0" /><ellipse
     style="fill:#6b9f50;stroke-width:1.25988305"
     cy="-2712.9373"
     cx="-7136.0063"
     id="ellipse258"
     ry="186.89085"
     rx="403.64886"
     transform="matrix(-0.2674177,-0.9635807,-0.97688174,0.21378043,0,0)"
     class="fil9" /><ellipse
     style="fill:#57884e;stroke-width:1.07197356"
     cy="-3145.9436"
     cx="-7722.9346"
     id="ellipse260"
     ry="159.01642"
     rx="343.44522"
     transform="matrix(-0.32742044,-0.94487875,-0.96152333,0.2747233,0,0)"
     class="fil0" /><ellipse
     style="fill:#6b9f50;stroke-width:0.73634052"
     cy="-3100.4629"
     cx="-7731.8022"
     id="ellipse262"
     ry="109.22859"
     rx="235.91324"
     transform="matrix(-0.32741987,-0.94487895,-0.96152323,0.27472365,0,0)"
     class="fil9" /><polygon
     style="fill:#6b9f50"
     transform="matrix(1.832673,0,0,1.832673,1100.1311,-4408.2227)"
     id="polygon264"
     points="2654,6322 2017,6297 2537,6228 "
     class="fil9" /></g>
  
  
  
  
  
  
  
  
  
  
  
  
  
  
  
  
  
  
  
  
  <g
   id="g3153"
   transform="matrix(0.55711156,0,0,0.55711156,8052.0349,5517.3891)"><path
     class="fil13"
     d="m 3302.0164,462.65176 c -46,39 -52,108 -13,154 24,28 58,41 92,38 99,233 202,480.00004 299,708.00004 13,7 27,0 40,8 -90,-243 -187,-495.00004 -278,-740.00004 l 2,-1 c 46,-39 52,-108 13,-154 -39,-46 -108,-52 -154,-13 z m 20,26 c -32,27 -36,74 -9,106 27,32 74,36 106,9 32,-27 36,-74 9,-106 -27,-32 -74,-36 -106,-9 z"
     id="path280"
     inkscape:connector-curvature="0"
     style="fill:#201e1e" /><polygon
     style="fill:#a8cf45"
     transform="translate(-1535.9836,-619.34824)"
     id="polygon282"
     points="5551,1408 6008,2700 6924,2564 7189,2525 6831,1337 "
     class="fil4" /><polygon
     style="fill:#88b74c"
     transform="translate(-1535.9836,-619.34824)"
     id="polygon284"
     points="6008,2700 5551,1408 5048,2086 5433,3129 "
     class="fil6" /><g
     transform="translate(-1535.9836,-619.34824)"
     id="g286">
   <ellipse
   style="fill:#57884e"
   cy="0"
   cx="0"
   id="ellipse288"
   ry="178"
   rx="267"
   transform="matrix(-0.481464,-1.30718,-0.92493,0.283718,6050.16,1892.08)"
   class="fil0" />
   <ellipse
   style="fill:#6b9f50"
   cy="0"
   cx="0"
   id="ellipse290"
   ry="178"
   rx="267"
   transform="matrix(-0.330719,-0.897905,-0.635336,0.194886,6006.4,1915.53)"
   class="fil9" />
   <ellipse
   style="fill:#57884e"
   cy="0"
   cx="0"
   id="ellipse292"
   ry="178"
   rx="267"
   transform="matrix(-0.251716,-0.994273,-0.699131,0.136405,6716.69,1843.17)"
   class="fil0" />
   <ellipse
   style="fill:#6b9f50"
   cy="0"
   cx="0"
   id="ellipse294"
   ry="178"
   rx="267"
   transform="matrix(-0.172904,-0.682968,-0.480234,0.0936968,6682.84,1856.97)"
   class="fil9" />
  </g><polygon
     style="fill:#57884e"
     transform="translate(-1535.9836,-619.34824)"
     id="polygon296"
     points="6166,2684 6191,2680 6178,2589 6885,2487 6897,2563 6924,2558 6902,2426 6136,2480 "
     class="fil0" /><polygon
     style="fill:#72a14e"
     transform="translate(-1535.9836,-619.34824)"
     id="polygon298"
     points="6557,2929 7189,2525 6924,2564 6190,2673 6191,2680 6166,2684 6165,2676 6008,2700 5433,3129 "
     class="fil5" /><path
     style="fill:#96ca53"
     inkscape:connector-curvature="0"
     id="path300"
     d="m 4860.0164,2133.6518 c -279,-13 -568,123 -617,388 -59,28 -130,57 -168,85 -147,103 -133,293 -7,365 180,60 274,31 461,39 63,53 132,28 213,23 26,-1 52,-3 78,-4 68,-14 135,-28 203,-42 20,8 85,14 96,-4 v 0 c 102,-116 147,-64 295,-115 110,-67 117,-205 62,-290 -96,-117 -230,-64 -298,-135 -55,-232 -130,-278 -318,-310 z"
     class="fil7" /><path
     style="fill:#6b9f50"
     inkscape:connector-curvature="0"
     id="path302"
     d="m 4972.0164,2860.6518 c -13,-109 46,-230 23,-414 68,277 -28,323 3,463 27,33 74,62 132,24 41,-137 90,-351 22,-580 77,253 61,331 22,540 v 0 0 c -3,6 14,25 11,31 -7,18 -12,7 -47,42 l -25,22 c -26,7 -136,41 -142,-130 0,1 0,1 0,2 z"
     class="fil9" /><polygon
     style="fill:#6b9f50"
     transform="translate(-1535.9836,-619.34824)"
     id="polygon304"
     points="6507,2896 6480,3184 6548,3193 "
     class="fil9" /><path
     style="fill:#6b9f50;fill-rule:nonzero"
     inkscape:connector-curvature="0"
     id="path306"
     d="m 4801.0164,2581.6518 v 0 c 123,79 155,288 41,443 89,-156 42,-377 -115,-454 -51,-4 -171,54 -171,52 -1,-2 -13,-51 -14,-53 54,-7 85,-8 139,-15 47,-4 87,7 120,28 v 0 z"
     class="fil11" /><path
     style="fill:#6b9f50;fill-rule:nonzero"
     inkscape:connector-curvature="0"
     id="path308"
     d="m 4822.0164,2600.6518 c 7,-4 164,-9 179,2 1,-9 12,-26 -2,-36 -54,-7 -82,-5 -136,-12 -35,-3 -67,2 -94,14 l 26,15 z"
     class="fil11" /><path
     style="fill:#57884e"
     inkscape:connector-curvature="0"
     id="path310"
     d="m 4801.0164,2515.6518 c 14,-12 27,-23 39,-34 12,-11 24,-21 35,-31 10,-9 20,-18 29,-26 9,-8 18,-16 26,-23 0,0 0,-1 -1,-1 -11,-19 -20,-36 -29,-52 -8,-15 -16,-29 -24,-42 -15,-4 -29,-7 -44,-11 -14,-4 -29,-7 -43,-11 3,9 7,19 11,29 19,5 38,9 57,14 5,10 10,21 16,33 -25,-6 -50,-12 -75,-18 -5,-15 -10,-28 -14,-41 -4,-12 -8,-23 -12,-34 0,0 0,0 0,0 -12,-3 -24,-6 -36,-9 -1,0 -1,0 -2,-1 1,4 2,9 3,13 3,13 7,27 10,42 4,16 8,33 13,52 2,10 5,20 8,31 3,11 5,22 9,34 -15,12 -30,25 -46,39 -2,-17 -5,-33 -7,-48 -2,-15 -4,-29 -6,-43 -4,-24 -7,-46 -10,-66 -12,6 -25,13 -39,20 -14,7 -29,15 -44,23 -1,12 -1,24 -2,37 28,-15 53,-29 76,-42 1,11 3,22 4,34 -18,11 -37,23 -58,35 -22,13 -45,28 -71,43 19,4 38,9 57,13 19,4 37,9 56,13 19,5 38,9 58,14 19,4 37,9 56,13 z"
     class="fil0" /><path
     style="fill:#59874d"
     inkscape:connector-curvature="0"
     id="path312"
     d="m 4935.0164,2152.6518 c -70,-1 -244,-40 -385,30 -6,4 -150,86 -158,91 327,-296 626,-120 544,-121 z"
     class="fil10" /><path
     style="fill:#6b9f50"
     inkscape:connector-curvature="0"
     id="path314"
     d="m 3971.0164,2834.6518 c 39,241 388,168 557,175 0,0 0,0 1,0 0,0 1,0 1,1 18,15 36,23 55,28 l -148,-135 c -241,15 -394,105 -465,-69 z m 772,198 76,-4 c 8,-2 15,-3 23,-5 20,-35 63,-147 69,-186 -32,64 -218,35 -218,35 17,53 68,102 50,160 z"
     class="fil9" /><path
     style="fill:#6b9f50"
     inkscape:connector-curvature="0"
     id="path316"
     d="m 4598.0164,3041.6518 c -81,0 -262,-213 -306,-523 56,257 139,367 218,443 109,78 224,61 228,32 l 4,38 c -92,12 -99,10 -145,9 v 0 0 z"
     class="fil9" /><path
     style="fill:#6b9f50"
     inkscape:connector-curvature="0"
     id="path318"
     d="m 4741.0164,3033.6518 c 51,-163 -130,-126 -203,-482 50,351 201,335 203,482 z"
     class="fil9" /><polygon
     style="fill:#6b9f50"
     transform="translate(-1535.9836,-619.34824)"
     id="polygon320"
     points="6078,3193 6122,3183 6047,3046 "
     class="fil9" /><path
     style="fill:#6b9f50"
     inkscape:connector-curvature="0"
     id="path322"
     d="m 4306.0164,2594.6518 -150,26 161,18 c -2,-8 -9,-36 -11,-44 z"
     class="fil9" /><path
     style="fill:#6b9f50"
     inkscape:connector-curvature="0"
     id="path324"
     d="m 5197.0164,2565.6518 151,-12 -147,39 c 1,-8 -4,-19 -3,-27 z"
     class="fil9" /><path
     style="fill:#6b9f50"
     inkscape:connector-curvature="0"
     id="path326"
     d="m 4970.0164,2832.6518 c -13,-3 -11,-5 -28,-12 -12,33 -36,171 -100,204 60,-12 120,-25 180,-37 5,2 12,4 21,5 -25,-6 -53,-118 -74,-160 z"
     class="fil9" /><path
     style="fill:#6b9f50"
     inkscape:connector-curvature="0"
     id="path328"
     d="m 5491.0164,2781.6518 c -50,67 -220,76 -309,70 -3,6 -14,55 -17,61 -6,14 -13,32 -34,57 98,-41 141,-52 282,-101 37,-23 62,-53 78,-87 z"
     class="fil9" /></g>
 </g>
</svg>