<?xml version="1.0" encoding="UTF-8" standalone="no"?>
<!-- Created with Inkscape (http://www.inkscape.org/) -->

<svg
   xmlns:dc="http://purl.org/dc/elements/1.1/"
   xmlns:cc="http://creativecommons.org/ns#"
   xmlns:rdf="http://www.w3.org/1999/02/22-rdf-syntax-ns#"
   xmlns:svg="http://www.w3.org/2000/svg"
   xmlns="http://www.w3.org/2000/svg"
   xmlns:sodipodi="http://sodipodi.sourceforge.net/DTD/sodipodi-0.dtd"
   xmlns:inkscape="http://www.inkscape.org/namespaces/inkscape"
   width="297mm"
   height="210mm"
   viewBox="0 0 297 210"
   version="1.1"
   id="svg8"
   inkscape:version="0.92.5 (2060ec1f9f, 2020-04-08)"
   sodipodi:docname="design-login-page-standart-gb.svg">
  <defs
     id="defs2">
    <radialGradient
       gradientTransform="translate(2.0581584,-3.0872377)"
       gradientUnits="userSpaceOnUse"
       fy="82.0701"
       fx="203.3311"
       r="92.000554"
       cy="82.0701"
       cx="203.3311"
       id="grad1">
      <stop
         id="stop9"
         stop-opacity="1.0000"
         stop-color="#000000"
         offset="0%" />
      <stop
         id="stop11"
         stop-opacity="1.0000"
         stop-color="#f07e3d"
         offset="100%" />
    </radialGradient>
  </defs>
  <sodipodi:namedview
     id="base"
     pagecolor="#ffffff"
     bordercolor="#666666"
     borderopacity="1.0"
     inkscape:pageopacity="0.0"
     inkscape:pageshadow="2"
     inkscape:zoom="0.49497475"
     inkscape:cx="105.11277"
     inkscape:cy="723.4335"
     inkscape:document-units="mm"
     inkscape:current-layer="layer1"
     showgrid="false"
     inkscape:window-width="1920"
     inkscape:window-height="1015"
     inkscape:window-x="0"
     inkscape:window-y="28"
     inkscape:window-maximized="1" />
  <metadata
     id="metadata5">
    <rdf:RDF>
      <cc:Work
         rdf:about="">
        <dc:format>image/svg+xml</dc:format>
        <dc:type
           rdf:resource="http://purl.org/dc/dcmitype/StillImage" />
        <dc:title></dc:title>
      </cc:Work>
    </rdf:RDF>
  </metadata>
  <g
     inkscape:label="Layer 1"
     inkscape:groupmode="layer"
     id="layer1"
     transform="translate(0,-87)">
    <rect
       style="opacity:0.26199999;fill:#e6e6e6;fill-opacity:1;stroke:#b3b3b3;stroke-width:0.18160199;stroke-linecap:round;stroke-linejoin:round;stroke-miterlimit:4;stroke-dasharray:none;stroke-opacity:1;paint-order:markers fill stroke"
       id="rect815"
       width="267.24493"
       height="143.7664"
       x="13.643047"
       y="97.896507"
       ry="0" />
    <g
       transform="matrix(0.63749639,0,0,0.63749639,64.387323,-478.40743)"
       id="layer1-3"
       inkscape:label="Layer 1">
      <g
         inkscape:export-ydpi="127.74535"
         inkscape:export-xdpi="127.74535"
         id="g819">
        <path
           id="path4640"
           d="m 44.037692,1050.8084 36.355689,-20.4751 v -35.68605 l -22.78373,-13.21684 v 13.70303 l 13.998533,7.86376 -0.01776,12.732 -17.0828,-9.5741 v -35.09004 l -10.453046,-5.87489 v 47.02233 l 0.02352,19.3921 -10.125263,7.0559 v -47.22143 l -18.879472,11.95113 0.0048,12.0963 15.721353,-9.7068 v 10.468 l -22.9221099,14.084 z"
           style="fill:#008000;fill-opacity:1;fill-rule:evenodd;stroke:none;stroke-width:1.29384339"
           inkscape:connector-curvature="0"
           sodipodi:nodetypes="cccccccccccccccccccc"
           inkscape:export-xdpi="72"
           inkscape:export-ydpi="72"
           inkscape:transform-center-x="5.2331008"
           inkscape:transform-center-y="-515.22257" />
        <rect
           style="opacity:1;fill:none;fill-opacity:1;stroke:none;stroke-width:0.70866132;stroke-linecap:round;stroke-linejoin:round;stroke-miterlimit:4;stroke-dasharray:none;stroke-opacity:1;paint-order:markers fill stroke"
           id="rect815-6"
           width="88.77034"
           height="88.77034"
           x="0.093837559"
           y="963.87335" />
      </g>
    </g>
    <rect
       ry="0"
       y="97.863091"
       x="174.23862"
       height="143.83324"
       width="106.68279"
       id="rect831"
       style="opacity:1;fill:#008000;fill-opacity:1;stroke:#b3b3b3;stroke-width:0.11476619;stroke-linecap:round;stroke-linejoin:round;stroke-miterlimit:4;stroke-dasharray:none;stroke-opacity:1;paint-order:markers fill stroke" />
    <g
       transform="matrix(1.3192914,0,0,1.3192914,162.74521,-75.750869)"
       id="g1321"
       style="fill:#ffffff">
      <g
         id="g1299"
         style="fill:#ffffff">
        <path
           d="m 41.344077,159.21682 c 0.196255,0.01 0.282293,-0.28082 0.388362,-0.42669 -0.01664,-0.0447 -0.03294,-0.0897 -0.04931,-0.1343 -0.07101,0.11092 -0.180926,0.24191 -0.308272,0.23726 -0.142134,-0.005 -0.189865,-0.18543 -0.233844,-0.29081 -0.04343,-0.10412 -0.156232,-0.28304 -0.0036,-0.35112 0.120087,-0.0534 0.299635,0.014 0.4212,0.0712 -0.01208,-0.0314 -0.02394,-0.0632 -0.03644,-0.0946 -0.168955,-0.0625 -0.376756,-0.12744 -0.53332,-0.006 -0.169103,0.13092 -0.09181,0.38572 -0.02861,0.55123 0.06244,0.16311 0.176706,0.43342 0.383763,0.44376 m 0.25279,-0.79402 c -0.0083,0.003 -0.01811,0.003 -0.02849,-0.002 -0.0962,-0.0453 -0.202859,-0.0894 -0.310168,-0.0964 -0.07287,-0.004 -0.114715,-0.009 -0.10023,0.096 0.0065,0.0473 0.04319,0.1047 0.06162,0.14898 0.03066,0.0744 0.07532,0.26347 0.196763,0.2326 0.0949,-0.024 0.183517,-0.13802 0.239242,-0.21992 -0.01943,-0.0531 -0.03936,-0.10611 -0.05894,-0.15895 m 5.931894,-2.35384 c 0.01779,0.0399 0.03518,0.0798 0.05244,0.12023 0.155834,0.0489 0.325631,-0.0733 0.295474,-0.24613 -0.01023,-0.0585 -0.0903,-0.22449 -0.166168,-0.16181 -0.03211,0.0268 -0.05774,0.0953 -0.07946,0.13165 -0.02795,0.0467 -0.05585,0.0932 -0.0838,0.1399 -0.0052,0.008 -0.0115,0.0136 -0.01822,0.0164 m -0.03649,-0.0818 c 0.04583,-0.0787 0.08975,-0.15961 0.139543,-0.23581 0.02862,-0.0435 0.06498,-0.0834 0.122489,-0.0738 0.109928,0.0174 0.188132,0.15574 0.204869,0.25469 0.03364,0.20076 -0.161784,0.38846 -0.347051,0.32918 0.01918,0.0461 0.03813,0.0922 0.05691,0.13846 0.136868,0.0603 0.256011,0.12981 0.416419,0.056 0.213345,-0.0981 0.21997,-0.32391 0.132842,-0.51469 -0.06855,-0.14975 -0.214182,-0.33321 -0.381023,-0.37793 -0.182984,-0.0487 -0.317845,0.16916 -0.393292,0.31901 0.01638,0.0349 0.03233,0.0698 0.04825,0.10457 m -6.610531,2.81901 c -0.07457,-0.19481 -0.146129,-0.46572 0.0296,-0.62966 0.163119,-0.15255 0.389402,-0.11766 0.577059,-0.0341 -0.0046,-0.0115 -0.0093,-0.0231 -0.0138,-0.0345 -0.01529,-0.0375 0.02164,-0.0639 0.05139,-0.0551 8.27e-4,-3.2e-4 0.0015,-5.6e-4 0.0022,-7.5e-4 0.832541,-0.12423 1.607105,-0.44114 2.375562,-0.77191 0.794832,-0.34219 1.580066,-0.70654 2.354532,-1.09288 0.208248,-0.10378 0.413557,-0.21396 0.622796,-0.31597 0.149815,-0.0731 0.306863,-0.13241 0.470225,-0.0872 0.01369,-0.013 0.03959,-0.0132 0.05065,0.01 0.0022,0.005 0.0048,0.01 0.0072,0.0151 0.06031,-0.16877 0.205095,-0.34981 0.382972,-0.34464 0.229461,0.007 0.434527,0.268 0.51611,0.45909 0.09343,0.21854 0.07117,0.46596 -0.150728,0.59269 -0.116687,0.0666 -0.295232,0.0791 -0.433232,0.023 0.06551,0.16816 0.128276,0.33728 0.189146,0.5072 0.133376,0.37147 0.3111,0.77357 0.309039,1.17471 -0.0035,0.71264 -0.554181,1.26521 -1.131006,1.60055 -0.367541,0.2137 -0.764079,0.37438 -1.15226,0.54547 -0.419691,0.1849 -0.838853,0.37102 -1.258991,0.55488 -0.343357,0.15001 -0.679134,0.24355 -1.053376,0.16266 -0.329173,-0.0712 -0.630863,-0.24532 -0.8747,-0.47546 -0.487961,-0.46093 -0.749918,-1.09132 -0.984037,-1.72187 -0.0394,0.0845 -0.09658,0.16421 -0.14701,0.23846 -0.06282,0.0924 -0.134234,0.17221 -0.253284,0.17624 -0.262723,0.009 -0.407431,-0.28925 -0.486205,-0.49579"
           style="fill:#ffffff;fill-opacity:1;fill-rule:nonzero;stroke:none;stroke-width:0.0347953"
           id="path1211"
           inkscape:connector-curvature="0" />
        <path
           sodipodi:nodetypes="ccccccccccccccccccccccc"
           d="m 41.381651,152.68802 c 0.003,0.006 0.0083,0.0113 0.01646,0.0148 7.01e-4,2.7e-4 0.0014,5.1e-4 0.002,7.8e-4 0.0018,9e-4 0.0035,0.002 0.0053,0.002 0.768083,0.31574 1.576058,0.55007 2.370488,0.78953 0.800269,0.24129 1.606025,0.46499 2.415945,0.6711 0.450942,0.11469 0.902895,0.22786 1.357339,0.32777 0.0073,0.001 0.01351,0.001 0.01903,-8e-5 0.03328,0.0141 0.06986,0.0162 0.113329,0.003 0.07659,-0.0244 0.124109,-0.0953 0.129752,-0.17408 0.01105,-0.15493 -0.12189,-0.25028 -0.258103,-0.24332 -5.06e-4,-0.004 -0.0012,-0.008 -0.0028,-0.0126 -0.302742,-0.84767 -0.925506,-1.5643 -1.714995,-1.99442 -0.126716,-0.0693 -0.257364,-0.1301 -0.390696,-0.18245 0.267171,-0.2172 0.133371,-0.69772 -0.232379,-0.69546 -0.159096,7.4e-4 -0.323408,0.0939 -0.377932,0.24861 -0.03296,0.0933 -0.01728,0.20354 0.04145,0.27662 -0.554386,-0.11667 -1.135313,-0.10227 -1.688998,0.0436 -0.485773,0.12808 -0.965241,0.34707 -1.342511,0.68379 -0.004,-0.005 -0.0092,-0.008 -0.01553,-0.0114 -0.125354,-0.0581 -0.300407,-0.11858 -0.419885,-0.0159 -0.07858,0.0675 -0.100447,0.17914 -0.0374,0.25694 0.0032,0.004 0.0065,0.008 0.01008,0.0116"
           style="fill:#ffffff;fill-opacity:1;fill-rule:nonzero;stroke:none;stroke-width:0.03891789"
           id="path1213"
           inkscape:connector-curvature="0" />
        <g
           transform="matrix(1.0110682,-0.42557988,0.42557988,1.0110682,-86.072941,-28.744899)"
           id="g1287"
           style="fill:#ffffff">
          <g
             id="g1217"
             transform="matrix(0.02082396,0.02603026,0.02603026,-0.02082396,43.538789,202.46818)"
             style="fill:#ffffff;fill-opacity:1">
            <path
               d="M 0,0 C 0.437,0.185 0.25,0.898 -0.231,0.814 -0.85,0.705 -1.575,1.174 -1.652,1.8 -1.735,2.438 -2.633,2.27 -2.613,1.661 -2.572,0.358 -1.183,-0.521 0,0"
               style="fill:#ffffff;fill-opacity:1;fill-rule:nonzero;stroke:none"
               id="path1215"
               inkscape:connector-curvature="0" />
          </g>
          <g
             id="g1221"
             transform="matrix(0.02082396,0.02603026,0.02603026,-0.02082396,43.691874,202.15101)"
             style="fill:#ffffff;fill-opacity:1">
            <path
               d="m 0,0 c -1.605,0.564 -3.244,0.964 -4.881,1.393 -0.592,0.151 -0.961,-0.722 -0.353,-0.908 1.66,-0.512 3.307,-1.043 5,-1.419 C 0.307,-1.051 0.512,-0.179 0,0"
               style="fill:#ffffff;fill-opacity:1;fill-rule:nonzero;stroke:none"
               id="path1219"
               inkscape:connector-curvature="0" />
          </g>
          <g
             id="g1225"
             transform="matrix(0.02082396,0.02603026,0.02603026,-0.02082396,43.274042,202.39817)"
             style="fill:#ffffff;fill-opacity:1">
            <path
               d="M 0,0 C 0.548,-0.099 0.645,0.76 0.1,0.854 -1.441,1.112 -2.983,1.37 -4.524,1.629 -5.032,1.717 -5.117,0.927 -4.615,0.836 -3.072,0.557 -1.534,0.275 0,0"
               style="fill:#ffffff;fill-opacity:1;fill-rule:nonzero;stroke:none"
               id="path1223"
               inkscape:connector-curvature="0" />
          </g>
          <g
             id="g1229"
             transform="matrix(0.02082396,0.02603026,0.02603026,-0.02082396,43.312224,201.98094)"
             style="fill:#ffffff;fill-opacity:1">
            <path
               d="M 0,0 C 0.746,-0.339 1.238,0.929 0.459,1.182 -0.707,1.556 -1.852,1.996 -3.005,2.404 -3.637,2.63 -3.999,1.696 -3.381,1.436 -2.255,0.959 -1.113,0.511 0,0"
               style="fill:#ffffff;fill-opacity:1;fill-rule:nonzero;stroke:none"
               id="path1227"
               inkscape:connector-curvature="0" />
          </g>
          <g
             id="g1233"
             transform="matrix(0.02082396,0.02603026,0.02603026,-0.02082396,43.418331,201.58525)"
             style="fill:#ffffff;fill-opacity:1">
            <path
               d="M 0,0 C -2.739,-0.149 -5.077,-0.227 -7.492,1.307 -8.043,1.654 -8.635,0.854 -8.088,0.484 -5.805,-1.073 -2.397,-2.086 0.252,-0.862 0.728,-0.638 0.493,0.025 0,0"
               style="fill:#ffffff;fill-opacity:1;fill-rule:nonzero;stroke:none"
               id="path1231"
               inkscape:connector-curvature="0" />
          </g>
          <g
             id="g1237"
             transform="matrix(0.02082396,0.02603026,0.02603026,-0.02082396,42.987573,201.99012)"
             style="fill:#ffffff;fill-opacity:1">
            <path
               d="M 0,0 C 0.406,-1.035 0.735,-2.183 1.392,-3.079 1.676,-3.466 2.357,-3.173 2.26,-2.697 2.049,-1.604 1.421,-0.581 0.928,0.409 0.642,0.993 -0.238,0.605 0,0"
               style="fill:#ffffff;fill-opacity:1;fill-rule:nonzero;stroke:none"
               id="path1235"
               inkscape:connector-curvature="0" />
          </g>
          <g
             id="g1241"
             transform="matrix(0.02082396,0.02603026,0.02603026,-0.02082396,43.042419,201.467)"
             style="fill:#ffffff;fill-opacity:1">
            <path
               d="m 0,0 c 1.303,-1.088 2.745,-2.49 4.327,-3.149 0.4,-0.165 0.786,0.36 0.499,0.688 C 3.702,-1.167 1.921,-0.233 0.477,0.658 0.031,0.93 -0.405,0.34 0,0"
               style="fill:#ffffff;fill-opacity:1;fill-rule:nonzero;stroke:none"
               id="path1239"
               inkscape:connector-curvature="0" />
          </g>
          <g
             id="g1245"
             transform="matrix(0.02082396,0.02603026,0.02603026,-0.02082396,42.62925,202.1139)"
             style="fill:#ffffff;fill-opacity:1">
            <path
               d="M 0,0 C 0.977,1.006 1.056,2.454 0.221,3.591 -0.114,4.047 -0.92,3.571 -0.639,3.063 -0.236,2.325 -0.255,1.386 -0.704,0.663 -0.967,0.227 -0.41,-0.422 0,0"
               style="fill:#ffffff;fill-opacity:1;fill-rule:nonzero;stroke:none"
               id="path1243"
               inkscape:connector-curvature="0" />
          </g>
          <g
             id="g1249"
             transform="matrix(0.02082396,0.02603026,0.02603026,-0.02082396,43.218283,201.01022)"
             style="fill:#ffffff;fill-opacity:1">
            <path
               d="M 0,0 C 0.625,0.048 0.74,1.044 0.135,1.224 -0.9,1.542 -2.044,1.514 -3.126,1.598 -4.314,1.7 -5.497,1.824 -6.688,1.818 -7.299,1.819 -7.399,1.015 -6.798,0.875 -5.635,0.621 -4.448,0.49 -3.269,0.328 -2.199,0.189 -1.081,-0.093 0,0"
               style="fill:#ffffff;fill-opacity:1;fill-rule:nonzero;stroke:none"
               id="path1247"
               inkscape:connector-curvature="0" />
          </g>
          <g
             id="g1253"
             transform="matrix(0.02082396,0.02603026,0.02603026,-0.02082396,42.653702,201.76697)"
             style="fill:#ffffff;fill-opacity:1">
            <path
               d="M 0,0 C -0.651,1.865 -1.509,3.475 -1.753,5.477 -1.834,6.13 -2.785,5.966 -2.752,5.327 -2.639,3.346 -2.202,1.018 -0.849,-0.523 -0.466,-0.958 0.184,-0.53 0,0"
               style="fill:#ffffff;fill-opacity:1;fill-rule:nonzero;stroke:none"
               id="path1251"
               inkscape:connector-curvature="0" />
          </g>
          <g
             id="g1257"
             transform="matrix(0.02082396,0.02603026,0.02603026,-0.02082396,43.000836,201.06166)"
             style="fill:#ffffff;fill-opacity:1">
            <path
               d="m 0,0 c -1.05,1.078 -2.289,1.939 -3.49,2.844 -0.589,0.45 -1.22,-0.453 -0.667,-0.919 1.1,-0.95 2.162,-1.959 3.399,-2.735 C -0.258,-1.122 0.474,-0.48 0,0"
               style="fill:#ffffff;fill-opacity:1;fill-rule:nonzero;stroke:none"
               id="path1255"
               inkscape:connector-curvature="0" />
          </g>
          <g
             id="g1261"
             transform="matrix(0.02082396,0.02603026,0.02603026,-0.02082396,42.781857,201.15676)"
             style="fill:#ffffff;fill-opacity:1">
            <path
               d="m 0,0 c 1.018,-1.213 2.054,-2.39 3.157,-3.523 0.404,-0.418 1.1,0.115 0.715,0.585 C 2.87,-1.711 1.817,-0.563 0.724,0.582 0.317,1.006 -0.388,0.461 0,0"
               style="fill:#ffffff;fill-opacity:1;fill-rule:nonzero;stroke:none"
               id="path1259"
               inkscape:connector-curvature="0" />
          </g>
          <g
             id="g1265"
             transform="matrix(0.02082396,0.02603026,0.02603026,-0.02082396,42.495166,201.4565)"
             style="fill:#ffffff;fill-opacity:1">
            <path
               d="M 0,0 C 0.605,1.9 -0.317,4.654 -1.305,6.299 -1.61,6.797 -2.393,6.495 -2.161,5.922 -1.784,4.952 -1.435,3.998 -1.293,2.967 -1.159,2.018 -1.35,1.067 -1.195,0.134 -1.095,-0.447 -0.193,-0.61 0,0"
               style="fill:#ffffff;fill-opacity:1;fill-rule:nonzero;stroke:none"
               id="path1263"
               inkscape:connector-curvature="0" />
          </g>
          <g
             id="g1269"
             transform="matrix(0.02082396,0.02603026,0.02603026,-0.02082396,43.077509,200.287)"
             style="fill:#ffffff;fill-opacity:1">
            <path
               d="m 0,0 c 0.006,0.003 0.008,-0.004 0.02,-0.013 0.002,-0.006 0.005,-0.012 0.017,-0.006 0.031,-0.022 0.076,-0.045 0.141,-0.08 0.42,-0.163 0.828,0.024 1.099,0.342 C 1.731,0.777 1.197,1.571 0.564,1.541 0.55,1.556 0.536,1.571 0.519,1.578 0.217,1.956 -0.294,1.795 -0.49,1.417 -0.691,1.037 -0.598,0.567 -0.323,0.248 -0.237,0.151 -0.125,0.058 0,0"
               style="fill:#ffffff;fill-opacity:1;fill-rule:nonzero;stroke:none"
               id="path1267"
               inkscape:connector-curvature="0" />
          </g>
          <g
             id="g1273"
             transform="matrix(0.02082396,0.02603026,0.02603026,-0.02082396,43.011579,200.30048)"
             style="fill:#ffffff;fill-opacity:1">
            <path
               d="M 0,0 C -0.045,-0.382 0.246,-0.751 0.625,-0.79 0.827,-0.814 1.027,-0.833 1.227,-0.851 1.369,-0.867 1.532,-0.866 1.676,-0.888 2.196,-1.213 2.957,-0.941 3.034,-0.261 3.113,0.413 2.335,0.937 1.753,0.616 1.437,0.59 1.101,0.627 0.787,0.631 0.403,0.632 0.046,0.411 0,0"
               style="fill:#ffffff;fill-opacity:1;fill-rule:nonzero;stroke:none"
               id="path1271"
               inkscape:connector-curvature="0" />
          </g>
          <g
             id="g1277"
             transform="matrix(0.02082396,0.02603026,0.02603026,-0.02082396,42.800694,200.71528)"
             style="fill:#ffffff;fill-opacity:1">
            <path
               d="M 0,0 C 0.248,-1.531 1.034,-3.798 2.606,-4.433 3.02,-4.599 3.55,-4.124 3.309,-3.69 2.977,-3.098 2.43,-2.679 2.032,-2.13 1.53,-1.442 1.186,-0.677 0.979,0.147 0.825,0.754 -0.106,0.642 0,0"
               style="fill:#ffffff;fill-opacity:1;fill-rule:nonzero;stroke:none"
               id="path1275"
               inkscape:connector-curvature="0" />
          </g>
          <g
             id="g1281"
             transform="matrix(0.02082396,0.02603026,0.02603026,-0.02082396,42.997453,200.24375)"
             style="fill:#ffffff;fill-opacity:1">
            <path
               d="m 0,0 c -0.136,0.018 -0.255,0.015 -0.388,-0.022 -0.038,-0.01 -0.062,-0.02 -0.08,-0.028 -0.014,0.001 -0.023,0.004 -0.043,0.002 -0.618,0.048 -1.05,-0.81 -0.459,-1.182 0.039,-0.025 0.065,-0.035 0.077,-0.03 0.026,-0.045 0.051,-0.084 0.075,-0.123 0.071,-0.096 0.155,-0.159 0.261,-0.205 0.194,-0.12 0.409,-0.188 0.639,-0.194 0.372,-0.006 0.732,0.16 0.875,0.528 0.131,0.349 0.011,0.765 -0.289,0.98 C 0.468,-0.128 0.246,-0.026 0,0"
               style="fill:#ffffff;fill-opacity:1;fill-rule:nonzero;stroke:none"
               id="path1279"
               inkscape:connector-curvature="0" />
          </g>
          <g
             id="g1285"
             transform="matrix(0.02082396,0.02603026,0.02603026,-0.02082396,43.122766,198.63949)"
             style="fill:#ffffff;fill-opacity:1">
            <path
               d="m 0,0 c 3.933,3.338 8.408,4.173 13.048,5.94 0.151,0.06 0.263,0.159 0.354,0.277 2.223,-2.613 4.447,-5.227 6.671,-7.84 -0.044,0.002 -0.087,0.004 -0.126,-0.006 -3.285,-0.666 -2.312,-5.18 0.013,-6.62 -0.312,-0.84 -0.406,-1.705 -0.286,-2.526 -1.659,0.526 -3.376,-0.123 -4.436,-1.471 -2.488,-3.17 -0.473,-6.471 2.318,-8.388 -0.649,-0.285 -1.209,-0.738 -1.518,-1.279 -0.533,-0.917 -0.488,-1.969 -0.078,-2.868 -6.705,4.999 -13.197,10.305 -20.045,15.099 -0.138,0.103 -0.278,0.197 -0.422,0.297 -0.132,0.091 -0.28,0.104 -0.413,0.067 C -5.113,-5.625 -2.807,-2.38 0,0 m 39.888,-36.671 c -3.854,-2.678 -8.87,1.212 -11.975,3.344 -0.397,0.273 -0.783,0.551 -1.18,0.823 0.04,0.039 0.089,0.074 0.12,0.131 2.822,4.716 7.006,7.695 12.533,7.851 2.343,-3.399 4.748,-9.199 0.502,-12.149 m -44.604,25.873 c -0.011,0.059 -0.017,0.121 -0.035,0.177 7.45,-7.512 16.075,-13.873 24.638,-20.028 5.094,-3.664 15.165,-13.273 21.849,-7.636 7.045,5.944 -0.089,15.029 -4.297,19.971 C 29.876,-9.433 22.313,-0.551 14.75,8.331 14.04,9.168 12.894,8.642 12.655,7.848 4.112,7.784 -9.964,-1.109 -6.04,-11.175 c 0.276,-0.724 1.502,-0.397 1.324,0.377"
               style="fill:#ffffff;fill-opacity:1;fill-rule:nonzero;stroke:none"
               id="path1283"
               inkscape:connector-curvature="0" />
          </g>
        </g>
        <g
           transform="translate(0.36487361,-42.914008)"
           id="g1297"
           style="fill:#ffffff">
          <g
             id="g1291"
             transform="matrix(0.02082396,0.02603026,0.02603026,-0.02082396,40.391755,197.93142)"
             style="fill:#ffffff;fill-opacity:1">
            <path
               d="m 0,0 c -4.555,1.941 -10.136,4.552 -13.137,8.67 -2.255,3.104 -1.206,6.896 2.963,7.299 2.949,0.284 5.937,-1.34 8.587,-2.423 C 9.014,9.212 19.755,5.239 30.638,1.668 42.955,-2.371 55.435,-5.876 68.034,-8.91 c 1.035,-0.255 1.485,0.788 1.195,1.591 7.295,4.62 14.756,6.076 23.325,4.759 3.566,-0.552 7.284,-1.285 10.634,-2.636 4.84,-1.943 8.108,-7.427 2.796,-11.003 -5.31,-3.582 -13.457,-3.578 -19.571,-2.9 -6.778,0.749 -13.352,3.164 -19.335,6.394 0.057,0.387 -0.155,0.805 -0.683,0.892 C 54.46,-9.835 42.344,-8.882 30.362,-7.167 20.075,-5.691 9.622,-4.111 0,0 m 90.086,-21.762 c 6.419,-0.176 17.594,0.31 20.665,7.33 4.011,9.159 -9.09,12.59 -15.245,13.826 C 85.984,1.313 75.326,0.842 67.604,-5.741 67.422,-5.892 67.312,-6.062 67.245,-6.233 54.236,-3.074 41.352,0.623 28.652,4.869 22.173,7.035 15.745,9.344 9.37,11.79 c -5.419,2.08 -11.044,5.289 -16.753,6.402 -3.736,0.726 -8.438,-0.543 -9.418,-4.717 -0.982,-4.154 2.552,-7.823 5.599,-10.067 9.132,-6.72 20.465,-9.637 31.461,-11.546 14.864,-2.583 30.307,-4.947 45.412,-5.272 6.965,-5.446 15.602,-8.109 24.415,-8.352"
               style="fill:#ffffff;fill-opacity:1;fill-rule:nonzero;stroke:none"
               id="path1289"
               inkscape:connector-curvature="0" />
          </g>
          <g
             id="g1295"
             transform="matrix(0.02082396,0.02603026,0.02603026,-0.02082396,41.917996,200.71076)"
             style="fill:#ffffff;fill-opacity:1">
            <path
               d="M 0,0 C 2.739,0.085 16.16,1.02 11.642,6.955 11.057,7.719 9.999,6.799 10.5,6.018 12.458,2.975 6.694,2.261 5.386,2.054 4.372,1.891 3.354,1.769 2.331,1.688 -0.497,1.45 -3.349,1.493 -6.171,1.805 -11.449,2.391 -16.323,4.071 -21.209,6.072 -21.731,6.29 -22.197,5.495 -21.694,5.191 -15.272,1.317 -7.44,-0.246 0,0"
               style="fill:#ffffff;fill-opacity:1;fill-rule:nonzero;stroke:none"
               id="path1293"
               inkscape:connector-curvature="0" />
          </g>
        </g>
      </g>
      <path
         inkscape:connector-curvature="0"
         id="path1301"
         style="font-style:normal;font-variant:normal;font-weight:bold;font-stretch:normal;font-size:medium;line-height:1.25;font-family:'Google Sans';-inkscape-font-specification:'Google Sans Bold';letter-spacing:0px;word-spacing:0px;fill:#ffffff;fill-opacity:1;stroke:none;stroke-width:0.3086198"
         d="m 17.688712,154.32727 h 1.518409 v 0.76538 h 0.09876 c 0.172827,-0.27158 0.423838,-0.4979 0.753032,-0.67896 0.329195,-0.18929 0.707768,-0.28393 1.135721,-0.28393 0.567861,0 1.082227,0.14402 1.543099,0.43207 0.469102,0.27981 0.835331,0.67484 1.098686,1.1851 0.263356,0.51025 0.395034,1.08634 0.395034,1.72827 0,0.65016 -0.131678,1.23036 -0.395034,1.74061 -0.263355,0.50202 -0.629584,0.89706 -1.098686,1.1851 -0.460872,0.27982 -0.975238,0.41973 -1.543099,0.41973 -0.427953,0 -0.810641,-0.0905 -1.148065,-0.27159 -0.329194,-0.18106 -0.57609,-0.40738 -0.740688,-0.67896 h -0.09876 l 0.09876,0.88882 v 1.39728 h -1.617167 z m 3.22199,4.99965 c 0.304505,0 0.588435,-0.0782 0.851791,-0.23456 0.263355,-0.15636 0.473216,-0.37445 0.629584,-0.65427 0.156367,-0.27981 0.234551,-0.60078 0.234551,-0.96289 0,-0.36212 -0.07818,-0.68308 -0.234551,-0.9629 -0.156368,-0.27981 -0.366229,-0.49379 -0.629584,-0.64193 -0.263356,-0.15636 -0.547286,-0.23455 -0.851791,-0.23455 -0.296275,0 -0.57609,0.0782 -0.839445,0.23455 -0.263356,0.14814 -0.473218,0.36212 -0.629585,0.64193 -0.156368,0.27982 -0.234551,0.60078 -0.234551,0.9629 0,0.36211 0.07818,0.68308 0.234551,0.96289 0.156367,0.27982 0.366229,0.49791 0.629585,0.65427 0.263355,0.15637 0.54317,0.23456 0.839445,0.23456 z"
         sodipodi:nodetypes="cccccscssccscccccccsccsccsccsccs" />
      <path
         inkscape:connector-curvature="0"
         id="path1303"
         style="font-style:normal;font-variant:normal;font-weight:bold;font-stretch:normal;font-size:medium;line-height:1.25;font-family:'Google Sans';-inkscape-font-specification:'Google Sans Bold';letter-spacing:0px;word-spacing:0px;fill:#ffffff;fill-opacity:1;stroke:none;stroke-width:0.3086198"
         d="m 26.88899,160.82064 q -0.999928,0 -1.641857,-0.58021 -0.641929,-0.59255 -0.641929,-1.5431 0,-0.62958 0.333309,-1.11103 0.333309,-0.48145 0.913515,-0.74069 0.580205,-0.25924 1.283858,-0.25924 0.975238,0 1.666547,0.28393 v -0.27158 q 0,-0.51848 -0.395033,-0.83945 -0.382689,-0.32096 -1.036964,-0.32096 -0.444412,0 -0.864135,0.20986 -0.407378,0.19751 -0.678963,0.53082 l -1.036963,-0.81475 q 0.456758,-0.59255 1.148066,-0.91352 0.691309,-0.32096 1.506065,-0.32096 1.44434,0 2.197372,0.66662 0.753032,0.66662 0.753032,1.95047 v 3.87627 h -1.592477 v -0.64193 h -0.09876 q -0.28393,0.37034 -0.753032,0.60489 -0.456757,0.23456 -1.061651,0.23456 z m 0.382689,-1.25917 q 0.703652,0 1.111031,-0.44442 0.419723,-0.45675 0.419723,-1.06165 -0.629585,-0.29627 -1.320893,-0.29627 -1.259169,0 -1.259169,0.9382 0,0.38269 0.271586,0.62959 0.271585,0.23455 0.777722,0.23455 z" />
      <path
         style="font-style:normal;font-variant:normal;font-weight:bold;font-stretch:normal;font-size:medium;line-height:1.25;font-family:'Google Sans';-inkscape-font-specification:'Google Sans Bold';letter-spacing:0px;word-spacing:0px;fill:#ffffff;fill-opacity:1;stroke:none;stroke-width:0.3086198"
         d="m 30.521134,154.32736 1.999877,6.29574 h 1.72806 l 1.271757,-4.07365 h 0.0863 l 1.283645,4.07365 h 1.740461 l 0.673862,-2.10788 a 5.3816646,5.3816646 0 0 1 -0.122473,-1.11259 5.3816646,5.3816646 0 0 1 0.967898,-3.07527 h -1.297077 l -1.086239,4.08606 h -0.0863 l -1.259356,-4.08606 h -1.654162 l -1.25884,4.08606 h -0.08682 l -1.086239,-4.08606 z"
         id="path1305"
         inkscape:connector-curvature="0" />
      <path
         style="font-style:normal;font-variant:normal;font-weight:bold;font-stretch:normal;font-size:medium;line-height:1.25;font-family:'Google Sans';-inkscape-font-specification:'Google Sans Bold';letter-spacing:0px;word-spacing:0px;fill:#ffffff;fill-opacity:1;stroke:none;stroke-width:0.3086198"
         d="m 52.416955,154.12996 c -0.403264,0 -0.777793,0.0902 -1.123447,0.2713 -0.345652,0.17283 -0.613246,0.41173 -0.802534,0.71624 h -0.0987 v -0.79014 h -1.420069 a 5.3816646,5.3816646 0 0 1 0.973582,3.07527 5.3816646,5.3816646 0 0 1 -1.071769,3.21221 v 0.008 h 1.616956 v -3.20962 c 0,-0.51025 0.131453,-0.93433 0.394809,-1.27176 0.271584,-0.33742 0.625768,-0.50591 1.06195,-0.50591 0.370342,0 0.658283,0.11111 0.864031,0.33331 0.205745,0.22221 0.308507,0.53518 0.308507,0.93845 v 3.71553 h 1.617472 v -3.91345 c 0,-0.7983 -0.197694,-1.4279 -0.592728,-1.88878 -0.395033,-0.46087 -0.970915,-0.69091 -1.72806,-0.69091 z"
         id="path1307"
         inkscape:connector-curvature="0" />
      <g
         style="fill:#ffffff;fill-opacity:1"
         id="g1315">
        <path
           d="m 20.280539,152.96482 q -0.391058,0 -0.72037,-0.1132 -0.329312,-0.12349 -0.535131,-0.32931 -0.483677,-0.46309 -0.483677,-1.31724 v -2.41839 h -0.915898 v -1.15259 h 0.915898 v -1.4819 h 1.34812 v 1.4819 h 1.286374 v 1.15259 h -1.286374 v 2.17139 q 0,0.40136 0.174946,0.5763 0.144074,0.16466 0.493968,0.16466 0.195528,0 0.319021,-0.0514 0.133783,-0.0515 0.339602,-0.17495 v 1.31725 q -0.442512,0.17494 -0.936479,0.17494 z"
           style="font-style:normal;font-variant:normal;font-weight:bold;font-stretch:normal;font-size:medium;line-height:1.25;font-family:'Google Sans';-inkscape-font-specification:'Google Sans Bold';letter-spacing:0px;word-spacing:0px;fill:#ffffff;fill-opacity:1;stroke:none;stroke-width:0.25727478"
           id="path1309"
           inkscape:connector-curvature="0" />
        <path
           sodipodi:nodetypes="cccccsscsccscscsccc"
           d="m 22.35755,146.15277 h 1.348119 v 1.22405 l -0.08232,0.91589 h 0.08232 c 0.150935,-0.24698 0.370476,-0.44594 0.658624,-0.59687 0.288147,-0.15094 0.600308,-0.22641 0.93648,-0.22641 0.638042,0 1.125149,0.1921 1.461321,0.5763 0.343033,0.37734 0.514549,0.90217 0.514549,1.57451 v 3.26225 h -1.34812 v -3.09759 c 0,-0.33616 -0.09261,-0.59688 -0.277857,-0.78211 -0.178377,-0.18524 -0.4185,-0.27785 -0.720369,-0.27785 -0.356755,0 -0.651763,0.14407 -0.885025,0.43222 -0.226401,0.28815 -0.339603,0.64146 -0.339603,1.05996 v 2.66537 H 22.35755 Z"
           style="font-style:normal;font-variant:normal;font-weight:bold;font-stretch:normal;font-size:medium;line-height:1.25;font-family:'Google Sans';-inkscape-font-specification:'Google Sans Bold';letter-spacing:0px;word-spacing:0px;fill:#ffffff;fill-opacity:1;stroke:none;stroke-width:0.25727478"
           id="path1311"
           inkscape:connector-curvature="0" />
        <path
           d="m 32.197474,152.73165 q -0.706047,0.33645 -1.427689,0.28134 -0.721643,-0.0551 -1.316843,-0.46686 -0.590339,-0.42548 -0.931217,-1.14082 -0.323169,-0.67817 -0.28178,-1.40468 0.03696,-0.73578 0.43057,-1.34515 0.39361,-0.60935 1.081078,-0.93695 0.73392,-0.34973 1.413975,-0.28621 0.680055,0.0635 1.210661,0.48327 0.539896,0.4153 0.858639,1.08419 0.101821,0.21368 0.166919,0.42205 l -3.558113,1.69553 q 0.36295,0.52243 0.857636,0.65149 0.49955,0.11534 1.001216,-0.12371 0.418056,-0.19922 0.631227,-0.51739 0.218036,-0.33189 0.248455,-0.72259 l 1.214957,0.0138 q -0.122558,1.60876 -1.599686,2.31265 z m -0.350086,-3.62929 q -0.124825,-0.2141 -0.375287,-0.35694 -0.245599,-0.15656 -0.572129,-0.17195 -0.321666,-0.0291 -0.665401,0.13467 -0.436635,0.20807 -0.628542,0.61872 -0.187043,0.39693 -0.118331,0.89996 z"
           style="font-style:normal;font-variant:normal;font-weight:bold;font-stretch:normal;font-size:medium;line-height:1.25;font-family:'Google Sans';-inkscape-font-specification:'Google Sans Bold';letter-spacing:0px;word-spacing:0px;fill:#ffffff;fill-opacity:1;stroke:none;stroke-width:0.25727478"
           id="path1313"
           inkscape:connector-curvature="0" />
      </g>
      <path
         inkscape:connector-curvature="0"
         id="path1317"
         style="font-style:normal;font-variant:normal;font-weight:bold;font-stretch:normal;font-size:medium;line-height:1.25;font-family:'Google Sans';-inkscape-font-specification:'Google Sans Bold';letter-spacing:0px;word-spacing:0px;fill:#ffffff;fill-opacity:1;stroke:none;stroke-width:0.27304223"
         d="m 35.510107,152.93955 q -0.393181,0 -0.677145,-0.27304 -0.273042,-0.28397 -0.273042,-0.67715 0,-0.39318 0.273042,-0.66622 0.283964,-0.27304 0.677145,-0.27304 0.393181,0 0.666223,0.27304 0.283964,0.27304 0.283964,0.66622 0,0.39318 -0.283964,0.67715 -0.273042,0.27304 -0.666223,0.27304 z" />
    </g>
    <g
       id="g44354"
       style="fill:#ffffff;fill-opacity:1"
       transform="matrix(1.2991209,0,0,1.2991209,93.48878,59.214319)">
      <g
         style="fill:#ffffff;fill-opacity:1"
         id="g4313"
         transform="matrix(0.20923676,0,0,0.20923676,-73.815217,-60.919329)"
         inkscape:export-xdpi="72"
         inkscape:export-ydpi="72">
        <path
           d="m 695.71722,911.08713 h 6.02427 v 7.4549 c -1.57966,0.6706 -3.35676,1.00591 -5.33131,1.00591 -2.57812,0 -4.5564,-0.72649 -5.93486,-2.17947 -1.37102,-1.46043 -2.05653,-3.5244 -2.05653,-6.19193 0,-1.6616 0.33903,-3.1332 1.01709,-4.41482 0.6855,-1.28904 1.6616,-2.28377 2.92831,-2.98419 1.27414,-0.7004 2.73457,-1.0506 4.38129,-1.05062 1.78082,2e-5 3.37909,0.32787 4.79483,0.98356 l -0.45825,1.02826 c -1.41573,-0.65569 -2.88361,-0.98354 -4.40364,-0.98356 -2.1534,2e-5 -3.86344,0.6669 -5.13014,2.00064 -1.25925,1.32633 -1.88887,3.11833 -1.88887,5.37603 0,2.45889 0.59982,4.3105 1.79946,5.55485 1.19963,1.23689 2.96183,1.85534 5.28661,1.85534 1.50512,0 2.783,-0.21236 3.83363,-0.63708 v -5.74485 h -4.86189 v -1.07297"
           style="font-style:normal;font-variant:normal;font-weight:300;font-stretch:normal;font-size:22.89000511px;line-height:125%;font-family:'Open Sans';-inkscape-font-specification:'Open Sans Light';text-align:start;letter-spacing:1.42631257px;word-spacing:0px;writing-mode:lr-tb;text-anchor:start;fill:#ffffff;fill-opacity:1;stroke:none"
           id="path4315"
           inkscape:connector-curvature="0" />
        <path
           d="m 708.39853,912.20481 v 7.11959 h -1.14003 v -16.34042 h 3.88951 c 2.02671,10e-6 3.5244,0.3763 4.49306,1.12885 0.96864,0.74513 1.45296,1.87026 1.45298,3.37538 -2e-5,1.09534 -0.29061,2.01928 -0.87179,2.77184 -0.57375,0.75258 -1.44926,1.29279 -2.62654,1.62063 l 4.43717,7.44372 h -1.36356 l -4.21364,-7.11959 h -4.05716 m 0,-0.98356 h 3.11831 c 1.37846,10e-6 2.4477,-0.30549 3.20773,-0.91649 0.76001,-0.61844 1.14002,-1.52748 1.14003,-2.72713 -10e-6,-1.24434 -0.37257,-2.14965 -1.11767,-2.71596 -0.74513,-0.56627 -1.95967,-0.84941 -3.64363,-0.84943 h -2.70477 v 7.20901"
           style="font-style:normal;font-variant:normal;font-weight:300;font-stretch:normal;font-size:22.89000511px;line-height:125%;font-family:'Open Sans';-inkscape-font-specification:'Open Sans Light';text-align:start;letter-spacing:1.42631257px;word-spacing:0px;writing-mode:lr-tb;text-anchor:start;fill:#ffffff;fill-opacity:1;stroke:none"
           id="path4317"
           inkscape:connector-curvature="0" />
        <path
           d="m 731.20598,919.3244 h -8.93023 v -16.34042 h 8.93023 v 1.05061 h -7.7902 v 6.18075 h 7.35431 v 1.05062 h -7.35431 v 7.00783 h 7.7902 v 1.05061"
           style="font-style:normal;font-variant:normal;font-weight:300;font-stretch:normal;font-size:22.89000511px;line-height:125%;font-family:'Open Sans';-inkscape-font-specification:'Open Sans Light';text-align:start;letter-spacing:1.42631257px;word-spacing:0px;writing-mode:lr-tb;text-anchor:start;fill:#ffffff;fill-opacity:1;stroke:none"
           id="path4319"
           inkscape:connector-curvature="0" />
        <path
           d="m 745.28439,919.3244 h -8.93024 v -16.34042 h 8.93024 v 1.05061 h -7.79021 v 6.18075 h 7.35431 v 1.05062 h -7.35431 v 7.00783 h 7.79021 v 1.05061"
           style="font-style:normal;font-variant:normal;font-weight:300;font-stretch:normal;font-size:22.89000511px;line-height:125%;font-family:'Open Sans';-inkscape-font-specification:'Open Sans Light';text-align:start;letter-spacing:1.42631257px;word-spacing:0px;writing-mode:lr-tb;text-anchor:start;fill:#ffffff;fill-opacity:1;stroke:none"
           id="path4321"
           inkscape:connector-curvature="0" />
        <path
           d="m 762.31346,919.3244 h -1.15121 l -9.67907,-14.50743 h -0.0894 c 0.0894,1.72868 0.13412,3.03264 0.13412,3.91186 v 10.59557 h -1.09532 v -16.34042 h 1.14003 l 9.6679,14.48508 h 0.0671 c -0.0671,-1.34121 -0.1006,-2.61536 -0.10059,-3.82245 v -10.66263 h 1.1065 v 16.34042"
           style="font-style:normal;font-variant:normal;font-weight:300;font-stretch:normal;font-size:22.89000511px;line-height:125%;font-family:'Open Sans';-inkscape-font-specification:'Open Sans Light';text-align:start;letter-spacing:1.42631257px;word-spacing:0px;writing-mode:lr-tb;text-anchor:start;fill:#ffffff;fill-opacity:1;stroke:none"
           id="path4323"
           inkscape:connector-curvature="0" />
      </g>
      <path
         style="fill:#ffffff;fill-opacity:1;stroke:none;stroke-width:0.02970526"
         d="m 91.382555,127.97141 c -0.03541,5.1e-4 -0.06669,10e-4 -0.08953,0.003 -0.395693,0.0298 -0.716237,0.16536 -0.957903,0.40524 -0.2765,0.27446 -0.427942,0.64254 -0.464927,1.13039 -0.01143,0.15082 -0.0058,0.3882 0.01253,0.54371 0.07465,0.63289 0.380904,1.08635 0.875546,1.29571 0.15179,0.0643 0.324011,0.1036 0.532359,0.12175 0.04573,0.004 0.281807,0.003 0.33184,-0.002 0.327566,-0.0292 0.598723,-0.13169 0.82601,-0.31273 0.09119,-0.0726 0.211256,-0.20473 0.281099,-0.30917 0.167374,-0.25022 0.255125,-0.5137 0.293041,-0.88151 0.0082,-0.0802 0.0082,-0.40609 0,-0.4894 -0.03848,-0.3888 -0.143612,-0.68582 -0.330635,-0.93582 -0.240684,-0.32171 -0.567479,-0.50398 -1.002667,-0.55923 -0.05791,-0.007 -0.200568,-0.0115 -0.306762,-0.0101 z m -4.44398,0.0465 v 1.70932 1.7099 l 0.686361,-0.002 c 0.733325,-0.002 0.731088,-0.002 0.87495,-0.0268 0.376244,-0.0646 0.656609,-0.25466 0.80093,-0.54251 0.06198,-0.12361 0.09464,-0.26464 0.100266,-0.43688 0.01131,-0.34586 -0.123853,-0.61528 -0.389132,-0.77588 -0.02145,-0.013 -0.03931,-0.0246 -0.03938,-0.0263 0,-0.002 0.0081,-0.009 0.01791,-0.0167 0.117441,-0.0878 0.212574,-0.22107 0.261414,-0.36705 0.03298,-0.0986 0.04534,-0.18098 0.04535,-0.30318 0,-0.33761 -0.130887,-0.58557 -0.389131,-0.73768 -0.133286,-0.0785 -0.318655,-0.13425 -0.545495,-0.16294 -0.149628,-0.0189 -0.237217,-0.0208 -0.840339,-0.0209 h -0.583697 z m 6.267885,0 0.0089,0.0131 c 0.08712,0.13271 1.037626,1.59811 1.044449,1.61024 l 0.0096,0.0173 -0.564,0.88689 c -0.310328,0.48777 -0.564596,0.88753 -0.564596,0.88867 0,0.001 0.17027,0.002 0.378394,0.002 h 0.378382 l 0.377189,-0.60697 c 0.207465,-0.33385 0.379462,-0.60736 0.381973,-0.60757 0.0025,0 0.1715,0.27287 0.375411,0.60638 l 0.370627,0.60637 0.392114,10e-4 c 0.215718,8.6e-4 0.392114,0 0.392114,-10e-4 0,-0.001 -0.254416,-0.40397 -0.565789,-0.89524 -0.311372,-0.49127 -0.565441,-0.89498 -0.564596,-0.89702 0.0012,-0.002 0.239143,-0.36699 0.529973,-0.81109 0.290842,-0.44412 0.528792,-0.80902 0.528792,-0.8105 0,-10e-4 -0.171351,-0.002 -0.380767,-0.002 h -0.380793 l -0.341372,0.54191 c -0.187768,0.29782 -0.343138,0.54082 -0.345561,0.54013 -0.0025,-8.6e-4 -0.156823,-0.24466 -0.343187,-0.54192 l -0.338986,-0.54012 h -0.389144 -0.389119 z m -1.746319,0.59444 c 0.115663,0 0.138604,0.002 0.192776,0.0113 0.236546,0.0422 0.397296,0.14724 0.512674,0.33542 0.08433,0.13753 0.135535,0.31454 0.156972,0.54072 0.01044,0.10974 0.01044,0.33468 0,0.44464 -0.02979,0.31465 -0.114818,0.53502 -0.264993,0.68516 -0.114693,0.11465 -0.261823,0.1807 -0.454189,0.20471 -0.04378,0.005 -0.194119,0.0102 -0.229177,0.007 -0.195771,-0.0173 -0.31566,-0.054 -0.434492,-0.1331 -0.208348,-0.1387 -0.328149,-0.38575 -0.365855,-0.75439 -0.0099,-0.0973 -0.01131,-0.34344 -0.0024,-0.44165 0.02891,-0.31624 0.119317,-0.54123 0.279309,-0.6959 0.09078,-0.0878 0.197002,-0.14459 0.332437,-0.17726 0.09802,-0.0236 0.133795,-0.027 0.276923,-0.0268 z m -3.843569,0.0358 h 0.238137 c 0.130925,0 0.265751,0.002 0.299604,0.005 0.169325,0.0135 0.296832,0.0491 0.36706,0.10324 0.06669,0.0514 0.09512,0.14693 0.08355,0.27932 -0.01724,0.19718 -0.09738,0.2637 -0.3581,0.29841 -0.04205,0.006 -0.122225,0.008 -0.342577,0.01 l -0.287674,0.002 v -0.34855 -0.34913 z m 0,1.31659 0.29006,0.002 c 0.164863,0.001 0.310663,0.005 0.337805,0.008 0.281907,0.0317 0.416398,0.12053 0.445826,0.29424 0.0093,0.0549 0.01069,0.10128 0.0053,0.15935 -0.01081,0.11786 -0.03628,0.18125 -0.09727,0.24172 -0.08476,0.084 -0.208323,0.12461 -0.414795,0.13608 -0.0454,0.003 -0.191409,0.005 -0.324682,0.005 h -0.242312 v -0.42315 -0.42315 z"
         id="path4325"
         inkscape:connector-curvature="0"
         inkscape:export-xdpi="72"
         inkscape:export-ydpi="72" />
      <text
         id="text4327"
         y="133.28645"
         x="75.1633"
         style="font-style:normal;font-variant:normal;font-weight:normal;font-stretch:normal;font-size:0.35646313px;line-height:0%;font-family:'Open Sans';-inkscape-font-specification:'Open Sans';text-align:start;letter-spacing:1.33147871px;word-spacing:0px;writing-mode:lr-tb;text-anchor:start;fill:#ffffff;fill-opacity:1;stroke:none;stroke-width:0.02970526"
         xml:space="preserve"
         inkscape:export-xdpi="72"
         inkscape:export-ydpi="72"><tspan
           y="133.28645"
           x="75.1633"
           id="tspan4329"
           sodipodi:role="line"
           style="font-size:1.08874285px;line-height:1.25;fill:#ffffff;fill-opacity:1;stroke-width:0.02970526">INDONESIA</tspan></text>
    </g>
    <rect
       style="opacity:1;fill:#ffffff;fill-opacity:1;stroke:none;stroke-width:0.15647933;stroke-linecap:round;stroke-linejoin:round;stroke-miterlimit:4;stroke-dasharray:none;stroke-opacity:1;paint-order:markers fill stroke"
       id="rect3248"
       width="81.517723"
       height="10.691301"
       x="185.75204"
       y="146.25974"
       ry="1.6603895" />
    <g
       id="g3334"
       transform="translate(34.001645)">
      <path
         inkscape:connector-curvature="0"
         id="path1741"
         d="m 191.52416,225.49687 a 3.575083,3.575083 0 0 0 -3.57513,3.57514 3.575083,3.575083 0 0 0 0.48497,1.78907 l 1.32927,-2.30472 1.30097,2.22027 -0.93659,1.58611 a 3.575083,3.575083 0 0 0 1.39651,0.2843 3.575083,3.575083 0 0 0 2.31342,-0.85465 l -1.22473,0.003 -2.3531,-4.09647 1.28295,-2.20164 a 3.575083,3.575083 0 0 0 -0.0185,-7.1e-4 z m 0.0302,7.2e-4 3.07772,5.3355 a 3.575083,3.575083 0 0 0 0.46705,-1.76192 3.575083,3.575083 0 0 0 -3.54477,-3.57358 z"
         style="opacity:1;fill:#ffffff;fill-opacity:1;stroke:none;stroke-width:0.08962642;stroke-miterlimit:4;stroke-dasharray:none" />
      <rect
         ry="0.056400619"
         y="226.64368"
         x="198.08337"
         height="5.3392591"
         width="0.12958162"
         id="rect3307"
         style="opacity:1;fill:#ffffff;fill-opacity:1;stroke:none;stroke-width:0.09469293;stroke-linecap:round;stroke-linejoin:round;stroke-miterlimit:4;stroke-dasharray:none;stroke-opacity:1;paint-order:markers fill stroke" />
      <text
         id="text3311"
         y="228.82373"
         x="201.13051"
         style="font-style:normal;font-variant:normal;font-weight:normal;font-stretch:normal;font-size:1.55191171px;line-height:1.25;font-family:'Google Sans';-inkscape-font-specification:'Google Sans';letter-spacing:0.05290608px;word-spacing:0.06983603px;fill:#ffffff;fill-opacity:1;stroke:none;stroke-width:0.05290608"
         xml:space="preserve"><tspan
           id="tspan3321"
           style="font-style:normal;font-variant:normal;font-weight:normal;font-stretch:normal;font-family:'Google Sans';-inkscape-font-specification:'Google Sans';fill:#ffffff;stroke-width:0.05290608"
           y="228.82373"
           x="201.13051"
           sodipodi:role="line">Design by Albert Sukmono</tspan><tspan
           id="tspan3325"
           style="font-style:normal;font-variant:normal;font-weight:normal;font-stretch:normal;font-family:'Google Sans';-inkscape-font-specification:'Google Sans';fill:#ffffff;stroke-width:0.05290608"
           y="230.76363"
           x="201.13051"
           sodipodi:role="line">Support &amp; Development by Greenboxindonesia</tspan></text>
      <text
         xml:space="preserve"
         style="font-style:normal;font-variant:normal;font-weight:bold;font-stretch:normal;font-size:7.76111126px;line-height:1.25;font-family:'Google Sans';-inkscape-font-specification:'Google Sans Bold';letter-spacing:0.26458332px;word-spacing:0.34925002px;fill:#000000;fill-opacity:1;stroke:none;stroke-width:0.26458332"
         x="211.0177"
         y="231.61919"
         id="text4142"><tspan
           sodipodi:role="line"
           id="tspan4140"
           x="211.0177"
           y="231.61919"
           style="stroke-width:0.26458332"> </tspan></text>
    </g>
    <rect
       style="opacity:1;fill:#ffffff;fill-opacity:1;stroke:none;stroke-width:0.01027219;stroke-linecap:round;stroke-linejoin:round;stroke-miterlimit:4;stroke-dasharray:none;stroke-opacity:1;paint-order:markers fill stroke"
       id="rect3327"
       width="85.215981"
       height="0.041217938"
       x="185.74973"
       y="220.78957"
       ry="0.00038623108" />
    <rect
       ry="1.6603895"
       y="161.69455"
       x="185.75204"
       height="10.691301"
       width="81.517723"
       id="rect3359"
       style="opacity:1;fill:#ffffff;fill-opacity:1;stroke:none;stroke-width:0.15647933;stroke-linecap:round;stroke-linejoin:round;stroke-miterlimit:4;stroke-dasharray:none;stroke-opacity:1;paint-order:markers fill stroke" />
  </g>
</svg>
