<?xml version="1.0" encoding="UTF-8" standalone="no"?>
<!-- Created with Inkscape (http://www.inkscape.org/) -->

<svg
   xmlns:dc="http://purl.org/dc/elements/1.1/"
   xmlns:cc="http://creativecommons.org/ns#"
   xmlns:rdf="http://www.w3.org/1999/02/22-rdf-syntax-ns#"
   xmlns:svg="http://www.w3.org/2000/svg"
   xmlns="http://www.w3.org/2000/svg"
   xmlns:sodipodi="http://sodipodi.sourceforge.net/DTD/sodipodi-0.dtd"
   xmlns:inkscape="http://www.inkscape.org/namespaces/inkscape"
   width="73mm"
   height="17mm"
   viewBox="0 0 73 17"
   version="1.1"
   id="svg3367"
   inkscape:version="0.92.5 (2060ec1f9f, 2020-04-08)"
   sodipodi:docname="logotype-greenbox--white.svg">
  <defs
     id="defs3361" />
  <sodipodi:namedview
     id="base"
     pagecolor="#ffffff"
     bordercolor="#666666"
     borderopacity="1.0"
     inkscape:pageopacity="0.0"
     inkscape:pageshadow="2"
     inkscape:zoom="1.979899"
     inkscape:cx="87.49732"
     inkscape:cy="30.746135"
     inkscape:document-units="mm"
     inkscape:current-layer="layer1"
     showgrid="false"
     inkscape:window-width="1920"
     inkscape:window-height="1015"
     inkscape:window-x="0"
     inkscape:window-y="28"
     inkscape:window-maximized="1" />
  <metadata
     id="metadata3364">
    <rdf:RDF>
      <cc:Work
         rdf:about="">
        <dc:format>image/svg+xml</dc:format>
        <dc:type
           rdf:resource="http://purl.org/dc/dcmitype/StillImage" />
        <dc:title></dc:title>
      </cc:Work>
    </rdf:RDF>
  </metadata>
  <g
     inkscape:label="Layer 1"
     inkscape:groupmode="layer"
     id="layer1"
     transform="translate(0,-280)">
    <g
       id="g44354"
       style="fill:#ffffff;fill-opacity:1"
       transform="matrix(2.64269,0,0,2.64269,-183.34162,-56.661117)">
      <g
         style="fill:#ffffff;fill-opacity:1"
         id="g4313"
         transform="matrix(0.20923676,0,0,0.20923676,-73.815217,-60.919329)"
         inkscape:export-xdpi="72"
         inkscape:export-ydpi="72">
        <path
           d="m 695.71722,911.08713 h 6.02427 v 7.4549 c -1.57966,0.6706 -3.35676,1.00591 -5.33131,1.00591 -2.57812,0 -4.5564,-0.72649 -5.93486,-2.17947 -1.37102,-1.46043 -2.05653,-3.5244 -2.05653,-6.19193 0,-1.6616 0.33903,-3.1332 1.01709,-4.41482 0.6855,-1.28904 1.6616,-2.28377 2.92831,-2.98419 1.27414,-0.7004 2.73457,-1.0506 4.38129,-1.05062 1.78082,2e-5 3.37909,0.32787 4.79483,0.98356 l -0.45825,1.02826 c -1.41573,-0.65569 -2.88361,-0.98354 -4.40364,-0.98356 -2.1534,2e-5 -3.86344,0.6669 -5.13014,2.00064 -1.25925,1.32633 -1.88887,3.11833 -1.88887,5.37603 0,2.45889 0.59982,4.3105 1.79946,5.55485 1.19963,1.23689 2.96183,1.85534 5.28661,1.85534 1.50512,0 2.783,-0.21236 3.83363,-0.63708 v -5.74485 h -4.86189 v -1.07297"
           style="font-style:normal;font-variant:normal;font-weight:300;font-stretch:normal;font-size:22.89000511px;line-height:125%;font-family:'Open Sans';-inkscape-font-specification:'Open Sans Light';text-align:start;letter-spacing:1.42631257px;word-spacing:0px;writing-mode:lr-tb;text-anchor:start;fill:#ffffff;fill-opacity:1;stroke:none"
           id="path4315"
           inkscape:connector-curvature="0" />
        <path
           d="m 708.39853,912.20481 v 7.11959 h -1.14003 v -16.34042 h 3.88951 c 2.02671,10e-6 3.5244,0.3763 4.49306,1.12885 0.96864,0.74513 1.45296,1.87026 1.45298,3.37538 -2e-5,1.09534 -0.29061,2.01928 -0.87179,2.77184 -0.57375,0.75258 -1.44926,1.29279 -2.62654,1.62063 l 4.43717,7.44372 h -1.36356 l -4.21364,-7.11959 h -4.05716 m 0,-0.98356 h 3.11831 c 1.37846,10e-6 2.4477,-0.30549 3.20773,-0.91649 0.76001,-0.61844 1.14002,-1.52748 1.14003,-2.72713 -10e-6,-1.24434 -0.37257,-2.14965 -1.11767,-2.71596 -0.74513,-0.56627 -1.95967,-0.84941 -3.64363,-0.84943 h -2.70477 v 7.20901"
           style="font-style:normal;font-variant:normal;font-weight:300;font-stretch:normal;font-size:22.89000511px;line-height:125%;font-family:'Open Sans';-inkscape-font-specification:'Open Sans Light';text-align:start;letter-spacing:1.42631257px;word-spacing:0px;writing-mode:lr-tb;text-anchor:start;fill:#ffffff;fill-opacity:1;stroke:none"
           id="path4317"
           inkscape:connector-curvature="0" />
        <path
           d="m 731.20598,919.3244 h -8.93023 v -16.34042 h 8.93023 v 1.05061 h -7.7902 v 6.18075 h 7.35431 v 1.05062 h -7.35431 v 7.00783 h 7.7902 v 1.05061"
           style="font-style:normal;font-variant:normal;font-weight:300;font-stretch:normal;font-size:22.89000511px;line-height:125%;font-family:'Open Sans';-inkscape-font-specification:'Open Sans Light';text-align:start;letter-spacing:1.42631257px;word-spacing:0px;writing-mode:lr-tb;text-anchor:start;fill:#ffffff;fill-opacity:1;stroke:none"
           id="path4319"
           inkscape:connector-curvature="0" />
        <path
           d="m 745.28439,919.3244 h -8.93024 v -16.34042 h 8.93024 v 1.05061 h -7.79021 v 6.18075 h 7.35431 v 1.05062 h -7.35431 v 7.00783 h 7.79021 v 1.05061"
           style="font-style:normal;font-variant:normal;font-weight:300;font-stretch:normal;font-size:22.89000511px;line-height:125%;font-family:'Open Sans';-inkscape-font-specification:'Open Sans Light';text-align:start;letter-spacing:1.42631257px;word-spacing:0px;writing-mode:lr-tb;text-anchor:start;fill:#ffffff;fill-opacity:1;stroke:none"
           id="path4321"
           inkscape:connector-curvature="0" />
        <path
           d="m 762.31346,919.3244 h -1.15121 l -9.67907,-14.50743 h -0.0894 c 0.0894,1.72868 0.13412,3.03264 0.13412,3.91186 v 10.59557 h -1.09532 v -16.34042 h 1.14003 l 9.6679,14.48508 h 0.0671 c -0.0671,-1.34121 -0.1006,-2.61536 -0.10059,-3.82245 v -10.66263 h 1.1065 v 16.34042"
           style="font-style:normal;font-variant:normal;font-weight:300;font-stretch:normal;font-size:22.89000511px;line-height:125%;font-family:'Open Sans';-inkscape-font-specification:'Open Sans Light';text-align:start;letter-spacing:1.42631257px;word-spacing:0px;writing-mode:lr-tb;text-anchor:start;fill:#ffffff;fill-opacity:1;stroke:none"
           id="path4323"
           inkscape:connector-curvature="0" />
      </g>
      <path
         style="fill:#ffffff;fill-opacity:1;stroke:none;stroke-width:0.02970526"
         d="m 91.382555,127.97141 c -0.03541,5.1e-4 -0.06669,10e-4 -0.08953,0.003 -0.395693,0.0298 -0.716237,0.16536 -0.957903,0.40524 -0.2765,0.27446 -0.427942,0.64254 -0.464927,1.13039 -0.01143,0.15082 -0.0058,0.3882 0.01253,0.54371 0.07465,0.63289 0.380904,1.08635 0.875546,1.29571 0.15179,0.0643 0.324011,0.1036 0.532359,0.12175 0.04573,0.004 0.281807,0.003 0.33184,-0.002 0.327566,-0.0292 0.598723,-0.13169 0.82601,-0.31273 0.09119,-0.0726 0.211256,-0.20473 0.281099,-0.30917 0.167374,-0.25022 0.255125,-0.5137 0.293041,-0.88151 0.0082,-0.0802 0.0082,-0.40609 0,-0.4894 -0.03848,-0.3888 -0.143612,-0.68582 -0.330635,-0.93582 -0.240684,-0.32171 -0.567479,-0.50398 -1.002667,-0.55923 -0.05791,-0.007 -0.200568,-0.0115 -0.306762,-0.0101 z m -4.44398,0.0465 v 1.70932 1.7099 l 0.686361,-0.002 c 0.733325,-0.002 0.731088,-0.002 0.87495,-0.0268 0.376244,-0.0646 0.656609,-0.25466 0.80093,-0.54251 0.06198,-0.12361 0.09464,-0.26464 0.100266,-0.43688 0.01131,-0.34586 -0.123853,-0.61528 -0.389132,-0.77588 -0.02145,-0.013 -0.03931,-0.0246 -0.03938,-0.0263 0,-0.002 0.0081,-0.009 0.01791,-0.0167 0.117441,-0.0878 0.212574,-0.22107 0.261414,-0.36705 0.03298,-0.0986 0.04534,-0.18098 0.04535,-0.30318 0,-0.33761 -0.130887,-0.58557 -0.389131,-0.73768 -0.133286,-0.0785 -0.318655,-0.13425 -0.545495,-0.16294 -0.149628,-0.0189 -0.237217,-0.0208 -0.840339,-0.0209 h -0.583697 z m 6.267885,0 0.0089,0.0131 c 0.08712,0.13271 1.037626,1.59811 1.044449,1.61024 l 0.0096,0.0173 -0.564,0.88689 c -0.310328,0.48777 -0.564596,0.88753 -0.564596,0.88867 0,0.001 0.17027,0.002 0.378394,0.002 h 0.378382 l 0.377189,-0.60697 c 0.207465,-0.33385 0.379462,-0.60736 0.381973,-0.60757 0.0025,0 0.1715,0.27287 0.375411,0.60638 l 0.370627,0.60637 0.392114,10e-4 c 0.215718,8.6e-4 0.392114,0 0.392114,-10e-4 0,-0.001 -0.254416,-0.40397 -0.565789,-0.89524 -0.311372,-0.49127 -0.565441,-0.89498 -0.564596,-0.89702 0.0012,-0.002 0.239143,-0.36699 0.529973,-0.81109 0.290842,-0.44412 0.528792,-0.80902 0.528792,-0.8105 0,-10e-4 -0.171351,-0.002 -0.380767,-0.002 h -0.380793 l -0.341372,0.54191 c -0.187768,0.29782 -0.343138,0.54082 -0.345561,0.54013 -0.0025,-8.6e-4 -0.156823,-0.24466 -0.343187,-0.54192 l -0.338986,-0.54012 h -0.389144 -0.389119 z m -1.746319,0.59444 c 0.115663,0 0.138604,0.002 0.192776,0.0113 0.236546,0.0422 0.397296,0.14724 0.512674,0.33542 0.08433,0.13753 0.135535,0.31454 0.156972,0.54072 0.01044,0.10974 0.01044,0.33468 0,0.44464 -0.02979,0.31465 -0.114818,0.53502 -0.264993,0.68516 -0.114693,0.11465 -0.261823,0.1807 -0.454189,0.20471 -0.04378,0.005 -0.194119,0.0102 -0.229177,0.007 -0.195771,-0.0173 -0.31566,-0.054 -0.434492,-0.1331 -0.208348,-0.1387 -0.328149,-0.38575 -0.365855,-0.75439 -0.0099,-0.0973 -0.01131,-0.34344 -0.0024,-0.44165 0.02891,-0.31624 0.119317,-0.54123 0.279309,-0.6959 0.09078,-0.0878 0.197002,-0.14459 0.332437,-0.17726 0.09802,-0.0236 0.133795,-0.027 0.276923,-0.0268 z m -3.843569,0.0358 h 0.238137 c 0.130925,0 0.265751,0.002 0.299604,0.005 0.169325,0.0135 0.296832,0.0491 0.36706,0.10324 0.06669,0.0514 0.09512,0.14693 0.08355,0.27932 -0.01724,0.19718 -0.09738,0.2637 -0.3581,0.29841 -0.04205,0.006 -0.122225,0.008 -0.342577,0.01 l -0.287674,0.002 v -0.34855 -0.34913 z m 0,1.31659 0.29006,0.002 c 0.164863,0.001 0.310663,0.005 0.337805,0.008 0.281907,0.0317 0.416398,0.12053 0.445826,0.29424 0.0093,0.0549 0.01069,0.10128 0.0053,0.15935 -0.01081,0.11786 -0.03628,0.18125 -0.09727,0.24172 -0.08476,0.084 -0.208323,0.12461 -0.414795,0.13608 -0.0454,0.003 -0.191409,0.005 -0.324682,0.005 h -0.242312 v -0.42315 -0.42315 z"
         id="path4325"
         inkscape:connector-curvature="0"
         inkscape:export-xdpi="72"
         inkscape:export-ydpi="72" />
      <text
         id="text4327"
         y="133.28645"
         x="75.1633"
         style="font-style:normal;font-variant:normal;font-weight:normal;font-stretch:normal;font-size:0.35646313px;line-height:0%;font-family:'Open Sans';-inkscape-font-specification:'Open Sans';text-align:start;letter-spacing:1.33147871px;word-spacing:0px;writing-mode:lr-tb;text-anchor:start;fill:#ffffff;fill-opacity:1;stroke:none;stroke-width:0.02970526"
         xml:space="preserve"
         inkscape:export-xdpi="72"
         inkscape:export-ydpi="72"><tspan
           y="133.28645"
           x="75.1633"
           id="tspan4329"
           sodipodi:role="line"
           style="font-size:1.08874285px;line-height:1.25;fill:#ffffff;fill-opacity:1;stroke-width:0.02970526">INDONESIA</tspan></text>
    </g>
  </g>
</svg>
