<?xml version="1.0" encoding="UTF-8" standalone="no"?>
<!-- Created with Inkscape (http://www.inkscape.org/) -->

<svg
   xmlns:dc="http://purl.org/dc/elements/1.1/"
   xmlns:cc="http://creativecommons.org/ns#"
   xmlns:rdf="http://www.w3.org/1999/02/22-rdf-syntax-ns#"
   xmlns:svg="http://www.w3.org/2000/svg"
   xmlns="http://www.w3.org/2000/svg"
   xmlns:xlink="http://www.w3.org/1999/xlink"
   xmlns:sodipodi="http://sodipodi.sourceforge.net/DTD/sodipodi-0.dtd"
   xmlns:inkscape="http://www.inkscape.org/namespaces/inkscape"
   width="210mm"
   height="297mm"
   viewBox="0 0 210 297"
   version="1.1"
   id="svg987"
   inkscape:version="0.92.5 (2060ec1f9f, 2020-04-08)"
   sodipodi:docname="maskot_gb_01.svg">
  <defs
     id="defs981">
    <linearGradient
       inkscape:collect="always"
       id="linearGradient908">
      <stop
         style="stop-color:#000000;stop-opacity:1;"
         offset="0"
         id="stop904" />
      <stop
         style="stop-color:#000000;stop-opacity:0;"
         offset="1"
         id="stop906" />
    </linearGradient>
    <mask
       id="id2">
      <linearGradient
         id="id3"
         gradientUnits="userSpaceOnUse"
         x1="3664.0601"
         y1="9333.29"
         x2="3841.0901"
         y2="9144.3799">
        <stop
           offset="0"
           style="stop-opacity:1; stop-color:white"
           id="stop16" />
        <stop
           offset="0.611765"
           style="stop-opacity:0.501961; stop-color:white"
           id="stop18" />
        <stop
           offset="1"
           style="stop-opacity:0; stop-color:white"
           id="stop20" />
      </linearGradient>
      <rect
         style="fill:url(#id3)"
         x="3268"
         y="8799"
         width="969"
         height="880"
         id="rect22" />
    </mask>
    <linearGradient
       id="linearGradient957"
       gradientUnits="userSpaceOnUse"
       x1="3664.0601"
       y1="9333.29"
       x2="3841.0901"
       y2="9144.3799">
      <stop
         offset="0"
         style="stop-opacity:1; stop-color:white"
         id="stop951" />
      <stop
         offset="0.611765"
         style="stop-opacity:0.501961; stop-color:white"
         id="stop953" />
      <stop
         offset="1"
         style="stop-opacity:0; stop-color:white"
         id="stop955" />
    </linearGradient>
    <clipPath
       clipPathUnits="userSpaceOnUse"
       id="clipPath890">
      <rect
         style="opacity:0.14100001;fill:#ffffff;fill-opacity:1;stroke:none;stroke-width:6.55983734;stroke-linecap:round;stroke-linejoin:round;stroke-miterlimit:4;stroke-dasharray:none;stroke-opacity:1;paint-order:markers fill stroke"
         id="rect892"
         width="2733.7573"
         height="3680.5549"
         x="3132.6873"
         y="-11134.39"
         transform="scale(1,-1)" />
    </clipPath>
    <linearGradient
       inkscape:collect="always"
       xlink:href="#linearGradient908"
       id="linearGradient912"
       gradientUnits="userSpaceOnUse"
       gradientTransform="matrix(0.82619975,0,0,7.7861605,24.769239,-1693.4736)"
       x1="121.70834"
       y1="251.34482"
       x2="121.70834"
       y2="240.31378" />
  </defs>
  <sodipodi:namedview
     id="base"
     pagecolor="#ffffff"
     bordercolor="#666666"
     borderopacity="1.0"
     inkscape:pageopacity="0.0"
     inkscape:pageshadow="2"
     inkscape:zoom="0.7"
     inkscape:cx="193.05148"
     inkscape:cy="556.26045"
     inkscape:document-units="mm"
     inkscape:current-layer="layer1"
     showgrid="false"
     inkscape:window-width="1920"
     inkscape:window-height="1015"
     inkscape:window-x="0"
     inkscape:window-y="28"
     inkscape:window-maximized="1" />
  <metadata
     id="metadata984">
    <rdf:RDF>
      <cc:Work
         rdf:about="">
        <dc:format>image/svg+xml</dc:format>
        <dc:type
           rdf:resource="http://purl.org/dc/dcmitype/StillImage" />
        <dc:title />
      </cc:Work>
    </rdf:RDF>
  </metadata>
  <g
     inkscape:label="Layer 1"
     inkscape:groupmode="layer"
     id="layer1">
    <g
       inkscape:export-ydpi="112"
       inkscape:export-xdpi="112"
       transform="matrix(0.06371328,0,0,0.06371328,-424.59937,-454.17487)"
       id="g888"
       style="fill-rule:evenodd">
      <polygon
         style="fill:#a8cf45"
         class="fil4"
         points="5212,7661 3925,7796 3272,8802 4956,8596 "
         id="polygon846" />
      <path
         style="fill:#57884e"
         inkscape:connector-curvature="0"
         class="fil0"
         d="m 5778,7495 c 49,40 56,112 15,161 -24,29 -60,43 -95,41 -99,244 -203,504 -301,742 -13,8 -28,1 -41,9 89,-254 187,-519 278,-775 l -2,-2 c -49,-40 -56,-112 -15,-161 40,-49 112,-56 161,-15 z m -21,27 c 33,28 38,77 11,110 -28,33 -77,38 -110,11 -33,-28 -38,-77 -11,-110 28,-33 77,-38 110,-11 z"
         id="path848" />
      <path
         style="fill:#72a14e"
         inkscape:connector-curvature="0"
         class="fil5"
         d="m 4956,8596 -1685,207 635,873 150,-16 c 49,-77 -36,-98 134,-196 l 70,-190 c 180,-121 379,-126 562,-45 58,64 0,95 129,177 61,21 150,69 193,107 32,28 49,72 73,109 l 239,-7 -499,-1019 z"
         id="path850" />
      <polygon
         style="fill:#88b74c"
         class="fil6"
         points="5606,8699 5212,7661 4956,8596 5455,9614 "
         id="polygon852" />
      <path
         inkscape:connector-curvature="0"
         class="fil6"
         style="fill:#88b74c"
         d="m 4233,9439 c -108,-391 -395,-596 -962,-636 177,243 505,683 635,873 357,-14 228,-181 327,-237 z"
         id="path854"
         mask="url(#id2)" />
      <path
         style="fill:#96ca53"
         inkscape:connector-curvature="0"
         class="fil7"
         d="m 4309,9304 -75,135 c -49,28 -149,86 -190,131 -67,360 -241,575 -147,846 -35,207 -98,551 -133,758 35,2 70,3 106,3 233,2 483,-21 710,-10 -3,-151 -45,-423 -48,-574 74,-26 80,-33 158,-33 -6,232 27,464 22,696 l 912,-8 184,-2 c -75,-273 -256,-554 -331,-827 30,-370 -262,-724 -306,-925 -43,-38 -199,-116 -260,-137 -63,-77 -39,-75 -97,-139 -182,-81 -383,-50 -504,86 z"
         id="path856" />
      <path
         style="fill:#7fb551"
         inkscape:connector-curvature="0"
         class="fil8"
         d="m 5807,11246 c -75,-273 -256,-554 -331,-827 l -269,-517 416,1346 z"
         id="path858" />
      <path
         style="fill:#7fb551"
         inkscape:connector-curvature="0"
         class="fil8"
         d="m 3870,11177 117,-1125 -106,429 c -35,207 -82,486 -117,694 35,2 70,3 106,3 z"
         id="path860" />
      <path
         style="fill:#6b9f50"
         inkscape:connector-curvature="0"
         class="fil9"
         d="m 4801,10290 -424,48 154,254 c 74,-26 80,-33 158,-33 z"
         id="path862" />
      <path
         style="fill:#7fb551"
         inkscape:connector-curvature="0"
         class="fil8"
         d="m 4580,11167 c -3,-151 -45,-423 -48,-574 l -154,-254 129,826 c 24,0 49,1 73,2 z"
         id="path864" />
      <path
         style="fill:#7fb551"
         inkscape:connector-curvature="0"
         class="fil8"
         d="m 4785,11255 16,-964 -112,269 c -6,232 27,464 22,696 z"
         id="path866" />
      <path
         style="fill:#59874d"
         inkscape:connector-curvature="0"
         class="fil10"
         d="m 4983,9389 c -55,-25 -149,-68 -190,-105 -154,-139 -424,-77 -518,141 -12,7 -68,29 -84,39 -34,-445 701,-486 792,-75 z"
         id="path868" />
      <ellipse
         style="fill:#57884e"
         cy="0"
         cx="0"
         class="fil0"
         transform="matrix(0.780088,-0.935536,0.678671,0.505055,4001.57,8107.07)"
         rx="267"
         ry="178"
         id="ellipse870" />
      <ellipse
         style="fill:#6b9f50"
         cy="0"
         cx="0"
         class="fil9"
         transform="matrix(0.50325,-0.603533,0.437825,0.325821,4028.32,8136.57)"
         rx="267"
         ry="178"
         id="ellipse872" />
      <ellipse
         style="fill:#57884e"
         cy="0"
         cx="0"
         class="fil0"
         transform="matrix(0.559254,-0.670697,0.486548,0.36208,4679.73,8031.03)"
         rx="267"
         ry="178"
         id="ellipse874" />
      <ellipse
         style="fill:#6b9f50"
         cy="0"
         cx="0"
         class="fil9"
         transform="matrix(0.384152,-0.460703,0.33421,0.248713,4700.64,8054.08)"
         rx="267"
         ry="178"
         id="ellipse876" />
      <polygon
         style="fill:#6b9f50;fill-rule:nonzero"
         class="fil11"
         points="3522,8772 3678,8450 4778,8266 4604,8640 4569,8644 4670,8426 3676,8525 3563,8767 "
         id="polygon878" />
      <g
         id="g884">
        <path
           style="fill:#57884e"
           inkscape:connector-curvature="0"
           class="fil0"
           d="m 4588,10000 c 71,-47 138,-91 200,-132 58,-38 113,-75 164,-109 0,-1 -1,-2 -1,-2 -20,-47 -39,-90 -56,-129 -15,-36 -30,-68 -43,-99 -34,-8 -68,-16 -100,-23 -32,-7 -63,-14 -93,-21 4,20 8,41 12,63 41,10 82,20 126,31 8,24 16,49 26,76 -58,-16 -114,-31 -167,-45 -5,-32 -10,-62 -14,-89 -4,-25 -8,-49 -11,-72 0,0 0,-1 0,-1 -24,-6 -47,-11 -70,-16 -1,0 -3,-1 -4,-1 0,9 1,17 1,27 1,26 2,55 4,86 2,34 3,71 5,112 2,43 4,92 6,145 -36,25 -73,50 -112,77 5,-74 9,-138 12,-195 3,-50 6,-95 8,-136 -26,13 -53,26 -81,40 -28,14 -58,29 -88,44 -6,22 -12,46 -18,71 54,-28 106,-54 155,-79 -2,22 -4,46 -7,70 -38,21 -79,42 -120,65 -44,24 -89,48 -137,74 58,24 119,50 184,77 68,29 141,59 218,91 z"
           id="path880" />
        <path
           style="fill:#a8cf45;fill-opacity:0.50196078;fill-rule:nonzero"
           inkscape:connector-curvature="0"
           class="fil12"
           d="m 4587,9992 c 41,-27 74,-48 100,-66 26,-17 60,-39 96,-64 21,-14 42,-28 63,-42 30,-20 60,-40 96,-64 l -54,-125 -13,-30 c -10,-23 -19,-45 -28,-65 l -96,-22 c -15,-3 -29,-7 -44,-10 l -37,-9 v 3 c 3,14 5,28 8,44 l 57,14 64,16 4,1 1,4 c 3,9 7,22 12,37 3,10 8,23 13,39 l 5,14 -14,-4 c -29,-8 -57,-16 -85,-23 -32,-9 -59,-16 -82,-22 l -5,-1 -1,-5 -5,-33 c -5,-32 -7,-44 -9,-56 l -6,-37 v 0 l -5,-30 c -12,-3 -22,-5 -30,-7 l -29,-7 1,16 2,49 2,38 1,19 c 1,29 3,59 4,92 l 1,33 c 2,34 3,72 5,112 v 4 l -4,2 -55,38 -57,39 -13,9 1,-16 c 4,-68 8,-127 11,-179 l 1,-16 6,-90 2,-33 c -13,7 -27,13 -40,20 l -28,14 -43,21 -42,21 c -5,19 -9,35 -13,52 37,-19 77,-39 115,-59 l 25,-13 12,-6 -1,14 c -2,22 -4,44 -6,67 v 4 4 l -4,2 -46,25 c -24,13 -49,27 -75,40 l -52,28 -71,38 c 34,14 69,29 105,44 l 64,27 11,4 c 64,27 132,55 204,85 z m 108,-53 c -40,26 -75,49 -103,68 l -3,2 -4,-2 c -73,-30 -142,-59 -208,-87 l -11,-4 -64,-27 c -41,-17 -81,-34 -120,-50 l -15,-6 14,-8 c 29,-16 57,-31 85,-46 l 52,-28 c 25,-14 50,-27 75,-40 l 42,-23 c 2,-18 3,-36 5,-52 l -12,6 c -39,20 -80,41 -130,66 l -15,8 4,-16 4,-16 c 5,-21 10,-41 14,-56 l 1,-3 3,-2 45,-22 43,-21 28,-14 c 18,-9 35,-17 52,-26 l 12,-6 -1,13 -3,46 -6,90 -1,16 c -3,49 -6,104 -10,163 l 44,-30 51,-35 c -2,-39 -3,-75 -5,-108 l -1,-33 c -2,-33 -3,-64 -4,-92 l -1,-19 -2,-38 -2,-49 -1,-27 v -11 l 10,3 c 1,0 2,1 3,1 v 0 l 35,8 c 13,3 25,6 35,8 l 5,1 1,5 v 1 0 l 5,35 v 0 l 6,37 c 7,46 7,49 9,55 l 4,29 c 29,8 54,15 77,21 23,6 47,13 71,19 l -9,-26 c -3,-9 -7,-20 -11,-33 l -60,-15 -62,-15 -5,-1 -1,-5 c -3,-17 -6,-33 -9,-48 l -3,-14 -2,-11 11,3 c 16,4 32,7 49,11 14,3 29,7 44,10 l 100,23 4,1 2,4 c 9,22 19,45 30,69 l 13,30 56,129 1,1 v 1 l 3,6 -5,4 c -26,17 -63,42 -101,67 -20,14 -41,27 -63,42 -25,17 -56,37 -96,64 z"
           id="path882" />
      </g>
      <path
         style="fill:#57884e;fill-rule:nonzero"
         inkscape:connector-curvature="0"
         class="fil1"
         d="m 3939,7818 -639,984 618,849 114,-23 -129,523 -9,139 25,121 1,4 -1,4 -128,731 764,-7 -23,-551 167,-53 35,693 1040,-9 -319,-796 -1,-3 v -3 l -32,-283 -215,-539 229,-7 147,-891 -386,-1015 z m -72,-111 1407,-167 431,1162 -207,978 -173,17 192,438 10,287 384,882 -1234,10 -30,-685 -45,40 12,536 -937,5 161,-748 -33,-136 10,-181 113,-399 -78,-7 -709,-968 727,-1065 z"
         id="path886" />
    </g>
    <g
       id="g974"
       inkscape:export-xdpi="112"
       inkscape:export-ydpi="112">
      <g
         clip-path="url(#clipPath890)"
         inkscape:export-ydpi="112"
         inkscape:export-xdpi="112"
         transform="matrix(0.06371328,0,0,0.06371328,-180.46474,-456.79384)"
         id="g3196"
         style="fill-rule:evenodd">
        <polygon
           style="fill:#a8cf45"
           class="fil4"
           points="5212,7661 3925,7796 3272,8802 4956,8596 "
           id="polygon80" />
        <path
           style="fill:#57884e"
           inkscape:connector-curvature="0"
           class="fil0"
           d="m 5778,7495 c 49,40 56,112 15,161 -24,29 -60,43 -95,41 -99,244 -203,504 -301,742 -13,8 -28,1 -41,9 89,-254 187,-519 278,-775 l -2,-2 c -49,-40 -56,-112 -15,-161 40,-49 112,-56 161,-15 z m -21,27 c 33,28 38,77 11,110 -28,33 -77,38 -110,11 -33,-28 -38,-77 -11,-110 28,-33 77,-38 110,-11 z"
           id="path94" />
        <path
           style="fill:#72a14e"
           inkscape:connector-curvature="0"
           class="fil5"
           d="m 4956,8596 -1685,207 635,873 150,-16 c 49,-77 -36,-98 134,-196 l 70,-190 c 180,-121 379,-126 562,-45 58,64 0,95 129,177 61,21 150,69 193,107 32,28 49,72 73,109 l 239,-7 -499,-1019 z"
           id="path96" />
        <polygon
           style="fill:#88b74c"
           class="fil6"
           points="5606,8699 5212,7661 4956,8596 5455,9614 "
           id="polygon98" />
        <path
           inkscape:connector-curvature="0"
           class="fil6"
           style="fill:#88b74c"
           d="m 4233,9439 c -108,-391 -395,-596 -962,-636 177,243 505,683 635,873 357,-14 228,-181 327,-237 z"
           id="path100"
           mask="url(#id2)" />
        <path
           style="fill:#96ca53"
           inkscape:connector-curvature="0"
           class="fil7"
           d="m 4309,9304 -75,135 c -49,28 -149,86 -190,131 -67,360 -241,575 -147,846 -35,207 -98,551 -133,758 35,2 70,3 106,3 233,2 483,-21 710,-10 -3,-151 -45,-423 -48,-574 74,-26 80,-33 158,-33 -6,232 27,464 22,696 l 912,-8 184,-2 c -75,-273 -256,-554 -331,-827 30,-370 -262,-724 -306,-925 -43,-38 -199,-116 -260,-137 -63,-77 -39,-75 -97,-139 -182,-81 -383,-50 -504,86 z"
           id="path102" />
        <path
           style="fill:#7fb551"
           inkscape:connector-curvature="0"
           class="fil8"
           d="m 5807,11246 c -75,-273 -256,-554 -331,-827 l -269,-517 416,1346 z"
           id="path104" />
        <path
           style="fill:#7fb551"
           inkscape:connector-curvature="0"
           class="fil8"
           d="m 3870,11177 117,-1125 -106,429 c -35,207 -82,486 -117,694 35,2 70,3 106,3 z"
           id="path106" />
        <path
           style="fill:#6b9f50"
           inkscape:connector-curvature="0"
           class="fil9"
           d="m 4801,10290 -424,48 154,254 c 74,-26 80,-33 158,-33 z"
           id="path108" />
        <path
           style="fill:#7fb551"
           inkscape:connector-curvature="0"
           class="fil8"
           d="m 4580,11167 c -3,-151 -45,-423 -48,-574 l -154,-254 129,826 c 24,0 49,1 73,2 z"
           id="path110" />
        <path
           style="fill:#7fb551"
           inkscape:connector-curvature="0"
           class="fil8"
           d="m 4785,11255 16,-964 -112,269 c -6,232 27,464 22,696 z"
           id="path112" />
        <path
           style="fill:#59874d"
           inkscape:connector-curvature="0"
           class="fil10"
           d="m 4983,9389 c -55,-25 -149,-68 -190,-105 -154,-139 -424,-77 -518,141 -12,7 -68,29 -84,39 -34,-445 701,-486 792,-75 z"
           id="path114" />
        <ellipse
           style="fill:#57884e"
           cy="0"
           cx="0"
           class="fil0"
           transform="matrix(0.780088,-0.935536,0.678671,0.505055,4001.57,8107.07)"
           rx="267"
           ry="178"
           id="ellipse116" />
        <ellipse
           style="fill:#6b9f50"
           cy="0"
           cx="0"
           class="fil9"
           transform="matrix(0.50325,-0.603533,0.437825,0.325821,4028.32,8136.57)"
           rx="267"
           ry="178"
           id="ellipse118" />
        <ellipse
           style="fill:#57884e"
           cy="0"
           cx="0"
           class="fil0"
           transform="matrix(0.559254,-0.670697,0.486548,0.36208,4679.73,8031.03)"
           rx="267"
           ry="178"
           id="ellipse120" />
        <ellipse
           style="fill:#6b9f50"
           cy="0"
           cx="0"
           class="fil9"
           transform="matrix(0.384152,-0.460703,0.33421,0.248713,4700.64,8054.08)"
           rx="267"
           ry="178"
           id="ellipse122" />
        <polygon
           style="fill:#6b9f50;fill-rule:nonzero"
           class="fil11"
           points="3522,8772 3678,8450 4778,8266 4604,8640 4569,8644 4670,8426 3676,8525 3563,8767 "
           id="polygon124" />
        <g
           id="g126">
          <path
             style="fill:#57884e"
             inkscape:connector-curvature="0"
             class="fil0"
             d="m 4588,10000 c 71,-47 138,-91 200,-132 58,-38 113,-75 164,-109 0,-1 -1,-2 -1,-2 -20,-47 -39,-90 -56,-129 -15,-36 -30,-68 -43,-99 -34,-8 -68,-16 -100,-23 -32,-7 -63,-14 -93,-21 4,20 8,41 12,63 41,10 82,20 126,31 8,24 16,49 26,76 -58,-16 -114,-31 -167,-45 -5,-32 -10,-62 -14,-89 -4,-25 -8,-49 -11,-72 0,0 0,-1 0,-1 -24,-6 -47,-11 -70,-16 -1,0 -3,-1 -4,-1 0,9 1,17 1,27 1,26 2,55 4,86 2,34 3,71 5,112 2,43 4,92 6,145 -36,25 -73,50 -112,77 5,-74 9,-138 12,-195 3,-50 6,-95 8,-136 -26,13 -53,26 -81,40 -28,14 -58,29 -88,44 -6,22 -12,46 -18,71 54,-28 106,-54 155,-79 -2,22 -4,46 -7,70 -38,21 -79,42 -120,65 -44,24 -89,48 -137,74 58,24 119,50 184,77 68,29 141,59 218,91 z"
             id="path128" />
          <path
             style="fill:#a8cf45;fill-opacity:0.50196078;fill-rule:nonzero"
             inkscape:connector-curvature="0"
             class="fil12"
             d="m 4587,9992 c 41,-27 74,-48 100,-66 26,-17 60,-39 96,-64 21,-14 42,-28 63,-42 30,-20 60,-40 96,-64 l -54,-125 -13,-30 c -10,-23 -19,-45 -28,-65 l -96,-22 c -15,-3 -29,-7 -44,-10 l -37,-9 v 3 c 3,14 5,28 8,44 l 57,14 64,16 4,1 1,4 c 3,9 7,22 12,37 3,10 8,23 13,39 l 5,14 -14,-4 c -29,-8 -57,-16 -85,-23 -32,-9 -59,-16 -82,-22 l -5,-1 -1,-5 -5,-33 c -5,-32 -7,-44 -9,-56 l -6,-37 v 0 l -5,-30 c -12,-3 -22,-5 -30,-7 l -29,-7 1,16 2,49 2,38 1,19 c 1,29 3,59 4,92 l 1,33 c 2,34 3,72 5,112 v 4 l -4,2 -55,38 -57,39 -13,9 1,-16 c 4,-68 8,-127 11,-179 l 1,-16 6,-90 2,-33 c -13,7 -27,13 -40,20 l -28,14 -43,21 -42,21 c -5,19 -9,35 -13,52 37,-19 77,-39 115,-59 l 25,-13 12,-6 -1,14 c -2,22 -4,44 -6,67 v 4 4 l -4,2 -46,25 c -24,13 -49,27 -75,40 l -52,28 -71,38 c 34,14 69,29 105,44 l 64,27 11,4 c 64,27 132,55 204,85 z m 108,-53 c -40,26 -75,49 -103,68 l -3,2 -4,-2 c -73,-30 -142,-59 -208,-87 l -11,-4 -64,-27 c -41,-17 -81,-34 -120,-50 l -15,-6 14,-8 c 29,-16 57,-31 85,-46 l 52,-28 c 25,-14 50,-27 75,-40 l 42,-23 c 2,-18 3,-36 5,-52 l -12,6 c -39,20 -80,41 -130,66 l -15,8 4,-16 4,-16 c 5,-21 10,-41 14,-56 l 1,-3 3,-2 45,-22 43,-21 28,-14 c 18,-9 35,-17 52,-26 l 12,-6 -1,13 -3,46 -6,90 -1,16 c -3,49 -6,104 -10,163 l 44,-30 51,-35 c -2,-39 -3,-75 -5,-108 l -1,-33 c -2,-33 -3,-64 -4,-92 l -1,-19 -2,-38 -2,-49 -1,-27 v -11 l 10,3 c 1,0 2,1 3,1 v 0 l 35,8 c 13,3 25,6 35,8 l 5,1 1,5 v 1 0 l 5,35 v 0 l 6,37 c 7,46 7,49 9,55 l 4,29 c 29,8 54,15 77,21 23,6 47,13 71,19 l -9,-26 c -3,-9 -7,-20 -11,-33 l -60,-15 -62,-15 -5,-1 -1,-5 c -3,-17 -6,-33 -9,-48 l -3,-14 -2,-11 11,3 c 16,4 32,7 49,11 14,3 29,7 44,10 l 100,23 4,1 2,4 c 9,22 19,45 30,69 l 13,30 56,129 1,1 v 1 l 3,6 -5,4 c -26,17 -63,42 -101,67 -20,14 -41,27 -63,42 -25,17 -56,37 -96,64 z"
             id="path130" />
        </g>
        <path
           style="fill:#57884e;fill-rule:nonzero"
           inkscape:connector-curvature="0"
           class="fil1"
           d="m 3939,7818 -639,984 618,849 114,-23 -129,523 -9,139 25,121 1,4 -1,4 -128,731 764,-7 -23,-551 167,-53 35,693 1040,-9 -319,-796 -1,-3 v -3 l -32,-283 -215,-539 229,-7 147,-891 -386,-1015 z m -72,-111 1407,-167 431,1162 -207,978 -173,17 192,438 10,287 384,882 -1234,10 -30,-685 -45,40 12,536 -937,5 161,-748 -33,-136 10,-181 113,-399 -78,-7 -709,-968 727,-1065 z"
           id="path132" />
      </g>
      <path
         sodipodi:nodetypes="ccccc"
         inkscape:connector-curvature="0"
         id="rect894"
         d="m 70.286443,152.13484 88.522037,8.899 34.43788,91.58082 H 53.655491 Z"
         style="opacity:0.606;fill:url(#linearGradient912);fill-opacity:1;stroke:none;stroke-width:0.60449147;stroke-linecap:round;stroke-linejoin:round;stroke-miterlimit:4;stroke-dasharray:none;stroke-opacity:1;paint-order:markers fill stroke" />
    </g>
  </g>
</svg>
