<?xml version="1.0" encoding="UTF-8" standalone="no"?>
<!-- Created with Inkscape (http://www.inkscape.org/) -->

<svg
   xmlns:dc="http://purl.org/dc/elements/1.1/"
   xmlns:cc="http://creativecommons.org/ns#"
   xmlns:rdf="http://www.w3.org/1999/02/22-rdf-syntax-ns#"
   xmlns:svg="http://www.w3.org/2000/svg"
   xmlns="http://www.w3.org/2000/svg"
   xmlns:sodipodi="http://sodipodi.sourceforge.net/DTD/sodipodi-0.dtd"
   xmlns:inkscape="http://www.inkscape.org/namespaces/inkscape"
   width="1052.3622"
   height="744.09448"
   id="svg4824"
   version="1.1"
   inkscape:version="0.91 r13725"
   sodipodi:docname="master-logo.svg">
  <defs
     id="defs4826" />
  <sodipodi:namedview
     id="base"
     pagecolor="#ffffff"
     bordercolor="#666666"
     borderopacity="1.0"
     inkscape:pageopacity="0.0"
     inkscape:pageshadow="2"
     inkscape:zoom="0.49497475"
     inkscape:cx="-125.64206"
     inkscape:cy="630.83102"
     inkscape:document-units="px"
     inkscape:current-layer="layer1"
     showgrid="false"
     inkscape:window-width="1366"
     inkscape:window-height="744"
     inkscape:window-x="0"
     inkscape:window-y="24"
     inkscape:window-maximized="1" />
  <metadata
     id="metadata4829">
    <rdf:RDF>
      <cc:Work
         rdf:about="">
        <dc:format>image/svg+xml</dc:format>
        <dc:type
           rdf:resource="http://purl.org/dc/dcmitype/StillImage" />
        <dc:title />
      </cc:Work>
    </rdf:RDF>
  </metadata>
  <g
     inkscape:label="Layer 1"
     inkscape:groupmode="layer"
     id="layer1"
     transform="translate(0,-308.2677)">
    <g
       inkscape:export-ydpi="72"
       inkscape:export-xdpi="72"
       inkscape:export-filename="/home/aank/rect7874.png"
       style="fill:#008000;fill-opacity:1"
       transform="matrix(8.2613374,0,0,8.2613374,-3381.3807,-3937.0402)"
       id="g4737">
      <g
         style="fill:#008000;fill-opacity:1"
         transform="matrix(0.04378079,0,0,0.04378079,429.56747,455.13002)"
         id="g4739">
        <g
           style="fill:#008000;fill-opacity:1"
           id="g4741"
           transform="matrix(16.885569,0,0,16.885569,-11687.289,-13701.257)">
          <path
             d="m 695.71722,911.08713 6.02427,0 0,7.4549 c -1.57966,0.6706 -3.35676,1.00591 -5.33131,1.00591 -2.57812,0 -4.5564,-0.72649 -5.93486,-2.17947 -1.37102,-1.46043 -2.05653,-3.5244 -2.05653,-6.19193 0,-1.6616 0.33903,-3.1332 1.01709,-4.41482 0.6855,-1.28904 1.6616,-2.28377 2.92831,-2.98419 1.27414,-0.7004 2.73457,-1.0506 4.38129,-1.05062 1.78082,2e-5 3.37909,0.32787 4.79483,0.98356 l -0.45825,1.02826 c -1.41573,-0.65569 -2.88361,-0.98354 -4.40364,-0.98356 -2.1534,2e-5 -3.86344,0.6669 -5.13014,2.00064 -1.25925,1.32633 -1.88887,3.11833 -1.88887,5.37603 0,2.45889 0.59982,4.3105 1.79946,5.55485 1.19963,1.23689 2.96183,1.85534 5.28661,1.85534 1.50512,0 2.783,-0.21236 3.83363,-0.63708 l 0,-5.74485 -4.86189,0 0,-1.07297"
             style="font-size:22.89000511px;font-style:normal;font-variant:normal;font-weight:300;font-stretch:normal;text-align:start;line-height:125%;letter-spacing:1.42631257px;word-spacing:0px;writing-mode:lr-tb;text-anchor:start;fill:#008000;fill-opacity:1;stroke:none;font-family:Open Sans;-inkscape-font-specification:Open Sans Light"
             id="path4743"
             inkscape:connector-curvature="0" />
          <path
             d="m 708.39853,912.20481 0,7.11959 -1.14003,0 0,-16.34042 3.88951,0 c 2.02671,10e-6 3.5244,0.3763 4.49306,1.12885 0.96864,0.74513 1.45296,1.87026 1.45298,3.37538 -2e-5,1.09534 -0.29061,2.01928 -0.87179,2.77184 -0.57375,0.75258 -1.44926,1.29279 -2.62654,1.62063 l 4.43717,7.44372 -1.36356,0 -4.21364,-7.11959 -4.05716,0 m 0,-0.98356 3.11831,0 c 1.37846,10e-6 2.4477,-0.30549 3.20773,-0.91649 0.76001,-0.61844 1.14002,-1.52748 1.14003,-2.72713 -10e-6,-1.24434 -0.37257,-2.14965 -1.11767,-2.71596 -0.74513,-0.56627 -1.95967,-0.84941 -3.64363,-0.84943 l -2.70477,0 0,7.20901"
             style="font-size:22.89000511px;font-style:normal;font-variant:normal;font-weight:300;font-stretch:normal;text-align:start;line-height:125%;letter-spacing:1.42631257px;word-spacing:0px;writing-mode:lr-tb;text-anchor:start;fill:#008000;fill-opacity:1;stroke:none;font-family:Open Sans;-inkscape-font-specification:Open Sans Light"
             id="path4745"
             inkscape:connector-curvature="0" />
          <path
             d="m 731.20598,919.3244 -8.93023,0 0,-16.34042 8.93023,0 0,1.05061 -7.7902,0 0,6.18075 7.35431,0 0,1.05062 -7.35431,0 0,7.00783 7.7902,0 0,1.05061"
             style="font-size:22.89000511px;font-style:normal;font-variant:normal;font-weight:300;font-stretch:normal;text-align:start;line-height:125%;letter-spacing:1.42631257px;word-spacing:0px;writing-mode:lr-tb;text-anchor:start;fill:#008000;fill-opacity:1;stroke:none;font-family:Open Sans;-inkscape-font-specification:Open Sans Light"
             id="path4749"
             inkscape:connector-curvature="0" />
          <path
             d="m 745.28439,919.3244 -8.93024,0 0,-16.34042 8.93024,0 0,1.05061 -7.79021,0 0,6.18075 7.35431,0 0,1.05062 -7.35431,0 0,7.00783 7.79021,0 0,1.05061"
             style="font-size:22.89000511px;font-style:normal;font-variant:normal;font-weight:300;font-stretch:normal;text-align:start;line-height:125%;letter-spacing:1.42631257px;word-spacing:0px;writing-mode:lr-tb;text-anchor:start;fill:#008000;fill-opacity:1;stroke:none;font-family:Open Sans;-inkscape-font-specification:Open Sans Light"
             id="path4751"
             inkscape:connector-curvature="0" />
          <path
             d="m 762.31346,919.3244 -1.15121,0 -9.67907,-14.50743 -0.0894,0 c 0.0894,1.72868 0.13412,3.03264 0.13412,3.91186 l 0,10.59557 -1.09532,0 0,-16.34042 1.14003,0 9.6679,14.48508 0.0671,0 c -0.0671,-1.34121 -0.1006,-2.61536 -0.10059,-3.82245 l 0,-10.66263 1.1065,0 0,16.34042"
             style="font-size:22.89000511px;font-style:normal;font-variant:normal;font-weight:300;font-stretch:normal;text-align:start;line-height:125%;letter-spacing:1.42631257px;word-spacing:0px;writing-mode:lr-tb;text-anchor:start;fill:#008000;fill-opacity:1;stroke:none;font-family:Open Sans;-inkscape-font-specification:Open Sans Light"
             id="path4753"
             inkscape:connector-curvature="0" />
        </g>
        <path
           style="fill:#008000;fill-opacity:1;stroke:none"
           d="m 1644.3008,1542.3732 c -2.8572,0.035 -5.3818,0.102 -7.2247,0.2407 -31.9328,2.4034 -57.8014,13.3453 -77.3039,32.7037 -22.3137,22.1486 -34.5347,51.8534 -37.52,91.2233 -0.9229,12.1711 -0.469,31.3279 1.0113,43.8778 6.0243,51.0744 30.7388,87.6685 70.6572,104.5649 12.2498,5.1854 26.1484,8.3607 42.9625,9.8254 3.6907,0.3218 22.7415,0.2159 26.7796,-0.1443 26.4344,-2.3582 48.3168,-10.6274 66.6595,-25.2382 7.3591,-5.8618 17.0484,-16.5215 22.6854,-24.9491 13.5069,-20.194 20.5877,-41.4565 23.6487,-71.1388 0.6624,-6.4696 0.6656,-32.772 0,-39.4949 -3.1063,-31.3772 -11.5895,-55.3466 -26.683,-75.5218 -19.4232,-25.9623 -45.7962,-40.6718 -80.9163,-45.1299 -4.6731,-0.5934 -16.1854,-0.9262 -24.7563,-0.8188 z m -358.6322,3.7567 0,137.9428 0,137.9911 55.3891,-0.1927 c 59.1793,-0.1901 58.9989,-0.1732 70.609,-2.1673 30.3633,-5.2157 52.9889,-20.5516 64.6364,-43.7816 5.0016,-9.9746 7.6363,-21.3561 8.0918,-35.2563 0.9144,-27.9112 -9.9952,-49.6535 -31.4031,-62.6137 -1.7316,-1.0482 -3.1728,-1.9854 -3.1789,-2.1192 -0.01,-0.1338 0.6501,-0.7547 1.4449,-1.3487 9.4784,-7.0836 17.1546,-17.8407 21.0961,-29.6209 2.6618,-7.9559 3.6589,-14.6053 3.6604,-24.4676 0,-27.2455 -10.5628,-47.2556 -31.4032,-59.5313 -10.7569,-6.3361 -25.7158,-10.8337 -44.0223,-13.149 -12.0747,-1.527 -19.144,-1.6795 -67.8155,-1.6856 l -47.1047,0 z m 505.8224,0 0.7227,1.0596 c 7.0304,10.7101 83.7371,128.9685 84.2876,129.9476 l 0.7706,1.3967 -45.5153,71.5723 c -25.0443,39.3635 -45.5635,71.6243 -45.5635,71.7169 0,0.093 13.7412,0.1598 30.5362,0.1443 l 30.5362,0 30.4398,-48.9831 c 16.742,-26.942 30.6216,-49.0142 30.8254,-49.0312 0.2034,-0.016 13.8402,22.0206 30.2954,48.9351 l 29.9099,48.9349 31.6442,0.097 c 17.4083,0.054 31.6439,0 31.6439,-0.097 0,-0.1003 -20.5319,-32.601 -45.6598,-72.2465 -25.1279,-39.646 -45.6313,-72.2258 -45.5634,-72.3912 0.067,-0.1656 19.2993,-29.6157 42.7698,-65.4555 23.4705,-35.8397 42.6737,-65.2881 42.6737,-65.4072 0,-0.1191 -13.8281,-0.202 -30.7288,-0.1927 l -30.729,0 -27.55,43.7332 c -15.1525,24.0342 -27.692,43.644 -27.887,43.5889 -0.1954,-0.055 -12.6556,-19.745 -27.6948,-43.7333 l -27.3573,-43.5888 -31.4032,0 -31.4033,0 z m -140.9289,47.9718 c 9.333,0.01 11.1853,0.1342 15.557,0.915 19.0892,3.4094 32.0627,11.8821 41.3734,27.0685 6.8049,11.0991 10.9373,25.3844 12.6673,43.6369 0.8392,8.8558 0.8397,27.0085 0,35.8825 -2.4038,25.392 -9.2657,43.177 -21.3849,55.2928 -9.256,9.2526 -21.1298,14.5834 -36.6534,16.5203 -3.5339,0.4412 -15.6658,0.8274 -18.4951,0.578 -15.7983,-1.3923 -25.4742,-4.3565 -35.0637,-10.7405 -16.8138,-11.1939 -26.482,-31.131 -29.5247,-60.88 -0.8035,-7.8554 -0.9174,-27.7163 -0.1927,-35.6416 2.3338,-25.5206 9.6297,-43.6777 22.5409,-56.1597 7.3262,-7.0827 15.8987,-11.6686 26.8276,-14.3048 7.9108,-1.9082 10.7978,-2.1781 22.3483,-2.1674 z m -310.1789,2.8898 19.2177,0 c 10.5655,0 21.4457,0.1679 24.1786,0.3855 13.6639,1.0875 23.9542,3.9633 29.6211,8.3323 5.3821,4.1497 7.6769,11.8569 6.743,22.5409 -1.3911,15.9124 -7.8589,21.2807 -28.8987,24.0821 -3.3941,0.4521 -9.8638,0.6276 -27.6463,0.7708 l -23.2154,0.1926 0,-28.128 0,-28.1762 z m 0,106.2507 23.4081,0.1926 c 13.3047,0.1129 25.0708,0.3802 27.2609,0.6261 22.75,2.5561 33.6034,9.7262 35.9788,23.7453 0.7511,4.4319 0.8647,8.1726 0.4336,12.8597 -0.8748,9.5105 -2.9284,14.6262 -7.8508,19.5067 -6.8391,6.7805 -16.8117,10.0563 -33.4744,10.9815 -3.6627,0.2035 -15.4462,0.3853 -26.2013,0.3853 l -19.5549,0 0,-34.1487 0,-34.1485 z"
           id="path4755"
           inkscape:connector-curvature="0" />
      </g>
      <text
         xml:space="preserve"
         style="font-size:3.84668517px;font-style:normal;font-variant:normal;font-weight:normal;font-stretch:normal;text-align:start;line-height:125%;letter-spacing:4.70430565px;word-spacing:0px;writing-mode:lr-tb;text-anchor:start;fill:#008000;fill-opacity:1;stroke:none;font-family:Open Sans;-inkscape-font-specification:Open Sans"
         x="444.25125"
         y="541.43518"
         id="text4757"
         sodipodi:linespacing="125%"><tspan
           sodipodi:role="line"
           id="tspan4759"
           x="444.25125"
           y="541.43518">INDONESIA</tspan></text>
    </g>
    <g
       id="g5607"
       transform="matrix(2.6850511,0,0,2.6850511,2746.2275,708.05677)"
       style="fill:#666666;fill-opacity:1"
       inkscape:export-filename="/home/aank/rect7874.png"
       inkscape:export-xdpi="72"
       inkscape:export-ydpi="72">
      <g
         inkscape:export-ydpi="72"
         inkscape:export-xdpi="72"
         inkscape:export-filename="/home/aank/rect7874.png"
         transform="matrix(1.3615673,0,0,1.3615673,-1133.7636,-453.25755)"
         id="g5609"
         style="fill:#666666;fill-opacity:1">
        <g
           transform="matrix(0.53948405,0,0,0.53948405,60.69758,173.91653)"
           id="g5611"
           style="fill:#666666;fill-opacity:1">
          <path
             sodipodi:nodetypes="cssscsccsccscccccccccccccccccscccccccccccccsscscsssscccccccscscccccccccccccc"
             inkscape:connector-curvature="0"
             id="path5613"
             d="m 133.53071,324.74088 c -2.70111,-0.006 -5.4093,0.19709 -8.03816,0.6087 -15.86724,2.48437 -29.784322,12.66187 -37.001112,27.05852 -2.69282,5.3718 -4.14325,10.20828 -5.07303,16.91554 -0.2819,2.03361 -0.23539,9.68976 0.0723,11.86362 1.24075,8.76462 4.13822,16.17917 8.9497,22.90309 4.27367,5.97233 9.400192,10.62621 15.957282,14.48526 0.86253,0.50761 1.58278,0.87961 1.6001,0.82566 0.0175,-0.054 0.52204,-2.88473 1.12247,-6.2904 1.0905,-6.18532 1.09136,-6.19372 0.88595,-6.98649 -0.29333,-1.13193 -0.48762,-3.42129 -0.39325,-4.61799 0.17044,-2.16078 0.37773,-2.98362 2.30825,-9.13652 1.05397,-3.35919 1.59005,-5.20657 1.52778,-5.26888 -0.0203,-0.0203 -0.67044,0.0303 -1.44342,0.1115 -1.30646,0.13727 -1.42315,0.12997 -1.65735,-0.10848 -0.633,-0.64453 -16.355822,-22.64513 -16.312862,-22.82626 0.0641,-0.27019 16.439252,-25.51844 16.788962,-25.88632 l 33.64124,-3.70494 c 0.0492,-5.2e-4 0.36652,0.65822 0.70512,1.4645 0.51143,1.2177 3.9238,9.97417 4.89823,12.57026 l 0.27723,0.73978 0.25311,-0.49118 c 0.46389,-0.9042 4.27029,-11.49896 4.75661,-13.23922 l 0.26067,-0.93113 -0.3375,-0.51077 c -0.18563,-0.2805 -0.41144,-0.86223 -0.50174,-1.29274 -0.1422,-0.67812 -0.13228,-0.86703 0.0738,-1.42079 0.13086,-0.35157 0.25131,-0.68926 0.26819,-0.75033 0.0169,-0.0611 -0.55309,-0.41325 -1.2656,-0.78198 -3.85104,-1.99283 -8.72434,-3.63639 -13.295,-4.48238 -2.91488,-0.53952 -5.96679,-0.81317 -9.02804,-0.81963 z m 28.72792,9.09735 -0.50924,0.57254 c -0.39399,0.44345 -0.7233,0.6453 -1.46148,0.89346 l -0.95374,0.32093 -3.17156,7.80914 -3.17007,7.80914 1.99787,5.2297 1.99635,5.22819 -1.46299,8.95873 c -1.51801,9.29162 -2.44815,14.64517 -2.58397,14.86494 -0.10283,0.16641 -1.71786,0.29213 -4.14186,0.32243 -1.0688,0.0134 -1.94363,0.0538 -1.94363,0.0904 0,0.0366 0.91477,1.97432 2.03252,4.30611 2.62352,5.47306 3.45676,7.59082 4.16446,10.58143 0.40649,1.71766 0.62075,3.37212 0.62075,4.78071 0,1.97708 0.91602,4.57639 4.28501,12.16195 0.19155,0.43126 0.3777,0.78498 0.41285,0.78498 0.11442,0 1.43177,-0.80514 2.71051,-1.65585 10.41427,-6.92827 18.01213,-17.59868 21.00769,-29.50538 4.03508,-16.03849 0.0615,-32.83646 -10.708,-45.27432 -2.25291,-2.60192 -5.44333,-5.56339 -8.13156,-7.54849 z m -42.56228,5.53706 c -0.64362,-7.8e-4 -1.37544,0.12425 -1.96472,0.36914 -3.2097,1.33393 -7.0573,5.65939 -8.03968,9.03859 -0.28176,0.96927 -0.2938,2.46784 -0.0255,3.1098 0.25236,0.60395 0.71596,1.04238 1.24604,1.17973 0.51644,0.13383 1.78347,-0.0348 2.55383,-0.34051 4.12986,-1.6389 8.43224,-7.21974 8.43141,-10.93551 0,-1.03387 -0.26439,-1.6867 -0.86183,-2.12442 -0.27168,-0.19905 -0.77155,-0.29624 -1.33944,-0.29682 z m 13.04637,71.12299 c -0.44171,10e-4 -2.01314,0.30107 -2.90037,0.56952 -0.89309,0.27024 -0.98946,0.33423 -0.99441,0.65391 -0.003,0.19464 0.25574,3.28038 0.57555,6.85842 l 0.58159,6.50586 0.34503,0.0542 c 0.18946,0.0296 0.97295,0.0626 1.74171,0.0738 l 1.39822,0.0211 0.003,-0.58008 c 0.003,-1.05538 -0.58095,-14.07927 -0.63431,-14.13872 -0.0117,-0.013 -0.0514,-0.0182 -0.1145,-0.0181 z"
             style="fill:#666666;fill-opacity:1;stroke:none" />
          <path
             transform="matrix(0.56533957,0.67256252,-0.71457997,0.76951568,304.5288,-11.838392)"
             d="m 136.75,346.12573 a 3.296875,5.9375 0 0 1 -3.29688,5.9375 3.296875,5.9375 0 0 1 -3.29687,-5.9375 3.296875,5.9375 0 0 1 3.29687,-5.9375 3.296875,5.9375 0 0 1 3.29688,5.9375 z"
             sodipodi:ry="5.9375"
             sodipodi:rx="3.296875"
             sodipodi:cy="346.12573"
             sodipodi:cx="133.45312"
             id="path5616"
             style="fill:#666666;fill-opacity:1;stroke:none"
             sodipodi:type="arc" />
        </g>
      </g>
      <g
         inkscape:export-ydpi="72"
         inkscape:export-xdpi="72"
         inkscape:export-filename="/home/aank/rect7874.png"
         id="g5618"
         transform="matrix(0.78182524,0,0,0.78182524,-1323.002,-310.66605)"
         style="fill:#666666;fill-opacity:1">
        <g
           id="g5620"
           transform="matrix(0.04378079,0,0,0.04378079,429.56747,455.13002)"
           style="fill:#666666;fill-opacity:1">
          <g
             transform="matrix(16.885569,0,0,16.885569,-11687.289,-13701.257)"
             id="g5622"
             style="fill:#666666;fill-opacity:1">
            <path
               inkscape:connector-curvature="0"
               id="path5624"
               style="font-size:22.89000511px;font-style:normal;font-variant:normal;font-weight:300;font-stretch:normal;text-align:start;line-height:125%;letter-spacing:1.42631257px;word-spacing:0px;writing-mode:lr-tb;text-anchor:start;fill:#666666;fill-opacity:1;stroke:none;font-family:Open Sans;-inkscape-font-specification:Open Sans Light"
               d="m 695.71722,911.08713 6.02427,0 0,7.4549 c -1.57966,0.6706 -3.35676,1.00591 -5.33131,1.00591 -2.57812,0 -4.5564,-0.72649 -5.93486,-2.17947 -1.37102,-1.46043 -2.05653,-3.5244 -2.05653,-6.19193 0,-1.6616 0.33903,-3.1332 1.01709,-4.41482 0.6855,-1.28904 1.6616,-2.28377 2.92831,-2.98419 1.27414,-0.7004 2.73457,-1.0506 4.38129,-1.05062 1.78082,2e-5 3.37909,0.32787 4.79483,0.98356 l -0.45825,1.02826 c -1.41573,-0.65569 -2.88361,-0.98354 -4.40364,-0.98356 -2.1534,2e-5 -3.86344,0.6669 -5.13014,2.00064 -1.25925,1.32633 -1.88887,3.11833 -1.88887,5.37603 0,2.45889 0.59982,4.3105 1.79946,5.55485 1.19963,1.23689 2.96183,1.85534 5.28661,1.85534 1.50512,0 2.783,-0.21236 3.83363,-0.63708 l 0,-5.74485 -4.86189,0 0,-1.07297" />
            <path
               inkscape:connector-curvature="0"
               id="path5626"
               style="font-size:22.89000511px;font-style:normal;font-variant:normal;font-weight:300;font-stretch:normal;text-align:start;line-height:125%;letter-spacing:1.42631257px;word-spacing:0px;writing-mode:lr-tb;text-anchor:start;fill:#666666;fill-opacity:1;stroke:none;font-family:Open Sans;-inkscape-font-specification:Open Sans Light"
               d="m 708.39853,912.20481 0,7.11959 -1.14003,0 0,-16.34042 3.88951,0 c 2.02671,10e-6 3.5244,0.3763 4.49306,1.12885 0.96864,0.74513 1.45296,1.87026 1.45298,3.37538 -2e-5,1.09534 -0.29061,2.01928 -0.87179,2.77184 -0.57375,0.75258 -1.44926,1.29279 -2.62654,1.62063 l 4.43717,7.44372 -1.36356,0 -4.21364,-7.11959 -4.05716,0 m 0,-0.98356 3.11831,0 c 1.37846,10e-6 2.4477,-0.30549 3.20773,-0.91649 0.76001,-0.61844 1.14002,-1.52748 1.14003,-2.72713 -10e-6,-1.24434 -0.37257,-2.14965 -1.11767,-2.71596 -0.74513,-0.56627 -1.95967,-0.84941 -3.64363,-0.84943 l -2.70477,0 0,7.20901" />
            <path
               inkscape:connector-curvature="0"
               id="path5628"
               style="font-size:22.89000511px;font-style:normal;font-variant:normal;font-weight:300;font-stretch:normal;text-align:start;line-height:125%;letter-spacing:1.42631257px;word-spacing:0px;writing-mode:lr-tb;text-anchor:start;fill:#666666;fill-opacity:1;stroke:none;font-family:Open Sans;-inkscape-font-specification:Open Sans Light"
               d="m 731.20598,919.3244 -8.93023,0 0,-16.34042 8.93023,0 0,1.05061 -7.7902,0 0,6.18075 7.35431,0 0,1.05062 -7.35431,0 0,7.00783 7.7902,0 0,1.05061" />
            <path
               inkscape:connector-curvature="0"
               id="path5630"
               style="font-size:22.89000511px;font-style:normal;font-variant:normal;font-weight:300;font-stretch:normal;text-align:start;line-height:125%;letter-spacing:1.42631257px;word-spacing:0px;writing-mode:lr-tb;text-anchor:start;fill:#666666;fill-opacity:1;stroke:none;font-family:Open Sans;-inkscape-font-specification:Open Sans Light"
               d="m 745.28439,919.3244 -8.93024,0 0,-16.34042 8.93024,0 0,1.05061 -7.79021,0 0,6.18075 7.35431,0 0,1.05062 -7.35431,0 0,7.00783 7.79021,0 0,1.05061" />
            <path
               inkscape:connector-curvature="0"
               id="path5632"
               style="font-size:22.89000511px;font-style:normal;font-variant:normal;font-weight:300;font-stretch:normal;text-align:start;line-height:125%;letter-spacing:1.42631257px;word-spacing:0px;writing-mode:lr-tb;text-anchor:start;fill:#666666;fill-opacity:1;stroke:none;font-family:Open Sans;-inkscape-font-specification:Open Sans Light"
               d="m 762.31346,919.3244 -1.15121,0 -9.67907,-14.50743 -0.0894,0 c 0.0894,1.72868 0.13412,3.03264 0.13412,3.91186 l 0,10.59557 -1.09532,0 0,-16.34042 1.14003,0 9.6679,14.48508 0.0671,0 c -0.0671,-1.34121 -0.1006,-2.61536 -0.10059,-3.82245 l 0,-10.66263 1.1065,0 0,16.34042" />
          </g>
          <path
             inkscape:connector-curvature="0"
             id="path5634"
             d="m 1644.3008,1542.3732 c -2.8572,0.035 -5.3818,0.102 -7.2247,0.2407 -31.9328,2.4034 -57.8014,13.3453 -77.3039,32.7037 -22.3137,22.1486 -34.5347,51.8534 -37.52,91.2233 -0.9229,12.1711 -0.469,31.3279 1.0113,43.8778 6.0243,51.0744 30.7388,87.6685 70.6572,104.5649 12.2498,5.1854 26.1484,8.3607 42.9625,9.8254 3.6907,0.3218 22.7415,0.2159 26.7796,-0.1443 26.4344,-2.3582 48.3168,-10.6274 66.6595,-25.2382 7.3591,-5.8618 17.0484,-16.5215 22.6854,-24.9491 13.5069,-20.194 20.5877,-41.4565 23.6487,-71.1388 0.6624,-6.4696 0.6656,-32.772 0,-39.4949 -3.1063,-31.3772 -11.5895,-55.3466 -26.683,-75.5218 -19.4232,-25.9623 -45.7962,-40.6718 -80.9163,-45.1299 -4.6731,-0.5934 -16.1854,-0.9262 -24.7563,-0.8188 z m -358.6322,3.7567 0,137.9428 0,137.9911 55.3891,-0.1927 c 59.1793,-0.1901 58.9989,-0.1732 70.609,-2.1673 30.3633,-5.2157 52.9889,-20.5516 64.6364,-43.7816 5.0016,-9.9746 7.6363,-21.3561 8.0918,-35.2563 0.9144,-27.9112 -9.9952,-49.6535 -31.4031,-62.6137 -1.7316,-1.0482 -3.1728,-1.9854 -3.1789,-2.1192 -0.01,-0.1338 0.6501,-0.7547 1.4449,-1.3487 9.4784,-7.0836 17.1546,-17.8407 21.0961,-29.6209 2.6618,-7.9559 3.6589,-14.6053 3.6604,-24.4676 0,-27.2455 -10.5628,-47.2556 -31.4032,-59.5313 -10.7569,-6.3361 -25.7158,-10.8337 -44.0223,-13.149 -12.0747,-1.527 -19.144,-1.6795 -67.8155,-1.6856 l -47.1047,0 z m 505.8224,0 0.7227,1.0596 c 7.0304,10.7101 83.7371,128.9685 84.2876,129.9476 l 0.7706,1.3967 -45.5153,71.5723 c -25.0443,39.3635 -45.5635,71.6243 -45.5635,71.7169 0,0.093 13.7412,0.1598 30.5362,0.1443 l 30.5362,0 30.4398,-48.9831 c 16.742,-26.942 30.6216,-49.0142 30.8254,-49.0312 0.2034,-0.016 13.8402,22.0206 30.2954,48.9351 l 29.9099,48.9349 31.6442,0.097 c 17.4083,0.054 31.6439,0 31.6439,-0.097 0,-0.1003 -20.5319,-32.601 -45.6598,-72.2465 -25.1279,-39.646 -45.6313,-72.2258 -45.5634,-72.3912 0.067,-0.1656 19.2993,-29.6157 42.7698,-65.4555 23.4705,-35.8397 42.6737,-65.2881 42.6737,-65.4072 0,-0.1191 -13.8281,-0.202 -30.7288,-0.1927 l -30.729,0 -27.55,43.7332 c -15.1525,24.0342 -27.692,43.644 -27.887,43.5889 -0.1954,-0.055 -12.6556,-19.745 -27.6948,-43.7333 l -27.3573,-43.5888 -31.4032,0 -31.4033,0 z m -140.9289,47.9718 c 9.333,0.01 11.1853,0.1342 15.557,0.915 19.0892,3.4094 32.0627,11.8821 41.3734,27.0685 6.8049,11.0991 10.9373,25.3844 12.6673,43.6369 0.8392,8.8558 0.8397,27.0085 0,35.8825 -2.4038,25.392 -9.2657,43.177 -21.3849,55.2928 -9.256,9.2526 -21.1298,14.5834 -36.6534,16.5203 -3.5339,0.4412 -15.6658,0.8274 -18.4951,0.578 -15.7983,-1.3923 -25.4742,-4.3565 -35.0637,-10.7405 -16.8138,-11.1939 -26.482,-31.131 -29.5247,-60.88 -0.8035,-7.8554 -0.9174,-27.7163 -0.1927,-35.6416 2.3338,-25.5206 9.6297,-43.6777 22.5409,-56.1597 7.3262,-7.0827 15.8987,-11.6686 26.8276,-14.3048 7.9108,-1.9082 10.7978,-2.1781 22.3483,-2.1674 z m -310.1789,2.8898 19.2177,0 c 10.5655,0 21.4457,0.1679 24.1786,0.3855 13.6639,1.0875 23.9542,3.9633 29.6211,8.3323 5.3821,4.1497 7.6769,11.8569 6.743,22.5409 -1.3911,15.9124 -7.8589,21.2807 -28.8987,24.0821 -3.3941,0.4521 -9.8638,0.6276 -27.6463,0.7708 l -23.2154,0.1926 0,-28.128 0,-28.1762 z m 0,106.2507 23.4081,0.1926 c 13.3047,0.1129 25.0708,0.3802 27.2609,0.6261 22.75,2.5561 33.6034,9.7262 35.9788,23.7453 0.7511,4.4319 0.8647,8.1726 0.4336,12.8597 -0.8748,9.5105 -2.9284,14.6262 -7.8508,19.5067 -6.8391,6.7805 -16.8117,10.0563 -33.4744,10.9815 -3.6627,0.2035 -15.4462,0.3853 -26.2013,0.3853 l -19.5549,0 0,-34.1487 0,-34.1485 z"
             style="fill:#666666;fill-opacity:1;stroke:none" />
        </g>
        <text
           sodipodi:linespacing="125%"
           id="text5636"
           y="541.43518"
           x="444.25125"
           style="font-size:3.84668517px;font-style:normal;font-variant:normal;font-weight:normal;font-stretch:normal;text-align:start;line-height:125%;letter-spacing:4.70430565px;word-spacing:0px;writing-mode:lr-tb;text-anchor:start;fill:#666666;fill-opacity:1;stroke:none;font-family:Open Sans;-inkscape-font-specification:Open Sans"
           xml:space="preserve"><tspan
             y="541.43518"
             x="444.25125"
             id="tspan5638"
             sodipodi:role="line">INDONESIA</tspan></text>
      </g>
    </g>
    <g
       inkscape:export-ydpi="72"
       inkscape:export-xdpi="72"
       inkscape:export-filename="/home/aank/rect7874.png"
       style="fill:#008000"
       transform="matrix(1.8109078,0,0,1.8109078,187.76079,407.04699)"
       id="g4638">
      <path
         sodipodi:nodetypes="cccccccccccccccccccc"
         inkscape:connector-curvature="0"
         style="fill:#008000;fill-opacity:1;fill-rule:evenodd;stroke:none"
         d="m 385.21453,301.32904 42.46586,-23.91623 0,-41.68346 -26.61291,-15.43813 0,16.00605 16.35122,9.18525 -0.0208,14.87192 -19.95386,-11.18318 0,-40.98748 -12.20987,-6.86227 0,54.92506 0.0274,22.65131 -11.82699,8.24187 0,-55.15777 -22.05248,13.95961 0.002,14.12925 18.36358,-11.33813 0,12.22723 -26.77457,16.45102 z"
         id="path4640" />
      <g
         style="fill:#008000"
         id="g4642"
         transform="matrix(0.95155427,0,0,0.95155427,16.677349,14.495773)">
        <g
           transform="matrix(0.54832119,0,0,0.54832119,315.28771,307.46465)"
           id="g4644"
           style="fill:#008000;fill-opacity:1">
          <path
             inkscape:connector-curvature="0"
             id="path4646"
             style="font-size:28.45718193px;font-style:normal;font-variant:normal;font-weight:600;font-stretch:normal;line-height:125%;letter-spacing:0.60000002px;word-spacing:0px;fill:#008000;fill-opacity:1;stroke:none;font-family:NanumBarunGothic;-inkscape-font-specification:NanumBarunGothic Semi-Bold"
             d="m 70.00456,14.870644 c -0.853733,-0.929585 -1.811791,-1.603071 -2.874176,-2.02046 -1.043444,-0.436325 -2.172245,-0.654497 -3.386404,-0.654515 -1.043441,1.8e-5 -2.010985,0.189733 -2.902633,0.569144 -0.872695,0.360475 -1.641038,0.891675 -2.305032,1.593602 -0.645035,0.701959 -1.157264,1.565159 -1.536688,2.589603 -0.360462,1.024471 -0.540691,2.2007 -0.540686,3.528691 -5e-6,2.712925 0.597595,4.799783 1.792802,6.26058 1.214166,1.460804 3.054395,2.191204 5.520694,2.191203 0.853702,1e-6 1.517703,-0.08537 1.992002,-0.256115 0.474272,-0.189712 0.872672,-0.445827 1.195202,-0.768343 l 0,-4.980007 -4.780806,0 0,-2.988004 8.366411,0 0,9.874642 c -1.195219,0.720915 -2.380934,1.233144 -3.557148,1.536688 -1.176244,0.322513 -2.390416,0.48377 -3.642519,0.483772 -1.726412,-2e-6 -3.244127,-0.275088 -4.553149,-0.825259 -1.309036,-0.531201 -2.40938,-1.290058 -3.301033,-2.276574 -0.87269,-0.986513 -1.53669,-2.172228 -1.992003,-3.557148 -0.455316,-1.403881 -0.682973,-2.959539 -0.682972,-4.666978 -1e-6,-1.707419 0.265599,-3.253591 0.796801,-4.63852 0.55017,-1.384901 1.299541,-2.56113 2.248117,-3.528691 0.948568,-0.967525 2.077368,-1.707411 3.386405,-2.21966 1.309021,-0.5311801 2.731879,-0.7967801 4.268577,-0.7968011 1.309017,2.1e-5 2.542161,0.161278 3.699434,0.483772 1.157242,0.3225351 2.219642,0.8442491 3.187204,1.5651451 l 0,3.301033 c -0.235857,0.14724 -0.375326,0.187658 -0.3984,0.199195"
             sodipodi:nodetypes="ccccccscsccccccccscccscccccccc" />
          <path
             inkscape:connector-curvature="0"
             id="path4648"
             style="font-size:28.45718193px;font-style:normal;font-variant:normal;font-weight:600;font-stretch:normal;line-height:125%;letter-spacing:0.60000002px;word-spacing:0px;fill:#008000;fill-opacity:1;stroke:none;font-family:NanumBarunGothic;-inkscape-font-specification:NanumBarunGothic Semi-Bold"
             d="m 84.72056,22.523024 0,0.05691 5.406864,9.163213 -4.382406,0 -4.297034,-8.537155 -2.988004,0 0,8.537155 -3.585605,0 0,-21.9974016 6.345951,0 c 1.271078,2.07e-5 2.390393,0.1612779 3.357948,0.4837716 0.986503,0.322535 1.81176,0.768364 2.475775,1.337488 0.663985,0.569162 1.166729,1.252134 1.50823,2.048917 0.360442,0.796817 0.54067,1.660018 0.540687,2.589604 -1.7e-5,0.8727 -0.113845,1.650529 -0.341486,2.333489 -0.208702,0.682983 -0.512245,1.290069 -0.91063,1.821259 -0.398416,0.512239 -0.863216,0.948582 -1.394402,1.309031 -0.531214,0.341494 -1.109843,0.626066 -1.735888,0.853715 m 0.739886,-6.232123 c -1.2e-5,-1.195186 -0.36047,-2.086844 -1.081372,-2.674975 -0.720927,-0.607069 -1.631556,-0.910612 -2.73189,-0.91063 l -3.215661,0 0,7.654982 2.475774,0 c 0.777821,10e-6 1.451307,-0.0569 2.02046,-0.170743 0.569133,-0.13279 1.043419,-0.350961 1.422859,-0.654515 0.379417,-0.322504 0.654503,-0.739875 0.825259,-1.252116 0.189701,-0.531188 0.284559,-1.195188 0.284571,-1.992003" />
          <path
             inkscape:connector-curvature="0"
             id="path4650"
             style="font-size:28.45718193px;font-style:normal;font-variant:normal;font-weight:600;font-stretch:normal;line-height:125%;letter-spacing:0.60000002px;word-spacing:0px;fill:#008000;fill-opacity:1;stroke:none;font-family:NanumBarunGothic;-inkscape-font-specification:NanumBarunGothic Semi-Bold"
             d="m 106.75949,31.743151 -13.94402,0 0,-21.9974016 13.94402,0 0,2.9880036 -10.386872,0 0,5.577608 9.675442,0 0,2.959547 -9.675442,0 0,7.484239 10.386872,0 0,2.988004" />
          <path
             inkscape:connector-curvature="0"
             id="path4652"
             style="font-size:28.45718193px;font-style:normal;font-variant:normal;font-weight:600;font-stretch:normal;line-height:125%;letter-spacing:0.60000002px;word-spacing:0px;fill:#008000;fill-opacity:1;stroke:none;font-family:NanumBarunGothic;-inkscape-font-specification:NanumBarunGothic Semi-Bold"
             d="m 124.31152,31.743151 -13.94402,0 0,-21.9974016 13.94402,0 0,2.9880036 -10.38687,0 0,5.577608 9.67544,0 0,2.959547 -9.67544,0 0,7.484239 10.38687,0 0,2.988004" />
          <path
             inkscape:connector-curvature="0"
             id="path4654"
             style="font-size:28.45718193px;font-style:normal;font-variant:normal;font-weight:600;font-stretch:normal;line-height:125%;letter-spacing:0.60000002px;word-spacing:0px;fill:#008000;fill-opacity:1;stroke:none;font-family:NanumBarunGothic;-inkscape-font-specification:NanumBarunGothic Semi-Bold"
             d="m 139.64389,25.112628 0.7968,2.447317 -0.0285,-2.447317 0,-15.3668786 3.38641,0 0,21.9974016 -4.72389,0 -7.00047,-15.366878 -0.7968,-2.447318 0.0285,2.447318 0,15.366878 -3.38641,0 0,-21.9974016 4.72389,0 7.00047,15.3668786" />
          <g
             id="g4656"
             style="fill:#008000;fill-opacity:1;stroke:none">
            <path
               d="m 155.46671,12.050781 -4.04092,0 0,6.744352 3.75635,0 c 1.3849,1.2e-5 2.47576,-0.265588 3.27257,-0.796801 0.81576,-0.531188 1.22365,-1.451302 1.22366,-2.760347 -1e-5,-1.13827 -0.35098,-1.954042 -1.05291,-2.447317 -0.70196,-0.49324 -1.75487,-0.739868 -3.15875,-0.739887 m -0.0854,8.821727 -3.95555,0 0,8.48024 4.46778,0 c 1.53667,1e-6 2.70342,-0.379428 3.50023,-1.138288 0.81576,-0.758855 1.22365,-1.783312 1.22366,-3.073375 -1e-5,-1.365938 -0.42687,-2.418853 -1.28057,-3.158747 -0.85373,-0.739878 -2.17225,-1.109821 -3.95555,-1.10983 m 0.85371,10.614528 -7.28503,0 0,-21.5420864 7.19966,0 c 1.00548,2.06e-5 1.88765,0.1328204 2.64652,0.3984004 0.77782,0.246649 1.43233,0.588135 1.96355,1.024459 0.53118,0.436362 0.92958,0.948591 1.1952,1.536688 0.26558,0.588132 0.39838,1.214189 0.3984,1.878174 -2e-5,1.195216 -0.3415,2.229159 -1.02446,3.101832 -0.68299,0.853728 -1.62207,1.451328 -2.81726,1.792803 l 0,0.05691 c 0.73987,0.09487 1.40387,0.294068 1.992,0.597601 0.60707,0.303553 1.1193,0.692468 1.53669,1.166745 0.43633,0.455323 0.76833,0.996009 0.996,1.622059 0.24661,0.626065 0.36993,1.309036 0.36994,2.048917 -1e-5,0.777834 -0.1423,1.546177 -0.42685,2.305032 -0.28459,0.75886 -0.73042,1.441832 -1.33749,2.048917 -0.58813,0.588115 -1.3375,1.062401 -2.24812,1.422859 -0.89167,0.360457 -1.94458,0.540685 -3.15875,0.540686"
               style="font-size:28.45718193px;font-style:normal;font-variant:normal;font-weight:normal;font-stretch:normal;line-height:125%;letter-spacing:0.60000002px;word-spacing:0px;fill:#008000;fill-opacity:1;stroke:none;font-family:NanumBarunGothic;-inkscape-font-specification:NanumBarunGothic"
               id="path4658"
               inkscape:connector-curvature="0" />
            <path
               d="m 175.61546,31.743151 c -1.49876,-1e-6 -2.83624,-0.275087 -4.01247,-0.825258 -1.15726,-0.550172 -2.14378,-1.318516 -2.95954,-2.305032 -0.79681,-0.986513 -1.41338,-2.14377 -1.84972,-3.471776 -0.41737,-1.346967 -0.62606,-2.807767 -0.62606,-4.382406 0,-1.57462 0.20869,-3.03542 0.62606,-4.382406 0.43634,-1.346958 1.05291,-2.513701 1.84972,-3.500234 0.81576,-1.005468 1.80228,-1.783297 2.95954,-2.333489 1.17623,-0.5691227 2.51371,-0.8536942 4.01247,-0.853715 1.49873,2.08e-5 2.82673,0.2845923 3.984,0.853715 1.17622,0.550192 2.16273,1.328021 2.95955,2.333489 0.81575,0.986533 1.43232,2.153276 1.84971,3.500234 0.43633,1.346986 0.6545,2.807786 0.65452,4.382406 -2e-5,1.574639 -0.21819,3.035439 -0.65452,4.382406 -0.41739,1.328006 -1.03396,2.485263 -1.84971,3.471776 -0.79682,0.986516 -1.78333,1.75486 -2.95955,2.305032 -1.15727,0.550171 -2.48527,0.825257 -3.984,0.825258 m 0,-2.162746 c 1.1193,1e-6 2.09633,-0.21817 2.93109,-0.654515 0.8537,-0.455313 1.56512,-1.071885 2.13428,-1.849717 0.56913,-0.796797 0.99599,-1.735883 1.28058,-2.817261 0.28455,-1.081365 0.42684,-2.257594 0.42685,-3.52869 -1e-5,-1.271077 -0.1423,-2.447306 -0.42685,-3.528691 -0.28459,-1.081359 -0.71145,-2.020445 -1.28058,-2.817261 -0.56916,-0.796784 -1.28058,-1.413356 -2.13428,-1.849717 -0.83476,-0.455296 -1.81179,-0.682954 -2.93109,-0.682972 -1.11933,1.8e-5 -2.10584,0.227676 -2.95955,0.682972 -0.83475,0.436361 -1.5367,1.052933 -2.10583,1.849717 -0.56915,0.796816 -0.99601,1.735902 -1.28058,2.817261 -0.28457,1.081385 -0.42686,2.257614 -0.42685,3.528691 -1e-5,1.271096 0.14228,2.447325 0.42685,3.52869 0.28457,1.081378 0.71143,2.020464 1.28058,2.817261 0.56913,0.777832 1.27108,1.394404 2.10583,1.849717 0.85371,0.436345 1.84022,0.654516 2.95955,0.654515"
               style="font-size:28.45718193px;font-style:normal;font-variant:normal;font-weight:normal;font-stretch:normal;line-height:125%;letter-spacing:0.60000002px;word-spacing:0px;fill:#008000;fill-opacity:1;stroke:none;font-family:NanumBarunGothic;-inkscape-font-specification:NanumBarunGothic"
               id="path4660"
               inkscape:connector-curvature="0" />
            <path
               d="m 196.6028,20.616393 6.80126,10.870643 -2.90263,0 -5.32149,-9.020926 -0.0569,0 -5.52069,9.020926 -2.64652,0 6.82973,-10.728357 0,-0.05692 -6.65898,-10.7568144 2.84571,0 5.29304,8.8786404 0.0569,0 5.37841,-8.8786404 2.67498,0 -6.77281,10.6145294 0,0.05691"
               style="font-size:28.45718193px;font-style:normal;font-variant:normal;font-weight:normal;font-stretch:normal;line-height:125%;letter-spacing:0.60000002px;word-spacing:0px;fill:#008000;fill-opacity:1;stroke:none;font-family:NanumBarunGothic;-inkscape-font-specification:NanumBarunGothic"
               id="path4662"
               inkscape:connector-curvature="0" />
          </g>
        </g>
        <g
           transform="matrix(1.020493,0,0,1.020493,225.64057,290.51043)"
           id="g4664"
           style="fill:#008000;fill-opacity:1">
          <path
             inkscape:connector-curvature="0"
             id="path4666"
             d="m 206.76799,17.458157 c -0.32139,0.778596 -0.76049,1.444023 -1.32633,2.005336 -0.58394,0.552259 -1.24031,0.982297 -2.01439,1.285587 -0.77407,0.30329 -1.60698,0.452672 -2.53496,0.452672 -0.89176,0 -1.72015,-0.153908 -2.50327,-0.452672 -0.76954,-0.307816 -1.4395,-0.737854 -2.0325,-1.285587 -0.54321,-0.556787 -1.00946,-1.22674 -1.30822,-2.005336 -0.33951,-0.774068 -0.507,-1.638672 -0.507,-2.593809 0,-0.946083 0.16749,-1.810687 0.507,-2.580229 0.29876,-0.778595 0.76501,-1.448549 1.30822,-2.009862 0.57489,-0.56584 1.24937,-0.977771 2.0325,-1.290114 0.76501,-0.303291 1.61151,-0.452672 2.50327,-0.452672 0.92345,0 1.76542,0.149381 2.53496,0.452672 0.76502,0.312343 1.41687,0.737854 2.01439,1.290114 0.56584,0.561313 1.00494,1.22674 1.32633,2.009862 0.3214,0.769542 0.47983,1.634146 0.47983,2.580229 0,0.955137 -0.15391,1.815214 -0.47983,2.593809 m -0.7967,-4.830008 c -0.28066,-0.683533 -0.66543,-1.262953 -1.1679,-1.738258 -0.4753,-0.493412 -1.05925,-0.873657 -1.73825,-1.140733 -0.65638,-0.267076 -1.39423,-0.411932 -2.17283,-0.411932 -0.75143,0 -1.46213,0.149382 -2.15019,0.411932 -0.65637,0.271602 -1.23126,0.651847 -1.72468,1.140733 -0.49341,0.475305 -0.89176,1.059251 -1.16789,1.738258 -0.28066,0.683535 -0.43456,1.412336 -0.43456,2.240726 0,0.814809 0.14938,1.575297 0.43456,2.254305 0.2716,0.669954 0.66995,1.258427 1.16789,1.751839 0.48888,0.479833 1.06831,0.851023 1.72468,1.113573 0.68806,0.280657 1.3897,0.416458 2.15019,0.416458 0.77407,0 1.52098,-0.131275 2.17283,-0.416458 0.66995,-0.26255 1.25842,-0.642793 1.73825,-1.113573 0.49795,-0.493412 0.88272,-1.072831 1.1679,-1.751839 0.28518,-0.679008 0.42098,-1.43497 0.42098,-2.254305 0.009,-0.82839 -0.13127,-1.579825 -0.42098,-2.240726"
             sodipodi:nodetypes="ccsscccscccscccsccccscccscccsccccc"
             style="fill:#008000;fill-opacity:1" />
          <g
             style="font-size:12px;font-style:normal;font-variant:normal;font-weight:normal;font-stretch:normal;line-height:125%;letter-spacing:3.3900001px;word-spacing:0px;fill:#008000;fill-opacity:1;stroke:none;font-family:Trebuchet MS;-inkscape-font-specification:Trebuchet MS"
             id="g4668"
             transform="matrix(0.80264737,0,0,0.80264737,134.57196,-46.406331)">
            <path
               d="m 78.998306,80.763496 0,-8.583984 1.171875,0 0,8.583984 -1.171875,0"
               style="letter-spacing:-0.53999889px;fill:#008000;fill-opacity:1"
               id="path4670"
               inkscape:connector-curvature="0" />
            <path
               d="m 83.333307,80.763496 -1.728515,0 0,-8.583984 c 1.10156,-0.03905 1.806638,-0.05859 2.115234,-0.05859 1.199215,9e-6 2.148432,0.365243 2.847656,1.095703 0.699212,0.72657 1.048822,1.695319 1.048828,2.90625 -6e-6,3.093752 -1.427739,4.640625 -4.283203,4.640625 m -0.55664,-7.529296 0,6.416015 c 0.261716,0.03906 0.585935,0.05859 0.972656,0.05859 0.820309,10e-7 1.464839,-0.306639 1.933594,-0.919922 0.468744,-0.617185 0.703119,-1.472653 0.703125,-2.566406 -6e-6,-2.031244 -0.912114,-3.046868 -2.736328,-3.046875 -0.109378,7e-6 -0.400394,0.01954 -0.873047,0.05859"
               style="letter-spacing:-0.53999889px;fill:#008000;fill-opacity:1"
               id="path4672"
               inkscape:connector-curvature="0" />
          </g>
        </g>
      </g>
    </g>
    <g
       id="g5128"
       transform="matrix(2.926267,0,0,2.926267,-1001.9053,-1226.6856)">
      <g
         style="opacity:0.69135802;fill:#808080;fill-opacity:1"
         transform="matrix(0.96525363,0,0,0.96525363,96.74318,224.06402)"
         id="g5759"
         inkscape:export-filename="/home/aank/rect7874.png"
         inkscape:export-xdpi="72"
         inkscape:export-ydpi="72">
        <g
           style="fill:#808080;fill-opacity:1"
           transform="matrix(0.04378079,0,0,0.04378079,429.56747,455.13002)"
           id="g5761">
          <g
             style="fill:#808080;fill-opacity:1"
             id="g5763"
             transform="matrix(16.885569,0,0,16.885569,-11687.289,-13701.257)">
            <path
               d="m 695.71722,911.08713 6.02427,0 0,7.4549 c -1.57966,0.6706 -3.35676,1.00591 -5.33131,1.00591 -2.57812,0 -4.5564,-0.72649 -5.93486,-2.17947 -1.37102,-1.46043 -2.05653,-3.5244 -2.05653,-6.19193 0,-1.6616 0.33903,-3.1332 1.01709,-4.41482 0.6855,-1.28904 1.6616,-2.28377 2.92831,-2.98419 1.27414,-0.7004 2.73457,-1.0506 4.38129,-1.05062 1.78082,2e-5 3.37909,0.32787 4.79483,0.98356 l -0.45825,1.02826 c -1.41573,-0.65569 -2.88361,-0.98354 -4.40364,-0.98356 -2.1534,2e-5 -3.86344,0.6669 -5.13014,2.00064 -1.25925,1.32633 -1.88887,3.11833 -1.88887,5.37603 0,2.45889 0.59982,4.3105 1.79946,5.55485 1.19963,1.23689 2.96183,1.85534 5.28661,1.85534 1.50512,0 2.783,-0.21236 3.83363,-0.63708 l 0,-5.74485 -4.86189,0 0,-1.07297"
               style="font-size:22.89000511px;font-style:normal;font-variant:normal;font-weight:300;font-stretch:normal;text-align:start;line-height:125%;letter-spacing:1.42631257px;word-spacing:0px;writing-mode:lr-tb;text-anchor:start;fill:#808080;fill-opacity:1;stroke:none;font-family:Open Sans;-inkscape-font-specification:Open Sans Light"
               id="path5765"
               inkscape:connector-curvature="0" />
            <path
               d="m 708.39853,912.20481 0,7.11959 -1.14003,0 0,-16.34042 3.88951,0 c 2.02671,10e-6 3.5244,0.3763 4.49306,1.12885 0.96864,0.74513 1.45296,1.87026 1.45298,3.37538 -2e-5,1.09534 -0.29061,2.01928 -0.87179,2.77184 -0.57375,0.75258 -1.44926,1.29279 -2.62654,1.62063 l 4.43717,7.44372 -1.36356,0 -4.21364,-7.11959 -4.05716,0 m 0,-0.98356 3.11831,0 c 1.37846,10e-6 2.4477,-0.30549 3.20773,-0.91649 0.76001,-0.61844 1.14002,-1.52748 1.14003,-2.72713 -10e-6,-1.24434 -0.37257,-2.14965 -1.11767,-2.71596 -0.74513,-0.56627 -1.95967,-0.84941 -3.64363,-0.84943 l -2.70477,0 0,7.20901"
               style="font-size:22.89000511px;font-style:normal;font-variant:normal;font-weight:300;font-stretch:normal;text-align:start;line-height:125%;letter-spacing:1.42631257px;word-spacing:0px;writing-mode:lr-tb;text-anchor:start;fill:#808080;fill-opacity:1;stroke:none;font-family:Open Sans;-inkscape-font-specification:Open Sans Light"
               id="path5767"
               inkscape:connector-curvature="0" />
            <path
               d="m 731.20598,919.3244 -8.93023,0 0,-16.34042 8.93023,0 0,1.05061 -7.7902,0 0,6.18075 7.35431,0 0,1.05062 -7.35431,0 0,7.00783 7.7902,0 0,1.05061"
               style="font-size:22.89000511px;font-style:normal;font-variant:normal;font-weight:300;font-stretch:normal;text-align:start;line-height:125%;letter-spacing:1.42631257px;word-spacing:0px;writing-mode:lr-tb;text-anchor:start;fill:#808080;fill-opacity:1;stroke:none;font-family:Open Sans;-inkscape-font-specification:Open Sans Light"
               id="path5769"
               inkscape:connector-curvature="0" />
            <path
               d="m 745.28439,919.3244 -8.93024,0 0,-16.34042 8.93024,0 0,1.05061 -7.79021,0 0,6.18075 7.35431,0 0,1.05062 -7.35431,0 0,7.00783 7.79021,0 0,1.05061"
               style="font-size:22.89000511px;font-style:normal;font-variant:normal;font-weight:300;font-stretch:normal;text-align:start;line-height:125%;letter-spacing:1.42631257px;word-spacing:0px;writing-mode:lr-tb;text-anchor:start;fill:#808080;fill-opacity:1;stroke:none;font-family:Open Sans;-inkscape-font-specification:Open Sans Light"
               id="path5771"
               inkscape:connector-curvature="0" />
            <path
               d="m 762.31346,919.3244 -1.15121,0 -9.67907,-14.50743 -0.0894,0 c 0.0894,1.72868 0.13412,3.03264 0.13412,3.91186 l 0,10.59557 -1.09532,0 0,-16.34042 1.14003,0 9.6679,14.48508 0.0671,0 c -0.0671,-1.34121 -0.1006,-2.61536 -0.10059,-3.82245 l 0,-10.66263 1.1065,0 0,16.34042"
               style="font-size:22.89000511px;font-style:normal;font-variant:normal;font-weight:300;font-stretch:normal;text-align:start;line-height:125%;letter-spacing:1.42631257px;word-spacing:0px;writing-mode:lr-tb;text-anchor:start;fill:#808080;fill-opacity:1;stroke:none;font-family:Open Sans;-inkscape-font-specification:Open Sans Light"
               id="path5773"
               inkscape:connector-curvature="0" />
          </g>
          <path
             style="fill:#808080;fill-opacity:1;stroke:none"
             d="m 1644.3008,1542.3732 c -2.8572,0.035 -5.3818,0.102 -7.2247,0.2407 -31.9328,2.4034 -57.8014,13.3453 -77.3039,32.7037 -22.3137,22.1486 -34.5347,51.8534 -37.52,91.2233 -0.9229,12.1711 -0.469,31.3279 1.0113,43.8778 6.0243,51.0744 30.7388,87.6685 70.6572,104.5649 12.2498,5.1854 26.1484,8.3607 42.9625,9.8254 3.6907,0.3218 22.7415,0.2159 26.7796,-0.1443 26.4344,-2.3582 48.3168,-10.6274 66.6595,-25.2382 7.3591,-5.8618 17.0484,-16.5215 22.6854,-24.9491 13.5069,-20.194 20.5877,-41.4565 23.6487,-71.1388 0.6624,-6.4696 0.6656,-32.772 0,-39.4949 -3.1063,-31.3772 -11.5895,-55.3466 -26.683,-75.5218 -19.4232,-25.9623 -45.7962,-40.6718 -80.9163,-45.1299 -4.6731,-0.5934 -16.1854,-0.9262 -24.7563,-0.8188 z m -358.6322,3.7567 0,137.9428 0,137.9911 55.3891,-0.1927 c 59.1793,-0.1901 58.9989,-0.1732 70.609,-2.1673 30.3633,-5.2157 52.9889,-20.5516 64.6364,-43.7816 5.0016,-9.9746 7.6363,-21.3561 8.0918,-35.2563 0.9144,-27.9112 -9.9952,-49.6535 -31.4031,-62.6137 -1.7316,-1.0482 -3.1728,-1.9854 -3.1789,-2.1192 -0.01,-0.1338 0.6501,-0.7547 1.4449,-1.3487 9.4784,-7.0836 17.1546,-17.8407 21.0961,-29.6209 2.6618,-7.9559 3.6589,-14.6053 3.6604,-24.4676 0,-27.2455 -10.5628,-47.2556 -31.4032,-59.5313 -10.7569,-6.3361 -25.7158,-10.8337 -44.0223,-13.149 -12.0747,-1.527 -19.144,-1.6795 -67.8155,-1.6856 l -47.1047,0 z m 505.8224,0 0.7227,1.0596 c 7.0304,10.7101 83.7371,128.9685 84.2876,129.9476 l 0.7706,1.3967 -45.5153,71.5723 c -25.0443,39.3635 -45.5635,71.6243 -45.5635,71.7169 0,0.093 13.7412,0.1598 30.5362,0.1443 l 30.5362,0 30.4398,-48.9831 c 16.742,-26.942 30.6216,-49.0142 30.8254,-49.0312 0.2034,-0.016 13.8402,22.0206 30.2954,48.9351 l 29.9099,48.9349 31.6442,0.097 c 17.4083,0.054 31.6439,0 31.6439,-0.097 0,-0.1003 -20.5319,-32.601 -45.6598,-72.2465 -25.1279,-39.646 -45.6313,-72.2258 -45.5634,-72.3912 0.067,-0.1656 19.2993,-29.6157 42.7698,-65.4555 23.4705,-35.8397 42.6737,-65.2881 42.6737,-65.4072 0,-0.1191 -13.8281,-0.202 -30.7288,-0.1927 l -30.729,0 -27.55,43.7332 c -15.1525,24.0342 -27.692,43.644 -27.887,43.5889 -0.1954,-0.055 -12.6556,-19.745 -27.6948,-43.7333 l -27.3573,-43.5888 -31.4032,0 -31.4033,0 z m -140.9289,47.9718 c 9.333,0.01 11.1853,0.1342 15.557,0.915 19.0892,3.4094 32.0627,11.8821 41.3734,27.0685 6.8049,11.0991 10.9373,25.3844 12.6673,43.6369 0.8392,8.8558 0.8397,27.0085 0,35.8825 -2.4038,25.392 -9.2657,43.177 -21.3849,55.2928 -9.256,9.2526 -21.1298,14.5834 -36.6534,16.5203 -3.5339,0.4412 -15.6658,0.8274 -18.4951,0.578 -15.7983,-1.3923 -25.4742,-4.3565 -35.0637,-10.7405 -16.8138,-11.1939 -26.482,-31.131 -29.5247,-60.88 -0.8035,-7.8554 -0.9174,-27.7163 -0.1927,-35.6416 2.3338,-25.5206 9.6297,-43.6777 22.5409,-56.1597 7.3262,-7.0827 15.8987,-11.6686 26.8276,-14.3048 7.9108,-1.9082 10.7978,-2.1781 22.3483,-2.1674 z m -310.1789,2.8898 19.2177,0 c 10.5655,0 21.4457,0.1679 24.1786,0.3855 13.6639,1.0875 23.9542,3.9633 29.6211,8.3323 5.3821,4.1497 7.6769,11.8569 6.743,22.5409 -1.3911,15.9124 -7.8589,21.2807 -28.8987,24.0821 -3.3941,0.4521 -9.8638,0.6276 -27.6463,0.7708 l -23.2154,0.1926 0,-28.128 0,-28.1762 z m 0,106.2507 23.4081,0.1926 c 13.3047,0.1129 25.0708,0.3802 27.2609,0.6261 22.75,2.5561 33.6034,9.7262 35.9788,23.7453 0.7511,4.4319 0.8647,8.1726 0.4336,12.8597 -0.8748,9.5105 -2.9284,14.6262 -7.8508,19.5067 -6.8391,6.7805 -16.8117,10.0563 -33.4744,10.9815 -3.6627,0.2035 -15.4462,0.3853 -26.2013,0.3853 l -19.5549,0 0,-34.1487 0,-34.1485 z"
             id="path5775"
             inkscape:connector-curvature="0" />
        </g>
        <text
           xml:space="preserve"
           style="font-size:3.84668517px;font-style:normal;font-variant:normal;font-weight:normal;font-stretch:normal;text-align:start;line-height:125%;letter-spacing:4.70430565px;word-spacing:0px;writing-mode:lr-tb;text-anchor:start;fill:#808080;fill-opacity:1;stroke:none;font-family:Open Sans;-inkscape-font-specification:Open Sans"
           x="444.25125"
           y="541.43518"
           id="text5777"
           sodipodi:linespacing="125%"><tspan
             sodipodi:role="line"
             id="tspan5779"
             x="444.25125"
             y="541.43518">INDONESIA</tspan></text>
      </g>
      <path
         sodipodi:nodetypes="cssccccssscsssscsssccccsscsscssssscccccssscssscsccccssssscscsscc"
         inkscape:connector-curvature="0"
         id="path5757"
         d="m 493.49476,752.41439 c 0,-0.96778 -0.0797,-3.11345 -0.17435,-4.76826 -0.0951,-1.65487 -0.17294,-3.55679 -0.17436,-4.22686 l -0.006,-1.21779 -0.67853,0.0762 c -0.3729,0.0411 -1.00601,0.18029 -1.40634,0.30994 l -0.72786,0.23327 0.0579,0.90805 c 0.032,0.49948 0.18489,2.18236 0.33966,3.73976 0.15479,1.55755 0.31673,3.34121 0.35968,3.96358 l 0.0777,1.13163 -3.46609,0.0762 c -1.90633,0.0456 -5.01923,0.11318 -6.91738,0.15425 -1.89829,0.0456 -3.45134,0.0456 -3.45134,0 0,-0.0411 0.50857,-2.95704 1.13025,-6.47885 l 1.13026,-6.40328 -0.2159,-0.82582 c -0.29858,-1.14357 -0.27576,-3.08536 0.0527,-4.42847 0.1355,-0.55368 0.64045,-2.22635 1.12271,-3.71691 0.91391,-2.82525 1.22481,-3.91469 1.13815,-3.98843 -0.0271,-0.0227 -0.46455,0 -0.96961,0.0762 -0.55697,0.0739 -0.96054,0.0781 -1.02571,0.0227 l -10.73456,-14.91511 0.74718,-1.15105 c 0.41083,-0.63328 2.88305,-4.44323 5.49352,-8.46672 2.61053,-4.02364 4.782,-7.35307 4.82554,-7.39877 0.10097,-0.10629 21.69193,-2.37555 21.88681,-2.30075 0.0799,0.0319 0.93502,2.14586 1.90038,4.7006 0.96542,2.55464 1.8143,4.76336 1.88653,4.90829 0.11404,0.22869 0.36108,-0.37754 1.88618,-4.63304 1.5955,-4.45134 1.73863,-4.91491 1.5755,-5.1011 -0.61043,-0.69638 -0.7148,-1.72995 -0.2397,-2.37168 0.86287,-1.16514 2.3669,-1.1214 3.18516,0.0936 0.70417,1.04479 -0.0551,2.58304 -1.37821,2.7947 l -0.42639,0.0676 -2.09172,5.15598 -2.09175,5.15617 1.30558,3.41693 1.30552,3.41688 -1.26244,7.72864 c -0.69431,4.25074 -1.30005,7.77123 -1.34601,7.82346 -0.046,0.0519 -0.94226,0.12596 -1.99181,0.16519 -1.78386,0.0652 -1.91949,0.0567 -2.08171,-0.15429 -0.22643,-0.2935 0.62322,1.55494 1.74075,3.78694 1.98237,3.95923 2.86609,7.03962 2.7953,9.74347 -0.0227,0.91149 0.658,2.74516 2.87039,7.71964 1.62286,3.64862 2.78988,6.60067 2.66064,6.73009 -0.0227,0.0228 -4.22323,0.0804 -9.33139,0.12593 l -9.28749,0.0826 0,-1.75927 0,0 z M 480.73599,704.4537 c 3.09646,-1.42879 5.9124,-5.87078 5.04207,-7.95378 -0.2401,-0.57431 -0.76714,-0.81529 -1.61554,-0.73834 -2.69355,0.24421 -6.51436,4.57668 -6.4983,7.36834 0.009,1.72712 1.14119,2.21462 3.07177,1.32378 z m 11.72516,-2.61224 c 1.75673,-0.93629 3.41379,-3.25792 3.4426,-4.82269 0.0182,-0.9143 -0.30492,-1.2911 -1.09957,-1.28722 -1.89287,0 -4.64145,2.93815 -4.81766,5.13404 -0.058,0.72067 -0.046,0.76464 0.3154,1.12579 0.34419,0.34417 0.42044,0.36975 0.91233,0.30217 0.29536,-0.0411 0.85621,-0.24376 1.24684,-0.4519 z"
         style="opacity:0.47736631;fill:#808080;fill-opacity:1;stroke:none"
         inkscape:export-filename="/home/aank/rect7874.png"
         inkscape:export-xdpi="72"
         inkscape:export-ydpi="72" />
    </g>
    <g
       id="g5158"
       transform="matrix(2.8718277,0,0,2.8718277,204.40469,588.39143)">
      <path
         id="path3221"
         d="m 15.379535,38.961125 15.468038,-9.296716 0,-16.203191 -9.693661,-6.0011045 0,6.2218725 5.955878,3.570487 -0.0076,5.781004 -7.268123,-4.347118 0,-15.932652 -4.447403,-2.66749839 0,21.35046539 0.01,8.805012 -4.307943,3.203774 0,-21.440915 -8.0325336,5.426375 7.98e-4,5.492323 6.688871,-4.40736 0,4.752966 -9.752544,6.394846 z"
         style="fill:#008000;fill-opacity:1;fill-rule:evenodd;stroke:none"
         inkscape:connector-curvature="0"
         sodipodi:nodetypes="cccccccccccccccccccc" />
      <g
         style="fill:#008000;fill-opacity:1"
         transform="matrix(0.94785005,0,0,0.94785005,23.35391,-7.82465)"
         id="g4634">
        <path
           inkscape:connector-curvature="0"
           id="path4594"
           d="m 206.76799,17.458157 c -0.32139,0.778596 -0.76049,1.444023 -1.32633,2.005336 -0.58394,0.552259 -1.24031,0.982297 -2.01439,1.285587 -0.77407,0.30329 -1.60698,0.452672 -2.53496,0.452672 -0.89176,0 -1.72015,-0.153908 -2.50327,-0.452672 -0.76954,-0.307816 -1.4395,-0.737854 -2.0325,-1.285587 -0.54321,-0.556787 -1.00946,-1.22674 -1.30822,-2.005336 -0.33951,-0.774068 -0.507,-1.638672 -0.507,-2.593809 0,-0.946083 0.16749,-1.810687 0.507,-2.580229 0.29876,-0.778595 0.76501,-1.448549 1.30822,-2.009862 0.57489,-0.56584 1.24937,-0.977771 2.0325,-1.290114 0.76501,-0.303291 1.61151,-0.452672 2.50327,-0.452672 0.92345,0 1.76542,0.149381 2.53496,0.452672 0.76502,0.312343 1.41687,0.737854 2.01439,1.290114 0.56584,0.561313 1.00494,1.22674 1.32633,2.009862 0.3214,0.769542 0.47983,1.634146 0.47983,2.580229 0,0.955137 -0.15391,1.815214 -0.47983,2.593809 m -0.7967,-4.830008 c -0.28066,-0.683533 -0.66543,-1.262953 -1.1679,-1.738258 -0.4753,-0.493412 -1.05925,-0.873657 -1.73825,-1.140733 -0.65638,-0.267076 -1.39423,-0.411932 -2.17283,-0.411932 -0.75143,0 -1.46213,0.149382 -2.15019,0.411932 -0.65637,0.271602 -1.23126,0.651847 -1.72468,1.140733 -0.49341,0.475305 -0.89176,1.059251 -1.16789,1.738258 -0.28066,0.683535 -0.43456,1.412336 -0.43456,2.240726 0,0.814809 0.14938,1.575297 0.43456,2.254305 0.2716,0.669954 0.66995,1.258427 1.16789,1.751839 0.48888,0.479833 1.06831,0.851023 1.72468,1.113573 0.68806,0.280657 1.3897,0.416458 2.15019,0.416458 0.77407,0 1.52098,-0.131275 2.17283,-0.416458 0.66995,-0.26255 1.25842,-0.642793 1.73825,-1.113573 0.49795,-0.493412 0.88272,-1.072831 1.1679,-1.751839 0.28518,-0.679008 0.42098,-1.43497 0.42098,-2.254305 0.009,-0.82839 -0.13127,-1.579825 -0.42098,-2.240726"
           sodipodi:nodetypes="ccsscccscccscccsccccscccscccsccccc"
           style="fill:#008000;fill-opacity:1" />
        <g
           style="font-size:12px;font-style:normal;font-variant:normal;font-weight:normal;font-stretch:normal;line-height:125%;letter-spacing:3.3900001px;word-spacing:0px;fill:#008000;fill-opacity:1;stroke:none;font-family:Trebuchet MS;-inkscape-font-specification:Trebuchet MS"
           id="text4611"
           transform="matrix(0.80264737,0,0,0.80264737,134.57196,-46.406331)">
          <path
             d="m 78.998306,80.763496 0,-8.583984 1.171875,0 0,8.583984 -1.171875,0"
             style="letter-spacing:-0.53999889px;fill:#008000;fill-opacity:1"
             id="path4616"
             inkscape:connector-curvature="0" />
          <path
             d="m 83.333307,80.763496 -1.728515,0 0,-8.583984 c 1.10156,-0.03905 1.806638,-0.05859 2.115234,-0.05859 1.199215,9e-6 2.148432,0.365243 2.847656,1.095703 0.699212,0.72657 1.048822,1.695319 1.048828,2.90625 -6e-6,3.093752 -1.427739,4.640625 -4.283203,4.640625 m -0.55664,-7.529296 0,6.416015 c 0.261716,0.03906 0.585935,0.05859 0.972656,0.05859 0.820309,10e-7 1.464839,-0.306639 1.933594,-0.919922 0.468744,-0.617185 0.703119,-1.472653 0.703125,-2.566406 -6e-6,-2.031244 -0.912114,-3.046868 -2.736328,-3.046875 -0.109378,7e-6 -0.400394,0.01954 -0.873047,0.05859"
             style="letter-spacing:-0.53999889px;fill:#008000;fill-opacity:1"
             id="path4618"
             inkscape:connector-curvature="0" />
        </g>
      </g>
      <path
         d="m 48.097157,21.301781 8.662849,0 0,10.720082 c -2.271537,0.964317 -4.826992,1.44649 -7.666378,1.44649 -3.707315,0 -6.552064,-1.044687 -8.534277,-3.134059 -1.971516,-2.100086 -2.957273,-5.068057 -2.957273,-8.903942 0,-2.389367 0.487522,-4.505515 1.462567,-6.348474 0.985743,-1.853628 2.389366,-3.284041 4.210885,-4.291239 1.832201,-1.0071692 3.932287,-1.5107537 6.300257,-1.5107825 2.560803,2.88e-5 4.859102,0.4714742 6.894924,1.4143505 l -0.658959,1.478629 c -2.035808,-0.942876 -4.146607,-1.414322 -6.332397,-1.41435 -3.09657,2.8e-5 -5.555594,0.958996 -7.377097,2.876903 -1.81079,1.907251 -2.716179,4.484132 -2.716179,7.730685 0,3.535862 0.862536,6.198462 2.587608,7.987827 1.725058,1.778637 4.259086,2.667962 7.6021,2.667962 2.164349,0 4.00193,-0.305372 5.512727,-0.916116 l 0,-8.261045 -6.991357,0 0,-1.542921"
         style="font-size:22.89000511px;font-style:normal;font-variant:normal;font-weight:300;font-stretch:normal;text-align:start;line-height:125%;letter-spacing:1.42631257px;word-spacing:0px;writing-mode:lr-tb;text-anchor:start;fill:#666666;fill-opacity:1;stroke:none;font-family:Open Sans;-inkscape-font-specification:Open Sans Light"
         id="path4714-1"
         inkscape:connector-curvature="0" />
      <path
         d="m 64.457767,22.908995 0,10.237909 -1.639354,0 0,-23.4973832 5.593082,0 c 2.914391,1.48e-5 5.068057,0.5411162 6.460981,1.6232762 1.392896,1.071491 2.089345,2.689418 2.089374,4.853768 -2.9e-5,1.575089 -0.417895,2.903707 -1.253627,3.985882 -0.825048,1.082203 -2.084023,1.859021 -3.776942,2.330452 l 6.380612,10.704005 -1.960787,0 -6.059178,-10.237909 -5.834161,0 m 0,-1.414351 4.484102,0 c 1.982214,1.5e-5 3.519772,-0.439292 4.612688,-1.317905 1.092888,-0.889311 1.63934,-2.196502 1.639353,-3.921589 -1.3e-5,-1.78935 -0.535751,-3.091178 -1.607199,-3.905527 -1.07149,-0.814291 -2.817988,-1.221444 -5.239508,-1.221473 l -3.889436,0 0,10.366494"
         style="font-size:22.89000511px;font-style:normal;font-variant:normal;font-weight:300;font-stretch:normal;text-align:start;line-height:125%;letter-spacing:1.42631257px;word-spacing:0px;writing-mode:lr-tb;text-anchor:start;fill:#666666;fill-opacity:1;stroke:none;font-family:Open Sans;-inkscape-font-specification:Open Sans Light"
         id="path4716-2"
         inkscape:connector-curvature="0" />
      <path
         d="m 95.285922,33.146904 -12.841589,0 0,-23.4973832 12.841589,0 0,1.5107682 -11.202235,0 0,8.887866 10.575436,0 0,1.510782 -10.575436,0 0,10.077199 11.202235,0 0,1.510768"
         style="font-size:22.89000511px;font-style:normal;font-variant:normal;font-weight:300;font-stretch:normal;text-align:start;line-height:125%;letter-spacing:1.42631257px;word-spacing:0px;writing-mode:lr-tb;text-anchor:start;fill:#666666;fill-opacity:1;stroke:none;font-family:Open Sans;-inkscape-font-specification:Open Sans Light"
         id="path4718-7"
         inkscape:connector-curvature="0" />
      <path
         d="m 112.6243,33.146904 -12.84161,0 0,-23.4973832 12.84161,0 0,1.5107682 -11.20225,0 0,8.887866 10.57543,0 0,1.510782 -10.57543,0 0,10.077199 11.20225,0 0,1.510768"
         style="font-size:22.89000511px;font-style:normal;font-variant:normal;font-weight:300;font-stretch:normal;text-align:start;line-height:125%;letter-spacing:1.42631257px;word-spacing:0px;writing-mode:lr-tb;text-anchor:start;fill:#666666;fill-opacity:1;stroke:none;font-family:Open Sans;-inkscape-font-specification:Open Sans Light"
         id="path4720-0"
         inkscape:connector-curvature="0" />
      <path
         d="m 134.20569,33.146904 -1.65543,0 -13.91841,-20.861559 -0.12856,0 c 0.12856,2.485827 0.19286,4.36091 0.19286,5.625221 l 0,15.236338 -1.57506,0 0,-23.4973832 1.63936,0 13.90235,20.8294202 0.0965,0 c -0.0965,-1.928648 -0.14465,-3.760864 -0.14464,-5.49665 l 0,-15.3327702 1.59113,0 0,23.4973832"
         style="font-size:22.89000511px;font-style:normal;font-variant:normal;font-weight:300;font-stretch:normal;text-align:start;line-height:125%;letter-spacing:1.42631257px;word-spacing:0px;writing-mode:lr-tb;text-anchor:start;fill:#666666;fill-opacity:1;stroke:none;font-family:Open Sans;-inkscape-font-specification:Open Sans Light"
         id="path4722-9"
         inkscape:connector-curvature="0" />
      <path
         inkscape:connector-curvature="0"
         id="path4724-3"
         d="m 170.6849,9.3286426 c -0.24332,0.00298 -0.45832,0.00869 -0.61526,0.020498 -2.71943,0.2046761 -4.92243,1.1364984 -6.58328,2.7850784 -1.90025,1.886196 -2.94101,4.415886 -3.19524,7.768664 -0.0786,1.036504 -0.0399,2.667915 0.0861,3.736676 0.51303,4.349546 2.61775,7.465935 6.01724,8.904848 1.0432,0.441594 2.22682,0.712005 3.65872,0.836741 0.3143,0.02741 1.93669,0.01838 2.28058,-0.01229 2.25117,-0.200827 4.1147,-0.905039 5.67679,-2.149309 0.6267,-0.499197 1.45185,-1.406987 1.93191,-2.12469 1.15026,-1.719741 1.75327,-3.530476 2.01394,-6.058249 0.0564,-0.550957 0.0566,-2.790895 0,-3.363423 -0.26454,-2.672114 -0.98697,-4.71337 -2.27235,-6.43151 -1.65409,-2.210974 -3.90005,-3.46365 -6.89091,-3.8433061 -0.39797,-0.050534 -1.37836,-0.078876 -2.10827,-0.06973 z m -30.54146,0.3199246 0,11.7473418 0,11.751455 4.71699,-0.01641 c 5.03976,-0.01619 5.02439,-0.01475 6.01312,-0.184569 2.58577,-0.444174 4.5126,-1.750195 5.50451,-3.728484 0.42594,-0.849447 0.65031,-1.818707 0.6891,-3.002461 0.0779,-2.376945 -0.8512,-4.22854 -2.67431,-5.332243 -0.14748,-0.08927 -0.27021,-0.169078 -0.27073,-0.180473 -8.5e-4,-0.01139 0.0554,-0.06426 0.12305,-0.114857 0.8072,-0.603246 1.4609,-1.51933 1.79656,-2.522544 0.22669,-0.677531 0.3116,-1.243802 0.31173,-2.083684 0,-2.320253 -0.89954,-4.024333 -2.67432,-5.069743 -0.91608,-0.539588 -2.18999,-0.9226086 -3.74899,-1.1197817 -1.02829,-0.1300405 -1.63032,-0.1430283 -5.77523,-0.143547 l -4.01148,0 z m 43.07632,0 0.0615,0.090231 c 0.59871,0.9120828 7.13112,10.9830818 7.17801,11.0664628 l 0.0656,0.118945 -3.87612,6.095166 c -2.1328,3.352233 -3.88024,6.099594 -3.88024,6.10748 0,0.008 1.17022,0.01361 2.6005,0.01229 l 2.60049,0 2.59228,-4.171448 c 1.42577,-2.294407 2.60777,-4.174097 2.62512,-4.175545 0.0173,-0.0014 1.17864,1.875296 2.57999,4.167361 l 2.54715,4.167343 2.69485,0.0083 c 1.48251,0.0046 2.69483,0 2.69483,-0.0083 0,-0.0086 -1.74851,-2.776333 -3.88843,-6.152581 -2.13991,-3.376292 -3.88601,-6.15082 -3.88023,-6.164905 0.005,-0.01411 1.64355,-2.522101 3.64232,-5.574253 1.99878,-3.052144 3.63414,-5.5599979 3.63414,-5.57014 0,-0.010182 -1.17761,-0.017204 -2.6169,-0.016408 l -2.61691,0 -2.34618,3.724361 c -1.2904,2.046776 -2.35828,3.716765 -2.37489,3.712073 -0.0166,-0.0047 -1.07776,-1.681503 -2.35851,-3.724369 l -2.32978,-3.712065 -2.67433,0 -2.67433,0 z m -12.00164,4.0853248 c 0.79481,8.51e-4 0.95255,0.01143 1.32485,0.07793 1.62565,0.290348 2.73049,1.011892 3.5234,2.30518 0.57951,0.94521 0.93143,2.161759 1.07876,3.71616 0.0715,0.754168 0.0715,2.30007 0,3.055789 -0.20471,2.162407 -0.78908,3.676994 -1.82116,4.708788 -0.78826,0.78796 -1.79944,1.241936 -3.12144,1.406885 -0.30095,0.03757 -1.33411,0.07046 -1.57506,0.04922 -1.3454,-0.118569 -2.16941,-0.371003 -2.98606,-0.91467 -1.43188,-0.953284 -2.25523,-2.651147 -2.51435,-5.184601 -0.0684,-0.668973 -0.0782,-2.360346 -0.0164,-3.035273 0.19874,-2.173358 0.82007,-3.719634 1.9196,-4.782614 0.62391,-0.60317 1.35394,-0.993709 2.28467,-1.21821 0.67369,-0.162504 0.91955,-0.185489 1.9032,-0.184578 z m -26.41514,0.246098 1.6366,0 c 0.89977,0 1.82634,0.0143 2.05907,0.03283 1.16364,0.09262 2.03997,0.337518 2.52257,0.709586 0.45834,0.353392 0.65377,1.009745 0.57423,1.919604 -0.11846,1.355117 -0.66927,1.812286 -2.46103,2.050856 -0.28905,0.0385 -0.84002,0.05345 -2.35439,0.06564 l -1.97705,0.0164 0,-2.395408 0,-2.399512 z m 0,9.048412 1.99346,0.0164 c 1.13304,0.0097 2.13505,0.03238 2.32157,0.05332 1.93741,0.21768 2.86169,0.828292 3.06399,2.022173 0.064,0.377424 0.0736,0.695986 0.0369,1.095144 -0.0745,0.809923 -0.24938,1.245581 -0.66858,1.66121 -0.58243,0.577433 -1.4317,0.856404 -2.85071,0.935195 -0.31192,0.01733 -1.31542,0.03281 -2.23133,0.03281 l -1.66532,0 0,-2.908135 0,-2.90812 z"
         style="fill:#008000;fill-opacity:1;stroke:none" />
    </g>
    <path
       sodipodi:nodetypes="cssccccssscsssscsssccccsscsscssssscccccssscssscsccccssssscscsscc"
       inkscape:connector-curvature="0"
       id="path4228"
       d="m -144.5515,631.05588 c 0,-4.61528 -0.38008,-14.84784 -0.83146,-22.73951 -0.45353,-7.89196 -0.82474,-16.96209 -0.83152,-20.1576 l -0.0287,-5.80756 -3.23586,0.36339 c -1.77833,0.196 -4.79759,0.8598 -6.70673,1.47809 l -3.47111,1.11244 0.27612,4.33042 c 0.15254,2.382 0.88171,10.40753 1.6198,17.83467 0.73819,7.42785 1.51047,15.934 1.71529,18.90204 l 0.37055,5.39668 -16.52954,0.36339 c -9.09116,0.21745 -23.93637,0.53973 -32.98851,0.73559 -9.05283,0.21747 -16.4592,0.21747 -16.4592,0 0,-0.196 2.42533,-14.10192 5.39008,-30.89718 l 5.39012,-30.53681 -1.02961,-3.93828 c -1.4239,-5.45361 -1.31508,-14.71388 0.25132,-21.11906 0.64619,-2.64047 3.05426,-10.61732 5.35413,-17.72569 4.35838,-13.47343 5.84103,-18.66889 5.42776,-19.02057 -0.12924,-0.10821 -2.2154,0 -4.624,0.36341 -2.65616,0.35242 -4.58075,0.37245 -4.89153,0.10821 l -51.19239,-71.12913 3.56324,-5.48928 c 1.95922,-3.02008 13.74908,-21.18947 26.19822,-40.37722 12.44945,-19.18846 22.80504,-35.06628 23.01268,-35.28422 0.48151,-0.50689 103.44733,-11.32885 104.3767,-10.97212 0.38104,0.15205 4.459051,10.23346 9.062781,22.41684 4.60403,12.1829 8.65227,22.71613 8.99674,23.4073 0.54384,1.09061 1.72197,-1.80047 8.99507,-22.09466 7.60881,-21.22812 8.29139,-23.43886 7.51344,-24.3268 -2.9111,-3.32098 -3.40884,-8.25 -1.14312,-11.31037 4.114974,-5.55648 11.287584,-5.34788 15.189824,0.44636 3.35813,4.98254 -0.26278,12.31835 -6.57259,13.32774 l -2.03343,0.32239 -9.975264,24.58851 -9.97542,24.58942 6.22623,16.2951 6.22594,16.29487 -6.0205,36.85736 c -3.31112,20.27149 -6.19984,37.06046 -6.41904,37.30954 -0.21936,0.24752 -4.49357,0.60069 -9.49879,0.78778 -8.507111,0.31093 -9.153921,0.2704 -9.927541,-0.73579 -1.07983,-1.39968 2.9721,7.41541 8.301521,18.05966 9.45378,18.88129 13.66818,33.57146 13.33059,46.46594 -0.10821,4.34683 3.13795,13.09148 13.6887,36.81444 7.739304,17.40001 13.304744,31.47814 12.688404,32.09534 -0.10821,0.1087 -20.140294,0.38342 -44.500765,0.60054 l -44.2914,0.39392 0,-8.38984 0,0 z m -60.84571,-228.72125 c 14.76681,-6.81382 28.19583,-27.99735 24.0453,-37.93104 -1.14503,-2.73884 -3.65844,-3.88806 -7.70441,-3.5211 -12.84535,1.16463 -31.06653,21.82588 -30.98995,35.13911 0.0429,8.23653 5.44226,10.56137 14.64906,6.31303 z m 55.91649,-12.45761 c 8.37772,-4.46509 16.28013,-15.53679 16.41753,-22.99906 0.0869,-4.36024 -1.45415,-6.15718 -5.24378,-6.13867 -9.02696,0 -22.13476,14.01184 -22.97509,24.48388 -0.2766,3.43683 -0.21936,3.64652 1.50413,5.36882 1.64141,1.64131 2.00505,1.76331 4.35083,1.44102 1.40855,-0.196 4.08321,-1.16248 5.9461,-2.15508 z"
       style="opacity:1;fill:#008000;fill-opacity:1;stroke:none"
       inkscape:export-filename="/home/aank/rect7874.png"
       inkscape:export-xdpi="72"
       inkscape:export-ydpi="72" />
    <g
       id="g4242"
       transform="matrix(1.8451074,0,0,1.8451074,-1011.9627,-316.96362)"
       style="fill:#008000;fill-opacity:1"
       inkscape:export-filename="/home/aank/rect7874.png"
       inkscape:export-xdpi="72"
       inkscape:export-ydpi="72">
      <g
         id="g4244"
         transform="matrix(0.04378079,0,0,0.04378079,429.56747,455.13002)"
         style="fill:#008000;fill-opacity:1">
        <g
           transform="matrix(16.885569,0,0,16.885569,-11687.289,-13701.257)"
           id="g4246"
           style="fill:#008000;fill-opacity:1">
          <path
             inkscape:connector-curvature="0"
             id="path4248"
             style="font-style:normal;font-variant:normal;font-weight:300;font-stretch:normal;font-size:22.89000511px;line-height:125%;font-family:'Open Sans';-inkscape-font-specification:'Open Sans Light';text-align:start;letter-spacing:1.42631257px;word-spacing:0px;writing-mode:lr-tb;text-anchor:start;fill:#008000;fill-opacity:1;stroke:none"
             d="m 695.71722,911.08713 6.02427,0 0,7.4549 c -1.57966,0.6706 -3.35676,1.00591 -5.33131,1.00591 -2.57812,0 -4.5564,-0.72649 -5.93486,-2.17947 -1.37102,-1.46043 -2.05653,-3.5244 -2.05653,-6.19193 0,-1.6616 0.33903,-3.1332 1.01709,-4.41482 0.6855,-1.28904 1.6616,-2.28377 2.92831,-2.98419 1.27414,-0.7004 2.73457,-1.0506 4.38129,-1.05062 1.78082,2e-5 3.37909,0.32787 4.79483,0.98356 l -0.45825,1.02826 c -1.41573,-0.65569 -2.88361,-0.98354 -4.40364,-0.98356 -2.1534,2e-5 -3.86344,0.6669 -5.13014,2.00064 -1.25925,1.32633 -1.88887,3.11833 -1.88887,5.37603 0,2.45889 0.59982,4.3105 1.79946,5.55485 1.19963,1.23689 2.96183,1.85534 5.28661,1.85534 1.50512,0 2.783,-0.21236 3.83363,-0.63708 l 0,-5.74485 -4.86189,0 0,-1.07297" />
          <path
             inkscape:connector-curvature="0"
             id="path4250"
             style="font-style:normal;font-variant:normal;font-weight:300;font-stretch:normal;font-size:22.89000511px;line-height:125%;font-family:'Open Sans';-inkscape-font-specification:'Open Sans Light';text-align:start;letter-spacing:1.42631257px;word-spacing:0px;writing-mode:lr-tb;text-anchor:start;fill:#008000;fill-opacity:1;stroke:none"
             d="m 708.39853,912.20481 0,7.11959 -1.14003,0 0,-16.34042 3.88951,0 c 2.02671,10e-6 3.5244,0.3763 4.49306,1.12885 0.96864,0.74513 1.45296,1.87026 1.45298,3.37538 -2e-5,1.09534 -0.29061,2.01928 -0.87179,2.77184 -0.57375,0.75258 -1.44926,1.29279 -2.62654,1.62063 l 4.43717,7.44372 -1.36356,0 -4.21364,-7.11959 -4.05716,0 m 0,-0.98356 3.11831,0 c 1.37846,10e-6 2.4477,-0.30549 3.20773,-0.91649 0.76001,-0.61844 1.14002,-1.52748 1.14003,-2.72713 -10e-6,-1.24434 -0.37257,-2.14965 -1.11767,-2.71596 -0.74513,-0.56627 -1.95967,-0.84941 -3.64363,-0.84943 l -2.70477,0 0,7.20901" />
          <path
             inkscape:connector-curvature="0"
             id="path4252"
             style="font-style:normal;font-variant:normal;font-weight:300;font-stretch:normal;font-size:22.89000511px;line-height:125%;font-family:'Open Sans';-inkscape-font-specification:'Open Sans Light';text-align:start;letter-spacing:1.42631257px;word-spacing:0px;writing-mode:lr-tb;text-anchor:start;fill:#008000;fill-opacity:1;stroke:none"
             d="m 731.20598,919.3244 -8.93023,0 0,-16.34042 8.93023,0 0,1.05061 -7.7902,0 0,6.18075 7.35431,0 0,1.05062 -7.35431,0 0,7.00783 7.7902,0 0,1.05061" />
          <path
             inkscape:connector-curvature="0"
             id="path4254"
             style="font-style:normal;font-variant:normal;font-weight:300;font-stretch:normal;font-size:22.89000511px;line-height:125%;font-family:'Open Sans';-inkscape-font-specification:'Open Sans Light';text-align:start;letter-spacing:1.42631257px;word-spacing:0px;writing-mode:lr-tb;text-anchor:start;fill:#008000;fill-opacity:1;stroke:none"
             d="m 745.28439,919.3244 -8.93024,0 0,-16.34042 8.93024,0 0,1.05061 -7.79021,0 0,6.18075 7.35431,0 0,1.05062 -7.35431,0 0,7.00783 7.79021,0 0,1.05061" />
          <path
             inkscape:connector-curvature="0"
             id="path4256"
             style="font-style:normal;font-variant:normal;font-weight:300;font-stretch:normal;font-size:22.89000511px;line-height:125%;font-family:'Open Sans';-inkscape-font-specification:'Open Sans Light';text-align:start;letter-spacing:1.42631257px;word-spacing:0px;writing-mode:lr-tb;text-anchor:start;fill:#008000;fill-opacity:1;stroke:none"
             d="m 762.31346,919.3244 -1.15121,0 -9.67907,-14.50743 -0.0894,0 c 0.0894,1.72868 0.13412,3.03264 0.13412,3.91186 l 0,10.59557 -1.09532,0 0,-16.34042 1.14003,0 9.6679,14.48508 0.0671,0 c -0.0671,-1.34121 -0.1006,-2.61536 -0.10059,-3.82245 l 0,-10.66263 1.1065,0 0,16.34042" />
        </g>
        <path
           inkscape:connector-curvature="0"
           id="path4258"
           d="m 1644.3008,1542.3732 c -2.8572,0.035 -5.3818,0.102 -7.2247,0.2407 -31.9328,2.4034 -57.8014,13.3453 -77.3039,32.7037 -22.3137,22.1486 -34.5347,51.8534 -37.52,91.2233 -0.9229,12.1711 -0.469,31.3279 1.0113,43.8778 6.0243,51.0744 30.7388,87.6685 70.6572,104.5649 12.2498,5.1854 26.1484,8.3607 42.9625,9.8254 3.6907,0.3218 22.7415,0.2159 26.7796,-0.1443 26.4344,-2.3582 48.3168,-10.6274 66.6595,-25.2382 7.3591,-5.8618 17.0484,-16.5215 22.6854,-24.9491 13.5069,-20.194 20.5877,-41.4565 23.6487,-71.1388 0.6624,-6.4696 0.6656,-32.772 0,-39.4949 -3.1063,-31.3772 -11.5895,-55.3466 -26.683,-75.5218 -19.4232,-25.9623 -45.7962,-40.6718 -80.9163,-45.1299 -4.6731,-0.5934 -16.1854,-0.9262 -24.7563,-0.8188 z m -358.6322,3.7567 0,137.9428 0,137.9911 55.3891,-0.1927 c 59.1793,-0.1901 58.9989,-0.1732 70.609,-2.1673 30.3633,-5.2157 52.9889,-20.5516 64.6364,-43.7816 5.0016,-9.9746 7.6363,-21.3561 8.0918,-35.2563 0.9144,-27.9112 -9.9952,-49.6535 -31.4031,-62.6137 -1.7316,-1.0482 -3.1728,-1.9854 -3.1789,-2.1192 -0.01,-0.1338 0.6501,-0.7547 1.4449,-1.3487 9.4784,-7.0836 17.1546,-17.8407 21.0961,-29.6209 2.6618,-7.9559 3.6589,-14.6053 3.6604,-24.4676 0,-27.2455 -10.5628,-47.2556 -31.4032,-59.5313 -10.7569,-6.3361 -25.7158,-10.8337 -44.0223,-13.149 -12.0747,-1.527 -19.144,-1.6795 -67.8155,-1.6856 l -47.1047,0 z m 505.8224,0 0.7227,1.0596 c 7.0304,10.7101 83.7371,128.9685 84.2876,129.9476 l 0.7706,1.3967 -45.5153,71.5723 c -25.0443,39.3635 -45.5635,71.6243 -45.5635,71.7169 0,0.093 13.7412,0.1598 30.5362,0.1443 l 30.5362,0 30.4398,-48.9831 c 16.742,-26.942 30.6216,-49.0142 30.8254,-49.0312 0.2034,-0.016 13.8402,22.0206 30.2954,48.9351 l 29.9099,48.9349 31.6442,0.097 c 17.4083,0.054 31.6439,0 31.6439,-0.097 0,-0.1003 -20.5319,-32.601 -45.6598,-72.2465 -25.1279,-39.646 -45.6313,-72.2258 -45.5634,-72.3912 0.067,-0.1656 19.2993,-29.6157 42.7698,-65.4555 23.4705,-35.8397 42.6737,-65.2881 42.6737,-65.4072 0,-0.1191 -13.8281,-0.202 -30.7288,-0.1927 l -30.729,0 -27.55,43.7332 c -15.1525,24.0342 -27.692,43.644 -27.887,43.5889 -0.1954,-0.055 -12.6556,-19.745 -27.6948,-43.7333 l -27.3573,-43.5888 -31.4032,0 -31.4033,0 z m -140.9289,47.9718 c 9.333,0.01 11.1853,0.1342 15.557,0.915 19.0892,3.4094 32.0627,11.8821 41.3734,27.0685 6.8049,11.0991 10.9373,25.3844 12.6673,43.6369 0.8392,8.8558 0.8397,27.0085 0,35.8825 -2.4038,25.392 -9.2657,43.177 -21.3849,55.2928 -9.256,9.2526 -21.1298,14.5834 -36.6534,16.5203 -3.5339,0.4412 -15.6658,0.8274 -18.4951,0.578 -15.7983,-1.3923 -25.4742,-4.3565 -35.0637,-10.7405 -16.8138,-11.1939 -26.482,-31.131 -29.5247,-60.88 -0.8035,-7.8554 -0.9174,-27.7163 -0.1927,-35.6416 2.3338,-25.5206 9.6297,-43.6777 22.5409,-56.1597 7.3262,-7.0827 15.8987,-11.6686 26.8276,-14.3048 7.9108,-1.9082 10.7978,-2.1781 22.3483,-2.1674 z m -310.1789,2.8898 19.2177,0 c 10.5655,0 21.4457,0.1679 24.1786,0.3855 13.6639,1.0875 23.9542,3.9633 29.6211,8.3323 5.3821,4.1497 7.6769,11.8569 6.743,22.5409 -1.3911,15.9124 -7.8589,21.2807 -28.8987,24.0821 -3.3941,0.4521 -9.8638,0.6276 -27.6463,0.7708 l -23.2154,0.1926 0,-28.128 0,-28.1762 z m 0,106.2507 23.4081,0.1926 c 13.3047,0.1129 25.0708,0.3802 27.2609,0.6261 22.75,2.5561 33.6034,9.7262 35.9788,23.7453 0.7511,4.4319 0.8647,8.1726 0.4336,12.8597 -0.8748,9.5105 -2.9284,14.6262 -7.8508,19.5067 -6.8391,6.7805 -16.8117,10.0563 -33.4744,10.9815 -3.6627,0.2035 -15.4462,0.3853 -26.2013,0.3853 l -19.5549,0 0,-34.1487 0,-34.1485 z"
           style="fill:#008000;fill-opacity:1;stroke:none" />
      </g>
      <text
         sodipodi:linespacing="125%"
         id="text4260"
         y="541.43518"
         x="444.25125"
         style="font-style:normal;font-variant:normal;font-weight:normal;font-stretch:normal;font-size:3.84668517px;line-height:125%;font-family:'Open Sans';-inkscape-font-specification:'Open Sans';text-align:start;letter-spacing:4.70430565px;word-spacing:0px;writing-mode:lr-tb;text-anchor:start;fill:#008000;fill-opacity:1;stroke:none"
         xml:space="preserve"><tspan
           y="541.43518"
           x="444.25125"
           id="tspan4262"
           sodipodi:role="line">INDONESIA</tspan></text>
    </g>
  </g>
</svg>
