<?xml version="1.0" encoding="UTF-8" standalone="no"?>
<!-- Created with Inkscape (http://www.inkscape.org/) -->

<svg
   width="210mm"
   height="297mm"
   viewBox="0 0 210 297"
   version="1.1"
   id="svg5"
   inkscape:version="1.1.2 (0a00cf5339, 2022-02-04)"
   sodipodi:docname="logo-kampung.svg"
   xmlns:inkscape="http://www.inkscape.org/namespaces/inkscape"
   xmlns:sodipodi="http://sodipodi.sourceforge.net/DTD/sodipodi-0.dtd"
   xmlns="http://www.w3.org/2000/svg"
   xmlns:svg="http://www.w3.org/2000/svg">
  <sodipodi:namedview
     id="namedview7"
     pagecolor="#ffffff"
     bordercolor="#666666"
     borderopacity="1.0"
     inkscape:pageshadow="2"
     inkscape:pageopacity="0.0"
     inkscape:pagecheckerboard="0"
     inkscape:document-units="mm"
     showgrid="false"
     inkscape:zoom="1.877186"
     inkscape:cx="49.009529"
     inkscape:cy="241.85137"
     inkscape:window-width="1920"
     inkscape:window-height="1015"
     inkscape:window-x="0"
     inkscape:window-y="28"
     inkscape:window-maximized="1"
     inkscape:current-layer="layer1"
     showguides="true"
     inkscape:guide-bbox="true" />
  <defs
     id="defs2" />
  <g
     inkscape:label="Layer 1"
     inkscape:groupmode="layer"
     id="layer1">
    <path
       style="fill:#000000;stroke-width:0.266989"
       d="m -41.473828,37.131454 -4.472057,-2.569195 V 20.483715 6.4051814 l 4.548299,-2.6048375 4.548298,-2.6048369 3.758852,2.1689638 c 2.06737,1.1929266 3.85154,2.1689617 3.964822,2.1689617 0.113274,0 1.897455,-0.9760351 3.964822,-2.1689617 l 3.758851,-2.1689638 4.548298,2.6048369 4.548311,2.6048375 v 5.1398736 5.139873 l -3.200917,1.833177 c -1.760507,1.008258 -3.201211,1.893265 -3.201586,1.96668 -2.66e-4,0.07334 1.44005,0.952659 3.200907,1.953858 l 3.201596,1.820356 v 5.152699 5.152683 l -4.548311,2.604833 -4.548298,2.604854 -3.758851,-2.168973 c -2.067367,-1.192926 -3.852944,-2.168958 -3.96793,-2.168958 -0.115034,0 -1.870599,0.961151 -3.90134,2.135907 -2.030743,1.174742 -3.755139,2.134257 -3.831985,2.13226 -0.07685,-0.0024 -2.152152,-1.159801 -4.611781,-2.57285 z m 7.295052,-1.750495 c 1.310802,-0.764563 2.379334,-1.455391 2.374516,-1.535174 -0.0051,-0.07975 -2.011629,-1.28645 -4.459576,-2.681472 -2.44795,-1.395014 -5.027119,-2.869213 -5.731491,-3.276009 l -1.280674,-0.739614 v 3.037671 3.037694 l 3.003619,1.756211 c 1.651991,0.965923 3.162631,1.763998 3.356973,1.773505 0.194348,0.01 1.425831,-0.608243 2.736633,-1.372812 z m 11.402878,-2.389399 -0.07549,-2.978553 -9.878571,-5.723663 c -5.433214,-3.148029 -10.032821,-5.786863 -10.221349,-5.864109 -0.269704,-0.110512 -0.326623,0.506308 -0.266988,2.893243 l 0.07579,3.033685 10.012067,5.801198 c 5.506641,3.190664 10.106111,5.804706 10.221048,5.80898 0.11491,0.0051 0.175009,-1.332568 0.133493,-2.970781 z m 5.399888,1.61352 2.400786,-1.365014 v -3.051541 -3.051543 l -1.268193,0.734483 c -0.697509,0.403971 -1.808857,1.047927 -2.469645,1.431035 l -1.201453,0.696558 -0.07549,2.98552 c -0.04156,1.642039 -0.01,2.985536 0.06883,2.985536 0.07937,0 1.224698,-0.614265 2.545133,-1.365034 z m -1.564306,-8.017011 c 1.307857,-0.754818 2.432041,-1.459935 2.498178,-1.566945 0.06605,-0.107 -3.299595,-2.162641 -7.479383,-4.568088 -5.659955,-3.257298 -7.508317,-4.441705 -7.241905,-4.640552 0.196738,-0.146845 3.614082,-2.129231 7.594095,-4.405306 3.980013,-2.2760752 7.241524,-4.2036073 7.247773,-4.2833908 0.0159,-0.2032734 -4.688542,-2.9252958 -5.055815,-2.9252958 -0.325441,0 -19.673478,11.0978346 -20.239684,11.6092786 -0.268738,0.242741 1.88062,1.596977 9.87857,6.224153 5.622127,3.252649 10.266634,5.917207 10.321139,5.921224 0.0545,0.004 1.169154,-0.610264 2.477032,-1.365078 z m 0.903863,-9.462935 3.061229,-1.757711 V 12.288644 9.209857 l -0.60072,0.388262 c -0.330402,0.2135515 -2.763343,1.625712 -5.406518,3.138151 -2.643194,1.512433 -4.963731,2.895424 -5.15678,3.073316 -0.282051,0.259921 0.111138,0.590363 2.002423,1.682606 1.294358,0.747554 2.507685,1.366259 2.696266,1.374912 0.188584,0.0087 1.720429,-0.775221 3.4041,-1.74197 z M -36.263836,9.8052453 c 2.447947,-1.3950121 4.454758,-2.6016746 4.459576,-2.6814581 0.01225,-0.2035069 -4.692059,-2.9252958 -5.056088,-2.9252958 -0.164061,0 -1.674699,0.7967996 -3.356971,1.7706722 l -3.058682,1.7706735 v 3.0405149 3.04052 l 1.280674,-0.739614 c 0.704372,-0.406796 3.283541,-1.880995 5.731491,-3.2760127 z"
       id="path1109"
       sodipodi:nodetypes="scccccssscccccscscccccssscsscsscccscsccssscscscccccssccsscscssssssscsscccsssccssssscccss" />
    <g
       id="g24696"
       inkscape:export-filename="/home/albert/www/kampung.dev/data-design/g24696.png"
       inkscape:export-xdpi="117.525"
       inkscape:export-ydpi="117.525">
      <g
         id="g5921"
         transform="matrix(0.49458204,0,0,0.49458204,12.600123,-30.342894)">
        <path
           style="fill:#000000;stroke-width:0.352974"
           d="m 16.583956,108.43283 c 16.505721,6.52784 44.806977,23.19299 42.498143,9.61393 L 47.976378,96.159915 70.494785,96.189401 59.216539,118.04536 c 3.9479,7.65559 8.129315,15.76668 11.362575,22.0382 H 47.698575 L 36.428048,120.69482 36.25109,140.08354 H 16.583832 c 2.19e-4,-9.43689 1.24e-4,-3.29315 1.24e-4,-31.65071 z"
           id="path872"
           sodipodi:nodetypes="ccccccccccc" />
        <circle
           style="fill:#000000;stroke-width:0.0131211;stroke-linecap:round;stroke-linejoin:round;paint-order:markers fill stroke"
           id="path5729"
           cx="37.109283"
           cy="104.59227"
           r="8.5627022" />
      </g>
      <path
         d="m 59.117103,30.370058 h 1.057989 l 0.838229,-2.809145 q 1.034179,-3.465828 0.981227,-4.633265 -0.0056,-1.203919 -1.100054,-1.203919 -0.656683,0 -1.312781,0.364824 -0.608728,0.328342 -0.793791,0.948542 -0.17418,0.583719 -0.140346,1.20392 h 0.91206 q 0.06325,0.76613 -0.263356,1.860602 -0.315695,1.057989 -1.46725,1.860602 -1.140668,0.766131 -2.527,0.766131 -3.137486,0 -2.23394,-3.028039 1.338989,-4.487336 8.963811,-4.487336 4.341405,0 5.536783,1.495779 1.242747,1.459296 0.06705,5.399395 l -2.209876,7.405927 q -0.566077,1.897085 0.491913,1.897085 1.240401,0 2.580563,-3.757687 l 0.536351,0.03648 q -1.103906,3.210451 -2.521136,4.41437 -1.417231,1.203919 -3.825069,1.203919 -4.377888,0 -4.229,-2.699697 -0.887943,1.386331 -2.032435,2.043014 -1.144492,0.656683 -2.968612,0.656683 -5.399395,0 -4.082178,-4.41437 0.772912,-2.59025 3.098965,-3.538793 2.373421,-0.985024 6.641862,-0.985024 z m -2.798285,4.487335 q -0.566077,1.897084 -0.546956,2.44432 0.0556,0.547236 0.602839,0.547236 0.583718,0 1.330142,-0.91206 0.793792,-0.948542 1.283665,-2.59025 l 1.012407,-3.392863 h -0.255377 q -2.261908,0 -3.252542,3.319898 z"
         id="path19251"
         style="font-weight:bold;font-size:36.4824px;line-height:1.25;font-family:'Abril Fatface';-inkscape-font-specification:'Abril Fatface Bold';letter-spacing:1.24371px;word-spacing:1.64171px;stroke-width:1.24371" />
      <path
         d="m 72.917653,21.577799 h 8.792258 l -0.87335,3.356381 q 2.172199,-3.721205 6.258228,-3.721205 4.122511,0 3.972851,3.9401 2.302122,-3.9401 6.388146,-3.9401 5.362914,0 3.777594,6.092561 l -2.857374,10.981202 h 2.043024 l -0.17087,0.656683 H 90.142525 l 0.170873,-0.656683 h 1.276884 l 3.085205,-11.856779 q 0.721463,-2.772663 0.370599,-3.246934 -0.161936,-0.218894 -0.52676,-0.218894 -1.057989,0 -2.230827,1.422813 -1.172837,1.422814 -1.742414,3.611758 l -2.677008,10.288036 h 1.313366 l -0.170873,0.656683 h -9.375976 l 0.170873,-0.656683 h 1.276884 l 3.085205,-11.856779 q 0.721463,-2.772663 0.3706,-3.246934 -0.161937,-0.218894 -0.526761,-0.218894 -1.021507,0 -2.268799,1.568743 -1.201316,1.532261 -1.761399,3.684722 l -2.620051,10.069142 h 1.313366 l -0.170873,0.656683 H 68.399015 l 0.170873,-0.656683 H 70.57642 L 74.753312,22.234483 H 72.74678 Z"
         id="path19253"
         style="font-weight:bold;font-size:36.4824px;line-height:1.25;font-family:'Abril Fatface';-inkscape-font-specification:'Abril Fatface Bold';letter-spacing:1.24371px;word-spacing:1.64171px;stroke-width:1.24371" />
      <path
         d="m 116.44907,29.129656 c 0.57035,-2.505125 0.83082,-4.183315 0.78142,-5.034571 -0.0439,-0.875577 -0.41847,-1.313366 -1.1238,-1.313366 -0.70533,0 -1.4429,0.46211 -2.21271,1.386331 -0.76428,0.899899 -1.32086,2.115979 -1.66971,3.64824 l -1.52003,6.676279 c -0.23811,1.045829 -0.23349,1.933567 0.0139,2.663215 0.24734,0.729648 0.77232,1.094472 1.57493,1.094472 0.80261,0 1.47167,-0.535075 2.00718,-1.605226 0.53551,-1.07015 1.10782,-2.942913 1.71694,-5.618289 z m -2.87741,-7.551857 -0.65619,2.88211 c 1.44137,-2.164623 3.36598,-3.246934 5.77382,-3.246934 2.09165,0 3.53738,0.75397 4.33718,2.261909 0.82411,1.507939 0.88731,3.79417 0.18959,6.858691 -0.69771,3.064521 -1.84505,5.32643 -3.44202,6.785726 -1.57264,1.459296 -3.61153,2.188944 -6.11666,2.188944 -1.16744,0 -2.00979,-0.145929 -2.52705,-0.437788 -0.51727,-0.291859 -0.8891,-0.741809 -1.1155,-1.349849 l -1.56342,5.611048 h 61.54602 l -0.14951,0.656683 H 20.799336 l 0.14951,-0.656683 h 80.716844 l 5.0437,-20.897173 h -1.93357 l 0.14951,-0.656684 z"
         id="path19255"
         style="font-weight:bold;font-size:36.4824px;line-height:1.25;font-family:'Abril Fatface';-inkscape-font-specification:'Abril Fatface Bold';letter-spacing:1.24371px;word-spacing:1.64171px;fill:#ff9955;fill-opacity:1;stroke-width:1.24371"
         sodipodi:nodetypes="scscsssssssccscscssccccccccccc" />
      <path
         d="m 146.26007,38.943421 h -8.31799 l -0.4013,-2.663215 q -0.58372,1.459296 -1.75116,2.261909 -1.13095,0.76613 -3.39286,0.76613 -5.65477,0 -5.65477,-6.09256 V 22.234483 h -2.04302 v -0.656684 h 8.82874 v 12.513463 q 0,2.188944 0.29186,2.88211 0.32834,0.693165 1.2404,0.693165 0.94854,0 1.67819,-1.130954 0.72965,-1.130954 0.72965,-3.137486 V 22.234483 h -1.67819 v -0.656684 h 8.46392 v 16.708939 h 2.00653 z"
         id="path19257"
         style="font-weight:bold;font-size:36.4824px;line-height:1.25;font-family:'Abril Fatface';-inkscape-font-specification:'Abril Fatface Bold';letter-spacing:1.24371px;word-spacing:1.64171px;fill:#ff9955;stroke-width:1.24371" />
      <path
         d="m 146.26007,21.577799 h 8.79226 v 3.356381 c 0.38915,-1.118793 0.98503,-2.018692 1.78764,-2.699697 0.80261,-0.681005 2.01869,-1.021508 3.64824,-1.021508 3.76985,0 5.65477,2.030854 5.65477,6.092561 v 10.981202 h 3.00306 v 0.656683 h -10.49477 v -0.656683 h 0.70599 V 26.429959 c 0,-1.459296 -0.0973,-2.395678 -0.29186,-2.809145 -0.19457,-0.437789 -0.54724,-0.656683 -1.05799,-0.656683 -0.77829,0 -1.47146,0.510753 -2.0795,1.53226 -0.58372,1.021507 -0.87558,2.261909 -0.87558,3.721205 v 10.069142 h 0.67624 v 0.656683 h -9.4685 v -0.656683 h 2.00654 V 22.234483 h -2.00654 z"
         id="path19259"
         style="font-weight:bold;font-size:36.4824px;line-height:1.25;font-family:'Abril Fatface';-inkscape-font-specification:'Abril Fatface Bold';letter-spacing:1.24371px;word-spacing:1.64171px;fill:#ff9955;stroke-width:1.24371"
         sodipodi:nodetypes="cccsssccccccscscsccccccccc" />
      <path
         d="m 182.62297,19.482957 1.02863,-0.624522 q 0.22043,-1.138834 -0.88168,-1.138834 -1.57967,0 -1.57967,2.424615 0,0.955151 0.25716,2.204195 2.79198,1.873565 2.79198,4.812492 0,2.902191 -2.02051,4.518601 -2.02051,1.61641 -5.47376,1.61641 -1.43272,0 -2.97566,-0.293893 -1.61641,1.028624 -1.61641,1.542936 0,0.514313 2.35114,0.514313 h 3.74713 q 8.33921,0 8.33921,5.988063 0,3.23282 -2.53482,5.106385 -2.4981,1.910303 -7.8249,1.910303 -9.07394,0 -9.07394,-3.930815 0,-2.130722 2.82872,-2.938927 l 2.20419,0.991888 q -0.29389,1.065361 -0.29389,2.020512 0,3.159347 4.70229,3.159347 2.86545,0 4.40839,-1.065361 1.54293,-1.065361 1.54293,-2.645034 0,-1.579674 -0.95514,-2.130722 -0.91842,-0.514313 -3.71041,-0.514313 h -3.56344 q -2.97566,0 -4.26145,-0.991887 -1.28578,-0.991888 -1.28578,-2.424615 0,-1.469464 0.91842,-2.424615 0.91841,-0.991888 3.26955,-2.424614 -4.26144,-1.212307 -4.26144,-5.583962 0,-2.755244 1.98377,-4.445126 1.98378,-1.689884 5.95133,-1.689884 2.38788,0 4.07777,0.918415 -0.22043,-0.991887 -0.22043,-1.800092 0,-2.057249 1.10211,-2.975663 1.10209,-0.918415 2.46135,-0.918415 1.35925,0 2.16745,0.734732 0.84494,0.697994 0.84494,1.947039 0,1.249043 -0.66126,1.873565 -0.66125,0.587785 -1.6164,0.587785 -0.91841,0 -1.54295,-0.477575 -0.58777,-0.514312 -0.62452,-1.432727 z m -7.78814,6.869741 v 1.983776 q 0,2.461352 0.40409,3.34303 0.44084,0.881678 1.28579,0.881678 0.88167,0 1.24904,-0.844941 0.4041,-0.881679 0.4041,-3.563449 v -1.800094 q 0,-2.865453 -0.36737,-3.747131 -0.36736,-0.918414 -1.24904,-0.918414 -0.84494,0 -1.28578,0.95515 -0.44083,0.918415 -0.44083,3.710395 z"
         id="path19261"
         style="font-weight:bold;font-size:36.4824px;line-height:1.25;font-family:'Abril Fatface';-inkscape-font-specification:'Abril Fatface Bold';letter-spacing:1.24371px;word-spacing:1.64171px;fill:#ff9955;stroke-width:1.25238" />
    </g>
    <rect
       style="fill:#ff9955;stroke-width:0.0230935;stroke-linecap:round;stroke-linejoin:round;paint-order:markers fill stroke"
       id="rect859"
       width="41.94326"
       height="41.94326"
       x="-48.08992"
       y="47.258308"
       ry="2.0945225"
       inkscape:export-filename="/home/albert/www/kampung.dev/data-design/g7871.png"
       inkscape:export-xdpi="117.525"
       inkscape:export-ydpi="117.525" />
    <g
       id="g7871"
       transform="matrix(0.4175129,0,0,0.4175129,-53.445597,12.300215)"
       inkscape:export-filename="/home/albert/www/kampung.dev/data-design/g7871.png"
       inkscape:export-xdpi="117.525"
       inkscape:export-ydpi="117.525">
      <rect
         style="fill:none;stroke-width:0.0269999;stroke-linecap:round;stroke-linejoin:round;paint-order:markers fill stroke"
         id="rect5945"
         width="82.33519"
         height="82.33519"
         x="22.119011"
         y="96.152275"
         ry="4.2776508" />
      <g
         id="g6031"
         transform="matrix(1.5228844,0,0,1.5228844,-2.9895865,-41.850169)"
         style="fill:#1a1a1a">
        <path
           style="fill:#1a1a1a;stroke-width:0.352974"
           d="m 16.583956,108.43283 c 16.505721,6.52784 44.806977,23.19299 42.498143,9.61393 L 47.976378,96.159915 70.494785,96.189401 59.216539,118.04536 c 3.9479,7.65559 8.129315,15.76668 11.362575,22.0382 H 47.698575 L 36.428048,120.69482 36.25109,140.08354 H 16.583832 c 2.19e-4,-9.43689 1.24e-4,-3.29315 1.24e-4,-31.65071 z"
           id="path6027"
           sodipodi:nodetypes="ccccccccccc" />
        <circle
           style="fill:#1a1a1a;stroke-width:0.0131211;stroke-linecap:round;stroke-linejoin:round;paint-order:markers fill stroke"
           id="circle6029"
           cx="37.109283"
           cy="104.59227"
           r="8.5627022" />
      </g>
    </g>
  </g>
</svg>
