<?xml version="1.0" encoding="UTF-8" standalone="no"?>
<!-- Created with Inkscape (http://www.inkscape.org/) -->

<svg
   width="37mm"
   height="7mm"
   viewBox="0 0 37 7"
   version="1.1"
   id="svg5"
   inkscape:version="1.1.2 (0a00cf5339, 2022-02-04)"
   sodipodi:docname="logo_kampung.svg"
   xmlns:inkscape="http://www.inkscape.org/namespaces/inkscape"
   xmlns:sodipodi="http://sodipodi.sourceforge.net/DTD/sodipodi-0.dtd"
   xmlns="http://www.w3.org/2000/svg"
   xmlns:svg="http://www.w3.org/2000/svg">
  <sodipodi:namedview
     id="namedview7"
     pagecolor="#ffffff"
     bordercolor="#666666"
     borderopacity="1.0"
     inkscape:pageshadow="2"
     inkscape:pageopacity="0.0"
     inkscape:pagecheckerboard="0"
     inkscape:document-units="mm"
     showgrid="false"
     inkscape:zoom="2.6547419"
     inkscape:cx="28.251334"
     inkscape:cy="1.8834223"
     inkscape:window-width="1920"
     inkscape:window-height="1015"
     inkscape:window-x="0"
     inkscape:window-y="28"
     inkscape:window-maximized="1"
     inkscape:current-layer="layer1"
     showguides="true"
     inkscape:guide-bbox="true"
     height="25mm" />
  <defs
     id="defs2" />
  <g
     inkscape:label="Layer 1"
     inkscape:groupmode="layer"
     id="layer1">
    <g
       id="g24696"
       inkscape:export-filename="/home/albert/www/kampung.dev/data-design/g24696.png"
       inkscape:export-xdpi="117.525"
       inkscape:export-ydpi="117.525"
       transform="matrix(0.21743414,0,0,0.21743414,-4.3470071,-3.4943851)"
       style="fill:#ffffff">
      <g
         id="g5921"
         transform="matrix(0.49458204,0,0,0.49458204,12.600123,-30.342894)"
         style="fill:#ffffff">
        <path
           style="fill:#ffffff;stroke-width:0.352974"
           d="m 16.583956,108.43283 c 16.505721,6.52784 44.806977,23.19299 42.498143,9.61393 L 47.976378,96.159915 70.494785,96.189401 59.216539,118.04536 c 3.9479,7.65559 8.129315,15.76668 11.362575,22.0382 H 47.698575 L 36.428048,120.69482 36.25109,140.08354 H 16.583832 c 2.19e-4,-9.43689 1.24e-4,-3.29315 1.24e-4,-31.65071 z"
           id="path872"
           sodipodi:nodetypes="ccccccccccc" />
        <circle
           style="fill:#ffffff;stroke-width:0.0131211;stroke-linecap:round;stroke-linejoin:round;paint-order:markers fill stroke"
           id="path5729"
           cx="37.109283"
           cy="104.59227"
           r="8.5627022" />
      </g>
      <path
         d="m 59.117103,30.370058 h 1.057989 l 0.838229,-2.809145 q 1.034179,-3.465828 0.981227,-4.633265 -0.0056,-1.203919 -1.100054,-1.203919 -0.656683,0 -1.312781,0.364824 -0.608728,0.328342 -0.793791,0.948542 -0.17418,0.583719 -0.140346,1.20392 h 0.91206 q 0.06325,0.76613 -0.263356,1.860602 -0.315695,1.057989 -1.46725,1.860602 -1.140668,0.766131 -2.527,0.766131 -3.137486,0 -2.23394,-3.028039 1.338989,-4.487336 8.963811,-4.487336 4.341405,0 5.536783,1.495779 1.242747,1.459296 0.06705,5.399395 l -2.209876,7.405927 q -0.566077,1.897085 0.491913,1.897085 1.240401,0 2.580563,-3.757687 l 0.536351,0.03648 q -1.103906,3.210451 -2.521136,4.41437 -1.417231,1.203919 -3.825069,1.203919 -4.377888,0 -4.229,-2.699697 -0.887943,1.386331 -2.032435,2.043014 -1.144492,0.656683 -2.968612,0.656683 -5.399395,0 -4.082178,-4.41437 0.772912,-2.59025 3.098965,-3.538793 2.373421,-0.985024 6.641862,-0.985024 z m -2.798285,4.487335 q -0.566077,1.897084 -0.546956,2.44432 0.0556,0.547236 0.602839,0.547236 0.583718,0 1.330142,-0.91206 0.793792,-0.948542 1.283665,-2.59025 l 1.012407,-3.392863 h -0.255377 q -2.261908,0 -3.252542,3.319898 z"
         id="path19251"
         style="font-weight:bold;font-size:36.4824px;line-height:1.25;font-family:'Abril Fatface';-inkscape-font-specification:'Abril Fatface Bold';letter-spacing:1.24371px;word-spacing:1.64171px;stroke-width:1.24371;fill:#ffffff" />
      <path
         d="m 72.917653,21.577799 h 8.792258 l -0.87335,3.356381 q 2.172199,-3.721205 6.258228,-3.721205 4.122511,0 3.972851,3.9401 2.302122,-3.9401 6.388146,-3.9401 5.362914,0 3.777594,6.092561 l -2.857374,10.981202 h 2.043024 l -0.17087,0.656683 H 90.142525 l 0.170873,-0.656683 h 1.276884 l 3.085205,-11.856779 q 0.721463,-2.772663 0.370599,-3.246934 -0.161936,-0.218894 -0.52676,-0.218894 -1.057989,0 -2.230827,1.422813 -1.172837,1.422814 -1.742414,3.611758 l -2.677008,10.288036 h 1.313366 l -0.170873,0.656683 h -9.375976 l 0.170873,-0.656683 h 1.276884 l 3.085205,-11.856779 q 0.721463,-2.772663 0.3706,-3.246934 -0.161937,-0.218894 -0.526761,-0.218894 -1.021507,0 -2.268799,1.568743 -1.201316,1.532261 -1.761399,3.684722 l -2.620051,10.069142 h 1.313366 l -0.170873,0.656683 H 68.399015 l 0.170873,-0.656683 H 70.57642 L 74.753312,22.234483 H 72.74678 Z"
         id="path19253"
         style="font-weight:bold;font-size:36.4824px;line-height:1.25;font-family:'Abril Fatface';-inkscape-font-specification:'Abril Fatface Bold';letter-spacing:1.24371px;word-spacing:1.64171px;stroke-width:1.24371;fill:#ffffff" />
      <path
         d="m 116.44907,29.129656 c 0.57035,-2.505125 0.83082,-4.183315 0.78142,-5.034571 -0.0439,-0.875577 -0.41847,-1.313366 -1.1238,-1.313366 -0.70533,0 -1.4429,0.46211 -2.21271,1.386331 -0.76428,0.899899 -1.32086,2.115979 -1.66971,3.64824 l -1.52003,6.676279 c -0.23811,1.045829 -0.23349,1.933567 0.0139,2.663215 0.24734,0.729648 0.77232,1.094472 1.57493,1.094472 0.80261,0 1.47167,-0.535075 2.00718,-1.605226 0.53551,-1.07015 1.10782,-2.942913 1.71694,-5.618289 z m -2.87741,-7.551857 -0.65619,2.88211 c 1.44137,-2.164623 3.36598,-3.246934 5.77382,-3.246934 2.09165,0 3.53738,0.75397 4.33718,2.261909 0.82411,1.507939 0.88731,3.79417 0.18959,6.858691 -0.69771,3.064521 -1.84505,5.32643 -3.44202,6.785726 -1.57264,1.459296 -3.61153,2.188944 -6.11666,2.188944 -1.16744,0 -2.00979,-0.145929 -2.52705,-0.437788 -0.51727,-0.291859 -0.8891,-0.741809 -1.1155,-1.349849 l -1.56342,5.611048 h 61.54602 l -0.14951,0.656683 H 20.799336 l 0.14951,-0.656683 h 80.716844 l 5.0437,-20.897173 h -1.93357 l 0.14951,-0.656684 z"
         id="path19255"
         style="font-weight:bold;font-size:36.4824px;line-height:1.25;font-family:'Abril Fatface';-inkscape-font-specification:'Abril Fatface Bold';letter-spacing:1.24371px;word-spacing:1.64171px;fill:#ffffff;fill-opacity:1;stroke-width:1.24371"
         sodipodi:nodetypes="scscsssssssccscscssccccccccccc" />
      <path
         d="m 146.26007,38.943421 h -8.31799 l -0.4013,-2.663215 q -0.58372,1.459296 -1.75116,2.261909 -1.13095,0.76613 -3.39286,0.76613 -5.65477,0 -5.65477,-6.09256 V 22.234483 h -2.04302 v -0.656684 h 8.82874 v 12.513463 q 0,2.188944 0.29186,2.88211 0.32834,0.693165 1.2404,0.693165 0.94854,0 1.67819,-1.130954 0.72965,-1.130954 0.72965,-3.137486 V 22.234483 h -1.67819 v -0.656684 h 8.46392 v 16.708939 h 2.00653 z"
         id="path19257"
         style="font-weight:bold;font-size:36.4824px;line-height:1.25;font-family:'Abril Fatface';-inkscape-font-specification:'Abril Fatface Bold';letter-spacing:1.24371px;word-spacing:1.64171px;fill:#ffffff;stroke-width:1.24371" />
      <path
         d="m 146.26007,21.577799 h 8.79226 v 3.356381 c 0.38915,-1.118793 0.98503,-2.018692 1.78764,-2.699697 0.80261,-0.681005 2.01869,-1.021508 3.64824,-1.021508 3.76985,0 5.65477,2.030854 5.65477,6.092561 v 10.981202 h 3.00306 v 0.656683 h -10.49477 v -0.656683 h 0.70599 V 26.429959 c 0,-1.459296 -0.0973,-2.395678 -0.29186,-2.809145 -0.19457,-0.437789 -0.54724,-0.656683 -1.05799,-0.656683 -0.77829,0 -1.47146,0.510753 -2.0795,1.53226 -0.58372,1.021507 -0.87558,2.261909 -0.87558,3.721205 v 10.069142 h 0.67624 v 0.656683 h -9.4685 v -0.656683 h 2.00654 V 22.234483 h -2.00654 z"
         id="path19259"
         style="font-weight:bold;font-size:36.4824px;line-height:1.25;font-family:'Abril Fatface';-inkscape-font-specification:'Abril Fatface Bold';letter-spacing:1.24371px;word-spacing:1.64171px;fill:#ffffff;stroke-width:1.24371"
         sodipodi:nodetypes="cccsssccccccscscsccccccccc" />
      <path
         d="m 182.62297,19.482957 1.02863,-0.624522 q 0.22043,-1.138834 -0.88168,-1.138834 -1.57967,0 -1.57967,2.424615 0,0.955151 0.25716,2.204195 2.79198,1.873565 2.79198,4.812492 0,2.902191 -2.02051,4.518601 -2.02051,1.61641 -5.47376,1.61641 -1.43272,0 -2.97566,-0.293893 -1.61641,1.028624 -1.61641,1.542936 0,0.514313 2.35114,0.514313 h 3.74713 q 8.33921,0 8.33921,5.988063 0,3.23282 -2.53482,5.106385 -2.4981,1.910303 -7.8249,1.910303 -9.07394,0 -9.07394,-3.930815 0,-2.130722 2.82872,-2.938927 l 2.20419,0.991888 q -0.29389,1.065361 -0.29389,2.020512 0,3.159347 4.70229,3.159347 2.86545,0 4.40839,-1.065361 1.54293,-1.065361 1.54293,-2.645034 0,-1.579674 -0.95514,-2.130722 -0.91842,-0.514313 -3.71041,-0.514313 h -3.56344 q -2.97566,0 -4.26145,-0.991887 -1.28578,-0.991888 -1.28578,-2.424615 0,-1.469464 0.91842,-2.424615 0.91841,-0.991888 3.26955,-2.424614 -4.26144,-1.212307 -4.26144,-5.583962 0,-2.755244 1.98377,-4.445126 1.98378,-1.689884 5.95133,-1.689884 2.38788,0 4.07777,0.918415 -0.22043,-0.991887 -0.22043,-1.800092 0,-2.057249 1.10211,-2.975663 1.10209,-0.918415 2.46135,-0.918415 1.35925,0 2.16745,0.734732 0.84494,0.697994 0.84494,1.947039 0,1.249043 -0.66126,1.873565 -0.66125,0.587785 -1.6164,0.587785 -0.91841,0 -1.54295,-0.477575 -0.58777,-0.514312 -0.62452,-1.432727 z m -7.78814,6.869741 v 1.983776 q 0,2.461352 0.40409,3.34303 0.44084,0.881678 1.28579,0.881678 0.88167,0 1.24904,-0.844941 0.4041,-0.881679 0.4041,-3.563449 v -1.800094 q 0,-2.865453 -0.36737,-3.747131 -0.36736,-0.918414 -1.24904,-0.918414 -0.84494,0 -1.28578,0.95515 -0.44083,0.918415 -0.44083,3.710395 z"
         id="path19261"
         style="font-weight:bold;font-size:36.4824px;line-height:1.25;font-family:'Abril Fatface';-inkscape-font-specification:'Abril Fatface Bold';letter-spacing:1.24371px;word-spacing:1.64171px;fill:#ffffff;stroke-width:1.25238" />
    </g>
  </g>
</svg>
