<?xml version="1.0" encoding="UTF-8" standalone="no"?>
<!-- Created with Inkscape (http://www.inkscape.org/) -->

<svg
   xmlns:dc="http://purl.org/dc/elements/1.1/"
   xmlns:cc="http://creativecommons.org/ns#"
   xmlns:rdf="http://www.w3.org/1999/02/22-rdf-syntax-ns#"
   xmlns:svg="http://www.w3.org/2000/svg"
   xmlns="http://www.w3.org/2000/svg"
   xmlns:sodipodi="http://sodipodi.sourceforge.net/DTD/sodipodi-0.dtd"
   xmlns:inkscape="http://www.inkscape.org/namespaces/inkscape"
   width="138"
   height="178"
   id="svg3270"
   version="1.1"
   inkscape:version="0.48.3.1 r9886"
   sodipodi:docname="New document 2">
  <defs
     id="defs3272" />
  <sodipodi:namedview
     id="base"
     pagecolor="#ffffff"
     bordercolor="#666666"
     borderopacity="1.0"
     inkscape:pageopacity="0.0"
     inkscape:pageshadow="2"
     inkscape:zoom="1.979899"
     inkscape:cx="74.292164"
     inkscape:cy="91.923006"
     inkscape:document-units="px"
     inkscape:current-layer="layer1"
     showgrid="false"
     inkscape:window-width="838"
     inkscape:window-height="607"
     inkscape:window-x="254"
     inkscape:window-y="24"
     inkscape:window-maximized="0" />
  <metadata
     id="metadata3275">
    <rdf:RDF>
      <cc:Work
         rdf:about="">
        <dc:format>image/svg+xml</dc:format>
        <dc:type
           rdf:resource="http://purl.org/dc/dcmitype/StillImage" />
        <dc:title></dc:title>
      </cc:Work>
    </rdf:RDF>
  </metadata>
  <g
     inkscape:label="Layer 1"
     inkscape:groupmode="layer"
     id="layer1"
     transform="translate(0,-874.36218)">
    <g
       id="g3351"
       transform="translate(3.0304576,-3.5355339)">
      <path
         sodipodi:nodetypes="ccccccccccccccccccccccccc"
         inkscape:connector-curvature="0"
         style="fill:#44aa00;fill-opacity:1;fill-rule:evenodd;stroke:none"
         d="m 65.654475,1009.6528 49.865685,-27.98639 0,-0.41762 0,-51.3284 -31.774896,-18.76124 0,19.43729 19.532796,11.17846 -0.0241,18.07581 -23.804473,-13.59244 0,-48.77208 0,-0.31089 -13.79468,-8.59407 -0.771591,-0.48128 0,10.17466 0,56.58333 0.03007,27.53134 -14.109301,10.01736 0,-67.04079 -26.345873,18.3792 0.0404,15.76106 21.907459,-14.57189 0,15.65247 -31.941664,21.0123 51.182322,28.05381 z"
         id="path3216" />
      <g
         id="g3218"
         transform="matrix(0.50152194,0,0,0.50152194,-290.44938,716.41811)"
         style="fill:#4d4d4d">
        <g
           transform="matrix(4.5036047,0,0,4.5036047,351.15378,-3759.6885)"
           id="g3220"
           style="fill:#4d4d4d">
          <path
             d="m 66.360296,968.67113 0,0.51031 -1.664102,0.10355 c 0.443753,0.55224 0.665633,1.15872 0.66564,1.81942 -7e-6,0.77412 -0.258866,1.40278 -0.77658,1.886 -0.512797,0.47828 -1.203091,0.7174 -2.070886,0.7174 -0.364872,0 -0.621267,-0.0147 -0.769185,-0.0443 -0.290912,0.15285 -0.512792,0.33282 -0.665641,0.53989 -0.152853,0.2071 -0.229278,0.42651 -0.229277,0.65825 -10e-7,0.25639 0.09614,0.44377 0.288446,0.56211 0.197223,0.11828 0.525114,0.17749 0.983669,0.17749 l 1.405243,0 c 0.872724,0 1.54083,0.17751 2.00432,0.53253 0.463476,0.35007 0.695219,0.87026 0.695225,1.56054 -6e-6,0.84808 -0.345154,1.50138 -1.035442,1.95995 -0.685369,0.46349 -1.664107,0.69523 -2.936216,0.69523 -1.010793,0 -1.794769,-0.19477 -2.351934,-0.58428 -0.552236,-0.38954 -0.828354,-0.93191 -0.828354,-1.62712 0,-0.55224 0.170108,-1.0108 0.510325,-1.37567 0.345147,-0.36487 0.811094,-0.61387 1.397847,-0.74699 -0.241605,-0.10355 -0.436367,-0.249 -0.584285,-0.43637 -0.142992,-0.1923 -0.214486,-0.41171 -0.214485,-0.65825 -10e-7,-0.53745 0.342681,-1.01078 1.028046,-1.42003 -0.468416,-0.1923 -0.833285,-0.49307 -1.09461,-0.90232 -0.261326,-0.41417 -0.391989,-0.88752 -0.391988,-1.42003 -1e-6,-0.8037 0.253928,-1.44715 0.761789,-1.93036 0.512787,-0.48812 1.203082,-0.73219 2.070884,-0.7322 0.527578,10e-6 0.936823,0.0517 1.227737,0.1553 l 2.573814,0 m -6.508493,9.40034 c 0,1.10447 0.820957,1.65671 2.462873,1.65671 2.110325,0 3.165488,-0.67304 3.165496,-2.01911 -8e-6,-0.48321 -0.165185,-0.83329 -0.495534,-1.05023 -0.33036,-0.21696 -0.865338,-0.32543 -1.604935,-0.32543 l -1.316491,0 c -1.474275,0 -2.211409,0.57936 -2.211409,1.73806 m 0.61387,-6.89308 c -1e-6,0.62127 0.187364,1.10447 0.562097,1.44963 0.379659,0.34022 0.885054,0.51032 1.516183,0.51032 0.670567,0 1.183356,-0.1701 1.538371,-0.51032 0.359934,-0.34022 0.539904,-0.83329 0.539909,-1.47922 -5e-6,-0.68536 -0.184907,-1.19814 -0.5547,-1.53836 -0.364876,-0.34514 -0.877666,-0.51772 -1.538372,-0.51774 -0.640991,2e-5 -1.146384,0.18492 -1.516184,0.55472 -0.364871,0.36488 -0.547305,0.87519 -0.547304,1.53097"
             style="font-size:11.00093174px;font-style:normal;font-variant:normal;font-weight:300;font-stretch:normal;text-align:start;line-height:125%;letter-spacing:-0.94px;word-spacing:0px;writing-mode:lr-tb;text-anchor:start;fill:#4d4d4d;fill-opacity:1;stroke:none;font-family:Open Sans;-inkscape-font-specification:Open Sans Light"
             id="path3222"
             inkscape:connector-curvature="0" />
          <path
             d="m 69.182744,968.70848 c 0.247088,10e-6 0.512084,0.0251 0.794989,0.0752 l -0.102059,0.5103 c -0.243514,-0.0609 -0.495977,-0.0913 -0.757389,-0.0913 -0.497766,10e-6 -0.906003,0.21129 -1.224713,0.63385 -0.318713,0.42256 -0.478069,0.95614 -0.478067,1.60072 l 0,3.22293 -0.531784,0 0,-5.83888 0.45121,0 0.05372,1.05283 0.0376,0 c 0.239927,-0.42972 0.495971,-0.73053 0.768131,-0.90242 0.272156,-0.17547 0.601611,-0.2632 0.988365,-0.26321"
             style="font-size:11.00093174px;font-style:normal;font-variant:normal;font-weight:300;font-stretch:normal;text-align:start;line-height:125%;letter-spacing:-0.94px;word-spacing:0px;writing-mode:lr-tb;text-anchor:start;fill:#4d4d4d;fill-opacity:1;stroke:none;font-family:Open Sans;-inkscape-font-specification:Open Sans Light"
             id="path3224"
             inkscape:connector-curvature="0" />
          <path
             d="m 72.362722,974.76759 c -0.848708,0 -1.511198,-0.26142 -1.987473,-0.78425 -0.472698,-0.52283 -0.709045,-1.25515 -0.709045,-2.19696 0,-0.93107 0.229185,-1.67592 0.687558,-2.23457 0.458371,-0.56221 1.076098,-0.84332 1.853185,-0.84333 0.687554,10e-6 1.23008,0.23994 1.627579,0.71979 0.397489,0.47986 0.596237,1.13161 0.596242,1.95524 l 0,0.42973 -4.205923,0 c 0.0072,0.80215 0.193375,1.4145 0.558641,1.83707 0.368845,0.42256 0.895256,0.63384 1.579236,0.63384 0.333032,0 0.624886,-0.0233 0.875562,-0.0698 0.254249,-0.0466 0.574751,-0.14682 0.961507,-0.30081 l 0,0.48344 c -0.329459,0.14324 -0.633847,0.23993 -0.913163,0.29006 -0.279324,0.0537 -0.587293,0.0806 -0.923906,0.0806 m -0.155775,-5.58641 c -0.562225,0 -1.013435,0.18622 -1.353631,0.55864 -0.340199,0.36885 -0.538946,0.90242 -0.596241,1.60072 l 3.60968,0 c -5e-6,-0.67681 -0.146827,-1.20501 -0.440467,-1.58461 -0.293648,-0.38316 -0.700095,-0.57475 -1.219341,-0.57475"
             style="font-size:11.00093174px;font-style:normal;font-variant:normal;font-weight:300;font-stretch:normal;text-align:start;line-height:125%;letter-spacing:-0.94px;word-spacing:0px;writing-mode:lr-tb;text-anchor:start;fill:#4d4d4d;fill-opacity:1;stroke:none;font-family:Open Sans;-inkscape-font-specification:Open Sans Light"
             id="path3226"
             inkscape:connector-curvature="0" />
          <path
             d="m 77.460343,974.76759 c -0.848708,0 -1.511198,-0.26142 -1.987473,-0.78425 -0.472698,-0.52283 -0.709045,-1.25515 -0.709045,-2.19696 0,-0.93107 0.229185,-1.67592 0.687558,-2.23457 0.458371,-0.56221 1.076098,-0.84332 1.853185,-0.84333 0.687554,10e-6 1.23008,0.23994 1.627579,0.71979 0.397489,0.47986 0.596236,1.13161 0.596242,1.95524 l 0,0.42973 -4.205923,0 c 0.0072,0.80215 0.193375,1.4145 0.558641,1.83707 0.368845,0.42256 0.895256,0.63384 1.579236,0.63384 0.333032,0 0.624886,-0.0233 0.875562,-0.0698 0.254249,-0.0466 0.574751,-0.14682 0.961507,-0.30081 l 0,0.48344 c -0.32946,0.14324 -0.633847,0.23993 -0.913163,0.29006 -0.279324,0.0537 -0.587293,0.0806 -0.923906,0.0806 m -0.155775,-5.58641 c -0.562225,0 -1.013435,0.18622 -1.353631,0.55864 -0.340199,0.36885 -0.538946,0.90242 -0.596241,1.60072 l 3.60968,0 c -5e-6,-0.67681 -0.146827,-1.20501 -0.440467,-1.58461 -0.293648,-0.38316 -0.700095,-0.57475 -1.219341,-0.57475"
             style="font-size:11.00093174px;font-style:normal;font-variant:normal;font-weight:300;font-stretch:normal;text-align:start;line-height:125%;letter-spacing:-0.94px;word-spacing:0px;writing-mode:lr-tb;text-anchor:start;fill:#4d4d4d;fill-opacity:1;stroke:none;font-family:Open Sans;-inkscape-font-specification:Open Sans Light"
             id="path3228"
             inkscape:connector-curvature="0" />
          <path
             d="m 84.271487,974.66016 0,-3.78695 c -5e-6,-0.58728 -0.123551,-1.01342 -0.370637,-1.27842 -0.247096,-0.26858 -0.630266,-0.40286 -1.149512,-0.40287 -0.698304,10e-6 -1.210391,0.17727 -1.536263,0.53178 -0.322294,0.35095 -0.48344,0.92212 -0.483439,1.71353 l 0,3.22293 -0.531783,0 0,-5.83888 0.45121,0 0.102059,0.80036 0.03223,0 c 0.379587,-0.60877 1.054611,-0.91315 2.025073,-0.91316 1.324978,10e-6 1.987468,0.71084 1.987473,2.13251 l 0,3.81917 -0.526411,0"
             style="font-size:11.00093174px;font-style:normal;font-variant:normal;font-weight:300;font-stretch:normal;text-align:start;line-height:125%;letter-spacing:-0.94px;word-spacing:0px;writing-mode:lr-tb;text-anchor:start;fill:#4d4d4d;fill-opacity:1;stroke:none;font-family:Open Sans;-inkscape-font-specification:Open Sans Light"
             id="path3230"
             inkscape:connector-curvature="0" />
          <path
             d="m 88.214226,968.70848 c 0.816471,10e-6 1.430617,0.25784 1.842441,0.7735 0.415394,0.5121 0.623094,1.26232 0.623099,2.25068 -5e-6,0.97046 -0.218448,1.7189 -0.655329,2.24531 -0.433309,0.52641 -1.043875,0.78962 -1.831698,0.78962 -0.415402,0 -0.78962,-0.086 -1.122653,-0.25784 -0.333038,-0.17189 -0.596244,-0.4154 -0.789618,-0.73053 l -0.04834,0 -0.150403,0.88094 -0.333036,0 0,-8.35813 0.531783,0 0,2.10027 c -10e-7,0.31514 -0.0072,0.6052 -0.02149,0.87019 l -0.01611,0.45658 0.0376,0 c 0.222022,-0.35093 0.488809,-0.60877 0.800361,-0.7735 0.315128,-0.16472 0.692927,-0.24708 1.133397,-0.24709 m -0.01074,0.48344 c -0.687561,10e-6 -1.179952,0.19696 -1.477175,0.59087 -0.297228,0.39392 -0.44584,1.04387 -0.445839,1.94987 l 0,0.0913 c -10e-7,0.88093 0.153983,1.51299 0.461953,1.89616 0.311548,0.38317 0.794987,0.57475 1.450318,0.57475 0.63742,0 1.117278,-0.22202 1.439575,-0.66607 0.322288,-0.44763 0.483434,-1.08326 0.48344,-1.9069 -6e-6,-1.68666 -0.637429,-2.52999 -1.912272,-2.53"
             style="font-size:11.00093174px;font-style:normal;font-variant:normal;font-weight:300;font-stretch:normal;text-align:start;line-height:125%;letter-spacing:-0.94px;word-spacing:0px;writing-mode:lr-tb;text-anchor:start;fill:#4d4d4d;fill-opacity:1;stroke:none;font-family:Open Sans;-inkscape-font-specification:Open Sans Light"
             id="path3232"
             inkscape:connector-curvature="0" />
          <path
             d="m 96.190996,971.73266 c -6e-6,0.95256 -0.230982,1.69741 -0.69293,2.23457 -0.461958,0.53357 -1.099381,0.80036 -1.912271,0.80036 -0.512091,0 -0.9633,-0.12355 -1.353631,-0.37064 -0.390334,-0.24709 -0.689349,-0.60161 -0.897048,-1.06357 -0.207701,-0.46195 -0.311551,-0.99552 -0.31155,-1.60072 -10e-7,-0.95255 0.230976,-1.69382 0.69293,-2.22382 0.461951,-0.53357 1.095793,-0.80035 1.901528,-0.80036 0.802147,10e-6 1.430618,0.27037 1.885414,0.8111 0.458366,0.53716 0.687552,1.27486 0.687558,2.21308 m -4.608789,0 c -10e-7,0.80216 0.175469,1.42884 0.526412,1.88004 0.35452,0.44763 0.854074,0.67145 1.498662,0.67145 0.644582,0 1.142345,-0.22382 1.49329,-0.67145 0.354518,-0.4512 0.531779,-1.07788 0.531784,-1.88004 -5e-6,-0.80573 -0.179057,-1.43062 -0.537155,-1.87467 -0.354527,-0.44404 -0.85408,-0.66606 -1.498662,-0.66607 -0.644589,10e-6 -1.142352,0.22203 -1.493291,0.66607 -0.347361,0.44047 -0.521041,1.06536 -0.52104,1.87467"
             style="font-size:11.00093174px;font-style:normal;font-variant:normal;font-weight:300;font-stretch:normal;text-align:start;line-height:125%;letter-spacing:-0.94px;word-spacing:0px;writing-mode:lr-tb;text-anchor:start;fill:#4d4d4d;fill-opacity:1;stroke:none;font-family:Open Sans;-inkscape-font-specification:Open Sans Light"
             id="path3234"
             inkscape:connector-curvature="0" />
          <path
             d="m 98.087172,971.65746 -2.035817,-2.83618 0.612356,0 1.740382,2.46017 1.724267,-2.46017 0.5855,0 -2.003589,2.83618 2.148619,3.0027 -0.61773,0 -1.837067,-2.6052 -1.847813,2.6052 -0.585498,0 2.11639,-3.0027"
             style="font-size:11.00093174px;font-style:normal;font-variant:normal;font-weight:300;font-stretch:normal;text-align:start;line-height:125%;letter-spacing:-0.94px;word-spacing:0px;writing-mode:lr-tb;text-anchor:start;fill:#4d4d4d;fill-opacity:1;stroke:none;font-family:Open Sans;-inkscape-font-specification:Open Sans Light"
             id="path3236"
             inkscape:connector-curvature="0" />
        </g>
        <g
           transform="matrix(6.3802096,0,0,6.4417047,421.99697,-5984.3067)"
           id="g3238"
           style="fill:#4d4d4d">
          <path
             inkscape:connector-curvature="0"
             d="m 36.972807,1030.3574 -0.183194,0 0,-2.0114 0.183194,0 0,2.0114 m -0.2091,-2.5703 c 0,-0.1183 0.03886,-0.1776 0.116578,-0.1776 0.03823,0 0.06785,0.016 0.08883,0.047 0.0222,0.031 0.03331,0.075 0.03331,0.1313 0,0.055 -0.01111,0.099 -0.03331,0.1314 -0.02097,0.032 -0.05058,0.049 -0.08883,0.049 -0.07772,0 -0.116578,-0.06 -0.116578,-0.1796"
             style="font-size:5.56956673px;font-style:normal;font-variant:normal;font-weight:300;font-stretch:normal;text-align:start;line-height:125%;letter-spacing:-0.17839895px;word-spacing:0px;writing-mode:lr-tb;text-anchor:start;fill:#4d4d4d;fill-opacity:1;stroke:none;font-family:Open Sans;-inkscape-font-specification:Open Sans Light"
             id="path3240" />
          <path
             inkscape:connector-curvature="0"
             d="m 39.965456,1030.3574 0,-1.3045 c -2e-6,-0.2024 -0.04255,-0.3492 -0.127681,-0.4404 -0.08513,-0.092 -0.21712,-0.1388 -0.395994,-0.1388 -0.24056,0 -0.416969,0.061 -0.529228,0.1832 -0.111027,0.1208 -0.166541,0.3176 -0.16654,0.5902 l 0,1.1103 -0.183194,0 0,-2.0114 0.155437,0 0.03516,0.2758 0.01111,0 c 0.130764,-0.2098 0.363303,-0.3147 0.697617,-0.3147 0.456442,0 0.684663,0.2449 0.684665,0.7347 l 0,1.3156 -0.181344,0"
             style="font-size:5.56956673px;font-style:normal;font-variant:normal;font-weight:300;font-stretch:normal;text-align:start;line-height:125%;letter-spacing:-0.17839895px;word-spacing:0px;writing-mode:lr-tb;text-anchor:start;fill:#4d4d4d;fill-opacity:1;stroke:none;font-family:Open Sans;-inkscape-font-specification:Open Sans Light"
             id="path3242" />
          <path
             inkscape:connector-curvature="0"
             d="m 42.318747,1028.3071 c 0.145567,0 0.271398,0.026 0.37749,0.08 0.106091,0.053 0.201081,0.1437 0.284969,0.2721 l 0.01111,0 c -0.0074,-0.1555 -0.01111,-0.3079 -0.01111,-0.4571 l 0,-0.7236 0.181344,0 0,2.8793 -0.120279,0 -0.04626,-0.3072 -0.01481,0 c -0.152972,0.2294 -0.372557,0.3442 -0.658758,0.3442 -0.277567,0 -0.489751,-0.087 -0.636553,-0.259 -0.146801,-0.1727 -0.220203,-0.4244 -0.220203,-0.755 0,-0.3479 0.07279,-0.6137 0.218353,-0.7975 0.145567,-0.1838 0.357135,-0.2758 0.634702,-0.2758 m 0,0.1666 c -0.219587,0 -0.384892,0.077 -0.495919,0.2313 -0.109793,0.1542 -0.16469,0.3781 -0.164689,0.6717 -10e-7,0.5699 0.221436,0.8549 0.664309,0.8549 0.226986,0 0.393526,-0.066 0.49962,-0.198 0.10609,-0.132 0.159136,-0.3497 0.159138,-0.6532 l 0,-0.031 c -2e-6,-0.3109 -0.05243,-0.5342 -0.157288,-0.6699 -0.103626,-0.1369 -0.272016,-0.2054 -0.505171,-0.2054"
             style="font-size:5.56956673px;font-style:normal;font-variant:normal;font-weight:300;font-stretch:normal;text-align:start;line-height:125%;letter-spacing:-0.17839895px;word-spacing:0px;writing-mode:lr-tb;text-anchor:start;fill:#4d4d4d;fill-opacity:1;stroke:none;font-family:Open Sans;-inkscape-font-specification:Open Sans Light"
             id="path3244" />
          <path
             inkscape:connector-curvature="0"
             d="m 46.319641,1029.349 c -2e-6,0.3282 -0.07957,0.5847 -0.238708,0.7698 -0.159139,0.1838 -0.378726,0.2756 -0.658758,0.2756 -0.17641,0 -0.331847,-0.043 -0.466312,-0.1276 -0.134466,-0.086 -0.237475,-0.2073 -0.309024,-0.3664 -0.07155,-0.1592 -0.107326,-0.343 -0.107325,-0.5514 -10e-7,-0.3282 0.07957,-0.5836 0.238706,-0.7661 0.159137,-0.1838 0.37749,-0.2758 0.655058,-0.2758 0.276332,0 0.492833,0.093 0.649505,0.2795 0.157904,0.185 0.236856,0.4392 0.236858,0.7624 m -1.587681,0 c 0,0.2763 0.06045,0.4922 0.181343,0.6476 0.12213,0.1542 0.29422,0.2314 0.516274,0.2314 0.222052,0 0.393526,-0.078 0.514423,-0.2314 0.122128,-0.1554 0.183193,-0.3713 0.183194,-0.6476 -1e-6,-0.2776 -0.06168,-0.4929 -0.185044,-0.6459 -0.122131,-0.1529 -0.294221,-0.2294 -0.516274,-0.2294 -0.222055,0 -0.393529,0.077 -0.514424,0.2294 -0.119663,0.1518 -0.179492,0.367 -0.179492,0.6459"
             style="font-size:5.56956673px;font-style:normal;font-variant:normal;font-weight:300;font-stretch:normal;text-align:start;line-height:125%;letter-spacing:-0.17839895px;word-spacing:0px;writing-mode:lr-tb;text-anchor:start;fill:#4d4d4d;fill-opacity:1;stroke:none;font-family:Open Sans;-inkscape-font-specification:Open Sans Light"
             id="path3246" />
          <path
             inkscape:connector-curvature="0"
             d="m 49.067946,1030.3574 0,-1.3045 c -2e-6,-0.2024 -0.04255,-0.3492 -0.127681,-0.4404 -0.08513,-0.092 -0.217119,-0.1388 -0.395994,-0.1388 -0.240559,0 -0.416968,0.061 -0.529227,0.1832 -0.111028,0.1208 -0.166541,0.3176 -0.16654,0.5902 l 0,1.1103 -0.183194,0 0,-2.0114 0.155438,0 0.03516,0.2758 0.01111,0 c 0.130765,-0.2098 0.363304,-0.3147 0.697618,-0.3147 0.456441,0 0.684662,0.2449 0.684664,0.7347 l 0,1.3156 -0.181343,0"
             style="font-size:5.56956673px;font-style:normal;font-variant:normal;font-weight:300;font-stretch:normal;text-align:start;line-height:125%;letter-spacing:-0.17839895px;word-spacing:0px;writing-mode:lr-tb;text-anchor:start;fill:#4d4d4d;fill-opacity:1;stroke:none;font-family:Open Sans;-inkscape-font-specification:Open Sans Light"
             id="path3248" />
          <path
             inkscape:connector-curvature="0"
             d="m 51.566005,1030.3944 c -0.292371,0 -0.520592,-0.091 -0.684664,-0.2702 -0.162839,-0.1801 -0.244259,-0.4323 -0.244259,-0.7568 0,-0.3207 0.07895,-0.5772 0.236857,-0.7698 0.157904,-0.1936 0.370705,-0.2905 0.638403,-0.2905 0.236856,0 0.423751,0.083 0.560685,0.248 0.136931,0.1654 0.205398,0.3898 0.205399,0.6735 l 0,0.1481 -1.448897,0 c 0.0024,0.2763 0.06661,0.4873 0.192446,0.6329 0.127063,0.1456 0.308406,0.2184 0.54403,0.2184 0.114727,0 0.215267,-0.01 0.301623,-0.024 0.08759,-0.015 0.197995,-0.051 0.331229,-0.1035 l 0,0.1665 c -0.113495,0.05 -0.218355,0.083 -0.314574,0.1 -0.09622,0.019 -0.202318,0.028 -0.318278,0.028 m -0.05366,-1.9245 c -0.19368,0 -0.349117,0.064 -0.466312,0.1925 -0.117194,0.1271 -0.185661,0.3108 -0.205398,0.5513 l 1.243497,0 c -2e-6,-0.2331 -0.05058,-0.415 -0.151736,-0.5458 -0.101159,-0.132 -0.241175,-0.198 -0.420051,-0.198"
             style="font-size:5.56956673px;font-style:normal;font-variant:normal;font-weight:300;font-stretch:normal;text-align:start;line-height:125%;letter-spacing:-0.17839895px;word-spacing:0px;writing-mode:lr-tb;text-anchor:start;fill:#4d4d4d;fill-opacity:1;stroke:none;font-family:Open Sans;-inkscape-font-specification:Open Sans Light"
             id="path3250" />
          <path
             inkscape:connector-curvature="0"
             d="m 55.081795,1029.8338 c -10e-7,0.18 -0.06846,0.3189 -0.205399,0.4164 -0.136934,0.096 -0.331231,0.1442 -0.582889,0.1442 -0.268932,0 -0.482351,-0.042 -0.640255,-0.124 l 0,-0.1979 c 0.202316,0.1012 0.415733,0.1518 0.640255,0.1518 0.198612,0 0.349115,-0.033 0.451507,-0.098 0.103624,-0.067 0.155436,-0.1548 0.155438,-0.2646 -2e-6,-0.1012 -0.04133,-0.1862 -0.123981,-0.2553 -0.08142,-0.069 -0.215885,-0.137 -0.403395,-0.2036 -0.201084,-0.073 -0.342333,-0.135 -0.423752,-0.1869 -0.08142,-0.054 -0.143101,-0.1123 -0.185045,-0.1776 -0.04071,-0.067 -0.06106,-0.1475 -0.06106,-0.2424 0,-0.1506 0.06292,-0.2696 0.188746,-0.3571 0.127064,-0.088 0.304089,-0.1315 0.531077,-0.1315 0.217118,0 0.423133,0.041 0.618048,0.1221 l -0.06846,0.1666 c -0.197382,-0.082 -0.380576,-0.1221 -0.549582,-0.1221 -0.164074,0 -0.294221,0.027 -0.390444,0.082 -0.09622,0.054 -0.144335,0.1295 -0.144334,0.2257 -10e-7,0.1048 0.03701,0.1888 0.111026,0.2517 0.07525,0.063 0.221436,0.1333 0.438555,0.211 0.181342,0.065 0.313341,0.1245 0.395995,0.1777 0.08265,0.052 0.144334,0.1109 0.185044,0.1776 0.04194,0.067 0.06292,0.1449 0.06292,0.235"
             style="font-size:5.56956673px;font-style:normal;font-variant:normal;font-weight:300;font-stretch:normal;text-align:start;line-height:125%;letter-spacing:-0.17839895px;word-spacing:0px;writing-mode:lr-tb;text-anchor:start;fill:#4d4d4d;fill-opacity:1;stroke:none;font-family:Open Sans;-inkscape-font-specification:Open Sans Light"
             id="path3252" />
          <path
             inkscape:connector-curvature="0"
             d="m 56.843037,1030.3574 -0.183194,0 0,-2.0114 0.183194,0 0,2.0114 m -0.2091,-2.5703 c 0,-0.1183 0.03886,-0.1776 0.116578,-0.1776 0.03823,0 0.06785,0.016 0.08883,0.047 0.0222,0.031 0.03331,0.075 0.03331,0.1313 0,0.055 -0.01111,0.099 -0.03331,0.1314 -0.02097,0.032 -0.05058,0.049 -0.08883,0.049 -0.07772,0 -0.116578,-0.06 -0.116578,-0.1796"
             style="font-size:5.56956673px;font-style:normal;font-variant:normal;font-weight:300;font-stretch:normal;text-align:start;line-height:125%;letter-spacing:-0.17839895px;word-spacing:0px;writing-mode:lr-tb;text-anchor:start;fill:#4d4d4d;fill-opacity:1;stroke:none;font-family:Open Sans;-inkscape-font-specification:Open Sans Light"
             id="path3254" />
          <path
             inkscape:connector-curvature="0"
             d="m 59.441992,1030.3574 -0.04626,-0.3183 -0.0148,0 c -0.101159,0.1296 -0.205401,0.2216 -0.312725,0.2758 -0.106093,0.053 -0.231924,0.08 -0.377491,0.08 -0.19738,0 -0.350968,-0.051 -0.46076,-0.1517 -0.109794,-0.1012 -0.164689,-0.2411 -0.164689,-0.42 0,-0.1962 0.08142,-0.3486 0.244258,-0.4571 0.164071,-0.1085 0.400928,-0.1659 0.71057,-0.1721 l 0.383042,-0.011 0,-0.1333 c -10e-7,-0.1911 -0.03885,-0.3355 -0.116578,-0.4329 -0.07772,-0.097 -0.202933,-0.1462 -0.37564,-0.1462 -0.186278,0 -0.379341,0.052 -0.579189,0.1554 l -0.06846,-0.1591 c 0.220818,-0.1036 0.439171,-0.1554 0.655056,-0.1554 0.220819,0 0.385509,0.057 0.494069,0.172 0.109791,0.1147 0.164688,0.2936 0.16469,0.5367 l 0,1.3378 -0.135082,0 m -0.740178,-0.1294 c 0.21465,0 0.383657,-0.061 0.507021,-0.1832 0.124595,-0.1234 0.186894,-0.2943 0.186895,-0.5126 l 0,-0.1981 -0.351584,0.015 c -0.282501,0.014 -0.4842,0.058 -0.605094,0.1332 -0.119663,0.074 -0.179495,0.19 -0.179495,0.3479 0,0.1258 0.03824,0.2239 0.114728,0.2942 0.07772,0.069 0.186895,0.1037 0.327529,0.1037"
             style="font-size:5.56956673px;font-style:normal;font-variant:normal;font-weight:300;font-stretch:normal;text-align:start;line-height:125%;letter-spacing:-0.17839895px;word-spacing:0px;writing-mode:lr-tb;text-anchor:start;fill:#4d4d4d;fill-opacity:1;stroke:none;font-family:Open Sans;-inkscape-font-specification:Open Sans Light"
             id="path3256" />
        </g>
      </g>
    </g>
  </g>
</svg>
