<svg xmlns:dc="http://purl.org/dc/elements/1.1/" xmlns:cc="http://creativecommons.org/ns#" xmlns:rdf="http://www.w3.org/1999/02/22-rdf-syntax-ns#" xmlns:svg="http://www.w3.org/2000/svg" xmlns="http://www.w3.org/2000/svg" xmlns:sodipodi="http://sodipodi.sourceforge.net/DTD/sodipodi-0.dtd" xmlns:inkscape="http://www.inkscape.org/namespaces/inkscape" width="52mm" height="20mm" viewBox="0 0 52 20" id="svg1609" inkscape:version="0.92.3 (2405546, 2018-03-11)" sodipodi:docname="pawon_logo.svg"><defs id="defs1603"></defs><metadata></metadata><g inkscape:label="Layer 1" inkscape:groupmode="layer" id="layer1" transform="translate(0,-277)"><g id="g3389" inkscape:export-xdpi="112" inkscape:export-ydpi="112" transform="matrix(0.56553022,0,0,0.56553022,-57.227431,186.37735)"><rect ry="0" y="160.4561" x="101.39211" height="35.057293" width="91.659218" id="rect3328" style="opacity:1;fill:none;fill-opacity:1;stroke:none;stroke-width:5.83365345;stroke-miterlimit:4;stroke-dasharray:none;stroke-opacity:1"></rect><g inkscape:export-ydpi="112" inkscape:export-xdpi="112" id="g2512" transform="matrix(1.3513759,0,0,1.3513759,92.359943,-10.138098)"><path sodipodi:nodetypes="cccccscssccscccccccsccsccsccsccs" d="m 9.5799022,136.13082 h 2.5559258 v 1.28836 h 0.166242 c 0.290918,-0.45715 0.713443,-0.83811 1.267573,-1.14289 0.554131,-0.31863 1.19138,-0.47793 1.91175,-0.47793 0.955876,0 1.821704,0.24243 2.597486,0.7273 0.789636,0.471 1.406106,1.13595 1.84941,1.99487 0.443305,0.8589 0.664957,1.82862 0.664957,2.90918 0,1.09441 -0.221652,2.07106 -0.664957,2.92996 -0.443304,0.84504 -1.059774,1.51001 -1.84941,1.99486 -0.775782,0.47102 -1.64161,0.70653 -2.597486,0.70653 -0.72037,0 -1.364546,-0.15234 -1.932529,-0.45716 -0.554129,-0.30478 -0.969728,-0.68574 -1.246794,-1.14289 h -0.166242 l 0.166242,1.49614 v 2.35203 H 9.5799055 Z m 5.4235498,8.41588 c 0.512571,0 0.990508,-0.13164 1.433814,-0.39484 0.443303,-0.2632 0.79656,-0.63031 1.059773,-1.10132 0.263212,-0.47101 0.394818,-1.01129 0.394818,-1.62083 0,-0.60955 -0.1316,-1.14982 -0.394818,-1.62084 -0.263213,-0.471 -0.61647,-0.83119 -1.059773,-1.08056 -0.443306,-0.2632 -0.921243,-0.39481 -1.433814,-0.39481 -0.498717,0 -0.969727,0.13163 -1.413031,0.39481 -0.443305,0.24937 -0.796564,0.60956 -1.059775,1.08056 -0.263213,0.47102 -0.394818,1.01129 -0.394818,1.62084 0,0.60954 0.1316,1.14982 0.394818,1.62083 0.263211,0.47101 0.61647,0.83812 1.059775,1.10132 0.443304,0.26322 0.914314,0.39484 1.413031,0.39484 z" style="font-style:normal;font-variant:normal;font-weight:bold;font-stretch:normal;font-size:medium;line-height:1.25;font-family:'Google Sans';-inkscape-font-specification:'Google Sans Bold';letter-spacing:0px;word-spacing:0px;fill:#008000;fill-opacity:1;stroke:none;stroke-width:0.51949728" id="path2492" inkscape:connector-curvature="0"></path><path d="m 25.066657,147.06106 q -1.68317,0 -2.763724,-0.97666 -1.080554,-0.99743 -1.080554,-2.59749 0,-1.05977 0.561056,-1.87019 0.561056,-0.81042 1.537713,-1.24679 0.976654,-0.43638 2.161108,-0.43638 1.64161,0 2.805285,0.47794 v -0.45715 q 0,-0.87276 -0.664956,-1.41304 -0.644177,-0.54027 -1.745513,-0.54027 -0.748076,0 -1.454592,0.35325 -0.685736,0.33247 -1.142893,0.89353 l -1.745512,-1.37146 q 0.768858,-0.99744 1.932531,-1.53772 1.163675,-0.54027 2.535147,-0.54027 2.431246,0 3.698819,1.12211 1.267573,1.12212 1.267573,3.28321 v 6.5249 h -2.680604 v -1.08056 h -0.166242 q -0.477937,0.62339 -1.267573,1.01821 -0.768855,0.39483 -1.787069,0.39483 z m 0.644178,-2.11955 q 1.184452,0 1.87019,-0.74809 0.706516,-0.76884 0.706516,-1.78706 -1.059776,-0.49871 -2.223449,-0.49871 -2.119549,0 -2.119549,1.57926 0,0.64418 0.457159,1.05979 0.457156,0.39481 1.309133,0.39481 z" style="font-style:normal;font-variant:normal;font-weight:bold;font-stretch:normal;font-size:medium;line-height:1.25;font-family:'Google Sans';-inkscape-font-specification:'Google Sans Bold';letter-spacing:0px;word-spacing:0px;fill:#008000;fill-opacity:1;stroke:none;stroke-width:0.51949728" id="path2494" inkscape:connector-curvature="0"></path><path inkscape:connector-curvature="0" id="path2496" d="m 31.180617,136.13098 3.366377,10.59757 h 2.90883 l 2.140738,-6.85715 h 0.145268 l 2.16075,6.85715 h 2.929704 l 1.134307,-3.54818 a 9.0589135,9.0589135 0 0 1 -0.206158,-1.87282 9.0589135,9.0589135 0 0 1 1.629255,-5.17657 h -2.18336 l -1.828457,6.87803 h -0.145268 l -2.119864,-6.87803 h -2.784438 l -2.118996,6.87803 h -0.146143 l -1.828457,-6.87803 z" style="font-style:normal;font-variant:normal;font-weight:bold;font-stretch:normal;font-size:medium;line-height:1.25;font-family:'Google Sans';-inkscape-font-specification:'Google Sans Bold';letter-spacing:0px;word-spacing:0px;fill:#008000;fill-opacity:1;stroke:none;stroke-width:0.51949728"></path><path inkscape:connector-curvature="0" id="path2498" d="m 68.037679,135.79869 c -0.678811,0 -1.309253,0.15184 -1.891089,0.45668 -0.581833,0.29092 -1.032272,0.69306 -1.350899,1.20564 H 64.62955 v -1.33003 h -2.390391 a 9.0589135,9.0589135 0 0 1 1.638823,5.17657 9.0589135,9.0589135 0 0 1 -1.804101,5.40709 v 0.0135 h 2.72181 v -5.40273 c 0,-0.8589 0.221273,-1.57275 0.664579,-2.14074 0.457155,-0.56798 1.05335,-0.8516 1.787572,-0.8516 0.623393,0 1.108082,0.18703 1.454416,0.56106 0.346329,0.37404 0.519308,0.90086 0.519308,1.57969 v 6.25432 h 2.722677 v -6.58748 c 0,-1.34377 -0.332776,-2.40357 -0.997734,-3.17937 -0.664956,-0.77578 -1.634334,-1.163 -2.90883,-1.163 z" style="font-style:normal;font-variant:normal;font-weight:bold;font-stretch:normal;font-size:medium;line-height:1.25;font-family:'Google Sans';-inkscape-font-specification:'Google Sans Bold';letter-spacing:0px;word-spacing:0px;fill:#008000;fill-opacity:1;stroke:none;stroke-width:0.51949728"></path><g style="fill:#4d4d4d;fill-opacity:1" transform="matrix(0.84589618,0,0,0.84589618,18.045883,6.1421942)" id="g2699"><g style="fill:#4d4d4d;fill-opacity:1" id="g2506"><path d="m 20.280539,152.96482 q -0.391058,0 -0.72037,-0.1132 -0.329312,-0.12349 -0.535131,-0.32931 -0.483677,-0.46309 -0.483677,-1.31724 v -2.41839 h -0.915898 v -1.15259 h 0.915898 v -1.4819 h 1.34812 v 1.4819 h 1.286374 v 1.15259 h -1.286374 v 2.17139 q 0,0.40136 0.174946,0.5763 0.144074,0.16466 0.493968,0.16466 0.195528,0 0.319021,-0.0514 0.133783,-0.0515 0.339602,-0.17495 v 1.31725 q -0.442512,0.17494 -0.936479,0.17494 z" style="font-style:normal;font-variant:normal;font-weight:bold;font-stretch:normal;font-size:medium;line-height:1.25;font-family:'Google Sans';-inkscape-font-specification:'Google Sans Bold';letter-spacing:0px;word-spacing:0px;fill:#4d4d4d;fill-opacity:1;stroke:none;stroke-width:0.25727478" id="path2500" inkscape:connector-curvature="0"></path><path sodipodi:nodetypes="cccccsscsccscscsccc" d="m 22.35755,146.15277 h 1.348119 v 1.22405 l -0.08232,0.91589 h 0.08232 c 0.150935,-0.24698 0.370476,-0.44594 0.658624,-0.59687 0.288147,-0.15094 0.600308,-0.22641 0.93648,-0.22641 0.638042,0 1.125149,0.1921 1.461321,0.5763 0.343033,0.37734 0.514549,0.90217 0.514549,1.57451 v 3.26225 h -1.34812 v -3.09759 c 0,-0.33616 -0.09261,-0.59688 -0.277857,-0.78211 -0.178377,-0.18524 -0.4185,-0.27785 -0.720369,-0.27785 -0.356755,0 -0.651763,0.14407 -0.885025,0.43222 -0.226401,0.28815 -0.339603,0.64146 -0.339603,1.05996 v 2.66537 H 22.35755 Z" style="font-style:normal;font-variant:normal;font-weight:bold;font-stretch:normal;font-size:medium;line-height:1.25;font-family:'Google Sans';-inkscape-font-specification:'Google Sans Bold';letter-spacing:0px;word-spacing:0px;fill:#4d4d4d;fill-opacity:1;stroke:none;stroke-width:0.25727478" id="path2502" inkscape:connector-curvature="0"></path><path d="m 32.197474,152.73165 q -0.706047,0.33645 -1.427689,0.28134 -0.721643,-0.0551 -1.316843,-0.46686 -0.590339,-0.42548 -0.931217,-1.14082 -0.323169,-0.67817 -0.28178,-1.40468 0.03696,-0.73578 0.43057,-1.34515 0.39361,-0.60935 1.081078,-0.93695 0.73392,-0.34973 1.413975,-0.28621 0.680055,0.0635 1.210661,0.48327 0.539896,0.4153 0.858639,1.08419 0.101821,0.21368 0.166919,0.42205 l -3.558113,1.69553 q 0.36295,0.52243 0.857636,0.65149 0.49955,0.11534 1.001216,-0.12371 0.418056,-0.19922 0.631227,-0.51739 0.218036,-0.33189 0.248455,-0.72259 l 1.214957,0.0138 q -0.122558,1.60876 -1.599686,2.31265 z m -0.350086,-3.62929 q -0.124825,-0.2141 -0.375287,-0.35694 -0.245599,-0.15656 -0.572129,-0.17195 -0.321666,-0.0291 -0.665401,0.13467 -0.436635,0.20807 -0.628542,0.61872 -0.187043,0.39693 -0.118331,0.89996 z" style="font-style:normal;font-variant:normal;font-weight:bold;font-stretch:normal;font-size:medium;line-height:1.25;font-family:'Google Sans';-inkscape-font-specification:'Google Sans Bold';letter-spacing:0px;word-spacing:0px;fill:#4d4d4d;fill-opacity:1;stroke:none;stroke-width:0.25727478" id="path2504" inkscape:connector-curvature="0"></path></g><path inkscape:connector-curvature="0" id="path2508" style="font-style:normal;font-variant:normal;font-weight:bold;font-stretch:normal;font-size:medium;line-height:1.25;font-family:'Google Sans';-inkscape-font-specification:'Google Sans Bold';letter-spacing:0px;word-spacing:0px;fill:#4d4d4d;fill-opacity:1;stroke:none;stroke-width:0.27304223" d="m 35.510107,152.93955 q -0.393181,0 -0.677145,-0.27304 -0.273042,-0.28397 -0.273042,-0.67715 0,-0.39318 0.273042,-0.66622 0.283964,-0.27304 0.677145,-0.27304 0.393181,0 0.666223,0.27304 0.283964,0.27304 0.283964,0.66622 0,0.39318 -0.283964,0.67715 -0.273042,0.27304 -0.666223,0.27304 z"></path></g><g transform="matrix(1.6832921,0,0,1.6832921,-20.195367,-123.64705)" style="fill:#4d4d4d" id="g2749"><g style="fill:#4d4d4d" id="g2490"><path d="m 41.344077,159.21682 c 0.196255,0.01 0.282293,-0.28082 0.388362,-0.42669 -0.01664,-0.0447 -0.03294,-0.0897 -0.04931,-0.1343 -0.07101,0.11092 -0.180926,0.24191 -0.308272,0.23726 -0.142134,-0.005 -0.189865,-0.18543 -0.233844,-0.29081 -0.04343,-0.10412 -0.156232,-0.28304 -0.0036,-0.35112 0.120087,-0.0534 0.299635,0.014 0.4212,0.0712 -0.01208,-0.0314 -0.02394,-0.0632 -0.03644,-0.0946 -0.168955,-0.0625 -0.376756,-0.12744 -0.53332,-0.006 -0.169103,0.13092 -0.09181,0.38572 -0.02861,0.55123 0.06244,0.16311 0.176706,0.43342 0.383763,0.44376 m 0.25279,-0.79402 c -0.0083,0.003 -0.01811,0.003 -0.02849,-0.002 -0.0962,-0.0453 -0.202859,-0.0894 -0.310168,-0.0964 -0.07287,-0.004 -0.114715,-0.009 -0.10023,0.096 0.0065,0.0473 0.04319,0.1047 0.06162,0.14898 0.03066,0.0744 0.07532,0.26347 0.196763,0.2326 0.0949,-0.024 0.183517,-0.13802 0.239242,-0.21992 -0.01943,-0.0531 -0.03936,-0.10611 -0.05894,-0.15895 m 5.931894,-2.35384 c 0.01779,0.0399 0.03518,0.0798 0.05244,0.12023 0.155834,0.0489 0.325631,-0.0733 0.295474,-0.24613 -0.01023,-0.0585 -0.0903,-0.22449 -0.166168,-0.16181 -0.03211,0.0268 -0.05774,0.0953 -0.07946,0.13165 -0.02795,0.0467 -0.05585,0.0932 -0.0838,0.1399 -0.0052,0.008 -0.0115,0.0136 -0.01822,0.0164 m -0.03649,-0.0818 c 0.04583,-0.0787 0.08975,-0.15961 0.139543,-0.23581 0.02862,-0.0435 0.06498,-0.0834 0.122489,-0.0738 0.109928,0.0174 0.188132,0.15574 0.204869,0.25469 0.03364,0.20076 -0.161784,0.38846 -0.347051,0.32918 0.01918,0.0461 0.03813,0.0922 0.05691,0.13846 0.136868,0.0603 0.256011,0.12981 0.416419,0.056 0.213345,-0.0981 0.21997,-0.32391 0.132842,-0.51469 -0.06855,-0.14975 -0.214182,-0.33321 -0.381023,-0.37793 -0.182984,-0.0487 -0.317845,0.16916 -0.393292,0.31901 0.01638,0.0349 0.03233,0.0698 0.04825,0.10457 m -6.610531,2.81901 c -0.07457,-0.19481 -0.146129,-0.46572 0.0296,-0.62966 0.163119,-0.15255 0.389402,-0.11766 0.577059,-0.0341 -0.0046,-0.0115 -0.0093,-0.0231 -0.0138,-0.0345 -0.01529,-0.0375 0.02164,-0.0639 0.05139,-0.0551 8.27e-4,-3.2e-4 0.0015,-5.6e-4 0.0022,-7.5e-4 0.832541,-0.12423 1.607105,-0.44114 2.375562,-0.77191 0.794832,-0.34219 1.580066,-0.70654 2.354532,-1.09288 0.208248,-0.10378 0.413557,-0.21396 0.622796,-0.31597 0.149815,-0.0731 0.306863,-0.13241 0.470225,-0.0872 0.01369,-0.013 0.03959,-0.0132 0.05065,0.01 0.0022,0.005 0.0048,0.01 0.0072,0.0151 0.06031,-0.16877 0.205095,-0.34981 0.382972,-0.34464 0.229461,0.007 0.434527,0.268 0.51611,0.45909 0.09343,0.21854 0.07117,0.46596 -0.150728,0.59269 -0.116687,0.0666 -0.295232,0.0791 -0.433232,0.023 0.06551,0.16816 0.128276,0.33728 0.189146,0.5072 0.133376,0.37147 0.3111,0.77357 0.309039,1.17471 -0.0035,0.71264 -0.554181,1.26521 -1.131006,1.60055 -0.367541,0.2137 -0.764079,0.37438 -1.15226,0.54547 -0.419691,0.1849 -0.838853,0.37102 -1.258991,0.55488 -0.343357,0.15001 -0.679134,0.24355 -1.053376,0.16266 -0.329173,-0.0712 -0.630863,-0.24532 -0.8747,-0.47546 -0.487961,-0.46093 -0.749918,-1.09132 -0.984037,-1.72187 -0.0394,0.0845 -0.09658,0.16421 -0.14701,0.23846 -0.06282,0.0924 -0.134234,0.17221 -0.253284,0.17624 -0.262723,0.009 -0.407431,-0.28925 -0.486205,-0.49579" style="fill:#4d4d4d;fill-opacity:1;fill-rule:nonzero;stroke:none;stroke-width:0.0347953" id="path2402" inkscape:connector-curvature="0"></path><path sodipodi:nodetypes="ccccccccccccccccccccccc" d="m 41.381651,152.0418 c 0.003,0.006 0.0083,0.0113 0.01646,0.0148 7.01e-4,2.7e-4 0.0014,5.1e-4 0.002,7.8e-4 0.0018,9e-4 0.0035,0.002 0.0053,0.002 0.768083,0.31574 1.576058,0.55007 2.370488,0.78953 0.800269,0.24129 1.606025,0.46499 2.415945,0.6711 0.450942,0.11469 0.902895,0.22786 1.357339,0.32777 0.0073,0.001 0.01351,0.001 0.01903,-8e-5 0.03328,0.0141 0.06986,0.0162 0.113329,0.003 0.07659,-0.0244 0.124109,-0.0953 0.129752,-0.17408 0.01105,-0.15493 -0.12189,-0.25028 -0.258103,-0.24332 -5.06e-4,-0.004 -0.0012,-0.008 -0.0028,-0.0126 -0.302742,-0.84767 -0.925506,-1.5643 -1.714995,-1.99442 -0.126716,-0.0693 -0.257364,-0.1301 -0.390696,-0.18245 0.267171,-0.2172 0.133371,-0.69772 -0.232379,-0.69546 -0.159096,7.4e-4 -0.323408,0.0939 -0.377932,0.24861 -0.03296,0.0933 -0.01728,0.20354 0.04145,0.27662 -0.554386,-0.11667 -1.135313,-0.10227 -1.688998,0.0436 -0.485773,0.12808 -0.965241,0.34707 -1.342511,0.68379 -0.004,-0.005 -0.0092,-0.008 -0.01553,-0.0114 -0.125354,-0.0581 -0.300407,-0.11858 -0.419885,-0.0159 -0.07858,0.0675 -0.100447,0.17914 -0.0374,0.25694 0.0032,0.004 0.0065,0.008 0.01008,0.0116" style="fill:#4d4d4d;fill-opacity:1;fill-rule:nonzero;stroke:none;stroke-width:0.03891789" id="path2404" inkscape:connector-curvature="0"></path><g style="fill:#4d4d4d" transform="matrix(1.0110682,-0.42557988,0.42557988,1.0110682,-86.072941,-28.744899)" id="g2478"><g id="g2408" transform="matrix(0.02082396,0.02603026,0.02603026,-0.02082396,43.538789,202.46818)" style="fill:#4d4d4d;fill-opacity:1"><path d="M 0,0 C 0.437,0.185 0.25,0.898 -0.231,0.814 -0.85,0.705 -1.575,1.174 -1.652,1.8 -1.735,2.438 -2.633,2.27 -2.613,1.661 -2.572,0.358 -1.183,-0.521 0,0" style="fill:#4d4d4d;fill-opacity:1;fill-rule:nonzero;stroke:none" id="path2406" inkscape:connector-curvature="0"></path></g><g id="g2412" transform="matrix(0.02082396,0.02603026,0.02603026,-0.02082396,43.691874,202.15101)" style="fill:#4d4d4d;fill-opacity:1"><path d="m 0,0 c -1.605,0.564 -3.244,0.964 -4.881,1.393 -0.592,0.151 -0.961,-0.722 -0.353,-0.908 1.66,-0.512 3.307,-1.043 5,-1.419 C 0.307,-1.051 0.512,-0.179 0,0" style="fill:#4d4d4d;fill-opacity:1;fill-rule:nonzero;stroke:none" id="path2410" inkscape:connector-curvature="0"></path></g><g id="g2416" transform="matrix(0.02082396,0.02603026,0.02603026,-0.02082396,43.274042,202.39817)" style="fill:#4d4d4d;fill-opacity:1"><path d="M 0,0 C 0.548,-0.099 0.645,0.76 0.1,0.854 -1.441,1.112 -2.983,1.37 -4.524,1.629 -5.032,1.717 -5.117,0.927 -4.615,0.836 -3.072,0.557 -1.534,0.275 0,0" style="fill:#4d4d4d;fill-opacity:1;fill-rule:nonzero;stroke:none" id="path2414" inkscape:connector-curvature="0"></path></g><g id="g2420" transform="matrix(0.02082396,0.02603026,0.02603026,-0.02082396,43.312224,201.98094)" style="fill:#4d4d4d;fill-opacity:1"><path d="M 0,0 C 0.746,-0.339 1.238,0.929 0.459,1.182 -0.707,1.556 -1.852,1.996 -3.005,2.404 -3.637,2.63 -3.999,1.696 -3.381,1.436 -2.255,0.959 -1.113,0.511 0,0" style="fill:#4d4d4d;fill-opacity:1;fill-rule:nonzero;stroke:none" id="path2418" inkscape:connector-curvature="0"></path></g><g id="g2424" transform="matrix(0.02082396,0.02603026,0.02603026,-0.02082396,43.418331,201.58525)" style="fill:#4d4d4d;fill-opacity:1"><path d="M 0,0 C -2.739,-0.149 -5.077,-0.227 -7.492,1.307 -8.043,1.654 -8.635,0.854 -8.088,0.484 -5.805,-1.073 -2.397,-2.086 0.252,-0.862 0.728,-0.638 0.493,0.025 0,0" style="fill:#4d4d4d;fill-opacity:1;fill-rule:nonzero;stroke:none" id="path2422" inkscape:connector-curvature="0"></path></g><g id="g2428" transform="matrix(0.02082396,0.02603026,0.02603026,-0.02082396,42.987573,201.99012)" style="fill:#4d4d4d;fill-opacity:1"><path d="M 0,0 C 0.406,-1.035 0.735,-2.183 1.392,-3.079 1.676,-3.466 2.357,-3.173 2.26,-2.697 2.049,-1.604 1.421,-0.581 0.928,0.409 0.642,0.993 -0.238,0.605 0,0" style="fill:#4d4d4d;fill-opacity:1;fill-rule:nonzero;stroke:none" id="path2426" inkscape:connector-curvature="0"></path></g><g id="g2432" transform="matrix(0.02082396,0.02603026,0.02603026,-0.02082396,43.042419,201.467)" style="fill:#4d4d4d;fill-opacity:1"><path d="m 0,0 c 1.303,-1.088 2.745,-2.49 4.327,-3.149 0.4,-0.165 0.786,0.36 0.499,0.688 C 3.702,-1.167 1.921,-0.233 0.477,0.658 0.031,0.93 -0.405,0.34 0,0" style="fill:#4d4d4d;fill-opacity:1;fill-rule:nonzero;stroke:none" id="path2430" inkscape:connector-curvature="0"></path></g><g id="g2436" transform="matrix(0.02082396,0.02603026,0.02603026,-0.02082396,42.62925,202.1139)" style="fill:#4d4d4d;fill-opacity:1"><path d="M 0,0 C 0.977,1.006 1.056,2.454 0.221,3.591 -0.114,4.047 -0.92,3.571 -0.639,3.063 -0.236,2.325 -0.255,1.386 -0.704,0.663 -0.967,0.227 -0.41,-0.422 0,0" style="fill:#4d4d4d;fill-opacity:1;fill-rule:nonzero;stroke:none" id="path2434" inkscape:connector-curvature="0"></path></g><g id="g2440" transform="matrix(0.02082396,0.02603026,0.02603026,-0.02082396,43.218283,201.01022)" style="fill:#4d4d4d;fill-opacity:1"><path d="M 0,0 C 0.625,0.048 0.74,1.044 0.135,1.224 -0.9,1.542 -2.044,1.514 -3.126,1.598 -4.314,1.7 -5.497,1.824 -6.688,1.818 -7.299,1.819 -7.399,1.015 -6.798,0.875 -5.635,0.621 -4.448,0.49 -3.269,0.328 -2.199,0.189 -1.081,-0.093 0,0" style="fill:#4d4d4d;fill-opacity:1;fill-rule:nonzero;stroke:none" id="path2438" inkscape:connector-curvature="0"></path></g><g id="g2444" transform="matrix(0.02082396,0.02603026,0.02603026,-0.02082396,42.653702,201.76697)" style="fill:#4d4d4d;fill-opacity:1"><path d="M 0,0 C -0.651,1.865 -1.509,3.475 -1.753,5.477 -1.834,6.13 -2.785,5.966 -2.752,5.327 -2.639,3.346 -2.202,1.018 -0.849,-0.523 -0.466,-0.958 0.184,-0.53 0,0" style="fill:#4d4d4d;fill-opacity:1;fill-rule:nonzero;stroke:none" id="path2442" inkscape:connector-curvature="0"></path></g><g id="g2448" transform="matrix(0.02082396,0.02603026,0.02603026,-0.02082396,43.000836,201.06166)" style="fill:#4d4d4d;fill-opacity:1"><path d="m 0,0 c -1.05,1.078 -2.289,1.939 -3.49,2.844 -0.589,0.45 -1.22,-0.453 -0.667,-0.919 1.1,-0.95 2.162,-1.959 3.399,-2.735 C -0.258,-1.122 0.474,-0.48 0,0" style="fill:#4d4d4d;fill-opacity:1;fill-rule:nonzero;stroke:none" id="path2446" inkscape:connector-curvature="0"></path></g><g id="g2452" transform="matrix(0.02082396,0.02603026,0.02603026,-0.02082396,42.781857,201.15676)" style="fill:#4d4d4d;fill-opacity:1"><path d="m 0,0 c 1.018,-1.213 2.054,-2.39 3.157,-3.523 0.404,-0.418 1.1,0.115 0.715,0.585 C 2.87,-1.711 1.817,-0.563 0.724,0.582 0.317,1.006 -0.388,0.461 0,0" style="fill:#4d4d4d;fill-opacity:1;fill-rule:nonzero;stroke:none" id="path2450" inkscape:connector-curvature="0"></path></g><g id="g2456" transform="matrix(0.02082396,0.02603026,0.02603026,-0.02082396,42.495166,201.4565)" style="fill:#4d4d4d;fill-opacity:1"><path d="M 0,0 C 0.605,1.9 -0.317,4.654 -1.305,6.299 -1.61,6.797 -2.393,6.495 -2.161,5.922 -1.784,4.952 -1.435,3.998 -1.293,2.967 -1.159,2.018 -1.35,1.067 -1.195,0.134 -1.095,-0.447 -0.193,-0.61 0,0" style="fill:#4d4d4d;fill-opacity:1;fill-rule:nonzero;stroke:none" id="path2454" inkscape:connector-curvature="0"></path></g><g id="g2460" transform="matrix(0.02082396,0.02603026,0.02603026,-0.02082396,43.077509,200.287)" style="fill:#4d4d4d;fill-opacity:1"><path d="m 0,0 c 0.006,0.003 0.008,-0.004 0.02,-0.013 0.002,-0.006 0.005,-0.012 0.017,-0.006 0.031,-0.022 0.076,-0.045 0.141,-0.08 0.42,-0.163 0.828,0.024 1.099,0.342 C 1.731,0.777 1.197,1.571 0.564,1.541 0.55,1.556 0.536,1.571 0.519,1.578 0.217,1.956 -0.294,1.795 -0.49,1.417 -0.691,1.037 -0.598,0.567 -0.323,0.248 -0.237,0.151 -0.125,0.058 0,0" style="fill:#4d4d4d;fill-opacity:1;fill-rule:nonzero;stroke:none" id="path2458" inkscape:connector-curvature="0"></path></g><g id="g2464" transform="matrix(0.02082396,0.02603026,0.02603026,-0.02082396,43.011579,200.30048)" style="fill:#4d4d4d;fill-opacity:1"><path d="M 0,0 C -0.045,-0.382 0.246,-0.751 0.625,-0.79 0.827,-0.814 1.027,-0.833 1.227,-0.851 1.369,-0.867 1.532,-0.866 1.676,-0.888 2.196,-1.213 2.957,-0.941 3.034,-0.261 3.113,0.413 2.335,0.937 1.753,0.616 1.437,0.59 1.101,0.627 0.787,0.631 0.403,0.632 0.046,0.411 0,0" style="fill:#4d4d4d;fill-opacity:1;fill-rule:nonzero;stroke:none" id="path2462" inkscape:connector-curvature="0"></path></g><g id="g2468" transform="matrix(0.02082396,0.02603026,0.02603026,-0.02082396,42.800694,200.71528)" style="fill:#4d4d4d;fill-opacity:1"><path d="M 0,0 C 0.248,-1.531 1.034,-3.798 2.606,-4.433 3.02,-4.599 3.55,-4.124 3.309,-3.69 2.977,-3.098 2.43,-2.679 2.032,-2.13 1.53,-1.442 1.186,-0.677 0.979,0.147 0.825,0.754 -0.106,0.642 0,0" style="fill:#4d4d4d;fill-opacity:1;fill-rule:nonzero;stroke:none" id="path2466" inkscape:connector-curvature="0"></path></g><g id="g2472" transform="matrix(0.02082396,0.02603026,0.02603026,-0.02082396,42.997453,200.24375)" style="fill:#4d4d4d;fill-opacity:1"><path d="m 0,0 c -0.136,0.018 -0.255,0.015 -0.388,-0.022 -0.038,-0.01 -0.062,-0.02 -0.08,-0.028 -0.014,0.001 -0.023,0.004 -0.043,0.002 -0.618,0.048 -1.05,-0.81 -0.459,-1.182 0.039,-0.025 0.065,-0.035 0.077,-0.03 0.026,-0.045 0.051,-0.084 0.075,-0.123 0.071,-0.096 0.155,-0.159 0.261,-0.205 0.194,-0.12 0.409,-0.188 0.639,-0.194 0.372,-0.006 0.732,0.16 0.875,0.528 0.131,0.349 0.011,0.765 -0.289,0.98 C 0.468,-0.128 0.246,-0.026 0,0" style="fill:#4d4d4d;fill-opacity:1;fill-rule:nonzero;stroke:none" id="path2470" inkscape:connector-curvature="0"></path></g><g id="g2476" transform="matrix(0.02082396,0.02603026,0.02603026,-0.02082396,43.122766,198.63949)" style="fill:#4d4d4d;fill-opacity:1"><path d="m 0,0 c 3.933,3.338 8.408,4.173 13.048,5.94 0.151,0.06 0.263,0.159 0.354,0.277 2.223,-2.613 4.447,-5.227 6.671,-7.84 -0.044,0.002 -0.087,0.004 -0.126,-0.006 -3.285,-0.666 -2.312,-5.18 0.013,-6.62 -0.312,-0.84 -0.406,-1.705 -0.286,-2.526 -1.659,0.526 -3.376,-0.123 -4.436,-1.471 -2.488,-3.17 -0.473,-6.471 2.318,-8.388 -0.649,-0.285 -1.209,-0.738 -1.518,-1.279 -0.533,-0.917 -0.488,-1.969 -0.078,-2.868 -6.705,4.999 -13.197,10.305 -20.045,15.099 -0.138,0.103 -0.278,0.197 -0.422,0.297 -0.132,0.091 -0.28,0.104 -0.413,0.067 C -5.113,-5.625 -2.807,-2.38 0,0 m 39.888,-36.671 c -3.854,-2.678 -8.87,1.212 -11.975,3.344 -0.397,0.273 -0.783,0.551 -1.18,0.823 0.04,0.039 0.089,0.074 0.12,0.131 2.822,4.716 7.006,7.695 12.533,7.851 2.343,-3.399 4.748,-9.199 0.502,-12.149 m -44.604,25.873 c -0.011,0.059 -0.017,0.121 -0.035,0.177 7.45,-7.512 16.075,-13.873 24.638,-20.028 5.094,-3.664 15.165,-13.273 21.849,-7.636 7.045,5.944 -0.089,15.029 -4.297,19.971 C 29.876,-9.433 22.313,-0.551 14.75,8.331 14.04,9.168 12.894,8.642 12.655,7.848 4.112,7.784 -9.964,-1.109 -6.04,-11.175 c 0.276,-0.724 1.502,-0.397 1.324,0.377" style="fill:#4d4d4d;fill-opacity:1;fill-rule:nonzero;stroke:none" id="path2474" inkscape:connector-curvature="0"></path></g></g><g style="fill:#4d4d4d" transform="translate(0.36487361,-42.914008)" id="g2488"><g id="g2482" transform="matrix(0.02082396,0.02603026,0.02603026,-0.02082396,40.391755,197.93142)" style="fill:#4d4d4d;fill-opacity:1"><path d="m 0,0 c -4.555,1.941 -10.136,4.552 -13.137,8.67 -2.255,3.104 -1.206,6.896 2.963,7.299 2.949,0.284 5.937,-1.34 8.587,-2.423 C 9.014,9.212 19.755,5.239 30.638,1.668 42.955,-2.371 55.435,-5.876 68.034,-8.91 c 1.035,-0.255 1.485,0.788 1.195,1.591 7.295,4.62 14.756,6.076 23.325,4.759 3.566,-0.552 7.284,-1.285 10.634,-2.636 4.84,-1.943 8.108,-7.427 2.796,-11.003 -5.31,-3.582 -13.457,-3.578 -19.571,-2.9 -6.778,0.749 -13.352,3.164 -19.335,6.394 0.057,0.387 -0.155,0.805 -0.683,0.892 C 54.46,-9.835 42.344,-8.882 30.362,-7.167 20.075,-5.691 9.622,-4.111 0,0 m 90.086,-21.762 c 6.419,-0.176 17.594,0.31 20.665,7.33 4.011,9.159 -9.09,12.59 -15.245,13.826 C 85.984,1.313 75.326,0.842 67.604,-5.741 67.422,-5.892 67.312,-6.062 67.245,-6.233 54.236,-3.074 41.352,0.623 28.652,4.869 22.173,7.035 15.745,9.344 9.37,11.79 c -5.419,2.08 -11.044,5.289 -16.753,6.402 -3.736,0.726 -8.438,-0.543 -9.418,-4.717 -0.982,-4.154 2.552,-7.823 5.599,-10.067 9.132,-6.72 20.465,-9.637 31.461,-11.546 14.864,-2.583 30.307,-4.947 45.412,-5.272 6.965,-5.446 15.602,-8.109 24.415,-8.352" style="fill:#4d4d4d;fill-opacity:1;fill-rule:nonzero;stroke:none" id="path2480" inkscape:connector-curvature="0"></path></g><g id="g2486" transform="matrix(0.02082396,0.02603026,0.02603026,-0.02082396,41.917996,200.71076)" style="fill:#4d4d4d;fill-opacity:1"><path d="M 0,0 C 2.739,0.085 16.16,1.02 11.642,6.955 11.057,7.719 9.999,6.799 10.5,6.018 12.458,2.975 6.694,2.261 5.386,2.054 4.372,1.891 3.354,1.769 2.331,1.688 -0.497,1.45 -3.349,1.493 -6.171,1.805 -11.449,2.391 -16.323,4.071 -21.209,6.072 -21.731,6.29 -22.197,5.495 -21.694,5.191 -15.272,1.317 -7.44,-0.246 0,0" style="fill:#4d4d4d;fill-opacity:1;fill-rule:nonzero;stroke:none" id="path2484" inkscape:connector-curvature="0"></path></g></g></g><rect style="opacity:1;fill:#4d4d4d;fill-opacity:1;stroke:none;stroke-width:0.27809781;stroke-miterlimit:4;stroke-dasharray:none;stroke-dashoffset:0;stroke-opacity:1" id="rect2510" width="4.8429437" height="0.38857588" x="42.09626" y="161.77179"></rect></g></g></g><text xml:space="preserve" style="font-style:normal;font-variant:normal;font-weight:normal;font-stretch:normal;font-size:7.76111126px;line-height:1.25;font-family:'Google Sans';-inkscape-font-specification:'Google Sans';letter-spacing:0px;word-spacing:0px;fill:#000000;fill-opacity:1;stroke:none;stroke-width:0.26458332" x="176.93243" y="126.34841" id="text2667"><tspan sodipodi:role="line" id="tspan2665" x="176.93243" y="133.30392" style="font-size:7.76111126px;stroke-width:0.26458332"></tspan></text></g></svg>