<?xml version="1.0" encoding="UTF-8" standalone="no"?>
<!-- Created with Inkscape (http://www.inkscape.org/) -->

<svg
   xmlns:dc="http://purl.org/dc/elements/1.1/"
   xmlns:cc="http://creativecommons.org/ns#"
   xmlns:rdf="http://www.w3.org/1999/02/22-rdf-syntax-ns#"
   xmlns:svg="http://www.w3.org/2000/svg"
   xmlns="http://www.w3.org/2000/svg"
   xmlns:sodipodi="http://sodipodi.sourceforge.net/DTD/sodipodi-0.dtd"
   xmlns:inkscape="http://www.inkscape.org/namespaces/inkscape"
   width="1052.3622"
   height="744.09448"
   id="svg2"
   version="1.1"
   inkscape:version="0.48.4 r9939"
   sodipodi:docname="master.svg">
  <defs
     id="defs4" />
  <sodipodi:namedview
     id="base"
     pagecolor="#ffffff"
     bordercolor="#666666"
     borderopacity="1.0"
     inkscape:pageopacity="0.0"
     inkscape:pageshadow="2"
     inkscape:zoom="0.7"
     inkscape:cx="634.91508"
     inkscape:cy="302.10866"
     inkscape:document-units="px"
     inkscape:current-layer="layer1"
     showgrid="false"
     showguides="true"
     inkscape:guide-bbox="true"
     inkscape:window-width="1600"
     inkscape:window-height="876"
     inkscape:window-x="1366"
     inkscape:window-y="24"
     inkscape:window-maximized="1" />
  <metadata
     id="metadata7">
    <rdf:RDF>
      <cc:Work
         rdf:about="">
        <dc:format>image/svg+xml</dc:format>
        <dc:type
           rdf:resource="http://purl.org/dc/dcmitype/StillImage" />
        <dc:title />
      </cc:Work>
    </rdf:RDF>
  </metadata>
  <g
     inkscape:label="Layer 1"
     inkscape:groupmode="layer"
     id="layer1"
     transform="translate(0,-308.2677)">
    <g
       id="g3157"
       transform="translate(-1.4285714,14.285714)">
      <g
         transform="matrix(1.1784755,0,0,1.1784755,-162.64559,-106.25668)"
         style="fill:#800080"
         id="g3149">
        <path
           style="fill:#800080;fill-opacity:1"
           d="m 229.64058,513.8498 c -8.85689,-1.54124 -17.74239,-4.06612 -21.30783,-6.05476 -4.45679,-2.4858 -8.35028,-5.46657 -12.29338,-9.41152 -4.31138,-4.31342 -6.97909,-8.00748 -9.22065,-12.76814 -1.95269,-4.14716 -3.30369,-9.20902 -3.74582,-14.03457 l -0.15931,-1.73881 1.789,-0.15757 c 2.0523,-0.18077 6.37722,0.16956 9.88005,0.8003 8.42569,1.51718 19.68951,5.74828 26.20298,9.8428 2.54217,1.59806 8.46505,6.04025 10.7904,8.09286 2.26034,1.99521 4.72293,4.78522 6.48477,7.34697 1.79347,2.60774 4.04311,6.86961 3.68852,6.9878 -0.61737,0.20579 -3.41302,2.58231 -4.35245,3.69991 -1.48172,1.76277 -3.05669,4.50122 -3.64997,6.34635 -0.28613,0.88985 -0.63546,1.61012 -0.7763,1.6006 -0.14084,-0.01 -1.63934,-0.25802 -3.33001,-0.55222 z m 41.06654,-0.0458 c -0.5256,-1.5252 -1.25212,-3.15686 -2.00564,-4.50429 -1.04678,-1.87182 -3.88947,-4.88923 -5.79531,-6.15152 -0.75635,-0.50094 -1.37799,-1.05188 -1.38143,-1.22431 -0.01,-0.47792 1.70458,-3.50698 3.49498,-6.17591 2.38772,-3.55939 6.7403,-7.83624 11.76414,-11.55946 4.68098,-3.46913 6.16942,-4.41103 10.0092,-6.33389 7.38563,-3.69852 16.44191,-6.64145 23.79457,-7.73225 2.78845,-0.41369 9.03706,-0.59274 9.36155,-0.26826 0.24189,0.24187 -0.28487,4.80636 -0.84594,7.33055 -1.35593,6.10003 -4.36691,12.22369 -8.57477,17.43921 -3.27946,4.06477 -9.34682,9.30557 -13.9956,12.08892 -4.71198,2.82121 -13.8449,5.52778 -24.82786,7.35779 -0.69901,0.11647 -0.88281,0.0674 -0.99789,-0.26658 z m -28.30611,-13.93646 c -2.10447,-4.25617 -5.63879,-8.94603 -9.20548,-12.2152 -2.54801,-2.33546 -9.41542,-7.45726 -12.26321,-9.14605 -1.22035,-0.72369 -2.21938,-1.44443 -2.22006,-1.60165 -6.9e-4,-0.15721 0.30789,-1.74541 0.68571,-3.52933 3.80084,-17.94604 10.66743,-33.88593 19.29835,-44.7986 3.62535,-4.58378 9.01282,-9.22703 12.37493,-10.66546 l 1.05159,-0.44991 1.42332,0.78888 c 7.08757,3.92827 14.63008,13.21476 20.5006,25.24078 3.83767,7.86167 6.56653,15.63722 8.75886,24.95744 0.97191,4.13182 1.74702,8.38482 1.57798,8.65835 -0.0701,0.11341 -0.60691,0.4513 -1.19292,0.75087 -2.47964,1.2676 -9.54649,6.42628 -12.97546,9.47187 -3.55944,3.16147 -6.81444,7.35219 -9.29691,11.9695 l -1.1076,2.06008 -1.25234,-0.4364 c -4.3872,-1.52877 -9.62779,-1.42447 -13.68595,0.27237 l -1.50405,0.62889 z m -26.99163,-24.29862 c -3.86342,-1.82839 -12.58289,-4.9934 -15.01213,-5.44913 -0.4382,-0.0822 -0.89508,-0.26797 -1.01528,-0.4128 -0.3445,-0.4151 -1.75108,-5.26147 -2.27013,-7.82172 -0.74383,-3.66903 -1.01895,-7.08267 -0.87541,-10.86197 0.22863,-6.01976 1.39363,-10.70193 4.05985,-16.3167 l 1.17841,-2.48161 1.53512,0.82915 c 3.46077,1.86925 8.54956,6.03536 11.99496,9.8201 3.76075,4.13115 8.26023,9.85821 8.26023,10.51384 0,0.14456 -0.55639,1.92174 -1.23643,3.9493 -1.60239,4.7776 -2.90256,9.56406 -3.90838,14.38832 -0.44388,2.12899 -0.87677,4.03439 -0.96199,4.23421 -0.13426,0.31486 -0.36753,0.26271 -1.74882,-0.39099 z m 70.59983,0.31229 c -0.0476,-0.15654 -0.20415,-0.95064 -0.34797,-1.76467 -0.91043,-5.15292 -2.78032,-12.41919 -4.54119,-17.64668 l -0.9204,-2.73239 1.07665,-1.56583 c 3.65603,-5.3172 9.37927,-11.5462 14.28318,-15.54536 2.19325,-1.78861 6.03895,-4.17869 6.7236,-4.17869 0.29088,0 2.00386,3.57203 2.9714,6.1961 2.6698,7.24088 3.14933,14.88564 1.46101,23.29095 -0.5777,2.87596 -1.80499,7.13441 -2.1579,7.48731 -0.11447,0.11446 -1.72476,0.64376 -3.57846,1.17622 -4.11495,1.18199 -7.63796,2.46208 -11.63875,4.22895 -1.66721,0.73629 -3.07933,1.33872 -3.13801,1.33872 -0.0587,0 -0.14562,-0.12808 -0.19316,-0.28463 z m -7.74639,-27.09892 c -2.26818,-5.59328 -6.32175,-13.17964 -9.35553,-17.50917 -0.68252,-0.97405 -1.24096,-1.89094 -1.24096,-2.03756 0,-0.92598 5.4069,-9.63124 7.90479,-12.72691 1.76546,-2.18796 5.51318,-5.8048 5.74872,-5.54793 1.06178,1.15795 3.37612,4.2885 4.44459,6.01208 3.38833,5.46581 5.33698,11.34583 6.02973,18.1947 l 0.21754,2.15066 -3.01426,3.08643 c -3.00125,3.07314 -6.2467,6.88667 -8.2504,9.69462 -0.57895,0.81132 -1.12049,1.47389 -1.20342,1.47239 -0.0829,-0.002 -0.6593,-1.25669 -1.2808,-2.78931 z m -56.092,0.064 c -2.27664,-3.00561 -4.85163,-5.98323 -7.68319,-8.88459 l -2.1111,-2.16315 0.20691,-2.39084 c 0.73533,-8.49622 3.95841,-16.46415 9.28463,-22.95293 l 1.36509,-1.66305 1.32519,1.19373 c 1.67485,1.5087 3.83554,3.9025 5.40017,5.98278 2.79169,3.71177 6.68069,10.36857 6.3621,10.89001 -0.10484,0.17158 -0.86787,1.27993 -1.69563,2.46299 -3.10394,4.43626 -6.99412,11.65441 -9.31999,17.29303 -0.5424,1.31496 -1.04583,2.46441 -1.11872,2.55433 -0.0729,0.0899 -0.97985,-0.95512 -2.01546,-2.32231 z m 42.64228,-22.94046 c -1.94555,-2.37213 -5.11089,-5.41432 -7.394,-7.10632 -1.88048,-1.39362 -4.73234,-2.97393 -5.36683,-2.97393 -0.74257,0 -4.10874,1.78632 -5.97817,3.17242 -2.19328,1.62621 -4.76258,4.02496 -6.8862,6.42908 l -1.54217,1.74587 -1.41899,-2.53392 c -0.78045,-1.39365 -2.15872,-3.62849 -3.06283,-4.96631 l -1.64384,-2.43241 1.62187,-2.70311 c 5.31727,-8.86209 11.43731,-15.4311 17.05768,-18.30903 l 1.91058,-0.97832 1.73322,1.00913 c 5.81266,3.3843 11.97828,10.32218 17.18626,19.3389 l 1.38093,2.39085 -0.51583,0.68309 c -0.81132,1.07437 -2.78702,4.29017 -4.20135,6.83845 l -1.29342,2.33041 z"
           id="path2996"
           inkscape:connector-curvature="0"
           sodipodi:nodetypes="ssssscssssssssssssscsssscsssssssscssscssscssscsscssssssscsssssssccscssssssssscssssssscsscssscsscsssssssssssscsscsscssccscs" />
        <g
           id="g3132"
           style="fill:#800080;fill-opacity:1"
           transform="translate(43.436559,-238.396)">
          <path
             inkscape:connector-curvature="0"
             id="path3091"
             style="font-size:100.26593018px;font-style:normal;font-variant:normal;font-weight:normal;font-stretch:normal;line-height:125%;letter-spacing:10.99496651px;word-spacing:0px;fill:#800080;fill-opacity:1;stroke:none;font-family:Times New Roman;-inkscape-font-specification:Times New Roman"
             d="m 735.24402,692.0478 0,23.727 -1.75298,0 c -0.56858,-4.5531 -1.59511,-8.17876 -3.07958,-10.87699 -1.45296,-2.6981 -3.53759,-4.83977 -6.25389,-6.425 -2.71637,-1.58511 -5.52746,-2.3777 -8.43329,-2.37776 -3.28489,6e-5 -6.00123,1.07933 -8.14901,3.2378 -2.14783,2.12486 -3.22172,4.55321 -3.2217,7.28505 -2e-5,2.09113 0.67906,3.9967 2.03725,5.71674 1.95827,2.52958 6.6171,5.90228 13.97651,10.11812 6.00118,3.44021 10.09148,6.08778 12.27091,7.94273 2.21093,1.8213 3.90073,3.97983 5.06944,6.4756 1.2002,2.49584 1.80031,5.10968 1.80036,7.84155 -5e-5,5.19398 -1.89517,9.67968 -5.68536,13.45711 -3.75869,3.74371 -8.60704,5.61555 -14.54504,5.61556 -1.86357,-10e-6 -3.61655,-0.15177 -5.25897,-0.45532 -0.97916,-0.16863 -3.01642,-0.77572 -6.11176,-1.82126 -3.06379,-1.07927 -5.00629,-1.6189 -5.8275,-1.6189 -0.78963,0 -1.42135,0.25295 -1.89512,0.75886 -0.4422,0.50591 -0.77384,1.55145 -0.99493,3.13662 l -1.75299,0 0,-23.52464 1.75299,0 c 0.82121,4.92417 1.92669,8.61729 3.31645,11.07934 1.38975,2.42836 3.50597,4.45198 6.34866,6.07088 2.87425,1.6189 6.01698,2.42836 9.42823,2.42835 3.94813,10e-6 7.05928,-1.11299 9.33346,-3.33898 2.30569,-2.22599 3.45856,-4.85669 3.45859,-7.89214 -3e-5,-1.68633 -0.44223,-3.38955 -1.32658,-5.10965 -0.85284,-1.72006 -2.19521,-3.3221 -4.02713,-4.80611 -1.23186,-1.0118 -4.59569,-3.15346 -10.09152,-6.42501 -5.49586,-3.30523 -9.41244,-5.93593 -11.74973,-7.89214 -2.30575,-1.95613 -4.05873,-4.11466 -5.25897,-6.4756 -1.20025,-2.36085 -1.80037,-4.95783 -1.80036,-7.79095 -10e-6,-4.9241 1.76877,-9.15685 5.30633,-12.69826 3.53754,-3.575 8.03846,-5.36253 13.50273,-5.3626 3.4112,7e-5 7.02771,0.89383 10.84957,2.6813 1.76874,0.84324 3.01636,1.26483 3.74286,1.26477 0.82118,6e-5 1.48447,-0.25289 1.98988,-0.75886 0.53691,-0.53957 0.96331,-1.60197 1.27921,-3.18721 l 1.75298,0" />
          <path
             inkscape:connector-curvature="0"
             id="path3093"
             style="font-size:100.26593018px;font-style:normal;font-variant:normal;font-weight:normal;font-stretch:normal;line-height:125%;letter-spacing:10.99496651px;word-spacing:0px;fill:#800080;fill-opacity:1;stroke:none;font-family:Times New Roman;-inkscape-font-specification:Times New Roman"
             d="m 784.40246,724.17284 23.689,25.14354 c 3.88495,4.14845 7.2014,6.98152 9.94939,8.49923 2.74785,1.484 5.49578,2.32717 8.24377,2.52953 l 0,1.87186 -30.55882,0 0,-1.87186 c 1.83191,0 3.1427,-0.3204 3.93238,-0.96122 0.82117,-0.67454 1.23178,-1.41653 1.23183,-2.22598 -5e-5,-0.80945 -0.15797,-1.53458 -0.47378,-2.1754 -0.28431,-0.64081 -1.26346,-1.83812 -2.93744,-3.59194 l -22.17291,-23.42346 0,22.1081 c -2e-5,3.4739 0.20528,5.76735 0.61592,6.88034 0.31583,0.84318 0.97912,1.56831 1.98987,2.17539 1.35815,0.80945 2.79528,1.21417 4.31141,1.21417 l 2.17938,0 0,1.87186 -27.38448,0 0,-1.87186 2.27414,0 c 2.65316,0 4.57986,-0.8263 5.78011,-2.47894 0.75804,-1.07926 1.13706,-3.67624 1.13707,-7.79096 l 0,-44.31738 c -10e-6,-3.47383 -0.20531,-5.78414 -0.61591,-6.93092 -0.31586,-0.80939 -0.96336,-1.51765 -1.9425,-2.12481 -1.38976,-0.80938 -2.84268,-1.2141 -4.35877,-1.21417 l -2.27414,0 0,-1.87185 27.38448,0 0,1.87185 -2.17938,0 c -1.48455,7e-5 -2.92167,0.38793 -4.31141,1.16358 -0.97916,0.53971 -1.65825,1.34915 -2.03725,2.42836 -0.37905,1.07932 -0.56856,3.30531 -0.56854,6.67796 l 0,20.99511 c 0.63168,-0.64078 2.79528,-2.78244 6.49079,-6.42501 9.38081,-9.17372 15.05037,-15.29518 17.00871,-18.3644 0.85276,-1.34902 1.27916,-2.52947 1.2792,-3.54135 -4e-5,-0.77565 -0.33169,-1.4502 -0.99493,-2.02362 -0.66334,-0.60702 -1.78462,-0.91056 -3.36385,-0.91063 l -1.46872,0 0,-1.87185 23.59425,0 0,1.87185 c -1.38981,0.0338 -2.65322,0.23616 -3.79023,0.60709 -1.13714,0.37107 -2.52689,1.0962 -4.16928,2.1754 -1.64248,1.0456 -3.66394,2.74881 -6.06438,5.10964 -0.69493,0.6746 -3.90083,4.13163 -9.61774,10.37109 l -9.80724,10.42166" />
          <path
             inkscape:connector-curvature="0"
             id="path3095"
             style="font-size:100.26593018px;font-style:normal;font-variant:normal;font-weight:normal;font-stretch:normal;line-height:125%;letter-spacing:10.99496651px;word-spacing:0px;fill:#800080;fill-opacity:1;stroke:none;font-family:Times New Roman;-inkscape-font-specification:Times New Roman"
             d="m 866.1096,760.34514 0,1.87186 -27.52662,0 0,-1.87186 2.27414,0 c 2.65316,0 4.57987,-0.8263 5.78012,-2.47894 0.75804,-1.07926 1.13706,-3.67624 1.13708,-7.79096 l 0,-44.31738 c -2e-5,-3.47383 -0.20533,-5.76727 -0.61592,-6.88032 -0.31586,-0.84312 -0.96337,-1.56825 -1.9425,-2.17541 -1.38976,-0.80938 -2.84269,-1.2141 -4.35878,-1.21417 l -2.27414,0 0,-1.87185 27.52662,0 0,1.87185 -2.32152,0 c -2.62161,7e-5 -4.53252,0.82638 -5.73274,2.47894 -0.78965,1.07933 -1.18447,3.67631 -1.18445,7.79096 l 0,44.31738 c -2e-5,3.4739 0.20529,5.76735 0.61591,6.88034 0.31584,0.84318 0.97913,1.56831 1.98988,2.17539 1.35814,0.80945 2.79528,1.21417 4.3114,1.21417 l 2.32152,0" />
          <path
             inkscape:connector-curvature="0"
             id="path3097"
             style="font-size:100.26593018px;font-style:normal;font-variant:normal;font-weight:normal;font-stretch:normal;line-height:125%;letter-spacing:10.99496651px;word-spacing:0px;fill:#800080;fill-opacity:1;stroke:none;font-family:Times New Roman;-inkscape-font-specification:Times New Roman"
             d="m 877.93421,693.61611 17.4351,0 39.27637,51.45067 0,-39.56188 c -6e-5,-4.21582 -0.44225,-6.84653 -1.32658,-7.89213 -1.16872,-1.41647 -3.01646,-2.12474 -5.54323,-2.12481 l -2.22677,0 0,-1.87185 22.36242,0 0,1.87185 -2.27414,0 c -2.71641,7e-5 -4.6431,0.87697 -5.78012,2.63072 -0.69493,1.07932 -1.04238,3.54139 -1.04232,7.38622 l 0,57.82509 -1.7056,0 -42.35594,-55.24496 0,42.24317 c -2e-5,4.21589 0.42638,6.8466 1.2792,7.89214 1.20023,1.41654 3.04797,2.1248 5.54324,2.1248 l 2.27414,0 0,1.87186 -22.36243,0 0,-1.87186 2.22677,0 c 2.74792,0 4.69042,-0.8769 5.8275,-2.6307 0.69487,-1.07926 1.0423,-3.54134 1.04232,-7.38624 l 0,-47.70696 c -1.86355,-2.32711 -3.28489,-3.86169 -4.26402,-4.60375 -0.94757,-0.74193 -2.35312,-1.43333 -4.21665,-2.07422 -0.91597,-0.30347 -2.30573,-0.45524 -4.16926,-0.45531 l 0,-1.87185" />
        </g>
      </g>
      <g
         transform="matrix(1.1784755,0,0,1.1784755,-162.64559,-106.25668)"
         id="g3140">
        <path
           inkscape:connector-curvature="0"
           id="path2998"
           d="m 249.2227,537.77246 0,-1.01071 -1.08156,-0.13615 c -3.94745,-0.4969 -7.00085,-1.86756 -9.5459,-4.28511 -0.93583,-0.88896 -1.95499,-2.04879 -2.26478,-2.57742 -0.54589,-0.93149 -0.61386,-0.96923 -2.20345,-1.22373 -4.36704,-0.69917 -10.23941,-2.38635 -14.5755,-4.18768 -9.66747,-4.01611 -19.94376,-11.51266 -28.62487,-20.88183 -2.92522,-3.15706 -6.5982,-7.37039 -6.5982,-7.56889 0,-0.0712 1.35246,0.84422 3.00546,2.03435 11.29387,8.13137 22.01983,13.06675 34.90646,16.06164 3.7652,0.87505 12.0261,2.27085 12.20068,2.06149 0.0729,-0.0875 0.25553,-0.7226 0.40575,-1.41139 0.40078,-1.83763 2.09306,-5.13404 3.51674,-6.85027 5.04907,-6.08663 13.90729,-8.09437 21.03124,-4.76679 2.32725,1.08704 3.638,1.98401 5.23936,3.58538 2.24027,2.24027 4.23796,5.84505 4.7491,8.56962 0.17972,0.95803 -0.23779,0.95831 5.11408,-0.004 15.93462,-2.86369 27.58871,-7.78045 40.78755,-17.20787 3.20766,-2.29111 3.36316,-2.37526 2.51307,-1.35993 -6.41493,7.66194 -13.55345,14.63864 -19.73947,19.29201 -9.31713,7.00871 -19.89424,11.55004 -29.70903,12.75574 -1.23877,0.15218 -1.25833,0.16652 -1.80531,1.32382 -0.31127,0.65859 -1.20701,1.8206 -2.04929,2.65848 -2.22829,2.21661 -4.92063,3.47392 -8.49808,3.96851 l -1.08157,0.14953 0,1.01071 0,1.01069 -2.84624,0 -2.84624,0 z"
           style="fill:#2e7824;fill-opacity:1"
           sodipodi:nodetypes="ccssssssssssssssssssssssscccccc" />
        <g
           id="g3125"
           transform="translate(48.487322,-238.396)">
          <path
             inkscape:connector-curvature="0"
             id="path3081"
             style="font-size:100.26593018px;font-style:normal;font-variant:normal;font-weight:normal;font-stretch:normal;line-height:125%;letter-spacing:10.99496651px;word-spacing:0px;fill:#2e7824;fill-opacity:1;stroke:none;font-family:Times New Roman;-inkscape-font-specification:Times New Roman"
             d="m 368.65381,675.04468 0.99721,20.44307 -2.52628,0 c -0.48759,-3.59997 -1.1524,-6.17143 -1.99442,-7.71437 -1.37401,-2.48566 -3.21329,-4.30711 -5.51789,-5.46434 -2.26041,-1.19993 -5.25204,-1.79993 -8.97491,-1.80002 l -12.69781,0 0,66.60068 c -5e-5,5.3572 0.59829,8.70009 1.795,10.02868 1.68411,1.80002 4.27686,2.70002 7.77823,2.70002 l 3.12458,0 0,2.3786 -38.22641,0 0,-2.3786 3.1911,0 c 3.81152,0 6.51506,-1.1143 8.11063,-3.34288 0.97502,-1.37143 1.46255,-4.50004 1.46257,-9.38582 l 0,-66.60068 -10.83635,0 c -4.21046,9e-5 -7.20209,0.30009 -8.97488,0.90001 -2.30469,0.81438 -4.27696,2.37867 -5.91679,4.69291 -1.63987,2.31437 -2.61492,5.44298 -2.92514,9.38581 l -2.5263,0 1.0637,-20.44307 73.59416,0" />
          <path
             inkscape:connector-curvature="0"
             id="path3085"
             style="font-size:100.26593018px;font-style:normal;font-variant:normal;font-weight:normal;font-stretch:normal;line-height:125%;letter-spacing:10.99496651px;word-spacing:0px;fill:#2e7824;fill-opacity:1;stroke:none;font-family:Times New Roman;-inkscape-font-specification:Times New Roman"
             d="m 484.86361,697.35982 0,27.11657 14.11865,0 c 3.66386,4e-5 6.11172,-0.59019 7.34359,-1.77067 1.64239,-1.55141 2.55837,-4.2833 2.74792,-8.19568 l 1.75299,0 0,23.87877 -1.75299,0 c -0.44224,-3.33895 -0.88443,-5.48062 -1.32658,-6.42501 -0.56858,-1.18041 -1.50035,-2.1079 -2.79531,-2.78248 -1.29504,-0.67451 -3.28491,-1.01178 -5.96962,-1.01182 l -14.11865,0 0,22.61402 c -2e-5,3.03544 0.12632,4.89044 0.37902,5.56496 0.25266,0.64082 0.69486,1.16359 1.32659,1.56832 0.63169,0.371 1.83192,0.5565 3.60072,0.5565 l 10.89695,0 c 3.63227,0 6.26964,-0.26982 7.91213,-0.80946 1.64239,-0.53962 3.22165,-1.60203 4.73779,-3.1872 1.95825,-2.09108 3.96391,-5.24456 6.01701,-9.46045 l 1.89513,0 -5.54324,17.20081 -49.51001,0 0,-1.87186 2.27414,0 c 1.51609,0 2.95322,-0.38785 4.3114,-1.16358 1.01073,-0.53963 1.68981,-1.34908 2.03725,-2.42835 0.37901,-1.07925 0.56853,-3.28838 0.56854,-6.62737 l 0,-44.57034 c -10e-6,-4.35074 -0.41062,-7.03204 -1.23183,-8.04391 -1.13708,-1.34902 -3.0322,-2.02356 -5.68536,-2.02363 l -2.27414,0 0,-1.87185 49.51001,0 0.71067,15.02541 -1.84774,0 c -0.66334,-3.60874 -1.40559,-6.08767 -2.22676,-7.43682 -0.78969,-1.34902 -1.97414,-2.37769 -3.55335,-3.08602 -1.26346,-0.50585 -3.49022,-0.7588 -6.6803,-0.75886 l -17.62462,0" />
          <path
             inkscape:connector-curvature="0"
             id="path3087"
             style="font-size:100.26593018px;font-style:normal;font-variant:normal;font-weight:normal;font-stretch:normal;line-height:125%;letter-spacing:10.99496651px;word-spacing:0px;fill:#2e7824;fill-opacity:1;stroke:none;font-family:Times New Roman;-inkscape-font-specification:Times New Roman"
             d="m 600.11439,762.217 -17.15085,0 -21.7465,-32.07446 c -1.61088,0.0675 -2.92167,0.10116 -3.93237,0.10116 -0.41064,3e-5 -0.85283,3e-5 -1.3266,0 -0.4738,-0.0337 -0.96337,-0.0674 -1.46871,-0.10116 l 0,19.9327 c -2e-5,4.31708 0.44218,6.99839 1.32658,8.04392 1.20023,1.484 3.00059,2.22598 5.4011,2.22598 l 2.51103,0 0,1.87186 -27.52662,0 0,-1.87186 2.41628,0 c 2.71633,0 4.65883,-0.94435 5.8275,-2.83307 0.66328,-1.04554 0.99492,-3.52447 0.99493,-7.43683 l 0,-44.31738 c -10e-6,-4.31701 -0.44221,-6.99831 -1.32658,-8.04391 -1.23183,-1.48393 -3.06378,-2.22592 -5.49585,-2.22599 l -2.41628,0 0,-1.87185 23.40474,0 c 6.82239,6e-5 11.84446,0.5397 15.0662,1.6189 3.25325,1.0456 6.00117,3.00177 8.24377,5.86851 2.2741,2.83313 3.41117,6.2227 3.41123,10.16872 -6e-5,4.21592 -1.29506,7.87531 -3.88501,10.97816 -2.55846,3.10293 -6.5382,5.29519 -11.93926,6.57679 l 13.26585,19.67975 c 3.03214,4.51944 5.63793,7.52114 7.81737,9.00513 2.17933,1.484 5.022,2.42835 8.52805,2.83307 l 0,1.87186 m -45.62503,-35.26167 c 0.6001,3e-5 1.12126,0.0168 1.56347,0.0506 0.44218,4e-5 0.80541,4e-5 1.0897,0 6.12752,4e-5 10.73898,-1.4165 13.83437,-4.24961 3.12692,-2.83304 4.69039,-6.44183 4.69043,-10.8264 -4e-5,-4.28328 -1.26346,-7.75717 -3.79024,-10.42166 -2.49528,-2.69811 -5.81173,-4.04719 -9.94938,-4.04726 -1.83198,7e-5 -4.31142,0.32048 -7.43835,0.96122 l 0,28.53312" />
          <path
             inkscape:connector-curvature="0"
             id="path3089"
             style="font-size:100.26593018px;font-style:normal;font-variant:normal;font-weight:normal;font-stretch:normal;line-height:125%;letter-spacing:10.99496651px;word-spacing:0px;fill:#2e7824;fill-opacity:1;stroke:none;font-family:Times New Roman;-inkscape-font-specification:Times New Roman"
             d="m 654.38966,739.24886 -24.87346,0 -4.35877,10.82638 c -1.07392,2.66446 -1.61087,4.65436 -1.61085,5.96971 -2e-5,1.04554 0.45796,1.97303 1.37396,2.78247 0.94754,0.77574 2.969,1.28163 6.06438,1.51772 l 0,1.87186 -20.2304,0 0,-1.87186 c 2.68475,-0.50589 4.42193,-1.16358 5.21157,-1.97303 1.61085,-1.6189 3.39542,-4.90728 5.35371,-9.86517 l 22.59932,-56.45914 1.65823,0 22.36242,57.06622 c 1.8003,4.5869 3.42694,7.57175 4.87993,8.95454 1.48445,1.34909 3.53749,2.10795 6.15914,2.27658 l 0,1.87186 -25.34723,0 0,-1.87186 c 2.55836,-0.1349 4.27976,-0.59021 5.1642,-1.36594 0.91593,-0.77572 1.37391,-1.72008 1.37396,-2.83308 -5e-5,-1.48398 -0.63175,-3.82801 -1.89512,-7.0321 l -3.88499,-9.86516 m -1.32658,-3.74371 -10.89695,-27.72367 -11.18121,27.72367 22.07816,0" />
          <path
             inkscape:connector-curvature="0"
             id="path3123"
             d="m 378.5157,761.33072 0,-0.74546 1.35739,-0.0799 c 2.65138,-0.15611 3.29731,-0.27806 4.39604,-0.82994 1.15263,-0.57896 2.12599,-1.45445 2.46995,-2.22162 0.34287,-0.76471 0.5799,-2.04467 0.73404,-3.96389 0.21553,-2.68348 0.29081,-21.25398 0.15253,-37.62818 -0.11227,-13.29404 -0.15018,-15.06851 -0.33986,-15.9099 -0.42098,-1.86734 -1.10856,-2.76362 -2.75039,-3.58517 -1.32816,-0.6646 -2.18431,-0.85261 -4.22037,-0.92678 l -1.79933,-0.0656 0,-0.80484 0,-0.80485 13.63705,0 13.63706,0 0,0.8041 0,0.8041 -1.98873,0.0663 c -2.20897,0.0737 -2.95008,0.25044 -4.45099,1.06175 -1.33171,0.71984 -1.71529,1.18784 -2.30601,2.81351 -0.22568,0.62107 -0.26571,1.15899 -0.35282,4.74116 -0.054,2.22234 -0.10294,7.97547 -0.10867,12.78474 l -0.0104,8.74414 18.68782,0 18.68783,0 -0.003,-9.05981 c -0.004,-9.91739 -0.13628,-15.0938 -0.4252,-16.59335 -0.34627,-1.79722 -1.10104,-2.74494 -2.88175,-3.61845 -1.32118,-0.64809 -2.59038,-0.9067 -4.44994,-0.9067 l -1.45742,0 0,-0.82075 0,-0.82075 13.64309,0 13.64308,0 -0.0376,0.78918 -0.0376,0.78919 -1.8309,0.0822 c -2.19978,0.0987 -2.78448,0.22175 -4.10375,0.86337 -1.82438,0.88729 -2.58228,1.95033 -2.94622,4.13242 -0.18593,1.1148 -0.20607,3.79473 -0.20622,27.43631 -1.2e-4,24.31587 0.0157,26.29622 0.2198,27.52666 0.12702,0.76568 0.35556,1.60337 0.54094,1.98275 0.5697,1.16595 2.05498,2.21939 3.87532,2.74858 0.57665,0.16764 3.08194,0.43388 4.16692,0.44283 0.33991,0.003 0.34724,0.0189 0.34724,0.76048 l 0,0.75762 -13.63706,0 -13.63706,0 0,-0.74547 0,-0.74546 1.3574,-0.0828 c 3.09159,-0.1886 3.93077,-0.39846 5.2844,-1.32149 1.47255,-1.00411 2.0645,-2.22488 2.33103,-4.80718 0.0818,-0.79222 0.16508,-6.14107 0.20702,-13.28982 l 0.0702,-11.964 -18.71601,0 -18.71601,0 0.0596,12.78474 c 0.0623,13.3589 0.0901,14.04026 0.6229,15.2811 0.47678,1.11033 2.09947,2.32824 3.80311,2.85444 0.72847,0.225 3.2247,0.52072 4.39553,0.52072 0.3564,0 0.36047,0.009 0.36047,0.75761 l 0,0.75762 -13.63706,0 -13.63705,0 0,-0.74547 0,0 z"
             style="fill:#2e7824;fill-opacity:1;stroke:none" />
        </g>
      </g>
    </g>
    <g
       transform="matrix(0.61360939,0,0,0.61360939,144.96182,410.94051)"
       id="g3190">
      <path
         inkscape:connector-curvature="0"
         id="path3192"
         d="m 249.2227,537.77246 0,-1.01071 -1.08156,-0.13615 c -3.94745,-0.4969 -7.00085,-1.86756 -9.5459,-4.28511 -0.93583,-0.88896 -1.95499,-2.04879 -2.26478,-2.57742 -0.54589,-0.93149 -0.61386,-0.96923 -2.20345,-1.22373 -4.36704,-0.69917 -10.23941,-2.38635 -14.5755,-4.18768 -9.66747,-4.01611 -19.94376,-11.51266 -28.62487,-20.88183 -2.92522,-3.15706 -6.5982,-7.37039 -6.5982,-7.56889 0,-0.0712 1.35246,0.84422 3.00546,2.03435 11.29387,8.13137 22.01983,13.06675 34.90646,16.06164 3.7652,0.87505 12.0261,2.27085 12.20068,2.06149 0.0729,-0.0875 0.25553,-0.7226 0.40575,-1.41139 0.40078,-1.83763 2.09306,-5.13404 3.51674,-6.85027 5.04907,-6.08663 13.90729,-8.09437 21.03124,-4.76679 2.32725,1.08704 3.638,1.98401 5.23936,3.58538 2.24027,2.24027 4.23796,5.84505 4.7491,8.56962 0.17972,0.95803 -0.23779,0.95831 5.11408,-0.004 15.93462,-2.86369 27.58871,-7.78045 40.78755,-17.20787 3.20766,-2.29111 3.36316,-2.37526 2.51307,-1.35993 -6.41493,7.66194 -13.55345,14.63864 -19.73947,19.29201 -9.31713,7.00871 -19.89424,11.55004 -29.70903,12.75574 -1.23877,0.15218 -1.25833,0.16652 -1.80531,1.32382 -0.31127,0.65859 -1.20701,1.8206 -2.04929,2.65848 -2.22829,2.21661 -4.92063,3.47392 -8.49808,3.96851 l -1.08157,0.14953 0,1.01071 0,1.01069 -2.84624,0 -2.84624,0 z"
         style="fill:#2e7824;fill-opacity:1"
         sodipodi:nodetypes="ccssssssssssssssssssssssscccccc" />
      <g
         id="g3194"
         transform="translate(48.487322,-238.396)">
        <path
           inkscape:connector-curvature="0"
           id="path3196"
           style="font-size:100.26593018px;font-style:normal;font-variant:normal;font-weight:normal;font-stretch:normal;line-height:125%;letter-spacing:10.99496651px;word-spacing:0px;fill:#2e7824;fill-opacity:1;stroke:none;font-family:Times New Roman;-inkscape-font-specification:Times New Roman"
           d="m 368.65381,675.04468 0.99721,20.44307 -2.52628,0 c -0.48759,-3.59997 -1.1524,-6.17143 -1.99442,-7.71437 -1.37401,-2.48566 -3.21329,-4.30711 -5.51789,-5.46434 -2.26041,-1.19993 -5.25204,-1.79993 -8.97491,-1.80002 l -12.69781,0 0,66.60068 c -5e-5,5.3572 0.59829,8.70009 1.795,10.02868 1.68411,1.80002 4.27686,2.70002 7.77823,2.70002 l 3.12458,0 0,2.3786 -38.22641,0 0,-2.3786 3.1911,0 c 3.81152,0 6.51506,-1.1143 8.11063,-3.34288 0.97502,-1.37143 1.46255,-4.50004 1.46257,-9.38582 l 0,-66.60068 -10.83635,0 c -4.21046,9e-5 -7.20209,0.30009 -8.97488,0.90001 -2.30469,0.81438 -4.27696,2.37867 -5.91679,4.69291 -1.63987,2.31437 -2.61492,5.44298 -2.92514,9.38581 l -2.5263,0 1.0637,-20.44307 73.59416,0" />
        <path
           inkscape:connector-curvature="0"
           id="path3198"
           style="font-size:100.26593018px;font-style:normal;font-variant:normal;font-weight:normal;font-stretch:normal;line-height:125%;letter-spacing:10.99496651px;word-spacing:0px;fill:#2e7824;fill-opacity:1;stroke:none;font-family:Times New Roman;-inkscape-font-specification:Times New Roman"
           d="m 484.86361,697.35982 0,27.11657 14.11865,0 c 3.66386,4e-5 6.11172,-0.59019 7.34359,-1.77067 1.64239,-1.55141 2.55837,-4.2833 2.74792,-8.19568 l 1.75299,0 0,23.87877 -1.75299,0 c -0.44224,-3.33895 -0.88443,-5.48062 -1.32658,-6.42501 -0.56858,-1.18041 -1.50035,-2.1079 -2.79531,-2.78248 -1.29504,-0.67451 -3.28491,-1.01178 -5.96962,-1.01182 l -14.11865,0 0,22.61402 c -2e-5,3.03544 0.12632,4.89044 0.37902,5.56496 0.25266,0.64082 0.69486,1.16359 1.32659,1.56832 0.63169,0.371 1.83192,0.5565 3.60072,0.5565 l 10.89695,0 c 3.63227,0 6.26964,-0.26982 7.91213,-0.80946 1.64239,-0.53962 3.22165,-1.60203 4.73779,-3.1872 1.95825,-2.09108 3.96391,-5.24456 6.01701,-9.46045 l 1.89513,0 -5.54324,17.20081 -49.51001,0 0,-1.87186 2.27414,0 c 1.51609,0 2.95322,-0.38785 4.3114,-1.16358 1.01073,-0.53963 1.68981,-1.34908 2.03725,-2.42835 0.37901,-1.07925 0.56853,-3.28838 0.56854,-6.62737 l 0,-44.57034 c -10e-6,-4.35074 -0.41062,-7.03204 -1.23183,-8.04391 -1.13708,-1.34902 -3.0322,-2.02356 -5.68536,-2.02363 l -2.27414,0 0,-1.87185 49.51001,0 0.71067,15.02541 -1.84774,0 c -0.66334,-3.60874 -1.40559,-6.08767 -2.22676,-7.43682 -0.78969,-1.34902 -1.97414,-2.37769 -3.55335,-3.08602 -1.26346,-0.50585 -3.49022,-0.7588 -6.6803,-0.75886 l -17.62462,0" />
        <path
           inkscape:connector-curvature="0"
           id="path3200"
           style="font-size:100.26593018px;font-style:normal;font-variant:normal;font-weight:normal;font-stretch:normal;line-height:125%;letter-spacing:10.99496651px;word-spacing:0px;fill:#2e7824;fill-opacity:1;stroke:none;font-family:Times New Roman;-inkscape-font-specification:Times New Roman"
           d="m 600.11439,762.217 -17.15085,0 -21.7465,-32.07446 c -1.61088,0.0675 -2.92167,0.10116 -3.93237,0.10116 -0.41064,3e-5 -0.85283,3e-5 -1.3266,0 -0.4738,-0.0337 -0.96337,-0.0674 -1.46871,-0.10116 l 0,19.9327 c -2e-5,4.31708 0.44218,6.99839 1.32658,8.04392 1.20023,1.484 3.00059,2.22598 5.4011,2.22598 l 2.51103,0 0,1.87186 -27.52662,0 0,-1.87186 2.41628,0 c 2.71633,0 4.65883,-0.94435 5.8275,-2.83307 0.66328,-1.04554 0.99492,-3.52447 0.99493,-7.43683 l 0,-44.31738 c -10e-6,-4.31701 -0.44221,-6.99831 -1.32658,-8.04391 -1.23183,-1.48393 -3.06378,-2.22592 -5.49585,-2.22599 l -2.41628,0 0,-1.87185 23.40474,0 c 6.82239,6e-5 11.84446,0.5397 15.0662,1.6189 3.25325,1.0456 6.00117,3.00177 8.24377,5.86851 2.2741,2.83313 3.41117,6.2227 3.41123,10.16872 -6e-5,4.21592 -1.29506,7.87531 -3.88501,10.97816 -2.55846,3.10293 -6.5382,5.29519 -11.93926,6.57679 l 13.26585,19.67975 c 3.03214,4.51944 5.63793,7.52114 7.81737,9.00513 2.17933,1.484 5.022,2.42835 8.52805,2.83307 l 0,1.87186 m -45.62503,-35.26167 c 0.6001,3e-5 1.12126,0.0168 1.56347,0.0506 0.44218,4e-5 0.80541,4e-5 1.0897,0 6.12752,4e-5 10.73898,-1.4165 13.83437,-4.24961 3.12692,-2.83304 4.69039,-6.44183 4.69043,-10.8264 -4e-5,-4.28328 -1.26346,-7.75717 -3.79024,-10.42166 -2.49528,-2.69811 -5.81173,-4.04719 -9.94938,-4.04726 -1.83198,7e-5 -4.31142,0.32048 -7.43835,0.96122 l 0,28.53312" />
        <path
           inkscape:connector-curvature="0"
           id="path3202"
           style="font-size:100.26593018px;font-style:normal;font-variant:normal;font-weight:normal;font-stretch:normal;line-height:125%;letter-spacing:10.99496651px;word-spacing:0px;fill:#2e7824;fill-opacity:1;stroke:none;font-family:Times New Roman;-inkscape-font-specification:Times New Roman"
           d="m 654.38966,739.24886 -24.87346,0 -4.35877,10.82638 c -1.07392,2.66446 -1.61087,4.65436 -1.61085,5.96971 -2e-5,1.04554 0.45796,1.97303 1.37396,2.78247 0.94754,0.77574 2.969,1.28163 6.06438,1.51772 l 0,1.87186 -20.2304,0 0,-1.87186 c 2.68475,-0.50589 4.42193,-1.16358 5.21157,-1.97303 1.61085,-1.6189 3.39542,-4.90728 5.35371,-9.86517 l 22.59932,-56.45914 1.65823,0 22.36242,57.06622 c 1.8003,4.5869 3.42694,7.57175 4.87993,8.95454 1.48445,1.34909 3.53749,2.10795 6.15914,2.27658 l 0,1.87186 -25.34723,0 0,-1.87186 c 2.55836,-0.1349 4.27976,-0.59021 5.1642,-1.36594 0.91593,-0.77572 1.37391,-1.72008 1.37396,-2.83308 -5e-5,-1.48398 -0.63175,-3.82801 -1.89512,-7.0321 l -3.88499,-9.86516 m -1.32658,-3.74371 -10.89695,-27.72367 -11.18121,27.72367 22.07816,0" />
        <path
           inkscape:connector-curvature="0"
           id="path3204"
           d="m 378.5157,761.33072 0,-0.74546 1.35739,-0.0799 c 2.65138,-0.15611 3.29731,-0.27806 4.39604,-0.82994 1.15263,-0.57896 2.12599,-1.45445 2.46995,-2.22162 0.34287,-0.76471 0.5799,-2.04467 0.73404,-3.96389 0.21553,-2.68348 0.29081,-21.25398 0.15253,-37.62818 -0.11227,-13.29404 -0.15018,-15.06851 -0.33986,-15.9099 -0.42098,-1.86734 -1.10856,-2.76362 -2.75039,-3.58517 -1.32816,-0.6646 -2.18431,-0.85261 -4.22037,-0.92678 l -1.79933,-0.0656 0,-0.80484 0,-0.80485 13.63705,0 13.63706,0 0,0.8041 0,0.8041 -1.98873,0.0663 c -2.20897,0.0737 -2.95008,0.25044 -4.45099,1.06175 -1.33171,0.71984 -1.71529,1.18784 -2.30601,2.81351 -0.22568,0.62107 -0.26571,1.15899 -0.35282,4.74116 -0.054,2.22234 -0.10294,7.97547 -0.10867,12.78474 l -0.0104,8.74414 18.68782,0 18.68783,0 -0.003,-9.05981 c -0.004,-9.91739 -0.13628,-15.0938 -0.4252,-16.59335 -0.34627,-1.79722 -1.10104,-2.74494 -2.88175,-3.61845 -1.32118,-0.64809 -2.59038,-0.9067 -4.44994,-0.9067 l -1.45742,0 0,-0.82075 0,-0.82075 13.64309,0 13.64308,0 -0.0376,0.78918 -0.0376,0.78919 -1.8309,0.0822 c -2.19978,0.0987 -2.78448,0.22175 -4.10375,0.86337 -1.82438,0.88729 -2.58228,1.95033 -2.94622,4.13242 -0.18593,1.1148 -0.20607,3.79473 -0.20622,27.43631 -1.2e-4,24.31587 0.0157,26.29622 0.2198,27.52666 0.12702,0.76568 0.35556,1.60337 0.54094,1.98275 0.5697,1.16595 2.05498,2.21939 3.87532,2.74858 0.57665,0.16764 3.08194,0.43388 4.16692,0.44283 0.33991,0.003 0.34724,0.0189 0.34724,0.76048 l 0,0.75762 -13.63706,0 -13.63706,0 0,-0.74547 0,-0.74546 1.3574,-0.0828 c 3.09159,-0.1886 3.93077,-0.39846 5.2844,-1.32149 1.47255,-1.00411 2.0645,-2.22488 2.33103,-4.80718 0.0818,-0.79222 0.16508,-6.14107 0.20702,-13.28982 l 0.0702,-11.964 -18.71601,0 -18.71601,0 0.0596,12.78474 c 0.0623,13.3589 0.0901,14.04026 0.6229,15.2811 0.47678,1.11033 2.09947,2.32824 3.80311,2.85444 0.72847,0.225 3.2247,0.52072 4.39553,0.52072 0.3564,0 0.36047,0.009 0.36047,0.75761 l 0,0.75762 -13.63706,0 -13.63705,0 0,-0.74547 0,0 z"
           style="fill:#2e7824;fill-opacity:1;stroke:none" />
      </g>
    </g>
    <g
       id="g3208"
       style="fill:#800080"
       transform="matrix(0.61360939,0,0,0.61360939,144.96182,615.22622)">
      <path
         sodipodi:nodetypes="ssssscssssssssssssscsssscsssssssscssscssscssscsscssssssscsssssssccscssssssssscssssssscsscssscsscsssssssssssscsscsscssccscs"
         inkscape:connector-curvature="0"
         id="path3210"
         d="m 229.64058,513.8498 c -8.85689,-1.54124 -17.74239,-4.06612 -21.30783,-6.05476 -4.45679,-2.4858 -8.35028,-5.46657 -12.29338,-9.41152 -4.31138,-4.31342 -6.97909,-8.00748 -9.22065,-12.76814 -1.95269,-4.14716 -3.30369,-9.20902 -3.74582,-14.03457 l -0.15931,-1.73881 1.789,-0.15757 c 2.0523,-0.18077 6.37722,0.16956 9.88005,0.8003 8.42569,1.51718 19.68951,5.74828 26.20298,9.8428 2.54217,1.59806 8.46505,6.04025 10.7904,8.09286 2.26034,1.99521 4.72293,4.78522 6.48477,7.34697 1.79347,2.60774 4.04311,6.86961 3.68852,6.9878 -0.61737,0.20579 -3.41302,2.58231 -4.35245,3.69991 -1.48172,1.76277 -3.05669,4.50122 -3.64997,6.34635 -0.28613,0.88985 -0.63546,1.61012 -0.7763,1.6006 -0.14084,-0.01 -1.63934,-0.25802 -3.33001,-0.55222 z m 41.06654,-0.0458 c -0.5256,-1.5252 -1.25212,-3.15686 -2.00564,-4.50429 -1.04678,-1.87182 -3.88947,-4.88923 -5.79531,-6.15152 -0.75635,-0.50094 -1.37799,-1.05188 -1.38143,-1.22431 -0.01,-0.47792 1.70458,-3.50698 3.49498,-6.17591 2.38772,-3.55939 6.7403,-7.83624 11.76414,-11.55946 4.68098,-3.46913 6.16942,-4.41103 10.0092,-6.33389 7.38563,-3.69852 16.44191,-6.64145 23.79457,-7.73225 2.78845,-0.41369 9.03706,-0.59274 9.36155,-0.26826 0.24189,0.24187 -0.28487,4.80636 -0.84594,7.33055 -1.35593,6.10003 -4.36691,12.22369 -8.57477,17.43921 -3.27946,4.06477 -9.34682,9.30557 -13.9956,12.08892 -4.71198,2.82121 -13.8449,5.52778 -24.82786,7.35779 -0.69901,0.11647 -0.88281,0.0674 -0.99789,-0.26658 z m -28.30611,-13.93646 c -2.10447,-4.25617 -5.63879,-8.94603 -9.20548,-12.2152 -2.54801,-2.33546 -9.41542,-7.45726 -12.26321,-9.14605 -1.22035,-0.72369 -2.21938,-1.44443 -2.22006,-1.60165 -6.9e-4,-0.15721 0.30789,-1.74541 0.68571,-3.52933 3.80084,-17.94604 10.66743,-33.88593 19.29835,-44.7986 3.62535,-4.58378 9.01282,-9.22703 12.37493,-10.66546 l 1.05159,-0.44991 1.42332,0.78888 c 7.08757,3.92827 14.63008,13.21476 20.5006,25.24078 3.83767,7.86167 6.56653,15.63722 8.75886,24.95744 0.97191,4.13182 1.74702,8.38482 1.57798,8.65835 -0.0701,0.11341 -0.60691,0.4513 -1.19292,0.75087 -2.47964,1.2676 -9.54649,6.42628 -12.97546,9.47187 -3.55944,3.16147 -6.81444,7.35219 -9.29691,11.9695 l -1.1076,2.06008 -1.25234,-0.4364 c -4.3872,-1.52877 -9.62779,-1.42447 -13.68595,0.27237 l -1.50405,0.62889 z m -26.99163,-24.29862 c -3.86342,-1.82839 -12.58289,-4.9934 -15.01213,-5.44913 -0.4382,-0.0822 -0.89508,-0.26797 -1.01528,-0.4128 -0.3445,-0.4151 -1.75108,-5.26147 -2.27013,-7.82172 -0.74383,-3.66903 -1.01895,-7.08267 -0.87541,-10.86197 0.22863,-6.01976 1.39363,-10.70193 4.05985,-16.3167 l 1.17841,-2.48161 1.53512,0.82915 c 3.46077,1.86925 8.54956,6.03536 11.99496,9.8201 3.76075,4.13115 8.26023,9.85821 8.26023,10.51384 0,0.14456 -0.55639,1.92174 -1.23643,3.9493 -1.60239,4.7776 -2.90256,9.56406 -3.90838,14.38832 -0.44388,2.12899 -0.87677,4.03439 -0.96199,4.23421 -0.13426,0.31486 -0.36753,0.26271 -1.74882,-0.39099 z m 70.59983,0.31229 c -0.0476,-0.15654 -0.20415,-0.95064 -0.34797,-1.76467 -0.91043,-5.15292 -2.78032,-12.41919 -4.54119,-17.64668 l -0.9204,-2.73239 1.07665,-1.56583 c 3.65603,-5.3172 9.37927,-11.5462 14.28318,-15.54536 2.19325,-1.78861 6.03895,-4.17869 6.7236,-4.17869 0.29088,0 2.00386,3.57203 2.9714,6.1961 2.6698,7.24088 3.14933,14.88564 1.46101,23.29095 -0.5777,2.87596 -1.80499,7.13441 -2.1579,7.48731 -0.11447,0.11446 -1.72476,0.64376 -3.57846,1.17622 -4.11495,1.18199 -7.63796,2.46208 -11.63875,4.22895 -1.66721,0.73629 -3.07933,1.33872 -3.13801,1.33872 -0.0587,0 -0.14562,-0.12808 -0.19316,-0.28463 z m -7.74639,-27.09892 c -2.26818,-5.59328 -6.32175,-13.17964 -9.35553,-17.50917 -0.68252,-0.97405 -1.24096,-1.89094 -1.24096,-2.03756 0,-0.92598 5.4069,-9.63124 7.90479,-12.72691 1.76546,-2.18796 5.51318,-5.8048 5.74872,-5.54793 1.06178,1.15795 3.37612,4.2885 4.44459,6.01208 3.38833,5.46581 5.33698,11.34583 6.02973,18.1947 l 0.21754,2.15066 -3.01426,3.08643 c -3.00125,3.07314 -6.2467,6.88667 -8.2504,9.69462 -0.57895,0.81132 -1.12049,1.47389 -1.20342,1.47239 -0.0829,-0.002 -0.6593,-1.25669 -1.2808,-2.78931 z m -56.092,0.064 c -2.27664,-3.00561 -4.85163,-5.98323 -7.68319,-8.88459 l -2.1111,-2.16315 0.20691,-2.39084 c 0.73533,-8.49622 3.95841,-16.46415 9.28463,-22.95293 l 1.36509,-1.66305 1.32519,1.19373 c 1.67485,1.5087 3.83554,3.9025 5.40017,5.98278 2.79169,3.71177 6.68069,10.36857 6.3621,10.89001 -0.10484,0.17158 -0.86787,1.27993 -1.69563,2.46299 -3.10394,4.43626 -6.99412,11.65441 -9.31999,17.29303 -0.5424,1.31496 -1.04583,2.46441 -1.11872,2.55433 -0.0729,0.0899 -0.97985,-0.95512 -2.01546,-2.32231 z m 42.64228,-22.94046 c -1.94555,-2.37213 -5.11089,-5.41432 -7.394,-7.10632 -1.88048,-1.39362 -4.73234,-2.97393 -5.36683,-2.97393 -0.74257,0 -4.10874,1.78632 -5.97817,3.17242 -2.19328,1.62621 -4.76258,4.02496 -6.8862,6.42908 l -1.54217,1.74587 -1.41899,-2.53392 c -0.78045,-1.39365 -2.15872,-3.62849 -3.06283,-4.96631 l -1.64384,-2.43241 1.62187,-2.70311 c 5.31727,-8.86209 11.43731,-15.4311 17.05768,-18.30903 l 1.91058,-0.97832 1.73322,1.00913 c 5.81266,3.3843 11.97828,10.32218 17.18626,19.3389 l 1.38093,2.39085 -0.51583,0.68309 c -0.81132,1.07437 -2.78702,4.29017 -4.20135,6.83845 l -1.29342,2.33041 z"
         style="fill:#800080;fill-opacity:1" />
      <g
         transform="translate(43.436559,-238.396)"
         style="fill:#800080;fill-opacity:1"
         id="g3212">
        <path
           d="m 735.24402,692.0478 0,23.727 -1.75298,0 c -0.56858,-4.5531 -1.59511,-8.17876 -3.07958,-10.87699 -1.45296,-2.6981 -3.53759,-4.83977 -6.25389,-6.425 -2.71637,-1.58511 -5.52746,-2.3777 -8.43329,-2.37776 -3.28489,6e-5 -6.00123,1.07933 -8.14901,3.2378 -2.14783,2.12486 -3.22172,4.55321 -3.2217,7.28505 -2e-5,2.09113 0.67906,3.9967 2.03725,5.71674 1.95827,2.52958 6.6171,5.90228 13.97651,10.11812 6.00118,3.44021 10.09148,6.08778 12.27091,7.94273 2.21093,1.8213 3.90073,3.97983 5.06944,6.4756 1.2002,2.49584 1.80031,5.10968 1.80036,7.84155 -5e-5,5.19398 -1.89517,9.67968 -5.68536,13.45711 -3.75869,3.74371 -8.60704,5.61555 -14.54504,5.61556 -1.86357,-10e-6 -3.61655,-0.15177 -5.25897,-0.45532 -0.97916,-0.16863 -3.01642,-0.77572 -6.11176,-1.82126 -3.06379,-1.07927 -5.00629,-1.6189 -5.8275,-1.6189 -0.78963,0 -1.42135,0.25295 -1.89512,0.75886 -0.4422,0.50591 -0.77384,1.55145 -0.99493,3.13662 l -1.75299,0 0,-23.52464 1.75299,0 c 0.82121,4.92417 1.92669,8.61729 3.31645,11.07934 1.38975,2.42836 3.50597,4.45198 6.34866,6.07088 2.87425,1.6189 6.01698,2.42836 9.42823,2.42835 3.94813,10e-6 7.05928,-1.11299 9.33346,-3.33898 2.30569,-2.22599 3.45856,-4.85669 3.45859,-7.89214 -3e-5,-1.68633 -0.44223,-3.38955 -1.32658,-5.10965 -0.85284,-1.72006 -2.19521,-3.3221 -4.02713,-4.80611 -1.23186,-1.0118 -4.59569,-3.15346 -10.09152,-6.42501 -5.49586,-3.30523 -9.41244,-5.93593 -11.74973,-7.89214 -2.30575,-1.95613 -4.05873,-4.11466 -5.25897,-6.4756 -1.20025,-2.36085 -1.80037,-4.95783 -1.80036,-7.79095 -10e-6,-4.9241 1.76877,-9.15685 5.30633,-12.69826 3.53754,-3.575 8.03846,-5.36253 13.50273,-5.3626 3.4112,7e-5 7.02771,0.89383 10.84957,2.6813 1.76874,0.84324 3.01636,1.26483 3.74286,1.26477 0.82118,6e-5 1.48447,-0.25289 1.98988,-0.75886 0.53691,-0.53957 0.96331,-1.60197 1.27921,-3.18721 l 1.75298,0"
           style="font-size:100.26593018px;font-style:normal;font-variant:normal;font-weight:normal;font-stretch:normal;line-height:125%;letter-spacing:10.99496651px;word-spacing:0px;fill:#800080;fill-opacity:1;stroke:none;font-family:Times New Roman;-inkscape-font-specification:Times New Roman"
           id="path3214"
           inkscape:connector-curvature="0" />
        <path
           d="m 784.40246,724.17284 23.689,25.14354 c 3.88495,4.14845 7.2014,6.98152 9.94939,8.49923 2.74785,1.484 5.49578,2.32717 8.24377,2.52953 l 0,1.87186 -30.55882,0 0,-1.87186 c 1.83191,0 3.1427,-0.3204 3.93238,-0.96122 0.82117,-0.67454 1.23178,-1.41653 1.23183,-2.22598 -5e-5,-0.80945 -0.15797,-1.53458 -0.47378,-2.1754 -0.28431,-0.64081 -1.26346,-1.83812 -2.93744,-3.59194 l -22.17291,-23.42346 0,22.1081 c -2e-5,3.4739 0.20528,5.76735 0.61592,6.88034 0.31583,0.84318 0.97912,1.56831 1.98987,2.17539 1.35815,0.80945 2.79528,1.21417 4.31141,1.21417 l 2.17938,0 0,1.87186 -27.38448,0 0,-1.87186 2.27414,0 c 2.65316,0 4.57986,-0.8263 5.78011,-2.47894 0.75804,-1.07926 1.13706,-3.67624 1.13707,-7.79096 l 0,-44.31738 c -10e-6,-3.47383 -0.20531,-5.78414 -0.61591,-6.93092 -0.31586,-0.80939 -0.96336,-1.51765 -1.9425,-2.12481 -1.38976,-0.80938 -2.84268,-1.2141 -4.35877,-1.21417 l -2.27414,0 0,-1.87185 27.38448,0 0,1.87185 -2.17938,0 c -1.48455,7e-5 -2.92167,0.38793 -4.31141,1.16358 -0.97916,0.53971 -1.65825,1.34915 -2.03725,2.42836 -0.37905,1.07932 -0.56856,3.30531 -0.56854,6.67796 l 0,20.99511 c 0.63168,-0.64078 2.79528,-2.78244 6.49079,-6.42501 9.38081,-9.17372 15.05037,-15.29518 17.00871,-18.3644 0.85276,-1.34902 1.27916,-2.52947 1.2792,-3.54135 -4e-5,-0.77565 -0.33169,-1.4502 -0.99493,-2.02362 -0.66334,-0.60702 -1.78462,-0.91056 -3.36385,-0.91063 l -1.46872,0 0,-1.87185 23.59425,0 0,1.87185 c -1.38981,0.0338 -2.65322,0.23616 -3.79023,0.60709 -1.13714,0.37107 -2.52689,1.0962 -4.16928,2.1754 -1.64248,1.0456 -3.66394,2.74881 -6.06438,5.10964 -0.69493,0.6746 -3.90083,4.13163 -9.61774,10.37109 l -9.80724,10.42166"
           style="font-size:100.26593018px;font-style:normal;font-variant:normal;font-weight:normal;font-stretch:normal;line-height:125%;letter-spacing:10.99496651px;word-spacing:0px;fill:#800080;fill-opacity:1;stroke:none;font-family:Times New Roman;-inkscape-font-specification:Times New Roman"
           id="path3216"
           inkscape:connector-curvature="0" />
        <path
           d="m 866.1096,760.34514 0,1.87186 -27.52662,0 0,-1.87186 2.27414,0 c 2.65316,0 4.57987,-0.8263 5.78012,-2.47894 0.75804,-1.07926 1.13706,-3.67624 1.13708,-7.79096 l 0,-44.31738 c -2e-5,-3.47383 -0.20533,-5.76727 -0.61592,-6.88032 -0.31586,-0.84312 -0.96337,-1.56825 -1.9425,-2.17541 -1.38976,-0.80938 -2.84269,-1.2141 -4.35878,-1.21417 l -2.27414,0 0,-1.87185 27.52662,0 0,1.87185 -2.32152,0 c -2.62161,7e-5 -4.53252,0.82638 -5.73274,2.47894 -0.78965,1.07933 -1.18447,3.67631 -1.18445,7.79096 l 0,44.31738 c -2e-5,3.4739 0.20529,5.76735 0.61591,6.88034 0.31584,0.84318 0.97913,1.56831 1.98988,2.17539 1.35814,0.80945 2.79528,1.21417 4.3114,1.21417 l 2.32152,0"
           style="font-size:100.26593018px;font-style:normal;font-variant:normal;font-weight:normal;font-stretch:normal;line-height:125%;letter-spacing:10.99496651px;word-spacing:0px;fill:#800080;fill-opacity:1;stroke:none;font-family:Times New Roman;-inkscape-font-specification:Times New Roman"
           id="path3218"
           inkscape:connector-curvature="0" />
        <path
           d="m 877.93421,693.61611 17.4351,0 39.27637,51.45067 0,-39.56188 c -6e-5,-4.21582 -0.44225,-6.84653 -1.32658,-7.89213 -1.16872,-1.41647 -3.01646,-2.12474 -5.54323,-2.12481 l -2.22677,0 0,-1.87185 22.36242,0 0,1.87185 -2.27414,0 c -2.71641,7e-5 -4.6431,0.87697 -5.78012,2.63072 -0.69493,1.07932 -1.04238,3.54139 -1.04232,7.38622 l 0,57.82509 -1.7056,0 -42.35594,-55.24496 0,42.24317 c -2e-5,4.21589 0.42638,6.8466 1.2792,7.89214 1.20023,1.41654 3.04797,2.1248 5.54324,2.1248 l 2.27414,0 0,1.87186 -22.36243,0 0,-1.87186 2.22677,0 c 2.74792,0 4.69042,-0.8769 5.8275,-2.6307 0.69487,-1.07926 1.0423,-3.54134 1.04232,-7.38624 l 0,-47.70696 c -1.86355,-2.32711 -3.28489,-3.86169 -4.26402,-4.60375 -0.94757,-0.74193 -2.35312,-1.43333 -4.21665,-2.07422 -0.91597,-0.30347 -2.30573,-0.45524 -4.16926,-0.45531 l 0,-1.87185"
           style="font-size:100.26593018px;font-style:normal;font-variant:normal;font-weight:normal;font-stretch:normal;line-height:125%;letter-spacing:10.99496651px;word-spacing:0px;fill:#800080;fill-opacity:1;stroke:none;font-family:Times New Roman;-inkscape-font-specification:Times New Roman"
           id="path3220"
           inkscape:connector-curvature="0" />
      </g>
    </g>
  </g>
</svg>
