<?xml version="1.0" encoding="UTF-8" standalone="no"?>
<!-- Created with Inkscape (http://www.inkscape.org/) -->

<svg
   xmlns:dc="http://purl.org/dc/elements/1.1/"
   xmlns:cc="http://creativecommons.org/ns#"
   xmlns:rdf="http://www.w3.org/1999/02/22-rdf-syntax-ns#"
   xmlns:svg="http://www.w3.org/2000/svg"
   xmlns="http://www.w3.org/2000/svg"
   xmlns:sodipodi="http://sodipodi.sourceforge.net/DTD/sodipodi-0.dtd"
   xmlns:inkscape="http://www.inkscape.org/namespaces/inkscape"
   width="1052.3622"
   height="744.09448"
   id="svg3120"
   version="1.1"
   inkscape:version="0.48.4 r9939"
   sodipodi:docname="logo_mail.svg">
  <defs
     id="defs3122">
    <marker
       orient="auto"
       markerHeight="3"
       markerWidth="4"
       markerUnits="strokeWidth"
       refY="5"
       refX="10"
       viewBox="0 0 10 10"
       id="ArrowStart">
      <path
         id="path2993"
         d="M 10,0 0,5 10,10 z"
         inkscape:connector-curvature="0" />
    </marker>
    <marker
       orient="auto"
       markerHeight="3"
       markerWidth="4"
       markerUnits="strokeWidth"
       refY="5"
       refX="0"
       viewBox="0 0 10 10"
       id="ArrowEnd">
      <path
         id="path2990"
         d="M 0,0 10,5 0,10 z"
         inkscape:connector-curvature="0" />
    </marker>
    <marker
       orient="auto"
       markerHeight="3"
       markerWidth="4"
       markerUnits="strokeWidth"
       refY="5"
       refX="10"
       viewBox="0 0 10 10"
       id="ArrowStart-4">
      <path
         id="path2993-0"
         d="M 10,0 0,5 10,10 z"
         inkscape:connector-curvature="0" />
    </marker>
    <marker
       orient="auto"
       markerHeight="3"
       markerWidth="4"
       markerUnits="strokeWidth"
       refY="5"
       refX="0"
       viewBox="0 0 10 10"
       id="ArrowEnd-8">
      <path
         id="path2990-6"
         d="M 0,0 10,5 0,10 z"
         inkscape:connector-curvature="0" />
    </marker>
  </defs>
  <sodipodi:namedview
     id="base"
     pagecolor="#ffffff"
     bordercolor="#666666"
     borderopacity="1.0"
     inkscape:pageopacity="0.0"
     inkscape:pageshadow="2"
     inkscape:zoom="1.0224067"
     inkscape:cx="304.92824"
     inkscape:cy="71.917936"
     inkscape:document-units="px"
     inkscape:current-layer="layer1"
     showgrid="false"
     inkscape:window-width="1125"
     inkscape:window-height="695"
     inkscape:window-x="153"
     inkscape:window-y="45"
     inkscape:window-maximized="0" />
  <metadata
     id="metadata3125">
    <rdf:RDF>
      <cc:Work
         rdf:about="">
        <dc:format>image/svg+xml</dc:format>
        <dc:type
           rdf:resource="http://purl.org/dc/dcmitype/StillImage" />
        <dc:title></dc:title>
      </cc:Work>
    </rdf:RDF>
  </metadata>
  <g
     inkscape:label="Layer 1"
     inkscape:groupmode="layer"
     id="layer1"
     transform="translate(0,-308.2677)">
    <rect
       style="fill:#71c837;fill-opacity:1;stroke:none"
       id="rect3193"
       width="984.59399"
       height="105.12429"
       x="37.648228"
       y="349.93118"
       inkscape:export-filename="/home/aank/data.desain/hmi/register.hmi.web.id/text3963.png"
       inkscape:export-xdpi="6.120327"
       inkscape:export-ydpi="6.120327" />
    <g
       transform="matrix(20.326233,0,0,20.326233,33.924547,-20929.386)"
       id="layer1-0"
       inkscape:label="Layer 1"
       style="fill:#ffffff;fill-opacity:1"
       inkscape:export-filename="/home/aank/data.desain/hmi/register.hmi.web.id/text3963.png"
       inkscape:export-xdpi="6.120327"
       inkscape:export-ydpi="6.120327">
      <g
         transform="matrix(-0.11662721,0,0,0.11662721,5.993671,1046.314)"
         id="g3048"
         style="fill:#ffffff;fill-opacity:1">
        <path
           style="fill:#ffffff;fill-opacity:1"
           sodipodi:nodetypes="sscsscssssssscsccscscscs"
           inkscape:connector-curvature="0"
           d="m 24,33 c -3.312,0 -6,-2.688 -6,-6 0,-0.102 0.024,-0.195 0.03,-0.297 C 18.495,26.865 18.978,27 19.5,27 21.984,27 24,24.984 24,22.5 24,21.978 23.865,21.495 23.703,21.03 23.805,21.024 23.898,21 24,21 c 3.312,0 6,2.688 6,6 0,3.312 -2.688,6 -6,6 z m 0,-18 c -6.627,0 -12,5.373 -12,12 0,6.627 5.373,12 12,12 6.627,0 12,-5.373 12,-12 0,-0.186 -0.048,-0.363 -0.057,-0.552 C 36.897,26.799 37.923,27 39,27 42.012,27 44.649,25.503 46.272,23.226 47.46,25.425 48,27 48,27 48,27 42,45 24,45 6,45 0,27 0,27 0,27 6,9 24,9 24.18,9 24.336,9.03 24.513,9.033 24.186,9.96 24,10.956 24,12 c 0,1.077 0.201,2.103 0.552,3.057 C 24.363,15.048 24.186,15 24,15 z"
           id="path3040" />
      </g>
      <g
         transform="translate(0.41984465,-0.37565048)"
         id="text3051"
         style="font-size:3.99616265px;font-style:normal;font-weight:normal;line-height:125%;letter-spacing:0px;word-spacing:0px;fill:#ffffff;fill-opacity:1;stroke:none;font-family:Sans">
        <path
           inkscape:connector-curvature="0"
           id="path3056"
           style="font-variant:normal;font-weight:300;font-stretch:normal;text-align:start;line-height:125%;writing-mode:lr-tb;text-anchor:start;fill:#ffffff;fill-opacity:1;font-family:Open Sans;-inkscape-font-specification:Open Sans Light"
           d="m 7.3016028,1048.8551 c 0.1534972,0 0.2861821,0.028 0.3980553,0.084 0.1118701,0.056 0.2120342,0.1516 0.3004927,0.2868 l 0.011707,0 c -0.00781,-0.1639 -0.011709,-0.3245 -0.011707,-0.4819 l 0,-0.763 0.1912226,0 0,3.0362 -0.1268313,0 -0.048781,-0.3239 -0.01561,0 c -0.1613051,0.2419 -0.3928534,0.3629 -0.6946455,0.3629 -0.2926885,0 -0.5164318,-0.091 -0.6712304,-0.2732 -0.1547996,-0.1821 -0.2321992,-0.4474 -0.2321989,-0.7961 -3e-7,-0.3668 0.076749,-0.6471 0.2302476,-0.841 0.1534978,-0.1938 0.3765907,-0.2907 0.6692792,-0.2907 m 0,0.1756 c -0.2315494,0 -0.405861,0.081 -0.5229353,0.2439 -0.1157748,0.1626 -0.1736618,0.3987 -0.1736614,0.7083 -4e-7,0.601 0.2334991,0.9015 0.7004992,0.9015 0.2393521,0 0.4149646,-0.07 0.5268379,-0.2088 0.1118699,-0.1392 0.1678057,-0.3688 0.1678076,-0.6888 l 0,-0.033 c -1.9e-6,-0.3279 -0.055287,-0.5633 -0.1658564,-0.7064 -0.1092716,-0.1444 -0.2868353,-0.2166 -0.5326916,-0.2166" />
        <path
           inkscape:connector-curvature="0"
           id="path3058"
           style="font-variant:normal;font-weight:300;font-stretch:normal;text-align:start;line-height:125%;writing-mode:lr-tb;text-anchor:start;fill:#ffffff;fill-opacity:1;font-family:Open Sans;-inkscape-font-specification:Open Sans Light"
           d="m 9.7621306,1051.0561 c -0.3082986,0 -0.5489526,-0.095 -0.7219629,-0.2849 -0.1717105,-0.1899 -0.2575654,-0.4559 -0.2575652,-0.798 -2e-7,-0.3382 0.083253,-0.6088 0.2497602,-0.8118 0.1665061,-0.2042 0.3908998,-0.3063 0.6731817,-0.3063 0.2497587,0 0.4468346,0.087 0.5912296,0.2615 0.14439,0.1743 0.216586,0.411 0.216588,0.7102 l 0,0.1561 -1.5278294,0 c 0.0026,0.2914 0.070245,0.5139 0.2029302,0.6674 0.1339851,0.1535 0.3252076,0.2302 0.5736678,0.2302 0.1209763,0 0.2269942,-0.01 0.3180544,-0.025 0.09236,-0.017 0.208782,-0.053 0.349274,-0.1092 l 0,0.1756 c -0.119679,0.052 -0.23025,0.087 -0.331713,0.1053 -0.1014666,0.02 -0.2133383,0.029 -0.3356154,0.029 m -0.056586,-2.0293 c -0.204232,0 -0.3681369,0.068 -0.4917154,0.2029 -0.1235798,0.134 -0.195776,0.3279 -0.2165889,0.5815 l 1.3112407,0 c -2e-6,-0.2458 -0.05334,-0.4377 -0.160003,-0.5756 -0.106669,-0.1392 -0.2543138,-0.2088 -0.4429334,-0.2088" />
        <path
           inkscape:connector-curvature="0"
           id="path3060"
           style="font-variant:normal;font-weight:300;font-stretch:normal;text-align:start;line-height:125%;writing-mode:lr-tb;text-anchor:start;fill:#ffffff;fill-opacity:1;font-family:Open Sans;-inkscape-font-specification:Open Sans Light"
           d="m 12.00607,1051.0561 c -0.32651,0 -0.564563,-0.1223 -0.714158,-0.3668 l -0.01366,0 0.0059,0.1639 c 0.0052,0.096 0.0078,0.2016 0.0078,0.3161 l 0,0.8078 -0.193174,0 0,-3.081 0.163905,0 0.03707,0.3024 0.01171,0 c 0.145692,-0.2289 0.378541,-0.3434 0.698547,-0.3434 0.286182,0 0.504072,0.094 0.65367,0.2829 0.150894,0.1874 0.226343,0.4605 0.226345,0.8196 -2e-6,0.3486 -0.07935,0.6192 -0.238053,0.8117 -0.157403,0.1912 -0.37269,0.2868 -0.645864,0.2868 m -0.0039,-0.1717 c 0.217238,0 0.385046,-0.081 0.503423,-0.242 0.119675,-0.1613 0.179513,-0.3869 0.179515,-0.677 -2e-6,-0.6231 -0.225046,-0.9347 -0.675133,-0.9347 -0.247159,0 -0.428625,0.068 -0.544399,0.2049 -0.115774,0.1353 -0.173662,0.3564 -0.173661,0.6634 l 0,0.063 c -10e-7,0.3317 0.05528,0.5684 0.165856,0.7102 0.111871,0.1418 0.293337,0.2127 0.544399,0.2127" />
        <path
           inkscape:connector-curvature="0"
           id="path3062"
           style="font-variant:normal;font-weight:300;font-stretch:normal;text-align:start;line-height:125%;writing-mode:lr-tb;text-anchor:start;fill:#ffffff;fill-opacity:1;font-family:Open Sans;-inkscape-font-specification:Open Sans Light"
           d="m 13.672439,1051.0171 -0.193174,0 0,-3.0362 0.193174,0 0,3.0362" />
        <path
           inkscape:connector-curvature="0"
           id="path3064"
           style="font-variant:normal;font-weight:300;font-stretch:normal;text-align:start;line-height:125%;writing-mode:lr-tb;text-anchor:start;fill:#ffffff;fill-opacity:1;font-family:Open Sans;-inkscape-font-specification:Open Sans Light"
           d="m 16.13882,1049.9537 c -2e-6,0.346 -0.08391,0.6166 -0.251712,0.8117 -0.167809,0.1938 -0.399357,0.2907 -0.694645,0.2907 -0.18602,0 -0.349925,-0.045 -0.491715,-0.1346 -0.141792,-0.09 -0.250411,-0.2186 -0.325859,-0.3864 -0.07545,-0.1678 -0.113173,-0.3616 -0.113173,-0.5814 0,-0.3461 0.0839,-0.6153 0.251711,-0.8079 0.167807,-0.1938 0.398055,-0.2907 0.690743,-0.2907 0.291386,0 0.519682,0.098 0.68489,0.2946 0.166504,0.1952 0.249758,0.4631 0.24976,0.804 m -1.674174,0 c 0,0.2913 0.06374,0.519 0.191223,0.6829 0.128782,0.1626 0.310248,0.2439 0.544399,0.2439 0.234149,0 0.414964,-0.081 0.542448,-0.2439 0.128781,-0.1639 0.193172,-0.3916 0.193174,-0.6829 -2e-6,-0.2927 -0.06504,-0.5197 -0.195125,-0.681 -0.128785,-0.1613 -0.310251,-0.242 -0.5444,-0.242 -0.234151,0 -0.414966,0.081 -0.542447,0.242 -0.126182,0.16 -0.189272,0.387 -0.189272,0.681" />
        <path
           inkscape:connector-curvature="0"
           id="path3066"
           style="font-variant:normal;font-weight:300;font-stretch:normal;text-align:start;line-height:125%;writing-mode:lr-tb;text-anchor:start;fill:#ffffff;fill-opacity:1;font-family:Open Sans;-inkscape-font-specification:Open Sans Light"
           d="m 16.292969,1048.8961 0.199027,0 0.448788,1.1902 c 0.136587,0.3656 0.223092,0.6121 0.259517,0.7396 l 0.01171,0 c 0.05463,-0.1678 0.143741,-0.4183 0.267322,-0.7513 l 0.448787,-1.1785 0.199028,0 -0.950259,2.4644 c -0.07675,0.2003 -0.141142,0.3356 -0.193174,0.4059 -0.05203,0.07 -0.113173,0.1229 -0.183418,0.158 -0.06894,0.035 -0.152848,0.053 -0.251711,0.053 -0.07415,0 -0.156751,-0.014 -0.247809,-0.041 l 0,-0.1678 c 0.07545,0.021 0.15675,0.031 0.243906,0.031 0.06634,0 0.12488,-0.016 0.175613,-0.047 0.05073,-0.031 0.09626,-0.08 0.136587,-0.1463 0.04163,-0.065 0.08911,-0.1691 0.142442,-0.3122 0.05463,-0.1418 0.08976,-0.2342 0.105367,-0.2771 l -0.81172,-2.121" />
        <path
           inkscape:connector-curvature="0"
           id="path3068"
           style="font-variant:normal;font-weight:300;font-stretch:normal;text-align:start;line-height:125%;writing-mode:lr-tb;text-anchor:start;fill:#ffffff;fill-opacity:1;font-family:Open Sans;-inkscape-font-specification:Open Sans Light"
           d="m 18.287148,1050.8649 c 0,-0.1275 0.05203,-0.1912 0.1561,-0.1912 0.106668,0 0.160002,0.064 0.160003,0.1912 -1e-6,0.1275 -0.05334,0.1912 -0.160003,0.1912 -0.104067,0 -0.1561,-0.064 -0.1561,-0.1912" />
      </g>
    </g>
    <rect
       style="fill:#ffffff;fill-opacity:1;stroke:none"
       id="rect3191"
       width="0.59173375"
       height="97.984795"
       x="450.52805"
       y="353.58173"
       inkscape:export-filename="/home/aank/data.desain/hmi/register.hmi.web.id/text3963.png"
       inkscape:export-xdpi="6.120327"
       inkscape:export-ydpi="6.120327" />
    <text
       xml:space="preserve"
       style="font-size:56.49069214px;font-style:normal;font-weight:normal;line-height:125%;letter-spacing:0px;word-spacing:0px;fill:#ffffff;fill-opacity:1;stroke:none;font-family:Sans"
       x="470.88474"
       y="420.90594"
       id="text3963"
       sodipodi:linespacing="125%"
       inkscape:export-xdpi="6.120327"
       inkscape:export-ydpi="6.120327"><tspan
         sodipodi:role="line"
         id="tspan3965"
         x="470.88474"
         y="420.90594"
         style="font-size:56.49069214px;font-style:normal;font-variant:normal;font-weight:300;font-stretch:normal;text-align:start;line-height:125%;writing-mode:lr-tb;text-anchor:start;fill:#ffffff;font-family:Open Sans;-inkscape-font-specification:Open Sans Light">Register Website HMI</tspan></text>
    <rect
       inkscape:export-ydpi="5.6123271"
       inkscape:export-xdpi="5.6123271"
       inkscape:export-filename="/home/aank/data.desain/hmi/register.hmi.web.id/text3963.png"
       y="673.60468"
       x="37.648228"
       height="105.12429"
       width="573.77765"
       id="rect3046"
       style="fill:#71c837;fill-opacity:1;stroke:none" />
    <g
       style="fill:#ffffff;fill-opacity:1;fill-rule:evenodd"
       id="g3705"
       transform="matrix(1.1656422,0,0,1.1656422,-35.899778,-100.10958)" />
    <g
       style="fill:#ffffff;fill-opacity:1;fill-rule:evenodd"
       id="g3707"
       transform="matrix(1.1656422,0,0,1.1656422,-35.899778,-100.10958)" />
    <g
       id="g3184"
       transform="matrix(1.0976872,0,0,1.0976872,-29.247645,-264.64008)"
       style="fill:#71c837;fill-opacity:1">
      <g
         id="g3179"
         style="fill:#71c837;fill-opacity:1">
        <g
           style="fill:#71c837;fill-opacity:1;fill-rule:evenodd"
           id="g3463"
           transform="matrix(2.8963218,0,0,2.8963218,-931.94725,-178.82352)">
          <path
             id="path3465"
             d="m 358.654,298.608 c 6.759,0 12.457,4.33 14.2,10.234 -1.328,-3.348 -4.202,-6.063 -8.043,-7.118 -6.537,-1.795 -13.4,1.899 -15.325,8.25 -1.925,6.351 1.815,12.957 8.353,14.752 4.4,1.208 8.947,-0.072 12.038,-2.974 -2.706,3.017 -6.73,4.932 -11.223,4.932 -8.145,0 -14.75,-6.286 -14.75,-14.038 0,-7.752 6.605,-14.038 14.75,-14.038 z"
             style="fill:#71c837;fill-opacity:1;stroke:none"
             inkscape:connector-curvature="0" />
        </g>
        <path
           style="fill:#71c837;fill-opacity:1;stroke:none"
           inkscape:transform-center-y="-2.0346065"
           d="m 148.19003,749.35006 -9.57729,-8.40885 -10.51728,7.199 5.03733,-11.70374 -10.09582,-7.77818 12.69053,1.15836 4.27773,-12.00406 2.80586,12.42879 12.73959,0.42902 -10.9564,6.50828 z"
           id="path4944"
           inkscape:connector-curvature="0"
           inkscape:transform-center-x="-0.48680899" />
      </g>
      <g
         id="g3166"
         style="fill:#71c837;fill-opacity:1">
        <g
           id="g3161"
           style="fill:#71c837;fill-opacity:1">
          <path
             d="m 212.03457,754.50164 c 0.31547,0 0.39452,0 0.39452,-0.39033 l 0,-51.44476 c 0,-0.35485 -0.0788,-0.39033 -0.31545,-0.39033 l -2.84057,0 c -0.31545,0 -0.39452,0 -0.39452,0.39033 l 0,23.74947 -30.37847,0 0,-23.74947 c 0,-0.35485 -0.0787,-0.39033 -0.39451,-0.39033 l -2.7617,0 c -0.31544,0 -0.3945,0 -0.3945,0.39033 l 0,51.3667 c 0,0.35484 0.0788,0.46129 0.3945,0.46129 l 2.7617,0 c 0.31545,0 0.39451,0 0.39451,-0.46129 l 0,-24.61883 30.37847,0 0,24.69689 c 0,0.35485 0.0788,0.39033 0.39452,0.39033 l 2.76168,0"
             style="font-size:2.22367883px;font-style:normal;font-variant:normal;font-weight:300;font-stretch:normal;text-align:start;line-height:125%;letter-spacing:0px;word-spacing:0px;writing-mode:lr-tb;text-anchor:start;fill:#71c837;fill-opacity:1;stroke:none;font-family:Adobe Clean;-inkscape-font-specification:Adobe Clean Light"
             id="path2995"
             inkscape:connector-curvature="0" />
          <path
             d="m 231.23935,702.66299 -6.23351,51.44477 c 0,0.35484 0.1579,0.39033 0.39451,0.39033 l 2.76169,0 c 0.31546,0 0.31546,0 0.39451,-0.39033 1.97263,-16.17362 5.20774,-43.79085 5.60227,-49.47185 l 0.0788,0 c 2.05155,6.46874 11.36235,34.56146 16.49118,49.47185 0.0788,0.35484 0.15791,0.39033 0.55235,0.39033 l 3.23511,0 c 0.23668,0 0.47344,0 0.55234,-0.39033 3.55072,-10.65231 14.59745,-42.29343 16.64899,-49.39378 l 0.0788,0 c 0.15792,3.63001 2.9195,29.90595 5.36557,49.47539 0.0788,0.35486 0.15789,0.35486 0.47341,0.35486 l 2.91949,0 c 0.23668,0 0.39452,0 0.39452,-0.39033 l -6.1546,-51.52284 c -0.0788,-0.35484 -0.0788,-0.35484 -0.47343,-0.35484 l -4.41868,0 c -0.31546,0 -0.31546,0 -0.47344,0.39033 -3.07727,8.91714 -14.43963,41.26794 -16.33336,47.58055 l -0.0787,0 c -1.81482,-6.62841 -13.01934,-38.97922 -16.09664,-47.65861 -0.0788,-0.35485 -0.1579,-0.35485 -0.47342,-0.35485 l -4.81322,0 c -0.1579,0 -0.31544,0 -0.39452,0.39032"
             style="font-size:2.22367883px;font-style:normal;font-variant:normal;font-weight:300;font-stretch:normal;text-align:start;line-height:125%;letter-spacing:0px;word-spacing:0px;writing-mode:lr-tb;text-anchor:start;fill:#71c837;fill-opacity:1;stroke:none;font-family:Adobe Clean;-inkscape-font-specification:Adobe Clean Light"
             id="path2997"
             inkscape:connector-curvature="0" />
          <path
             d="m 297.01169,702.66299 c 0,-0.35483 -0.0788,-0.39031 -0.3945,-0.39031 l -2.7617,0 c -0.31545,0 -0.3945,0 -0.3945,0.39031 l 0,51.36671 c 0,0.39033 0.1579,0.46129 0.47342,0.46129 l 2.68278,0 c 0.31545,0 0.3945,0 0.3945,-0.46129 l 0,-51.36671"
             style="font-size:2.22367883px;font-style:normal;font-variant:normal;font-weight:300;font-stretch:normal;text-align:start;line-height:125%;letter-spacing:0px;word-spacing:0px;writing-mode:lr-tb;text-anchor:start;fill:#71c837;fill-opacity:1;stroke:none;font-family:Adobe Clean;-inkscape-font-specification:Adobe Clean Light"
             id="path2999"
             inkscape:connector-curvature="0" />
        </g>
        <g
           id="g3153"
           transform="matrix(1.1934871,0,0,1.1934871,-126.80279,-140.60708)"
           style="fill:#71c837;fill-opacity:1">
          <path
             inkscape:export-ydpi="290.31"
             inkscape:export-xdpi="290.31"
             inkscape:export-filename="/home/aank/Dropbox/2012/04.design/01.greenbox.id/cp/header/rect3103.png"
             sodipodi:nodetypes="cssssccscscssccsssccsscsccccssccscscsssccscssscscscscssccccsssssccscsccsscccccssscccsssccsccccccscccsssccsccscssssccssscccccsccscsssscscccscsssssccssscccssccssccccccssccccsscssssccccscscssccsssscsccccscsccscscssssscssccsccccccscsssccssccccsssscccscccsccscscssscccsssccsssssccssscccscscccccscsccsccssccccsssccsscssscssssscsssccsscscccsssscsccccsssccccccssscsssscsssscsccsccssssscsssscscsccscscsccscsccsssscccssccccsscssssscsssssssscscccsssssssccsscscscccccccsscccsccccccccccsccsccccccssssssscscscccsscccssscsscccscssccccccssccsscsccccsccccccccsccsscccccccsscsssssssssccsscssscccscscccsssssssscccssccscccccccccscsscccccccscssscssccccsccsssccccssssssssscsscccsccssscsscccccscsccssssssccccccsccccscccsscscssssccssscsscccccscsccsccscsssssscsccccccsccscscccscccccc"
             style="fill:#71c837;fill-opacity:1"
             d="m 392.88357,746.78535 c -2.7449,-1.78888 -4.63952,-3.4378 -6.22035,-5.4137 -0.7125,-0.89045 -1.84051,-2.64148 -2.36608,-3.67303 -1.59429,-3.12885 -2.36763,-6.37278 -2.36763,-9.93153 0,-4.93335 1.51922,-9.41654 4.52592,-13.35568 0.8835,-1.15744 3.25185,-3.53642 3.51758,-3.53329 0.045,1.6e-4 -0.057,0.13534 -0.22645,0.29944 -0.3486,0.33767 -0.84133,0.93638 -0.77067,0.93638 0.0256,0 0.14362,-0.0509 0.26212,-0.11168 0.18916,-0.0984 0.54708,-0.0901 0.54708,0.011 0,0.18781 -0.27412,0.90109 -0.42542,1.10689 -0.1048,0.14273 -0.19074,0.2857 -0.19074,0.31782 0,0.0326 -0.11255,0.22026 -0.25028,0.41809 -0.13766,0.19774 -0.27073,0.39952 -0.29569,0.44832 -0.0248,0.0487 -0.13763,0.26779 -0.2503,0.4866 -0.11267,0.21881 -0.2049,0.44165 -0.2049,0.49513 0,0.0531 -0.0798,0.20489 -0.17753,0.33644 -0.0977,0.13164 -0.25505,0.44619 -0.3498,0.69899 -0.0947,0.25282 -0.28541,0.60081 -0.42375,0.77301 -0.21087,0.26259 -0.25408,0.38469 -0.26744,0.75519 -0.0165,0.46217 -0.24094,0.97205 -1.0063,2.28738 -0.17992,0.30923 -0.39106,0.74862 -0.46921,0.97665 -0.0781,0.22792 -0.18517,0.49531 -0.23787,0.59404 -0.13567,0.2544 -0.21873,0.62571 -0.30909,1.38152 -0.17128,1.43294 -0.17129,1.55923 -1.6e-4,2.06785 0.10763,0.32044 0.14765,0.581 0.11846,0.77305 -0.0389,0.25579 0.005,0.66059 0.16857,1.55329 0.0259,0.14246 0.002,0.39615 -0.053,0.56422 -0.0906,0.27585 -0.0842,0.33871 0.0672,0.65145 0.0921,0.19051 0.1676,0.48927 0.1676,0.6638 0,0.32092 0.29759,1.22114 0.40434,1.2231 0.08,0 0.0722,-0.20562 -0.0141,-0.36704 -0.0393,-0.0743 -0.12905,-0.6318 -0.19911,-1.23993 -0.07,-0.60803 -0.15905,-1.21653 -0.19777,-1.35223 -0.11637,-0.4072 -0.0901,-0.98176 0.0452,-0.98176 0.0636,0 0.11722,0.0436 0.11943,0.0963 0.0212,0.52403 0.10603,1.10814 0.23745,1.63148 0.0868,0.34619 0.1847,0.76851 0.21729,0.93864 0.0325,0.17003 0.20649,0.74401 0.38646,1.27547 0.25741,0.76013 0.32595,1.07159 0.32131,1.46073 -0.005,0.42709 0.0304,0.55932 0.25922,0.96625 0.2659,0.47301 0.86312,1.12756 1.48963,1.63242 0.33245,0.26808 0.39791,0.29446 0.9537,0.38405 0.22309,0.0358 0.35283,0.128 0.57759,0.40964 0.47447,0.59432 0.96376,1.02028 1.28271,1.1167 0.23432,0.0709 0.35635,0.17952 0.55993,0.49893 0.14317,0.22458 0.30291,0.53887 0.355,0.69846 0.0589,0.18039 0.17117,0.32692 0.29712,0.38746 0.11132,0.0539 0.29505,0.21933 0.40825,0.36824 0.11316,0.14889 0.24929,0.27073 0.30245,0.27073 0.0531,0 0.21408,0.087 0.35762,0.19328 0.31321,0.23193 0.46209,0.24612 0.46209,0.0427 0,-0.0828 0.0371,-0.17322 0.0827,-0.20139 0.11045,-0.07 0.4564,0.26469 0.4564,0.43949 0,0.076 0.0654,0.17352 0.1455,0.21656 0.11881,0.0632 0.15115,0.1885 0.17631,0.67902 0.0271,0.52727 0.009,0.6329 -0.14442,0.86134 -0.3305,0.49116 -0.41897,1.1153 -0.21395,1.5099 0.0641,0.12326 0.0953,0.29128 0.0697,0.37297 -0.0827,0.26114 0.11612,0.56595 0.66346,1.01801 0.29339,0.2422 0.62883,0.56914 0.7454,0.72671 0.50685,0.68441 1.20185,1.39404 1.50027,1.53144 1.11465,0.51393 1.05975,0.46301 1.54196,1.4248 0.33468,0.66743 0.53445,0.96647 0.81036,1.21223 0.43962,0.39202 0.67966,0.47026 1.63694,0.53385 0.73026,0.0493 1.31334,-0.0603 1.59705,-0.29571 0.0543,-0.0468 0.21124,-0.14256 0.34842,-0.21613 0.16589,-0.0886 0.2575,-0.20073 0.27347,-0.33395 0.0198,-0.16532 0.1005,-0.22892 0.46102,-0.36436 0.24036,-0.0898 0.58157,-0.19115 0.75828,-0.22436 0.5407,-0.1021 1.4128,-1.0784 1.41345,-1.58322 7e-5,-0.17836 0.10036,-0.31503 0.48142,-0.65723 0.98215,-0.88184 1.13616,-1.05712 1.13616,-1.29366 0,-0.30433 -0.18332,-0.54553 -0.4613,-0.60692 -0.12653,-0.0271 -0.25014,-0.0837 -0.27469,-0.12314 -0.11673,-0.18942 -0.65833,-0.36643 -1.28075,-0.41822 -0.46944,-0.0394 -0.68158,-0.0885 -0.71122,-0.16642 -0.0589,-0.15401 -0.64833,-0.40938 -0.94951,-0.41133 -0.13766,0 -0.25031,-0.032 -0.25031,-0.0714 0,-0.0368 -0.0953,-0.10333 -0.21178,-0.14404 -0.17814,-0.0627 -0.24094,-0.16741 -0.39514,-0.65845 -0.28015,-0.8923 -0.86794,-1.40181 -1.588,-1.37635 -0.37119,0.0123 -1.01235,-0.26602 -1.0637,-0.4632 -0.0418,-0.16083 -0.48752,-0.45673 -0.68842,-0.45726 -0.0852,-5e-5 -0.13478,-0.0589 -0.13478,-0.16148 0,-0.10824 -0.0759,-0.19016 -0.23104,-0.24894 -0.12706,-0.0478 -0.23105,-0.12827 -0.23105,-0.17833 0,-0.15086 -0.22992,-0.19091 -0.54739,-0.0951 -0.22791,0.0684 -0.34742,0.0684 -0.49615,0 -0.10775,-0.0496 -0.31164,-0.0898 -0.45301,-0.0898 -0.18111,0 -0.29114,-0.0513 -0.37233,-0.17413 -0.0633,-0.0951 -0.22124,-0.23537 -0.35073,-0.31068 -0.20114,-0.11685 -0.24457,-0.12055 -0.29794,-0.0255 -0.0345,0.0615 -0.16155,0.1363 -0.28267,0.16666 -0.21406,0.0538 -0.21873,0.0487 -0.16718,-0.18717 0.062,-0.28379 0.0278,-0.29217 -0.38277,-0.0942 -0.16943,0.0819 -0.40407,0.18539 -0.52139,0.23108 -0.11734,0.0461 -0.24637,0.17017 -0.28674,0.27667 -0.0405,0.10639 -0.1307,0.28164 -0.20075,0.38875 l -0.12738,0.19521 -0.377,-0.35387 c -0.24492,-0.23006 -0.42359,-0.33999 -0.51009,-0.31436 -0.52264,0.15586 -0.55041,0.15046 -0.8335,-0.15688 -0.46024,-0.49975 -0.51825,-0.67202 -0.47279,-1.40306 l 0.0405,-0.6487 -0.25108,-0.25935 c -0.25612,-0.26475 -0.36516,-0.30746 -0.95207,-0.37243 -0.18354,-0.0207 -0.3476,-0.0512 -0.36455,-0.0674 -0.0452,-0.0452 0.0903,-0.93413 0.24748,-1.62501 0.12546,-0.55128 0.12644,-0.6094 0.0124,-0.72393 -0.11084,-0.11132 -0.15941,-0.11281 -0.45392,-0.0154 -0.28674,0.0964 -0.34556,0.1554 -0.4504,0.45516 -0.17941,0.51283 -0.20589,0.53469 -0.64983,0.53469 -0.49116,0 -0.6961,-0.17933 -1.06867,-0.93513 -0.22207,-0.45023 -0.24612,-0.57106 -0.26677,-1.33905 -0.0175,-0.65327 0.005,-0.88459 0.0939,-1.02293 0.0835,-0.12785 0.1048,-0.29412 0.0749,-0.5858 -0.0498,-0.48394 0.006,-0.57174 0.54082,-0.84938 0.64862,-0.33681 0.7598,-0.33492 1.15524,0.0207 0.0847,0.076 0.2753,0.14988 0.42359,0.16424 0.23358,0.0231 0.26984,0 0.27187,-0.14383 0.005,-0.24211 0.0528,-0.26678 0.41651,-0.20837 0.19894,0.0326 0.44179,0.1509 0.62944,0.30831 0.16803,0.14072 0.35253,0.23795 0.41004,0.21578 0.14387,-0.0546 0.35153,0.26492 0.35153,0.54231 0,0.1257 0.0324,0.33538 0.0718,0.46584 0.0393,0.13041 0.11488,0.38697 0.16761,0.5699 0.0526,0.18274 0.14173,0.39158 0.19775,0.46371 0.0952,0.12276 0.10948,0.12154 0.21748,-0.0195 0.1492,-0.19376 0.14696,-0.45491 -0.0123,-1.37425 -0.16509,-0.95605 -0.0905,-1.24154 0.44059,-1.68794 0.19952,-0.16764 0.39857,-0.3047 0.44242,-0.3047 0.12749,0 0.55359,-0.39003 0.55359,-0.50679 0,-0.058 0.0705,-0.1442 0.15648,-0.19042 0.14605,-0.0777 0.15308,-0.13135 0.10518,-0.79492 l -0.0514,-0.71088 0.17231,0.21538 c 0.1366,0.17092 0.19456,0.19695 0.27991,0.1258 0.0591,-0.0496 0.10763,-0.18591 0.10763,-0.30359 0,-0.1597 0.0455,-0.22552 0.17944,-0.25926 0.0988,-0.0248 0.24513,-0.16772 0.32558,-0.3175 0.10123,-0.18884 0.1999,-0.27256 0.32116,-0.27256 0.0963,0 0.17502,-0.0351 0.17502,-0.0769 0,-0.0427 -0.0346,-0.0769 -0.077,-0.0769 -0.0424,0 -0.0771,-0.0326 -0.0771,-0.0734 0,-0.0401 0.15928,-0.11832 0.35393,-0.17378 0.30618,-0.0878 0.36738,-0.14046 0.45328,-0.39188 0.13609,-0.39813 0.2175,-0.47968 0.59722,-0.5973 0.18063,-0.0554 0.39171,-0.17335 0.46909,-0.26074 0.14293,-0.16107 0.6687,-0.3837 0.73925,-0.31297 0.0212,0.0223 -0.0915,0.15843 -0.25061,0.30477 -0.24643,0.22657 -0.27694,0.28892 -0.20625,0.42139 0.11183,0.20973 0.31978,0.19597 0.57086,-0.0375 0.11415,-0.1064 0.25584,-0.19329 0.31461,-0.19329 0.0587,0 0.26554,-0.13773 0.45945,-0.30633 0.1939,-0.16839 0.40046,-0.2878 0.45899,-0.26526 0.1607,0.0624 0.24203,-0.13247 0.0909,-0.21724 -0.0837,-0.0479 -0.11304,-0.12573 -0.0827,-0.22177 0.0731,-0.23119 -0.0686,-0.17532 -0.22372,0.0878 -0.14354,0.2439 -0.39764,0.38899 -0.56752,0.32411 -0.14242,-0.0538 -0.11673,-0.23579 0.0387,-0.27262 0.10234,-0.0247 0.0854,-0.0461 -0.0705,-0.0897 -0.32511,-0.0908 -0.48337,-0.72088 -0.24716,-0.98281 0.0649,-0.0726 0.10677,-0.2123 0.0927,-0.31146 -0.0226,-0.15987 -0.0658,-0.17983 -0.37973,-0.17617 -0.27304,0 -0.43078,0.0607 -0.68772,0.25022 -0.39758,0.29362 -0.53422,0.25357 -0.14936,-0.0444 0.14697,-0.11353 0.36261,-0.30669 0.47924,-0.42946 l 0.21205,-0.22328 0.89548,0.0487 0.89548,0.0495 0.27875,-0.30096 c 0.15331,-0.16533 0.3654,-0.32692 0.47127,-0.3588 0.48233,-0.14531 0.61051,-0.56867 0.26959,-0.89002 -0.10591,-0.0996 -0.19254,-0.22119 -0.19254,-0.26977 0,-0.0487 -0.13863,-0.16634 -0.30807,-0.26192 -0.16943,-0.0953 -0.30808,-0.20388 -0.30808,-0.24066 0,-0.0368 -0.0433,-0.11292 -0.0963,-0.16925 -0.26975,-0.28719 -0.30835,-0.37175 -0.21892,-0.47977 0.066,-0.0795 0.0669,-0.19401 0.005,-0.4445 -0.0466,-0.18543 -0.10221,-0.42404 -0.12366,-0.53043 -0.0217,-0.1064 -0.0702,-0.2628 -0.10848,-0.3478 -0.0383,-0.0848 -0.0616,-0.22044 -0.052,-0.30085 0.03,-0.25252 -0.13331,-0.2142 -0.28392,0.067 -0.0795,0.14793 -0.20932,0.32802 -0.28866,0.40018 -0.13672,0.12414 -0.15624,0.11944 -0.37395,-0.09 -0.2535,-0.24377 -0.27182,-0.33476 -0.14075,-0.69857 0.0984,-0.27317 0.0824,-0.32556 -0.23279,-0.76107 -0.20439,-0.28244 -0.24537,-0.30268 -0.6503,-0.32064 -0.41737,-0.019 -0.43747,-0.01 -0.58592,0.24236 -0.0846,0.14372 -0.19057,0.39861 -0.23555,0.56645 -0.0455,0.16929 -0.16874,0.36852 -0.27712,0.44771 -0.18714,0.13688 -0.1914,0.15733 -0.10221,0.49157 0.17308,0.64944 -0.0633,1.17582 -0.71335,1.58753 -0.24286,0.15399 -0.29527,0.23135 -0.29562,0.43736 -2.4e-4,0.5521 -0.2657,1.13907 -0.51376,1.13907 -0.17618,0 -0.30312,-0.37032 -0.18951,-0.55289 0.0689,-0.11047 0.0729,-0.18327 0.0145,-0.25383 -0.0585,-0.0717 -0.0487,-0.19292 0.034,-0.42878 0.16405,-0.4667 0.14879,-0.53636 -0.14441,-0.65942 -0.31253,-0.13105 -0.66386,-0.52852 -0.66386,-0.75109 0,-0.0879 -0.13588,-0.29045 -0.30194,-0.44894 -0.27907,-0.26643 -0.29728,-0.30921 -0.24011,-0.56351 0.0443,-0.19714 0.0308,-0.32005 -0.048,-0.43269 -0.0799,-0.11452 -0.0884,-0.19759 -0.0315,-0.30443 0.13709,-0.25705 0.84735,-0.84672 1.26996,-1.05418 0.22455,-0.11034 0.50629,-0.30311 0.62607,-0.4287 0.13423,-0.14063 0.2963,-0.22804 0.42247,-0.22804 0.27949,0 0.51719,-0.2625 0.38381,-0.42382 -0.0665,-0.0804 -0.07,-0.11734 -0.01,-0.11734 0.0475,0 0.0866,0.0349 0.0866,0.0772 0,0.0422 0.0521,0.0774 0.1155,0.0774 0.17351,0 0.14195,0.0953 -0.14209,0.43071 -0.34104,0.40209 -0.24595,0.69858 0.11808,0.36787 0.13296,-0.12067 0.14863,-0.11992 0.24468,0.011 0.27006,0.37076 0.34017,-0.29271 0.0756,-0.71589 -0.12767,-0.20432 -0.0795,-0.32641 0.12908,-0.32641 0.20264,0 0.94683,-0.30147 1.01685,-0.41194 0.0313,-0.0495 0.0577,-0.15362 0.0586,-0.2309 4.6e-4,-0.0774 0.0907,-0.25807 0.20005,-0.40217 0.12746,-0.16773 0.18208,-0.3149 0.15207,-0.40972 -0.0407,-0.12866 0.004,-0.15479 0.34273,-0.19991 0.21427,-0.0285 0.42551,-0.0299 0.46939,0 0.0439,0.0278 0.0702,0.18158 0.0587,0.34313 -0.0111,0.16149 0.0239,0.34788 0.0785,0.41414 0.14637,0.17691 0.0424,0.52336 -0.26469,0.88374 -0.14757,0.17296 -0.26541,0.39614 -0.26541,0.50255 0,0.17408 -0.0383,0.19619 -0.42307,0.24445 -0.30675,0.0379 -0.45493,0.0984 -0.53911,0.21934 -0.19487,0.27924 -0.15048,0.39057 0.13425,0.33657 0.56377,-0.10689 0.54817,-0.11365 0.67891,0.29787 0.11489,0.36163 0.14215,0.38934 0.4247,0.4328 0.16607,0.0255 0.39722,0.0731 0.5137,0.10479 0.27676,0.0762 0.28466,-0.0911 0.0193,-0.40765 -0.10591,-0.1263 -0.19254,-0.25015 -0.19254,-0.27512 0,-0.0247 0.15418,-0.0247 0.34264,0 0.32332,0.0444 0.3455,0.0349 0.39418,-0.15918 0.0345,-0.13786 0.0123,-0.25009 -0.0673,-0.3385 -0.0654,-0.073 -0.13015,-0.2352 -0.1439,-0.36125 -0.0373,-0.34138 0.18191,-0.34478 0.36382,-0.01 0.0807,0.15048 0.1845,0.27351 0.23061,0.27351 0.0461,0 0.16173,-0.1391 0.25696,-0.30917 0.0953,-0.17 0.20189,-0.30923 0.23699,-0.30923 0.035,0 0.0845,-0.0539 0.10985,-0.12031 0.0324,-0.0847 -0.022,-0.14397 -0.18117,-0.19971 -0.12492,-0.0436 -0.24819,-0.14617 -0.27397,-0.22755 -0.0256,-0.0817 -0.0973,-0.14815 -0.15883,-0.14815 -0.15884,0 -0.30875,-0.3535 -0.2039,-0.48082 0.0448,-0.0538 0.1059,-0.2303 0.13578,-0.39069 0.0448,-0.24107 0.0193,-0.34509 -0.14715,-0.59751 -0.11083,-0.16805 -0.20148,-0.39036 -0.20148,-0.49402 0,-0.10381 -0.043,-0.20287 -0.0953,-0.22043 -0.0758,-0.0255 -0.0754,-0.0762 4.6e-4,-0.24413 0.12435,-0.27387 0.0769,-0.3397 -0.24475,-0.3397 -0.14443,0 -0.36128,-0.0227 -0.48193,-0.0473 -0.32917,-0.0721 -1.07701,0.49432 -1.18548,0.89862 -0.054,0.20142 -0.0534,0.3403 4.7e-4,0.44377 0.0632,0.11845 0.0427,0.20614 -0.0934,0.40689 -0.17667,0.26014 -0.84368,0.91176 -0.93332,0.91176 -0.11366,0 -0.0366,-0.29652 0.11206,-0.43152 0.0886,-0.0806 0.19653,-0.21281 0.23979,-0.29389 0.0678,-0.12726 0.0562,-0.14152 -0.0842,-0.10493 -0.27021,0.0714 -0.21969,-0.33526 0.0682,-0.54888 0.18723,-0.13887 0.23106,-0.22797 0.23106,-0.46942 0,-0.2314 0.0423,-0.32586 0.18981,-0.42293 0.10444,-0.0693 0.26209,-0.12481 0.3504,-0.12481 0.26475,0 0.62769,-0.22579 0.59757,-0.37169 -0.0202,-0.0984 -0.0975,-0.12654 -0.31285,-0.11378 -0.15722,0.01 -0.28585,-0.0168 -0.28585,-0.0583 0,-0.13418 -0.30613,-0.0795 -0.44143,0.0795 -0.0726,0.0846 -0.2096,0.1546 -0.30462,0.1546 -0.18606,0 -0.33217,0.20176 -0.33217,0.45863 0,0.11256 0.0496,0.15966 0.16789,0.15966 0.14319,0 0.11957,0.0415 -0.16075,0.28244 -0.24537,0.21083 -0.32036,0.3259 -0.29591,0.45435 0.0341,0.17932 -0.27551,0.54457 -0.61108,0.72097 -0.2297,0.12054 -0.25537,0.11316 -0.25537,-0.0741 0,-0.12523 -0.0312,-0.14984 -0.13477,-0.10615 -0.47386,0.19997 -0.72044,0.0552 -0.67972,-0.40063 0.0297,-0.33105 0.26118,-0.5226 0.3269,-0.27029 0.0637,0.24476 0.22679,0.25452 0.56258,0.034 0.20905,-0.13741 0.31009,-0.26006 0.31009,-0.37659 0,-0.0952 0.17629,-0.3844 0.39175,-0.64326 0.26893,-0.32305 0.35267,-0.47055 0.26713,-0.47055 -0.18385,0 -0.22786,-0.19989 -0.0882,-0.4001 0.13937,-0.19979 0.1592,-0.41829 0.0443,-0.48948 -0.0855,-0.0531 -1.4324,0.53634 -1.61285,0.70569 -0.0974,0.0911 -0.0925,0.12018 0.0387,0.22173 0.14828,0.11503 0.14831,0.11846 0.002,0.23144 -0.14573,0.11305 -0.14573,0.1171 0,0.28002 l 0.14784,0.16524 -0.31025,-0.0517 c -0.26298,-0.0443 -0.33544,-0.0248 -0.47564,0.12584 -0.0909,0.0973 -0.18822,0.27013 -0.21613,0.38309 -0.0407,0.16505 -0.0192,0.21534 0.10984,0.25647 0.22327,0.0721 0.20049,0.25765 -0.0452,0.36995 -0.16246,0.0742 -0.21236,0.0742 -0.23746,0 -0.0175,-0.0531 -0.0962,-0.0952 -0.17486,-0.0952 -0.23229,0 -0.25393,-0.14664 -0.0362,-0.24613 0.1564,-0.0721 0.19181,-0.13128 0.15802,-0.2665 -0.024,-0.0963 -0.005,-0.26213 0.0452,-0.36962 0.0654,-0.1443 0.0662,-0.2226 0.002,-0.29962 -0.0644,-0.0783 -0.0583,-0.14407 0.0246,-0.26262 0.14723,-0.21098 0.084,-0.25612 -0.35888,-0.25612 -0.20474,0 -0.37225,-0.0168 -0.37225,-0.0371 0,-0.0633 0.47192,-0.91776 0.63062,-1.14221 0.13149,-0.18608 0.13537,-0.21868 0.0309,-0.25895 -0.066,-0.0255 -0.28238,0.01 -0.48129,0.0774 -0.19895,0.0677 -0.42786,0.12364 -0.50873,0.12364 -0.0809,0 -0.36063,0.11784 -0.62166,0.26169 -0.26102,0.14387 -0.51405,0.24667 -0.56223,0.22833 -0.10948,-0.0414 -0.63093,0.30212 -0.83655,0.55144 -0.0847,0.10271 -0.40697,0.28993 -0.71609,0.41604 -0.3442,0.1404 -0.52606,0.18574 -0.46915,0.11686 0.17699,-0.21409 1.61427,-1.11554 1.85588,-1.16402 0.13348,-0.0278 0.43576,-0.16266 0.67169,-0.30188 0.59756,-0.35249 1.5548,-0.812 2.23917,-1.07463 0.31769,-0.12202 0.63207,-0.26742 0.69865,-0.32308 0.3148,-0.26323 2.27041,-0.81309 3.76803,-1.05935 1.7326,-0.285 3.98906,-0.36476 5.63323,-0.19929 1.00427,0.10173 1.06132,0.11845 1.01172,0.30894 -0.0333,0.12758 -9e-5,0.15196 0.20719,0.15196 0.65238,0 3.73951,0.82802 4.04553,1.08506 0.15865,0.13333 1.2331,0.60361 1.7617,0.7712 0.16412,0.0517 0.31396,0.15434 0.33302,0.22734 0.0188,0.073 0.18799,0.20763 0.37547,0.29903 0.18748,0.0911 0.34087,0.1967 0.34087,0.23398 0,0.0371 0.10493,0.2002 0.23324,0.36216 0.15326,0.1935 0.20385,0.31281 0.14754,0.34781 -0.10714,0.0654 0.27692,0.38388 0.46443,0.38388 0.0722,0 0.17074,0.0867 0.21902,0.19319 0.10652,0.2348 0.0423,0.24678 -0.18327,0.034 -0.20045,-0.18914 -0.77324,-0.35186 -1.4832,-0.42136 -0.28298,-0.0278 -0.6275,-0.10173 -0.76562,-0.16424 -0.29679,-0.13441 -0.4035,-0.0889 -0.4035,0.17197 0,0.38603 0.50907,1.26831 0.73185,1.26831 0.11759,0 0.55821,0.49208 0.76712,0.85689 0.27289,0.47652 0.44877,0.95274 0.51133,1.38488 0.0338,0.23378 0.0788,0.5378 0.10014,0.6758 0.0431,0.27999 0.39735,0.77096 0.60435,0.83732 0.0741,0.0247 0.1352,0.0847 0.13573,0.13467 4.5e-4,0.14245 0.60823,0.76345 0.71359,0.73027 0.0517,-0.0169 0.14369,-0.14064 0.20428,-0.27618 0.12653,-0.28334 0.25841,-0.31301 0.41211,-0.0931 0.0591,0.0846 0.25163,0.2587 0.42794,0.38693 0.31777,0.23095 0.38444,0.39742 0.24677,0.61597 -0.0579,0.092 -0.0854,0.0772 -0.14584,-0.0774 -0.0407,-0.1048 -0.14262,-0.24763 -0.22605,-0.31719 -0.0834,-0.0691 -0.16666,-0.17139 -0.1849,-0.22626 -0.0183,-0.0554 -0.0743,-0.0741 -0.12482,-0.0423 -0.11145,0.0691 -0.12118,0.32962 -0.0148,0.3957 0.0424,0.0261 0.0775,0.10664 0.0781,0.1785 2.5e-4,0.0721 0.1912,0.35512 0.42358,0.62956 0.23238,0.27429 0.4225,0.55525 0.4225,0.62416 0,0.0693 -0.0897,0.20975 -0.19951,0.31277 -0.17616,0.16551 -0.19411,0.22882 -0.15325,0.54038 0.0401,0.307 0.0219,0.37598 -0.14095,0.52953 -0.14794,0.13947 -0.17868,0.22941 -0.14647,0.42882 0.0469,0.29003 -0.0807,0.5825 -0.25431,0.5825 -0.0923,0 -0.10751,0.0529 -0.0679,0.23325 0.0467,0.21349 0.0273,0.24303 -0.22998,0.35089 -0.36013,0.15108 -0.3338,0.3293 0.0795,0.53606 0.51219,0.25662 0.99488,0.79472 1.1037,1.23044 0.12366,0.49516 0.0722,0.53912 -0.77313,0.6599 -0.52481,0.0751 -0.70326,0.13415 -0.83704,0.27701 l -0.17005,0.18176 0.17911,0.37106 c 0.11624,0.24107 0.19724,0.58875 0.23073,0.99039 0.0283,0.3404 0.10493,0.758 0.17014,0.92805 0.11084,0.28907 0.13855,0.30906 0.42493,0.30906 0.19422,0 0.36629,0.0538 0.47006,0.14885 0.16163,0.14688 0.16632,0.14678 0.3754,-0.01 0.1165,-0.087 0.28963,-0.18171 0.38484,-0.21223 0.29273,-0.0931 0.65313,-1.09969 0.52317,-1.46077 -0.0633,-0.17585 -0.0428,-0.31273 0.10357,-0.69592 0.10038,-0.2621 0.18594,-0.65065 0.19034,-0.86312 0.009,-0.47766 0.0722,-0.57989 0.35277,-0.57989 0.18996,0 0.23828,-0.0478 0.35246,-0.34784 0.0728,-0.19139 0.179,-0.34774 0.23594,-0.34774 0.0571,0 0.23183,0.17234 0.38862,0.38309 0.17948,0.24134 0.44383,0.47023 0.71388,0.61815 0.61607,0.33739 0.69119,0.41016 0.85346,0.82709 0.0802,0.20591 0.15108,0.3398 0.15753,0.2972 0.0303,-0.19976 -0.0195,-0.55817 -0.10037,-0.71967 -0.0684,-0.13665 -0.0676,-0.21375 0.005,-0.32751 0.0816,-0.13108 0.0582,-0.17065 -0.19623,-0.33082 -0.15885,-0.10063 -0.35814,-0.21987 -0.44286,-0.26585 -0.30711,-0.16672 -0.94291,-0.83472 -0.99218,-1.04223 -0.0278,-0.11686 -0.0368,-0.21268 -0.02,-0.21268 0.12599,0 0.57797,0.24768 0.61132,0.3348 0.0229,0.0597 0.26809,0.21511 0.54506,0.34509 0.41146,0.19319 0.52483,0.28762 0.61988,0.51607 0.064,0.15355 0.27021,0.47789 0.45829,0.72053 0.1881,0.24279 0.35428,0.51043 0.36931,0.59496 0.0149,0.0846 0.0875,0.16527 0.16118,0.17953 0.11281,0.0231 0.13391,-0.034 0.13391,-0.36235 0,-0.2463 -0.0383,-0.41105 -0.10505,-0.45008 -0.18473,-0.10874 -0.32956,-0.51118 -0.28433,-0.79011 0.048,-0.29625 0.20997,-0.40281 0.28345,-0.18633 0.0264,0.0786 0.16475,0.39436 0.30733,0.70335 0.32226,0.6983 0.52029,0.823 0.83799,0.52743 0.11846,-0.11021 0.24102,-0.20027 0.2723,-0.20027 0.0915,0 0.28618,0.68295 0.38888,1.36393 0.0937,0.62094 0.0923,0.63418 -0.1075,0.97656 -0.24579,0.42084 -0.33826,0.46124 -0.90853,0.39641 -0.43583,-0.0496 -0.44679,-0.0452 -0.49729,0.15602 -0.0283,0.11354 -0.0292,0.34768 -4.6e-4,0.52052 0.0867,0.54376 -0.23958,0.69474 -0.72467,0.33564 -0.1501,-0.1112 -0.36549,-0.1932 -0.50702,-0.1932 -0.36265,0 -0.60727,-0.23337 -0.62117,-0.59249 -0.006,-0.16322 -0.0368,-0.46211 -0.0679,-0.66485 -0.0461,-0.30146 -0.09,-0.37669 -0.24192,-0.41496 -0.11181,-0.0275 -0.23784,0 -0.31719,0.0648 -0.0726,0.0615 -0.44936,0.2617 -0.83766,0.44393 -0.59307,0.27889 -0.76474,0.40318 -1.07327,0.77789 -0.39587,0.48091 -0.77805,0.66794 -1.18271,0.57876 -0.21258,-0.047 -0.21766,-0.0393 -0.29963,0.42736 -0.0636,0.36234 -0.14544,0.544 -0.34507,0.76577 -0.29492,0.3275 -0.40255,0.7851 -0.31797,1.35129 0.0681,0.4551 -0.0604,0.81672 -0.46794,1.319 -0.3628,0.44716 -0.57824,0.83632 -0.72762,1.31501 -0.053,0.16994 -0.142,0.41349 -0.19759,0.541 -0.41714,0.95741 -0.51068,1.28733 -0.42434,1.49657 0.17163,0.41579 0.0988,1.90995 -0.11366,2.33072 -0.16309,0.32325 -0.0538,0.91447 0.23593,1.27461 0.13677,0.16994 0.32943,0.53521 0.42806,0.8114 0.14086,0.39468 0.27094,0.58932 0.60615,0.9066 0.524,0.49635 0.73014,0.54203 1.05969,0.2352 0.094,-0.0878 0.33655,-0.18543 0.53911,-0.21789 0.22101,-0.034 0.5685,-0.18556 0.8689,-0.37584 0.2753,-0.17429 0.55258,-0.34004 0.61609,-0.36822 0.0636,-0.0281 0.21562,-0.13427 0.33796,-0.23554 0.29059,-0.2405 0.53968,-0.2078 0.5721,0.0751 0.0275,0.23895 0.13399,0.26678 0.37383,0.0984 0.13687,-0.0963 0.17683,-0.0973 0.24983,-0.01 0.10592,0.12812 0.051,0.29027 -0.41405,1.22165 -0.28109,0.56288 -0.32907,0.72317 -0.2943,0.98332 0.0911,0.68267 -0.50278,1.69227 -1.77958,3.02444 -0.47061,0.49092 -1.13314,1.18948 -1.4723,1.55234 -0.44782,0.47937 -0.89587,0.84653 -1.63658,1.34165 -0.56096,0.37529 -1.01991,0.70606 -1.01991,0.7352 0,0.0295 0.16189,0.13655 0.35976,0.23888 0.19785,0.10211 0.47829,0.28021 0.62322,0.39584 -11.58643,4.64267 -19.76977,-0.0123 -21.6056,-1.21174 z m 5.52722,-11.17248 c 0,-0.086 -0.23,-0.16438 -0.31874,-0.10936 -0.11119,0.0684 0.0791,0.26261 0.20886,0.2125 0.0604,-0.023 0.10984,-0.0684 0.10984,-0.1027 z m -1.30296,-0.15449 c 0.28879,0 0.37875,-0.0275 0.37875,-0.11847 0,-0.0657 -0.0607,-0.14175 -0.13476,-0.17027 -0.0742,-0.0281 -0.24919,-0.12947 -0.389,-0.22469 -0.17221,-0.11724 -0.34614,-0.16664 -0.53912,-0.15321 -0.26257,0.0195 -0.28301,0.0375 -0.26122,0.23681 0.0229,0.21035 0.0153,0.21512 -0.25841,0.16355 -0.21554,-0.0401 -0.27406,-0.0299 -0.24826,0.0487 0.0187,0.0555 0.19886,0.12546 0.40071,0.15439 0.2018,0.0281 0.38774,0.0743 0.41313,0.0995 0.0255,0.0255 0.0942,0.0275 0.15282,0.01 0.0587,-0.023 0.27704,-0.0401 0.48536,-0.0401 z m -2.20448,-0.14936 c 0.0559,-0.0906 -0.25519,-0.31453 -0.43748,-0.31453 -0.17049,0 -0.17297,0.0632 -0.009,0.24516 0.13616,0.15102 0.37388,0.18781 0.4469,0.0684 z m 0.64187,-0.85604 c -0.0339,-0.0889 -1.0733,-0.92851 -1.29326,-1.04499 -0.10578,-0.0546 -0.25124,-0.1723 -0.32303,-0.25842 -0.13161,-0.15787 -0.64452,-0.33672 -0.96955,-0.33798 -0.20995,0 -0.51109,0.24884 -0.41563,0.34464 0.0375,0.0377 0.17001,0.01 0.30381,-0.0682 l 0.23705,-0.13647 0.38357,0.3246 c 0.21098,0.17859 0.46979,0.36409 0.57515,0.41232 0.10543,0.0487 0.2315,0.16199 0.28022,0.25297 0.2913,0.54415 0.29924,0.55099 0.67619,0.59242 0.39381,0.0435 0.58198,0.0173 0.54548,-0.0795 z m 25.7619,-10.08567 c -0.0206,-0.27996 -0.0428,-0.29457 -0.28237,-0.18517 -0.24824,0.11354 -0.2592,0.24885 -0.0292,0.3597 0.24544,0.11846 0.32969,0.0709 0.31154,-0.17453 z m 1.82562,0.0375 c 0,-0.0427 -0.0519,-0.0769 -0.1155,-0.0769 -0.0636,0 -0.1155,0.035 -0.1155,0.0769 0,0.0428 0.0522,0.0769 0.1155,0.0769 0.0636,0 0.1155,-0.0339 0.1155,-0.0769 z m -3.06878,-0.5815 c -0.0415,-0.34332 -0.15166,-0.57782 -0.27124,-0.57782 -0.18159,0 -0.19666,0.19003 -0.0424,0.53587 0.16381,0.36716 0.35615,0.39302 0.31366,0.0427 z m -0.3981,-0.98372 c -2.4e-4,-0.26705 -0.12483,-0.42623 -0.23998,-0.31068 -0.0715,0.0726 -0.0729,0.1397 -0.005,0.28934 0.10996,0.24219 0.24646,0.25424 0.24486,0.023 z m -16.4417,-0.13511 c 0.0526,-0.0845 -0.17317,-0.53382 -0.33152,-0.65905 -0.0554,-0.0444 -0.11046,-0.14825 -0.12238,-0.23216 -0.0157,-0.10924 -0.0921,-0.15948 -0.26967,-0.17699 -0.13633,-0.0127 -0.26687,-0.0743 -0.29018,-0.13535 -0.0232,-0.0607 -0.0906,-0.1107 -0.14959,-0.1107 -0.13927,0 -0.13345,-0.22937 0.01,-0.4204 0.14305,-0.19002 0.14217,-0.24761 -0.005,-0.30394 -0.12871,-0.0495 -0.42069,0.35527 -0.42118,0.58395 -1.7e-4,0.15781 -0.1064,0.40916 -0.30385,0.72018 -0.25122,0.39547 -0.2192,0.42513 0.45999,0.42513 0.47538,0 0.62867,0.0264 0.66234,0.11464 0.0324,0.0845 0.08,0.0953 0.18505,0.0375 0.19146,-0.1027 0.20449,-0.0984 0.25075,0.0795 0.0422,0.1619 0.24262,0.20975 0.32414,0.0769 z m -2.88799,-0.97971 c 0,-0.11279 -0.26298,-0.33452 -0.397,-0.33452 -0.19217,0 -0.17909,0.11981 0.0291,0.26613 0.17659,0.12425 0.36793,0.15969 0.36793,0.07 z m 15.51861,-2.07728 c 0.21177,-0.11943 0.39869,-0.22758 0.41532,-0.24032 0.0165,-0.0123 -0.0134,-0.0751 -0.0664,-0.13978 -0.0531,-0.0649 -0.0765,-0.16969 -0.0515,-0.23445 0.065,-0.16993 -0.0804,-0.50276 -0.21957,-0.50276 -0.19226,0 -1.65652,-1.31038 -1.65652,-1.48242 0,-0.2846 -0.15056,-0.4613 -0.37109,-0.43561 -0.17522,0.0204 -0.21021,-0.01 -0.2309,-0.18835 -0.0171,-0.15022 -0.0681,-0.21256 -0.17328,-0.21256 -0.11919,0 -0.14891,0.0552 -0.14891,0.27313 0,0.30912 0.33204,1.02536 0.50656,1.09253 0.0633,0.0248 0.16777,0.14635 0.23194,0.27095 0.0809,0.15691 0.15719,0.21356 0.24877,0.18432 0.0788,-0.0247 0.21677,0.0371 0.34256,0.15371 0.24452,0.22763 0.26017,0.3087 0.0791,0.41039 -0.11157,0.0633 -0.11735,0.10467 -0.0387,0.27793 0.051,0.11244 0.0928,0.28586 0.0928,0.38574 0,0.0995 0.0546,0.2024 0.12141,0.22801 0.0845,0.0326 0.11735,0.13512 0.108,0.33677 -0.0202,0.44165 -0.0137,0.44911 0.21336,0.23747 0.11649,-0.10862 0.38506,-0.29522 0.59686,-0.4147 z m -1.76286,0.13751 c 0.0469,-0.0316 0.14558,-0.17422 0.21895,-0.31796 0.12725,-0.24912 0.12688,-0.276 -0.008,-0.57593 -0.0777,-0.17293 -0.13024,-0.38007 -0.11673,-0.46035 0.0333,-0.19701 -0.20094,-0.44167 -0.42282,-0.44167 -0.17641,0 -0.21135,0.0604 -0.18581,0.32168 0.008,0.0706 -0.0238,0.15095 -0.0681,0.17842 -0.13323,0.0827 -0.0913,0.39398 0.0731,0.54351 0.1021,0.0931 0.15404,0.23799 0.15404,0.43059 0,0.25012 0.0631,0.35218 0.23102,0.37371 0.0212,0 0.0771,-0.0213 0.12405,-0.0513 z m -8.8238,-3.09072 c 0.0291,-0.57178 0.0973,-1.05892 0.1993,-1.42353 0.0713,-0.25447 0.10702,-0.56807 0.0824,-0.72045 -0.0354,-0.21841 -0.0123,-0.29215 0.12251,-0.38663 0.0915,-0.0648 0.24558,-0.11686 0.34265,-0.11686 0.13859,0 0.21509,-0.0868 0.35671,-0.40582 0.0991,-0.22314 0.20097,-0.46513 0.22626,-0.53752 0.0252,-0.0721 0.17974,-0.20035 0.34324,-0.28406 0.42963,-0.21998 0.72771,-0.67937 0.66159,-1.01963 -0.0485,-0.24918 -0.11548,-0.36124 -0.54702,-0.91534 -0.0953,-0.12239 -0.17329,-0.27996 -0.17329,-0.35006 0,-0.20472 -0.34803,-0.80356 -0.56801,-0.97721 -0.11121,-0.0878 -0.20216,-0.19624 -0.20216,-0.24125 0,-0.0452 -0.1477,-0.22494 -0.32822,-0.40015 -0.18049,-0.17512 -0.50877,-0.51862 -0.72943,-0.76307 -0.24956,-0.27639 -0.46342,-0.4444 -0.56562,-0.4444 -0.0904,0 -0.26731,-0.0868 -0.39317,-0.19331 -0.28128,-0.23759 -0.34072,-0.24066 -0.39803,-0.0204 -0.0357,0.13673 -0.0646,0.15283 -0.13992,0.0774 -0.15077,-0.15129 -0.3365,-0.11576 -1.12852,0.21648 -0.72726,0.305 -1.26792,0.7006 -1.20005,0.8781 0.0649,0.17014 -0.41074,0.37319 -0.74233,0.31692 -0.28666,-0.0487 -0.30489,-0.0399 -0.30489,0.13895 0,0.19808 -0.19569,0.42527 -0.28719,0.33353 -0.0289,-0.0285 -0.0141,-0.15451 0.0325,-0.2788 0.0737,-0.19597 0.066,-0.23239 -0.0584,-0.27189 -0.0788,-0.0247 -0.21402,-0.011 -0.30033,0.0377 -0.12661,0.0678 -0.15694,0.0604 -0.15694,-0.0357 0,-0.0899 -0.0489,-0.10788 -0.19255,-0.0713 -0.1465,0.0371 -0.19253,0.0182 -0.19253,-0.0774 0,-0.14998 0.34655,-0.29966 0.54637,-0.23605 0.0775,0.0248 0.21896,0 0.3143,-0.0481 l 0.17333,-0.0931 -0.18503,-0.0691 c -0.18052,-0.0669 -0.36363,-0.048 -0.938,0.0995 -0.21921,0.0561 -0.31805,0.14222 -0.44643,0.38942 -0.0907,0.17456 -0.14428,0.33818 -0.11907,0.36343 0.0252,0.0255 0.23474,0.0458 0.4657,0.0458 0.33687,0 0.41991,0.0248 0.41991,0.12599 0,0.16291 0.27383,0.41242 0.38022,0.34635 0.045,-0.0278 0.0818,-0.0123 0.0818,0.0325 0,0.0995 0.23576,0.19444 0.63653,0.25715 0.23446,0.0371 0.33023,0.01 0.50058,-0.13784 0.17368,-0.15106 0.19301,-0.2012 0.11008,-0.28526 -0.0552,-0.056 -0.17661,-0.1016 -0.26956,-0.1016 -0.093,0 -0.169,-0.035 -0.169,-0.0772 0,-0.0869 0.0958,-0.09 0.52698,-0.0182 0.2468,0.0415 0.32348,0.019 0.4621,-0.12915 0.14849,-0.15952 0.59132,-0.43259 0.70146,-0.43259 0.10123,0 0.0305,0.37443 -0.0786,0.41647 -0.0714,0.0278 -0.11084,0.11575 -0.0963,0.21535 0.0209,0.14339 0.076,0.1695 0.36648,0.17424 0.4907,0.011 0.64623,0.29065 0.65382,1.18832 0.005,0.58439 0.0218,0.66007 0.15167,0.67927 0.18601,0.0278 0.38682,0.22591 0.32693,0.32322 -0.0252,0.0401 -0.12644,0.0582 -0.22504,0.0401 -0.13637,-0.026 -0.20127,0.0145 -0.27136,0.16869 -0.11612,0.25571 -0.11736,0.4487 -0.005,0.56313 0.12471,0.12525 0.37326,-0.0226 0.37326,-0.22016 0,-0.0857 0.0346,-0.13482 0.0771,-0.10873 0.16161,0.10062 0.0791,0.55594 -0.15405,0.85036 -0.30125,0.38049 -0.31629,0.87439 -0.0424,1.39139 0.10369,0.19583 0.17063,0.40287 0.14867,0.46034 -0.0495,0.1292 0.24832,0.73097 0.38825,0.78487 0.0563,0.0226 0.16474,0.17818 0.24097,0.34781 0.10171,0.22631 0.18108,0.30508 0.29843,0.29611 0.2788,-0.0227 0.33973,1.7e-4 0.55226,0.19794 0.20784,0.19328 0.33668,0.24423 0.34225,0.13528 z m 1.76839,-5.07997 c 0,-0.0691 0.0452,-0.0963 0.11551,-0.0691 0.0636,0.0248 0.11551,0.0751 0.11551,0.11341 0,0.0371 -0.0521,0.0691 -0.11551,0.0691 -0.0636,0 -0.11551,-0.0509 -0.11551,-0.1134 z m -4.69791,-2.97862 c 0,-0.0838 0.41734,-0.38628 0.53173,-0.38628 0.10701,0 0.11071,0.20638 0.005,0.27203 -0.15968,0.0984 -0.53661,0.17938 -0.53661,0.11427 z m 7.51155,5.83886 c 0.36021,-0.36153 0.36102,-0.64658 4.7e-4,-0.92101 -0.14543,-0.11131 -0.29609,-0.20241 -0.33477,-0.20241 -0.11255,0 -0.58937,0.25057 -0.64912,0.34112 -0.038,0.0575 -0.084,0.0531 -0.1502,-0.0137 -0.15576,-0.15637 -0.29587,-0.11022 -0.29587,0.0974 0,0.10628 0.0346,0.19323 0.077,0.19323 0.0424,0 0.0771,0.0379 0.0771,0.0837 0,0.13661 0.4391,0.53519 0.59094,0.53643 0.0775,1.7e-4 0.19268,0.035 0.25624,0.0762 0.15335,0.0995 0.12398,0.11255 0.42612,-0.19065 z m -10.13007,-1.66462 c 0,-0.0422 -0.0522,-0.0774 -0.11551,-0.0774 -0.0636,0 -0.1155,0.0349 -0.1155,0.0774 0,0.0438 0.052,0.0772 0.1155,0.0772 0.0636,0 0.11551,-0.0348 0.11551,-0.0772 z m -2.50739,-1.09921 c 0.16323,-0.23401 0.15113,-0.29218 -0.0608,-0.29218 -0.20571,0 -0.47616,0.25807 -0.40004,0.38171 0.0859,0.13945 0.33469,0.091 0.46075,-0.09 z m 3.72475,-3.0797 c 0.10185,-0.16365 0.0596,-0.45891 -0.0654,-0.45891 -0.11648,0 -0.3247,0.37699 -0.27701,0.50178 0.0632,0.16485 0.22599,0.14456 0.34258,-0.0422 z m 11.60183,0.0942 c -0.0775,-0.0691 -1.10346,-0.39996 -1.23058,-0.39715 -0.11046,0 0.58051,0.31701 0.84936,0.38651 0.32544,0.0846 0.46852,0.0879 0.38122,0.011 z m -4.27048,-0.20807 c 0,-0.0656 -0.0433,-0.13109 -0.0963,-0.14651 -0.7863,-0.22974 -0.98603,-0.30398 -1.06039,-0.39398 -0.1192,-0.14396 -0.59233,-0.29388 -0.74389,-0.23551 -0.11069,0.0436 -0.10959,0.0611 0.011,0.1957 0.13033,0.14452 0.76725,0.40802 0.83119,0.34379 0.0175,-0.0182 0.18498,0.0531 0.37191,0.15565 0.39699,0.21933 0.68647,0.25342 0.68647,0.0805 z m 2.42213,-0.4141 c -0.0403,-0.0371 -0.15983,-0.091 -0.26573,-0.11907 l -0.19253,-0.0509 0.19253,0.11649 c 0.21456,0.12981 0.38334,0.16358 0.26573,0.0531 z m -0.72781,-0.27084 c 0,-0.0168 -0.0539,-0.0508 -0.11957,-0.0763 -0.0685,-0.0261 -0.0994,-0.0138 -0.0725,0.0299 0.0452,0.0742 0.19201,0.10862 0.19201,0.0452 z m -3.54271,-0.51074 c 0,-0.0422 -0.052,-0.0774 -0.11549,-0.0774 -0.0636,0 -0.11551,0.0348 -0.11551,0.0774 0,0.0436 0.052,0.0772 0.11551,0.0772 0.0636,0 0.11549,-0.0349 0.11549,-0.0772 z m -0.13478,-0.65707 c -0.0283,-0.11416 -0.27044,-0.0942 -0.31022,0.0255 -0.0235,0.0714 0.0229,0.0953 0.14761,0.0774 0.1,-0.0145 0.17321,-0.0603 0.16261,-0.10272 z m -3.19984,36.08862 c -0.0762,-0.0763 0.0927,-0.33766 0.21821,-0.33766 0.14703,0 0.14355,0.11317 -0.009,0.26496 -0.13706,0.13776 -0.1432,0.13974 -0.21,0.0738 z m -6.54902,-3.79027 c -0.0751,-0.0751 -0.0626,-0.33511 0.0162,-0.33511 0.0371,0 0.10949,0.0511 0.16066,0.11268 0.13681,0.16537 -0.0276,0.37203 -0.17688,0.22238 z m 28.46221,-9.30176 c 0,-0.14886 0.0158,-0.20976 0.0352,-0.13546 0.0195,0.0743 0.0195,0.19616 0,0.27073 -0.0195,0.0743 -0.0352,0.0137 -0.0352,-0.13527 z m -0.11415,-1.33979 c -0.0317,-0.0786 -0.0579,-0.22868 -0.0579,-0.33517 0,-0.10603 -0.0711,-0.4726 -0.15794,-0.81404 -0.0868,-0.34145 -0.14167,-0.63719 -0.12177,-0.65713 0.12433,-0.12481 0.45757,1.18805 0.41945,1.65271 -0.0178,0.21913 -0.0391,0.25868 -0.0819,0.15363 z m -2.54883,-7.14977 c -0.0701,-0.0769 -0.12744,-0.17942 -0.12744,-0.22573 0,-0.047 -0.12129,-0.47261 -0.26956,-0.94706 -0.14826,-0.47458 -0.26957,-0.87742 -0.26957,-0.89535 0,-0.11133 0.23423,-6e-5 0.3395,0.16097 0.15222,0.23326 0.27686,0.24768 0.33131,0.0377 0.0544,-0.20866 0.0855,-0.19952 0.47871,0.1409 0.31473,0.27224 0.3413,0.32408 0.34658,0.67601 0.006,0.35903 -0.006,0.38268 -0.20351,0.40541 -0.17493,0.0207 -0.21694,0.0717 -0.25631,0.30924 -0.0887,0.53612 -0.14429,0.58692 -0.36971,0.33689 z m -0.33063,-2.29359 c -0.0244,-0.0632 -0.0208,-0.17687 0.008,-0.25135 0.0487,-0.12596 0.0597,-0.125 0.16229,0.0145 0.0607,0.0827 0.10998,0.19558 0.10998,0.25126 0,0.13964 -0.22571,0.12778 -0.28021,-0.0145 z m -4.92463,-1.66907 c -0.14068,-0.15592 -0.14087,-0.16503 -0.005,-0.26451 0.10406,-0.0762 0.14858,-0.23415 0.17212,-0.61006 0.0307,-0.49242 0.0229,-0.51867 -0.27581,-0.91419 -0.16919,-0.22395 -0.30774,-0.48666 -0.30793,-0.58388 -2.5e-4,-0.27333 -0.2273,-0.55728 -0.54821,-0.6861 -0.35328,-0.14197 -0.95419,-0.84638 -1.07924,-1.26517 -0.0495,-0.16623 -0.23523,-0.44022 -0.42428,-0.62644 -0.36801,-0.36258 -0.4076,-0.45355 -0.19717,-0.45355 0.16854,0 0.53694,0.3788 0.82697,0.85024 0.21838,0.35499 0.67683,0.80218 1.15917,1.13083 0.35966,0.24495 0.44596,0.23489 0.39009,-0.0458 -0.0525,-0.26351 0.006,-0.32346 0.25155,-0.25888 0.16336,0.0422 0.1715,0.0741 0.12289,0.46416 -0.0334,0.26845 -0.0214,0.45535 0.0336,0.52204 0.0471,0.0575 0.0759,0.15077 0.0639,0.20835 -0.0123,0.0595 0.0316,0.0964 0.10037,0.0846 0.15851,-0.0255 0.45811,0.29845 0.32049,0.34685 -0.15117,0.0531 -0.11465,0.20398 0.13169,0.54526 0.12534,0.17389 0.28287,0.44789 0.35004,0.6092 0.10849,0.26076 0.1091,0.30281 0.006,0.37851 -0.0637,0.0465 -0.15113,0.1779 -0.1941,0.29145 -0.0478,0.12633 -0.13646,0.20625 -0.22859,0.20625 -0.0827,0 -0.20242,0.0518 -0.26594,0.11586 -0.15433,0.15487 -0.22927,0.14642 -0.4024,-0.0452 z m -1.95445,-5.94841 c -0.1465,-0.0827 -0.30244,-0.16429 -0.34656,-0.18295 -0.0951,-0.04 0.10295,-0.19721 0.25063,-0.19903 0.1187,0 0.47782,0.34379 0.47782,0.45914 0,0.11095 -0.0718,0.0963 -0.38189,-0.0774 z m -16.51462,-0.98788 c -0.0272,-0.0446 -0.0123,-0.10369 0.034,-0.13201 0.1144,-0.0714 0.15498,-0.0145 0.0786,0.1096 -0.0409,0.0656 -0.0806,0.0741 -0.11255,0.0227 z"
             id="path3038"
             inkscape:connector-curvature="0" />
          <path
             d="m 433.22108,749.59902 c 0,0.29731 0.066,0.38651 0.26431,0.38651 l 2.31397,0 c 0.26431,0 0.39668,0 0.39668,-0.32705 l 0,-24.06459 c 2.5123,-2.76502 6.0824,-5.02461 10.04919,-5.02461 5.55349,0 8.06579,3.96617 8.06579,9.65379 l 0,19.37 c 0,0.29732 0.066,0.38651 0.39668,0.38651 l 2.18172,0 c 0.26431,0 0.39668,0 0.39668,-0.38651 l 0,-19.37 c 0,-10.51303 -6.47909,-12.4307 -10.31365,-12.4307 -3.76844,0 -7.60301,1.72442 -10.84254,4.89378 -0.066,-1.30818 -0.19831,-3.30613 -0.33056,-3.90075 -0.1323,-0.29732 -0.1983,-0.32705 -0.39667,-0.32705 l -2.04951,0 c -0.33055,0 -0.39667,0 -0.39667,0.32705 0.066,0.86221 0.26431,4.69458 0.26431,7.00769 l 0,23.79998"
             style="font-size:2.22367883px;font-style:normal;font-variant:normal;font-weight:300;font-stretch:normal;text-align:start;line-height:125%;letter-spacing:0px;word-spacing:0px;writing-mode:lr-tb;text-anchor:start;fill:#71c837;fill-opacity:1;stroke:none;font-family:Adobe Clean;-inkscape-font-specification:Adobe Clean Light"
             id="path3003"
             inkscape:connector-curvature="0" />
          <path
             d="m 467.69803,744.63982 c 0,5.28922 2.5123,6.01764 4.6279,6.01764 1.05784,0 2.11568,-0.29732 2.5783,-0.4757 0.26461,0 0.26461,0 0.26461,-0.32705 l 0,-1.66496 c 0,-0.29731 0,-0.32704 -0.1992,-0.29731 -0.66122,0 -1.32215,0.29731 -1.71877,0.29731 -1.45446,0 -2.57831,-0.38651 -2.57831,-3.50533 l 0,-42.04615 c 0,0 -0.13081,-0.29731 -0.33061,-0.29731 l -2.31399,0 c -0.1992,0 -0.33062,0 -0.33062,0.29731 l 0,42.04615"
             style="font-size:2.22367883px;font-style:normal;font-variant:normal;font-weight:300;font-stretch:normal;text-align:start;line-height:125%;letter-spacing:0px;word-spacing:0px;writing-mode:lr-tb;text-anchor:start;fill:#71c837;fill-opacity:1;stroke:none;font-family:Adobe Clean;-inkscape-font-specification:Adobe Clean Light"
             id="path3005"
             inkscape:connector-curvature="0" />
          <path
             d="m 484.06825,710.98982 c 1.19015,0 1.98339,-0.92167 1.98339,-1.992 0,-1.1298 -0.72723,-2.05147 -1.98339,-2.05147 -1.19014,0 -1.98338,0.92167 -1.98338,2.05147 0,1.12979 0.72723,1.992 1.98338,1.992 m -1.45446,38.6092 c 0,0.32705 0.0654,0.38651 0.39662,0.38651 l 2.18169,0 c 0.26461,0 0.33062,0 0.33062,-0.32705 l 0,-30.87308 c 0,-0.29732 -0.13082,-0.32705 -0.33062,-0.32705 l -2.31399,0 c -0.1992,0 -0.26461,0 -0.26461,0.38651 l 0,30.74227"
             style="font-size:2.22367883px;font-style:normal;font-variant:normal;font-weight:300;font-stretch:normal;text-align:start;line-height:125%;letter-spacing:0px;word-spacing:0px;writing-mode:lr-tb;text-anchor:start;fill:#71c837;fill-opacity:1;stroke:none;font-family:Adobe Clean;-inkscape-font-specification:Adobe Clean Light"
             id="path3007"
             inkscape:connector-curvature="0" />
          <path
             d="m 495.97687,749.59902 c 0,0.29731 0.0654,0.38651 0.26461,0.38651 l 2.314,0 c 0.2646,0 0.39661,0 0.39661,-0.32705 l 0,-24.06459 c 2.51231,-2.76502 6.08239,-5.02461 10.04919,-5.02461 5.5535,0 8.0658,3.96617 8.0658,9.65379 l 0,19.37 c 0,0.29732 0.0654,0.38651 0.39662,0.38651 l 2.18169,0 c 0.26461,0 0.39661,0 0.39661,-0.38651 l 0,-19.37 c 0,-10.51303 -6.47909,-12.4307 -10.31364,-12.4307 -3.76843,0 -7.60301,1.72442 -10.84254,4.89378 -0.0654,-1.30818 -0.1992,-3.30613 -0.33061,-3.90075 -0.13082,-0.29732 -0.1992,-0.32705 -0.39662,-0.32705 l -2.04938,0 c -0.33062,0 -0.39662,0 -0.39662,0.32705 0.0654,0.86221 0.26461,4.69458 0.26461,7.00769 l 0,23.79998"
             style="font-size:2.22367883px;font-style:normal;font-variant:normal;font-weight:300;font-stretch:normal;text-align:start;line-height:125%;letter-spacing:0px;word-spacing:0px;writing-mode:lr-tb;text-anchor:start;fill:#71c837;fill-opacity:1;stroke:none;font-family:Adobe Clean;-inkscape-font-specification:Adobe Clean Light"
             id="path3009"
             inkscape:connector-curvature="0" />
          <path
             d="m 546.78373,733.66596 c 3.0412,0 5.88409,0 7.07412,-0.38651 0.2646,0 0.39661,-1.18925 0.39661,-3.24072 0,-4.82541 -3.30565,-12.2315 -12.03259,-12.2315 -8.39633,0 -13.6854,6.94228 -13.6854,16.66148 0,7.93234 4.03292,16.26308 14.74321,16.19767 4.09901,0 6.61131,-0.71356 8.72694,-1.99201 0.13082,0 0.1992,-0.29731 0.1992,-0.4757 l 0,-1.992 c 0,-0.29732 -0.0654,-0.32705 -0.26461,-0.29732 -2.77662,1.57577 -5.61962,1.90281 -8.33023,1.90281 -8.06581,0 -12.4954,-6.08304 -12.09872,-14.27999 l 15.27213,0 m -15.13989,-2.37851 c 0.72723,-5.94926 4.03289,-10.97386 10.37974,-10.97386 7.53691,0 9.38808,6.67767 9.38808,9.25538 0,0.53517 0,1.1298 -0.0654,1.39738 -0.0654,0.29731 -0.79323,0.32704 -4.82624,0.32704 l -14.87545,0"
             style="font-size:2.22367883px;font-style:normal;font-variant:normal;font-weight:300;font-stretch:normal;text-align:start;line-height:125%;letter-spacing:0px;word-spacing:0px;writing-mode:lr-tb;text-anchor:start;fill:#71c837;fill-opacity:1;stroke:none;font-family:Adobe Clean;-inkscape-font-specification:Adobe Clean Light"
             id="path3011"
             inkscape:connector-curvature="0" />
        </g>
      </g>
    </g>
    <g
       transform="matrix(38.465591,0,0,41.232319,58.78733,-42584.504)"
       style="fill:#ffffff;fill-opacity:1"
       id="g3093">
      <path
         inkscape:connector-curvature="0"
         id="path3095"
         style="font-size:2.22367883px;font-style:normal;font-variant:normal;font-weight:300;font-stretch:normal;text-align:start;line-height:125%;letter-spacing:0px;word-spacing:0px;writing-mode:lr-tb;text-anchor:start;fill:#ffffff;fill-opacity:1;stroke:none;font-family:Adobe Clean;-inkscape-font-specification:Adobe Clean Light"
         d="m 4.0348109,1051.1938 c 0.00889,0 0.011118,0 0.011118,-0.011 l 0,-1.4498 c 0,-0.01 -0.00222,-0.011 -0.00889,-0.011 l -0.080052,0 c -0.00889,0 -0.011118,0 -0.011118,0.011 l 0,0.6693 -0.8561164,0 0,-0.6693 c 0,-0.01 -0.00222,-0.011 -0.011118,-0.011 l -0.077829,0 c -0.00889,0 -0.011118,0 -0.011118,0.011 l 0,1.4476 c 0,0.01 0.00222,0.013 0.011118,0.013 l 0.077829,0 c 0.00889,0 0.011118,0 0.011118,-0.013 l 0,-0.6938 0.8561164,0 0,0.696 c 0,0.01 0.00222,0.011 0.011118,0.011 l 0.077829,0" />
      <path
         inkscape:connector-curvature="0"
         id="path3097"
         style="font-size:2.22367883px;font-style:normal;font-variant:normal;font-weight:300;font-stretch:normal;text-align:start;line-height:125%;letter-spacing:0px;word-spacing:0px;writing-mode:lr-tb;text-anchor:start;fill:#ffffff;fill-opacity:1;stroke:none;font-family:Adobe Clean;-inkscape-font-specification:Adobe Clean Light"
         d="m 4.5760335,1049.7329 -0.1756706,1.4498 c 0,0.01 0.00445,0.011 0.011118,0.011 l 0.077829,0 c 0.00889,0 0.00889,0 0.011118,-0.011 0.055592,-0.4558 0.1467628,-1.2341 0.1578812,-1.3942 l 0.00222,0 c 0.057816,0.1823 0.3202099,0.974 0.4647489,1.3942 0.00222,0.01 0.00445,0.011 0.015566,0.011 l 0.091171,0 c 0.00667,0 0.013342,0 0.015566,-0.011 0.1000654,-0.3002 0.4113806,-1.1919 0.4691962,-1.392 l 0.00222,0 c 0.00445,0.1023 0.082276,0.8428 0.1512102,1.3943 0.00222,0.01 0.00445,0.01 0.013342,0.01 l 0.082276,0 c 0.00667,0 0.011118,0 0.011118,-0.011 l -0.1734469,-1.452 c -0.00222,-0.01 -0.00222,-0.01 -0.013342,-0.01 l -0.124526,0 c -0.00889,0 -0.00889,0 -0.013342,0.011 -0.086723,0.2513 -0.4069332,1.163 -0.4603015,1.3409 l -0.00222,0 c -0.051145,-0.1868 -0.3669071,-1.0985 -0.4536304,-1.3431 -0.00222,-0.01 -0.00445,-0.01 -0.013342,-0.01 l -0.1356444,0 c -0.00445,0 -0.00889,0 -0.011118,0.011" />
      <path
         inkscape:connector-curvature="0"
         id="path3099"
         style="font-size:2.22367883px;font-style:normal;font-variant:normal;font-weight:300;font-stretch:normal;text-align:start;line-height:125%;letter-spacing:0px;word-spacing:0px;writing-mode:lr-tb;text-anchor:start;fill:#ffffff;fill-opacity:1;stroke:none;font-family:Adobe Clean;-inkscape-font-specification:Adobe Clean Light"
         d="m 6.4296088,1049.7329 c 0,-0.01 -0.00222,-0.011 -0.011118,-0.011 l -0.077829,0 c -0.00889,0 -0.011118,0 -0.011118,0.011 l 0,1.4476 c 0,0.011 0.00445,0.013 0.013342,0.013 l 0.075605,0 c 0.00889,0 0.011118,0 0.011118,-0.013 l 0,-1.4476" />
      <path
         inkscape:connector-curvature="0"
         id="path3101"
         style="font-size:2.22367883px;font-style:normal;font-variant:normal;font-weight:300;font-stretch:normal;text-align:start;line-height:125%;letter-spacing:0px;word-spacing:0px;writing-mode:lr-tb;text-anchor:start;fill:#ffffff;fill-opacity:1;stroke:none;font-family:Adobe Clean;-inkscape-font-specification:Adobe Clean Light"
         d="m 7.8241948,1049.6995 c -0.3513409,0 -0.6470905,0.2735 -0.6470905,0.7539 0,0.4647 0.2579472,0.7627 0.6559853,0.7627 0.3491172,0 0.6404195,-0.2646 0.6381958,-0.7672 0,-0.4314 -0.2623945,-0.7494 -0.6470906,-0.7494 m -0.5470249,0.7539 c 0,-0.4448 0.2557233,-0.6649 0.5448013,-0.6649 0.3224331,0 0.5492486,0.2779 0.5492486,0.6626 0,0.407 -0.2045787,0.676 -0.5381302,0.676 -0.3669067,0 -0.5559197,-0.3113 -0.5559197,-0.6737" />
      <path
         inkscape:connector-curvature="0"
         id="path3103"
         style="font-size:2.22367883px;font-style:normal;font-variant:normal;font-weight:300;font-stretch:normal;text-align:start;line-height:125%;letter-spacing:0px;word-spacing:0px;writing-mode:lr-tb;text-anchor:start;fill:#ffffff;fill-opacity:1;stroke:none;font-family:Adobe Clean;-inkscape-font-specification:Adobe Clean Light"
         d="m 8.7937882,1051.1805 c 0,0.01 0.00222,0.013 0.00889,0.013 l 0.077829,0 c 0.00889,0 0.013342,0 0.013342,-0.011 l 0,-0.8094 c 0.0845,-0.093 0.2045786,-0.169 0.3379992,-0.169 0.1867889,0 0.2712888,0.1334 0.2712888,0.3247 l 0,0.6515 c 0,0.01 0.00222,0.013 0.013342,0.013 l 0.073381,0 c 0.00889,0 0.013342,0 0.013342,-0.013 l 0,-0.6515 c 0,-0.3536 -0.2179207,-0.4181 -0.3468939,-0.4181 -0.1267496,0 -0.2557232,0.058 -0.3646833,0.1646 -0.00222,-0.044 -0.00667,-0.1112 -0.011118,-0.1312 -0.00445,-0.01 -0.00667,-0.011 -0.013342,-0.011 l -0.068934,0 c -0.011118,0 -0.013342,0 -0.013342,0.011 0.00222,0.029 0.00889,0.1579 0.00889,0.2357 l 0,0.8005" />
      <path
         inkscape:connector-curvature="0"
         id="path3105"
         style="font-size:2.22367883px;font-style:normal;font-variant:normal;font-weight:300;font-stretch:normal;text-align:start;line-height:125%;letter-spacing:0px;word-spacing:0px;writing-mode:lr-tb;text-anchor:start;fill:#ffffff;fill-opacity:1;stroke:none;font-family:Adobe Clean;-inkscape-font-specification:Adobe Clean Light"
         d="m 9.953402,1051.0137 c 0,0.1779 0.0845,0.2024 0.155657,0.2024 0.03558,0 0.07116,-0.01 0.08672,-0.016 0.0089,0 0.0089,0 0.0089,-0.011 l 0,-0.056 c 0,-0.01 0,-0.011 -0.0067,-0.01 -0.02224,0 -0.04447,0.01 -0.05781,0.01 -0.04892,0 -0.08672,-0.013 -0.08672,-0.1179 l 0,-1.4142 c 0,0 -0.0044,-0.01 -0.01112,-0.01 l -0.07783,0 c -0.0067,0 -0.01112,0 -0.01112,0.01 l 0,1.4142" />
      <path
         inkscape:connector-curvature="0"
         id="path3107"
         style="font-size:2.22367883px;font-style:normal;font-variant:normal;font-weight:300;font-stretch:normal;text-align:start;line-height:125%;letter-spacing:0px;word-spacing:0px;writing-mode:lr-tb;text-anchor:start;fill:#ffffff;fill-opacity:1;stroke:none;font-family:Adobe Clean;-inkscape-font-specification:Adobe Clean Light"
         d="m 10.504006,1049.8819 c 0.04003,0 0.06671,-0.031 0.06671,-0.067 0,-0.038 -0.02446,-0.069 -0.06671,-0.069 -0.04003,0 -0.06671,0.031 -0.06671,0.069 0,0.038 0.02446,0.067 0.06671,0.067 m -0.04892,1.2986 c 0,0.011 0.0022,0.013 0.01334,0.013 l 0.07338,0 c 0.0089,0 0.01112,0 0.01112,-0.011 l 0,-1.0384 c 0,-0.01 -0.0044,-0.011 -0.01112,-0.011 l -0.07783,0 c -0.0067,0 -0.0089,0 -0.0089,0.013 l 0,1.034" />
      <path
         inkscape:connector-curvature="0"
         id="path3109"
         style="font-size:2.22367883px;font-style:normal;font-variant:normal;font-weight:300;font-stretch:normal;text-align:start;line-height:125%;letter-spacing:0px;word-spacing:0px;writing-mode:lr-tb;text-anchor:start;fill:#ffffff;fill-opacity:1;stroke:none;font-family:Adobe Clean;-inkscape-font-specification:Adobe Clean Light"
         d="m 10.904546,1051.1805 c 0,0.01 0.0022,0.013 0.0089,0.013 l 0.07783,0 c 0.0089,0 0.01334,0 0.01334,-0.011 l 0,-0.8094 c 0.0845,-0.093 0.204578,-0.169 0.337999,-0.169 0.186789,0 0.271289,0.1334 0.271289,0.3247 l 0,0.6515 c 0,0.01 0.0022,0.013 0.01334,0.013 l 0.07338,0 c 0.0089,0 0.01334,0 0.01334,-0.013 l 0,-0.6515 c 0,-0.3536 -0.217921,-0.4181 -0.346894,-0.4181 -0.126749,0 -0.255723,0.058 -0.364683,0.1646 -0.0022,-0.044 -0.0067,-0.1112 -0.01112,-0.1312 -0.0044,-0.01 -0.0067,-0.011 -0.01334,-0.011 l -0.06893,0 c -0.01112,0 -0.01334,0 -0.01334,0.011 0.0022,0.029 0.0089,0.1579 0.0089,0.2357 l 0,0.8005" />
      <path
         inkscape:connector-curvature="0"
         id="path3111"
         style="font-size:2.22367883px;font-style:normal;font-variant:normal;font-weight:300;font-stretch:normal;text-align:start;line-height:125%;letter-spacing:0px;word-spacing:0px;writing-mode:lr-tb;text-anchor:start;fill:#ffffff;fill-opacity:1;stroke:none;font-family:Adobe Clean;-inkscape-font-specification:Adobe Clean Light"
         d="m 12.613408,1050.6446 c 0.102289,0 0.197908,0 0.237934,-0.013 0.0089,0 0.01334,-0.04 0.01334,-0.109 0,-0.1623 -0.111184,-0.4114 -0.40471,-0.4114 -0.282406,0 -0.460301,0.2335 -0.460301,0.5604 0,0.2668 0.135645,0.547 0.49588,0.5448 0.137868,0 0.222368,-0.024 0.293526,-0.067 0.0044,0 0.0067,-0.01 0.0067,-0.016 l 0,-0.067 c 0,-0.01 -0.0022,-0.011 -0.0089,-0.01 -0.09339,0.053 -0.189013,0.064 -0.280183,0.064 -0.271289,0 -0.420276,-0.2046 -0.406934,-0.4803 l 0.51367,0 m -0.509222,-0.08 c 0.02446,-0.2001 0.135644,-0.3691 0.349117,-0.3691 0.2535,0 0.315763,0.2246 0.315763,0.3113 0,0.018 0,0.038 -0.0022,0.047 -0.0022,0.01 -0.02668,0.011 -0.162328,0.011 l -0.500328,0" />
    </g>
    <rect
       style="fill:#536c53;stroke:none"
       id="rect3098"
       width="657.27264"
       height="133.50851"
       x="46.459003"
       y="854.30011" />
    <g
       id="g3154"
       transform="matrix(1.0194871,0,0,1.0194871,-25.856169,-23.760665)">
      <g
         id="g3147">
        <g
           transform="matrix(31.414311,0,0,33.673859,8.8915138,-34294.629)"
           id="g3085"
           style="fill:#ffffff;fill-opacity:1">
          <g
             style="fill:#ffffff;fill-opacity:1;fill-rule:evenodd"
             id="g3087"
             transform="matrix(0.06750975,0,0,0.06750975,-20.265133,1024.6698)">
            <path
               id="path3089"
               d="m 358.654,298.608 c 6.759,0 12.457,4.33 14.2,10.234 -1.328,-3.348 -4.202,-6.063 -8.043,-7.118 -6.537,-1.795 -13.4,1.899 -15.325,8.25 -1.925,6.351 1.815,12.957 8.353,14.752 4.4,1.208 8.947,-0.072 12.038,-2.974 -2.706,3.017 -6.73,4.932 -11.223,4.932 -8.145,0 -14.75,-6.286 -14.75,-14.038 0,-7.752 6.605,-14.038 14.75,-14.038 z"
               style="fill:#ffffff;fill-opacity:1;stroke:none"
               inkscape:connector-curvature="0" />
          </g>
          <path
             style="fill:#ffffff;fill-opacity:1;stroke:none"
             inkscape:transform-center-y="-1.7047551"
             d="m 4.9115564,1046.3044 -0.2232349,-0.196 -0.2451449,0.1678 0.1174138,-0.2728 -0.235321,-0.1813 0.2958005,0.027 0.099709,-0.2798 0.065401,0.2897 0.2969443,0.01 -0.2553805,0.1517 z"
             id="path3091"
             inkscape:connector-curvature="0"
             inkscape:transform-center-x="-0.40789" />
        </g>
        <path
           style="fill:#93ac93;fill-opacity:1;stroke:none"
           d="m 128.22729,977.53401 c -18.98456,-1.68587 -35.571655,-12.37707 -45.029546,-29.02375 -3.278157,-5.76984 -5.561818,-12.50892 -6.657021,-19.64489 -0.387551,-2.52515 -0.484217,-4.11887 -0.489887,-8.07663 -0.01011,-7.0657 0.7267,-11.65261 2.938224,-18.29123 1.159891,-3.48181 3.815026,-9.14949 5.5984,-11.95041 8.758398,-13.75577 22.65834,-23.1374 38.43929,-25.94428 8.38505,-1.49139 18.10048,-0.92444 26.23174,1.53077 22.16452,6.69253 38.06911,26.00117 40.39987,49.04666 0.33296,3.29211 0.15303,10.79498 -0.33421,13.9359 -1.81793,11.71929 -7.1533,22.56079 -15.24491,30.97778 -11.93216,12.41197 -29.06978,18.93037 -45.85195,17.44008 l 0,0 z m 11.973,-4.04459 c 6.30297,-0.92112 11.37404,-2.51572 16.86458,-5.30307 13.60898,-6.90877 23.66276,-19.41174 27.42669,-34.10809 0.40572,-1.58413 0.90052,-3.9157 1.09954,-5.18125 0.4963,-3.15574 0.67456,-10.21202 0.34084,-13.49257 -2.57124,-25.277 -22.37625,-45.0786 -47.66774,-47.65949 -3.53825,-0.36106 -10.81195,-0.14312 -14.03215,0.42045 -9.30496,1.62847 -17.61296,5.3658 -24.763101,11.13962 -3.943493,3.18441 -8.233878,7.88182 -10.902176,11.93645 -9.281829,14.10426 -11.40616,31.30957 -5.831517,47.23042 5.398266,15.41716 17.724414,27.54399 33.252524,32.71483 4.4058,1.46712 8.4739,2.28119 13.61325,2.72412 1.87065,0.16123 8.3846,-0.0978 10.59926,-0.42142 z"
           id="path3104"
           inkscape:connector-curvature="0" />
      </g>
      <text
         xml:space="preserve"
         style="font-size:99.12332153px;font-style:normal;font-variant:normal;font-weight:normal;font-stretch:normal;line-height:125%;letter-spacing:0px;word-spacing:0px;fill:#ffffff;fill-opacity:1;stroke:none;font-family:Bebas;-inkscape-font-specification:Bebas"
         x="204.11644"
         y="967.14252"
         id="text3137"
         sodipodi:linespacing="125%"
         inkscape:export-xdpi="6.120327"
         inkscape:export-ydpi="6.120327"><tspan
           sodipodi:role="line"
           id="tspan3139"
           x="204.11644"
           y="967.14252"
           style="font-size:99.12332153px;font-style:normal;font-variant:normal;font-weight:normal;font-stretch:normal;text-align:start;line-height:125%;writing-mode:lr-tb;text-anchor:start;fill:#ffffff;font-family:Bebas;-inkscape-font-specification:Bebas">PORT80<tspan
   id="tspan3141"
   style="fill:#93ac93">HMI</tspan></tspan></text>
    </g>
    <text
       xml:space="preserve"
       style="font-size:16px;font-style:normal;font-weight:normal;line-height:125%;letter-spacing:0px;word-spacing:0px;fill:#000000;fill-opacity:1;stroke:none;font-family:Sans"
       x="65.011345"
       y="710.89722"
       id="text3143"
       sodipodi:linespacing="125%"
       transform="translate(0,308.2677)"><tspan
         sodipodi:role="line"
         id="tspan3145"
         x="65.011345"
         y="710.89722">251x51</tspan></text>
  </g>
</svg>
