<?xml version="1.0" encoding="UTF-8" standalone="no"?>
<!-- Created with Inkscape (http://www.inkscape.org/) -->

<svg
   xmlns:dc="http://purl.org/dc/elements/1.1/"
   xmlns:cc="http://creativecommons.org/ns#"
   xmlns:rdf="http://www.w3.org/1999/02/22-rdf-syntax-ns#"
   xmlns:svg="http://www.w3.org/2000/svg"
   xmlns="http://www.w3.org/2000/svg"
   xmlns:sodipodi="http://sodipodi.sourceforge.net/DTD/sodipodi-0.dtd"
   xmlns:inkscape="http://www.inkscape.org/namespaces/inkscape"
   width="272"
   height="77"
   viewBox="0 0 272 77.000001"
   id="svg4204"
   version="1.1"
   inkscape:version="0.91 r13725"
   sodipodi:docname="Logo_invoice_pdf.svg">
  <defs
     id="defs4206" />
  <sodipodi:namedview
     id="base"
     pagecolor="#ffffff"
     bordercolor="#666666"
     borderopacity="1.0"
     inkscape:pageopacity="0.0"
     inkscape:pageshadow="2"
     inkscape:zoom="1"
     inkscape:cx="-107.3709"
     inkscape:cy="-29.516675"
     inkscape:document-units="px"
     inkscape:current-layer="layer1"
     showgrid="false"
     units="px"
     inkscape:window-width="1366"
     inkscape:window-height="744"
     inkscape:window-x="0"
     inkscape:window-y="24"
     inkscape:window-maximized="1" />
  <metadata
     id="metadata4209">
    <rdf:RDF>
      <cc:Work
         rdf:about="">
        <dc:format>image/svg+xml</dc:format>
        <dc:type
           rdf:resource="http://purl.org/dc/dcmitype/StillImage" />
        <dc:title />
      </cc:Work>
    </rdf:RDF>
  </metadata>
  <g
     inkscape:label="Layer 1"
     inkscape:groupmode="layer"
     id="layer1"
     transform="translate(0,-975.36216)">
    <g
       id="g3378"
       inkscape:export-xdpi="72"
       inkscape:export-ydpi="72">
      <rect
         y="975.36627"
         x="0.00061200187"
         height="76.995872"
         width="272.19525"
         id="rect4752"
         style="opacity:1;fill:none;fill-opacity:1;stroke:none;stroke-width:120;stroke-linecap:butt;stroke-linejoin:round;stroke-miterlimit:4;stroke-dasharray:none;stroke-dashoffset:0;stroke-opacity:1" />
      <path
         id="path3221"
         d="m 30.779703,1052.277 30.663429,-18.4293 0,-32.1208 -19.216459,-11.8964 0,12.3342 11.806776,7.0779 -0.01508,11.4598 -14.408133,-8.6174 0,-31.58436 -8.816415,-5.28797 0,42.32443 0.01984,17.4548 -8.539951,6.3513 0,-42.50387 -15.9234856,10.75707 0.00157,10.8878 13.2598416,-8.7372 0,9.4222 -19.33318601,12.6771 z"
         style="fill:#008000;fill-opacity:1;fill-rule:evenodd;stroke:none"
         inkscape:connector-curvature="0"
         sodipodi:nodetypes="cccccccccccccccccccc" />
      <g
         id="g4469">
        <text
           sodipodi:linespacing="125%"
           id="text4949"
           y="1042.6503"
           x="100.15527"
           style="font-style:normal;font-variant:normal;font-weight:normal;font-stretch:normal;font-size:8.26079369px;line-height:125%;font-family:Verdana;-inkscape-font-specification:Verdana;letter-spacing:1.61372793px;word-spacing:0px;fill:#808080;fill-opacity:1;stroke:none;stroke-width:1px;stroke-linecap:butt;stroke-linejoin:miter;stroke-opacity:1"
           xml:space="preserve"><tspan
             style="font-style:normal;font-variant:normal;font-weight:300;font-stretch:normal;font-size:8.26084042px;line-height:125%;font-family:'Open Sans';-inkscape-font-specification:'Open Sans, Light';text-align:start;letter-spacing:1.61372793px;writing-mode:lr-tb;text-anchor:start;fill:#808080;fill-opacity:1"
             y="1042.6503"
             x="100.15527"
             id="tspan4951"
             sodipodi:role="line">Web Design &amp; Development</tspan></text>
        <g
           id="g4414"
           transform="matrix(0.88884366,0,0,0.88884366,8.3523224,102.69258)">
          <g
             id="g4405">
            <g
               id="g4398">
              <path
                 d="m 83.679979,1010.2349 11.352877,0 0,14.0491 c -2.976906,1.2638 -6.325898,1.8956 -10.046978,1.8956 -4.858526,0 -8.586638,-1.3689 -11.184374,-4.1071 -2.58372,-2.7523 -3.875578,-6.6421 -3.875578,-11.6691 0,-3.1311 0.63891,-5.9042 1.916729,-8.3196 1.29184,-2.42933 3.131322,-4.30387 5.518465,-5.62382 2.401145,-1.31996 5.153357,-1.97992 8.25664,-1.97992 3.355992,0 6.367969,0.61783 9.035966,1.85361 l -0.863588,1.93777 c -2.667968,-1.23565 -5.434224,-1.85362 -8.298755,-1.85362 -4.058131,0 -7.280739,1.25687 -9.667863,3.77018 -2.373084,2.4997 -3.559617,5.8767 -3.559617,10.1313 0,4.6339 1.130374,8.1233 3.391122,10.4683 2.260729,2.331 5.581635,3.4964 9.962735,3.4964 2.836434,0 5.244629,-0.4001 7.22456,-1.2007 l 0,-10.8262 -9.162341,0 0,-2.0222"
                 style="font-style:normal;font-variant:normal;font-weight:300;font-stretch:normal;font-size:22.89000511px;line-height:125%;font-family:'Open Sans';-inkscape-font-specification:'Open Sans Light';text-align:start;letter-spacing:1.42631257px;word-spacing:0px;writing-mode:lr-tb;text-anchor:start;fill:#008000;fill-opacity:1;stroke:none"
                 id="path4714-1"
                 inkscape:connector-curvature="0" />
              <path
                 d="m 104.57743,1012.3414 0,13.417 -2.14842,0 0,-30.79387 7.32987,0 c 3.81939,0 6.64181,0.70917 8.46727,2.12732 1.82543,1.40426 2.73814,3.52455 2.73818,6.36105 -4e-5,2.0641 -0.54766,3.8054 -1.64291,5.2234 -1.08125,1.4185 -2.73116,2.4364 -4.94977,3.0543 l 8.36194,14.0278 -2.56966,0 -7.94069,-13.417 -7.64581,0 m 0,-1.8537 5.87651,0 c 2.59775,0 4.61275,-0.5757 6.04504,-1.7272 1.43227,-1.1653 2.1484,-2.8783 2.14842,-5.1391 -2e-5,-2.345 -0.70212,-4.05109 -2.10627,-5.11827 -1.40422,-1.0673 -3.69305,-1.60083 -6.8665,-1.60083 l -5.0972,0 0,13.5854"
                 style="font-style:normal;font-variant:normal;font-weight:300;font-stretch:normal;font-size:22.89000511px;line-height:125%;font-family:'Open Sans';-inkscape-font-specification:'Open Sans Light';text-align:start;letter-spacing:1.42631257px;word-spacing:0px;writing-mode:lr-tb;text-anchor:start;fill:#008000;fill-opacity:1;stroke:none"
                 id="path4716-2"
                 inkscape:connector-curvature="0" />
              <path
                 d="m 144.71085,1025.7584 -16.8292,0 0,-30.79387 16.8292,0 0,1.97993 -14.68078,0 0,11.64754 13.85936,0 0,1.98 -13.85936,0 0,13.2064 14.68078,0 0,1.98"
                 style="font-style:normal;font-variant:normal;font-weight:300;font-stretch:normal;font-size:22.89000511px;line-height:125%;font-family:'Open Sans';-inkscape-font-specification:'Open Sans Light';text-align:start;letter-spacing:1.42631257px;word-spacing:0px;writing-mode:lr-tb;text-anchor:start;fill:#008000;fill-opacity:1;stroke:none"
                 id="path4718-7"
                 inkscape:connector-curvature="0" />
              <path
                 d="m 168.14935,1025.7584 -16.82922,0 0,-30.79387 16.82922,0 0,1.97993 -14.68079,0 0,11.64754 13.85934,0 0,1.98 -13.85934,0 0,13.2064 14.68079,0 0,1.98"
                 style="font-style:normal;font-variant:normal;font-weight:300;font-stretch:normal;font-size:22.89000511px;line-height:125%;font-family:'Open Sans';-inkscape-font-specification:'Open Sans Light';text-align:start;letter-spacing:1.42631257px;word-spacing:0px;writing-mode:lr-tb;text-anchor:start;fill:#008000;fill-opacity:1;stroke:none"
                 id="path4720-0"
                 inkscape:connector-curvature="0" />
              <path
                 d="m 197.00437,1025.7584 -2.16947,0 -18.24044,-27.33958 -0.16847,0 c 0.16847,3.25768 0.25276,5.71518 0.25276,7.37208 l 0,19.9675 -2.06415,0 0,-30.79387 2.14841,0 18.21937,27.29747 0.12646,0 c -0.12646,-2.5275 -0.18958,-4.9287 -0.18957,-7.2035 l 0,-20.09397 2.08522,0 0,30.79387"
                 style="font-style:normal;font-variant:normal;font-weight:300;font-stretch:normal;font-size:22.89000511px;line-height:125%;font-family:'Open Sans';-inkscape-font-specification:'Open Sans Light';text-align:start;letter-spacing:1.42631257px;word-spacing:0px;writing-mode:lr-tb;text-anchor:start;fill:#008000;fill-opacity:1;stroke:none"
                 id="path4722-9"
                 inkscape:connector-curvature="0" />
            </g>
            <path
               style="fill:#b3b3b3;fill-opacity:1;stroke:none"
               d="m 243.60293,994.37955 c -0.32054,0 -0.60378,0.0142 -0.8105,0.0271 -3.58246,0.26956 -6.48462,1.49718 -8.67255,3.66894 -2.5033,2.48481 -3.87435,5.81731 -4.20924,10.23401 -0.10353,1.3653 -0.0526,3.5146 0.1134,4.9225 0.67584,5.7299 3.44851,9.8354 7.92686,11.7309 1.37426,0.5817 2.93352,0.9379 4.81982,1.1024 0.41406,0.036 2.55133,0.024 3.00435,-0.016 2.96562,-0.2644 5.42055,-1.1921 7.47838,-2.8313 0.82559,-0.6578 1.9126,-1.8536 2.545,-2.799 1.51532,-2.2656 2.30969,-4.6509 2.65307,-7.9808 0.0743,-0.7259 0.0745,-3.6766 0,-4.4309 -0.34848,-3.52 -1.30018,-6.2091 -2.99348,-8.47253 -2.17905,-2.91259 -5.13776,-4.56275 -9.07779,-5.06299 -0.52428,-0.0674 -1.81581,-0.10323 -2.77735,-0.0918 z m -40.234,0.42139 0,15.47546 0,15.4808 6.21395,-0.022 c 6.63918,-0.022 6.61892,-0.02 7.92142,-0.2431 3.40638,-0.5851 5.94473,-2.3058 7.25142,-4.9118 0.56111,-1.1191 0.85669,-2.3958 0.90779,-3.9554 0.10265,-3.1312 -1.12133,-5.5705 -3.52303,-7.0245 -0.19428,-0.1176 -0.35596,-0.2228 -0.35663,-0.2376 -9.2e-4,-0.014 0.0729,-0.085 0.1621,-0.1514 1.06337,-0.7947 1.92452,-2.0016 2.36671,-3.3229 0.29863,-0.8926 0.41047,-1.6386 0.41065,-2.7451 0,-3.0566 -1.18503,-5.30144 -3.52304,-6.67859 -1.2068,-0.71088 -2.885,-1.21543 -4.93875,-1.47524 -1.35464,-0.17135 -2.14772,-0.18839 -7.60805,-0.18912 l -5.28454,0 z m 56.74689,0 0.081,0.11901 c 0.78872,1.20166 9.39424,14.46865 9.45601,14.57845 l 0.0865,0.1568 -5.10623,8.0294 c -2.80968,4.4162 -5.11167,8.0354 -5.11167,8.0459 0,0.013 1.54159,0.019 3.42578,0.016 l 3.42579,0 3.41496,-5.4951 c 1.87826,-3.0229 3.43536,-5.4989 3.4582,-5.5009 0.0229,0 1.5527,2.4705 3.39879,5.4899 l 3.35549,5.4898 3.5501,0.014 c 1.95298,0 3.55005,0 3.55005,-0.014 0,-0.013 -2.30341,-3.6573 -5.12246,-8.105 -2.81902,-4.4479 -5.11927,-8.103 -5.11165,-8.1214 0.007,-0.019 2.16513,-3.3224 4.79824,-7.3434 2.63312,-4.02061 4.78746,-7.32435 4.78746,-7.33769 0,-0.0144 -1.55134,-0.023 -3.44741,-0.0216 l -3.44739,0 -3.09076,4.90629 c -1.69991,2.6964 -3.10668,4.8963 -3.12858,4.8902 -0.0219,0 -1.4198,-2.2152 -3.10699,-4.90626 l -3.06915,-4.89023 -3.52305,0 -3.52305,0 z m -15.81045,5.38186 c 1.04706,0 1.25485,0.014 1.74531,0.1033 2.14156,0.3825 3.59703,1.333 4.64158,3.0367 0.76342,1.2451 1.22703,2.8479 1.42112,4.8955 0.0942,0.9935 0.0942,3.0299 0,4.0256 -0.26968,2.8487 -1.03951,4.8439 -2.39913,6.2031 -1.03843,1.0382 -2.37052,1.6362 -4.11205,1.8533 -0.39646,0.05 -1.7575,0.094 -2.07492,0.062 -1.77237,-0.156 -2.8579,-0.4887 -3.93371,-1.2048 -1.88629,-1.2557 -2.97093,-3.4925 -3.31229,-6.8299 -0.0901,-0.8812 -0.10309,-3.1096 -0.0217,-3.9986 0.26183,-2.863 1.08033,-4.9001 2.5288,-6.3004 0.82191,-0.7945 1.78363,-1.309 3.00973,-1.6048 0.88749,-0.214 1.21137,-0.2442 2.50719,-0.2431 z m -34.79817,0.3242 2.156,0 c 1.18531,0 2.40591,0.019 2.71252,0.043 1.53293,0.1219 2.68735,0.4447 3.32313,0.9349 0.60381,0.4655 0.86124,1.3301 0.75645,2.5288 -0.15604,1.7852 -0.88166,2.3873 -3.24205,2.7018 -0.38077,0.051 -1.1066,0.071 -3.10156,0.086 l -2.60449,0.022 0,-3.1557 0,-3.161 z m 0,11.9201 2.6261,0.022 c 1.49261,0.014 2.81263,0.042 3.05833,0.071 2.55226,0.2866 3.76988,1.091 4.03637,2.6637 0.0843,0.4973 0.0969,0.9168 0.0486,1.4427 -0.098,1.0671 -0.32851,1.6409 -0.88076,2.1885 -0.76728,0.7607 -1.88606,1.1281 -3.75538,1.232 -0.41093,0.023 -1.73288,0.043 -2.93947,0.043 l -2.19383,0 0,-3.8309 0,-3.831 z"
               id="path4724-3"
               inkscape:connector-curvature="0" />
          </g>
          <g
             transform="matrix(0.701979,0,0,0.701979,31.213954,297.20546)"
             id="g5033">
            <rect
               y="1175.7419"
               x="981.54095"
               height="52.133259"
               width="14.609958"
               id="rect4961"
               style="opacity:1;fill:#2a7fff;fill-opacity:1;stroke:none;stroke-width:120;stroke-linecap:butt;stroke-linejoin:round;stroke-miterlimit:4;stroke-dasharray:none;stroke-dashoffset:0;stroke-opacity:1"
               transform="matrix(1,0,-0.5344439,0.84520395,0,0)" />
            <path
               style="opacity:1;fill:#2a7fff;fill-opacity:1;stroke:none;stroke-width:120;stroke-linecap:butt;stroke-linejoin:round;stroke-miterlimit:4;stroke-dasharray:none;stroke-dashoffset:0;stroke-opacity:1"
               d="m 347.41178,1005.2991 -5.94332,11.2995 12.97252,21.2063 14.60995,0 z"
               id="rect5014"
               inkscape:connector-curvature="0"
               sodipodi:nodetypes="ccccc" />
          </g>
        </g>
        <text
           xml:space="preserve"
           style="font-style:normal;font-variant:normal;font-weight:normal;font-stretch:normal;font-size:15.17436981px;line-height:125%;font-family:Verdana;-inkscape-font-specification:Verdana;text-align:center;letter-spacing:0.29655454px;word-spacing:0px;text-anchor:middle;fill:#2a7fff;fill-opacity:1;stroke:none;stroke-width:1px;stroke-linecap:butt;stroke-linejoin:miter;stroke-opacity:1"
           x="421.29465"
           y="1027.8834"
           id="text4894"
           sodipodi:linespacing="125%"
           transform="matrix(1,0,-0.18945083,1,0,0)"><tspan
             sodipodi:role="line"
             id="tspan4896"
             x="421.44293"
             y="1027.8834"
             style="font-style:normal;font-variant:normal;font-weight:300;font-stretch:normal;font-size:15.1744566px;line-height:125%;font-family:'Open Sans';-inkscape-font-specification:'Open Sans, Light';text-align:center;letter-spacing:0.29655454px;writing-mode:lr-tb;text-anchor:middle;fill:#2a7fff;fill-opacity:1">webservice</tspan></text>
        <text
           sodipodi:linespacing="125%"
           id="text4394"
           y="1027.886"
           x="72.70575"
           style="font-style:normal;font-variant:normal;font-weight:normal;font-stretch:normal;font-size:11.3497982px;line-height:125%;font-family:'Open Sans';-inkscape-font-specification:'Open Sans';text-align:start;letter-spacing:6.47866535px;word-spacing:0px;writing-mode:lr-tb;text-anchor:start;fill:#808080;fill-opacity:1;stroke:none"
           xml:space="preserve"><tspan
             y="1027.886"
             x="72.70575"
             id="tspan4396"
             sodipodi:role="line">INDONESIA</tspan></text>
        <rect
           style="opacity:1;fill:#808080;fill-opacity:1;stroke:none;stroke-width:120;stroke-linecap:butt;stroke-linejoin:round;stroke-miterlimit:4;stroke-dasharray:none;stroke-dashoffset:0;stroke-opacity:1"
           id="rect4463"
           width="192.3125"
           height="0.26838234"
           x="73.770241"
           y="1032.9084" />
      </g>
    </g>
  </g>
</svg>
