<?xml version="1.0" encoding="UTF-8" standalone="no"?>
<!-- Created with Inkscape (http://www.inkscape.org/) -->

<svg
   xmlns:dc="http://purl.org/dc/elements/1.1/"
   xmlns:cc="http://creativecommons.org/ns#"
   xmlns:rdf="http://www.w3.org/1999/02/22-rdf-syntax-ns#"
   xmlns:svg="http://www.w3.org/2000/svg"
   xmlns="http://www.w3.org/2000/svg"
   xmlns:sodipodi="http://sodipodi.sourceforge.net/DTD/sodipodi-0.dtd"
   xmlns:inkscape="http://www.inkscape.org/namespaces/inkscape"
   width="1052.3622"
   height="744.09448"
   id="svg2"
   version="1.1"
   inkscape:version="0.48.4 r9939"
   sodipodi:docname="TAB.svg">
  <defs
     id="defs4" />
  <sodipodi:namedview
     id="base"
     pagecolor="#ffffff"
     bordercolor="#666666"
     borderopacity="1.0"
     inkscape:pageopacity="0.0"
     inkscape:pageshadow="2"
     inkscape:zoom="0.49497475"
     inkscape:cx="2372.6138"
     inkscape:cy="377.9168"
     inkscape:document-units="px"
     inkscape:current-layer="layer1"
     showgrid="false"
     inkscape:window-width="1600"
     inkscape:window-height="876"
     inkscape:window-x="1366"
     inkscape:window-y="24"
     inkscape:window-maximized="1" />
  <metadata
     id="metadata7">
    <rdf:RDF>
      <cc:Work
         rdf:about="">
        <dc:format>image/svg+xml</dc:format>
        <dc:type
           rdf:resource="http://purl.org/dc/dcmitype/StillImage" />
        <dc:title></dc:title>
      </cc:Work>
    </rdf:RDF>
  </metadata>
  <g
     inkscape:label="Layer 1"
     inkscape:groupmode="layer"
     id="layer1"
     transform="translate(0,-308.2677)">
    <path
       inkscape:connector-curvature="0"
       id="path3006"
       d="m -424.69491,565.33055 c -3.08997,-0.40508 -7.75025,-1.64524 -10.99404,-2.92562 -14.97916,-5.91252 -25.31528,-17.97872 -29.31147,-34.21766 -0.57923,-2.35375 -0.63274,-8.15757 -0.73874,-80.10585 -0.11325,-76.85735 -0.10745,-77.60868 0.63071,-81.97983 1.20402,-7.12971 3.16802,-12.35177 6.66076,-17.71007 9.84857,-15.10905 28.01159,-22.67739 54.39541,-22.66602 15.6638,0.007 26.13862,2.08115 36.63487,7.25507 13.99967,6.90082 22.24679,17.94379 25.03704,33.52466 0.42164,2.35445 0.51945,8.23802 0.51985,31.26952 l 3.6e-4,28.3694 -24.56044,-0.0932 -24.56045,-0.0932 -0.18126,-25.55736 -0.18125,-25.55736 -0.86196,-1.907 c -1.32934,-2.94116 -4.50041,-5.67816 -7.70712,-6.65217 -4.47029,-1.35781 -8.26895,-0.29866 -11.64727,3.24751 -3.70582,3.8899 -3.34718,-4.29308 -3.34718,76.37239 l 0,70.69821 1.18561,2.40833 c 1.36393,2.7705 3.01432,4.36708 5.86688,5.67558 2.48403,1.13944 5.82465,1.25104 8.63049,0.28831 2.53485,-0.86975 5.55439,-3.65059 6.86757,-6.32474 l 1.01298,-2.06275 0.18125,-25.37611 0.18126,-25.3761 24.56045,-0.0932 24.56044,-0.0932 -0.005,21.11908 c -0.004,17.60643 -0.097,21.511 -0.55635,23.47543 -1.71136,7.31869 -4.71068,11.92743 -11.28968,17.34772 -3.33645,2.74879 -19.53312,15.90103 -31.25126,25.37706 -2.87087,2.32156 -7.5698,6.13782 -10.44205,8.48058 l -5.22225,4.25957 -10.94642,-0.046 c -6.02052,-0.0254 -11.92518,-0.1743 -13.12148,-0.33116 z m 46.77378,0.0297 c -0.21461,-0.34722 1.83143,-2.39062 3.82636,-3.82136 1.058,-0.75879 3.52477,-2.76192 10.48377,-8.51335 4.38184,-3.62145 6.49262,-5.31267 11.09215,-8.88741 1.53928,-1.1963 3.72938,-2.99076 4.86692,-3.98767 1.13754,-0.99692 3.42541,-2.87294 5.08414,-4.16894 1.65873,-1.29599 4.5147,-3.57984 6.34656,-5.07522 1.8319,-1.49537 4.3461,-3.53453 5.5871,-4.53144 1.24103,-0.99692 4.15812,-3.36234 6.4825,-5.25648 2.32435,-1.89415 5.67856,-4.58583 7.4538,-5.98151 1.77524,-1.39569 3.89541,-3.12229 4.71154,-3.83691 0.81614,-0.71461 4.30988,-3.5465 7.76386,-6.29309 3.45401,-2.7466 7.47243,-5.99552 8.92981,-7.21983 4.96285,-4.16915 8.16393,-6.75419 18.81534,-15.19432 3.19575,-2.53228 8.01315,-6.4811 9.11422,-7.47091 0.39877,-0.35847 2.11166,-1.74292 3.80642,-3.07656 1.69476,-1.33364 3.97861,-3.15424 5.07522,-4.04577 1.09661,-0.89154 2.17419,-1.62097 2.3946,-1.62098 0.47881,-10e-6 5.44509,3.98489 10.67971,8.56932 2.08048,1.82207 4.70314,4.02435 5.82809,4.89396 1.76923,1.36763 5.37626,4.38602 19.86774,16.62552 1.53445,1.296 3.94254,3.33515 5.35132,4.53145 1.40878,1.1963 4.07,3.39859 5.91381,4.89396 1.84383,1.49538 4.34997,3.61838 5.56921,4.71778 1.21924,1.0994 2.95089,2.55837 3.84812,3.24216 0.89723,0.6838 2.77325,2.24137 4.16893,3.46129 2.26702,1.9815 4.95631,4.22842 9.76013,8.15463 0.85383,0.69784 4.39045,3.65733 7.85917,6.57665 3.46871,2.91932 8.1012,6.78983 10.29442,8.60113 2.19322,1.81131 4.80333,4.00678 5.80025,4.87882 0.99692,0.87204 3.77016,3.19052 6.16277,5.15218 2.3926,1.96165 5.10377,4.22921 6.02482,5.039 1.89356,1.66482 2.90877,2.51673 5.75694,4.83091 3.33975,2.71362 5.10731,4.45286 4.88722,4.80896 -0.29227,0.4729 -239.31466,0.47693 -239.60696,0.004 z m 256.25225,-2.47382 c -4.5959,-3.89644 -26.25569,-22.08453 -30.74533,-25.81737 -2.03836,-1.69476 -4.26591,-3.55377 -4.95011,-4.13114 l -1.24399,-1.04976 -0.18126,-77.61617 -0.18126,-77.61616 -16.67572,-0.18126 -16.67573,-0.18126 0,-22.83849 0,-22.8385 61.44643,0 61.446404,0 0,22.8385 0,22.83849 -16.85698,0.18126 -16.856984,0.18126 -0.18126,94.43536 -0.18126,94.43538 -7.43154,0.0787 -7.43157,0.0787 -3.29984,-2.79761 z m -66.48447,-55.76314 c -4.8849,-4.1 -12.21657,-10.25486 -16.29261,-13.67744 -16.10708,-13.52487 -18.81136,-15.79204 -23.42181,-19.63597 -2.63055,-2.19322 -8.17411,-6.84249 -12.319,-10.3317 -11.73112,-9.87539 -15.55555,-13.02776 -15.8195,-13.03962 -0.21932,-0.01 -5.45434,4.15399 -18.78836,14.94394 -2.4923,2.01677 -6.89686,5.57458 -9.78793,7.90624 -10.07326,8.12414 -13.27489,10.70987 -19.93837,16.10277 -26.98911,21.84295 -25.73862,20.88895 -25.73862,19.6358 0,-0.26971 1.56169,-7.4883 3.4704,-16.04132 1.90869,-8.55303 4.33845,-19.46613 5.39939,-24.25134 1.06097,-4.7852 3.81867,-17.18324 6.12822,-27.55119 2.30955,-10.36796 6.25035,-28.06779 8.75736,-39.33297 2.50702,-11.26517 5.28606,-23.74478 6.1756,-27.73245 0.88958,-3.98768 3.41226,-15.31973 5.60595,-25.18235 2.19373,-9.86261 4.11738,-18.06084 4.27482,-18.21828 0.15744,-0.15744 15.68874,-0.24463 34.514,-0.19376 l 34.22775,0.0925 0.82827,3.4439 c 1.00747,4.18894 8.65961,36.64904 10.59697,44.95196 2.77034,11.87275 5.50814,23.47125 6.58899,27.91371 0.60637,2.4923 1.56255,6.5706 2.12483,9.0629 0.56229,2.49229 2.18584,9.42541 3.6079,15.40692 1.42206,5.98151 3.30818,13.97498 4.19137,17.76327 0.8832,3.78829 2.6743,11.37394 3.98022,16.85699 1.30592,5.48305 2.62583,11.11111 2.93312,12.50679 0.3073,1.39569 1.20895,5.22929 2.00367,8.51912 0.79472,3.28983 2.50421,10.54921 3.79888,16.13195 1.29466,5.58275 2.43974,10.43593 2.5446,10.78485 0.11459,0.38125 1.1e-4,0.6314 -0.28689,0.62687 -0.26267,-0.004 -4.47432,-3.36208 -9.35922,-7.46208 z m -55.10241,-69.50709 c 0,-0.26723 -0.40123,-2.5103 -0.89164,-4.98459 -0.49041,-2.4743 -1.88153,-9.63738 -3.09143,-15.91797 -1.20986,-6.28059 -2.67087,-13.78466 -3.24665,-16.67573 -0.57579,-2.89106 -1.47845,-7.54032 -2.00595,-10.3317 -1.77277,-9.38103 -3.11495,-15.57703 -3.44604,-15.9081 -0.19659,-0.19662 -0.43483,0.093 -0.59278,0.72064 -0.77042,3.06151 -12.35378,63.08142 -12.2186,63.31143 0.0879,0.14954 5.85978,0.27189 12.82646,0.27189 10.34668,0 12.66663,-0.089 12.66663,-0.48587 z"
       style="fill:#f3cd01" />
    <path
       inkscape:connector-curvature="0"
       id="path3098"
       style="font-size:54.97891235px;font-style:normal;font-variant:normal;font-weight:bold;font-stretch:normal;line-height:125%;letter-spacing:0px;word-spacing:0px;fill:#000000;fill-opacity:1;stroke:none;font-family:Impact;-inkscape-font-specification:Impact Bold"
       d="m 51.075894,460.76802 0,3.41348 -2.633865,0 0,13.64343 -4.43543,0 0,-13.64343 -2.623331,0 0,-3.41348 9.692626,0" />
    <path
       inkscape:connector-curvature="0"
       id="path3100"
       style="font-size:54.97891235px;font-style:normal;font-variant:normal;font-weight:bold;font-stretch:normal;line-height:125%;letter-spacing:0px;word-spacing:0px;fill:#000000;fill-opacity:1;stroke:none;font-family:Impact;-inkscape-font-specification:Impact Bold"
       d="m 52.0873,460.76802 7.395895,0 0,3.41348 -2.960464,0 0,3.23439 2.770827,0 0,3.24492 -2.770827,0 0,3.75063 3.255455,0 0,3.41349 -7.690886,0 0,-17.05691" />
    <path
       inkscape:connector-curvature="0"
       id="path3102"
       style="font-size:54.97891235px;font-style:normal;font-variant:normal;font-weight:bold;font-stretch:normal;line-height:125%;letter-spacing:0px;word-spacing:0px;fill:#000000;fill-opacity:1;stroke:none;font-family:Impact;-inkscape-font-specification:Impact Bold"
       d="m 71.630584,460.76802 -2.539045,7.70142 2.781361,9.35549 -4.582927,0 -1.791029,-7.31161 0,7.31161 -4.435432,0 0,-17.05691 4.435432,0 0,6.6268 1.970133,-6.6268 4.161507,0" />
    <path
       inkscape:connector-curvature="0"
       id="path3104"
       style="font-size:54.97891235px;font-style:normal;font-variant:normal;font-weight:bold;font-stretch:normal;line-height:125%;letter-spacing:0px;word-spacing:0px;fill:#000000;fill-opacity:1;stroke:none;font-family:Impact;-inkscape-font-specification:Impact Bold"
       d="m 82.55586,460.76802 0,17.05691 -3.887584,0 -2.307266,-7.7541 0,7.7541 -3.708483,0 0,-17.05691 3.708483,0 2.486369,7.68035 0,-7.68035 3.708481,0" />
    <path
       inkscape:connector-curvature="0"
       id="path3106"
       style="font-size:54.97891235px;font-style:normal;font-variant:normal;font-weight:bold;font-stretch:normal;line-height:125%;letter-spacing:0px;word-spacing:0px;fill:#000000;fill-opacity:1;stroke:none;font-family:Impact;-inkscape-font-specification:Impact Bold"
       d="m 88.76125,460.76802 0,17.05691 -4.43543,0 0,-17.05691 4.43543,0" />
    <path
       inkscape:connector-curvature="0"
       id="path3108"
       style="font-size:54.97891235px;font-style:normal;font-variant:normal;font-weight:bold;font-stretch:normal;line-height:125%;letter-spacing:0px;word-spacing:0px;fill:#000000;fill-opacity:1;stroke:none;font-family:Impact;-inkscape-font-specification:Impact Bold"
       d="m 101.12989,460.76802 -2.53905,7.70142 2.78136,9.35549 -4.58292,0 -1.79103,-7.31161 0,7.31161 -4.43544,0 0,-17.05691 4.43544,0 0,6.6268 1.97013,-6.6268 4.16151,0" />
    <path
       inkscape:connector-curvature="0"
       id="path3110"
       style="font-size:54.97891235px;font-style:normal;font-variant:normal;font-weight:bold;font-stretch:normal;line-height:125%;letter-spacing:0px;word-spacing:0px;fill:#f3cd01;fill-opacity:1;stroke:none;font-family:Impact;-inkscape-font-specification:Impact Bold"
       d="m 113.60388,460.76802 2.53904,17.05691 -4.54078,0 -0.22124,-3.06582 -1.59086,0 -0.26339,3.06582 -4.59346,0 2.25459,-17.05691 6.4161,0 m -2.34941,10.96741 c -0.22477,-1.93149 -0.44952,-4.31601 -0.67427,-7.15358 -0.44952,3.25898 -0.73046,5.64351 -0.84284,7.15358 l 1.51711,0" />
    <path
       inkscape:connector-curvature="0"
       id="path3112"
       style="font-size:54.97891235px;font-style:normal;font-variant:normal;font-weight:bold;font-stretch:normal;line-height:125%;letter-spacing:0px;word-spacing:0px;fill:#f3cd01;fill-opacity:1;stroke:none;font-family:Impact;-inkscape-font-specification:Impact Bold"
       d="m 121.33691,460.76802 0,13.64342 2.69708,0 0,3.41349 -7.13252,0 0,-17.05691 4.43544,0" />
    <path
       inkscape:connector-curvature="0"
       id="path3114"
       style="font-size:54.97891235px;font-style:normal;font-variant:normal;font-weight:bold;font-stretch:normal;line-height:125%;letter-spacing:0px;word-spacing:0px;fill:#f3cd01;fill-opacity:1;stroke:none;font-family:Impact;-inkscape-font-specification:Impact Bold"
       d="m 133.34733,460.76802 2.53905,17.05691 -4.54079,0 -0.22124,-3.06582 -1.59086,0 -0.26338,3.06582 -4.59346,0 2.25458,-17.05691 6.4161,0 m -2.34941,10.96741 c -0.22476,-1.93149 -0.44951,-4.31601 -0.67426,-7.15358 -0.44952,3.25898 -0.73047,5.64351 -0.84284,7.15358 l 1.5171,0" />
    <path
       inkscape:connector-curvature="0"
       id="path3116"
       style="font-size:54.97891235px;font-style:normal;font-variant:normal;font-weight:bold;font-stretch:normal;line-height:125%;letter-spacing:0px;word-spacing:0px;fill:#f3cd01;fill-opacity:1;stroke:none;font-family:Impact;-inkscape-font-specification:Impact Bold"
       d="m 144.4201,460.76802 0,3.41348 -2.63386,0 0,13.64343 -4.43543,0 0,-13.64343 -2.62334,0 0,-3.41348 9.69263,0" />
    <path
       inkscape:connector-curvature="0"
       id="path3118"
       style="font-size:54.97891235px;font-style:normal;font-variant:normal;font-weight:bold;font-stretch:normal;line-height:125%;letter-spacing:0px;word-spacing:0px;fill:#000000;fill-opacity:1;stroke:none;font-family:Impact;-inkscape-font-specification:Impact Bold"
       d="m 149.22428,460.76802 4.4249,0 c 1.39769,1e-5 2.45475,0.10888 3.17117,0.32659 0.72343,0.21775 1.30639,0.66024 1.74889,1.32747 0.44247,0.66024 0.66372,1.72783 0.66373,3.20278 -1e-5,0.99737 -0.15804,1.69271 -0.47409,2.08603 -0.30906,0.39333 -0.92362,0.69534 -1.84371,0.90604 1.02544,0.2318 1.72078,0.61809 2.08602,1.15891 0.36522,0.5338 0.54784,1.35557 0.54784,2.46529 l 0,1.58033 c 0,1.15188 -0.13345,2.00525 -0.40034,2.56011 -0.25989,0.55487 -0.6778,0.93415 -1.25372,1.13783 -0.57595,0.20369 -1.75592,0.30553 -3.53992,0.30553 l -5.13077,0 0,-17.05691 m 4.43543,2.91832 0,3.79276 c 0.18963,-0.007 0.33713,-0.0105 0.44249,-0.0105 0.43546,0 0.71289,-0.10535 0.8323,-0.31607 0.1194,-0.21772 0.1791,-0.83229 0.17911,-1.8437 -1e-5,-0.53379 -0.0492,-0.90604 -0.1475,-1.11676 -0.0983,-0.21772 -0.22828,-0.35468 -0.38982,-0.41089 -0.15452,-0.0562 -0.46005,-0.0878 -0.91658,-0.0948 m 0,6.44771 0,4.77256 c 0.6251,-0.0211 1.02193,-0.1194 1.19051,-0.29499 0.17558,-0.17559 0.26338,-0.60754 0.26339,-1.29586 l 0,-1.59086 c -1e-5,-0.73045 -0.0773,-1.17294 -0.23179,-1.32746 -0.15452,-0.15452 -0.56189,-0.24231 -1.22211,-0.26339" />
    <path
       inkscape:connector-curvature="0"
       id="path3120"
       style="font-size:54.97891235px;font-style:normal;font-variant:normal;font-weight:bold;font-stretch:normal;line-height:125%;letter-spacing:0px;word-spacing:0px;fill:#000000;fill-opacity:1;stroke:none;font-family:Impact;-inkscape-font-specification:Impact Bold"
       d="m 161.15043,460.76802 7.39589,0 0,3.41348 -2.96046,0 0,3.23439 2.77082,0 0,3.24492 -2.77082,0 0,3.75063 3.25545,0 0,3.41349 -7.69088,0 0,-17.05691" />
    <path
       inkscape:connector-curvature="0"
       id="path3122"
       style="font-size:54.97891235px;font-style:normal;font-variant:normal;font-weight:bold;font-stretch:normal;line-height:125%;letter-spacing:0px;word-spacing:0px;fill:#000000;fill-opacity:1;stroke:none;font-family:Impact;-inkscape-font-specification:Impact Bold"
       d="m 170.12663,460.76802 3.13957,0 c 2.09304,1e-5 3.5083,0.0808 4.24579,0.24231 0.7445,0.16156 1.34853,0.57595 1.8121,1.24319 0.47058,0.66023 0.70587,1.71729 0.70588,3.17117 -1e-5,1.32748 -0.16507,2.21948 -0.49517,2.67601 -0.33012,0.45654 -0.97981,0.73047 -1.94906,0.82176 0.87795,0.21774 1.46793,0.50923 1.76996,0.87445 0.30201,0.36523 0.48813,0.70237 0.55838,1.0114 0.0772,0.30203 0.11588,1.14135 0.11589,2.51798 l 0,4.49864 -4.11937,0 0,-5.66808 c 0,-0.91307 -0.0737,-1.47847 -0.22124,-1.69621 -0.14048,-0.21772 -0.51625,-0.32659 -1.12729,-0.3266 l 0,7.69089 -4.43544,0 0,-17.05691 m 4.43544,2.91832 0,3.79276 c 0.49867,2e-5 0.84634,-0.0667 1.04301,-0.20017 0.20367,-0.14046 0.30552,-0.58646 0.30552,-1.338 l 0,-0.93766 c 0,-0.54081 -0.0983,-0.8955 -0.29499,-1.06408 -0.18964,-0.16855 -0.54082,-0.25284 -1.05354,-0.25285" />
    <path
       inkscape:connector-curvature="0"
       id="path3124"
       style="font-size:54.97891235px;font-style:normal;font-variant:normal;font-weight:bold;font-stretch:normal;line-height:125%;letter-spacing:0px;word-spacing:0px;fill:#000000;fill-opacity:1;stroke:none;font-family:Impact;-inkscape-font-specification:Impact Bold"
       d="m 189.41707,460.76802 2.53905,17.05691 -4.54078,0 -0.22125,-3.06582 -1.59085,0 -0.26339,3.06582 -4.59346,0 2.25458,-17.05691 6.4161,0 m -2.3494,10.96741 c -0.22477,-1.93149 -0.44952,-4.31601 -0.67427,-7.15358 -0.44952,3.25898 -0.73047,5.64351 -0.84284,7.15358 l 1.51711,0" />
    <path
       inkscape:connector-curvature="0"
       id="path3126"
       style="font-size:54.97891235px;font-style:normal;font-variant:normal;font-weight:bold;font-stretch:normal;line-height:125%;letter-spacing:0px;word-spacing:0px;fill:#000000;fill-opacity:1;stroke:none;font-family:Impact;-inkscape-font-specification:Impact Bold"
       d="m 200.46878,460.76802 0,3.41348 -2.63387,0 0,13.64343 -4.43543,0 0,-13.64343 -2.62333,0 0,-3.41348 9.69263,0" />
    <path
       style="fill:#f3cd01"
       d="m 63.219413,455.60715 46.673847,-38.2229 44.74465,38.22106 z"
       id="path3076"
       inkscape:connector-curvature="0"
       sodipodi:nodetypes="cccc" />
    <path
       d="m 1261.7763,322.20138 0,57.19218 -36.931,0 0,228.59217 -62.192,0 0,-228.59217 -36.7834,0 0,-57.19218 135.9064,0"
       style="font-size:160.61129761px;font-style:normal;font-variant:normal;font-weight:bold;font-stretch:normal;line-height:125%;letter-spacing:0px;word-spacing:0px;fill:#000000;fill-opacity:1;stroke:none;font-family:Impact;-inkscape-font-specification:Impact Bold"
       id="path3078"
       inkscape:connector-curvature="0" />
    <path
       sodipodi:nodetypes="ccccccccccccc"
       d="m 1371.5356,322.20138 35.6014,285.78435 -63.6691,0 -3.1022,-51.36705 -22.3063,0 -3.6932,51.36705 -64.4079,0 31.6131,-285.78435 89.9642,0 m -32.9427,150.36141 -9.4543,-86.4615 -11.8178,86.4615 21.2721,0"
       style="font-size:160.61129761px;font-style:normal;font-variant:normal;font-weight:bold;font-stretch:normal;line-height:125%;letter-spacing:0px;word-spacing:0px;fill:#000000;fill-opacity:1;stroke:none;font-family:Impact;-inkscape-font-specification:Impact Bold"
       id="path3080"
       inkscape:connector-curvature="0" />
    <path
       sodipodi:nodetypes="cccccccscccccccccccccsscc"
       d="m 1417.7732,322.20138 52.0817,0 c 19.5982,3e-4 37.1107,1.82434 47.1561,5.47209 10.1436,3.64836 19.9996,11.06215 26.204,22.2414 16.7107,30.15361 14.3544,91.68751 -17.6029,103.79321 14.3783,3.88356 19.419,10.35592 24.5402,19.41708 13.89,25.61103 13.8081,113.33321 -23.1223,131.1686 -8.0757,3.4127 -12.3004,3.69197 -37.3149,3.69197 l -71.9419,0 0,-285.78435 m 62.192,48.8958 0,63.54683 c 2.659,-0.11754 4.7271,-0.17631 6.2045,-0.1765 6.1059,1.7e-4 9.9959,-1.76502 11.6703,-5.29556 1.674,-3.64788 2.5111,-13.94481 2.5113,-30.89084 -2e-4,-8.9434 -0.6896,-15.1804 -2.0683,-18.71101 -1.3788,-3.64783 -3.2007,-5.9426 -5.4656,-6.88425 -2.1668,-0.9412 -6.4509,-1.47076 -12.8522,-1.58867 m 0,108.02965 0,79.96312 c 8.765,-0.35298 14.3291,-2.0005 16.693,-4.94254 2.4619,-2.94192 3.6929,-10.17919 3.6931,-21.71182 l 0,-26.65438 c -2e-4,-12.23854 -1.0835,-19.65235 -3.2501,-22.2414 -2.1666,-2.58881 -7.8786,-4.05981 -17.136,-4.41298"
       style="font-size:160.61129761px;font-style:normal;font-variant:normal;font-weight:bold;font-stretch:normal;line-height:125%;letter-spacing:0px;word-spacing:0px;fill:#000000;fill-opacity:1;stroke:none;font-family:Impact;-inkscape-font-specification:Impact Bold"
       id="path3082"
       inkscape:connector-curvature="0" />
    <path
       style="fill:#000000;fill-opacity:1;stroke:none"
       d="m 26.647898,338.12663 0,11.69333 0,11.68783 7.585784,0 7.585756,0 0,47.02182 0,47.02731 7.364927,0 7.370449,0 5.393954,-4.48853 5.388433,-4.48852 0,-42.53878 0,-42.5333 7.585764,0 7.585765,0 0,-11.68783 0,-11.69333 -27.93041,0 -27.930422,0 z m 64.158802,0 -5.39948,48.8382 c -2.9696,26.86132 -5.37732,48.86588 -5.34978,48.89339 0.0275,0.0275 6.73042,-5.52864 14.89548,-12.3448 8.16506,-6.81616 14.91962,-12.39449 15.01142,-12.39449 0.0918,0 6.86133,5.77887 15.03903,12.84169 8.1777,7.06277 14.888,12.81605 14.91757,12.7865 0.0574,-0.0574 -12.0307,-97.54046 -12.17919,-98.21744 l -0.0883,-0.40305 -18.42336,0 -18.42336,0 z m 56.12582,0 0.011,52.42679 0.0166,52.4213 7.32629,6.30491 7.32628,6.30492 12.8693,-0.0773 c 14.08603,-0.0802 14.078,-0.0805 16.71187,-1.18148 4.88557,-2.04224 8.7311,-7.35413 11.05843,-15.28745 3.23122,-11.0145 3.33706,-26.05537 0.25397,-35.68181 -1.47637,-4.60971 -4.15614,-7.95455 -7.79004,-9.71686 -1.00611,-0.48789 -2.21142,-0.97874 -2.67766,-1.09314 -0.46624,-0.1144 -0.8447,-0.26769 -0.8447,-0.34229 0,-0.0746 0.26069,-0.24544 0.5797,-0.37542 2.01877,-0.82262 4.63948,-2.99626 6.13376,-5.09031 4.02243,-5.63692 6.02203,-13.75198 5.58166,-22.65791 -0.34517,-6.98052 -2.16687,-12.96716 -5.13999,-16.88301 -2.58138,-3.39994 -6.38589,-6.00932 -10.47322,-7.19378 -5.27592,-1.52892 -10.41152,-1.87608 -27.95801,-1.87714 l -12.98524,0 z m 25.3411,19.99131 0.85022,0 c 1.377,0.004 3.95201,0.34391 4.58238,0.60732 1.43301,0.59873 2.45236,2.47022 2.88192,5.28905 0.23439,1.53806 0.26857,2.9357 0.19324,7.93355 -0.12102,8.02806 -0.39731,9.95229 -1.59555,11.11368 -0.31717,0.30741 -0.9389,0.69287 -1.38024,0.85574 -0.52817,0.19485 -1.61254,0.32605 -3.16901,0.38645 l -2.36296,0.0939 0,-13.13983 0,-13.13983 z m -61.97802,6.27729 c 0.0337,0 0.0728,0.0515 0.1049,0.14355 0.0784,0.22461 3.8858,34.98525 3.87569,35.38367 -0.002,0.0736 -2.0182,0.13253 -4.483,0.13253 l -4.48299,0 0.10489,-0.57973 c 0.0563,-0.31899 1.15228,-8.28825 2.43473,-17.71116 1.28245,-9.42287 2.35562,-17.21549 2.39057,-17.31365 0.0131,-0.0369 0.035,-0.0557 0.0552,-0.0552 z m 61.97802,38.14417 1.38575,0.11593 c 3.3531,0.28339 5.32332,0.94118 6.04542,2.0096 0.21097,0.31216 0.53607,1.18803 0.71773,1.94892 0.30303,1.26919 0.32861,2.28612 0.32573,12.35583 -0.003,10.79343 -0.008,11.00363 -0.39751,12.38345 -0.72404,2.5639 -1.49759,3.25387 -4.26216,3.84259 -0.87237,0.18575 -2.08627,0.37412 -2.69974,0.41407 l -1.11522,0.0718 0,-16.57387 0,-16.5683 z"
       id="path3089"
       inkscape:connector-curvature="0" />
    <path
       inkscape:connector-curvature="0"
       id="path3143"
       style="font-size:160.61129761px;font-style:normal;font-variant:normal;font-weight:bold;font-stretch:normal;line-height:125%;letter-spacing:0px;word-spacing:0px;fill:#000000;fill-opacity:1;stroke:none;font-family:Impact;-inkscape-font-specification:Impact Bold"
       d="m 382.33704,330.24751 0,30.36202 -19.6058,0 0,121.35435 -33.0163,0 0,-121.35435 -19.5275,0 0,-30.36202 72.1496,0" />
    <path
       inkscape:connector-curvature="0"
       id="path3145"
       style="font-size:160.61129761px;font-style:normal;font-variant:normal;font-weight:bold;font-stretch:normal;line-height:125%;letter-spacing:0px;word-spacing:0px;fill:#000000;fill-opacity:1;stroke:none;font-family:Impact;-inkscape-font-specification:Impact Bold"
       d="m 440.60574,330.24751 18.9,151.71637 -33.8005,0 -1.6469,-27.26959 -11.8419,0 -1.9606,27.26959 -34.1927,0 16.7827,-151.71637 47.7599,0 m -17.4885,79.82343 -5.0191,-45.90043 -6.2738,45.90043 11.2929,0"
       sodipodi:nodetypes="ccccccccccccc" />
    <path
       inkscape:connector-curvature="0"
       id="path3147"
       style="font-size:160.61129761px;font-style:normal;font-variant:normal;font-weight:bold;font-stretch:normal;line-height:125%;letter-spacing:0px;word-spacing:0px;fill:#000000;fill-opacity:1;stroke:none;font-family:Impact;-inkscape-font-specification:Impact Bold"
       d="m 465.15224,330.24751 29.545,0 c 10.4042,1.6e-4 19.7012,0.9685 25.0341,2.90501 5.385,1.93683 10.6173,5.87264 13.9111,11.80745 8.8713,16.00786 5.7244,48.6748 -11.241,55.10144 7.6331,2.06169 10.3091,5.49772 13.0278,10.30808 7.3739,13.59631 7.3304,60.16601 -12.2751,69.63441 -4.2872,1.81172 -6.53,1.95998 -19.8096,1.95998 l -38.1923,0 0,-151.71637 m 33.0163,25.95766 0,33.73556 c 1.4116,-0.0624 2.5095,-0.0936 3.2938,-0.0937 3.2415,9e-5 5.3066,-0.93701 6.1955,-2.81129 0.8887,-1.93658 1.3331,-7.40298 1.3332,-16.39924 -10e-5,-4.74785 -0.3661,-8.05893 -1.098,-9.93325 -0.732,-1.93655 -1.6992,-3.15479 -2.9016,-3.65469 -1.1503,-0.49966 -3.4246,-0.78079 -6.8229,-0.84339 m 0,57.35047 0,42.45059 c 4.6531,-0.18739 7.607,-1.06202 8.8619,-2.62388 1.307,-1.5618 1.9605,-5.4039 1.9606,-11.52631 l 0,-14.1502 c -10e-5,-6.49716 -0.5752,-10.43298 -1.7254,-11.80745 -1.1502,-1.37434 -4.1826,-2.15526 -9.0971,-2.34275"
       sodipodi:nodetypes="cccccccscccccccccccccsscc" />
    <path
       sodipodi:nodetypes="ccsssssccccssssscsscssssssccccsssscsssccscssssccccssccscsssscccsccscccssscssscssssscsscscscccscccccsssssccsssccssscsssssccccccscccssccscssscssccssssccsscccccccccccccssssscsscscsscssccsccccccssccccccsscccsccsscscscscccscccscsss"
       inkscape:connector-curvature="0"
       id="path3149"
       d="m 568.32241,476.55231 c -3.35854,-5.46453 2.39698,-19.68562 6.98506,-21.37037 0.82981,0.27601 3.93005,0.40533 5.87089,0.24488 1.9273,-0.15931 5.24376,-1.58914 4.20839,-1.81437 -0.4243,-0.0923 -1.25249,-0.21134 -3.96543,-0.56996 -1.61423,-0.21337 -4.10885,-0.54423 -5.54366,-0.73525 -2.43771,-0.32453 -4.92731,-0.85483 -5.79412,-1.23419 -0.49167,-0.21516 -0.46592,-0.5794 0.42169,-5.96837 0.40472,-2.45734 0.83167,-5.09237 0.9487,-5.85563 0.17689,-1.15378 0.33938,-1.51382 0.96356,-2.13547 0.7218,-0.71875 0.80886,-0.745 2.24776,-0.67747 0.8233,0.0388 2.24941,0.13979 3.1691,0.22477 1.57795,0.1458 1.73625,0.11745 2.80892,-0.50371 1.31832,-0.76334 3.17502,-2.54956 4.04774,-3.89413 0.33396,-0.5145 0.69276,-0.93155 0.79728,-0.92677 0.75473,0.0345 5.34428,-0.50761 6.7252,-0.79434 2.79764,-0.58091 5.00964,-0.26717 6.55659,0.92996 0.31181,0.24132 1.63743,0.70437 2.94584,1.029 1.30841,0.32464 4.0093,1.0609 6.00208,1.63614 3.92302,1.13244 4.67574,1.56444 5.19279,2.98021 0.14724,0.40328 0.31419,0.73538 0.37097,0.73798 0.0569,0.002 0.75688,-0.5003 1.55568,-1.11754 0.92562,-0.71521 1.74493,-1.16341 2.25896,-1.23575 0.97005,-0.13648 1.20154,-0.43365 2.29389,-2.94481 4.15922,-9.56178 12.49947,-27.3837 14.66576,-31.33876 3.19483,-5.83288 9.08693,-10.87848 16.19941,-13.87204 1.41048,-0.59366 2.81901,-1.1921 3.13001,-1.32986 0.97956,-0.4339 5.86268,-4.0427 5.90606,-4.36474 0.0232,-0.16916 0.0705,-0.4047 0.10593,-0.52338 0.0351,-0.11868 0.0836,-0.36439 0.10691,-0.54606 0.0538,-0.41852 1.00331,-0.17466 1.73157,0.4447 0.82081,0.69809 1.45639,0.55597 3.64088,-0.81421 1.96132,-1.2302 6.24896,-3.92978 12.64189,-7.95951 1.61012,-1.01497 4.44707,-2.7909 6.30426,-3.9465 2.68207,-1.66887 3.53327,-2.31933 4.1379,-3.16185 1.11352,-1.55163 2.50779,-2.28115 4.21105,-2.20333 1.18569,0.0542 1.46174,-0.0191 2.33667,-0.62099 0.54571,-0.37532 3.99761,-2.62766 7.67086,-5.0052 l 6.67871,-4.3228 0.58498,-1.56174 c 0.60946,-1.62696 1.51355,-2.72224 2.22041,-2.68993 0.22314,0.0102 0.93634,0.184 1.58486,0.38623 0.91042,0.28394 1.3964,0.32425 2.133,0.1769 1.97259,-0.39457 3.31812,0.60277 4.57687,3.39252 0.82707,1.83311 0.94578,2.76456 1.05498,8.28202 0.0931,4.7017 0.20213,5.25864 1.26424,6.45805 0.46141,0.52111 1.0243,1.35354 1.2508,1.84986 0.51152,1.12084 0.46814,3.01872 -0.091,3.98523 -0.5051,0.87296 -0.69646,4.24571 -0.30182,5.31895 0.22153,0.60242 0.21448,0.89753 -0.0386,1.61785 -0.24854,0.70714 -0.28692,1.74368 -0.19475,5.2517 0.10761,4.08914 0.15737,4.49157 0.77297,6.24762 0.82629,2.35729 0.80635,3.4844 -0.0897,5.07533 l -0.65458,1.16215 -0.10578,5.31097 c -0.067,3.3649 -0.0232,5.36732 0.11948,5.46475 0.31763,0.21699 0.63835,1.28231 0.6051,2.01037 -0.0186,0.40778 0.1423,0.73861 0.47694,0.98042 0.59514,0.43001 1.35166,2.07857 1.31564,2.86693 -0.0501,1.09675 -0.54784,1.90991 -1.4081,2.30037 -1.10011,0.49932 -1.29686,0.81002 -2.82985,4.46841 -0.71712,1.71147 -1.73001,4.0605 -2.25094,5.22007 l -0.94697,2.1083 0.6262,0.7826 c 0.70205,0.87732 0.78501,1.94242 0.22602,2.90248 -0.18111,0.31101 -0.44978,0.83261 -0.59705,1.1591 -0.14734,0.32649 -0.50904,0.67294 -0.80393,0.76987 -0.78368,0.25769 -1.13285,1.3962 -1.14817,3.74368 -0.0128,1.96402 -0.0226,2.00102 -0.58904,2.24403 -0.41757,0.17915 -0.76503,0.67596 -1.26355,1.80702 -1.49083,3.38227 -2.50383,4.69044 -4.54928,5.87481 -1.89882,1.09947 -3.53492,1.42966 -6.3897,1.28956 -3.05929,-0.15017 -3.70655,-0.34457 -11.71186,-3.51851 l -5.9686,-2.36641 -3.10519,-2.48158 c -7.87002,-6.28946 -13.24317,-11.1104 -12.81681,-11.49951 0.0695,-0.0634 0.63366,-0.0244 1.25365,0.0869 0.8134,0.14595 1.28203,0.3749 1.68299,0.82227 0.38777,0.4326 1.23883,0.86239 2.8156,1.42189 1.24292,0.44103 2.71127,1.01419 3.26301,1.27368 1.39286,0.65506 2.6328,0.66952 3.82037,0.0445 0.53466,-0.28138 0.97608,-0.59779 0.9809,-0.70315 0.005,-0.10537 0.91865,-0.0955 2.03081,0.022 2.16327,0.22851 2.88446,0.0691 3.78197,-0.83596 0.23992,-0.24193 0.65424,-0.42992 0.92063,-0.41775 0.90343,0.0412 2.30102,-0.52507 4.50852,-1.82708 1.21051,-0.71397 2.44965,-1.41368 2.75363,-1.5549 0.30397,-0.14122 1.90141,-1.47058 3.54984,-2.95415 2.67353,-2.40601 3.0443,-2.66937 3.43242,-2.43825 0.23938,0.14251 0.67859,0.27023 0.97598,0.28382 0.46865,0.0214 0.56529,-0.0982 0.72409,-0.89645 0.10078,-0.50663 0.41678,-1.51685 0.7022,-2.24494 l 0.51883,-1.32378 -0.44758,-5.56242 c -1.70047,-21.13126 -2.82145,-34.04714 -2.96922,-34.2098 -0.0519,-0.0571 -0.36566,-0.006 -0.69737,0.11382 -0.33166,0.11971 -1.24924,0.45448 -2.03896,0.74398 -0.78977,0.2895 -1.83546,0.55853 -2.32378,0.59785 -0.48838,0.0393 -0.98945,0.13968 -1.11354,0.22303 -0.12409,0.0833 -3.80205,1.95692 -8.17322,4.16351 -4.37123,2.20658 -10.56742,5.34344 -13.76933,6.97081 -3.20198,1.62735 -9.19719,4.67379 -13.32274,6.76988 -7.64907,3.88627 -9.58816,5.09071 -11.82162,7.34302 -1.16424,1.17407 -1.30212,1.43193 -2.51784,4.70811 -1.21661,3.27842 -1.2958,3.6079 -1.46377,6.08791 -0.0975,1.44206 -0.2538,2.81527 -0.34699,3.05159 -0.15075,0.3824 0.0389,0.50955 1.72214,1.1551 3.8047,1.45911 4.13726,1.6314 4.44706,2.30412 0.16266,0.35305 0.27972,0.9912 0.26022,1.41811 -0.0195,0.42691 0.27635,1.68401 0.65758,2.79357 0.62666,1.82419 0.67611,2.16593 0.51605,3.56916 -0.17614,1.54349 -0.17239,1.55911 0.69388,2.91092 0.79837,1.24592 0.93928,1.7173 1.69169,5.6615 1.09738,5.75261 1.15304,5.49506 -2.53524,11.7395 -1.25658,2.12755 -2.38878,3.80764 -2.5983,3.85569 -0.20414,0.0468 -2.85915,0.14648 -5.90001,0.22145 -4.00054,0.0986 -5.53206,0.2101 -5.54088,0.4033 -0.0235,0.51435 1.11817,1.73504 2.06279,2.20556 1.48138,0.73789 9.00029,1.39444 12.81268,1.11879 3.0793,-0.22264 4.57485,-0.0496 7.03456,0.81355 1.41197,0.49553 3.64521,1.93122 4.26001,2.73861 0.53314,0.70025 2.38804,4.72724 2.3759,5.15818 -0.004,0.21815 0.12437,0.59367 0.28991,0.83474 0.21187,0.30836 0.27503,1.00832 0.21324,2.36091 -0.29211,2.4496 -2.01736,3.22411 -0.10979,5.94612 z m 80.15393,-29.56293 2.94948,-0.43144 1.19536,-1.67625 1.19541,-1.67626 -0.25002,-2.40801 c -0.23699,-2.28279 -0.2789,-2.41571 -0.80518,-2.55644 -0.73458,-0.19644 -2.60733,0.0835 -3.95296,0.59094 -1.02449,0.38632 -1.09263,0.46174 -1.26518,1.39969 -0.10025,0.54526 -0.19695,1.31229 -0.21487,1.70449 -0.0179,0.39222 -0.52274,1.74785 -1.12188,3.01251 -0.59903,1.26467 -1.09082,2.33399 -1.09276,2.37628 -0.006,0.13921 0.38233,0.10044 3.3626,-0.33551 z m -6.50442,-1.97279 c 0.88335,-0.6547 3.0709,-5.13502 2.69178,-5.51298 -0.093,-0.0927 -1.39648,-0.053 -2.89654,0.0884 -3.10708,0.29277 -3.60707,0.55785 -3.01678,1.59943 0.17954,0.31692 0.4451,0.68173 0.59007,0.81072 0.14497,0.12898 0.31448,0.65054 0.37667,1.15901 0.20305,1.65997 1.30026,2.56285 2.2548,1.8554 z m -0.39658,-6.31546 c 0.90908,-0.20419 1.82712,-0.41493 2.04009,-0.46831 0.29835,-0.0748 0.39805,-0.33573 0.43467,-1.13728 0.0261,-0.57211 0.002,-1.08971 -0.0528,-1.15019 -0.14002,-0.15338 -4.01253,0.1684 -4.2115,0.34994 -0.0892,0.0814 -0.23155,0.73337 -0.31629,1.44872 -0.17994,1.51968 -0.25235,1.48676 2.10583,0.95712 z m -6.42542,-1.94197 1.71711,-0.54767 1.09319,-2.83301 1.09307,-2.83299 -0.90773,-2.35639 -0.90773,-2.35639 -1.77194,-0.0841 -1.77194,-0.0841 -0.17262,0.81229 c -0.095,0.44675 -0.27861,3.10627 -0.40801,5.91001 -0.18837,3.98744 -0.17507,5.07832 0.0421,5.00864 0.15261,-0.0489 1.05016,-0.33556 1.99449,-0.6368 z m 14.88829,0.0183 c 1.72833,-0.47509 3.22055,-0.92978 3.31599,-1.01042 0.0954,-0.0806 -0.4833,-2.42003 -1.28593,-5.19867 -1.63763,-5.66878 -1.48533,-5.44399 -3.75818,-5.54784 -2.78047,-0.12703 -3.90894,0.83458 -3.75495,3.19974 0.12407,1.90495 0.98628,8.90114 1.1285,9.15668 0.22323,0.40103 1.20767,0.26549 4.35457,-0.59949 z m -7.73438,-1.60152 1.56473,-0.18817 -0.64763,-3.12926 c -0.35619,-1.72109 -0.70827,-3.19513 -0.7824,-3.27564 -0.18012,-0.19563 -1.58408,3.56273 -2.30839,6.17941 -0.19174,0.69261 -0.17394,0.696 2.17369,0.41366 z m 75.18435,-17.16495 c 0.55543,-1.65871 1.40396,-4.12968 1.88544,-5.49103 0.87134,-2.46341 0.87749,-2.50182 1.28077,-8.06045 l 0.4053,-5.58524 -0.62818,-1.09569 c -1.33802,-2.33378 -1.58685,-4.70566 -0.66209,-6.30997 0.29704,-0.51536 0.35942,-1.24379 0.37362,-4.36475 0.009,-2.0604 -0.0145,-3.80661 -0.053,-3.88048 -0.0387,-0.0739 -0.0281,-1.34055 0.023,-2.81484 l 0.0928,-2.68052 -0.69171,-0.82449 c -0.45676,-0.54435 -0.7675,-0.75364 -0.9145,-0.61596 -0.12541,0.11743 -0.56286,4.30233 -1.00118,9.57763 -0.42815,5.15302 -0.85559,10.10373 -0.94985,11.00162 -0.0943,0.89789 -0.31757,3.44663 -0.49625,5.66387 -0.17862,2.21724 -0.47855,4.51643 -0.66647,5.1093 -0.47962,1.51292 -1.4011,12.97196 -1.07219,13.33238 0.27179,0.29775 1.55499,0.49934 1.80252,0.28315 0.14405,-0.12577 0.71635,-1.58583 1.27184,-3.24454 z m -74.14777,-1.0653 c 0.82431,-0.32993 1.00071,-0.55404 2.06327,-2.62176 l 1.16195,-2.261 -0.40312,-0.706 -0.40308,-0.70599 -2.24866,3.03227 c -1.23682,1.66776 -2.2541,3.15507 -2.26065,3.30514 -0.0182,0.39692 1.04609,0.37526 2.09029,-0.0427 z m 42.19583,-43.8293 c 2.38389,-1.13417 3.6397,-1.86845 4.21875,-2.46674 0.78682,-0.81299 0.82935,-0.82906 0.931,-0.35212 0.0995,0.46625 0.18486,0.49309 1.274,0.40039 1.27602,-0.10861 1.63559,-0.27279 2.93384,-1.33972 0.61627,-0.5064 2.12925,-1.15679 5.22246,-2.24494 l 4.35483,-1.53198 0.48695,-0.96196 c 0.3546,-0.70054 0.52415,-1.49968 0.62391,-2.94057 0.11977,-1.72738 0.23072,-2.14499 0.87544,-3.28915 0.89769,-1.59311 0.96299,-2.05632 0.27588,-1.95709 -0.27246,0.0394 -3.23383,1.70263 -6.58081,3.69618 l -6.08544,3.62463 -0.86746,1.42729 c -0.47707,0.78501 -1.02307,1.5449 -1.21337,1.68864 -0.19019,0.14375 -2.75786,1.54065 -5.70584,3.10424 -2.99422,1.5881 -5.58969,3.11076 -5.88047,3.44978 -0.50403,0.58775 -0.50808,0.61688 -0.12628,0.92376 0.81569,0.65557 1.76433,0.43373 5.26261,-1.23064 z"
       style="fill:#000000" />
    <path
       inkscape:connector-curvature="0"
       id="path3963"
       style="font-size:220.65133667px;font-style:normal;font-variant:normal;font-weight:900;font-stretch:normal;line-height:125%;letter-spacing:0px;word-spacing:0px;fill:#000000;fill-opacity:1;stroke:none;font-family:Vitreous;-inkscape-font-specification:Vitreous Heavy"
       d="m -465.9946,705.31987 59.35521,0 0,119.81368 -59.35521,-59.13456 0,-60.67912 m 123.12344,62.66498 0,121.13758 -78.28377,-78.99807 14.55357,-104.79829 m -59.39324,47.92258 70.5518,75.19467 -70.5518,0 m 0,-11.7949 27.36076,0 0,72.47401 -27.36076,-27.36076 0,-45.11325"
       sodipodi:nodetypes="ccccccccccccccccc" />
    <path
       inkscape:connector-curvature="0"
       id="path3965"
       style="font-size:220.65133667px;font-style:normal;font-variant:normal;font-weight:900;font-stretch:normal;line-height:125%;letter-spacing:0px;word-spacing:0px;fill:#000000;fill-opacity:1;stroke:none;font-family:Vitreous;-inkscape-font-specification:Vitreous Heavy"
       d="m -257.37208,795.31861 -49.85855,-0.0156 -28.51559,-28.50253 48.82237,-0.0241 m -51.76756,2.96926 24.34695,24.34696 4.15734,138.96105 -28.50429,-27.0436 0,-136.26441 m 31.41542,25.52504 49.87199,0 0,50.06833 -49.87199,-50.06833 m -7.10254,-1.1554 85.24841,84.99531 0,26.89946 -27.29215,27.0958 -53.79891,0"
       sodipodi:nodetypes="cccccccccccccccccc" />
    <path
       style="fill:#000000"
       d="m -179.4338,886.31223 -4.36235,-4.3695 10.11235,0.1163 c 7.82722,0.09 10.11235,0.4251 10.11235,1.483 0,0.7518 0.45,1.0887 1,0.7488 0.55,-0.34 1,0.11 1,1 0,0.8899 0.3375,1.4244 0.75,1.1878 0.4125,-0.2367 1.86554,0.6368 3.22897,1.941 l 2.47897,2.3712 -9.97897,-0.054 -9.97897,-0.054 -4.36235,-4.3695 z m 34.53861,-2.2518 c -3.67194,-3.5654 -6.67626,-6.69038 -6.67626,-6.94449 0,-0.2541 -2.04166,-2.41819 -4.53702,-4.80909 -3.64187,-3.48941 -4.52918,-5.00497 -4.49732,-7.68157 0.0218,-1.83397 0.0124,-11.59594 -0.0209,-21.69328 -0.0333,-10.09733 0.17523,-18.59457 0.46342,-18.88275 0.84731,-0.84728 -4.05178,-4.25846 -6.11591,-4.25846 -1.04075,0 -2.40512,0.51285 -3.03193,1.13966 -0.85289,0.85289 -1.86763,0.52713 -4.03261,-1.29458 -2.33195,-1.96221 -2.64271,-2.668 -1.60254,-3.63967 0.70972,-0.66297 1.83439,-1.20541 2.49927,-1.20541 0.66488,0 0.9566,-0.25227 0.64827,-0.56061 -0.6811,-0.6811 3.93139,-5.43939 5.27272,-5.43939 0.525,0 0.95455,-0.3377 0.95455,-0.75044 0,-1.56755 7.96901,-9.38675 8.9492,-8.78096 0.61086,0.37753 0.78627,0.006 0.43236,-0.91666 -0.43365,-1.13008 0.0452,-1.5561 1.76145,-1.56725 1.46383,-0.01 1.90332,-0.30372 1.15978,-0.7764 -0.78959,-0.50194 -0.87992,-1.26281 -0.26532,-2.23468 0.62997,-0.99616 0.93687,-1.06861 0.94722,-0.22361 0.008,0.6875 0.49187,1.25 1.07433,1.25 0.58246,0 0.75961,-0.48444 0.39367,-1.07654 -0.36891,-0.59691 4.28288,-5.98051 10.44099,-12.08356 l 11.10632,-11.00702 0,16.02685 c 0,14.88481 0.14229,16.12653 1.99685,17.42551 1.36252,0.95435 3.34791,1.20052 6.25,0.77496 2.33923,-0.34303 5.51361,-0.38441 7.05418,-0.0919 l 2.80103,0.53175 -4.30103,4.12393 c -3.41772,3.27699 -5.08128,4.14395 -8.10024,4.2214 -2.08957,0.0536 -4.22707,0.3619 -4.75,0.68509 -0.56789,0.35097 -0.94184,12.74607 -0.92855,30.7786 0.0199,27.09507 0.1994,30.4097 1.75,32.32394 2.59942,3.20903 5.55923,4.36703 11.16202,4.36703 2.78616,0 5.06574,0.3587 5.06574,0.7971 0,0.4383 -1.73077,2.4871 -3.84617,4.5527 l -3.84616,3.7557 -9.47758,-0.1767 -9.47758,-0.1767 -6.67625,-6.4824 z m -16.17626,-78.26964 c 0.33992,-0.55 0.14148,-1 -0.44098,-1 -0.58246,0 -1.05902,0.45 -1.05902,1 0,0.55 0.19844,1 0.44098,1 0.24254,0 0.7191,-0.45 1.05902,-1 z m 10.99292,-0.98855 c 0.35034,-0.56686 -0.0511,-0.7345 -0.94098,-0.39301 -1.73242,0.66479 -2.04939,1.38156 -0.61096,1.38156 0.51754,0 1.21592,-0.44485 1.55194,-0.98855 z m 49.33918,81.69919 c 4.113149,-4.2286 4.669919,-4.4778 11.016113,-4.9319 11.70613,-0.8376 20.36231,-6.47291 25.27741,-16.45608 2.0912,-4.24748 2.36993,-6.19422 2.33707,-16.32266 -0.0339,-10.44565 -0.28802,-12.01735 -2.77193,-17.14286 -3.11226,-6.42209 -9.8433,-13.11542 -16.00045,-15.91079 -3.24646,-1.47392 -6.53833,-1.90737 -14.614624,-1.92439 l -10.424319,-0.022 2.31968,-2.46918 c 1.27582,-1.35805 2.77379,-2.18852 3.32882,-1.84549 0.555029,0.34303 0.725229,0.1643 0.378219,-0.39717 -0.976599,-1.58018 2.41342,-4.04311 6.64646,-4.82882 2.103504,-0.39044 5.924854,-2.11602 8.491894,-3.83462 8.79911,-5.89088 13.89846,-20.96819 10.46362,-30.93788 -0.72379,-2.10083 -1.01076,-4.3523 -0.6377,-5.00327 0.37306,-0.65096 0.3305,-0.87042 -0.0946,-0.48769 -0.42508,0.38273 -2.21839,-1.40171 -3.98513,-3.96542 -2.11439,-3.06818 -4.89557,-5.50107 -8.13745,-7.11837 -4.436514,-2.21327 -6.115884,-2.45113 -16.925203,-2.39714 -7.54353,0.0377 -12.5355,-0.36248 -13.44196,-1.07751 -1.08116,-0.85284 -1.26952,-0.84969 -0.75278,0.0126 0.4687,0.78212 -0.47321,1.15 -2.94443,1.15 -3.32567,0 -4.74903,1.11313 -16.79562,13.13493 -7.23911,7.22421 -13.47774,12.89421 -13.86362,12.6 -0.38587,-0.29421 -0.51409,-0.27243 -0.28492,0.0484 0.41055,0.57478 -0.0916,1.12595 -6.15734,6.75845 l -3.06036,2.84178 0.0485,-7.34178 c 0.0267,-4.03798 0.54442,-7.99066 1.15051,-8.78374 0.7417,-0.97051 0.75157,-1.23243 0.0302,-0.8011 -0.72733,0.43488 -1.11189,-2.27178 -1.19648,-8.42119 -0.0686,-4.98413 -0.31916,-9.25656 -0.55689,-9.49428 -0.23772,-0.23772 -3.0743,-0.47706 -6.30351,-0.53186 -5.29494,-0.0899 -6.2394,-0.4489 -9.62129,-3.65758 -2.0625,-1.95686 -3.75,-3.9141 -3.75,-4.34943 0,-0.43533 24.6375,-0.79419 54.75,-0.79748 62.695143,-0.007 61.750003,-0.11318 70.140733,7.89224 9.97567,9.51757 13.92039,23.74124 10.70585,38.60264 -1.04694,4.8402 -2.76146,8.51613 -3.70118,7.93535 -0.47987,-0.29657 -0.63713,0.0741 -0.34947,0.82375 0.28767,0.74964 -1.11165,3.50385 -3.10959,6.12047 -1.99793,2.61662 -3.47595,4.89634 -3.28447,5.06604 0.19147,0.1697 2.15121,1.21719 4.35497,2.32775 4.8514,2.44479 13.52169,11.40208 16.29087,16.83011 6.53029,12.80044 6.87992,27.22578 0.96189,39.68746 -4.42286,9.31328 -10.96632,15.99561 -19.61105,20.02711 l -6.64855,3.1006 -22,0.3728 -22.000003,0.3729 4.3321,-4.4537 z m -62.70454,-141.46064 c 1.24387,-1.58606 1.2085,-1.62143 -0.37756,-0.37755 -1.66575,1.30636 -2.19548,2.12755 -1.37244,2.12755 0.20765,0 0.99515,-0.7875 1.75,-1.75 z"
       id="path3168"
       inkscape:connector-curvature="0"
       sodipodi:nodetypes="ccsscsccccccccsscssssssscssscccscssscsssccsssssssscccccsssssscsscsssssscssssssscsssssssscscsscscssssssscscsssscccccssss" />
    <path
       inkscape:connector-curvature="0"
       id="path3179"
       style="font-size:156.91091919px;font-style:normal;font-variant:normal;font-weight:bold;font-stretch:normal;line-height:125%;letter-spacing:0px;word-spacing:0px;fill:#000000;fill-opacity:1;stroke:none;font-family:DejaVu Serif;-inkscape-font-specification:DejaVu Serif Bold"
       d="m -144.56844,704.93746 -9.69196,-6.48062 15.28639,0 0,-67.00198 -5.7271,0 -9.79982,-9.47716 52.69669,0 c 9.747627,0 17.067313,1.64255 21.959085,4.9274 4.891618,3.28501 7.337461,11.22682 7.337545,17.83233 0.07454,10.51443 -6.999742,14.62435 -10.681997,16.54965 12.172782,4.04605 15.502288,13.05137 15.502288,20.513 -9e-5,7.92671 -2.999375,13.7646 -8.997872,17.51371 -5.962945,3.7491 -15.31786,5.62367 -28.064779,5.62367 m -13.60392,-46.59611 7.01619,0 c 6.14136,4e-5 10.69385,-1.10684 13.657483,-3.32065 2.963523,-2.24941 4.445309,-5.67717 4.445372,-10.28327 -6.3e-5,-4.6417 -1.44614,-8.01589 -4.338259,-10.12261 -2.856516,-2.10656 -7.444706,-3.15989 -13.764596,-3.15996 l -7.01619,0 0,26.88649 m 0,40.11549 7.6589,0 c 6.81976,10e-6 11.87213,-1.35681 15.157118,-4.07046 3.284875,-2.71363 4.927347,-6.90906 4.92741,-12.5863 -6.3e-5,-5.71291 -1.660388,-9.97975 -4.980964,-12.80054 -3.320697,-2.82072 -8.355214,-4.2311 -15.103564,-4.23115 l -7.6589,0 0,33.68845"
       sodipodi:nodetypes="ccccccscccccccscccccccssccscc" />
    <path
       style="fill:#000000"
       d="m -344.68431,696.04258 c -1.81313,-2.95007 1.29403,-10.62746 3.77095,-11.53698 0.44798,0.14901 2.12167,0.21882 3.16945,0.13221 1.04047,-0.086 2.83089,-0.85792 2.27193,-0.97952 -0.22906,-0.0498 -0.67617,-0.11409 -2.14077,-0.30769 -0.87146,-0.11519 -2.21819,-0.29381 -2.99279,-0.39693 -1.31602,-0.1752 -2.66005,-0.46149 -3.12801,-0.66629 -0.26542,-0.11616 -0.25152,-0.3128 0.22766,-3.22208 0.21849,-1.32661 0.44898,-2.74916 0.51216,-3.16122 0.0955,-0.62287 0.18321,-0.81723 0.52019,-1.15284 0.38967,-0.38803 0.43667,-0.4022 1.21347,-0.36574 0.44447,0.021 1.21436,0.0755 1.71087,0.12134 0.85187,0.0787 0.93733,0.0634 1.51641,-0.27193 0.71172,-0.4121 1.71407,-1.3764 2.18522,-2.10227 0.18028,-0.27777 0.37398,-0.50291 0.43041,-0.50034 0.40745,0.0187 2.88516,-0.27403 3.63066,-0.42882 1.51033,-0.31362 2.7045,-0.14424 3.53963,0.50204 0.16834,0.13028 0.88398,0.38027 1.59034,0.55552 0.70636,0.17526 2.16446,0.57273 3.24027,0.88329 2.11789,0.61136 2.52425,0.84457 2.80338,1.60888 0.0794,0.21772 0.16962,0.397 0.20027,0.39841 0.0307,8.8e-4 0.40861,-0.27009 0.83985,-0.60331 0.4997,-0.38612 0.94201,-0.62808 1.21952,-0.66714 0.52369,-0.0737 0.64865,-0.23411 1.23837,-1.58978 2.2454,-5.162 6.74795,-14.78333 7.91744,-16.91851 1.72476,-3.14892 4.90566,-5.87283 8.7454,-7.48893 0.76146,-0.3205 1.52186,-0.64357 1.68975,-0.71794 0.52883,-0.23424 3.16502,-2.18249 3.18844,-2.35634 0.0125,-0.0913 0.038,-0.21848 0.0572,-0.28255 0.0189,-0.0641 0.0451,-0.19673 0.0577,-0.29479 0.029,-0.22595 0.54165,-0.0943 0.9348,0.24007 0.44312,0.37687 0.78624,0.30014 1.96556,-0.43956 1.05883,-0.66413 3.37355,-2.12153 6.82484,-4.29701 0.86923,-0.54794 2.40079,-1.50669 3.4034,-2.13056 1.44794,-0.90095 1.90747,-1.2521 2.23389,-1.70695 0.60114,-0.83766 1.35385,-1.2315 2.27337,-1.18948 0.6401,0.0292 0.78913,-0.0104 1.26147,-0.33525 0.2946,-0.20262 2.15815,-1.41856 4.14118,-2.7021 l 3.60556,-2.3337 0.3158,-0.84312 c 0.32903,-0.87833 0.81711,-1.46962 1.19871,-1.45219 0.12046,0.005 0.5055,0.0993 0.8556,0.20852 0.4915,0.15328 0.75387,0.17505 1.15153,0.0955 1.06492,-0.21302 1.79131,0.32541 2.47086,1.83148 0.44649,0.98962 0.51058,1.49247 0.56954,4.47112 0.0503,2.53826 0.10911,2.83892 0.68251,3.48644 0.2491,0.28132 0.55298,0.73072 0.67525,0.99866 0.27615,0.60509 0.25273,1.62968 -0.0491,2.15146 -0.27269,0.47127 -0.376,2.29208 -0.16294,2.87148 0.11958,0.32522 0.11579,0.48454 -0.0209,0.87341 -0.13418,0.38175 -0.1549,0.94134 -0.10514,2.83517 0.0581,2.20756 0.0849,2.42482 0.4173,3.37284 0.44607,1.2726 0.43531,1.88108 -0.0484,2.73996 l -0.35338,0.6274 -0.0571,2.86717 c -0.0361,1.81657 -0.0126,2.89759 0.0645,2.9502 0.17148,0.11713 0.34462,0.69226 0.32667,1.08531 -0.0101,0.22015 0.0768,0.39874 0.25748,0.52928 0.32129,0.23215 0.72971,1.12214 0.71026,1.54774 -0.0271,0.59209 -0.29576,1.03109 -0.76017,1.24188 -0.59391,0.26956 -0.70013,0.4373 -1.52773,2.41231 -0.38713,0.92395 -0.93395,2.1921 -1.21518,2.8181 l -0.51124,1.13819 0.33806,0.42249 c 0.37902,0.47363 0.4238,1.04863 0.12202,1.56692 -0.0978,0.16791 -0.24281,0.4495 -0.32232,0.62576 -0.0795,0.17625 -0.27481,0.36329 -0.43401,0.41562 -0.42307,0.13911 -0.61157,0.75375 -0.61985,2.02105 -0.007,1.0603 -0.0122,1.08027 -0.318,1.21146 -0.22543,0.0967 -0.413,0.36492 -0.68213,0.97554 -0.80484,1.82595 -1.35172,2.53217 -2.45598,3.17157 -1.02508,0.59355 -1.90836,0.77182 -3.44952,0.69618 -1.6516,-0.0811 -2.00102,-0.18602 -6.32276,-1.8995 l -3.22219,-1.27753 -1.67637,-1.3397 c -4.2487,-3.39542 -7.14944,-5.99805 -6.91926,-6.20811 0.0375,-0.0342 0.34208,-0.0131 0.67679,0.0469 0.43912,0.0788 0.69211,0.20239 0.90858,0.44392 0.20933,0.23353 0.66879,0.46556 1.52002,0.76762 0.671,0.23808 1.4637,0.54751 1.76157,0.6876 0.75194,0.35364 1.42133,0.36144 2.06246,0.0241 0.28864,-0.1519 0.52694,-0.32271 0.52953,-0.3796 0.003,-0.0569 0.49595,-0.0515 1.09636,0.0119 1.16786,0.12337 1.5572,0.0372 2.04173,-0.45129 0.12953,-0.13061 0.3532,-0.2321 0.49701,-0.22554 0.48773,0.0223 1.24222,-0.28346 2.43396,-0.98636 0.65351,-0.38543 1.32247,-0.76318 1.48658,-0.83941 0.1641,-0.0763 1.02648,-0.79392 1.9164,-1.59484 1.44333,-1.2989 1.6435,-1.44108 1.85302,-1.3163 0.12924,0.077 0.36635,0.14588 0.5269,0.15322 0.253,0.0115 0.30518,-0.053 0.39091,-0.48396 0.0544,-0.2735 0.225,-0.81889 0.37908,-1.21194 l 0.2801,-0.71466 -0.24163,-3.00293 c -0.91802,-11.40789 -1.52318,-18.38064 -1.60295,-18.46845 -0.0281,-0.0308 -0.19741,-0.004 -0.37649,0.0614 -0.17905,0.0646 -0.67441,0.24535 -1.10075,0.40165 -0.42636,0.15628 -0.99089,0.30152 -1.25451,0.32275 -0.26366,0.0212 -0.53417,0.0754 -0.60116,0.1204 -0.067,0.045 -2.05257,1.05646 -4.41238,2.24771 -2.35984,1.19124 -5.70492,2.8847 -7.43349,3.76325 -1.72862,0.87854 -4.96518,2.52319 -7.1924,3.65478 -4.12942,2.09803 -5.17625,2.74827 -6.38201,3.9642 -0.62852,0.63382 -0.70296,0.77303 -1.35927,2.54171 -0.6568,1.76988 -0.69955,1.94776 -0.79023,3.28661 -0.0526,0.7785 -0.13701,1.51985 -0.18733,1.64743 -0.0814,0.20643 0.021,0.27508 0.92972,0.62359 2.054,0.78771 2.23352,0.88073 2.40078,1.24389 0.0878,0.19061 0.15101,0.53512 0.14048,0.76558 -0.0105,0.23047 0.14919,0.90914 0.355,1.50814 0.33831,0.98481 0.365,1.1693 0.2786,1.92684 -0.0951,0.83327 -0.0931,0.8417 0.3746,1.57149 0.431,0.67262 0.50707,0.9271 0.91327,3.0564 0.59243,3.1056 0.62247,2.96657 -1.36868,6.33768 -0.67837,1.14857 -1.2896,2.05558 -1.40272,2.08153 -0.11019,0.0253 -1.54353,0.0791 -3.18516,0.11955 -2.15973,0.0533 -2.98654,0.11342 -2.9913,0.21773 -0.0127,0.27767 0.60366,0.93667 1.11362,1.19068 0.79973,0.39837 4.85888,0.7528 6.91704,0.60399 1.66238,-0.12019 2.46978,-0.0268 3.79767,0.43921 0.76227,0.26751 1.96789,1.04258 2.2998,1.47846 0.28782,0.37803 1.2892,2.55204 1.28264,2.78468 -0.002,0.11777 0.0672,0.3205 0.15652,0.45064 0.11438,0.16648 0.14848,0.54436 0.11512,1.27457 -0.1577,1.32244 -1.08909,1.74056 -0.0593,3.21006 z m 43.2718,-15.95981 1.5923,-0.23291 0.64533,-0.90494 0.64536,-0.90494 -0.13498,-1.29999 c -0.12795,-1.23239 -0.15057,-1.30414 -0.43469,-1.38012 -0.39657,-0.10604 -1.40758,0.0451 -2.13403,0.31903 -0.55309,0.20856 -0.58987,0.24927 -0.68302,0.75563 -0.0542,0.29436 -0.10633,0.70845 -0.116,0.92019 -0.01,0.21174 -0.28221,0.94359 -0.60567,1.62633 -0.32339,0.68274 -0.58889,1.26002 -0.58993,1.28286 -0.004,0.0751 0.20641,0.0542 1.81533,-0.18114 z m -3.51147,-1.06502 c 0.47689,-0.35345 1.65786,-2.77219 1.45318,-2.97623 -0.0503,-0.0501 -0.75389,-0.0286 -1.56372,0.0477 -1.67738,0.15806 -1.94731,0.30116 -1.62864,0.86347 0.0969,0.17109 0.24029,0.36804 0.31856,0.43768 0.0783,0.0696 0.16977,0.3512 0.20335,0.6257 0.10962,0.89615 0.70196,1.38358 1.21727,1.00165 z m -0.2141,-3.40946 c 0.49078,-0.11023 0.98639,-0.224 1.10136,-0.25282 0.16108,-0.0403 0.2149,-0.18124 0.23467,-0.61397 0.0142,-0.30886 8.8e-4,-0.58829 -0.0285,-0.62094 -0.0756,-0.0828 -2.1662,0.0909 -2.27362,0.18892 -0.0481,0.044 -0.125,0.39591 -0.17075,0.7821 -0.0971,0.82041 -0.13622,0.80264 1.13686,0.51671 z m -3.46881,-1.04839 0.92699,-0.29566 0.59017,-1.52943 0.5901,-1.52941 -0.49004,-1.27211 -0.49004,-1.27213 -0.9566,-0.0454 -0.9566,-0.0454 -0.0932,0.43852 c -0.0513,0.24118 -0.1504,1.67695 -0.22026,3.19057 -0.10169,2.15266 -0.0945,2.74158 0.0227,2.70396 0.0824,-0.0265 0.56694,-0.18116 1.07674,-0.34378 z m 8.03757,0.01 c 0.93306,-0.25648 1.73864,-0.50195 1.79017,-0.54548 0.0515,-0.0435 -0.26092,-1.30648 -0.69423,-2.80655 -0.88408,-3.06034 -0.80186,-2.93899 -2.02888,-2.99505 -1.50106,-0.0686 -2.11027,0.45056 -2.02714,1.72741 0.067,1.0284 0.53245,4.80535 0.60923,4.94331 0.12051,0.21651 0.65197,0.14334 2.35085,-0.32364 z m -4.17547,-0.86459 0.84473,-0.10159 -0.34963,-1.68936 c -0.19229,-0.92914 -0.38236,-1.72492 -0.42238,-1.76838 -0.0973,-0.10562 -0.85519,1.92337 -1.24621,3.33601 -0.10351,0.37392 -0.0939,0.37575 1.17349,0.22332 z m 40.58892,-9.26665 c 0.29986,-0.89547 0.75795,-2.22944 1.01788,-2.96439 0.47039,-1.32989 0.47372,-1.35062 0.69143,-4.35149 l 0.2188,-3.01525 -0.33913,-0.59151 c -0.72233,-1.25992 -0.85667,-2.5404 -0.35743,-3.40649 0.16036,-0.27823 0.19404,-0.67148 0.2017,-2.35635 0.005,-1.11233 -0.008,-2.05504 -0.0286,-2.09492 -0.0209,-0.0399 -0.0151,-0.72371 0.0124,-1.51961 l 0.0501,-1.4471 -0.37341,-0.44511 c -0.24659,-0.29388 -0.41435,-0.40686 -0.4937,-0.33253 -0.0677,0.0634 -0.30388,2.32265 -0.54051,5.17056 -0.23113,2.78191 -0.46189,5.45459 -0.51278,5.93932 -0.0509,0.48474 -0.17144,1.8607 -0.2679,3.0577 -0.0964,1.19699 -0.25835,2.43823 -0.35981,2.75829 -0.25892,0.81677 -0.75638,7.00303 -0.57882,7.19761 0.14672,0.16074 0.83947,0.26957 0.97311,0.15286 0.0778,-0.0679 0.38672,-0.85612 0.68661,-1.7516 z m -40.02932,-0.57511 c 0.44502,-0.17811 0.54025,-0.29911 1.11388,-1.41538 l 0.62729,-1.22062 -0.21763,-0.38114 -0.2176,-0.38114 -1.21397,1.637 c -0.6677,0.90035 -1.21689,1.70329 -1.22043,1.78431 -0.01,0.21429 0.56475,0.20258 1.12846,-0.023 z m 22.7798,-23.66163 c 1.28695,-0.61229 1.96492,-1.0087 2.27752,-1.33169 0.42478,-0.4389 0.44773,-0.44758 0.50261,-0.19009 0.0537,0.2517 0.0998,0.26619 0.68778,0.21615 0.68887,-0.0587 0.88298,-0.14727 1.58386,-0.72326 0.33269,-0.27338 1.1495,-0.6245 2.81939,-1.21196 l 2.35099,-0.82705 0.26288,-0.51932 c 0.19144,-0.3782 0.28297,-0.80962 0.33682,-1.58749 0.0647,-0.93255 0.12456,-1.15799 0.47263,-1.77568 0.48462,-0.86005 0.51987,-1.11012 0.14893,-1.05655 -0.14708,0.0212 -1.74581,0.91918 -3.55271,1.99541 l -3.28528,1.9568 -0.4683,0.77053 c -0.25755,0.42379 -0.55232,0.83403 -0.65505,0.91163 -0.10267,0.0776 -1.48886,0.83173 -3.08035,1.67584 -1.61646,0.85736 -3.01764,1.67937 -3.17462,1.8624 -0.27211,0.3173 -0.27429,0.33303 -0.0681,0.4987 0.44036,0.35391 0.95248,0.23415 2.84107,-0.66437 z"
       id="path3970"
       inkscape:connector-curvature="0"
       sodipodi:nodetypes="ccsssssccccssssscsscssssssccccsssscsssccscssssccccssccscsssscccsccscccssscssscssssscsscscscccscccccsssssccsssccssscsssssccccccscccssccscssscssccssssccsscccccccccccccssssscsscscsscssccsccccccssccccccsscccsccsscscscscccscccscsss" />
    <path
       inkscape:connector-curvature="0"
       id="path3961"
       style="font-size:220.65133667px;font-style:normal;font-variant:normal;font-weight:900;font-stretch:normal;line-height:125%;letter-spacing:0px;word-spacing:0px;fill:#000000;fill-opacity:1;stroke:none;font-family:Vitreous;-inkscape-font-specification:Vitreous Heavy"
       d="m -474.19912,699.06118 -58.48118,0 -41.78571,-39.50363 60.89976,0 m 64.63094,0 39.58777,39.50363 -82.24477,0 -39.14648,-39.50363 m 3.3627,44.1373 56.26609,0 0,72.69467 -59.6143,-72.69467 m 0.0384,0.009 59.57586,62.65622 0,89.58445 -59.57586,-59.57586"
       sodipodi:nodetypes="cccccccccccccccc" />
    <path
       style="fill:#ffffff;fill-opacity:1;stroke:none"
       d="m -309.98396,850.02743 c 2.99508,3.00707 17.10958,17.17398 31.36554,31.48202 l 25.91994,26.01463 -19.56742,-0.005 -19.56742,-0.005 -11.82037,-11.41339 -11.82039,-11.41339 -0.005,-20.06407 c -0.002,-11.03524 0.007,-20.06406 0.0222,-20.06406 0.0147,0 2.47723,2.46032 5.47231,5.46739 l 0,0 z"
       id="path3972"
       inkscape:connector-curvature="0" />
    <text
       xml:space="preserve"
       style="font-size:111.54601288px;font-style:normal;font-variant:normal;font-weight:bold;font-stretch:normal;line-height:125%;letter-spacing:0px;word-spacing:0px;fill:#000000;fill-opacity:1;stroke:none;font-family:Webdings;-inkscape-font-specification:Webdings Bold"
       x="-705.5127"
       y="537.90289"
       id="text3976"
       sodipodi:linespacing="125%"><tspan
         sodipodi:role="line"
         id="tspan3978"
         x="-705.5127"
         y="537.90289">TAB</tspan></text>
    <g
       id="g4044"
       transform="matrix(1.8889162,0,0,1.8889162,962.36611,-389.41538)"
       inkscape:export-xdpi="101"
       inkscape:export-ydpi="101">
      <path
         sodipodi:nodetypes="ccc"
         d="M 148.93646,709.33148 201.86153,578.014 252.30101,709.33148"
         style="font-size:180.13275146px;font-style:normal;font-variant:normal;font-weight:bold;font-stretch:normal;line-height:125%;letter-spacing:0px;word-spacing:0px;fill:#000000;fill-opacity:1;stroke:none;font-family:Webdings;-inkscape-font-specification:Webdings Bold"
         id="path3983"
         inkscape:connector-curvature="0" />
      <path
         sodipodi:nodetypes="ccsssssccccssssscsscssssssccccsssscsssccscssssccccssccscsssscccsccscccssscssscssssscsscscscccscccccsssssccsssccssscsssssccccccscccssccscssscssccssssccsscccccccccccccssssscsscscsscssccsccccccssccccccsscccsccsscscscscccscccscsss"
         inkscape:connector-curvature="0"
         id="path3037"
         d="m 139.93207,709.56764 c -1.65663,-2.7519 1.29108,-9.84666 3.59637,-10.66913 0.41427,0.14203 1.96612,0.22109 2.93876,0.14971 0.96582,-0.0709 2.63315,-0.77159 2.11572,-0.88916 -0.21202,-0.0483 -0.6262,-0.11161 -1.98308,-0.30369 -0.80733,-0.1143 -2.05502,-0.29149 -2.7726,-0.39374 -1.21921,-0.17377 -2.46345,-0.4508 -2.89577,-0.64476 -0.24519,-0.11004 -0.23064,-0.29229 0.23867,-2.98676 0.21401,-1.22867 0.43994,-2.5462 0.50207,-2.92788 0.0939,-0.57695 0.17693,-0.75647 0.49237,-1.0649 0.36476,-0.35658 0.40846,-0.36932 1.1287,-0.32889 0.4121,0.0233 1.12575,0.0805 1.58592,0.12711 0.78948,0.0803 0.86889,0.0669 1.40889,-0.23928 0.66369,-0.37618 1.60167,-1.26207 2.0449,-1.93134 0.16966,-0.25605 0.35117,-0.46329 0.40351,-0.4604 0.37778,0.0207 2.67853,-0.22953 3.37136,-0.36677 1.40361,-0.27796 2.50984,-0.11066 3.27896,0.49593 0.15503,0.1223 0.8167,0.36028 1.47041,0.52887 0.65368,0.1686 2.00278,0.54976 2.99801,0.84699 1.95926,0.58518 2.3342,0.80497 2.58659,1.51632 0.0718,0.20261 0.15394,0.36967 0.18235,0.37124 0.0285,9.4e-4 0.38134,-0.24704 0.78419,-0.55243 0.46679,-0.35387 0.87914,-0.57454 1.13689,-0.60839 0.48638,-0.0638 0.60366,-0.21161 1.16226,-1.46405 2.12686,-4.76896 6.38547,-13.65491 7.48849,-15.62544 1.62675,-2.90611 4.60052,-5.40555 8.17593,-6.87179 0.70905,-0.29077 1.41714,-0.58395 1.57352,-0.65149 0.49251,-0.21277 2.95441,-1.99739 2.97762,-2.15845 0.012,-0.0846 0.0371,-0.20233 0.0555,-0.2616 0.0181,-0.0593 0.0436,-0.18207 0.0561,-0.27293 0.0288,-0.20934 0.50322,-0.0828 0.86504,0.23067 0.4078,0.35334 0.72673,0.28511 1.82695,-0.39093 0.98782,-0.60699 3.14734,-1.93904 6.36721,-3.92748 0.81096,-0.50082 2.23978,-1.37704 3.1751,-1.94714 1.35076,-0.82332 1.77999,-1.14514 2.08666,-1.56423 0.56478,-0.77184 1.26631,-1.13074 2.11888,-1.08391 0.59348,0.0326 0.73206,-0.003 1.17296,-0.30018 0.275,-0.18545 2.01395,-1.2974 3.86431,-2.47102 l 3.36435,-2.13387 0.30014,-0.77935 c 0.31268,-0.81189 0.77047,-1.35619 1.12427,-1.33676 0.11167,0.007 0.46804,0.0965 0.79186,0.20072 0.45459,0.14639 0.69777,0.16881 1.0673,0.0984 0.98961,-0.18847 1.65878,0.31714 2.27623,1.71994 0.4057,0.92176 0.46085,1.38873 0.49011,4.15213 0.025,2.35485 0.077,2.63424 0.60327,3.23974 0.22866,0.26307 0.5067,0.68252 0.61783,0.93211 0.25097,0.56363 0.22049,1.51378 -0.0639,1.9952 -0.25693,0.43482 -0.36835,2.12285 -0.1757,2.66211 0.10814,0.30268 0.10325,0.45042 -0.0268,0.80997 -0.12772,0.35294 -0.15171,0.87182 -0.12173,2.62892 0.0351,2.04816 0.058,2.2499 0.35825,3.13209 0.40288,1.18424 0.38771,1.74856 -0.0683,2.54108 l -0.33314,0.57892 -0.0775,2.65903 c -0.0492,1.68469 -0.0364,2.68762 0.0346,2.73706 0.15805,0.11013 0.31374,0.64507 0.29372,1.00949 -0.0114,0.20411 0.0679,0.37053 0.23431,0.49315 0.29603,0.21809 0.66727,1.0471 0.64559,1.4417 -0.0302,0.54899 -0.28313,0.95389 -0.71569,1.14546 -0.55319,0.24494 -0.65316,0.39965 -1.43766,2.22454 -0.36699,0.85372 -0.88502,2.02534 -1.15124,2.6036 l -0.48393,1.05138 0.30998,0.39477 c 0.34751,0.44257 0.38412,0.97629 0.0998,1.45449 -0.0921,0.15491 -0.22907,0.41485 -0.30433,0.57766 -0.0753,0.16279 -0.25799,0.33463 -0.40611,0.3818 -0.39362,0.12542 -0.57371,0.69394 -0.59224,1.86939 -0.0155,0.98344 -0.0205,1.00191 -0.30531,1.12099 -0.20992,0.0878 -0.38621,0.33497 -0.64105,0.89906 -0.76215,1.6868 -1.27544,2.33722 -2.30517,2.92085 -0.95591,0.54182 -1.77672,0.69961 -3.20564,0.61629 -1.53125,-0.0893 -1.85448,-0.18961 -5.84855,-1.81591 l -2.97789,-1.21255 -1.5435,-1.25697 c -3.91195,-3.18578 -6.58035,-5.62468 -6.36505,-5.81757 0.0352,-0.0314 0.31741,-0.009 0.62734,0.0494 0.40664,0.0769 0.64026,0.19366 0.839,0.41949 0.19217,0.21843 0.61634,0.4376 1.40335,0.72502 0.62039,0.22659 1.35301,0.52036 1.62811,0.65285 0.69445,0.33445 1.3153,0.34741 1.91287,0.0399 0.26903,-0.13843 0.49154,-0.29484 0.49442,-0.34758 0.004,-0.0527 0.46047,-0.0436 1.01686,0.0204 1.0822,0.12443 1.44408,0.0478 1.8977,-0.40117 0.12123,-0.12007 0.32958,-0.21227 0.46291,-0.20495 0.45222,0.0248 1.1547,-0.25232 2.26611,-0.89412 0.60945,-0.35194 1.23321,-0.6966 1.38607,-0.76592 0.15286,-0.0693 0.95893,-0.72767 1.79124,-1.46293 1.34987,-1.19251 1.53676,-1.32268 1.73003,-1.20516 0.11927,0.0724 0.33857,0.13847 0.48744,0.14661 0.23456,0.0131 0.28351,-0.0465 0.36674,-0.44551 0.0528,-0.25324 0.2157,-0.75768 0.36198,-1.12094 l 0.26591,-0.66051 -0.19848,-2.78748 c -0.75406,-10.58944 -1.25581,-17.06232 -1.32907,-17.14446 -0.0258,-0.0288 -0.18309,-0.005 -0.34974,0.0537 -0.16664,0.0583 -0.62765,0.2218 -1.02445,0.36314 -0.39682,0.14133 -0.92171,0.27122 -1.16641,0.28866 -0.24475,0.0174 -0.49612,0.0655 -0.55864,0.10655 -0.0624,0.0411 -1.91293,0.9624 -4.11198,2.0472 -2.1991,1.08481 -5.31635,2.62702 -6.92724,3.42717 -1.61091,0.80015 -4.6271,2.29801 -6.70266,3.32862 -3.84824,1.91078 -4.82481,2.50499 -5.95362,3.62253 -0.58841,0.58256 -0.65864,0.71104 -1.28253,2.34602 -0.62435,1.63605 -0.66551,1.8007 -0.76106,3.04179 -0.0553,0.72168 -0.1401,1.4086 -0.18781,1.52652 -0.0772,0.19079 0.0172,0.25534 0.85702,0.58639 1.89851,0.74821 2.06423,0.83602 2.21627,1.17431 0.0798,0.17755 0.13551,0.49764 0.12376,0.71133 -0.012,0.21367 0.13061,0.84455 0.3164,1.40194 0.3054,0.91636 0.32858,1.08771 0.24196,1.78965 -0.0953,0.77211 -0.0935,0.77994 0.33405,1.46087 0.39403,0.62758 0.46242,0.86428 0.82101,2.84282 0.52297,2.88572 0.55203,2.75702 -1.3237,5.86692 -0.63904,1.05961 -1.21376,1.89569 -1.3189,1.91878 -0.10244,0.0225 -1.43242,0.0602 -2.95549,0.0837 -2.00376,0.031 -2.77119,0.0797 -2.77651,0.17639 -0.0139,0.25747 0.55194,0.87398 1.0228,1.11398 0.73839,0.37632 4.5005,0.73977 6.41088,0.61932 1.54298,-0.0973 2.29109,-0.004 3.51884,0.43983 0.70477,0.25465 1.81644,0.98389 2.12061,1.39102 0.26373,0.3531 1.174,2.3782 1.16594,2.59395 -0.003,0.10924 0.0595,0.29785 0.14132,0.41933 0.10466,0.1554 0.13308,0.5062 0.0959,1.18323 -0.15757,1.2253 -1.02508,1.60517 -0.0824,2.97703 z m 40.27391,-14.43414 1.47895,-0.20246 0.60635,-0.83387 0.60634,-0.83385 -0.1141,-1.20699 c -0.10815,-1.14421 -0.12853,-1.21099 -0.39142,-1.28386 -0.36692,-0.10177 -1.306,0.0298 -1.98216,0.27768 -0.51481,0.18873 -0.5493,0.22618 -0.64002,0.69507 -0.0527,0.27257 -0.10466,0.65622 -0.11549,0.85254 -0.0107,0.19632 -0.26984,0.87284 -0.57568,1.50336 -0.3058,0.63052 -0.557,1.16372 -0.55817,1.18489 -0.004,0.0697 0.191,0.052 1.68539,-0.15249 z m -3.24805,-1.0179 c 0.44538,-0.32375 1.56148,-2.55721 1.37337,-2.74822 -0.0462,-0.0469 -0.69906,-0.0329 -1.45087,0.0309 -1.55723,0.13228 -1.80883,0.26271 -1.51805,0.78702 0.0884,0.15952 0.21976,0.34342 0.29176,0.40869 0.072,0.0652 0.15446,0.3272 0.18327,0.58211 0.094,0.83219 0.63928,1.28936 1.12052,0.9395 z m -0.16945,-3.16432 c 0.45618,-0.0981 0.91684,-0.19934 1.02375,-0.2251 0.14974,-0.0361 0.20087,-0.16629 0.22291,-0.5675 0.0156,-0.28637 0.007,-0.54566 -0.0212,-0.57622 -0.0694,-0.0774 -2.01008,0.0658 -2.11054,0.15583 -0.045,0.0404 -0.11934,0.36617 -0.16506,0.72399 -0.0971,0.76017 -0.13324,0.74334 1.05008,0.489 z m -3.20861,-1.00209 0.86238,-0.26633 0.56048,-1.41361 0.56042,-1.4136 -0.44366,-1.18414 -0.44368,-1.18418 -0.88695,-0.0503 -0.88691,-0.0504 -0.0902,0.40597 c -0.0495,0.22328 -0.15388,1.55418 -0.23139,2.95759 -0.11273,1.99588 -0.11109,2.5422 -0.002,2.50831 0.0766,-0.0238 0.5274,-0.1632 1.00168,-0.30969 z m 7.45533,0.0778 c 0.86765,-0.22994 1.61698,-0.45074 1.66516,-0.49069 0.0481,-0.0398 -0.23086,-1.21408 -0.61998,-2.60918 -0.79389,-2.84622 -0.71866,-2.73297 -1.85635,-2.79545 -1.39173,-0.0765 -1.96126,0.39989 -1.89505,1.58497 0.0534,0.9545 0.45282,4.46185 0.52287,4.59046 0.10994,0.20185 0.60352,0.13852 2.18335,-0.28011 z m -3.86566,-0.83764 0.78441,-0.087 -0.30986,-1.56998 c -0.17043,-0.86348 -0.33994,-1.60324 -0.3767,-1.64391 -0.0893,-0.0988 -0.80967,1.77678 -1.18443,3.08374 -0.0992,0.34596 -0.0903,0.34772 1.08658,0.21717 z m 37.72818,-8.2487 c 0.2858,-0.82804 0.7221,-2.06148 0.96948,-2.74096 0.44769,-1.22955 0.45094,-1.24876 0.67854,-4.03043 l 0.22869,-2.79498 -0.30953,-0.55155 c -0.65926,-1.17484 -0.77292,-2.36372 -0.30243,-3.16282 0.15112,-0.25669 0.18572,-0.62117 0.20721,-2.18396 0.0142,-1.03171 0.0104,-1.90623 -0.008,-1.94341 -0.0191,-0.0371 -0.007,-0.67141 0.0245,-1.40944 l 0.0589,-1.34184 -0.34257,-0.41608 c -0.22622,-0.27469 -0.38086,-0.38092 -0.45513,-0.31263 -0.0633,0.0581 -0.30169,2.15183 -0.54552,4.79143 -0.23818,2.57843 -0.47504,5.05558 -0.52639,5.50476 -0.0514,0.44918 -0.17488,1.72445 -0.27463,2.83392 -0.0997,1.10946 -0.26046,2.25942 -0.35731,2.55544 -0.24715,0.75539 -0.76143,6.48933 -0.59839,6.67131 0.13473,0.15034 0.77636,0.25723 0.90131,0.1501 0.0728,-0.0622 0.36603,-0.79079 0.65184,-1.61883 z m -37.12502,-0.87544 c 0.4143,-0.16139 0.50366,-0.27281 1.04528,-1.30334 l 0.59228,-1.12685 -0.19861,-0.35539 -0.19857,-0.35539 -1.14005,1.50805 c -0.62701,0.82946 -1.14328,1.56953 -1.14726,1.64465 -0.0109,0.19868 0.52213,0.19274 1.04693,-0.0118 z m 21.33197,-21.75317 c 1.19897,-0.55695 1.83121,-0.91886 2.12392,-1.21577 0.39776,-0.40349 0.41913,-0.41134 0.46783,-0.17204 0.0476,0.23394 0.0903,0.24777 0.63612,0.20637 0.63947,-0.0486 0.8203,-0.12905 1.47532,-0.65734 0.31093,-0.25073 1.07156,-0.56943 2.62553,-1.10007 l 2.18777,-0.74706 0.2483,-0.47947 c 0.1808,-0.34913 0.2694,-0.74854 0.32599,-1.46962 0.0682,-0.86443 0.12544,-1.07305 0.45355,-1.64302 0.45686,-0.79363 0.49171,-1.02527 0.14719,-0.97876 -0.13663,0.0185 -1.62723,0.83769 -3.31244,1.82054 l -3.06403,1.78699 -0.44096,0.71074 c -0.24249,0.3909 -0.51941,0.7689 -0.61536,0.84002 -0.0959,0.0711 -1.38813,0.75876 -2.87156,1.52814 -1.50669,0.78145 -2.81341,1.53195 -2.96058,1.70038 -0.2551,0.292 -0.25726,0.30656 -0.0675,0.462 0.40546,0.332 0.8815,0.22533 2.64095,-0.59197 z"
         style="fill:#ffffff" />
      <path
         sodipodi:nodetypes="cccccccc"
         d="m 201.84925,578.014 0,25.59504 -26.96904,0 0,21.37471 -33.86285,84.34157 0,-105.71628 -13.82639,0 L 92.946035,578.014"
         style="font-size:180.13275146px;font-style:normal;font-variant:normal;font-weight:bold;font-stretch:normal;line-height:125%;letter-spacing:0px;word-spacing:0px;fill:#000000;fill-opacity:1;stroke:none;font-family:Webdings;-inkscape-font-specification:Webdings Bold"
         id="path3981"
         inkscape:connector-curvature="0" />
      <path
         sodipodi:nodetypes="csccccccccccsccccccssccscccc"
         d="m 273.02143,628.85225 c 5.33589,8e-5 9.38183,-1.17266 12.13785,-3.51822 2.75585,-2.34539 4.13382,-5.80497 4.1339,-10.37874 -8e-5,-4.51495 -1.37805,-7.94521 -4.1339,-10.29079 -2.75602,-2.40401 -6.80196,-3.60606 -12.13785,-3.60617 l -18.73451,0 0,27.79392 18.73451,0 m 1.14342,57.43491 c 6.80181,2e-5 11.90322,-1.43659 15.30424,-4.30982 3.4595,-2.87318 5.18928,-7.21231 5.18938,-13.01741 -1e-4,-5.68774 -1.70057,-9.93891 -5.10142,-12.75354 -3.40103,-2.87315 -8.53176,-4.30976 -15.3922,-4.30981 l -19.87793,0 0,34.39058 19.87793,0 m 31.48805,-47.23208 c 7.27087,2.111 12.90001,6.01035 16.88744,11.69808 3.98719,5.68783 5.98085,12.66563 5.98097,20.93339 -1.2e-4,12.66561 -4.28062,22.10615 -12.84149,28.32165 -8.5611,6.21553 -21.5785,9.32328 -39.05222,9.32328 l -16.3025,0 -50.52481,-131.31748 61.46203,0 c 18.23601,0 31.42931,2.75607 39.57995,8.26781 8.20906,5.512 12.31364,14.33685 12.31376,26.47459 -1.2e-4,6.39152 -1.49536,11.84475 -4.48573,16.35972 -2.9906,4.45648 -7.32973,7.76947 -13.0174,9.93896"
         style="font-size:180.13275146px;font-style:normal;font-variant:normal;font-weight:bold;font-stretch:normal;line-height:125%;letter-spacing:0px;word-spacing:0px;fill:#ffcc00;fill-opacity:1;stroke:none;font-family:Webdings;-inkscape-font-specification:Webdings Bold"
         id="path3985"
         inkscape:connector-curvature="0" />
      <g
         id="g4026">
        <path
           d="m 151.1044,720.62977 0,3.95535 -3.05197,0 0,15.80924 -5.13952,0 0,-15.80924 -3.03977,0 0,-3.95535 11.23126,0"
           style="font-size:54.97891235px;font-style:normal;font-variant:normal;font-weight:bold;font-stretch:normal;line-height:125%;letter-spacing:0px;word-spacing:0px;fill:#000000;fill-opacity:1;stroke:none;font-family:Impact;-inkscape-font-specification:Impact Bold"
           id="path3990"
           inkscape:connector-curvature="0" />
        <path
           d="m 152.27637,720.62977 8.56994,0 0,3.95535 -3.43042,0 0,3.74783 3.21068,0 0,3.76003 -3.21068,0 0,4.34602 3.77225,0 0,3.95536 -8.91177,0 0,-19.76459"
           style="font-size:54.97891235px;font-style:normal;font-variant:normal;font-weight:bold;font-stretch:normal;line-height:125%;letter-spacing:0px;word-spacing:0px;fill:#000000;fill-opacity:1;stroke:none;font-family:Impact;-inkscape-font-specification:Impact Bold"
           id="path3992"
           inkscape:connector-curvature="0" />
        <path
           d="m 174.92202,720.62977 -2.9421,8.92397 3.22288,10.84062 -5.31044,0 -2.07534,-8.47229 0,8.47229 -5.13953,0 0,-19.76459 5.13953,0 0,7.67876 2.28289,-7.67876 4.82211,0"
           style="font-size:54.97891235px;font-style:normal;font-variant:normal;font-weight:bold;font-stretch:normal;line-height:125%;letter-spacing:0px;word-spacing:0px;fill:#000000;fill-opacity:1;stroke:none;font-family:Impact;-inkscape-font-specification:Impact Bold"
           id="path3994"
           inkscape:connector-curvature="0" />
        <path
           d="m 187.58162,720.62977 0,19.76459 -4.50471,0 -2.67354,-8.98502 0,8.98502 -4.29717,0 0,-19.76459 4.29717,0 2.88107,8.89956 0,-8.89956 4.29718,0"
           style="font-size:54.97891235px;font-style:normal;font-variant:normal;font-weight:bold;font-stretch:normal;line-height:125%;letter-spacing:0px;word-spacing:0px;fill:#000000;fill-opacity:1;stroke:none;font-family:Impact;-inkscape-font-specification:Impact Bold"
           id="path3996"
           inkscape:connector-curvature="0" />
        <path
           d="m 194.77207,720.62977 0,19.76459 -5.13952,0 0,-19.76459 5.13952,0"
           style="font-size:54.97891235px;font-style:normal;font-variant:normal;font-weight:bold;font-stretch:normal;line-height:125%;letter-spacing:0px;word-spacing:0px;fill:#000000;fill-opacity:1;stroke:none;font-family:Impact;-inkscape-font-specification:Impact Bold"
           id="path3998"
           inkscape:connector-curvature="0" />
        <path
           d="m 209.10416,720.62977 -2.94211,8.92397 3.22288,10.84062 -5.31043,0 -2.07534,-8.47229 0,8.47229 -5.13954,0 0,-19.76459 5.13954,0 0,7.67876 2.28287,-7.67876 4.82213,0"
           style="font-size:54.97891235px;font-style:normal;font-variant:normal;font-weight:bold;font-stretch:normal;line-height:125%;letter-spacing:0px;word-spacing:0px;fill:#000000;fill-opacity:1;stroke:none;font-family:Impact;-inkscape-font-specification:Impact Bold"
           id="path4000"
           inkscape:connector-curvature="0" />
      </g>
      <g
         style="fill:#000000;fill-opacity:1"
         id="g4020">
        <path
           d="m 223.55831,720.62977 2.9421,19.76459 -5.2616,0 -0.25636,-3.5525 -1.8434,0 -0.3052,3.5525 -5.32264,0 2.61249,-19.76459 7.43461,0 m -2.72236,12.70842 c -0.26045,-2.23811 -0.52088,-5.00115 -0.78131,-8.28917 -0.52088,3.77632 -0.84641,6.53938 -0.97663,8.28917 l 1.75794,0"
           style="font-size:54.97891235px;font-style:normal;font-variant:normal;font-weight:bold;font-stretch:normal;line-height:125%;letter-spacing:0px;word-spacing:0px;fill:#000000;fill-opacity:1;stroke:none;font-family:Impact;-inkscape-font-specification:Impact Bold"
           id="path4002"
           inkscape:connector-curvature="0" />
        <path
           d="m 232.51891,720.62977 0,15.80923 3.12523,0 0,3.95536 -8.26477,0 0,-19.76459 5.13954,0"
           style="font-size:54.97891235px;font-style:normal;font-variant:normal;font-weight:bold;font-stretch:normal;line-height:125%;letter-spacing:0px;word-spacing:0px;fill:#000000;fill-opacity:1;stroke:none;font-family:Impact;-inkscape-font-specification:Impact Bold"
           id="path4004"
           inkscape:connector-curvature="0" />
        <path
           d="m 246.43591,720.62977 2.94211,19.76459 -5.26161,0 -0.25636,-3.5525 -1.8434,0 -0.30519,3.5525 -5.32265,0 2.61248,-19.76459 7.43462,0 m -2.72236,12.70842 c -0.26044,-2.23811 -0.52087,-5.00115 -0.7813,-8.28917 -0.52088,3.77632 -0.84643,6.53938 -0.97663,8.28917 l 1.75793,0"
           style="font-size:54.97891235px;font-style:normal;font-variant:normal;font-weight:bold;font-stretch:normal;line-height:125%;letter-spacing:0px;word-spacing:0px;fill:#000000;fill-opacity:1;stroke:none;font-family:Impact;-inkscape-font-specification:Impact Bold"
           id="path4006"
           inkscape:connector-curvature="0" />
        <path
           d="m 259.26641,720.62977 0,3.95535 -3.05197,0 0,15.80924 -5.13952,0 0,-15.80924 -3.03978,0 0,-3.95535 11.23127,0"
           style="font-size:54.97891235px;font-style:normal;font-variant:normal;font-weight:bold;font-stretch:normal;line-height:125%;letter-spacing:0px;word-spacing:0px;fill:#000000;fill-opacity:1;stroke:none;font-family:Impact;-inkscape-font-specification:Impact Bold"
           id="path4008"
           inkscape:connector-curvature="0" />
      </g>
      <g
         style="fill:#ffcc00;fill-opacity:1"
         id="g4037">
        <path
           d="m 264.83322,720.62977 5.12733,0 c 1.61956,10e-6 2.84443,0.12616 3.67457,0.37843 0.83827,0.25232 1.51377,0.76505 2.02652,1.5382 0.51271,0.76505 0.76908,2.00211 0.76909,3.7112 -10e-6,1.1557 -0.18313,1.96142 -0.54935,2.41718 -0.35812,0.45577 -1.07024,0.80572 -2.13639,1.04986 1.18823,0.2686 1.99395,0.71621 2.41717,1.34288 0.42319,0.61854 0.6348,1.57076 0.6348,2.85664 l 0,1.8312 c 0,1.33473 -0.15463,2.32357 -0.46389,2.96651 -0.30114,0.64295 -0.78539,1.08244 -1.45274,1.31846 -0.66738,0.23602 -2.03466,0.35403 -4.10186,0.35403 l -5.94525,0 0,-19.76459 m 5.13953,3.38158 0,4.39484 c 0.21973,-0.008 0.39065,-0.0122 0.51273,-0.0122 0.50459,0 0.82606,-0.12207 0.96443,-0.36624 0.13835,-0.25228 0.20753,-0.96441 0.20754,-2.13638 -10e-6,-0.61852 -0.057,-1.04986 -0.17092,-1.29403 -0.1139,-0.25229 -0.26451,-0.41099 -0.4517,-0.47612 -0.17905,-0.0651 -0.53308,-0.10174 -1.06208,-0.10985 m 0,7.47124 0,5.53018 c 0.72433,-0.0245 1.18416,-0.13836 1.3795,-0.34182 0.20345,-0.20346 0.30519,-0.70398 0.3052,-1.50157 l 0,-1.8434 c -10e-6,-0.8464 -0.0896,-1.35914 -0.26859,-1.53818 -0.17905,-0.17905 -0.65108,-0.28078 -1.41611,-0.30521"
           style="font-size:54.97891235px;font-style:normal;font-variant:normal;font-weight:bold;font-stretch:normal;line-height:125%;letter-spacing:0px;word-spacing:0px;fill:#ffcc00;fill-opacity:1;stroke:none;font-family:Impact;-inkscape-font-specification:Impact Bold"
           id="path4010"
           inkscape:connector-curvature="0" />
        <path
           d="m 278.65258,720.62977 8.56994,0 0,3.95535 -3.43042,0 0,3.74783 3.21067,0 0,3.76003 -3.21067,0 0,4.34602 3.77223,0 0,3.95536 -8.91175,0 0,-19.76459"
           style="font-size:54.97891235px;font-style:normal;font-variant:normal;font-weight:bold;font-stretch:normal;line-height:125%;letter-spacing:0px;word-spacing:0px;fill:#ffcc00;fill-opacity:1;stroke:none;font-family:Impact;-inkscape-font-specification:Impact Bold"
           id="path4012"
           inkscape:connector-curvature="0" />
        <path
           d="m 289.05369,720.62977 3.63796,0 c 2.42529,10e-6 4.06522,0.0936 4.91978,0.28078 0.86268,0.1872 1.5626,0.66737 2.09976,1.44053 0.54528,0.76504 0.81792,1.9899 0.81793,3.67458 -10e-6,1.53821 -0.19127,2.57181 -0.57377,3.10081 -0.38253,0.52901 -1.13535,0.84642 -2.25846,0.95221 1.01732,0.2523 1.70095,0.59006 2.05093,1.01326 0.34995,0.42321 0.56561,0.81387 0.64702,1.17195 0.0894,0.34998 0.13427,1.32253 0.13428,2.9177 l 0,5.21277 -4.77329,0 0,-6.56786 c 0,-1.05801 -0.0854,-1.71316 -0.25636,-1.96547 -0.16278,-0.25228 -0.5982,-0.37843 -1.30624,-0.37844 l 0,8.91177 -5.13954,0 0,-19.76459 m 5.13954,3.38158 0,4.39484 c 0.57783,2e-5 0.98069,-0.0773 1.20858,-0.23194 0.236,-0.16276 0.35402,-0.67956 0.35402,-1.5504 l 0,-1.08651 c 0,-0.62666 -0.11391,-1.03766 -0.34182,-1.233 -0.21974,-0.1953 -0.62667,-0.29297 -1.22078,-0.29299"
           style="font-size:54.97891235px;font-style:normal;font-variant:normal;font-weight:bold;font-stretch:normal;line-height:125%;letter-spacing:0px;word-spacing:0px;fill:#ffcc00;fill-opacity:1;stroke:none;font-family:Impact;-inkscape-font-specification:Impact Bold"
           id="path4014"
           inkscape:connector-curvature="0" />
        <path
           d="m 311.40636,720.62977 2.94211,19.76459 -5.2616,0 -0.25637,-3.5525 -1.84339,0 -0.3052,3.5525 -5.32264,0 2.61248,-19.76459 7.43461,0 m -2.72235,12.70842 c -0.26045,-2.23811 -0.52088,-5.00115 -0.7813,-8.28917 -0.52088,3.77632 -0.84643,6.53938 -0.97664,8.28917 l 1.75794,0"
           style="font-size:54.97891235px;font-style:normal;font-variant:normal;font-weight:bold;font-stretch:normal;line-height:125%;letter-spacing:0px;word-spacing:0px;fill:#ffcc00;fill-opacity:1;stroke:none;font-family:Impact;-inkscape-font-specification:Impact Bold"
           id="path4016"
           inkscape:connector-curvature="0" />
        <path
           d="m 324.21246,720.62977 0,3.95535 -3.05198,0 0,15.80924 -5.13952,0 0,-15.80924 -3.03977,0 0,-3.95535 11.23127,0"
           style="font-size:54.97891235px;font-style:normal;font-variant:normal;font-weight:bold;font-stretch:normal;line-height:125%;letter-spacing:0px;word-spacing:0px;fill:#ffcc00;fill-opacity:1;stroke:none;font-family:Impact;-inkscape-font-specification:Impact Bold"
           id="path4018"
           inkscape:connector-curvature="0" />
      </g>
    </g>
  </g>
</svg>
