<?xml version="1.0" encoding="UTF-8" standalone="no"?>
<!-- Created with Inkscape (http://www.inkscape.org/) -->

<svg
   xmlns:dc="http://purl.org/dc/elements/1.1/"
   xmlns:cc="http://creativecommons.org/ns#"
   xmlns:rdf="http://www.w3.org/1999/02/22-rdf-syntax-ns#"
   xmlns:svg="http://www.w3.org/2000/svg"
   xmlns="http://www.w3.org/2000/svg"
   xmlns:xlink="http://www.w3.org/1999/xlink"
   xmlns:sodipodi="http://sodipodi.sourceforge.net/DTD/sodipodi-0.dtd"
   xmlns:inkscape="http://www.inkscape.org/namespaces/inkscape"
   width="744.09448"
   height="1052.3622"
   id="svg2"
   version="1.1"
   inkscape:version="0.92.3 (unknown)"
   sodipodi:docname="master.svg">
  <defs
     id="defs4">
    <marker
       orient="auto"
       markerHeight="3"
       markerWidth="4"
       markerUnits="strokeWidth"
       refY="5"
       refX="10"
       viewBox="0 0 10 10"
       id="ArrowStart">
      <path
         id="path2995"
         d="M 10,0 0,5 10,10 Z"
         inkscape:connector-curvature="0" />
    </marker>
    <marker
       orient="auto"
       markerHeight="3"
       markerWidth="4"
       markerUnits="strokeWidth"
       refY="5"
       refX="0"
       viewBox="0 0 10 10"
       id="ArrowEnd">
      <path
         id="path2992"
         d="M 0,0 10,5 0,10 Z"
         inkscape:connector-curvature="0" />
    </marker>
    <marker
       orient="auto"
       markerHeight="3"
       markerWidth="4"
       markerUnits="strokeWidth"
       refY="5"
       refX="10"
       viewBox="0 0 10 10"
       id="ArrowStart-9">
      <path
         id="path6422"
         d="M 10,0 0,5 10,10 Z"
         inkscape:connector-curvature="0" />
    </marker>
    <marker
       orient="auto"
       markerHeight="3"
       markerWidth="4"
       markerUnits="strokeWidth"
       refY="5"
       refX="0"
       viewBox="0 0 10 10"
       id="ArrowEnd-1">
      <path
         id="path6419"
         d="M 0,0 10,5 0,10 Z"
         inkscape:connector-curvature="0" />
    </marker>
    <marker
       id="ArrowEnd-4"
       viewBox="0 0 10 10"
       refX="0"
       refY="5"
       markerUnits="strokeWidth"
       markerWidth="4"
       markerHeight="3"
       orient="auto">
      <path
         d="M 0,0 10,5 0,10 Z"
         id="path7283"
         inkscape:connector-curvature="0" />
    </marker>
    <marker
       id="ArrowStart-7"
       viewBox="0 0 10 10"
       refX="10"
       refY="5"
       markerUnits="strokeWidth"
       markerWidth="4"
       markerHeight="3"
       orient="auto">
      <path
         d="M 10,0 0,5 10,10 Z"
         id="path7286"
         inkscape:connector-curvature="0" />
    </marker>
    <marker
       id="ArrowEnd-2"
       viewBox="0 0 10 10"
       refX="0"
       refY="5"
       markerUnits="strokeWidth"
       markerWidth="4"
       markerHeight="3"
       orient="auto">
      <path
         d="M 0,0 10,5 0,10 Z"
         id="path7131"
         inkscape:connector-curvature="0" />
    </marker>
    <marker
       id="ArrowStart-71"
       viewBox="0 0 10 10"
       refX="10"
       refY="5"
       markerUnits="strokeWidth"
       markerWidth="4"
       markerHeight="3"
       orient="auto">
      <path
         d="M 10,0 0,5 10,10 Z"
         id="path7134"
         inkscape:connector-curvature="0" />
    </marker>
    <linearGradient
       id="linearGradient4908"
       inkscape:collect="always">
      <stop
         id="stop4910"
         offset="0"
         style="stop-color:#916f6f;stop-opacity:1;" />
      <stop
         id="stop4912"
         offset="1"
         style="stop-color:#916f6f;stop-opacity:0;" />
    </linearGradient>
    <linearGradient
       y2="124.33958"
       x2="252.79066"
       y1="73.074333"
       x1="253.49777"
       gradientUnits="userSpaceOnUse"
       id="linearGradient5859"
       xlink:href="#linearGradient4908"
       inkscape:collect="always" />
    <linearGradient
       inkscape:collect="always"
       id="linearGradient3869">
      <stop
         style="stop-color:#000000;stop-opacity:1;"
         offset="0"
         id="stop3871" />
      <stop
         style="stop-color:#000000;stop-opacity:0;"
         offset="1"
         id="stop3873" />
    </linearGradient>
    <linearGradient
       inkscape:collect="always"
       xlink:href="#linearGradient3869"
       id="linearGradient3875"
       x1="1.3228661"
       y1="1025.8374"
       x2="124.48475"
       y2="1025.8374"
       gradientUnits="userSpaceOnUse" />
    <clipPath
       clipPathUnits="userSpaceOnUse"
       id="clipPath3956">
      <rect
         style="opacity:0.30452677;fill:#666666;fill-opacity:1;fill-rule:nonzero;stroke:none"
         id="rect3958"
         width="97.58683"
         height="15.549547"
         x="83.645851"
         y="1123.6757" />
    </clipPath>
    <marker
       orient="auto"
       markerHeight="3"
       markerWidth="4"
       markerUnits="strokeWidth"
       refY="5"
       refX="10"
       viewBox="0 0 10 10"
       id="ArrowStart-46">
      <path
         id="path3266"
         d="M 10,0 0,5 10,10 Z"
         inkscape:connector-curvature="0" />
    </marker>
    <marker
       orient="auto"
       markerHeight="3"
       markerWidth="4"
       markerUnits="strokeWidth"
       refY="5"
       refX="0"
       viewBox="0 0 10 10"
       id="ArrowEnd-19">
      <path
         id="path3263"
         d="M 0,0 10,5 0,10 Z"
         inkscape:connector-curvature="0" />
    </marker>
    <marker
       orient="auto"
       markerHeight="3"
       markerWidth="4"
       markerUnits="strokeWidth"
       refY="5"
       refX="10"
       viewBox="0 0 10 10"
       id="ArrowStart-4">
      <path
         id="path5282"
         d="M 10,0 0,5 10,10 Z"
         inkscape:connector-curvature="0" />
    </marker>
    <marker
       orient="auto"
       markerHeight="3"
       markerWidth="4"
       markerUnits="strokeWidth"
       refY="5"
       refX="0"
       viewBox="0 0 10 10"
       id="ArrowEnd-1-5">
      <path
         id="path5279"
         d="M 0,0 10,5 0,10 Z"
         inkscape:connector-curvature="0" />
    </marker>
    <marker
       orient="auto"
       markerHeight="3"
       markerWidth="4"
       markerUnits="strokeWidth"
       refY="5"
       refX="10"
       viewBox="0 0 10 10"
       id="ArrowStart-0">
      <path
         id="path3181"
         d="M 10,0 0,5 10,10 Z"
         inkscape:connector-curvature="0" />
    </marker>
    <marker
       orient="auto"
       markerHeight="3"
       markerWidth="4"
       markerUnits="strokeWidth"
       refY="5"
       refX="0"
       viewBox="0 0 10 10"
       id="ArrowEnd-8">
      <path
         id="path3178"
         d="M 0,0 10,5 0,10 Z"
         inkscape:connector-curvature="0" />
    </marker>
    <clipPath
       id="clipPath4252"
       clipPathUnits="userSpaceOnUse">
      <rect
         transform="matrix(0.98814367,-0.15353203,-0.15353203,-0.98814367,0,0)"
         y="-1562.3041"
         x="-394.06461"
         height="820.00098"
         width="1339.335"
         id="rect4254"
         style="opacity:0.86831276;fill:#eeeeee;fill-opacity:1;fill-rule:nonzero;stroke:none" />
    </clipPath>
    <clipPath
       id="clipPath3959-7"
       clipPathUnits="userSpaceOnUse">
      <rect
         style="fill:#d9bb7a;fill-opacity:1;fill-rule:nonzero;stroke:none"
         id="rect3961-1"
         width="745.49255"
         height="389.76379"
         x="-1.515229"
         y="0.79338348" />
    </clipPath>
    <clipPath
       id="clipPath3951-4"
       clipPathUnits="userSpaceOnUse">
      <path
         style="fill:#816647;fill-opacity:1;fill-rule:nonzero;stroke:none"
         d="m 1067.83,1396.2953 v 340.7392 h 5.94 c 3.2669,0 8.2798,1.2523 11.1398,2.7829 3.9158,2.0957 6.4519,1.3995 10.2697,-2.8192 2.7885,-3.0812 9.421,-6.4184 14.7391,-7.4161 5.3181,-0.9977 9.6693,-3.4103 9.6693,-5.3614 0,-5.1389 8.8299,-12.3091 17.966,-14.5892 l 7.9019,-1.972 -7.6188,-9.0349 c -15.7918,-18.7268 -19.2085,-36.2119 -9.1652,-46.9026 l 6.2085,-6.6086 -13.2356,-11.6504 c -7.4993,-6.6012 -16.7327,-18.7719 -21.3045,-28.082 -7.1223,-14.5037 -8.0689,-19.6363 -8.0689,-43.7481 0,-24.601 0.8575,-29.0319 8.6263,-44.5693 9.9677,-19.9355 46.2091,-58.1946 70.4482,-74.3704 41.6672,-27.8064 114.9571,-42.9419 154.1664,-31.8377 5.4904,1.5549 6.214,0.3418 7.4463,-12.4825 2.3732,-24.6985 16.4124,-49.5153 43.0845,-76.1595 25.4251,-25.3984 82.4785,-75.5137 83.8669,-73.668 0.4562,0.6064 9.5341,13.7185 20.1731,29.138 10.639,15.4195 20.0467,28.0355 20.9061,28.0355 0.8594,0 4.8525,-2.5879 8.8735,-5.7509 4.386,-3.4499 11.6651,-5.7508 18.1933,-5.7508 h 10.8822 l -2.7895,-10.1027 c -1.5342,-5.5565 -1.9917,-11.3935 -1.0166,-12.9713 0.9751,-1.5777 -2.1941,-6.8357 -7.0427,-11.6843 -6.9125,-6.9125 -8.8157,-11.3104 -8.8157,-20.3714 0,-12.9345 7.2497,-27.4335 14.937,-29.8734 4.3643,-1.3852 4.8206,-3.9607 3.2923,-18.5828 -1.3896,-13.2945 -0.7188,-18.5855 3.0939,-24.4045 6.3827,-9.7411 21.2385,-18.6327 31.1535,-18.6461 6.382,-0.01 7.9075,-1.3155 7.9075,-6.7742 0,-9.0755 10.8668,-24.6783 22.7782,-32.7054 10.5716,-7.1242 30.7957,-8.8463 40.829,-3.4767 4.7498,2.542 7.2588,1.5576 14.7851,-5.8007 11.492,-11.2357 27.3117,-15.7673 41.4319,-11.8686 10.867,3.0005 26.823,16.0491 26.823,21.9355 0,2.5089 3.2317,2.6367 12.5795,0.4976 15.3896,-3.5216 24.5624,-1.4481 35.9378,8.1236 l 8.7043,7.3242 4.3559,-8.4234 c 8.5401,-16.5145 26.3016,-25.07 99.6701,-48.0095 3.4425,-1.0763 8.7604,7.4308 22.0539,35.28 18.4143,38.5767 25.4832,63.8316 22.4268,80.1237 -2.0828,11.1024 -1.5517,11.3941 9.9327,5.4552 8.0702,-4.1733 8.2157,-4.62 4.4323,-13.6179 -9.3712,-22.2877 15.5545,-35.007 31.4898,-16.069 6.1559,7.3159 8.1974,8.3157 10.2756,5.032 4.5377,-7.1699 2.9179,-10.5202 -5.9432,-12.2924 -11.3997,-2.2799 -20.9135,-17.1445 -19.0365,-29.743 1.1893,-7.9827 0.1352,-9.9109 -8.0641,-14.7484 -11.2739,-6.6518 -21.7835,-26.7574 -21.7835,-41.6734 v -10.594 H 1500.5832 1067.83 Z"
         id="path3953-2"
         inkscape:connector-curvature="0" />
    </clipPath>
    <clipPath
       id="clipPath3066"
       clipPathUnits="userSpaceOnUse">
      <rect
         style="fill:#d9bb7a;fill-opacity:1;fill-rule:nonzero;stroke:none"
         id="rect3068"
         width="745.49255"
         height="389.76379"
         x="-1.515229"
         y="0.79338348" />
    </clipPath>
    <clipPath
       id="clipPath3095-4"
       clipPathUnits="userSpaceOnUse">
      <rect
         style="fill:#d9bb7a;fill-opacity:1;fill-rule:nonzero;stroke:none"
         id="rect3097-4"
         width="745.49255"
         height="389.76379"
         x="-1.515229"
         y="0.79338348" />
    </clipPath>
    <clipPath
       id="clipPath4079"
       clipPathUnits="userSpaceOnUse">
      <rect
         transform="scale(1,-1)"
         y="-1324.4576"
         x="-571.05334"
         height="1163.4819"
         width="1900.3539"
         id="rect4081"
         style="opacity:0.86831276;fill:#eeeeee;fill-opacity:1;fill-rule:nonzero;stroke:none" />
    </clipPath>
    <clipPath
       id="clipPath4057"
       clipPathUnits="userSpaceOnUse">
      <rect
         y="316.48166"
         x="529.0625"
         height="318.89764"
         width="520.86615"
         id="rect4059"
         style="opacity:0.86831276;fill:#eeeeee;fill-opacity:1;fill-rule:nonzero;stroke:none" />
    </clipPath>
    <clipPath
       id="clipPath3959"
       clipPathUnits="userSpaceOnUse">
      <rect
         style="fill:#d9bb7a;fill-opacity:1;fill-rule:nonzero;stroke:none"
         id="rect3961"
         width="745.49255"
         height="389.76379"
         x="-1.515229"
         y="0.79338348" />
    </clipPath>
    <clipPath
       id="clipPath3951"
       clipPathUnits="userSpaceOnUse">
      <path
         style="fill:#816647;fill-opacity:1;fill-rule:nonzero;stroke:none"
         d="m 1067.83,1396.2953 v 340.7392 h 5.94 c 3.2669,0 8.2798,1.2523 11.1398,2.7829 3.9158,2.0957 6.4519,1.3995 10.2697,-2.8192 2.7885,-3.0812 9.421,-6.4184 14.7391,-7.4161 5.3181,-0.9977 9.6693,-3.4103 9.6693,-5.3614 0,-5.1389 8.8299,-12.3091 17.966,-14.5892 l 7.9019,-1.972 -7.6188,-9.0349 c -15.7918,-18.7268 -19.2085,-36.2119 -9.1652,-46.9026 l 6.2085,-6.6086 -13.2356,-11.6504 c -7.4993,-6.6012 -16.7327,-18.7719 -21.3045,-28.082 -7.1223,-14.5037 -8.0689,-19.6363 -8.0689,-43.7481 0,-24.601 0.8575,-29.0319 8.6263,-44.5693 9.9677,-19.9355 46.2091,-58.1946 70.4482,-74.3704 41.6672,-27.8064 114.9571,-42.9419 154.1664,-31.8377 5.4904,1.5549 6.214,0.3418 7.4463,-12.4825 2.3732,-24.6985 16.4124,-49.5153 43.0845,-76.1595 25.4251,-25.3984 82.4785,-75.5137 83.8669,-73.668 0.4562,0.6064 9.5341,13.7185 20.1731,29.138 10.639,15.4195 20.0467,28.0355 20.9061,28.0355 0.8594,0 4.8525,-2.5879 8.8735,-5.7509 4.386,-3.4499 11.6651,-5.7508 18.1933,-5.7508 h 10.8822 l -2.7895,-10.1027 c -1.5342,-5.5565 -1.9917,-11.3935 -1.0166,-12.9713 0.9751,-1.5777 -2.1941,-6.8357 -7.0427,-11.6843 -6.9125,-6.9125 -8.8157,-11.3104 -8.8157,-20.3714 0,-12.9345 7.2497,-27.4335 14.937,-29.8734 4.3643,-1.3852 4.8206,-3.9607 3.2923,-18.5828 -1.3896,-13.2945 -0.7188,-18.5855 3.0939,-24.4045 6.3827,-9.7411 21.2385,-18.6327 31.1535,-18.6461 6.382,-0.01 7.9075,-1.3155 7.9075,-6.7742 0,-9.0755 10.8668,-24.6783 22.7782,-32.7054 10.5716,-7.1242 30.7957,-8.8463 40.829,-3.4767 4.7498,2.542 7.2588,1.5576 14.7851,-5.8007 11.492,-11.2357 27.3117,-15.7673 41.4319,-11.8686 10.867,3.0005 26.823,16.0491 26.823,21.9355 0,2.5089 3.2317,2.6367 12.5795,0.4976 15.3896,-3.5216 24.5624,-1.4481 35.9378,8.1236 l 8.7043,7.3242 4.3559,-8.4234 c 8.5401,-16.5145 26.3016,-25.07 99.6701,-48.0095 3.4425,-1.0763 8.7604,7.4308 22.0539,35.28 18.4143,38.5767 25.4832,63.8316 22.4268,80.1237 -2.0828,11.1024 -1.5517,11.3941 9.9327,5.4552 8.0702,-4.1733 8.2157,-4.62 4.4323,-13.6179 -9.3712,-22.2877 15.5545,-35.007 31.4898,-16.069 6.1559,7.3159 8.1974,8.3157 10.2756,5.032 4.5377,-7.1699 2.9179,-10.5202 -5.9432,-12.2924 -11.3997,-2.2799 -20.9135,-17.1445 -19.0365,-29.743 1.1893,-7.9827 0.1352,-9.9109 -8.0641,-14.7484 -11.2739,-6.6518 -21.7835,-26.7574 -21.7835,-41.6734 v -10.594 H 1500.5832 1067.83 Z"
         id="path3953"
         inkscape:connector-curvature="0" />
    </clipPath>
    <clipPath
       id="clipPath3095"
       clipPathUnits="userSpaceOnUse">
      <rect
         style="fill:#d9bb7a;fill-opacity:1;fill-rule:nonzero;stroke:none"
         id="rect3097"
         width="745.49255"
         height="389.76379"
         x="-1.515229"
         y="0.79338348" />
    </clipPath>
  </defs>
  <sodipodi:namedview
     id="base"
     pagecolor="#ffffff"
     bordercolor="#666666"
     borderopacity="1.0"
     inkscape:pageopacity="0.0"
     inkscape:pageshadow="2"
     inkscape:zoom="0.5"
     inkscape:cx="1083.0298"
     inkscape:cy="530.86231"
     inkscape:document-units="px"
     inkscape:current-layer="layer1"
     showgrid="false"
     inkscape:window-width="1389"
     inkscape:window-height="851"
     inkscape:window-x="1625"
     inkscape:window-y="103"
     inkscape:window-maximized="0" />
  <metadata
     id="metadata7">
    <rdf:RDF>
      <cc:Work
         rdf:about="">
        <dc:format>image/svg+xml</dc:format>
        <dc:type
           rdf:resource="http://purl.org/dc/dcmitype/StillImage" />
        <dc:title></dc:title>
      </cc:Work>
    </rdf:RDF>
  </metadata>
  <g
     inkscape:label="Layer 1"
     inkscape:groupmode="layer"
     id="layer1">
    <g
       style="fill-rule:evenodd"
       id="g7488"
       transform="matrix(1.25,0,0,1.25,-1912.5243,1856.0257)" />
    <path
       style="fill:#eeeeee;fill-opacity:1;fill-rule:nonzero;stroke:none"
       d=""
       id="path3965"
       inkscape:connector-curvature="0" />
    <path
       style="fill:#eeeeee;fill-opacity:1;fill-rule:nonzero;stroke:none"
       d=""
       id="path3967"
       inkscape:connector-curvature="0" />
    <g
       style="fill-rule:evenodd"
       id="g3978"
       transform="matrix(0.32279891,0,0,0.32279891,-831.45603,489.2262)" />
    <g
       style="fill-rule:evenodd"
       id="g3980"
       transform="matrix(0.32279891,0,0,0.32279891,-831.45603,489.2262)" />
    <g
       style="fill-rule:evenodd"
       id="g3259"
       transform="matrix(0.08271225,0,0,0.08271225,-396.82496,744.34498)" />
    <path
       inkscape:connector-curvature="0"
       id="path7393"
       d=""
       style="fill:#4d4d4d;fill-opacity:1;fill-rule:nonzero;stroke:none" />
    <g
       id="g7782"
       transform="matrix(4.3882871,0,0,4.3882871,-53.740259,-2761.8683)">
      <path
         sodipodi:nodetypes="ccccccccccccccccccccsssscssscccssscssscccccscc"
         inkscape:connector-curvature="0"
         id="path7375"
         d="m 89.872149,763.67853 c -18.284129,-0.0992 -11.341106,0.25092 -29.625507,0.2113 -6.938141,-13.11359 -3.080734,-22.83319 -2.112741,-30.85242 9.427964,-5.70439 8.749191,-5.14521 19.114176,-10.2587 l -1.455192,2.44574 c 0.42339,3.40503 0.07002,3.62283 -0.889533,5.90508 1.288184,0.0454 2.909823,0.0783 4.605372,0.36001 l 6.008537,-2.97172 -0.127696,-1.26721 1.347478,-1.64021 -0.357031,-1.19704 c -0.290741,-1.5135 -1.190622,-2.40355 0.474187,-2.72182 l 1.620251,0.73327 2.641132,4.2673 c 2.435306,0.87533 4.68559,1.78207 7.08061,2.74372 l 1.815668,2.90138 c 3.13506,4.66498 4.80408,11.40521 6.7835,16.6177 0.13055,-5.46651 0.11721,-9.16726 0.21979,-11.64846 0.90369,-1.20685 1.80737,-2.41369 2.71106,-3.62054 1.2234,-0.22828 2.44679,-0.45655 3.67018,-0.68482 l 0.91944,-1.02332 c 0.50568,-0.56282 1.04216,-1.17777 1.19216,-1.36655 0.21997,-0.27685 4.69364,-4.21047 5.5389,-4.87025 0.18313,-0.14295 0.76511,-0.0282 3.40902,0.67214 l 3.18819,0.84452 2.76534,2.46416 c 2.71051,2.41529 3.14718,2.76165 3.00081,2.38023 -0.04,-0.10412 -0.33874,-1.33453 -0.66398,-2.73424 l -0.59134,-2.54492 -2.73267,-1.01827 -2.73268,-1.01827 -0.99231,-2.69409 c -0.54577,-1.48176 -0.96059,-2.72581 -0.92183,-2.76458 0.0387,-0.0387 0.91484,0.13149 1.94684,0.37835 l 1.87635,0.44883 1.17993,1.1214 c 2.10084,1.99659 3.90957,3.00905 8.02443,4.49178 1.38747,0.49995 2.86017,1.07467 3.27266,1.27715 l 0.74998,0.36815 2.13208,5.88822 2.13208,5.88822 -3.02754,12.38413 -3.02754,12.38414 -2.99082,0.0158 c -1.64496,0.009 -22.87224,-0.1242 -47.171741,-0.29527 z"
         style="opacity:0.64197531;fill:#916f6f;fill-opacity:1;fill-rule:nonzero;stroke:none" />
      <circle
         r="4.3199201"
         cy="182.57301"
         cx="178.10413"
         transform="matrix(0.49231416,0,0,0.49231416,7.9089309,642.56167)"
         style="fill:#e3dbdb;fill-opacity:1;fill-rule:nonzero;stroke:none"
         id="path7377" />
      <circle
         r="4.3199201"
         cy="182.57301"
         cx="178.10413"
         id="path7379"
         style="fill:#e3dbdb;fill-opacity:1;fill-rule:nonzero;stroke:none"
         transform="matrix(0.2953885,0,0,0.2953885,59.631678,681.18862)" />
      <circle
         r="4.3199201"
         cy="182.57301"
         cx="178.10413"
         id="path7381"
         style="fill:#e3dbdb;fill-opacity:1;fill-rule:nonzero;stroke:none"
         transform="matrix(0.37978521,0,0,0.37978521,32.568903,667.96758)" />
      <path
         style="fill:#ac9393;stroke:none"
         d="m 75.675256,725.20175 -0.546355,3.74319 -1.918775,1.62053 -3.772456,4.56672 -0.429672,3.26549 3.952963,-2.57802 -3.437357,6.61692 c 0,0 11.515154,-9.19494 14.608778,-8.24967 0.410919,0.12556 -5.241975,-0.5156 -5.241975,-0.5156 l 8.507465,-3.69516 3.695162,0.5156 h 2.492085 l -3.695163,-2.23428 -1.246042,-5.62868 -3.100161,-0.60712 z"
         id="path7383"
         inkscape:connector-curvature="0"
         sodipodi:nodetypes="cccccccscccccccc" />
      <path
         style="fill:#ac9393;fill-opacity:1;stroke:none"
         d="m 114.18605,732.14113 -0.24305,3.88892 1.27605,-2.36981 2.97746,-1.51911 1.57988,-2.67364 5.59034,1.8837 1.51911,-0.85071 3.09899,2.43058 -0.24306,2.00523 4.98269,-0.48611 0.78994,-1.51912 -1.15453,-4.13198 -2.00523,-3.40282 -4.25351,-0.91146 -3.34205,-2.79517 -4.8004,3.15975 -3.94969,4.73964 z"
         id="path7385"
         inkscape:connector-curvature="0" />
      <path
         style="fill:#916f6f;fill-opacity:1;fill-rule:nonzero;stroke:none"
         d="m 65.798627,745.36023 c 0.445387,-1.44357 0.378688,-5.32717 -0.02521,-5.19737 l 1.392678,-0.44755 0.684957,-1.93516 c 0.353378,-0.99837 1.514432,-3.22416 1.530442,-3.22416 0.016,0 -0.260498,2.47275 -0.246866,3.39439 0.02713,1.83525 -0.322047,5.31879 -0.09269,5.61367 0.07994,0.10278 1.395844,-3.1739 1.398177,-2.71285 l 0.01753,3.45938 c -1.267197,0.27423 -3.74431,0.78716 -4.616046,0.97446 z"
         id="path7387"
         inkscape:connector-curvature="0"
         sodipodi:nodetypes="cscssccsccc" />
      <path
         style="fill:#ffe6d5;stroke:none"
         d="m 71.733928,689.43631 c -0.321341,-2.2905 -1.613729,-4.09549 -2.611534,-6.04776 -0.81754,-3.0705 -0.182524,-5.93246 -1.64939,-9.34654 l -2.061738,-1.92429 2.886433,-1.92429 0.274899,-4.26092 c 2.828669,-4.21614 6.300737,-7.24008 9.690165,-10.99594 l 0.549796,1.78684 8.384401,-2.61153 7.216079,-5.77287 -1.443215,4.39838 5.704142,-2.33664 -2.061738,3.3675 11.064652,0.41235 -2.06173,1.99301 4.05475,4.67328 1.58066,2.74898 3.50496,1.99301 -0.0687,1.92429 2.26791,0.89342 -0.61852,2.74898 0.2749,3.98603 3.0926,2.26791 -0.41234,2.54281 0.13745,5.49797 -0.48596,2.72254 -3.01554,1.85354 c 0.67562,6.27164 0.77854,5.9653 -2.30029,11.04536 -0.64508,0.88768 -2.47308,4.3311 -4.39781,5.15442 0.36907,2.31159 0.72782,4.51886 1.47535,6.65891 1.60812,4.50179 6.12315,6.56287 8.8617,7.88966 l -0.41235,3.02389 -6.04776,9.07164 -11.82063,0.68725 -3.161333,-4.39838 -7.009907,-2.47408 -3.161332,-5.08562 -3.573677,-4.81072 c 1.321617,-0.49292 2.179809,-0.42065 5.888284,-0.75 -0.229457,-1.7312 -0.876425,-3.25928 -1.785888,-4.82048 -2.262768,-0.36044 -5.788702,-2.37855 -7.435539,-4.05096 l -4.089113,-5.77287 -2.061736,-0.20617 -1.580665,-2.88644 -3.023884,-4.05475 -0.395166,-4.14065 z"
         id="path7395"
         inkscape:connector-curvature="0"
         sodipodi:nodetypes="ccccccccccccccccccccccccccccccccccccccccccccccc" />
      <path
         style="fill:#fff5ed;fill-opacity:1;fill-rule:nonzero;stroke:none"
         d="m 115.89015,690.07826 c 0.0566,-0.54662 -1.87133,-8.90735 -1.94704,-8.94421 -0.0911,-0.0443 0.32391,-3.80529 1.77022,-4.90465 2.01399,-0.86594 3.0644,0.15307 3.73466,2.06463 1.05836,6.88099 0.662,8.27178 -0.098,10.15036 -0.42844,0.9177 -2.38348,1.7875 -3.45981,1.63387 z"
         id="path7397"
         inkscape:connector-curvature="0"
         sodipodi:nodetypes="cscccc" />
      <path
         style="opacity:0.64197531;fill:#ccae99;fill-opacity:1;fill-rule:nonzero;stroke:none"
         d="m 81.07688,707.24997 -4.034153,-5.72752 c -0.363854,-0.51659 -0.762146,-4.62935 -5.174052,-12.03582 -1.773407,-2.9771 1.572656,-13.30565 1.301294,-13.24084 8.359695,18.93372 1.557853,14.40965 12.977692,30.22959 5.640304,2.19049 9.139882,0.63692 14.380389,-2.56317 3.34847,-0.97902 9.44593,-2.50915 7.08851,-7.14538 2.12094,2.80851 1.62041,8.4853 -1.66114,11.88893 -2.39111,1.6184 -5.68633,2.33448 -9.799838,3.04459 -9.410986,0.51091 -12.464892,-2.38717 -15.078702,-4.45038 z"
         id="path7399"
         inkscape:connector-curvature="0"
         sodipodi:nodetypes="cssccccccc" />
      <path
         style="opacity:0.58024693;fill:#ffffff;fill-opacity:1;fill-rule:nonzero;stroke:none"
         d="m 102.49966,707.97261 c 0.94492,-4.22547 7.30053,-6.28642 5.22883,-11.01377 3.04757,-1.5802 3.49756,-5.15534 3.50484,-8.16197 0.77487,-6.70874 -0.68944,-9.97553 -2.70704,-16.58089 1.93203,2.86868 3.29832,5.23229 5.26111,8.44626 l 1.16816,4.52565 c 0.64859,2.95401 1.84368,8.05105 1.2638,11.25666 -0.60868,1.37049 -2.5905,4.79806 -4.28099,7.61896 -1.49006,1.21827 -4.57385,3.70581 -6.38964,4.86757 -0.041,0 -4.33686,2.44537 -3.04907,-0.95847 z"
         id="path7401"
         inkscape:connector-curvature="0"
         sodipodi:nodetypes="cccccccccc" />
      <path
         style="fill:#1a1a1a;fill-opacity:1;fill-rule:nonzero;stroke:none"
         d="m 71.848126,689.41284 c -0.132355,-0.0841 -1.457408,-2.12891 -2.791836,-3.48269 0.0612,-3.16465 -0.647605,-6.84047 -1.718417,-11.71802 -0.596217,-0.60532 -2.15458,-1.62298 -2.750795,-2.22831 1.2917,-0.55548 2.515773,-1.15669 3.641471,-1.9878 0.1974,-1.16548 -0.477651,-3.18089 -0.658421,-4.31865 -0.0045,-0.35093 3.51985,-3.1341 7.266452,-7.30415 1.237063,-1.37689 2.487211,-2.77644 2.778104,-3.11012 0.335409,-0.38475 0.584299,-0.53158 0.680337,-0.40135 0.0833,0.11294 0.291706,0.39839 0.463138,0.63434 l 0.311692,0.42899 3.867529,-1.40137 3.86753,-1.40137 4.051512,-2.69758 c 2.228329,-1.48367 4.093147,-2.65595 4.14404,-2.60505 0.05089,0.0509 -0.165695,0.95392 -0.481301,2.00674 -0.31561,1.05282 -0.549674,1.94131 -0.520147,1.97443 0.02953,0.0331 1.374026,-0.60105 2.987772,-1.40927 1.613748,-0.80822 2.971797,-1.46949 3.017894,-1.46949 0.0461,0 -0.337799,0.94032 -0.853091,2.08961 l -0.936897,2.08961 0.709731,0.12139 c 0.390352,0.0668 2.546647,0.22664 4.791767,0.35528 2.24511,0.12864 4.19823,0.27072 4.34025,0.31572 0.17208,0.0545 -0.0453,0.43707 -0.65158,1.14676 l -0.9098,1.06494 0.58838,0.73335 c 0.32361,0.40335 1.20991,1.34566 1.96955,2.09404 1.21693,1.19886 1.42732,1.51545 1.76914,2.6622 l 0.38796,1.30152 1.76675,0.93153 c 1.82236,0.96086 2.11072,1.28775 2.11072,2.39278 0,0.49696 0.11521,0.59963 1.0764,0.95925 0.59201,0.22151 1.16333,0.40273 1.26958,0.40273 0.39709,0 0.35403,0.53358 -0.18002,2.23089 l -0.54904,1.74493 0.35821,1.65676 c -0.10451,2.27486 2.91099,2.89855 2.59814,4.61272 l -0.13662,0.72826 c -1.22754,-4.11168 -5.53159,-2.72476 -5.41618,3.17726 -0.54723,-1.58251 -0.79378,-3.46464 -1.35732,-5.01484 -0.91122,-2.50663 -1.39695,-3.43887 -4.38912,-8.4239 l -3.36451,-5.60535 -2.66544,-1.81877 c -2.60392,-1.77679 -2.679281,-1.813 -3.264616,-1.56837 -0.32954,0.13773 -1.561358,0.65248 -2.73737,1.14389 l -2.138208,0.89347 -4.445311,0.24064 -4.445308,0.24064 -2.092766,1.41441 c -2.069319,1.39856 -2.096686,1.41007 -2.443004,1.0274 -0.19263,-0.21286 -0.459677,-0.34502 -0.593433,-0.29369 -0.133759,0.0513 -1.460816,1.10334 -2.949015,2.33781 l -2.705817,2.24449 -0.425648,2.18844 c -0.234106,1.20364 -0.467545,2.31104 -0.518751,2.46089 -0.05911,0.17297 -0.417572,-0.16417 -0.981701,-0.92331 -0.488726,-0.65768 -1.009048,-1.19578 -1.15627,-1.19578 -0.308112,0 -0.352952,-0.135 1.051295,3.16507 0.847126,1.99079 0.988666,2.42528 0.894274,3.3045 -0.181625,1.69174 2.008285,5.42275 0.819825,7.45539 -1.81193,3.09898 0.656924,9.64042 -2.35169,4.40616 z"
         id="path7403"
         inkscape:connector-curvature="0"
         sodipodi:nodetypes="ccccccsscscccssscssscsssscssscssssscccccsscssscccsssscsssssssc" />
      <path
         style="fill:#dec2ae;fill-opacity:1;fill-rule:nonzero;stroke:none"
         d="m 69.579415,694.3506 c -1.999815,-3.85022 -0.247648,-4.83532 0.342411,-4.9661 1.435626,-0.39239 1.113276,-0.16499 2.055819,0.0208 l 1.550654,3.00927 c 0.732357,1.42124 2.261665,3.39205 2.758226,5.82079 0.355237,1.73751 0.859214,2.5299 0.72472,3.17677 -0.135354,0.67441 -1.383314,1.12716 -2.485694,0.98616 -1.270015,-3.96281 -3.359839,-4.01125 -4.946136,-8.04773 z"
         id="path7405"
         inkscape:connector-curvature="0"
         sodipodi:nodetypes="cccssccc" />
      <path
         style="fill:#e9c6af;fill-opacity:1;stroke:none"
         d="m 87.351416,688.81589 c -2.907759,-2.33129 0.890796,-4.04204 0.799861,-5.99192 -0.11051,1.54232 -2.828745,2.62658 -2.87221,4.57085 -0.0169,1.24744 1.063081,1.63415 2.072349,1.42107 z"
         id="path7407"
         inkscape:connector-curvature="0"
         sodipodi:nodetypes="cccc" />
      <path
         style="fill:#e9c6af;fill-opacity:1;stroke:none"
         d="m 89.556999,685.08927 c -1.38923,1.18823 -2.409291,2.745 0.291575,2.38119 -0.469341,-0.7988 -0.713584,-0.85799 -0.291575,-2.38119 z"
         id="path7409"
         inkscape:connector-curvature="0"
         sodipodi:nodetypes="ccc" />
      <path
         style="opacity:0.39506172;fill:#dec2ae;fill-opacity:1;fill-rule:nonzero;stroke:none"
         d="m 76.825706,700.01095 c -0.734492,-2.77168 -2.172471,-5.75933 -3.386658,-7.61995 -0.05752,-0.94131 -0.0786,-2.45249 -0.108421,-2.91361 -0.278233,-4.3029 1.746976,-4.72502 0.989688,-7.37237 -0.856425,-2.99391 -0.897851,-5.38314 -1.072123,-6.00811 -0.07692,-0.27583 -0.540749,-1.45096 -1.020507,-2.61433 -0.479759,-1.16337 -0.872288,-2.17286 -0.872288,-2.2433 0,-0.25559 0.355232,0.0626 1.164904,1.04336 0.503342,0.60972 0.868532,0.9706 0.963654,0.95228 0.117436,-0.0226 0.259942,-0.55074 0.610856,-2.26379 0.251729,-1.22885 0.459986,-2.2674 0.462793,-2.30788 0.01147,-0.16562 5.528341,-4.64018 5.721055,-4.64018 0.05533,0 0.236345,0.11422 0.402245,0.25381 0.292076,0.24577 0.483376,0.26618 0.887606,0.0947 0.751739,4.12827 -0.737953,7.027 1.866149,8.49589 1.879228,3.00704 3.931668,4.8053 4.919429,8.00845 0.328015,1.06369 -0.387908,2.57016 -0.403044,2.57557 -0.06979,0.92478 -3.371281,4.03683 -0.506007,5.23953 3.968384,1.53148 1.476573,5.30898 -1.159118,6.78226 1.63342,1.42984 7.011591,-3.82231 7.236146,2.59677 -2.624406,2.5134 -3.79412,9.94591 2.374084,8.49849 -15.29496,6.43854 -22.828621,-20.05979 -19.070443,-6.55759 z"
         id="path7411"
         inkscape:connector-curvature="0"
         sodipodi:nodetypes="ccsssssscscssccccccccc" />
      <path
         style="fill:#f4e3d7;stroke:none"
         d="m 117.18616,682.89009 v 1.47758 l 0.65289,0.89342 c 0.82625,-2.82586 0.0225,-3.25461 -0.2749,-3.95167 l -0.85906,-1.34013 c -1.14279,-1.90311 0.47562,-3.52551 2.15619,-2.05066 -1.35637,-0.4701 -1.20777,1.49263 0.0263,3.16032 0.37586,0.77227 0.8403,2.4395 0.18848,3.49489 0.19569,-1.06319 0.0343,-1.8352 -0.9965,-2.95516 0.83361,2.10203 0.50913,3.4871 -0.65288,5.15435 -1.26964,-1.84136 -1.17486,0.38898 -0.20201,1.46233 l -1.27557,-1.11871 c -0.13903,-1.6509 -0.62594,-3.12569 -1.23705,-4.63891 1.21505,1.31364 1.9796,-0.48222 2.47409,0.41235 z"
         id="path7415"
         inkscape:connector-curvature="0"
         sodipodi:nodetypes="cccccccccccccc" />
      <path
         style="fill:#cab09e;fill-opacity:1;stroke:none"
         d="m 76.55767,699.35209 c -0.426717,-0.64809 -1.199167,-1.27134 -2.458499,-1.27895 -0.843167,-0.28009 -2.061505,-0.17721 -2.526967,-2.52698 l -0.344589,-2.12495 -0.801826,-1.76932 c 0.304439,-0.58568 1.054263,-1.29037 2.515925,-0.77974 0.484211,1.35071 1.048659,2.26182 1.658878,3.54748 -0.49945,-0.60635 -0.944988,-1.1339 -1.248024,-1.343 l 1.206055,2.12495 c -2.142342,-2.37603 -1.969507,-0.0393 -1.320916,0.63174 2.420149,-0.85365 1.901637,0.7728 0.65383,0.78416 0.07276,0.94941 2.504826,1.5845 1.449034,-1.15967 0.732299,1.42609 0.936243,2.12992 1.217099,3.89428 z"
         id="path7417"
         inkscape:connector-curvature="0"
         sodipodi:nodetypes="ccccccccccccc" />
      <path
         style="fill:#fff5ed;fill-opacity:1;fill-rule:nonzero;stroke:none"
         d="m 100.96355,733.04601 c -0.16037,-0.24221 -0.28406,-0.47086 -0.27488,-0.50812 0.009,-0.0372 -0.27709,-2.43448 1.46686,-3.27505 5.11575,-2.46574 -0.85993,-6.04433 2.47879,-9.87914 l 3.00115,-3.44708 c 2.11983,-2.03547 1.49224,-4.83818 1.62656,-9.6574 0.92015,5.61777 0.87621,6.23792 3.36518,9.50535 1.21274,1.8878 2.9635,2.75 4.50165,4.09547 1.40314,1.22737 2.34425,0.88999 2.34465,1.12155 2.8e-4,0.16036 -0.0833,0.8556 -0.18565,1.54497 l -0.18616,1.25341 -2.94602,4.41936 c -1.62032,2.43064 -2.97335,4.46262 -3.00675,4.51549 -0.051,0.0808 -10.26009,0.74662 -11.50504,0.75039 -0.35397,10e-4 -0.41487,-0.0383 -0.68034,-0.4392 z"
         id="path7419"
         inkscape:connector-curvature="0"
         sodipodi:nodetypes="ccsscccscscsccc" />
      <path
         style="fill:#dec2ae;fill-opacity:1;fill-rule:nonzero;stroke:none"
         d="m 93.283601,727.42166 c -1.164904,-0.41686 -2.15698,-0.7261 -2.175149,-0.74612 -0.01818,-0.02 -0.701331,-1.19988 -1.547594,-2.56299 -0.923077,-1.48683 -2.839497,-3.15802 -3.332165,-4.89486 l -0.246691,-0.86968 c 0.271803,-0.54804 3.971589,0.0879 4.071527,-2.43661 -0.205843,-1.63912 -0.650136,-3.15671 -1.772555,-4.79583 4.793632,0.83781 5.138894,0.63295 7.934958,0.58256 -3.551854,1.47253 -6.535867,8.72812 -4.000576,9.06133 0.399771,1.28292 0.388487,3.939 0.450089,4.00176 0.245666,1.00152 0.307257,1.96547 2.574226,1.41005 0.195058,1.35432 0.267872,2.02204 0.219819,2.01583 -0.03184,-0.004 -1.010985,-0.34857 -2.175889,-0.76544 z"
         id="path7421"
         inkscape:connector-curvature="0"
         sodipodi:nodetypes="scssccccccccs" />
      <path
         style="fill:#dec2ae;fill-opacity:1;stroke:none"
         d="m 83.676928,673.32913 2.818545,4.03344 1.506465,2.62416 0.291572,1.55506 -2.915735,-2.2354 -4.908159,-2.42978 -0.388765,-1.02051 -1.409273,-0.0486 3.012929,-2.76995 z"
         id="path7425"
         inkscape:connector-curvature="0" />
      <path
         style="fill:#ffffff;fill-opacity:1;fill-rule:nonzero;stroke:none"
         d="m 78.34451,681.96761 c -0.450565,-0.7483 0.386574,-3.13564 1.829121,-3.98367 0.05473,-0.0534 2.249084,-0.9659 2.327413,-0.98984 1.309161,-0.40008 2.478397,0.74173 2.953194,1.25274 -2.396994,3.26039 -4.694387,2.70335 -7.109728,3.72077 z"
         id="path7429"
         inkscape:connector-curvature="0"
         sodipodi:nodetypes="ccscc" />
      <path
         style="fill:#1a1a1a;stroke:none"
         d="m 75.938702,680.87207 c 0.615191,-1.1099 2.679188,-6.23381 7.048834,-7.27688 1.113106,-0.0884 1.226827,-1.32771 -0.312339,-1.53563 -0.679996,-0.0337 -0.658399,-0.0882 -1.317986,0.30108 -4.160152,2.15677 -4.352422,5.03761 -5.418524,8.51136 z"
         id="path7431"
         inkscape:connector-curvature="0"
         sodipodi:nodetypes="ccccc" />
      <path
         style="fill:#1a1a1a;stroke:none"
         d="m 94.794573,670.03322 c 3.93303,-1.21006 6.972937,-1.84249 11.367007,2.09859 -5.52178,-7.6611 -11.353975,-4.29001 -12.624518,-3.44186 -1.506527,1.03279 0.865733,1.495 1.257511,1.34327 z"
         id="path7433"
         inkscape:connector-curvature="0"
         sodipodi:nodetypes="cccc" />
      <path
         style="fill:#ffffff;stroke:none"
         d="m 95.349649,675.26807 c 0.05298,-1.34251 1.574109,-3.20723 4.169452,-3.10524 l 1.992419,0.0486 c 1.54112,0.66414 2.27637,1.32828 2.81855,1.99242 -1.49753,1.96767 -5.940229,0.61713 -8.980421,1.06422 z"
         id="path7435"
         inkscape:connector-curvature="0"
         sodipodi:nodetypes="ccccc" />
      <g
         id="g7437"
         transform="matrix(0.27840336,0,0,0.27840336,-32.126435,641.39072)">
        <path
           sodipodi:nodetypes="ccccc"
           inkscape:connector-curvature="0"
           id="path7439"
           d="m 479.9952,121.17458 c -6.66712,-1.25054 -9.5464,-5.84103 -9.94094,-10.15563 6.93313,-0.60862 13.48631,-0.84925 20.03181,6.72861 l -0.2961,0.23547 c -3.17718,2.08825 -4.33191,3.15564 -9.79477,3.19155 z"
           style="opacity:0.69135802;fill:#483737;fill-opacity:1;fill-rule:nonzero;stroke:none" />
        <ellipse
           ry="6.3274784"
           rx="6.5893049"
           cy="113.10532"
           cx="481.2811"
           transform="matrix(0.41059602,0,0,0.41059602,277.34151,70.743271)"
           style="fill:#ffffff;fill-opacity:1;fill-rule:nonzero;stroke:none"
           id="path7441" />
        <path
           inkscape:connector-curvature="0"
           id="path7443"
           d="m 479.94552,119.19123 c -0.36425,-0.0705 -1.04282,-0.30649 -1.50792,-0.52433 -0.82887,-0.38822 -0.84388,-0.40932 -0.7562,-1.06299 0.12332,-0.91939 -0.0416,-1.44989 -0.67479,-2.1711 -0.35598,-0.40543 -0.79943,-0.68169 -1.29425,-0.80629 -0.68962,-0.17364 -0.76216,-0.24538 -0.86525,-0.85556 -0.1214,-0.71857 0.0256,-2.05762 0.26913,-2.45167 0.347,-0.56146 7.63549,0.79734 9.24442,1.72345 0.43201,0.24867 1.21418,0.77021 1.73814,1.15898 0.52397,0.38877 1.02951,0.7598 1.12343,0.82451 0.28301,0.19499 -0.40192,1.4669 -1.25699,2.33422 -1.5631,1.58549 -3.78962,2.26265 -6.01972,1.83078 z"
           style="fill:#28170b;fill-opacity:1;fill-rule:nonzero;stroke:none" />
      </g>
      <path
         style="fill:#e5bb9f;fill-opacity:1;stroke:none"
         d="m 95.718806,672.94241 c 3.199974,-2.26792 6.338264,-2.04028 10.171234,1.23704 -3.70622,-2.04917 -6.682884,-2.41447 -10.171234,-1.23704 z"
         id="path7445"
         inkscape:connector-curvature="0"
         sodipodi:nodetypes="ccc" />
      <g
         id="g7447"
         transform="matrix(0.27840336,0,0,0.27840336,-32.126435,641.39072)">
        <path
           sodipodi:nodetypes="ccscccc"
           inkscape:connector-curvature="0"
           id="path7449"
           d="m 403.77183,132.59507 c 2.1047,-2.91292 8.14851,-5.02484 12.49862,-4.59751 1.04697,0.39172 3.09793,1.62966 4.2217,2.60894 l 0.27376,0.23856 -0.14366,0.57471 c -1.06403,3.39523 -3.98754,5.687 -7.17494,6.20168 -4.21736,0.45672 -8.43638,-1.26744 -9.67548,-5.02638 z"
           style="opacity:0.69135802;fill:#483737;fill-opacity:1;fill-rule:nonzero;stroke:none" />
        <path
           inkscape:connector-curvature="0"
           id="path7451"
           d="m 411.51983,136.44811 c -1.8536,-0.32339 -3.63018,-1.23491 -4.73705,-2.43046 -0.56998,-0.61565 -1.19072,-1.79436 -1.2211,-2.3187 l -0.0202,-0.3491 1.48368,-0.74791 c 2.32919,-1.17412 4.61241,-1.89955 7.11296,-2.25994 1.9534,-0.28153 2.21967,-0.27185 2.9896,0.10867 1.27991,0.63257 3.55607,2.23588 3.55607,2.50487 0,0.44006 -0.60416,1.79603 -1.22175,2.74208 -0.93036,1.42518 -1.87874,2.08926 -3.65531,2.55957 -0.71113,0.18826 -1.06635,0.22624 -2.32318,0.24845 -0.81602,0.0144 -1.69969,-0.0115 -1.9637,-0.0575 z"
           style="opacity:0.60905349;fill:#28170b;fill-opacity:1;fill-rule:nonzero;stroke:none" />
        <ellipse
           ry="1.8764246"
           rx="2.007338"
           cy="136.757"
           cx="410.0206"
           id="path7453"
           style="fill:#ffffff;fill-opacity:1;fill-rule:nonzero;stroke:none" />
      </g>
      <path
         style="fill:#e5bb9f;fill-opacity:1;stroke:none"
         d="m 76.407198,683.66345 c 1.142865,-5.07304 5.040059,-9.33498 9.002922,-6.52884 -5.76599,-0.89629 -8.040621,4.52792 -8.934198,6.52884"
         id="path7455"
         inkscape:connector-curvature="0"
         sodipodi:nodetypes="ccc" />
      <path
         style="fill:#dec2ae;fill-opacity:1;stroke:none"
         d="m 85.669347,678.28589 c -1.010134,2.89533 -4.401371,4.66307 -7.775299,6.51181 0.858696,-2.48269 1.564123,-2.61658 3.790459,-3.79046 l 1.506465,-0.53455 1.020507,-0.72894 z"
         id="path7457"
         inkscape:connector-curvature="0"
         sodipodi:nodetypes="cccccc" />
      <path
         sodipodi:nodetypes="ccc"
         inkscape:connector-curvature="0"
         id="path7459"
         d="m 83.87131,694.51682 c 0.858696,-2.48269 0.252041,-9.12838 3.255907,-5.92866 5.242787,1.49394 -1.587124,8.25352 -3.255907,5.92866 z"
         style="fill:#dec2ae;fill-opacity:1;stroke:none" />
      <path
         style="fill:#e3dbdb;stroke:none"
         d="m 95.645973,727.86373 c 12.123847,4.39906 22.250347,-3.05823 22.980697,-8.40038 4.60468,4.49892 -3.9034,9.2307 -5.24989,13.49973 l -3.68174,0.88634 -2.4545,3.06812 -0.3409,13.43155 -5.24989,-15.20424 -3.818107,-5.52262 c -2.331088,-0.96471 -6.28075,-1.73615 -6.700943,-2.92903"
         id="path7461"
         inkscape:connector-curvature="0"
         sodipodi:nodetypes="ccccccccc" />
      <path
         style="fill:#e3dbdb;fill-opacity:0;fill-rule:nonzero;stroke:none"
         d="m 98.505713,730.5366 -0.674953,-0.98307 -2.555173,-0.87309 c -1.405348,-0.48021 -2.772123,-0.98856 -3.037285,-1.12967 -0.590043,-0.31401 -0.981507,-0.61575 -0.901991,-0.69527 0.06193,-0.0619 4.147577,0.98039 4.90349,1.25097 0.678476,0.24287 2.559197,0.70175 3.567605,0.87048 1.280214,0.21421 3.871994,0.29068 5.186574,0.15304 5.99545,-0.62776 11.52795,-4.07331 13.25453,-8.25469 0.13139,-0.31819 0.26722,-0.69785 0.30184,-0.84369 0.0346,-0.14584 0.0962,-0.26516 0.13691,-0.26516 0.13539,0 0.69375,0.80345 0.69375,0.99828 0,0.10551 -0.11626,0.8461 -0.25836,1.64574 l -0.25835,1.4539 -2.64584,2.50425 -2.64584,2.50425 -2.93756,1.32852 -2.93755,1.3285 -4.25842,-0.005 -4.258425,-0.005 -0.674952,-0.98308 v 1e-5 z"
         id="path7463"
         inkscape:connector-curvature="0" />
      <path
         style="fill:#cfc7c7;fill-opacity:1;fill-rule:nonzero;stroke:none"
         d="m 97.744827,729.70391 -5.992534,-2.09765 -0.2656,-0.79373 c 2.858951,0.34215 5.520634,1.66768 8.320713,2.16442 1.280214,0.21421 3.871994,0.29068 5.186574,0.15304 5.99545,-0.62776 11.52795,-4.07331 13.25453,-8.25469 0.15526,-0.4138 0.20297,-0.51522 0.1886,-0.87007 0.19615,0.15192 0.62438,0.5125 0.97378,0.78329 -1.34498,6.70856 -8.80325,12.15936 -20.380607,10.60224 -0.469253,-0.57901 -0.770999,-1.12384 -1.285456,-1.68685 z"
         id="path7465"
         inkscape:connector-curvature="0"
         sodipodi:nodetypes="ccccsccccc" />
      <path
         style="fill:#241c1c;fill-opacity:1;fill-rule:nonzero;stroke:none"
         d="m 72.681652,733.61999 c 0.313464,-0.92232 2.524789,-3.8294 2.940782,-4.78852 0,-1.22947 0,-2.45894 0,-3.68842 0.70453,-1.68621 0.943798,-1.95145 1.648331,-3.63765 3.004318,-2.24124 3.559421,-2.60123 4.556087,-3.81101 l 0.06818,-2.09494 0.06818,-2.09494 c 0.698678,-1.70133 5.945303,-0.4632 7.010298,-1.25847 0.682975,1.38168 1.393508,3.41655 1.130647,4.59034 -0.206415,0.59553 -1.099071,1.34678 -4.047224,1.64708 l 1.505491,2.02767 c 0.08832,0.11895 3.903903,2.47969 4.224667,7.09719 0.002,0.0482 -3.639577,-3.33069 -3.89218,-3.80856 -0.574329,-1.0865 -1.772692,-1.26339 -1.772692,-1.15638 0.192943,1.06884 0.401045,1.87482 0.663485,2.9853 -0.390738,0.94737 -0.781483,1.89475 -1.172224,2.84213 -2.214746,0.63876 -7.99612,2.55742 -12.931828,5.14918 z"
         id="path7467"
         inkscape:connector-curvature="0"
         sodipodi:nodetypes="ccccccccccscscccc" />
      <path
         style="fill:#241c1c;fill-opacity:1;fill-rule:nonzero;stroke:none"
         d="m 127.5528,727.47924 c -2.00598,-0.79118 -4.82319,-1.06762 -6.26753,-1.28753 -2.92772,0.9114 -4.8387,4.11037 -8.18564,7.31208 1.07893,-4.05038 5.90843,-7.41258 6.26957,-9.54627 0.50097,-1.68218 0.43084,-2.41753 -0.0969,-2.97853 -8.43161,-3.72622 -8.88791,-8.31913 -9.11025,-10.02278 l 4.90596,0.0722 c 2.89471,0.0426 4.20732,2.77892 5.98865,5.40956 1.96512,1.89127 3.11892,1.47079 3.73984,2.86433 1.14664,2.84158 1.76806,4.79796 2.31884,5.17344 1.66134,0.67496 4.53025,1.89226 5.13463,2.1728 0.63242,1.4595 0.43819,2.92517 1.97152,6.74401 -1.7767,-1.53781 -4.2985,-3.87156 -6.66865,-5.9133 z"
         id="path7469"
         inkscape:connector-curvature="0"
         sodipodi:nodetypes="ccccccsccccccc" />
      <path
         style="fill:#b3b3b3;fill-opacity:1;fill-rule:nonzero;stroke:none"
         d="m 68.418967,809.69838 c 29.51618,-1.95938 54.294103,-6.51994 80.815023,-12.91328 -0.0693,0.88551 -0.53567,3.05379 -0.89908,3.7032 -24.37833,6.72634 -57.36114,12.24272 -78.884637,12.32133 -0.464257,-0.96448 -0.672826,-2.16598 -1.031306,-3.11125 z"
         id="path7475"
         inkscape:connector-curvature="0"
         sodipodi:nodetypes="ccccc" />
      <path
         style="fill:#cccccc;fill-opacity:1;stroke:none"
         d="m 68.621237,809.72874 c -7.187884,-17.98425 -13.60269,-39.62582 -19.1278,-59.84269 l 34.703303,-7.10462 44.54046,-6.28485 23.77312,-1.63953 -1.91277,40.16839 -1.36628,21.84748 c -29.32844,7.0725 -52.133669,10.76198 -80.610033,12.85582 z"
         id="path7477"
         inkscape:connector-curvature="0"
         sodipodi:nodetypes="cccccccc" />
      <path
         sodipodi:nodetypes="cccccc"
         inkscape:connector-curvature="0"
         id="path7479"
         d="M 69.473773,808.74311 C 62.475139,791.23236 56.229219,770.16058 50.849579,750.47599 94.464382,741.83352 126.22759,737.97609 151.15418,735.84268 l -1.86242,39.11082 -1.3303,21.27226 c -28.55626,6.8863 -50.761067,10.47864 -78.487687,12.51735 z"
         style="fill:#e6e6e6;fill-opacity:1;stroke:none" />
      <path
         style="fill:#e6e6e6;stroke:none"
         d="m 49.308628,750.022 3.20546,-1.68147 c 32.638053,-7.80955 70.563042,-14.04166 97.573652,-14.81022 l 2.28766,1.34811 c -35.19959,2.55186 -66.518908,7.17713 -103.066772,15.14358 z"
         id="path7481"
         inkscape:connector-curvature="0"
         sodipodi:nodetypes="ccccc" />
      <path
         style="fill:#f9f9f9;fill-opacity:1;fill-rule:nonzero;stroke:none"
         d="m 118.0639,794.45959 c -0.52742,-0.0713 -2.18159,-0.28936 -3.67593,-0.48455 -23.382721,-3.05425 -43.337858,-20.43816 -49.370772,-43.00932 -0.416732,-1.55913 -0.728537,-2.86453 -0.692906,-2.90089 0.271445,-0.27696 25.772894,-4.5551 37.597498,-6.30738 14.33748,-2.12466 44.32303,-5.61323 48.24778,-5.61323 h 0.82667 l -0.86136,18.29971 c -0.85546,18.17439 -1.8128,34.81635 -2.01444,35.01799 -0.0579,0.0579 -1.45027,0.60557 -3.09418,1.21708 -3.45292,1.28442 -8.20431,2.5443 -12.09884,3.20812 -2.61124,0.4451 -12.88036,0.8406 -14.86352,0.57247 z"
         id="path7483"
         inkscape:connector-curvature="0" />
      <circle
         r="28.141193"
         cy="276.25357"
         cx="196.98836"
         style="fill:#b3b3b3;fill-opacity:1;fill-rule:nonzero;stroke:none"
         id="path7487"
         transform="matrix(0.54413672,0,0,0.54413672,-1.0842167,625.32881)" />
      <polygon
         class="fil0"
         points="1815,9775 1815,9978 2019,10095 2019,10283 1770,10141 1770,9632 1770,9629 1626,9539 1618,9534 1618,9640 1618,10231 1618,10519 1471,10623 1471,9923 1196,10115 1196,10280 1425,10128 1425,10291 1092,10510 1626,10803 2147,10511 2147,10507 2147,9971 "
         id="polygon7489"
         transform="matrix(0.0183718,-0.00275187,0.00267643,0.01786807,48.463773,598.18744)"
         style="fill:#ffffff;fill-rule:evenodd" />
      <path
         style="fill:#cccccc;fill-opacity:1;fill-rule:nonzero;stroke:none"
         d="m 50.775923,846.30129 c -6.198103,-0.97197 -11.050284,-3.18465 -11.827033,-5.39331 -0.43847,-1.24679 0.384045,-2.40816 2.603111,-3.67552 l 1.764863,-1.00795 -1.512443,-0.39508 c -7.193212,-1.87897 -13.916077,-4.7911 -16.561744,-7.17403 -1.767132,-1.59164 -2.732856,-3.68642 -2.420753,-5.25091 0.322845,-1.61834 3.496001,-4.66098 6.470505,-6.20435 18.337084,-9.51454 67.06492,-12.78866 103.292651,-6.94045 12.47343,2.01357 22.69893,5.25638 27.41169,8.69306 7.81655,5.70004 2.41112,11.99417 -14.17785,16.5088 -1.51244,0.41161 -2.96734,0.82118 -3.23311,0.91016 -0.33276,0.11141 -0.12533,0.42584 0.66624,1.00983 1.41748,1.04579 1.69556,1.46911 1.70227,2.59142 0.0109,1.81812 -2.91607,3.62933 -7.99139,4.94515 -4.99395,1.29472 -8.85801,1.71062 -15.893,1.71062 -7.035,0 -10.89906,-0.4159 -15.893,-1.71062 -3.26242,-0.8458 -5.585392,-1.83693 -6.793575,-2.89854 -0.598678,-0.52605 -1.745367,-0.6313 -8.878108,-0.81495 l -8.19064,-0.21087 -0.858803,1.02063 c -1.615032,1.91936 -6.343291,3.63221 -12.321215,4.46347 -3.407021,0.47376 -13.891706,0.36712 -17.358666,-0.17656 z"
         id="path7491"
         inkscape:connector-curvature="0" />
      <path
         style="fill:#ac9393;fill-opacity:1;fill-rule:nonzero;stroke:none"
         d="m 101.52189,814.18086 c -3.027351,-1.82547 -5.445105,-3.37823 -5.37277,-3.45056 0.07233,-0.0723 3.582113,-0.57056 7.27965,-1.10718 3.69753,-0.53662 9.74511,-1.58958 13.95893,-2.33991 4.21382,-0.75033 7.71815,-1.30758 7.78739,-1.23833 0.0692,0.0693 -1.53368,1.33892 -3.16121,3.28193 l -3.71245,4.4321 c -3.04919,1.92872 -5.70055,3.59028 -9.42062,4.40243 -0.31822,0.004 -4.33156,-2.15499 -7.35892,-3.98048 z"
         id="path7495"
         inkscape:connector-curvature="0"
         sodipodi:nodetypes="scsscsccs" />
      <path
         style="fill:#483737;fill-opacity:1;fill-rule:nonzero;stroke:none"
         d="m 61.709416,843.78094 c -2.741294,-0.54232 -5.332206,-1.0718 -5.757579,-1.17662 -0.745741,-0.18376 -0.773406,-0.3309 -0.773406,-4.11358 0,-4.60293 -0.871391,-3.59511 7.218522,-8.34869 l 5.327976,-3.13069 4.988329,-0.60058 4.988329,-0.60058 6.391518,1.71017 6.391513,1.71017 5.528737,3.4103 c 3.040803,1.87566 5.486915,3.45211 5.435815,3.50321 -0.0511,0.0511 -4.024981,0.93317 -8.830848,1.96015 -4.805863,1.02698 -12.470662,2.96108 -17.032884,4.29801 -4.562221,1.33693 -8.429255,2.41593 -8.593402,2.39778 -0.164148,-0.0182 -2.541326,-0.47673 -5.28262,-1.01905 z"
         id="path7497"
         inkscape:connector-curvature="0" />
      <path
         style="fill:#6c5353;fill-opacity:1;fill-rule:nonzero;stroke:none"
         d="m 120.08808,843.11466 c -4.06468,-1.01171 -7.56491,-1.84578 -7.77829,-1.85349 -0.21338,-0.008 -0.58018,0.45002 -0.81511,1.01719 -0.23492,0.56716 -0.55319,1.0312 -0.70726,1.0312 -0.15406,0 -1.25673,-0.85612 -2.45038,-1.9025 -1.19364,-1.04637 -5.95995,-4.24988 -10.591798,-7.1189 l -8.421531,-5.21642 -11.858888,-3.18033 c -7.225961,-1.93787 -15.248107,-4.36823 -20.534256,-6.221 l -8.675365,-3.04067 -3.113446,-4.62029 c -2.456554,-3.64548 -3.925986,-5.39132 -6.96462,-8.27471 l -3.851177,-3.65442 1.860113,-4.59524 c 3.550719,-8.77175 2.829705,-7.76821 7.220277,-10.04943 l 3.861732,-2.00645 4.257518,1.75383 c 3.447135,1.42001 4.63792,1.75384 6.256041,1.75384 h 2.66693 c 2.860769,8.79965 6.140009,17.42995 9.248412,25.93911 4.574652,-0.16732 21.04904,-1.5755 26.52409,-2.10774 9.341888,6.1514 18.597278,10.54709 25.131338,13.43586 -0.6039,2.55931 -1.04303,3.12978 -2.2459,5.52024 0.0691,0.0691 3.19515,-1.41802 6.68922,-1.53283 l 5.56196,-0.18277 4.27095,1.25712 c 2.77809,0.8177 4.66605,1.51895 7.16206,2.94907 3.53242,2.02393 3.57288,2.075 3.88758,4.90739 0.1711,1.53993 0.16148,1.55643 -2.16417,3.71004 l -2.33604,2.16322 -5.97489,1.01237 c -3.28618,0.5568 -6.59361,0.99747 -7.34983,0.97927 -0.75622,-0.0182 -4.70059,-0.86085 -8.76527,-1.87256 z"
         id="path7499"
         inkscape:connector-curvature="0"
         sodipodi:nodetypes="ccsssscsscsscsscsscccccscsssscscc" />
      <path
         style="fill:#483737;fill-opacity:1;fill-rule:nonzero;stroke:none"
         d="m 121.08427,824.69992 c -3.40915,-1.58093 -7.13513,-3.23812 -12.38464,-6.60928 2.77086,-0.98841 6.11068,-1.81288 9.27715,-4.33681 l 3.41205,-3.83853 3.41205,-3.83854 6.82379,-1.46898 c 3.75309,-0.80794 8.97931,-2.04539 11.61383,-2.74989 l 4.79003,-1.2809 0.44531,-1.71868 c 0.24493,-0.94528 0.28845,-2.69392 0.37109,-3.73076 l 0.25601,-3.97479 6.57657,-0.76967 6.81212,1.7327 c 3.74667,0.95298 6.84367,1.77713 6.88222,1.83145 0.0386,0.0543 0.47539,2.24673 0.97074,4.87201 l 0.90065,4.77325 -1.96048,2.20131 c -1.07826,1.21072 -4.35803,4.08367 -7.28838,6.38433 l -5.32791,4.18302 -3.81752,0.58442 c -3.39834,0.52025 -4.55294,0.90561 -10.51493,3.50947 -7.45065,3.48891 -15.25033,5.26118 -22.81963,8.35109 0.82378,-1.80866 0.89613,-2.20292 1.56988,-4.10622 z"
         id="path7501"
         inkscape:connector-curvature="0"
         sodipodi:nodetypes="cccccsscssccscscsscsccc" />
      <path
         style="fill:#6c5353;fill-opacity:1;stroke:none"
         d="m 102.48889,810.28428 c 0.94288,0.86795 6.11519,3.61091 12.39596,1.8837 3.41117,-1.85371 3.99497,-2.51061 5.62072,-4.6181 -0.70223,1.73693 -1.3372,2.89636 -3.7674,4.86116 -2.9991,2.15072 -6.50309,2.96005 -9.90462,4.07122 l 3.88893,-1.8837 2.58249,-1.30644 c -0.98074,0.23608 -1.61794,0.5531 -4.13199,0.0912 -3.64907,-0.91107 -5.96084,-2.20479 -6.68409,-3.099 z"
         id="path7503"
         inkscape:connector-curvature="0"
         sodipodi:nodetypes="ccccccccc" />
      <path
         style="fill:#6c5353;fill-opacity:1;stroke:none"
         d="m 165.16747,794.72857 -8.95501,-1.37137 -6.29509,4.30386 1.88191,12.86628 -3.15975,-6.07645 v 6.6841 l 2.55211,3.03822 -6.24326,-3.14754 -1.28648,-4.65623 -3.25685,1.88907 -3.77246,0.0238 -4.27795,5.5263 v -6.07645 l -1.45835,6.92715 -1.09376,2.43058 -0.72917,-4.37504 -0.36459,-2.18752 -4.25352,9.96538 -0.12152,4.61809 8.43732,-2.98788 -1.99061,-2.06957 4.97701,1.29006 6.19799,-4.49658 7.53479,-1.7014 4.98269,-1.33682 -0.97223,-4.25351 3.52434,2.67363 8.50703,-5.59034 2.55211,-5.83339 -3.15975,-2.67364 3.28128,1.2153 z"
         id="path7505"
         inkscape:connector-curvature="0"
         sodipodi:nodetypes="cccccccccccccccccccccccccccccccc" />
      <path
         style="fill:#6c5353;fill-opacity:1;stroke:none"
         d="m 127.70091,808.43388 -4.21076,11.60109 -1.46088,6.87472 -0.68747,-6.01538 2.06241,-5.75758 -2.74988,4.5545 -0.40882,3.25938 -8.39816,-4.59009 8.63511,-3.9972 -1.03121,5.67165 3.69516,-7.39032 0.94528,1.0312 z"
         id="path7507"
         inkscape:connector-curvature="0"
         sodipodi:nodetypes="ccccccccccccc" />
      <path
         style="fill:#483737;fill-opacity:1;fill-rule:nonzero;stroke:none"
         d="m 101.93728,836.76403 c -8.184479,-4.5223 -17.709143,-8.63788 -24.578816,-10.93746 -5.898264,-1.57198 -13.532225,-4.04604 -20.416876,-6.35502 -4.411503,-1.47953 -8.151762,-2.76263 -8.311687,-2.85132 -0.159925,-0.0887 -1.295626,-1.63676 -2.523779,-3.44017 -3.192851,-4.68835 -4.509171,-6.26852 -8.265678,-9.92246 l -3.331691,-3.24074 2.136173,-5.29018 c 1.969499,-4.87741 3.028163,-7.04736 3.61526,-7.41021 0.128289,-0.0793 0.35548,0.58646 0.511437,1.49868 0.154334,0.90274 0.629119,3.67136 1.055075,6.15249 l 0.774467,4.51115 6.07645,6.80248 6.076451,6.80247 8.236691,4.31427 8.236697,4.31428 10.207169,1.46211 10.207169,1.4621 8.743258,6.80671 c 4.80879,3.74369 8.86855,6.75606 9.0217,6.69415 0.15314,-0.0619 2.01489,-1.60493 4.13721,-3.42896 2.12233,-1.82403 3.90208,-3.27312 3.955,-3.2202 0.1193,0.1193 -6.544,11.56607 -6.74095,11.58016 -0.0784,0.006 -7.9913,-5.63866 -8.82073,-6.30433 z"
         id="path7509"
         inkscape:connector-curvature="0"
         sodipodi:nodetypes="ccscsscsssscccccccscsscc" />
      <path
         style="fill:#483737;fill-opacity:1;fill-rule:nonzero;stroke:none"
         d="m 92.477047,813.58568 c -2.217767,-0.29735 -4.056585,-0.5181 -4.086266,-0.49057 -0.02969,0.0275 0.29687,0.40402 0.725666,0.83666 0.428791,0.43264 0.70271,0.78662 0.608707,0.78662 -0.13865,0 -4.353918,-1.0585 -5.13975,-1.29064 -0.145503,-0.043 -0.246905,0.0267 -0.318478,0.21882 -0.09944,0.26694 0.0085,0.34129 2.036403,1.40328 1.177778,0.61677 2.086723,1.12275 2.019887,1.12439 -0.06684,10e-4 -1.652797,-0.43737 -3.524345,-0.97559 l -3.402811,-0.9786 -5.711863,1.21317 -5.711864,1.21317 -3.904199,-2.67889 c -1.67054,-1.14625 -3.671285,1.4748 -2.873376,-0.93362 l 1.273867,-3.84506 0.433099,-3.71516 c 0.322288,-2.76463 -1.062729,-6.44945 -1.108554,-6.5236 -0.04583,-0.0741 -1.189908,-0.99669 -2.542413,-2.0501 -1.352501,-1.05342 -2.611801,-2.04008 -2.798447,-2.19259 l -0.339347,-0.2773 1.47131,-0.73754 c 1.274912,-0.6391 1.46621,-0.7734 1.433112,-1.00613 -0.03781,-0.26585 -0.06778,-0.26942 -2.935916,-0.35088 -1.593743,-0.0452 -2.917767,-0.10235 -2.942275,-0.12685 -0.03412,-0.0341 5.464485,-1.71048 6.211773,-1.89378 0.09658,-0.0237 0.378462,0.65171 0.786182,1.8837 0.683391,2.06497 3.578021,10.17125 4.309412,12.0683 0.927678,2.40618 1.909475,5.15647 1.948609,5.4586 0.05427,0.41895 0.890872,2.95763 1.015851,3.08262 0.123645,0.12364 6.984963,-0.10083 10.465925,-0.3424 4.875988,-0.33839 11.295966,-0.95755 15.052239,-1.45169 l 1.293413,-0.17014 0.58065,0.37222 c 0.319355,0.20472 0.729516,0.55067 0.911466,0.76877 4.746586,2.48508 11.607386,6.28633 13.178176,7.35021 -7.04617,-2.12993 -11.110403,-3.78397 -18.415843,-5.7494 z"
         id="path7511"
         inkscape:connector-curvature="0"
         sodipodi:nodetypes="ccsscsscscccsscscsscsscccssscsscsccc" />
      <path
         style="fill:#483737;fill-opacity:1;fill-rule:nonzero;stroke:none"
         d="m 144.84917,840.14011 c 0.91413,-0.93957 1.24455,-1.36416 1.30042,-1.67102 0.10121,-0.55595 -0.2398,-3.04133 -0.4895,-3.56752 -0.29453,-0.62069 -0.93934,-1.14731 -2.61394,-2.13481 -3.15918,-1.86297 -5.23641,-2.70123 -9.57497,-3.86394 l -2.22995,-0.59762 c -3.04839,-0.0535 -5.86002,0.38836 -9.86939,0.83663 l -4.08859,3.02169 2.37981,-3.7139 c 0.24484,-0.38208 -0.39646,0.38319 1.57612,-0.32455 1.20635,-0.43283 1.25469,-0.43942 6.57196,-0.8965 l 5.35666,-0.46046 6.18859,2.12795 6.18859,2.12796 1.01845,2.05184 1.01844,2.05184 -0.27811,1.52576 -0.27812,1.52575 -1.04415,1.22537 c -0.88425,1.03771 -1.97687,1.99515 -2.27685,1.99515 -0.0446,0 0.47049,-0.56683 1.14453,-1.25962 z"
         id="path7513"
         inkscape:connector-curvature="0"
         sodipodi:nodetypes="csssscccssscccccccssc" />
      <path
         sodipodi:nodetypes="cccccccccc"
         inkscape:connector-curvature="0"
         id="path7774"
         d="m 91.961998,692.08092 2.367047,-0.43043 1.77143,-1.37228 c 2.789269,0.14609 5.605995,-1.33111 7.058615,-2.37535 l -2.45542,5.28323 -5.260056,2.94345 -3.638056,0.44554 c -1.482668,0.5432 -3.714582,-0.59121 -4.890172,-1.29101 1.422987,0.042 2.188821,-0.50168 3.337331,-1.34442 z"
         style="fill:#dec2ae;fill-opacity:1;stroke:none" />
      <path
         sodipodi:nodetypes="cccccccc"
         inkscape:connector-curvature="0"
         id="path7776"
         d="m 89.244732,695.26513 3.252491,-1.90462 2.575729,-0.48292 1.791994,-1.50832 5.041084,-2.05149 c -1.69399,1.92642 -3.55523,3.68197 -5.182675,5.07428 l -3.65338,1.00491 c -1.604357,-0.0752 -2.800162,-0.18165 -3.825243,-0.13184 z"
         style="fill:#ffe6d5;fill-opacity:1;stroke:none" />
      <path
         sodipodi:nodetypes="ccccsccccc"
         inkscape:connector-curvature="0"
         id="path7780"
         d="m 91.130864,695.3389 -1.886398,-0.0656 3.229754,-1.90862 1.859736,-0.98055 2.565852,-1.05468 c 1.409003,-0.57917 4.431872,-1.78015 4.992652,-2.00093 0.0187,0.0178 -1.952752,2.22299 -2.711559,2.85681 l -2.959559,1.06266 -1.813414,0.79714 z"
         style="fill:#ffffff;fill-opacity:1;stroke:none" />
    </g>
  </g>
</svg>
