<?xml version="1.0" encoding="UTF-8" standalone="no"?>
<!-- Created with Inkscape (http://www.inkscape.org/) -->

<svg
   xmlns:dc="http://purl.org/dc/elements/1.1/"
   xmlns:cc="http://creativecommons.org/ns#"
   xmlns:rdf="http://www.w3.org/1999/02/22-rdf-syntax-ns#"
   xmlns:svg="http://www.w3.org/2000/svg"
   xmlns="http://www.w3.org/2000/svg"
   xmlns:sodipodi="http://sodipodi.sourceforge.net/DTD/sodipodi-0.dtd"
   xmlns:inkscape="http://www.inkscape.org/namespaces/inkscape"
   width="314.09"
   height="250"
   id="svg2"
   version="1.1"
   inkscape:version="0.48.4 r9939"
   sodipodi:docname="thankyou.svg">
  <defs
     id="defs4" />
  <sodipodi:namedview
     id="base"
     pagecolor="#ffffff"
     bordercolor="#666666"
     borderopacity="1.0"
     inkscape:pageopacity="0.0"
     inkscape:pageshadow="2"
     inkscape:zoom="0.7"
     inkscape:cx="34.126165"
     inkscape:cy="110.51112"
     inkscape:document-units="px"
     inkscape:current-layer="layer1"
     showgrid="false"
     inkscape:window-width="1600"
     inkscape:window-height="876"
     inkscape:window-x="1366"
     inkscape:window-y="24"
     inkscape:window-maximized="1" />
  <metadata
     id="metadata7">
    <rdf:RDF>
      <cc:Work
         rdf:about="">
        <dc:format>image/svg+xml</dc:format>
        <dc:type
           rdf:resource="http://purl.org/dc/dcmitype/StillImage" />
        <dc:title></dc:title>
      </cc:Work>
    </rdf:RDF>
  </metadata>
  <g
     inkscape:label="Layer 1"
     inkscape:groupmode="layer"
     id="layer1"
     transform="translate(0,-802.35518)">
    <path
       style="fill:#008066;fill-opacity:1"
       d="m 74.572918,967.03757 c -1.352228,-3.10896 -1.614908,-30.74353 -0.45011,-47.35237 0.846795,-12.07418 2.971237,-31.91764 4.073992,-38.05323 0.287451,-1.59932 0.42994,-3.00054 0.31664,-3.11384 -0.113325,-0.11333 -1.863211,0.86334 -3.888716,2.17028 -8.51413,5.49374 -19.295814,10.01219 -28.633259,11.99982 -6.332088,1.34788 -22.241818,1.35161 -27.579502,0.006 C 8.0487727,890.08273 2.1708381,884.81099 1.5927908,877.60979 1.0403104,870.72707 3.523206,865.93057 8.941551,863.41335 c 3.519725,-1.63519 8.231288,-1.80998 11.475916,-0.42575 2.578024,1.09987 2.318539,2.09942 -0.677802,2.61094 -4.777985,0.81566 -7.719928,4.02755 -8.42927,9.20274 -1.286912,9.38906 8.172752,16.43424 22.071652,16.43808 8.313634,0.002 21.629822,-3.42886 30.56273,-7.87504 5.673915,-2.82408 14.241519,-8.28651 14.886082,-9.4909 0.312744,-0.58436 0.785641,-3.00233 1.050902,-5.37328 0.331465,-2.96268 0.899489,-5.0227 1.816299,-6.58711 1.477517,-2.52121 8.36968,-8.22641 9.937894,-8.22641 1.796738,0 2.242771,1.80861 1.532257,6.21307 -0.355689,2.20494 -0.552235,4.09899 -0.436768,4.20897 0.115515,0.10991 2.764112,-1.64672 5.88586,-3.90375 10.354367,-7.48627 19.516227,-14.87598 25.981777,-20.95617 4.61446,-4.33943 17.39109,-16.1019 19.73143,-18.16527 8.70867,-7.67792 21.73405,-15.17858 29.68698,-17.09521 4.5216,-1.0897 13.35365,-1.22159 17.38465,-0.2596 4.7058,1.12301 10.39681,4.16815 13.39723,7.16856 6.63173,6.63173 8.79134,17.89419 4.99385,26.04312 -2.04056,4.37881 -7.64951,9.81594 -11.74904,11.38911 -3.67144,1.40891 -11.41656,1.75946 -14.95889,0.67705 -2.95139,-0.90184 -7.74318,-3.87747 -9.00708,-5.59326 -1.82037,-2.47124 -0.74928,-2.77015 1.77328,-0.49487 4.78084,4.31216 9.87613,5.41539 14.94339,3.2355 5.99045,-2.57701 9.44076,-11.57501 7.56187,-19.72043 -1.2631,-5.47583 -5.70063,-11.48056 -10.20717,-13.81206 -7.63085,-3.94786 -19.0025,-2.84509 -30.5538,2.96299 -3.6989,1.85983 -10.85924,7.28703 -16.64081,12.61296 -1.92346,1.77188 -5.88672,5.39472 -8.80725,8.05073 -2.92051,2.65603 -5.69298,5.20689 -6.16105,5.66857 -1.30702,1.28923 -13.82246,11.73126 -17.83249,14.87825 -4.01303,3.14932 -7.12833,5.42352 -12.349678,9.01544 -1.99729,1.37399 -3.700131,2.97156 -3.857507,3.61906 -0.673851,2.77233 -4.146382,32.1503 -4.95722,41.9386 -0.556666,6.72001 -0.963515,18.65394 -1.088404,31.92595 l -0.199456,21.19454 -1.34036,1.04142 c -1.468693,1.14109 -6.991367,3.51944 -8.172379,3.51944 -0.407591,0 -1.134914,-0.90545 -1.616258,-2.01214 z m 24.134193,-8.09397 c -1.220498,-0.76759 -1.833681,-20.42195 -1.214059,-38.9142 0.604784,-18.04962 1.474621,-27.92258 3.523218,-39.98971 1.98035,-11.66513 2.89719,-14.31577 5.98651,-17.30743 4.13503,-4.00432 8.27075,-5.47583 8.99314,-3.19979 0.28289,0.8913 -0.96089,11.26955 -1.61706,13.49304 -1.0802,3.66026 -4.55293,29.07774 -4.50561,32.97714 0.0165,1.36603 0.3204,0.99739 2.00698,-2.43515 2.68216,-5.45879 6.30857,-10.4131 10.38361,-14.18588 3.8907,-3.6021 7.26747,-5.29067 10.48298,-5.24205 2.85214,0.0431 4.64095,1.33544 6.12432,4.42453 1.05068,2.18803 1.13045,2.9935 0.85016,8.58512 -0.17011,3.39382 -0.83835,9.18879 -1.48498,12.8777 -1.44658,8.25251 -1.68498,19.7702 -0.4609,22.26769 0.56142,1.14546 1.17374,1.60973 2.12315,1.60973 2.96759,0 5.65347,-9.7372 6.43315,-23.32229 1.14621,-19.97121 4.34159,-30.0616 11.52105,-36.38121 1.41071,-1.24175 3.43963,-2.5007 4.50872,-2.79766 2.80407,-0.77889 7.31796,-0.6689 9.47121,0.23078 l 1.85892,0.77671 0.34374,-2.14959 c 0.48555,-3.03652 1.56113,-4.08846 5.72078,-5.59511 6.55056,-2.37266 7.11761,-1.90585 6.33356,5.2138 -2.4066,21.85312 -3.04896,40.93414 -1.50059,44.57387 1.22674,2.88366 2.19012,2.63294 4.06065,-1.05678 2.46656,-4.86542 2.93947,-9.06939 4.83855,-43.01209 0.5811,-10.38583 0.58783,-10.39974 6.57947,-13.59296 4.76382,-2.53887 5.8191,-2.4483 5.82768,0.50021 0.004,1.11593 0.15933,2.95765 0.34686,4.09268 l 0.34095,2.06371 2.24555,-4.31265 c 4.35016,-8.35456 8.09446,-11.52236 13.69442,-11.58586 3.57965,-0.0406 5.29047,1.05415 7.02487,4.49519 1.71982,3.4121 1.81716,6.18622 0.56671,16.15053 -2.04263,16.27682 -2.41949,21.99179 -1.60851,24.39276 1.42676,4.22409 4.43198,2.37219 8.06857,-4.97208 1.57344,-3.17767 1.64507,-3.59032 1.30397,-7.51199 -0.92307,-10.61312 -1.34845,-29.83287 -0.85171,-38.48315 0.64067,-11.1567 2.75278,-25.75889 4.32581,-29.90677 0.64059,-1.68918 1.99683,-4.0434 3.01388,-5.23158 1.58186,-1.84804 2.15643,-2.16032 3.975,-2.16032 3.28003,0 6.03997,1.68357 7.35856,4.48873 2.27019,4.82963 2.83884,13.55166 1.43899,22.07152 -1.00137,6.09469 -1.02575,5.79202 0.3951,4.90535 3.2656,-2.03785 7.16143,-1.21075 8.74794,1.8572 0.68724,1.329 0.84521,2.6615 0.65702,5.54212 -0.29745,4.55337 -1.47699,7.07781 -5.22127,11.17467 -1.48947,1.6297 -2.70811,3.08467 -2.70811,3.23326 0,0.14858 1.02618,0.0329 2.28043,-0.2571 1.25423,-0.29 3.98382,-0.42434 6.06577,-0.29857 5.29822,0.3201 9.61178,2.65028 12.82907,6.93021 4.62102,6.1473 6.0607,12.61664 6.72693,30.22822 0.48528,12.82782 0.91294,15.3672 3.30473,19.62282 0.65468,1.16484 1.79397,2.51341 2.53179,2.99685 2.0382,1.33547 8.12129,1.60557 11.0417,0.49026 5.90787,-2.25624 8.70232,-10.10311 4.87757,-13.69628 -1.77544,-1.66793 -5.55663,-2.0769 -7.48997,-0.81012 -1.78215,1.1677 -2.89205,0.44673 -1.96861,-1.27875 0.5783,-1.08056 3.52821,-2.2302 5.67739,-2.21258 2.07846,0.0171 5.4636,1.99741 6.62421,3.87533 1.50982,2.44293 1.57436,7.13728 0.13686,9.95499 -4.97263,9.74718 -18.8883,10.12867 -27.72505,0.76007 -4.33245,-4.59322 -5.87711,-9.59186 -7.49783,-24.26344 -1.27039,-11.50026 -2.59507,-17.86724 -4.53888,-21.81566 -4.04839,-8.22346 -11.38789,-10.37756 -19.74084,-5.79377 -3.98658,2.18768 -4.47261,2.69189 -4.11025,4.26413 0.13662,0.59268 0.48347,6.02747 0.7708,12.07731 0.28733,6.04983 0.67736,12.22763 0.86673,13.72844 0.33194,2.63064 0.27235,2.79862 -1.65774,4.6731 -2.41428,2.34472 -5.11,3.38189 -6.64904,2.55823 -1.24649,-0.66712 -1.52777,-1.4337 -2.37841,-6.48204 l -0.63534,-3.77062 -2.77814,4.75553 c -3.00316,5.14071 -7.47292,10.41463 -9.88283,11.66085 -2.48677,1.28595 -5.17668,0.99821 -6.91455,-0.73967 -2.66821,-2.66822 -3.24016,-7.29394 -2.16756,-17.53041 1.69993,-16.22337 2.16645,-29.81818 1.06862,-31.14097 -1.74047,-2.09714 -4.88545,0.21414 -7.89688,5.80353 -1.14815,2.13103 -2.48278,5.45154 -2.96584,7.37891 -0.93355,3.72481 -1.74163,15.4181 -2.27932,32.98252 -0.18069,5.90227 -0.45559,11.17428 -0.6109,11.71556 -0.31518,1.09841 -7.25647,4.64984 -9.08813,4.64984 -1.63946,0 -2.23714,-0.95265 -2.67674,-4.26645 l -0.38445,-2.89819 -2.30645,4.83741 c -2.57509,5.40087 -5.31641,8.34491 -8.62606,9.26396 -1.12757,0.31311 -2.37581,0.57062 -2.77389,0.57227 -1.58173,0.006 -4.31845,-1.7695 -5.04808,-3.27603 l -0.77158,-1.59314 -2.28452,2.96115 c -4.69589,6.08674 -8.91749,8.88643 -13.3997,8.88643 -2.23207,0 -3.00217,-0.27799 -4.56055,-1.64626 -1.03125,-0.90546 -2.52644,-3.0182 -3.32265,-4.695 -1.34573,-2.83408 -1.47542,-2.95428 -1.84224,-1.7073 -3.8874,13.21557 -5.19125,15.68739 -9.3323,17.69204 -4.64312,2.24769 -8.12931,0.38558 -10.53232,-5.6258 -1.19543,-2.99044 -1.28497,-3.91848 -1.29356,-13.40767 -0.006,-7.01021 0.31779,-12.74705 1.0377,-18.36513 1.08378,-8.45778 0.94009,-10.46172 -0.82975,-11.57212 -2.68953,-1.6874 -7.95921,3.31202 -11.76043,11.15728 -5.17721,10.68521 -5.64509,13.90783 -4.8394,33.33293 0.41008,9.88713 0.41762,14.47859 0.0249,15.21226 -0.55306,1.03342 -6.76079,4.93433 -8.86116,5.56832 -0.590237,0.17815 -1.37606,0.13342 -1.746295,-0.0994 z m 67.818479,-34.02683 c 4.49866,-4.7158 4.68719,-5.33958 4.85414,-16.06202 0.0818,-5.24984 0.39972,-12.02326 0.70664,-15.05205 1.12943,-11.14571 1.30251,-17.64145 0.48393,-18.1597 -2.66359,-1.68636 -6.86038,0.74996 -8.87601,5.15271 -2.73772,5.97996 -5.00168,20.04687 -5.00677,31.10922 -0.006,13.93486 2.68898,18.40945 7.83807,13.01184 z m 87.6889,-66.66892 c 3.08026,-2.52746 4.25899,-4.53787 4.25899,-7.26397 0,-4.59556 -3.21183,-6.04531 -5.43139,-2.45157 -0.92131,1.49171 -3.01508,7.6558 -4.00957,11.80425 l -0.37208,1.55211 2.12311,-1.28383 c 1.16771,-0.70611 2.71163,-1.76676 3.43094,-2.35699 z m -4.20211,-9.39 c 0.5933,-1.91823 1.76639,-5.08047 2.60687,-7.02719 2.12328,-4.91782 4.14061,-18.69181 3.41149,-23.29293 -0.38654,-2.43921 -0.74303,-3.25249 -1.48731,-3.39304 -2.53874,-0.47939 -4.05144,3.11768 -5.49022,13.05519 -1.02758,7.09749 -1.6179,28.97505 -0.70219,26.02369 0.32046,-1.0329 1.06809,-3.44747 1.66136,-5.36572 z"
       id="path3000"
       inkscape:connector-curvature="0"
       sodipodi:nodetypes="csscsscssssscsssssscssssssssssssssssscsscssccscccssssscsssssssssssscssssssscscsssssssssssssssssssssssssssscsssssscssscscssssssssssscsscscsssscsscssssccccscssscssssscsscsssscc" />
    <path
       inkscape:connector-curvature="0"
       id="path3021"
       d="m 133.72078,1051.1585 c -7.12002,-0.8055 -11.90241,-6.3603 -12.48487,-14.501 -0.53072,-7.4174 2.7196,-15.1824 8.99333,-21.4851 6.20868,-6.2375 13.60413,-10.6595 29.7835,-17.80842 5.86196,-2.59017 6.39572,-3.17408 6.84308,-7.48612 l 0.26069,-2.5127 -2.27218,3.04926 c -3.038,4.077 -4.87893,5.72654 -7.86417,7.04657 -5.52778,2.44433 -10.22225,1.16317 -12.68105,-3.46074 -1.36068,-2.55887 -1.07369,-9.86654 0.85968,-21.88869 0.93939,-5.84139 1.70663,-11.99855 1.70497,-13.68256 -0.006,-6.11563 -1.79258,-9.2324 -5.29223,-9.2324 -1.53637,0 -2.28821,0.44536 -4.17846,2.47516 -2.64656,2.84197 -3.31155,5.19458 -2.3631,8.36024 0.70823,2.36385 0.5957,2.76141 -0.6467,2.28465 -2.72494,-1.04565 -2.2451,-7.56655 0.85432,-11.60995 3.13542,-4.09034 10.29431,-7.95142 14.73459,-7.94694 2.15397,0.002 5.26201,1.61746 6.55286,3.4056 2.55095,3.53371 2.73509,9.26491 0.6996,21.77403 -0.93252,5.73083 -1.45695,11.0525 -1.47557,14.97347 -0.0286,6.03643 -0.0172,6.09292 1.49925,7.39733 1.90755,1.64081 3.22011,1.3281 5.57131,-1.3273 1.8943,-2.13938 5.17753,-8.53426 5.69111,-11.08484 0.17772,-0.88254 0.69489,-7.88251 1.14928,-15.55547 1.07382,-18.1331 1.70738,-24.17455 2.69291,-25.67863 0.91163,-1.39132 4.60185,-3.38469 7.24426,-3.91316 3.43749,-0.6875 3.87347,1.99509 2.43723,14.9959 -0.43041,3.89614 -1.04854,11.79231 -1.37361,17.54703 -0.32508,5.75472 -0.81056,12.15333 -1.07886,14.21913 -0.26829,2.06579 -0.48459,4.11817 -0.48067,4.56084 0.014,1.57632 2.31088,-3.59313 4.5633,-10.2704 2.64454,-7.8396 4.10009,-14.19106 5.61578,-24.50508 1.25882,-8.56622 1.79402,-10.74831 3.44434,-14.04346 0.66758,-1.33296 1.52225,-3.3894 1.89925,-4.56985 1.49771,-4.68957 6.17706,-9.11676 11.36093,-10.74871 2.59926,-0.81828 3.56654,-0.87288 6.5895,-0.37196 6.36831,1.05526 10.43326,4.57703 12.37869,10.72459 l 0.89346,2.82334 0.93401,-1.21363 c 2.03522,-2.64451 4.90383,-8.12048 5.36502,-10.24146 0.26792,-1.23208 0.6522,-3.93036 0.85398,-5.99615 0.53524,-5.47996 1.5293,-6.80405 7.0699,-9.4172 4.79709,-2.26246 5.18803,-1.95483 4.73797,3.7283 -0.20105,2.53867 -0.57838,6.17977 -0.83853,8.09133 -1.21041,8.89397 -1.79637,22.48232 -1.19216,27.64558 0.62814,5.36772 1.12411,6.49723 3.19945,7.28627 2.99332,1.13807 5.77653,-1.93682 7.94709,-8.77999 1.11249,-3.50739 1.3703,-5.61356 1.60917,-13.14598 0.15643,-4.9332 0.6429,-13.29574 1.08102,-18.58343 0.73264,-8.84233 0.90657,-9.75818 2.16689,-11.41054 1.55866,-2.04352 6.34694,-4.9866 8.12526,-4.99413 2.09108,-0.009 2.21612,1.33704 1.09612,11.79952 -0.61636,5.7578 -1.09386,14.20798 -1.137,20.12141 -0.0668,9.16279 0.0463,10.57824 1.11713,13.98224 1.21213,3.85284 3.27808,7.52577 4.17638,7.42488 0.27279,-0.0307 1.70505,-1.84158 3.18279,-4.02428 5.75676,-8.50314 11.96673,-12.76754 19.27563,-13.2366 10.18303,-0.6535 15.98377,4.52982 14.87566,13.2923 -0.68534,5.41953 -3.81978,9.23636 -9.97116,12.14193 -4.65167,2.19721 -8.33815,2.79035 -14.2055,2.28568 -2.50097,-0.21512 -4.74142,-0.27112 -4.97875,-0.12443 -0.23735,0.14669 -1.89229,2.72308 -3.67765,5.72532 -1.78535,3.00224 -3.75435,6.30372 -4.37554,7.33661 -14.5492,24.19238 -26.35518,33.59129 -43.5899,34.70249 -8.74601,0.564 -14.35636,-1.6782 -17.70684,-7.0765 -1.45116,-2.33811 -1.60695,-3.02042 -1.58169,-6.92708 0.0216,-3.35545 0.28885,-4.83295 1.18375,-6.54643 2.24108,-4.29108 6.14634,-6.40847 11.05534,-5.99415 3.31299,0.27963 7.31772,2.57241 7.31772,4.18953 0,1.37073 -0.77912,1.34885 -2.78317,-0.0782 -3.82516,-2.72376 -10.07567,-1.55568 -12.67235,2.36817 -1.22854,1.85646 -1.44645,2.75751 -1.44645,5.98092 0,3.33962 0.19563,4.08502 1.62983,6.20975 2.20075,3.26039 5.327,4.91349 9.91227,5.24159 6.41869,0.4593 11.97856,-1.529 18.09876,-6.47242 6.443,-5.20413 15.85783,-18.73905 23.30571,-33.50475 l 4.46649,-8.85497 -1.87799,-1.41141 c -3.77535,-2.83737 -7.95334,-7.14701 -9.1917,-9.48135 -0.69828,-1.31625 -1.39838,-2.3932 -1.55579,-2.3932 -0.15742,0 -0.61644,1.11842 -1.02005,2.48534 -1.58684,5.37428 -4.36394,9.32835 -8.35387,11.8943 -1.73635,1.11666 -2.83123,1.38687 -5.73257,1.41475 -3.26834,0.0314 -3.73376,-0.10687 -5.24972,-1.5589 -0.9149,-0.87635 -2.31929,-2.92874 -3.12086,-4.56085 -1.38232,-2.81463 -1.47121,-3.47085 -1.72568,-12.73905 l -0.26829,-9.77155 -2.72819,3.61514 c -2.726,3.61228 -2.72846,3.61926 -3.07716,8.69843 -0.68089,9.91822 -3.7546,19.6737 -8.05863,25.57682 -4.89733,6.71688 -10.39254,10.1064 -16.22189,10.0059 -5.99794,-0.10334 -8.67957,-2.65522 -11.75172,-11.18291 -0.28436,-0.78939 -0.79084,0.34565 -1.91543,4.29256 -1.97657,6.93712 -5.26459,14.55096 -7.61072,17.62359 -1.582,2.07188 -2.02759,3.34477 -3.02462,8.64044 -1.59696,8.48209 -5.53245,21.96189 -8.16309,27.96019 -3.85307,8.7857 -10.54164,17.5704 -16.27558,21.3764 -5.79718,3.8479 -12.08226,5.3935 -18.82885,4.6302 z m 7.78027,-3.3444 c 6.52043,-1.9369 14.75056,-13.2873 19.28992,-26.6036 1.68249,-4.9357 4.83057,-21.78031 4.19018,-22.4207 -0.69624,-0.69623 -16.43774,6.6355 -24.39147,11.3606 -3.3091,1.9659 -9.97595,8.3841 -12.21903,11.7635 -3.90081,5.8767 -5.15339,13.5239 -3.18096,19.4199 2.13087,6.3697 8.35638,8.843 16.31136,6.4803 z m 70.1259,-76.56034 c 2.88817,-2.09218 4.18317,-3.83979 6.60328,-8.91118 2.59653,-5.44104 5.36266,-16.33049 5.36542,-21.12215 5.3e-4,-1.18474 -0.15075,-1.12147 -2.27969,0.95257 -3.48177,3.39195 -6.88023,4.87731 -11.15913,4.87731 -1.96382,0 -4.34329,-0.26937 -5.28774,-0.5986 -0.94445,-0.32925 -1.81582,-0.49996 -1.93639,-0.37939 -0.12064,0.1205 -0.50231,3.01147 -0.8483,6.42425 -0.73458,7.24568 -0.21981,11.40809 1.96248,15.86852 1.25636,2.56791 3.22211,4.35998 4.84745,4.41914 0.32461,0.0122 1.55428,-0.6769 2.73262,-1.53047 z m 84.98094,-15.04677 c 7.36227,-2.79745 11.68997,-8.82995 9.82366,-13.69349 -0.55549,-1.44758 -3.19564,-2.43889 -6.48132,-2.43358 -3.95634,0.006 -7.43501,1.89786 -11.33155,6.1613 -2.79504,3.05821 -6.9165,9.72924 -6.35672,10.28902 1.49374,1.49373 10.07276,1.30042 14.34593,-0.32325 z m -77.5204,-16.42273 c 0.6188,-0.38474 2.00565,-1.53001 3.08188,-2.54503 l 1.95679,-1.8455 -0.73417,-2.43945 c -3.02087,-10.0376 -9.44596,-12.19087 -13.20512,-4.42546 -3.66489,7.57064 2.4303,15.27842 8.90062,11.25544 z"
       style="fill:#00aa88"
       sodipodi:nodetypes="ssssscsssssssssscsscsscsssssscssssssscscsssssssssscssccssssscsscscssscsssssscsssssscsscsssccsssssscssscscsscssccsscssscssssscsss" />
  </g>
</svg>
