<?xml version="1.0" encoding="UTF-8" standalone="no"?>
<!-- Created with Inkscape (http://www.inkscape.org/) -->

<svg
   xmlns:dc="http://purl.org/dc/elements/1.1/"
   xmlns:cc="http://creativecommons.org/ns#"
   xmlns:rdf="http://www.w3.org/1999/02/22-rdf-syntax-ns#"
   xmlns:svg="http://www.w3.org/2000/svg"
   xmlns="http://www.w3.org/2000/svg"
   xmlns:sodipodi="http://sodipodi.sourceforge.net/DTD/sodipodi-0.dtd"
   xmlns:inkscape="http://www.inkscape.org/namespaces/inkscape"
   width="58"
   height="58"
   viewBox="0 0 15.345833 15.345834"
   version="1.1"
   id="svg1888"
   inkscape:version="0.92.3 (2405546, 2018-03-11)"
   sodipodi:docname="dashicon-aank.svg">
  <defs
     id="defs1882" />
  <sodipodi:namedview
     id="base"
     pagecolor="#ffffff"
     bordercolor="#666666"
     borderopacity="1.0"
     inkscape:pageopacity="0.0"
     inkscape:pageshadow="2"
     inkscape:zoom="7.9195959"
     inkscape:cx="19.261303"
     inkscape:cy="29.938377"
     inkscape:document-units="mm"
     inkscape:current-layer="layer1"
     showgrid="false"
     units="px"
     inkscape:window-width="1396"
     inkscape:window-height="841"
     inkscape:window-x="148"
     inkscape:window-y="58"
     inkscape:window-maximized="0" />
  <metadata
     id="metadata1885">
    <rdf:RDF>
      <cc:Work
         rdf:about="">
        <dc:format>image/svg+xml</dc:format>
        <dc:type
           rdf:resource="http://purl.org/dc/dcmitype/StillImage" />
        <dc:title></dc:title>
      </cc:Work>
    </rdf:RDF>
  </metadata>
  <g
     inkscape:label="Layer 1"
     inkscape:groupmode="layer"
     id="layer1"
     transform="translate(0,-281.65415)">
    <path
       inkscape:connector-curvature="0"
       id="path1528"
       d="m 7.6623764,281.8592 a 7.4891701,7.4891701 0 0 0 -7.48927632,7.48924 7.4891701,7.4891701 0 0 0 1.01594562,3.74779 l 2.7845779,-4.82796 2.7253273,4.65107 -1.9620096,3.32261 a 7.4891701,7.4891701 0 0 0 2.9254351,0.59555 7.4891701,7.4891701 0 0 0 4.8462046,-1.7903 l -2.5655884,0.007 -4.9293292,-8.58141 2.6875623,-4.61204 a 7.4891701,7.4891701 0 0 0 -0.038866,-0.002 z m 0.063373,0.002 6.4472846,11.17692 a 7.4891701,7.4891701 0 0 0 0.978397,-3.69092 7.4891701,7.4891701 0 0 0 -7.4256816,-7.48599 z"
       style="opacity:1;fill:#ffffff;fill-opacity:1;stroke:none;stroke-width:0.18775159;stroke-miterlimit:4;stroke-dasharray:none" />
  </g>
</svg>
