<?xml version="1.0" encoding="UTF-8" standalone="no"?>
<!-- Created with Inkscape (http://www.inkscape.org/) -->

<svg
   xmlns:dc="http://purl.org/dc/elements/1.1/"
   xmlns:cc="http://creativecommons.org/ns#"
   xmlns:rdf="http://www.w3.org/1999/02/22-rdf-syntax-ns#"
   xmlns:svg="http://www.w3.org/2000/svg"
   xmlns="http://www.w3.org/2000/svg"
   xmlns:sodipodi="http://sodipodi.sourceforge.net/DTD/sodipodi-0.dtd"
   xmlns:inkscape="http://www.inkscape.org/namespaces/inkscape"
   width="58"
   height="58"
   viewBox="0 0 15.345833 15.345834"
   version="1.1"
   id="svg1137"
   inkscape:version="0.92.3 (2405546, 2018-03-11)"
   sodipodi:docname="dashicon-pawon.svg">
  <defs
     id="defs1131" />
  <sodipodi:namedview
     id="base"
     pagecolor="#ffffff"
     bordercolor="#666666"
     borderopacity="1.0"
     inkscape:pageopacity="0.0"
     inkscape:pageshadow="2"
     inkscape:zoom="5.6"
     inkscape:cx="5.5113309"
     inkscape:cy="19.643009"
     inkscape:document-units="mm"
     inkscape:current-layer="layer1"
     showgrid="false"
     units="px"
     inkscape:window-width="1289"
     inkscape:window-height="739"
     inkscape:window-x="50"
     inkscape:window-y="78"
     inkscape:window-maximized="0" />
  <metadata
     id="metadata1134">
    <rdf:RDF>
      <cc:Work
         rdf:about="">
        <dc:format>image/svg+xml</dc:format>
        <dc:type
           rdf:resource="http://purl.org/dc/dcmitype/StillImage" />
        <dc:title></dc:title>
      </cc:Work>
    </rdf:RDF>
  </metadata>
  <g
     inkscape:label="Layer 1"
     inkscape:groupmode="layer"
     id="layer1"
     transform="translate(0,-281.65415)">
    <path
       style="opacity:1;fill:#ffffff;fill-opacity:1;stroke:none;stroke-width:5.90285635;stroke-miterlimit:4;stroke-dasharray:none;stroke-opacity:1"
       d="M 3.6796875 0.76757812 C 1.9818151 0.76757812 0.61328125 2.1341588 0.61328125 3.8320312 L 0.61328125 54.587891 C 0.61328125 56.285763 1.9818151 57.652344 3.6796875 57.652344 L 54.435547 57.652344 C 56.133419 57.652344 57.5 56.285763 57.5 54.587891 L 57.5 3.8320312 C 57.5 2.1341588 56.133419 0.76757812 54.435547 0.76757812 L 3.6796875 0.76757812 z M 32.716797 4.8457031 C 34.352268 4.835574 34.950528 6.9838529 33.755859 7.9550781 C 34.35206 8.1891821 34.935336 8.4615631 35.501953 8.7714844 C 39.032197 10.694773 41.818146 13.899078 43.171875 17.689453 C 43.179056 17.711752 43.181334 17.727196 43.183594 17.746094 C 43.79268 17.714988 44.387289 18.141235 44.337891 18.833984 C 44.312658 19.186274 44.100275 19.504053 43.757812 19.613281 C 43.563436 19.67073 43.3988 19.660774 43.25 19.597656 C 43.225282 19.601776 43.19852 19.601436 43.166016 19.597656 C 41.133945 19.150916 39.112114 18.645657 37.095703 18.132812 C 33.474103 17.211176 29.871414 16.209801 26.292969 15.130859 C 22.740633 14.060119 19.127883 13.013405 15.693359 11.601562 C 15.685309 11.601562 15.677972 11.59753 15.669922 11.59375 C 15.667238 11.592541 15.663291 11.591053 15.660156 11.589844 C 15.623669 11.574348 15.601308 11.549893 15.587891 11.523438 C 15.572279 11.506166 15.556984 11.493099 15.542969 11.474609 C 15.261051 11.126704 15.357609 10.626203 15.708984 10.324219 C 16.243236 9.8650437 17.02541 10.136831 17.585938 10.396484 C 17.614241 10.413492 17.638373 10.424588 17.65625 10.447266 C 19.343233 8.9416148 21.487996 7.9613837 23.660156 7.3886719 C 26.135988 6.7363632 28.731971 6.6736243 31.210938 7.1953125 C 30.948325 6.8685345 30.879961 6.3742155 31.027344 5.9570312 C 31.27115 5.2652266 32.005391 4.8489913 32.716797 4.8457031 z M 19.267578 15.75 C 19.937348 15.72244 20.608138 15.851042 21.070312 16.097656 C 21.16663 16.002034 21.371504 16.015658 21.408203 16.191406 C 21.801575 18.057926 22.194441 19.924647 22.587891 21.791016 C 22.806751 22.829554 23.122687 24.691842 21.646484 24.996094 C 20.246115 25.284283 19.549433 23.117416 19.103516 22.193359 C 18.353603 20.640616 17.611026 19.053416 17.126953 17.392578 C 17.125177 17.400137 17.122165 17.412363 17.119141 17.419922 L 17.119141 17.421875 C 17.084301 17.546977 16.881581 17.496574 16.898438 17.371094 C 17.037127 16.275716 18.151296 15.795933 19.267578 15.75 z M 19.240234 16.169922 C 19.045166 16.171008 18.845085 16.189241 18.638672 16.232422 L 18.638672 16.234375 C 18.049584 16.357247 17.465609 16.643765 17.205078 17.189453 C 17.227064 17.193611 17.247898 17.207792 17.259766 17.230469 C 17.272654 17.25617 17.285083 17.280184 17.296875 17.306641 C 17.906607 18.529998 18.424862 19.799403 18.998047 21.041016 C 19.00931 20.879932 19.084261 20.725096 19.232422 20.634766 C 19.319049 20.580718 19.435286 20.557021 19.550781 20.568359 C 19.299399 20.075055 19.26813 19.444759 19.873047 19.183594 C 20.130569 19.072854 20.42769 19.113131 20.625 19.318359 C 20.671843 19.190989 20.752885 19.074894 20.863281 18.978516 C 20.641622 18.590131 20.852973 17.864761 21.376953 18.025391 C 21.383341 18.025391 21.390324 18.029499 21.396484 18.033203 C 21.280899 17.484189 21.166227 16.935657 21.050781 16.386719 C 21.028497 16.395714 21.002944 16.399621 20.976562 16.396484 C 20.373107 16.31513 19.82544 16.166662 19.240234 16.169922 z M 13.226562 18.646484 C 13.647049 18.674889 14.025124 19.009881 14.222656 19.386719 C 14.624703 20.15487 14.774621 21.109165 15.037109 21.933594 C 15.346016 22.903383 15.676161 23.866461 16.027344 24.822266 C 16.715694 26.695853 17.48448 28.539303 18.328125 30.347656 C 18.354268 30.340097 18.385415 30.336191 18.419922 30.34375 C 19.905192 30.629558 20.951953 31.826277 21.615234 33.113281 C 21.735878 33.346974 21.884215 33.663109 22.007812 34.001953 C 23.316527 33.537325 24.607561 33.01288 25.890625 32.46875 C 25.885943 32.464988 25.881636 32.460794 25.876953 32.457031 C 25.81193 32.404496 25.887002 32.297452 25.953125 32.349609 C 25.979067 32.369911 26.005302 32.389851 26.03125 32.410156 C 26.308778 32.292127 26.588183 32.179801 26.865234 32.060547 C 30.419368 30.530443 33.929512 28.901375 37.392578 27.173828 C 38.32377 26.709778 39.242112 26.215917 40.177734 25.759766 C 40.847641 25.432836 41.550769 25.166974 42.28125 25.369141 C 42.342478 25.310936 42.458377 25.310504 42.507812 25.414062 C 42.517639 25.43674 42.528481 25.459367 42.539062 25.482422 C 42.808732 24.727764 43.456567 23.918276 44.251953 23.941406 C 45.278 23.971642 46.195743 25.139665 46.560547 25.994141 C 46.978325 26.971337 46.87699 28.077867 45.884766 28.644531 C 45.362994 28.942358 44.566295 28.999008 43.949219 28.748047 C 44.24217 29.499984 44.522739 30.255827 44.794922 31.015625 C 45.39132 32.67669 46.184996 34.473852 46.175781 36.267578 C 46.160285 39.454173 43.698441 41.926254 41.119141 43.425781 C 39.475658 44.381321 37.702569 45.098229 35.966797 45.863281 C 34.090126 46.690053 32.214606 47.523542 30.335938 48.345703 C 28.800599 49.016456 27.300396 49.433966 25.626953 49.072266 C 24.155038 48.754029 22.805174 47.976355 21.714844 46.947266 C 19.5329 44.886214 18.361329 42.065659 17.314453 39.246094 C 17.138274 39.624047 16.883704 39.980506 16.658203 40.3125 C 16.377301 40.725678 16.057729 41.083573 15.525391 41.101562 C 14.350611 41.141625 13.703805 39.808293 13.351562 38.884766 L 13.351562 38.882812 C 13.018118 38.011746 12.698592 36.801399 13.484375 36.068359 C 14.21377 35.386192 15.225335 35.542561 16.064453 35.916016 C 16.043892 35.864614 16.022075 35.812742 16.001953 35.761719 C 15.933581 35.593908 16.099394 35.476318 16.232422 35.515625 C 16.23612 35.514189 16.23905 35.51255 16.242188 35.511719 C 17.190572 35.370199 18.122445 35.169815 19.041016 34.929688 C 18.898939 34.764728 18.757095 34.596849 18.648438 34.453125 C 17.856095 33.404684 17.360368 32.151792 17.345703 30.833984 C 15.977024 29.04555 14.815839 27.027248 13.732422 25.056641 C 12.930724 23.59899 12.214637 22.008968 12.146484 20.320312 C 12.123953 19.75671 12.221928 19.002973 12.796875 18.730469 C 12.941147 18.661823 13.086401 18.637016 13.226562 18.646484 z M 13.197266 19.03125 C 12.919814 19.038111 12.672698 19.258823 12.578125 19.603516 C 12.378247 20.336253 12.594751 21.228524 12.792969 21.939453 L 12.792969 21.941406 C 13.210423 23.444146 13.999078 24.807762 14.785156 26.142578 C 15.701247 27.696947 16.718507 29.196152 17.599609 30.769531 C 17.638648 30.839075 17.610902 30.901404 17.560547 30.931641 C 17.741698 31.928793 18.071278 32.918673 18.615234 33.777344 C 18.831039 34.118308 19.106266 34.48735 19.416016 34.824219 C 19.581784 34.778647 19.747137 34.73177 19.912109 34.683594 C 19.789374 34.558315 19.670324 34.431496 19.617188 34.369141 C 18.896273 33.526272 18.348172 32.467092 18.201172 31.359375 C 18.189716 31.27169 18.326365 31.252725 18.349609 31.333984 C 18.571664 32.088983 18.828698 32.811568 19.251953 33.480469 C 19.47841 33.837974 19.740219 34.175524 20.03125 34.482422 C 20.073946 34.527895 20.119929 34.569216 20.164062 34.613281 C 20.671614 34.460826 21.174687 34.300369 21.675781 34.126953 C 21.521384 33.721251 21.326759 33.324974 21.113281 32.953125 C 20.468668 31.8331 19.603744 31.098609 18.386719 30.679688 C 18.320256 30.786647 18.156537 30.831878 18.089844 30.6875 C 17.269827 28.938524 16.516624 27.159361 15.839844 25.349609 C 15.242118 23.750378 14.703361 22.131583 14.220703 20.494141 C 14.100004 20.084818 14.010779 19.584303 13.703125 19.267578 C 13.53996 19.09971 13.363736 19.027134 13.197266 19.03125 z M 21.164062 22.583984 C 20.758154 22.615373 20.357494 22.755714 19.970703 22.984375 C 19.961783 22.988268 19.952166 22.987778 19.943359 22.990234 C 19.97917 23.060534 20.013112 23.130873 20.048828 23.201172 C 20.328545 23.749846 20.74503 24.701092 21.507812 24.617188 L 21.507812 24.619141 C 22.348156 24.526693 22.4561 23.505266 22.384766 22.833984 C 21.981613 22.629436 21.569972 22.552595 21.164062 22.583984 z M 21.705078 23.511719 C 21.735521 23.520742 21.760643 23.543102 21.767578 23.582031 C 21.769474 23.582031 21.770644 23.586593 21.771484 23.589844 C 21.864777 23.635198 21.8784 23.790834 21.771484 23.832031 C 21.707728 23.855464 21.635513 23.851237 21.587891 23.794922 C 21.581276 23.783583 21.576956 23.775264 21.574219 23.771484 L 21.572266 23.769531 C 21.571244 23.767301 21.571409 23.765663 21.570312 23.765625 L 21.570312 23.769531 C 21.556858 23.75139 21.547769 23.727882 21.542969 23.708984 C 21.528357 23.641709 21.550834 23.566273 21.609375 23.527344 C 21.638209 23.507879 21.674635 23.502695 21.705078 23.511719 z M 21.048828 23.691406 C 21.051845 23.692691 21.052754 23.694066 21.054688 23.695312 C 21.057899 23.695539 21.062123 23.695754 21.068359 23.697266 C 21.090375 23.701045 21.106858 23.711318 21.125 23.722656 L 21.125 23.724609 C 21.158317 23.747664 21.181871 23.778611 21.199219 23.816406 C 21.225551 23.870453 21.210127 23.938453 21.164062 23.978516 C 21.114794 24.02009 21.051028 24.016564 20.998047 23.986328 C 20.965471 23.96743 20.940395 23.942219 20.921875 23.908203 C 20.910234 23.892329 20.903099 23.878273 20.900391 23.859375 C 20.899986 23.851816 20.89866 23.843496 20.898438 23.835938 C 20.896321 23.835937 20.894277 23.833731 20.890625 23.826172 C 20.834745 23.726014 20.963781 23.636225 21.048828 23.691406 z M 21.373047 23.904297 C 21.401906 23.900045 21.431437 23.906757 21.458984 23.921875 C 21.503791 23.94682 21.550223 23.977323 21.597656 24 C 21.70634 23.999244 21.776852 24.135855 21.712891 24.226562 C 21.648748 24.319161 21.518096 24.298244 21.46875 24.210938 C 21.449777 24.196953 21.425412 24.18504 21.40625 24.169922 C 21.378916 24.152158 21.353309 24.134132 21.326172 24.115234 C 21.27477 24.080085 21.260592 24.004527 21.296875 23.953125 C 21.316221 23.924779 21.344187 23.908549 21.373047 23.904297 z M 44.158203 24.355469 C 43.49002 24.405236 42.990506 25.224233 42.695312 25.810547 C 42.76856 25.966641 42.838988 26.12193 42.910156 26.277344 L 42.912109 26.279297 C 43.117035 25.927423 43.312504 25.565334 43.535156 25.224609 C 43.663131 25.029964 43.824884 24.851445 44.082031 24.894531 C 44.573581 24.97239 44.925162 25.590734 45 26.033203 C 45.150425 26.930917 44.275696 27.770955 43.447266 27.505859 C 43.533023 27.711844 43.617191 27.918146 43.701172 28.125 C 44.313183 28.39448 44.847182 28.704839 45.564453 28.375 C 46.51844 27.936348 46.547801 26.927296 46.158203 26.074219 C 45.851683 25.4046 45.199162 24.58474 44.453125 24.384766 C 44.350847 24.357553 44.253658 24.348359 44.158203 24.355469 z M 44.013672 25.296875 C 43.971325 25.302892 43.929125 25.322386 43.886719 25.357422 C 43.743134 25.477233 43.628384 25.784708 43.53125 25.947266 C 43.406261 26.156273 43.281201 26.363447 43.15625 26.572266 C 43.132817 26.606281 43.104266 26.632059 43.074219 26.644531 C 43.153778 26.822925 43.231416 27.000828 43.308594 27.181641 C 44.005414 27.400475 44.763756 26.854907 44.628906 26.082031 C 44.588891 25.853181 44.310101 25.254759 44.013672 25.296875 z M 22.763672 25.984375 C 22.935265 26.076218 23.095082 26.187583 23.257812 26.294922 C 23.40672 26.391678 23.573376 26.476901 23.697266 26.603516 C 23.770142 26.676461 23.675578 26.809531 23.582031 26.767578 L 23.582031 26.769531 C 23.419452 26.698476 23.281561 26.570356 23.138672 26.466797 C 22.981916 26.351521 22.821105 26.238698 22.673828 26.111328 C 22.598404 26.04443 22.67596 25.936753 22.763672 25.984375 z M 21.175781 26.181641 C 21.229392 26.159725 21.304092 26.210605 21.285156 26.285156 C 21.250611 26.419745 21.239369 26.555407 21.257812 26.693359 C 21.272148 26.803344 21.31882 26.90646 21.320312 27.017578 C 21.321065 27.099594 21.208635 27.126627 21.162109 27.070312 C 20.985798 26.856392 21.048942 26.469713 21.132812 26.230469 C 21.141533 26.205335 21.157911 26.188946 21.175781 26.181641 z M 22.365234 26.683594 C 22.38663 26.689895 22.405593 26.70669 22.417969 26.734375 C 22.519891 26.958123 22.630546 27.177087 22.697266 27.414062 C 22.727906 27.519889 22.572877 27.556562 22.525391 27.472656 C 22.408225 27.264593 22.333898 27.036689 22.25 26.814453 C 22.217688 26.731681 22.301046 26.66469 22.365234 26.683594 z M 24.554688 28.173828 C 24.575063 28.178836 24.594401 28.1916 24.607422 28.214844 C 24.834675 28.623826 25.174904 28.795903 25.580078 28.988281 C 25.652872 29.023431 25.63666 29.134639 25.550781 29.130859 C 25.074628 29.099981 24.663522 28.689024 24.457031 28.287109 C 24.419744 28.216243 24.493559 28.158805 24.554688 28.173828 z M 21.945312 28.177734 C 21.981972 28.171545 22.02441 28.190029 22.037109 28.236328 C 22.104782 28.486155 22.166647 28.733919 22.214844 28.988281 C 22.233473 29.083903 22.091842 29.105136 22.066406 29.013672 C 21.99636 28.76479 21.940259 28.515325 21.888672 28.261719 C 21.878788 28.213719 21.908654 28.183923 21.945312 28.177734 z M 21.392578 29.076172 C 21.42864 29.07981 21.464321 29.106675 21.466797 29.154297 C 21.480354 29.467771 21.397343 29.936472 21.162109 30.162109 L 21.162109 30.164062 C 21.086764 30.236629 20.970961 30.142246 21.001953 30.050781 C 21.052508 29.904778 21.154162 29.783364 21.208984 29.636719 C 21.269056 29.477374 21.29291 29.313476 21.314453 29.144531 C 21.320149 29.093697 21.356517 29.072534 21.392578 29.076172 z M 23.6875 29.082031 C 23.716074 29.068472 23.753964 29.074478 23.775391 29.111328 C 23.913318 29.352046 24.097708 29.6248 24.158203 29.898438 C 24.173835 29.96987 24.077798 30.013788 24.033203 29.958984 C 23.857338 29.74083 23.758543 29.42611 23.65625 29.167969 C 23.640425 29.127906 23.658926 29.09559 23.6875 29.082031 z M 22.539062 30.238281 C 22.598292 30.217358 22.674031 30.264726 22.644531 30.339844 C 22.523322 30.646552 22.52274 30.945058 22.470703 31.263672 L 22.470703 31.265625 C 22.45577 31.354822 22.32773 31.366035 22.306641 31.273438 C 22.232524 30.946395 22.351843 30.576872 22.490234 30.283203 C 22.501519 30.259581 22.51932 30.245256 22.539062 30.238281 z M 25.548828 30.369141 C 25.569758 30.369483 25.591083 30.378028 25.609375 30.398438 C 25.743191 30.546934 25.87338 30.698994 26.011719 30.84375 C 26.103898 30.940128 25.934243 31.085476 25.853516 30.978516 C 25.733485 30.818188 25.605023 30.664285 25.480469 30.507812 C 25.429091 30.442617 25.486039 30.368113 25.548828 30.369141 z M 27.242188 30.419922 C 27.262711 30.419142 27.282463 30.426352 27.300781 30.443359 C 27.502502 30.632789 27.707947 30.819028 27.894531 31.025391 C 27.954123 31.091154 27.855708 31.199586 27.787109 31.140625 C 27.573205 30.954483 27.378233 30.749836 27.179688 30.546875 C 27.125058 30.49245 27.180613 30.42226 27.242188 30.419922 z M 24.492188 31.5625 C 24.532435 31.565996 24.570608 31.597288 24.568359 31.650391 C 24.561919 31.830976 24.572578 32.025738 24.517578 32.199219 C 24.49436 32.276699 24.373864 32.267311 24.363281 32.189453 C 24.33882 32.009548 24.381846 31.817002 24.404297 31.636719 L 24.404297 31.634766 C 24.410811 31.582797 24.451939 31.559004 24.492188 31.5625 z M 23.244141 32.314453 C 23.283857 32.312847 23.325757 32.335127 23.332031 32.380859 C 23.363254 32.609332 23.238434 32.810497 23.019531 32.878906 L 23.019531 32.876953 C 22.927681 32.905678 22.898881 32.770468 22.970703 32.728516 C 23.091648 32.659728 23.166314 32.526247 23.166016 32.388672 C 23.165655 32.341806 23.204424 32.316059 23.244141 32.314453 z M 14.693359 35.964844 C 14.387633 35.978642 14.09261 36.06381 13.830078 36.267578 C 13.073925 36.852989 13.420521 37.992353 13.703125 38.732422 C 13.98233 39.461795 14.494056 40.670573 15.419922 40.716797 C 16.297487 40.761395 16.681957 39.460865 17.15625 38.808594 C 17.081842 38.608657 17.008749 38.408392 16.935547 38.208984 C 16.618021 38.704972 16.126075 39.290319 15.556641 39.269531 C 14.921081 39.246854 14.708373 38.439981 14.511719 37.96875 C 14.317519 37.503188 13.813595 36.702877 14.496094 36.398438 C 15.033069 36.159571 15.835322 36.461301 16.378906 36.716797 C 16.324889 36.576576 16.270739 36.435218 16.214844 36.294922 C 15.742662 36.120355 15.202904 35.941847 14.693359 35.964844 z M 14.818359 36.720703 C 14.631306 36.728778 14.53736 36.806197 14.585938 37.158203 C 14.615001 37.369857 14.780869 37.626209 14.863281 37.824219 C 15.00038 38.156817 15.199149 39.00131 15.742188 38.863281 C 16.166537 38.755943 16.563323 38.247058 16.8125 37.880859 C 16.725616 37.643505 16.636381 37.40618 16.548828 37.169922 L 16.548828 37.166016 C 16.511713 37.181134 16.468288 37.182833 16.421875 37.160156 C 15.991712 36.957574 15.514994 36.75981 15.035156 36.728516 C 14.953696 36.723791 14.880711 36.718011 14.818359 36.720703 z M 18.783203 52.142578 L 40.4375 52.142578 L 40.4375 53.878906 L 18.783203 53.878906 L 18.783203 52.142578 z "
       transform="matrix(0.26458333,0,0,0.26458333,0,281.65415)"
       id="rect3103" />
  </g>
</svg>
