<?xml version="1.0" encoding="UTF-8" standalone="no"?>
<!-- Created with Inkscape (http://www.inkscape.org/) -->

<svg
   width="7mm"
   height="7mm"
   viewBox="0 0 7 7"
   version="1.1"
   id="svg5"
   inkscape:version="1.1.2 (0a00cf5339, 2022-02-04)"
   sodipodi:docname="icon_gahahrejo.svg"
   xmlns:inkscape="http://www.inkscape.org/namespaces/inkscape"
   xmlns:sodipodi="http://sodipodi.sourceforge.net/DTD/sodipodi-0.dtd"
   xmlns="http://www.w3.org/2000/svg"
   xmlns:svg="http://www.w3.org/2000/svg">
  <sodipodi:namedview
     id="namedview7"
     pagecolor="#ffffff"
     bordercolor="#666666"
     borderopacity="1.0"
     inkscape:pageshadow="2"
     inkscape:pageopacity="0.0"
     inkscape:pagecheckerboard="0"
     inkscape:document-units="mm"
     showgrid="false"
     inkscape:zoom="16"
     inkscape:cx="3"
     inkscape:cy="19.125"
     inkscape:window-width="1920"
     inkscape:window-height="1015"
     inkscape:window-x="0"
     inkscape:window-y="28"
     inkscape:window-maximized="1"
     inkscape:current-layer="layer1"
     showguides="true"
     inkscape:guide-bbox="true"
     height="25mm" />
  <defs
     id="defs2" />
  <g
     inkscape:label="Layer 1"
     inkscape:groupmode="layer"
     id="layer1">
    <path
       id="path997"
       style="fill:#ffffff;stroke-width:0.0578192;stroke-linecap:round;stroke-linejoin:round;paint-order:markers fill stroke"
       d="M 3.5015345,0.96642873 C 2.9633834,0.97296132 2.1728974,1.5134521 1.928391,2.1431177 1.7348636,2.6415179 1.9251602,3.05252 2.49671,3.3679694 2.8481641,3.5619736 3.1540923,3.6366396 3.5091392,3.6158805 3.6197819,3.6093581 3.7638494,3.5901231 3.8290404,3.5727879 3.8942727,3.5554771 3.9516524,3.5457697 3.956798,3.5509886 3.9713474,3.5655381 3.7036895,3.682205 3.5694692,3.7198112 3.3965887,3.7682812 2.8954701,3.7658907 2.7147091,3.7162655 2.3215132,3.6077339 1.8815339,3.3150644 1.5948014,2.9715167 l -0.08213,-0.097848 -0.088213,0.06033 C 1.0777059,3.1725594 0.86065455,3.5730816 0.80493447,4.0757066 0.75994812,4.4813393 0.85986163,5.0443479 1.0558871,5.487632 c 0.017946,0.040522 0.029929,0.0765 0.033461,0.096832 C 0.97425294,5.599662 0.86735283,5.615925 0.76944684,5.633134 0.78787424,5.620649 0.73366944,5.630314 0.62039623,5.661018 0.25870821,5.7352616 0.06589474,5.8218956 0.06525765,5.9104493 0.06580775,6.1635817 1.6036528,6.3687486 3.5005206,6.3687548 5.3975865,6.3687859 6.9357404,6.1636082 6.9362904,5.9104493 6.9358491,5.8091751 6.6841424,5.71077 6.2204418,5.630599 6.233654,5.6181838 6.2482478,5.6048835 6.2645486,5.590548 6.3960304,5.4748182 6.5853872,5.213594 6.6767192,5.0222291 6.973935,4.3995013 6.9970618,3.5114955 6.7365423,2.7301949 6.5363418,2.1298558 6.0379351,1.5741204 5.5279137,1.3821483 5.1048556,1.2229158 4.5972401,1.2371915 4.1600952,1.4211853 c -0.064228,0.027044 -0.1203473,0.049177 -0.1247159,0.049177 -0.00452,0 -0.013533,-0.040393 -0.02028,-0.090242 C 3.9982899,1.2581415 3.9380977,1.1448254 3.8508402,1.0728936 3.7597386,0.9977983 3.6387103,0.9647648 3.5015345,0.96642873 Z m 1.179224,1.59899917 c 0.059408,-5.24e-5 0.1210736,0.00643 0.185046,0.019771 0.2446568,0.051027 0.4033539,0.1756801 0.4035521,0.3168595 2.23e-4,0.09458 -0.019165,0.1171111 -0.09886,0.1171111 -0.056368,0 -0.1081232,-0.02333 -0.2139435,-0.097339 C 4.7906467,2.8059006 4.6798027,2.7658967 4.4409593,2.7352641 4.2415111,2.7096757 4.2347387,2.6914975 4.3998943,2.6217016 c 0.08867,-0.037459 0.1818518,-0.056185 0.2808642,-0.056274 z m 0.5977234,1.9092787 c 0.1462378,0.1435271 0.2206914,0.2780043 0.2539946,0.4588125 0.031387,0.1703215 -0.0083,0.3180691 -0.1115343,0.4182546 -0.061258,0.059358 -0.087473,0.07007 -0.1911298,0.077567 -0.1797557,0.013035 -0.2220548,-0.003 -0.2220548,-0.083143 0,-0.057176 0.00935,-0.069153 0.07047,-0.091256 C 5.1732052,5.2205986 5.2170097,5.1350868 5.1993939,5.0176769 5.1403119,4.6236497 4.7572734,4.4280986 4.3938106,4.6070272 4.1817429,4.7114183 4.06448,4.9026184 4.0470398,5.1733185 4.050198,5.5768954 4.2338521,5.8122711 4.5357636,6.0214771 l 0.014196,0.014196 -0.010648,0.00507 c -0.018009,0.00844 -0.050065,0.012049 -0.1373903,0.015717 -0.04619,0.00192 -0.1773047,0.00815 -0.2915105,0.013687 -0.2950229,0.014298 -0.3537902,0.016704 -0.3837801,0.016729 h -0.026362 l -0.00964,-0.012675 C 3.5454139,5.7262715 3.5073268,5.2924456 3.6024213,4.9618978 3.7269051,4.5902794 4.0045394,4.3342032 4.357307,4.2658212 4.6710754,4.2056912 4.9644955,4.2126171 5.2784819,4.4747066 Z M 2.5398028,5.5497774 c 0.2772748,0.056226 0.3314828,0.3546265 0.2899899,0.5310145 l -0.026362,-5.192e-4 c -0.014459,-2.52e-4 -0.050186,-0.00169 -0.079596,-0.00304 -0.029409,-0.00135 -0.116186,-0.00513 -0.1926503,-0.00862 C 2.2203558,6.0544558 2.0802182,6.0423718 2.0505719,6.027041 2.0159687,5.7006916 2.2650967,5.5067953 2.5398028,5.5497774 Z"
       sodipodi:nodetypes="sccccccccccccccccccccccccsccssccscccsscccscccccccccccccccccccsscc" />
    <text
       xml:space="preserve"
       style="font-style:normal;font-variant:normal;font-weight:bold;font-stretch:normal;font-size:7.7611px;line-height:1.25;font-family:'Google Sans';-inkscape-font-specification:'Google Sans Bold';letter-spacing:0.264583px;word-spacing:0.34925px;fill:#000000;fill-opacity:1;stroke:none;stroke-width:0.264583"
       x="2.4370627"
       y="-3.412765"
       id="text3680"><tspan
         sodipodi:role="line"
         id="tspan3678"
         style="stroke-width:0.264583"
         x="2.4370627"
         y="-3.412765" /></text>
  </g>
</svg>
