<?xml version="1.0" encoding="UTF-8" standalone="no"?>
<!-- Created with Inkscape (http://www.inkscape.org/) -->

<svg
   width="37mm"
   height="7mm"
   viewBox="0 0 37 7"
   version="1.1"
   id="svg5"
   inkscape:version="1.1.2 (0a00cf5339, 2022-02-04)"
   sodipodi:docname="logo_gahahrejo.svg"
   xmlns:inkscape="http://www.inkscape.org/namespaces/inkscape"
   xmlns:sodipodi="http://sodipodi.sourceforge.net/DTD/sodipodi-0.dtd"
   xmlns="http://www.w3.org/2000/svg"
   xmlns:svg="http://www.w3.org/2000/svg">
  <sodipodi:namedview
     id="namedview7"
     pagecolor="#ffffff"
     bordercolor="#666666"
     borderopacity="1.0"
     inkscape:pageshadow="2"
     inkscape:pageopacity="0.0"
     inkscape:pagecheckerboard="0"
     inkscape:document-units="mm"
     showgrid="false"
     inkscape:zoom="5.6568543"
     inkscape:cx="61.341513"
     inkscape:cy="37.830212"
     inkscape:window-width="1920"
     inkscape:window-height="1015"
     inkscape:window-x="0"
     inkscape:window-y="28"
     inkscape:window-maximized="1"
     inkscape:current-layer="layer1"
     showguides="true"
     inkscape:guide-bbox="true"
     height="25mm" />
  <defs
     id="defs2" />
  <g
     inkscape:label="Layer 1"
     inkscape:groupmode="layer"
     id="layer1">
    <g
       id="g2404"
       transform="matrix(0.99173546,0,0,0.99173546,0.30388523,-1.3432946)"
       style="fill:#ffffff">
      <path
         id="path997"
         style="fill:#ffffff;stroke-width:0.222749;stroke-linecap:round;stroke-linejoin:round;paint-order:markers fill stroke"
         d="m 13.285156,7.3476562 c -2.073231,0.02515 -5.1185838,2.1074116 -6.0605466,4.5332028 -0.7455655,1.92009 -0.012437,3.503479 2.1894531,4.71875 1.3539795,0.747402 2.5325705,1.035054 3.9003905,0.955079 0.426252,-0.02511 0.981273,-0.09923 1.232422,-0.166016 0.251307,-0.06669 0.472364,-0.104088 0.492187,-0.08398 0.05605,0.05605 -0.975102,0.505512 -1.492187,0.65039 -0.666023,0.186732 -2.596586,0.177521 -3.292969,-0.01367 -1.5147903,-0.418109 -3.2098134,-1.54562 -4.3144529,-2.86914 l -0.3164062,-0.37696 -0.3398438,0.232422 c -1.3358645,0.919057 -2.1720567,2.462072 -2.3867187,4.398438 -0.1733114,1.562703 0.2116072,3.731698 0.9667968,5.439453 0.069136,0.156109 0.1153048,0.294715 0.1289063,0.373047 -0.4434047,0.05855 -0.8552386,0.121202 -1.2324219,0.1875 0.07099,-0.0481 -0.1378327,-0.01087 -0.5742187,0.107422 -1.39340226,0.286025 -2.13621748,0.619783 -2.1386719,0.960937 0.0021193,0.975194 5.9266781,1.765601 13.234375,1.765625 7.30846,1.2e-4 13.234209,-0.790329 13.236328,-1.765625 -0.0017,-0.39016 -0.971402,-0.769266 -2.757812,-1.078125 0.0509,-0.04783 0.107123,-0.09907 0.169922,-0.154297 0.506534,-0.44585 1.236033,-1.452218 1.58789,-2.189453 1.145026,-2.399063 1.234122,-5.820112 0.230469,-8.830078 -0.771274,-2.312811 -2.691389,-4.4537853 -4.65625,-5.1933592 -1.629835,-0.6134442 -3.585427,-0.558447 -5.269531,0.1503906 -0.247438,0.1041902 -0.463639,0.1894531 -0.480469,0.1894531 -0.01742,0 -0.05214,-0.1556147 -0.07813,-0.3476563 C 15.19891,8.4714815 14.967019,8.0349305 14.630859,7.7578125 14.279889,7.4685078 13.813627,7.3412457 13.285156,7.3476562 Z m 4.542969,6.1601558 c 0.228868,-2.02e-4 0.466437,0.02478 0.712891,0.07617 0.942542,0.196585 1.553924,0.676809 1.554687,1.220704 8.6e-4,0.36437 -0.07383,0.451171 -0.380859,0.451171 -0.217157,0 -0.416545,-0.08988 -0.824219,-0.375 -0.639155,-0.446622 -1.066182,-0.600738 -1.986328,-0.71875 -0.768376,-0.09858 -0.794466,-0.168611 -0.158203,-0.4375 0.341601,-0.144311 0.700585,-0.216455 1.082031,-0.216797 z m 2.302734,7.35551 c 0.563382,0.552939 0.850215,1.071013 0.978516,1.767578 0.120915,0.656165 -0.03196,1.225364 -0.429687,1.611329 -0.236002,0.228678 -0.336993,0.269948 -0.736329,0.298828 -0.69251,0.05022 -0.855468,-0.01156 -0.855468,-0.320313 0,-0.220271 0.03605,-0.266413 0.271484,-0.351562 0.365905,-0.132306 0.534662,-0.461741 0.466797,-0.914063 -0.227614,-1.517993 -1.703273,-2.271355 -3.103516,-1.582031 -0.816992,0.402167 -1.268748,1.138767 -1.335937,2.181641 0.01215,1.554783 0.719696,2.46157 1.882812,3.267537 l 0.05469,0.05469 -0.04102,0.01953 c -0.06938,0.0325 -0.192878,0.04642 -0.529297,0.06055 -0.177947,0.0074 -0.683068,0.03141 -1.123047,0.05273 -1.136577,0.05508 -1.362979,0.06435 -1.478515,0.06445 h -0.101563 l -0.03711,-0.04883 c -0.559467,-1.340401 -0.706198,-3.011719 -0.339846,-4.285157 0.479575,-1.431662 1.549163,-2.418198 2.908203,-2.68164 1.208795,-0.231651 2.339198,-0.204969 3.548833,0.804733 z M 9.5800781,25.00504 c 1.0682029,0.216612 1.2770399,1.366201 1.1171879,2.045737 l -0.101563,-0.002 c -0.0557,-9.71e-4 -0.193341,-0.0065 -0.306641,-0.01172 -0.113297,-0.0052 -0.447608,-0.01978 -0.742187,-0.0332 C 8.3494063,26.949317 7.8095249,26.902763 7.6953125,26.843701 7.5620038,25.586438 8.5217708,24.839451 9.5800781,25.00504 Z"
         transform="scale(0.26458333)"
         sodipodi:nodetypes="sccccccccccccccccccccccccsccssccscccsscccscccccccccccccccccccsscc" />
      <path
         d="M 7.5693034,1.6832716 7.8671368,2.974164 7.6575564,3.0225181 7.5465895,2.956146 C 7.5054766,3.0490211 7.4051619,3.1138601 7.2456475,3.1506631 7.1618158,3.1700047 7.0878808,3.1711208 7.0238438,3.1540112 6.9598078,3.1369021 6.9039665,3.107478 6.8563205,3.0657389 6.8095704,3.022567 6.7702542,2.9690962 6.7383734,2.9053254 6.7076562,2.8412857 6.6838353,2.7725901 6.6669113,2.6992369 c -0.016118,-0.06986 -0.024444,-0.1378392 -0.024978,-0.203937 -8.03e-4,-0.067262 0.00959,-0.128523 0.031176,-0.1837823 0.021587,-0.05526 0.055937,-0.10304 0.1030494,-0.1433412 0.046843,-0.041465 0.1098528,-0.071331 0.1890279,-0.089599 L 7.2062049,2.0229705 7.1573955,1.8114172 Z m -0.4888651,0.7513255 0.094694,0.4104283 0.06462,-0.014909 c 0.047738,-0.011014 0.081726,-0.023156 0.1019698,-0.036402 0.021137,-0.014688 0.029692,-0.038735 0.025663,-0.072142 l -0.097917,-0.424401 -0.06462,0.014909 c -0.051231,0.01182 -0.08728,0.025659 -0.1081498,0.041507 -0.019704,0.015583 -0.025124,0.042586 -0.01626,0.08101 z"
         id="path28674"
         style="font-weight:bold;font-size:1.89705px;line-height:1.25;font-family:'Black Han Sans';-inkscape-font-specification:'Black Han Sans Bold';letter-spacing:0.064672px;word-spacing:0.0853673px;stroke-width:0.0611039;fill:#ffffff"
         sodipodi:nodetypes="ccccssccscscscccccscccscc" />
      <path
         d="m 8.380482,2.3934872 0.00981,0.074638 q 0.032454,-6.535e-4 0.064677,-0.00307 0.032222,-0.00242 0.064211,-0.00662 0.1990329,-0.026154 0.3932177,-0.1167486 l 0.090855,0.3062338 Q 8.7717479,2.7434185 8.5389464,2.7740064 8.2403916,2.8132337 8.0888955,2.6921311 7.937166,2.5692514 7.8995732,2.2831364 7.8619804,1.9970214 7.9770511,1.8408945 8.0936655,1.6827571 8.3904432,1.6437633 q 0.1492774,-0.019614 0.2513642,-0.01314 0.1018532,0.0047 0.1681125,0.041185 0.067803,0.034478 0.1024883,0.1058483 0.03623,0.069359 0.05094,0.1813171 0.012142,0.09241 -0.010974,0.164143 -0.021572,0.069722 -0.088829,0.1219465 -0.067258,0.052224 -0.1852993,0.089427 -0.1182751,0.035427 -0.2977633,0.05901 z m -0.043897,-0.334097 0.011441,0.087078 0.087079,-0.011441 q 0.078193,-0.010274 0.1098567,-0.030704 0.033441,-0.020663 0.025736,-0.079309 l -0.011442,-0.087079 -0.087078,0.011441 q -0.078193,0.010274 -0.1116337,0.030937 -0.031663,0.02043 -0.023958,0.079075 z"
         id="path28676"
         style="font-weight:bold;font-size:1.89705px;line-height:1.25;font-family:'Black Han Sans';-inkscape-font-specification:'Black Han Sans Bold';letter-spacing:0.064672px;word-spacing:0.0853673px;stroke-width:0.0611039;fill:#ffffff" />
      <path
         d="m 9.5357574,1.6638086 q 0.1469195,-0.055942 0.3848961,-0.023491 0.2397535,0.032694 0.4296985,0.1255278 l -0.0892,0.2826981 q -0.08008,-0.036245 -0.16032,-0.058042 -0.08024,-0.021796 -0.1654855,-0.03342 -0.02486,-0.00339 -0.062403,-0.00669 -0.035763,-0.00306 -0.082662,-0.00404 l -0.0092,0.067486 q 0.097677,0.01332 0.1992286,0.038022 0.1017939,0.022934 0.1801779,0.071603 0.0804,0.047143 0.123751,0.1272228 0.04537,0.078544 0.02842,0.2028611 -0.01187,0.087021 -0.04085,0.1536192 -0.02874,0.064822 -0.07515,0.1000984 -0.0482,0.035035 -0.09776,0.053601 Q 10.051109,2.779675 9.9768431,2.7804 9.9187931,2.78155 9.8526013,2.77613 9.7879282,2.7727374 9.7133379,2.7625644 9.4522731,2.726965 9.2440836,2.6352606 l 0.09446,-0.2946517 q 0.08694,0.03899 0.1809045,0.066276 0.093964,0.027286 0.198745,0.041574 0.047951,0.00654 0.090817,0.010568 0.044642,0.00427 0.086214,0.00452 l 0.0092,-0.067486 Q 9.7339357,2.3728106 9.6214052,2.3357573 9.5108926,2.2971736 9.4461511,2.2413118 q -0.062965,-0.05562 -0.082985,-0.1343266 -0.018243,-0.078464 -0.0042,-0.1814698 0.028093,-0.2060101 0.1767882,-0.26171 z"
         id="path28678"
         style="font-weight:bold;font-size:1.89705px;line-height:1.25;font-family:'Black Han Sans';-inkscape-font-specification:'Black Han Sans Bold';letter-spacing:0.064672px;word-spacing:0.0853673px;stroke-width:0.0611039;fill:#ffffff" />
      <path
         d="m 11.225385,1.9827194 q 0.498747,0.1331183 0.407228,0.4760074 l -0.19413,0.7273403 -0.207812,-0.055466 -0.08633,-0.1491908 q -0.04041,0.026316 -0.0911,0.042469 -0.04896,0.016614 -0.102527,0.022723 -0.05358,0.00611 -0.106568,0.00309 -0.053,-0.00301 -0.09975,-0.015494 -0.08832,-0.023573 -0.154238,-0.061574 -0.06465,-0.035808 -0.102506,-0.088579 -0.03786,-0.052774 -0.04627,-0.1255122 -0.0084,-0.072742 0.01701,-0.1679883 0.09984,-0.3740607 0.664394,-0.2233781 l 0.08312,0.022185 0.01987,-0.074465 q -0.03244,-0.010522 -0.05968,-0.019636 -0.02552,-0.00867 -0.04803,-0.014682 -0.233788,-0.062399 -0.418753,-0.050548 l 0.02928,-0.3112682 q 0.224913,-0.00861 0.4968,0.063959 z m -0.335902,0.67466 -0.02265,0.084856 0.08659,0.023111 q 0.09006,0.024037 0.123307,0.010649 0.03025,-0.016043 0.03857,-0.047214 l 0.02635,-0.098709 -0.08486,-0.022649 q -0.07446,-0.019875 -0.113261,-0.013534 -0.0388,0.00634 -0.05405,0.063489 z"
         id="path28680"
         style="font-weight:bold;font-size:1.89705px;line-height:1.25;font-family:'Black Han Sans';-inkscape-font-specification:'Black Han Sans Bold';letter-spacing:0.064672px;word-spacing:0.0853673px;stroke-width:0.0611039;fill:#ffffff" />
      <path
         d="m 9.433541,3.2468033 q 1.75395,0 1.75395,1.2058412 V 7.0104893 H 10.456679 L 10.042552,6.596362 q -0.1096236,0.1218019 -0.2618755,0.2192439 -0.146162,0.097442 -0.3166854,0.1644329 -0.170522,0.066992 -0.3471355,0.1035318 -0.1766135,0.036542 -0.3410469,0.036542 -0.3105954,0 -0.5602891,-0.066992 Q 7.9719159,6.9922188 7.8013924,6.8521465 7.630869,6.7120746 7.5395172,6.48065 q -0.09135,-0.2314241 -0.09135,-0.56638 0,-1.315463 1.9853755,-1.315463 H 9.7258663 V 4.3369324 q -0.1157046,-0.0061 -0.2131536,-0.012177 -0.09135,-0.0061 -0.1705235,-0.0061 -0.8221643,0 -1.4189949,0.2009736 L 7.7465808,3.4721374 Q 8.4773948,3.2468033 9.433541,3.2468033 Z M 8.921972,5.7559274 v 0.2984151 h 0.3045054 q 0.3166854,0 0.4141272,-0.073082 0.085269,-0.079172 0.085269,-0.1887933 V 5.4453318 H 9.4274582 q -0.2618752,0 -0.3836771,0.054812 -0.1218004,0.054812 -0.1218004,0.2557844 z"
         id="path28400"
         style="font-weight:bold;font-size:6.2271px;line-height:1.25;font-family:'Black Han Sans';-inkscape-font-specification:'Black Han Sans Bold';letter-spacing:0.212287px;word-spacing:0.28022px;stroke-width:0.207617;fill:#ffffff" />
      <path
         d="M 12.381696,8.2163302 H 11.322018 V 7.2662738 l 0.377587,-0.073082 q 0.231424,-0.048722 0.292325,-0.1278919 0.0609,-0.073082 0.0609,-0.1644328 V 3.5391285 l 1.461625,-0.1827033 v 3.6540641 q 0,0.5968304 -0.292326,0.9013356 -0.286235,0.3045053 -0.840433,0.3045053 z M 11.973659,2.6682433 q 0,-0.1644329 0.03655,-0.2740548 0.03653,-0.1157119 0.127896,-0.1827032 0.09135,-0.073082 0.249694,-0.1035318 0.158343,-0.03045 0.401947,-0.03045 0.243605,0 0.395857,0.03045 0.158343,0.03045 0.249694,0.1035318 0.09135,0.066992 0.127896,0.1827032 0.03655,0.1096218 0.03655,0.2740548 0,0.1644328 -0.03655,0.2740548 -0.03653,0.1096218 -0.127896,0.182703 -0.09135,0.066992 -0.249694,0.097442 -0.152252,0.02436 -0.395857,0.02436 -0.176612,0 -0.328866,-0.012177 -0.146162,-0.012177 -0.255785,-0.066992 -0.109623,-0.060902 -0.170522,-0.1766132 -0.0609,-0.1157118 -0.0609,-0.3227755 z"
         id="path28402"
         style="font-weight:bold;font-size:6.2271px;line-height:1.25;font-family:'Black Han Sans';-inkscape-font-specification:'Black Han Sans Bold';letter-spacing:0.212287px;word-spacing:0.28022px;stroke-width:0.207617;fill:#ffffff" />
      <path
         d="m 16.182468,3.2468033 q 1.753951,0 1.753951,1.2058412 V 7.0104893 H 17.205606 L 16.791479,6.596362 q -0.109623,0.1218019 -0.261875,0.2192439 -0.146162,0.097442 -0.316686,0.1644329 -0.170523,0.066992 -0.347135,0.1035318 -0.176614,0.036542 -0.341047,0.036542 -0.310595,0 -0.560289,-0.066992 -0.243604,-0.060902 -0.414127,-0.2009734 -0.170524,-0.140072 -0.261875,-0.3714966 -0.09135,-0.2314241 -0.09135,-0.5663799 0,-1.3154631 1.985376,-1.3154631 h 0.292325 V 4.3369324 q -0.115705,-0.0061 -0.213155,-0.012177 -0.09135,-0.0061 -0.170522,-0.0061 -0.822164,0 -1.418995,0.2009736 L 14.495508,3.4721374 q 0.730813,-0.2253341 1.68696,-0.2253341 z m -0.51157,2.5091241 v 0.2984151 h 0.304505 q 0.316687,0 0.414129,-0.073082 0.08527,-0.079172 0.08527,-0.1887933 V 5.4453318 h -0.298415 q -0.261876,0 -0.383678,0.054812 -0.1218,0.054812 -0.1218,0.2557844 z"
         id="path28404"
         style="font-weight:bold;font-size:6.2271px;line-height:1.25;font-family:'Black Han Sans';-inkscape-font-specification:'Black Han Sans Bold';letter-spacing:0.212287px;word-spacing:0.28022px;stroke-width:0.207617;fill:#ffffff" />
      <path
         d="M 20.263383,4.7571499 V 7.0104893 H 18.801756 V 2.2602061 l 1.461627,-0.1096218 v 1.3398234 q 0.468937,-0.2436043 1.035318,-0.2436043 0.572471,0 0.864794,0.2253341 0.292326,0.2192438 0.292326,0.6151007 V 7.0104893 H 20.994196 V 4.4526445 h -0.225334 q -0.267965,0 -0.389767,0.054812 -0.115705,0.054812 -0.115705,0.2496943 z"
         id="path28406"
         style="font-weight:bold;font-size:6.2271px;line-height:1.25;font-family:'Black Han Sans';-inkscape-font-specification:'Black Han Sans Bold';letter-spacing:0.212287px;word-spacing:0.28022px;stroke-width:0.207617;fill:#ffffff" />
      <path
         d="M 23.357701,7.0104893 V 3.3564252 h 0.730813 l 0.401947,0.4080372 q 0.438489,-0.401947 1.08404,-0.5176591 l 0.08527,1.3824543 q -0.08527,0 -0.207063,0.02436 -0.1218,0.02436 -0.249695,0.060902 -0.1218,0.036541 -0.225333,0.091352 -0.103528,0.048722 -0.158344,0.1157119 v 2.0889066 z"
         id="path28408"
         style="font-weight:bold;font-size:6.2271px;line-height:1.25;font-family:'Black Han Sans';-inkscape-font-specification:'Black Han Sans Bold';letter-spacing:0.212287px;word-spacing:0.28022px;stroke-width:0.207617;fill:#ffffff" />
      <path
         d="M 27.730944,5.7681075 V 6.023892 q 0.109624,0.012177 0.219244,0.01827 0.109623,0.0061 0.219245,0.0061 0.682091,0 1.376363,-0.219244 l 0.170524,1.0718589 q -0.822164,0.2192438 -1.619969,0.2192438 -1.023138,0 -1.479896,-0.4750282 -0.456758,-0.4811186 -0.456758,-1.4616257 0,-0.9805072 0.456758,-1.4555355 0.462849,-0.4811184 1.479896,-0.4811184 0.511569,0 0.852615,0.066992 0.341045,0.060902 0.54811,0.2131538 0.213154,0.1461625 0.298416,0.401947 0.09135,0.2496944 0.09135,0.633371 0,0.3166857 -0.109623,0.5481097 -0.103528,0.2253339 -0.353227,0.3714965 -0.249694,0.1461626 -0.663821,0.2192438 -0.414127,0.066992 -1.029228,0.066992 z m 0,-1.1449401 v 0.2984153 h 0.298416 q 0.267965,0 0.383677,-0.054812 0.1218,-0.054812 0.1218,-0.2557845 V 4.312572 h -0.298415 q -0.267964,0 -0.389766,0.054812 -0.115719,0.054812 -0.115719,0.2557844 z"
         id="path28410"
         style="font-weight:bold;font-size:6.2271px;line-height:1.25;font-family:'Black Han Sans';-inkscape-font-specification:'Black Han Sans Bold';letter-spacing:0.212287px;word-spacing:0.28022px;stroke-width:0.207617;fill:#ffffff" />
      <path
         d="m 30.971432,8.2163302 h -1.05968 V 7.2662738 l 0.377588,-0.073082 q 0.231423,-0.048722 0.292325,-0.1278919 0.0609,-0.07308 0.0609,-0.1644328 V 3.5391285 L 32.10419,3.3564252 v 3.6540641 q 0,0.5968304 -0.292325,0.9013356 Q 31.52563,8.2163302 30.97143,8.2163302 Z M 30.563395,2.6682433 q 0,-0.1644329 0.03655,-0.2740548 0.03653,-0.1157119 0.127896,-0.1827032 0.09135,-0.073082 0.249694,-0.1035318 0.158343,-0.03045 0.401947,-0.03045 0.243605,0 0.395857,0.03045 0.158343,0.03045 0.249694,0.1035318 0.09135,0.066992 0.127896,0.1827032 0.03653,0.1096218 0.03653,0.2740548 0,0.1644328 -0.03653,0.2740548 -0.03653,0.1096218 -0.127896,0.182703 -0.09135,0.066992 -0.249694,0.097442 -0.152252,0.02436 -0.395857,0.02436 -0.176612,0 -0.328866,-0.012177 -0.14616,-0.012177 -0.255782,-0.066992 -0.109623,-0.060902 -0.170522,-0.1766132 -0.0609,-0.1157118 -0.0609,-0.3227755 z"
         id="path28412"
         style="font-weight:bold;font-size:6.2271px;line-height:1.25;font-family:'Black Han Sans';-inkscape-font-specification:'Black Han Sans Bold';letter-spacing:0.212287px;word-spacing:0.28022px;stroke-width:0.207617;fill:#ffffff" />
      <path
         d="m 32.896451,5.1834572 q 0,-0.9805071 0.456758,-1.4555354 0.456758,-0.4811185 1.479895,-0.4811185 1.023138,0 1.479896,0.4811185 0.456758,0.4750283 0.456758,1.4555354 0,0.9805073 -0.456758,1.4616257 -0.456758,0.4750282 -1.479896,0.4750282 -0.998777,0 -1.467715,-0.4689382 -0.468938,-0.4689382 -0.468938,-1.4677157 z m 1.571246,-0.5602898 v 1.4311751 h 0.225336 q 0.267963,0 0.383675,-0.054812 0.121801,-0.054812 0.121801,-0.2557845 V 4.312572 h -0.225334 q -0.267964,0 -0.389767,0.054812 -0.115705,0.054812 -0.115705,0.2557844 z"
         id="path28414"
         style="font-weight:bold;font-size:6.2271px;line-height:1.25;font-family:'Black Han Sans';-inkscape-font-specification:'Black Han Sans Bold';letter-spacing:0.212287px;word-spacing:0.28022px;stroke-width:0.207617;fill:#ffffff" />
    </g>
    <text
       xml:space="preserve"
       style="font-style:normal;font-variant:normal;font-weight:bold;font-stretch:normal;font-size:7.7611px;line-height:1.25;font-family:'Google Sans';-inkscape-font-specification:'Google Sans Bold';letter-spacing:0.264583px;word-spacing:0.34925px;fill:#000000;fill-opacity:1;stroke:none;stroke-width:0.264583"
       x="2.4370627"
       y="-3.412765"
       id="text3680"><tspan
         sodipodi:role="line"
         id="tspan3678"
         style="stroke-width:0.264583" /></text>
  </g>
</svg>
