<?xml version="1.0" encoding="UTF-8" standalone="no"?>
<!-- Created with Inkscape (http://www.inkscape.org/) -->

<svg
   xmlns:dc="http://purl.org/dc/elements/1.1/"
   xmlns:cc="http://creativecommons.org/ns#"
   xmlns:rdf="http://www.w3.org/1999/02/22-rdf-syntax-ns#"
   xmlns:svg="http://www.w3.org/2000/svg"
   xmlns="http://www.w3.org/2000/svg"
   xmlns:sodipodi="http://sodipodi.sourceforge.net/DTD/sodipodi-0.dtd"
   xmlns:inkscape="http://www.inkscape.org/namespaces/inkscape"
   width="16"
   height="16"
   viewBox="0 0 4.2333333 4.2333335"
   version="1.1"
   id="svg1137"
   inkscape:version="0.92.3 (2405546, 2018-03-11)"
   sodipodi:docname="dashicon-pawon.svg">
  <defs
     id="defs1131" />
  <sodipodi:namedview
     id="base"
     pagecolor="#ffffff"
     bordercolor="#666666"
     borderopacity="1.0"
     inkscape:pageopacity="0.0"
     inkscape:pageshadow="2"
     inkscape:zoom="32"
     inkscape:cx="4.7157559"
     inkscape:cy="8.1678492"
     inkscape:document-units="mm"
     inkscape:current-layer="layer1"
     showgrid="false"
     units="px"
     inkscape:window-width="1289"
     inkscape:window-height="739"
     inkscape:window-x="50"
     inkscape:window-y="78"
     inkscape:window-maximized="0" />
  <metadata
     id="metadata1134">
    <rdf:RDF>
      <cc:Work
         rdf:about="">
        <dc:format>image/svg+xml</dc:format>
        <dc:type
           rdf:resource="http://purl.org/dc/dcmitype/StillImage" />
        <dc:title></dc:title>
      </cc:Work>
    </rdf:RDF>
  </metadata>
  <g
     inkscape:label="Layer 1"
     inkscape:groupmode="layer"
     id="layer1"
     transform="translate(0,-292.76665)">
    <path
       style="opacity:1;fill:#ffffff;fill-opacity:1;stroke:none;stroke-width:0.43518031;stroke-miterlimit:4;stroke-dasharray:none;stroke-opacity:1"
       d="m 0.24070652,292.79151 c -0.12517341,0 -0.22606678,0.10072 -0.22606678,0.22591 v 3.7419 c 0,0.12519 0.10089337,0.22593 0.22606678,0.22593 H 3.982616 c 0.1251734,0 0.2259228,-0.10072 0.2259228,-0.22593 v -3.7419 c 0,-0.12517 -0.1007491,-0.22591 -0.2259228,-0.22591 z m 2.14072308,0.30064 c 0.1205729,-7.5e-4 0.1646789,0.15764 0.076603,0.22924 0.043954,0.0173 0.086956,0.0374 0.1287284,0.0601 0.2602627,0.14181 0.4656531,0.37804 0.5654549,0.65746 5.31e-4,0.002 7.005e-4,0.002 8.638e-4,0.005 0.044904,-0.002 0.088741,0.0292 0.085099,0.0803 -0.00185,0.026 -0.017517,0.0494 -0.042766,0.0575 -0.01433,0.005 -0.026467,0.003 -0.037437,-8.1e-4 -0.00181,3e-4 -0.0038,2.8e-4 -0.00619,0 -0.1498118,-0.0329 -0.2988686,-0.0701 -0.4475259,-0.10801 -0.2669978,-0.0679 -0.5326013,-0.14176 -0.7964174,-0.2213 -0.2618914,-0.0788 -0.5282367,-0.15611 -0.7814424,-0.2602 -5.899e-4,0 -0.00113,-3e-4 -0.00173,-5.7e-4 -1.992e-4,-9e-5 -4.867e-4,-2.1e-4 -7.225e-4,-2.9e-4 -0.0027,-8e-4 -0.00433,-0.002 -0.00532,-0.005 -0.00115,-8.1e-4 -0.00228,-0.002 -0.00331,-0.003 -0.020784,-0.0257 -0.013664,-0.0625 0.012238,-0.0849 0.039387,-0.0338 0.097052,-0.0139 0.138376,0.006 0.00208,8.1e-4 0.00387,0.002 0.00518,0.003 0.1243725,-0.111 0.2824924,-0.18327 0.4426321,-0.22547 0.1825275,-0.0481 0.3739129,-0.0526 0.5566716,-0.0143 -0.019361,-0.0241 -0.0244,-0.0604 -0.013536,-0.0913 0.017975,-0.051 0.072106,-0.0817 0.1245527,-0.0819 z m -0.9915262,0.80391 c 0.049379,-0.002 0.098831,0.007 0.1329043,0.0258 0.00709,-0.007 0.022205,-0.006 0.024911,0.007 0.029001,0.13761 0.057964,0.27522 0.086971,0.41282 0.016134,0.0766 0.039426,0.21386 -0.069403,0.23629 -0.1032405,0.0211 -0.1546024,-0.1385 -0.1874772,-0.20663 -0.055287,-0.11447 -0.1100317,-0.23149 -0.1457195,-0.35393 -1.326e-4,5.7e-4 -3.539e-4,0.002 -5.749e-4,0.002 v 1.4e-4 c -0.00257,0.009 -0.017512,0.006 -0.016271,-0.003 0.010224,-0.0807 0.092365,-0.11611 0.1746618,-0.11949 z m -0.00201,0.031 c -0.01438,8e-5 -0.029131,0.002 -0.044349,0.005 v 1.6e-4 c -0.043429,0.009 -0.086483,0.0302 -0.1056897,0.0704 0.00162,3.1e-4 0.00316,8.1e-4 0.00403,0.002 9.445e-4,0.002 0.00186,0.003 0.00274,0.006 0.044951,0.0902 0.083159,0.18377 0.1254168,0.27531 8.315e-4,-0.0118 0.00636,-0.0232 0.017279,-0.0301 0.0064,-0.003 0.014956,-0.006 0.023471,-0.005 -0.018532,-0.0363 -0.020838,-0.0828 0.023759,-0.10209 0.018986,-0.008 0.040892,-0.006 0.055436,0.0102 0.00345,-0.009 0.00942,-0.0179 0.017568,-0.025 -0.016342,-0.0285 -7.602e-4,-0.0821 0.03787,-0.0703 4.72e-4,0 9.848e-4,3.1e-4 0.00145,5.9e-4 -0.00853,-0.0405 -0.016976,-0.081 -0.025488,-0.12139 -0.00165,6.6e-4 -0.00352,8.1e-4 -0.00548,7.2e-4 -0.044489,-0.006 -0.084865,-0.0169 -0.1280086,-0.0167 z m -0.44334572,0.18259 c 0.0309988,0.002 0.0588745,0.0267 0.0734354,0.0544 0.02964,0.0567 0.040693,0.127 0.060045,0.18775 0.022773,0.0716 0.047114,0.14251 0.073004,0.21298 0.050749,0.13812 0.1074254,0.27403 0.1696223,0.40735 0.00193,-5.6e-4 0.00422,-8.1e-4 0.00676,-2.9e-4 0.1094995,0.021 0.1866706,0.1093 0.2355701,0.20417 0.00889,0.0172 0.019829,0.0406 0.028942,0.0655 0.096483,-0.0342 0.1916631,-0.073 0.2862554,-0.11304 -3.466e-4,-2.9e-4 -6.635e-4,-5.9e-4 -0.00101,-8.2e-4 -0.0048,-0.003 7.409e-4,-0.0118 0.00563,-0.008 0.0019,0.002 0.00384,0.002 0.00576,0.005 0.02046,-0.008 0.04106,-0.017 0.061486,-0.0257 0.2620238,-0.11279 0.5208047,-0.2329 0.7761146,-0.36026 0.06865,-0.0342 0.1363545,-0.0706 0.205332,-0.10425 0.049388,-0.0241 0.1012249,-0.0437 0.155079,-0.0288 0.00452,-0.005 0.013058,-0.005 0.016704,0.003 7.225e-4,0.002 0.00153,0.003 0.00231,0.005 0.019882,-0.0557 0.067641,-0.11532 0.1262805,-0.11361 0.075645,0.002 0.1433035,0.0884 0.1701981,0.15134 0.0308,0.0721 0.023329,0.15361 -0.04982,0.19539 -0.038467,0.0221 -0.097202,0.0262 -0.1426955,0.007 0.021599,0.0556 0.042282,0.11117 0.062349,0.16718 0.043968,0.12245 0.1024814,0.25496 0.1018022,0.3872 -0.00114,0.23491 -0.1826386,0.41717 -0.3727942,0.52771 -0.1211638,0.0704 -0.2518823,0.12332 -0.3798498,0.17972 -0.1383553,0.061 -0.2766255,0.12239 -0.4151278,0.18301 -0.1131909,0.0495 -0.2237914,0.0802 -0.3471637,0.0534 -0.108515,-0.0235 -0.208032,-0.0809 -0.2884152,-0.15668 -0.160861,-0.15194 -0.2472336,-0.35989 -0.3244131,-0.56776 -0.012988,0.0278 -0.031758,0.0541 -0.04838,0.0786 -0.020709,0.0305 -0.04427,0.0569 -0.083515,0.0582 -0.086609,0.002 -0.13429401,-0.0953 -0.1602626,-0.16342 v -1.5e-4 c -0.0245828,-0.0643 -0.048139,-0.15344 0.009792,-0.20748 0.0537735,-0.0503 0.12835,-0.0389 0.1902127,-0.0112 -0.00152,-0.003 -0.00313,-0.007 -0.00462,-0.0114 -0.00504,-0.0125 0.0072,-0.0211 0.016991,-0.0181 2.728e-4,-1.1e-4 4.866e-4,-2.3e-4 7.226e-4,-3e-4 0.069919,-0.0104 0.1386194,-0.0252 0.2063398,-0.0429 -0.010474,-0.0122 -0.020932,-0.0245 -0.028942,-0.0351 -0.058414,-0.0771 -0.094961,-0.16966 -0.096043,-0.26682 -0.1009041,-0.13184 -0.186511,-0.28064 -0.26638444,-0.42592 -0.0591037,-0.10746 -0.11189687,-0.22469 -0.1169213,-0.34917 -0.001663,-0.0416 0.00557,-0.097 0.0479493,-0.11722 0.0106362,-0.005 0.0213443,-0.006 0.0316785,-0.006 z m -0.002171,0.0283 c -0.0204538,5e-4 -0.0386724,0.0167 -0.0456445,0.0422 -0.0147354,0.054 0.001219,0.11979 0.0158389,0.17221 v 1.4e-4 c 0.0307768,0.1108 0.0889185,0.21132 0.14687142,0.30973 0.067538,0.11459 0.1425339,0.22512 0.207492,0.34113 0.00288,0.006 8.315e-4,0.0102 -0.00288,0.0119 0.013357,0.0736 0.037653,0.14649 0.077755,0.20981 0.01591,0.0251 0.036201,0.0523 0.059036,0.0771 0.012221,-0.003 0.024411,-0.006 0.036574,-0.0104 -0.00905,-0.009 -0.017825,-0.0185 -0.021743,-0.0232 -0.053148,-0.0621 -0.093557,-0.14024 -0.1043939,-0.22189 -8.476e-4,-0.006 0.00923,-0.008 0.010944,-0.002 0.016372,0.0557 0.03532,0.10894 0.066525,0.15825 0.016696,0.0265 0.035996,0.0512 0.057454,0.0739 0.00315,0.003 0.00654,0.006 0.00979,0.009 0.037418,-0.0112 0.074505,-0.0231 0.1114496,-0.0358 -0.011384,-0.03 -0.025733,-0.0591 -0.04147,-0.0866 -0.047523,-0.0826 -0.1112887,-0.13671 -0.2010122,-0.1676 -0.0049,0.008 -0.016971,0.0112 -0.021888,5.8e-4 -0.060453,-0.12893 -0.1159835,-0.26011 -0.1658784,-0.39354 -0.044067,-0.1179 -0.083786,-0.23725 -0.1193693,-0.35795 -0.0089,-0.0303 -0.015476,-0.0671 -0.0381573,-0.0904 -0.0120296,-0.0125 -0.0250212,-0.0177 -0.0372945,-0.0174 z m 0.58734152,0.26193 c -0.029927,0.002 -0.059464,0.0128 -0.08798,0.0296 -6.559e-4,2.7e-4 -0.00138,2.4e-4 -0.00201,4.3e-4 0.00265,0.006 0.00514,0.0104 0.00777,0.0156 0.020621,0.0405 0.051326,0.1106 0.1075618,0.10442 v 1.5e-4 c 0.061952,-0.006 0.06991,-0.0822 0.064651,-0.13162 -0.029721,-0.0151 -0.06007,-0.0208 -0.089994,-0.0183 z m 0.039886,0.0684 c 0.00224,6.6e-4 0.0041,0.002 0.00462,0.006 1.401e-4,0 2.285e-4,3.4e-4 2.873e-4,5.8e-4 0.00687,0.003 0.00787,0.0149 0,0.0178 -0.00471,0.002 -0.010017,0.002 -0.013536,-0.002 -4.866e-4,-8.1e-4 -8.058e-4,-0.002 -0.00101,-0.002 l -1.474e-4,-1.5e-4 c -7.38e-5,-1.6e-4 -6.32e-5,-2.7e-4 -1.475e-4,-2.7e-4 v 2.7e-4 c -9.928e-4,-8.1e-4 -0.00166,-0.002 -0.00201,-0.005 -0.00108,-0.005 5.823e-4,-0.0105 0.00489,-0.0135 0.00213,-0.002 0.00481,-0.002 0.00705,-8e-4 z m -0.04838,0.0134 c 2.214e-4,1.1e-4 2.875e-4,2e-4 4.35e-4,2.9e-4 2.36e-4,1e-5 5.456e-4,3e-5 0.00101,1.5e-4 0.00163,2.7e-4 0.00284,8.2e-4 0.00417,0.002 v 1.5e-4 c 0.00245,0.002 0.00419,0.003 0.00548,0.006 0.00193,0.003 8.042e-4,0.009 -0.00259,0.0119 -0.00362,0.002 -0.00833,0.002 -0.012238,5.8e-4 -0.00241,-0.002 -0.00424,-0.003 -0.00563,-0.006 -8.557e-4,-8.1e-4 -0.0014,-0.002 -0.00158,-0.003 -2.99e-5,-5.7e-4 -1.253e-4,-8.2e-4 -1.474e-4,-0.002 -1.547e-4,0 -3.096e-4,-1.6e-4 -5.752e-4,-7.3e-4 -0.00412,-0.007 0.0054,-0.0141 0.011663,-0.0102 z m 0.023904,0.0158 c 0.00213,-3.1e-4 0.0043,1.7e-4 0.00635,8e-4 0.0033,0.002 0.00672,0.003 0.010223,0.006 0.00802,-6e-5 0.013212,0.0102 0.0085,0.0167 -0.00473,0.006 -0.014362,0.006 -0.017998,-8e-4 -0.00141,-8.1e-4 -0.0032,-0.002 -0.00462,-0.002 -0.00201,-8.2e-4 -0.00391,-0.002 -0.0059,-0.003 -0.00379,-0.002 -0.00484,-0.008 -0.00217,-0.0119 0.00143,-0.002 0.00348,-0.003 0.00563,-0.003 z m 1.6798059,0.0332 c -0.049262,0.003 -0.086087,0.0641 -0.1078499,0.10725 0.00539,0.0115 0.010593,0.023 0.01584,0.0344 l 1.475e-4,1.5e-4 c 0.01511,-0.026 0.029519,-0.0525 0.045932,-0.0777 0.00943,-0.0144 0.021359,-0.0275 0.040319,-0.0244 0.036239,0.006 0.062159,0.0512 0.067677,0.084 0.01109,0.0662 -0.053399,0.1281 -0.1144734,0.10855 0.00634,0.0152 0.012528,0.0305 0.018719,0.0456 0.04512,0.0197 0.084488,0.0428 0.1373681,0.0183 0.070331,-0.0324 0.072496,-0.10673 0.043773,-0.16963 -0.022598,-0.0494 -0.070705,-0.10981 -0.1257048,-0.12454 -0.00754,-0.002 -0.014705,-0.002 -0.021743,-0.002 z m -0.010654,0.0693 c -0.00313,4.4e-4 -0.00623,0.002 -0.00936,0.005 -0.010585,0.009 -0.019047,0.0315 -0.026207,0.0434 -0.00921,0.0155 -0.018433,0.0308 -0.027647,0.0461 -0.00173,0.002 -0.00384,0.005 -0.00604,0.006 0.00587,0.0132 0.011589,0.0263 0.01728,0.0396 0.051373,0.0161 0.1072798,-0.0241 0.097339,-0.081 -0.00297,-0.0168 -0.023504,-0.0609 -0.045358,-0.058 z m -1.5666285,0.0507 c 0.01265,0.006 0.024433,0.015 0.036429,0.0229 0.010977,0.007 0.023265,0.0135 0.032398,0.0227 0.00536,0.006 -0.0016,0.0152 -0.00849,0.012 v 1.4e-4 c -0.011986,-0.006 -0.022152,-0.0148 -0.032686,-0.0225 -0.011556,-0.008 -0.023412,-0.0168 -0.03427,-0.0262 -0.00557,-0.005 1.55e-4,-0.0129 0.00662,-0.009 z m -0.1170651,0.0146 c 0.00396,-0.002 0.00946,0.002 0.00807,0.007 -0.00254,0.0102 -0.00337,0.0198 -0.00201,0.0301 0.00106,0.008 0.00449,0.0158 0.00461,0.0239 5.54e-5,0.006 -0.00823,0.008 -0.011663,0.003 -0.012998,-0.0158 -0.00834,-0.0444 -0.00217,-0.0618 6.413e-4,-0.002 0.00185,-0.002 0.00317,-0.003 z m 0.087691,0.0369 c 0.00158,4.5e-4 0.00299,0.002 0.0039,0.003 0.00751,0.0165 0.015671,0.0327 0.02059,0.0501 0.00226,0.007 -0.00917,0.0105 -0.012671,0.005 -0.00864,-0.0154 -0.014117,-0.0321 -0.020303,-0.0486 -0.00238,-0.006 0.00375,-0.0111 0.0085,-0.009 z m 0.1614147,0.10986 c 0.0015,3.6e-4 0.00292,8e-4 0.0039,0.002 0.016754,0.0302 0.041837,0.0428 0.071708,0.0571 0.00536,0.002 0.00417,0.0108 -0.00217,0.0105 -0.035103,-0.002 -0.065412,-0.0326 -0.080637,-0.0622 -0.00275,-0.006 0.0027,-0.009 0.00721,-0.008 z m -0.1923728,2.8e-4 c 0.0027,-4.6e-4 0.00583,8e-4 0.00676,0.005 0.005,0.0183 0.00954,0.0366 0.013104,0.0556 0.00138,0.007 -0.00907,0.008 -0.010944,0.002 -0.00516,-0.0183 -0.0093,-0.0367 -0.013102,-0.0556 -7.299e-4,-0.003 0.00148,-0.006 0.00417,-0.006 z m -0.04075,0.0662 c 0.00265,2.6e-4 0.00528,0.002 0.00548,0.006 10e-4,0.023 -0.00512,0.0576 -0.022462,0.0743 v 1.5e-4 c -0.00556,0.006 -0.014091,-0.002 -0.011807,-0.008 0.00371,-0.0108 0.011222,-0.0196 0.015263,-0.0306 0.00443,-0.0118 0.00619,-0.0238 0.00777,-0.0362 4.201e-4,-0.003 0.00311,-0.006 0.00576,-0.005 z m 0.1691902,4.2e-4 c 0.00211,-8e-4 0.0049,-5.5e-4 0.00649,0.002 0.010169,0.0177 0.023763,0.0378 0.028222,0.058 0.00115,0.006 -0.00593,0.008 -0.00921,0.005 -0.012965,-0.0161 -0.020249,-0.0393 -0.027791,-0.0583 -0.00117,-0.002 1.992e-4,-0.006 0.0023,-0.006 z m -0.084667,0.0853 c 0.00436,-0.002 0.00995,0.002 0.00777,0.007 -0.00894,0.0226 -0.00898,0.0446 -0.012815,0.0681 v 1.4e-4 c -0.0011,0.006 -0.01054,0.007 -0.012097,5.8e-4 -0.00548,-0.024 0.00333,-0.0513 0.013537,-0.0731 8.314e-4,-0.002 0.00214,-0.002 0.00359,-0.003 z m 0.221891,0.009 c 0.00155,2e-5 0.00313,6.5e-4 0.00446,0.002 0.00987,0.011 0.019464,0.0222 0.029664,0.0329 0.00679,0.007 -0.00572,0.0178 -0.011663,0.0102 -0.00885,-0.0119 -0.018321,-0.0232 -0.027503,-0.0346 -0.00379,-0.005 4.129e-4,-0.0102 0.00504,-0.0102 z m 0.1248408,0.003 c 0.00151,-6e-5 0.00298,4.6e-4 0.00432,0.002 0.014872,0.0141 0.030018,0.0277 0.043773,0.0429 0.0044,0.005 -0.00285,0.0129 -0.0079,0.008 -0.01577,-0.0138 -0.030143,-0.0288 -0.044782,-0.0437 -0.00403,-0.003 6.82e-5,-0.009 0.00462,-0.009 z m -0.2027401,0.0843 c 0.00298,2.6e-4 0.00579,0.002 0.00563,0.006 -4.719e-4,0.0134 3.098e-4,0.0277 -0.00373,0.0405 -0.00171,0.006 -0.010596,0.005 -0.011377,-7.2e-4 -0.0018,-0.0134 0.00138,-0.0275 0.00304,-0.0408 v -1.4e-4 c 4.793e-4,-0.003 0.00351,-0.006 0.00649,-0.006 z m -0.092012,0.0556 c 0.00292,-1.3e-4 0.00601,0.002 0.00649,0.005 0.00229,0.0169 -0.00689,0.0317 -0.023037,0.0366 v -1.5e-4 c -0.00676,0.002 -0.00889,-0.008 -0.00359,-0.011 0.00892,-0.006 0.01442,-0.0149 0.014399,-0.025 -2.64e-5,-0.003 0.00283,-0.006 0.00576,-0.006 z m -0.6303952,0.26912 c -0.022539,8e-4 -0.044289,0.007 -0.0636458,0.0224 -0.0557463,0.0431 -0.0301938,0.12717 -0.00936,0.18173 0.0205846,0.0537 0.058311,0.14288 0.1265686,0.14629 0.064698,0.003 0.093041,-0.0926 0.1280086,-0.14068 -0.0055,-0.0148 -0.010874,-0.0297 -0.01627,-0.0442 -0.023411,0.0365 -0.059676,0.0796 -0.1016581,0.0781 -0.046855,-0.002 -0.062537,-0.0611 -0.077036,-0.0958 -0.014317,-0.0343 -0.0514677,-0.0933 -0.00115,-0.11579 0.039587,-0.0175 0.098733,0.005 0.138808,0.0234 -0.00399,-0.0103 -0.00799,-0.0206 -0.012097,-0.0312 -0.034811,-0.013 -0.074604,-0.026 -0.1121695,-0.0244 z m 0.00921,0.0558 c -0.01379,5.9e-4 -0.020716,0.006 -0.017135,0.0323 0.00214,0.0157 0.014372,0.0344 0.020446,0.0492 0.010102,0.0245 0.024761,0.0869 0.064796,0.0766 0.031285,-0.008 0.060537,-0.0453 0.078908,-0.0725 -0.00642,-0.0174 -0.012984,-0.035 -0.019438,-0.0524 v -2.9e-4 c -0.00274,8.2e-4 -0.00594,8.2e-4 -0.00936,-4.2e-4 -0.031713,-0.0149 -0.066858,-0.0296 -0.102234,-0.0319 -0.006,-3.2e-4 -0.011387,-7.6e-4 -0.015983,-5.5e-4 z"
       id="rect3103"
       inkscape:connector-curvature="0"
       sodipodi:nodetypes="ssssssssscccccccccccccccccccsccccccccccccccccccccccccccccccccccccccccccccccccccccccccccccccccccccccccccccccccccccccccccccccccccccccccccccccccccccccccccccccccccccccccccccccccccccccccccccccccccccccccccccccccccccccccccccccccccccccccccccccccccccccccccccccccccccccccccccccccccccccccccccccccccccccccccccccccccccccccccccccccccc" />
  </g>
</svg>
