<?xml version="1.0" encoding="UTF-8" standalone="no"?>
<!-- Created with Inkscape (http://www.inkscape.org/) -->

<svg
   xmlns:dc="http://purl.org/dc/elements/1.1/"
   xmlns:cc="http://creativecommons.org/ns#"
   xmlns:rdf="http://www.w3.org/1999/02/22-rdf-syntax-ns#"
   xmlns:svg="http://www.w3.org/2000/svg"
   xmlns="http://www.w3.org/2000/svg"
   xmlns:sodipodi="http://sodipodi.sourceforge.net/DTD/sodipodi-0.dtd"
   xmlns:inkscape="http://www.inkscape.org/namespaces/inkscape"
   width="16"
   height="16"
   viewBox="0 0 4.2333333 4.2333335"
   version="1.1"
   id="svg1888"
   inkscape:version="0.92.3 (2405546, 2018-03-11)"
   sodipodi:docname="dashicon-aank.svg">
  <defs
     id="defs1882" />
  <sodipodi:namedview
     id="base"
     pagecolor="#ffffff"
     bordercolor="#666666"
     borderopacity="1.0"
     inkscape:pageopacity="0.0"
     inkscape:pageshadow="2"
     inkscape:zoom="22.4"
     inkscape:cx="6.7653542"
     inkscape:cy="9.8346117"
     inkscape:document-units="mm"
     inkscape:current-layer="layer1"
     showgrid="false"
     units="px"
     inkscape:window-width="1396"
     inkscape:window-height="841"
     inkscape:window-x="148"
     inkscape:window-y="58"
     inkscape:window-maximized="0" />
  <metadata
     id="metadata1885">
    <rdf:RDF>
      <cc:Work
         rdf:about="">
        <dc:format>image/svg+xml</dc:format>
        <dc:type
           rdf:resource="http://purl.org/dc/dcmitype/StillImage" />
        <dc:title></dc:title>
      </cc:Work>
    </rdf:RDF>
  </metadata>
  <g
     inkscape:label="Layer 1"
     inkscape:groupmode="layer"
     id="layer1"
     transform="translate(0,-292.76665)">
    <path
       inkscape:connector-curvature="0"
       id="path1528"
       d="m 2.1048642,292.87955 a 2.0144178,2.0144178 0 0 0 -2.01444642,2.01443 2.0144178,2.0144178 0 0 0 0.27326646,1.00809 l 0.74898866,-1.29862 0.7330516,1.25103 -0.5277364,0.89371 a 2.0144178,2.0144178 0 0 0 0.7868761,0.16019 2.0144178,2.0144178 0 0 0 1.3035197,-0.48155 l -0.6900854,0.002 -1.3258783,-2.3082 0.7228936,-1.24053 a 2.0144178,2.0144178 0 0 0 -0.010454,-5.4e-4 z m 0.017046,5.4e-4 1.7341742,3.00634 a 2.0144178,2.0144178 0 0 0 0.2631668,-0.99277 2.0144178,2.0144178 0 0 0 -1.997341,-2.01357 z"
       style="opacity:1;fill:#ffffff;fill-opacity:1;stroke:none;stroke-width:0.05050095;stroke-miterlimit:4;stroke-dasharray:none" />
  </g>
</svg>
