<?xml version="1.0" encoding="UTF-8" standalone="no"?>
<!-- Created with Inkscape (http://www.inkscape.org/) -->

<svg
   xmlns:dc="http://purl.org/dc/elements/1.1/"
   xmlns:cc="http://creativecommons.org/ns#"
   xmlns:rdf="http://www.w3.org/1999/02/22-rdf-syntax-ns#"
   xmlns:svg="http://www.w3.org/2000/svg"
   xmlns="http://www.w3.org/2000/svg"
   xmlns:sodipodi="http://sodipodi.sourceforge.net/DTD/sodipodi-0.dtd"
   xmlns:inkscape="http://www.inkscape.org/namespaces/inkscape"
   width="16"
   height="16"
   viewBox="0 0 4.2333332 4.2333332"
   version="1.1"
   id="svg8"
   inkscape:version="0.92.3 (2405546, 2018-03-11)"
   sodipodi:docname="dashicon-bpbd.svg">
  <defs
     id="defs2" />
  <sodipodi:namedview
     id="base"
     pagecolor="#ffffff"
     bordercolor="#666666"
     borderopacity="1.0"
     inkscape:pageopacity="0.0"
     inkscape:pageshadow="2"
     inkscape:zoom="22.4"
     inkscape:cx="10.88964"
     inkscape:cy="10.119091"
     inkscape:document-units="mm"
     inkscape:current-layer="layer1"
     showgrid="false"
     units="px"
     inkscape:window-width="1920"
     inkscape:window-height="1021"
     inkscape:window-x="0"
     inkscape:window-y="28"
     inkscape:window-maximized="1" />
  <metadata
     id="metadata5">
    <rdf:RDF>
      <cc:Work
         rdf:about="">
        <dc:format>image/svg+xml</dc:format>
        <dc:type
           rdf:resource="http://purl.org/dc/dcmitype/StillImage" />
        <dc:title></dc:title>
      </cc:Work>
    </rdf:RDF>
  </metadata>
  <g
     inkscape:label="Layer 1"
     inkscape:groupmode="layer"
     id="layer1"
     transform="translate(0,-292.76669)">
    <g
       id="g992"
       transform="matrix(0.79369375,0,0,0.79369375,0.00767499,61.260694)">
      <path
         transform="matrix(0.26458333,0,0,0.26458333,0,291.70836)"
         id="path1544"
         d="m 4.1542969,13.943359 c -0.039716,0.02124 -2.2780839,1.377207 -2.2871094,1.384766 -0.017303,0.0158 0.245795,0.385898 0.5058594,0.710937 0.2326139,0.290873 0.4284957,0.507617 0.7265625,0.804688 0.4807548,0.479433 0.9480737,0.862216 1.5,1.226562 1.5402519,1.017223 3.2612991,1.55911 5.1464844,1.621094 v 0.002 c 0.1640651,0.0038 0.6142472,-0.0044 0.8398442,-0.01953 0.898233,-0.05333 1.814954,-0.242435 2.6875,-0.552734 1.85583,-0.659906 3.499652,-1.897745 4.644531,-3.5 0.07837,-0.109607 0.141046,-0.201613 0.138672,-0.203125 -0.0021,-0.0016 -0.517931,-0.313706 -1.146485,-0.69336 -0.628553,-0.37954 -1.149258,-0.697392 -1.15625,-0.701171 -0.0082,-0.0064 -0.05198,0.04311 -0.125,0.140624 -1.128507,1.506558 -2.820581,2.501876 -4.6875,2.75586 -0.374177,0.05216 -0.527184,0.06119 -0.9648435,0.06055 C 9.4346973,16.979713 9.1012268,16.947499 8.609375,16.849609 6.8725373,16.503594 5.3137917,15.507191 4.2851562,14.085938 4.1914693,13.955922 4.1721362,13.932021 4.1542969,13.943359 Z M 3.9257812,15.216797 4.1171875,15.414062 3.875,15.648438 4.3164062,15.623047 4.5722656,15.884766 H 4.1054688 L 3.9433594,16.513672 3.7089844,16.271484 3.8398438,15.882812 H 3.6347656 l -0.15625,0.152344 -0.1914062,-0.197265 z m 12.2499998,0.0078 c 0.04741,0.0076 0.09153,0.03031 0.132813,0.06836 0.03597,0.03376 0.0604,0.06956 0.07227,0.109375 0.01157,0.03981 0.01288,0.08122 0.0039,0.123047 -0.0057,0.02671 -0.01986,0.05747 -0.04102,0.09375 0.03036,-0.01764 0.05407,-0.02678 0.07227,-0.0293 0.01222,-0.0024 0.03405,-0.0025 0.06445,0 0.03067,0.0022 0.05255,0.0049 0.06641,0.0078 l 0.279297,0.07813 -0.212891,0.226563 -0.298828,-0.07813 c -0.03838,-0.01008 -0.06636,-0.01424 -0.08398,-0.01172 -0.02359,0.005 -0.04341,0.01557 -0.06055,0.0332 l -0.01563,0.01953 0.261719,0.248047 -0.1875,0.203125 -0.648438,-0.609375 0.3125,-0.333984 c 0.05809,-0.06198 0.109075,-0.104276 0.150391,-0.126953 0.04132,-0.02268 0.08511,-0.02904 0.132812,-0.02149 z m -0.107422,0.25586 c -0.02366,0.0025 -0.05165,0.02181 -0.08594,0.05859 l -0.08203,0.08984 0.130859,0.123047 0.08008,-0.08398 c 0.0086,-0.01008 0.02231,-0.02981 0.04102,-0.06055 0.0098,-0.01512 0.01294,-0.03359 0.0098,-0.05273 -0.0029,-0.01764 -0.01123,-0.03251 -0.02539,-0.04688 -0.02094,-0.02016 -0.04471,-0.02986 -0.06836,-0.02734 z m -0.804687,0.505859 0.828125,0.466797 -0.220703,0.185547 -0.126953,-0.08594 -0.240235,0.201172 0.06055,0.140625 -0.214844,0.181641 -0.314453,-0.896484 z m -10.4238282,0.113281 0.234375,0.1875 -0.296875,0.902344 -0.2246094,-0.181641 0.058594,-0.140624 -0.2441406,-0.195313 -0.125,0.08594 -0.21875,-0.175781 z m 10.4550782,0.16211 0.130859,0.308593 0.150391,-0.126953 z m -0.480469,0.103515 0.121094,0.183594 -0.232422,0.154297 0.371094,0.558594 -0.228516,0.152343 -0.371094,-0.558593 -0.234375,0.15625 -0.121093,-0.181641 z m -10.0039061,0.0059 -0.2773438,0.1875 0.1542969,0.123047 z m 0.5976562,0.169922 0.4355469,0.273437 c 0.072617,0.04561 0.1166563,0.09798 0.1328125,0.158203 0.016504,0.06047 0.00789,0.116757 -0.025391,0.169922 -0.027918,0.0446 -0.065564,0.07548 -0.1132813,0.08984 -0.031811,0.01008 -0.067972,0.0085 -0.1113281,-0.002 0.045959,0.04687 0.070797,0.0947 0.076172,0.142578 0.00592,0.04762 -0.00705,0.0947 -0.037109,0.142578 -0.024491,0.03906 -0.054107,0.07019 -0.091797,0.08984 -0.037697,0.02016 -0.078199,0.02791 -0.1210937,0.02539 -0.02661,-9.07e-4 -0.060903,-0.01005 -0.1035156,-0.0293 -0.056703,-0.02595 -0.094202,-0.04581 -0.1113282,-0.05664 L 4.9355469,17.292969 Z m 0.1386719,0.300781 -0.089844,0.142578 0.1015626,0.0625 c 0.036309,0.02268 0.066116,0.03377 0.087891,0.03125 0.022324,-0.0025 0.039862,-0.01632 0.054687,-0.04102 0.013732,-0.02268 0.018371,-0.04574 0.011719,-0.06641 -0.00632,-0.02016 -0.027232,-0.04127 -0.0625,-0.06445 z m 8.429687,0.0625 0.429688,0.779297 -0.242188,0.132812 -0.429687,-0.779297 z m -7.7773432,0.121094 0.2480468,0.117187 -0.2304687,0.492188 c -0.020586,0.04384 -0.024242,0.08286 -0.011719,0.11914 0.013052,0.03603 0.040795,0.06383 0.083984,0.08398 0.042837,0.02016 0.081708,0.02432 0.1171875,0.01172 0.036019,-0.0126 0.065017,-0.04084 0.085937,-0.08594 L 6.7226551,17.27346 6.970702,17.388694 6.7460927,17.869163 c -0.022299,0.04762 -0.051042,0.08972 -0.085938,0.125 -0.034366,0.03528 -0.076276,0.06124 -0.1230468,0.07813 -0.046234,0.01764 -0.088123,0.02262 -0.1289063,0.01758 -0.056731,-0.005 -0.1197683,-0.02319 -0.1875,-0.05469 -0.039176,-0.01764 -0.081077,-0.04039 -0.125,-0.06836 -0.043558,-0.02721 -0.076033,-0.05545 -0.099609,-0.08594 -0.023408,-0.03099 -0.042759,-0.06704 -0.054688,-0.109375 -0.011565,-0.04208 -0.013205,-0.08286 -0.00781,-0.11914 0.00864,-0.05846 0.022509,-0.106926 0.041016,-0.146485 z m -0.8320313,0.09961 -0.095703,0.154297 0.1191406,0.07422 c 0.040076,0.0252 0.072409,0.03629 0.097656,0.03125 0.025461,-0.005 0.045514,-0.02004 0.060547,-0.04297 0.013959,-0.02268 0.017829,-0.04518 0.00977,-0.06836 -0.00751,-0.02268 -0.031505,-0.04751 -0.072266,-0.07422 z m 7.8339845,0.167969 0.273437,0.613281 0.390625,-0.175781 0.08984,0.201172 -0.642578,0.285156 -0.361328,-0.8125 z m -6.0585939,0.158203 0.4316407,0.144531 c 0.094299,0.0315 0.1577202,0.07795 0.1894531,0.138672 0.032116,0.06072 0.033616,0.132198 0.00586,0.214844 -0.028525,0.08516 -0.075151,0.143088 -0.1425781,0.173828 -0.067044,0.03074 -0.1527819,0.02797 -0.2578125,-0.0078 L 7.2265625,18.066406 7.1210938,18.380859 6.859375,18.292969 Z m 5.3808599,0.103516 c 0.08174,-0.0257 0.150691,-0.02661 0.207031,0 0.05672,0.02671 0.09443,0.07114 0.113281,0.130859 0.01582,0.05014 0.01407,0.09697 -0.0059,0.142578 -0.01328,0.03049 -0.03654,0.05948 -0.07227,0.08594 0.06554,-0.005 0.118362,0.0074 0.158203,0.03516 0.04011,0.02646 0.06696,0.06522 0.08398,0.11914 0.01386,0.04384 0.01716,0.08733 0.0078,0.128907 -0.0094,0.04157 -0.02957,0.07788 -0.05859,0.109375 -0.01797,0.02016 -0.04733,0.03944 -0.08984,0.05859 -0.05656,0.0262 -0.094,0.04253 -0.113282,0.04883 l -0.453125,0.142579 -0.267578,-0.847657 z m -5.1777349,0.15625 -0.0625,0.185546 0.064453,0.02344 c 0.050217,0.01764 0.087185,0.0218 0.1132813,0.01172 0.026227,-0.01008 0.043613,-0.02867 0.052734,-0.05664 0.00887,-0.02646 0.00756,-0.05173 -0.00391,-0.07617 -0.011464,-0.0252 -0.041161,-0.04713 -0.089844,-0.0625 z m 0.7988281,0.03906 0.2910157,0.06445 0.1347656,0.941406 -0.28125,-0.0625 L 8.2792925,18.54104 7.9726518,18.47268 7.9003858,18.607446 7.625,18.546875 Z m 4.4121098,0.0039 c -0.02018,-0.01008 -0.05013,-0.0087 -0.08984,0.0039 l -0.115235,0.03711 0.05078,0.162109 0.115234,-0.03711 c 0.04087,-0.0126 0.0667,-0.02773 0.07813,-0.04687 0.01169,-0.02016 0.0123,-0.04436 0.0039,-0.07031 -0.0078,-0.0252 -0.0224,-0.04051 -0.04297,-0.04883 z m -1.150391,0.09766 0.109375,0.882813 -0.255859,0.0293 -0.390625,-0.44336 0.06055,0.484376 -0.257813,0.0293 -0.109375,-0.880859 0.255859,-0.03125 0.392579,0.447266 -0.06055,-0.488282 z m -2.6992188,0.02148 0.8320313,0.08789 -0.023437,0.216796 -0.2792969,-0.0293 -0.070312,0.666015 -0.2734375,-0.03125 0.070312,-0.666015 -0.2792968,-0.0293 z m 1.6953128,0.08789 0.002,0.189453 -0.4609376,0.002 v 0.140625 l 0.4277346,-0.002 v 0.18164 l -0.4277346,0.002 0.00195,0.175782 0.4746096,-0.002 v 0.201171 l -0.7500002,0.0039 -0.00391,-0.890625 z m -2.1660159,0.04687 -0.1640625,0.291016 0.1914063,0.04102 z m 4.4531249,0.0625 c -0.02298,-0.01008 -0.05763,-0.0073 -0.103515,0.0078 l -0.132813,0.04102 0.05469,0.171875 0.132813,-0.04297 c 0.04511,-0.01512 0.07437,-0.03207 0.08789,-0.05273 0.0134,-0.02268 0.01633,-0.04776 0.0078,-0.07422 -0.0079,-0.0252 -0.02363,-0.04171 -0.04687,-0.05078 z"
         style="opacity:1;fill:#ffffff;fill-opacity:1;stroke:none;stroke-width:0.1587126;stroke-miterlimit:4;stroke-dasharray:none;stroke-opacity:1"
         inkscape:connector-curvature="0" />
      <g
         style="fill:#ffffff;fill-opacity:1"
         id="g1562"
         transform="matrix(0.087632,0,0,0.087632,6.0289851,291.15184)">
        <path
           d="m -38.553726,18.260874 -7.461134,12.644 -7.461135,12.643999 h 29.844651 l -7.46129,-12.643999 -7.461092,-12.644"
           style="fill:#ffffff;fill-opacity:1;fill-rule:evenodd;stroke:none;stroke-width:0.87671852"
           id="path1550"
           inkscape:connector-curvature="0" />
        <g
           style="fill:#ffffff;fill-opacity:1"
           id="g1560"
           transform="matrix(1.2442198,0,0,1.2442198,9.4357968,-10.986227)">
          <path
             inkscape:connector-curvature="0"
             id="path1552"
             style="fill:#ffffff;fill-opacity:1;fill-rule:nonzero;stroke:none;stroke-width:1.07247162"
             d="m -48.592388,45.300542 h 2.509991 c 0.418292,0 0.739641,0.104025 0.962703,0.310878 0.224166,0.20718 0.33627,0.463865 0.33627,0.768951 0,0.256299 -0.07977,0.476596 -0.239324,0.660396 -0.107042,0.12238 -0.262474,0.219332 -0.467601,0.289964 0.311064,0.07475 0.540297,0.20422 0.68789,0.385972 0.146253,0.182739 0.22005,0.41197 0.22005,0.687508 0,0.225498 -0.0525,0.427467 -0.156537,0.607534 -0.105212,0.179543 -0.247359,0.320969 -0.429148,0.425997 -0.112103,0.06456 -0.281939,0.112058 -0.509116,0.141427 -0.302072,0.03935 -0.50218,0.05962 -0.601179,0.05962 h -2.313999 v -4.338213 z m 1.352443,1.701959 h 0.582673 c 0.20924,0 0.354586,-0.03668 0.437565,-0.108172 0.08182,-0.07271 0.122341,-0.176721 0.122341,-0.311831 0,-0.126648 -0.0405,-0.225455 -0.122341,-0.296474 -0.08298,-0.07132 -0.225311,-0.106817 -0.428574,-0.106817 h -0.591664 v 0.823337 z m 0,1.703826 h 0.683777 c 0.231434,0 0.394188,-0.04033 0.487976,-0.122194 0.09509,-0.08162 0.142333,-0.192067 0.142333,-0.330096 0,-0.128181 -0.0463,-0.231482 -0.140276,-0.309202 -0.09398,-0.07776 -0.257643,-0.11713 -0.492663,-0.11713 h -0.681147 v 0.878623" />
          <path
             inkscape:connector-curvature="0"
             id="path1554"
             style="fill:#ffffff;fill-opacity:1;fill-rule:nonzero;stroke:none;stroke-width:1.07247162"
             d="m -43.101643,45.300542 h 2.228436 c 0.484818,0 0.848541,0.115257 1.090113,0.346548 0.24119,0.230141 0.36243,0.559337 0.36243,0.984755 0,0.438287 -0.131332,0.780726 -0.395144,1.027127 -0.263381,0.246636 -0.66546,0.369745 -1.205758,0.369745 h -0.733422 v 1.610038 h -1.346655 z m 1.346655,1.849359 h 0.328234 c 0.258552,0 0.439385,-0.0445 0.544605,-0.134531 0.104014,-0.08988 0.156535,-0.204563 0.156535,-0.344305 0,-0.136408 -0.04558,-0.252385 -0.136545,-0.346559 -0.08966,-0.09469 -0.260273,-0.142188 -0.511171,-0.142188 h -0.381658 v 0.967583" />
          <path
             inkscape:connector-curvature="0"
             id="path1556"
             style="fill:#ffffff;fill-opacity:1;fill-rule:nonzero;stroke:none;stroke-width:1.07247162"
             d="m -37.988995,45.300542 h 2.510374 c 0.418101,0 0.739258,0.104025 0.962513,0.310878 0.224354,0.20718 0.336077,0.463865 0.336077,0.768951 0,0.256299 -0.07957,0.476596 -0.239133,0.660396 -0.107042,0.12238 -0.262856,0.219332 -0.467792,0.289964 0.311064,0.07475 0.540633,0.20422 0.688035,0.385972 0.146491,0.182739 0.220097,0.41197 0.220097,0.687508 0,0.225498 -0.05233,0.427467 -0.156537,0.607534 -0.105031,0.179543 -0.247359,0.320969 -0.429148,0.425997 -0.112104,0.06456 -0.281939,0.112058 -0.509116,0.141427 -0.302072,0.03935 -0.501988,0.05962 -0.600989,0.05962 h -2.314381 v -4.338213 z m 1.352778,1.701959 h 0.58272 c 0.20905,0 0.354587,-0.03668 0.437519,-0.108172 0.08169,-0.07271 0.12201,-0.176721 0.12201,-0.311831 0,-0.126648 -0.04032,-0.225455 -0.12201,-0.296474 -0.08294,-0.07132 -0.225455,-0.106817 -0.428384,-0.106817 h -0.591855 v 0.823337 z m 0,1.703826 h 0.683777 c 0.231291,0 0.394045,-0.04033 0.487642,-0.122194 0.09527,-0.08162 0.142714,-0.192067 0.142714,-0.330096 0,-0.128181 -0.04654,-0.231482 -0.140466,-0.309202 -0.09398,-0.07776 -0.257452,-0.11713 -0.493046,-0.11713 h -0.680621 v 0.878623" />
          <path
             inkscape:connector-curvature="0"
             id="path1558"
             style="fill:#ffffff;fill-opacity:1;fill-rule:nonzero;stroke:none;stroke-width:1.07247162"
             d="m -32.672228,45.300542 h 1.991503 c 0.39218,0 0.709271,0.05341 0.951751,0.159552 0.241525,0.107042 0.440962,0.259452 0.598789,0.458277 0.157351,0.20006 0.271657,0.431532 0.343397,0.69626 0.07077,0.264579 0.106183,0.544215 0.106183,0.840164 0,0.463876 -0.05213,0.823487 -0.158784,1.078692 -0.104737,0.255773 -0.251568,0.469892 -0.43905,0.641735 -0.187001,0.172839 -0.387873,0.287916 -0.603094,0.345261 -0.294134,0.07883 -0.560527,0.118266 -0.799183,0.118266 h -1.991504 z m 1.340104,0.982695 v 2.369669 h 0.328569 c 0.280265,0 0.479702,-0.03024 0.597834,-0.09287 0.118133,-0.06188 0.210916,-0.170748 0.278351,-0.325463 0.06696,-0.154297 0.100432,-0.405952 0.100432,-0.753272 0,-0.459565 -0.07509,-0.773787 -0.224307,-0.943625 -0.150654,-0.169633 -0.399352,-0.254432 -0.746574,-0.254432 h -0.334309" />
        </g>
      </g>
      <g
         aria-label="BADAN PENANGGULANGAN BENCANA DAERAH"
         style="font-style:normal;font-variant:normal;font-weight:900;font-stretch:normal;font-size:6.3499999px;line-height:1.25;font-family:Arial;-inkscape-font-specification:'Arial Heavy';text-align:center;letter-spacing:0px;word-spacing:0px;writing-mode:lr-tb;direction:rtl;text-anchor:middle;fill:#ffffff;fill-opacity:1;stroke:none;stroke-width:0.26458332"
         id="g1660"
         transform="matrix(0.05174904,0,0,0.05174904,-2.7856062,290.43811)">
        <path
           d="M 64.777252,97.046994 63.62297,94.684615 q -0.288571,-0.590594 -0.149873,-1.048317 0.137337,-0.460508 0.569139,-0.671491 0.362158,-0.176954 0.731495,-0.07789 0.246225,0.06604 0.488078,0.306765 -0.109206,-0.491886 0.04915,-0.824627 0.154207,-0.334165 0.544223,-0.524731 0.317584,-0.155174 0.643236,-0.131393 0.325653,0.02378 0.59853,0.207934 0.16952,0.113873 0.367843,0.413825 0.263978,0.399007 0.332037,0.538299 l 1.064444,2.178514 z m 0.979789,-2.055801 -0.268153,-0.548808 q -0.144285,-0.295297 -0.300384,-0.360513 -0.160245,-0.06664 -0.352467,0.02728 -0.178292,0.08711 -0.221412,0.253122 -0.04448,0.163222 0.09572,0.450162 l 0.272237,0.557164 z m 1.604634,-0.784041 -0.314433,-0.643526 q -0.159258,-0.325941 -0.338814,-0.403852 -0.182341,-0.07655 -0.377349,0.01873 -0.181078,0.08848 -0.224389,0.275282 -0.04746,0.185381 0.114524,0.516894 l 0.313072,0.64074 z"
           style="letter-spacing:0.14579082px;writing-mode:lr-tb;direction:rtl;fill:#ffffff"
           id="path1596"
           inkscape:connector-curvature="0" />
        <path
           d="m 65.116936,88.158005 0.520284,1.512941 0.781148,-0.03583 0.466844,1.357543 -4.853971,-0.137392 -0.498101,-1.448437 3.742821,-3.093734 0.477935,1.389795 z m -0.833673,0.598177 -1.381849,1.006369 1.707531,-0.05931 z"
           style="letter-spacing:0.14579082px;writing-mode:lr-tb;direction:rtl;fill:#ffffff"
           id="path1598"
           inkscape:connector-curvature="0" />
        <path
           d="m 60.703102,86.65596 -0.434591,-2.040937 q -0.128505,-0.603487 -0.04353,-1.008334 0.08433,-0.40788 0.338964,-0.715708 0.254633,-0.307829 0.637753,-0.503533 0.383121,-0.195704 0.838011,-0.292567 0.71266,-0.151752 1.141768,-0.07194 0.425429,0.07743 0.753644,0.308696 0.325182,0.231916 0.483515,0.543742 0.21752,0.426027 0.295656,0.792971 l 0.434591,2.040937 z m 0.714296,-1.588156 2.429109,-0.517247 -0.07168,-0.336618 q -0.0917,-0.430628 -0.224452,-0.592566 -0.135789,-0.161291 -0.394287,-0.214031 -0.26153,-0.05209 -0.795267,0.06156 -0.706595,0.15046 -0.918321,0.436472 -0.211726,0.286012 -0.09807,0.819749 z"
           style="letter-spacing:0.14579082px;writing-mode:lr-tb;direction:rtl;fill:#ffffff"
           id="path1600"
           inkscape:connector-curvature="0" />
        <path
           d="m 63.210656,78.290478 0.142493,1.593545 0.766967,0.152438 0.127857,1.429866 -4.679553,-1.296797 -0.136418,-1.525602 4.375236,-2.10647 0.130895,1.463837 z m -0.952746,0.380925 -1.582778,0.64583 1.671975,0.351679 z"
           style="letter-spacing:0.14579082px;writing-mode:lr-tb;direction:rtl;fill:#ffffff"
           id="path1602"
           inkscape:connector-curvature="0" />
        <path
           d="m 59.269704,75.759407 0.04911,-1.310628 2.576904,-1.616159 -2.512812,-0.09416 0.04958,-1.323021 4.542271,0.170215 -0.04958,1.323021 -2.557965,1.607561 2.494221,0.09347 -0.04946,1.319923 z"
           style="letter-spacing:0.14579082px;writing-mode:lr-tb;direction:rtl;fill:#ffffff"
           id="path1604"
           inkscape:connector-curvature="0" />
        <path
           d="m 59.986802,67.288334 0.501203,-2.28031 q 0.163739,-0.744961 0.599255,-1.036538 0.43618,-0.294605 1.090293,-0.150833 0.672283,0.147764 0.961629,0.636758 0.290011,0.485964 0.107635,1.315719 l -0.165071,0.751018 1.647395,0.36209 -0.302851,1.377877 z m 2.195539,-0.961872 0.07388,-0.336141 q 0.08719,-0.396707 -0.0138,-0.587159 -0.104025,-0.191118 -0.319034,-0.238376 -0.208953,-0.04593 -0.384929,0.06142 -0.175976,0.107353 -0.260508,0.491947 l -0.08586,0.390651 z"
           style="letter-spacing:0.14579082px;writing-mode:lr-tb;direction:rtl;fill:#ffffff"
           id="path1606"
           inkscape:connector-curvature="0" />
        <path
           d="m 61.20818,62.164335 1.229024,-3.557814 0.917294,0.316874 -0.769405,2.227296 0.682842,0.235884 0.713725,-2.066111 0.876265,0.3027 -0.713724,2.066111 0.846958,0.292576 0.791678,-2.29177 0.972977,0.336108 -1.251296,3.622288 z"
           style="letter-spacing:0.14579082px;writing-mode:lr-tb;direction:rtl;fill:#ffffff"
           id="path1608"
           inkscape:connector-curvature="0" />
        <path
           d="m 63.021661,57.169924 0.57829,-1.177173 3.011594,-0.427439 -2.256946,-1.108731 0.583759,-1.188306 4.079756,2.004192 -0.583759,1.188306 -2.990794,0.427293 2.240248,1.100528 -0.582392,1.185523 z"
           style="letter-spacing:0.14579082px;writing-mode:lr-tb;direction:rtl;fill:#ffffff"
           id="path1610"
           inkscape:connector-curvature="0" />
        <path
           d="m 70.457823,51.640293 -0.882511,1.33449 0.504434,0.597512 -0.791865,1.19742 -2.849026,-3.932297 0.844884,-1.277592 4.733769,1.082283 -0.810678,1.225867 z m -0.982309,-0.296472 -1.640005,-0.482357 1.08758,1.317706 z"
           style="letter-spacing:0.14579082px;writing-mode:lr-tb;direction:rtl;fill:#ffffff"
           id="path1612"
           inkscape:connector-curvature="0" />
        <path
           d="m 68.959505,47.200075 0.856961,-0.992861 3.021877,0.347367 -1.903572,-1.643016 0.865066,-1.002251 3.440981,2.969991 -0.865065,1.00225 -3.001716,-0.342253 1.889488,1.630861 -0.863039,0.999903 z"
           style="letter-spacing:0.14579082px;writing-mode:lr-tb;direction:rtl;fill:#ffffff"
           id="path1614"
           inkscape:connector-curvature="0" />
        <path
           d="m 76.619469,43.353031 -0.628435,-0.706667 1.621858,-1.442309 1.287776,1.448087 q -0.183424,0.73157 -0.439528,1.166785 -0.255847,0.430838 -0.747038,0.867652 -0.604721,0.537776 -1.170396,0.671541 -0.563357,0.131705 -1.136837,-0.08858 -0.571162,-0.222342 -1.040943,-0.750604 -0.494506,-0.556066 -0.629827,-1.170148 -0.137382,-0.616399 0.115593,-1.223102 0.198932,-0.471509 0.782801,-0.99074 0.563017,-0.500688 0.931709,-0.645995 0.371009,-0.147368 0.745668,-0.09467 0.374916,0.04832 0.760177,0.294911 l -0.851789,1.081134 q -0.233574,-0.136674 -0.474834,-0.10469 -0.238944,0.02992 -0.470638,0.235967 -0.345224,0.307006 -0.337145,0.731347 0.0083,0.419964 0.469873,0.938958 0.490386,0.551432 0.906759,0.60438 0.418689,0.05089 0.7894,-0.278782 0.176087,-0.156594 0.290626,-0.349737 0.114539,-0.193143 0.211543,-0.49932 l -0.284341,-0.319738 z"
           style="letter-spacing:0.14579082px;writing-mode:lr-tb;direction:rtl;fill:#ffffff"
           id="path1616"
           inkscape:connector-curvature="0" />
        <path
           d="m 81.092147,39.892611 -0.529873,-0.78329 1.797715,-1.216102 1.085804,1.605103 q -0.278192,0.701033 -0.589393,1.098721 -0.31037,0.393382 -0.854821,0.761687 -0.670291,0.453432 -1.248656,0.511518 -0.575798,0.05635 -1.115263,-0.237555 -0.536898,-0.295641 -0.932999,-0.881183 -0.416949,-0.616359 -0.470201,-1.242916 -0.05499,-0.629124 0.2757,-1.197217 0.259309,-0.441196 0.906487,-0.878992 0.624063,-0.422161 1.008684,-0.517636 0.387188,-0.09721 0.751641,0.0044 0.365283,0.09729 0.714705,0.392476 l -0.986779,0.959511 q -0.213536,-0.166251 -0.456907,-0.166326 -0.240803,-0.0018 -0.49762,0.171916 -0.382656,0.258855 -0.430545,0.680563 -0.04706,0.417402 0.342095,0.992671 0.413474,0.611223 0.819244,0.718557 0.408338,0.105597 0.819244,-0.172369 0.195181,-0.132034 0.334164,-0.308406 0.138983,-0.176373 0.275473,-0.467104 L 81.8703,39.366213 Z"
           style="letter-spacing:0.14579082px;writing-mode:lr-tb;direction:rtl;fill:#ffffff"
           id="path1618"
           inkscape:connector-curvature="0" />
        <path
           d="m 85.293571,34.157472 1.254546,-0.624676 1.207891,2.425825 q 0.179663,0.36082 0.226181,0.739446 0.04791,0.374469 -0.07333,0.736177 -0.119842,0.357551 -0.335148,0.585987 -0.298652,0.318429 -0.812128,0.574104 -0.296983,0.147877 -0.670207,0.281761 -0.370449,0.132502 -0.667179,0.127851 -0.298112,-0.0074 -0.608502,-0.136898 -0.307614,-0.130853 -0.500015,-0.336392 -0.310056,-0.330531 -0.459315,-0.63029 l -1.207891,-2.425824 1.254546,-0.624676 1.236913,2.484111 q 0.165843,0.333065 0.443007,0.430588 0.278557,0.09337 0.606071,-0.06971 0.324738,-0.161697 0.41671,-0.436097 0.09337,-0.278557 -0.07524,-0.617173 z"
           style="letter-spacing:0.14579082px;writing-mode:lr-tb;direction:rtl;fill:#ffffff"
           id="path1620"
           inkscape:connector-curvature="0" />
        <path
           d="m 88.063749,32.922666 1.32346,-0.470378 1.147391,3.228309 2.065534,-0.734123 0.374849,1.054679 -3.388994,1.204501 z"
           style="letter-spacing:0.14579082px;writing-mode:lr-tb;direction:rtl;fill:#ffffff"
           id="path1622"
           inkscape:connector-curvature="0" />
        <path
           d="m 96.295527,34.419616 -1.559493,0.357304 -0.04701,0.780554 -1.399314,0.320604 0.650143,-4.812195 1.493004,-0.342069 2.680404,4.049115 -1.432558,0.328221 z m -0.506622,-0.892278 -0.854529,-1.480563 -0.121666,1.704224 z"
           style="letter-spacing:0.14579082px;writing-mode:lr-tb;direction:rtl;fill:#ffffff"
           id="path1624"
           inkscape:connector-curvature="0" />
        <path
           d="m 98.277097,30.172099 1.305411,-0.126728 1.946482,2.337433 -0.24297,-2.502809 1.31776,-0.127926 0.4392,4.52419 -1.31775,0.127926 -1.935432,-2.319816 0.241172,2.484293 -1.314669,0.127627 z"
           style="letter-spacing:0.14579082px;writing-mode:lr-tb;direction:rtl;fill:#ffffff"
           id="path1626"
           inkscape:connector-curvature="0" />
        <path
           d="m 106.47369,32.675224 0.0324,-0.945124 2.16914,0.07434 -0.0664,1.936729 q -0.6374,0.403184 -1.12302,0.541661 -0.48241,0.135484 -1.13935,0.112969 -0.80878,-0.02772 -1.31062,-0.321033 -0.49875,-0.293207 -0.76204,-0.848255 -0.2602,-0.554941 -0.23599,-1.26146 0.0255,-0.743704 0.35107,-1.281671 0.32568,-0.541066 0.92731,-0.805868 0.46926,-0.204188 1.25015,-0.177425 0.753,0.02581 1.12018,0.174897 0.37028,0.149197 0.6052,0.445772 0.23813,0.293583 0.347,0.737856 l -1.36244,0.195293 q -0.0748,-0.260065 -0.2716,-0.403314 -0.19365,-0.143143 -0.50352,-0.153763 -0.46172,-0.01582 -0.74856,0.296995 -0.28363,0.309827 -0.30742,1.003951 -0.0253,0.737506 0.23968,1.063032 0.26806,0.325633 0.76386,0.342625 0.23551,0.0081 0.45166,-0.05277 0.21615,-0.06085 0.49757,-0.215627 l 0.0147,-0.42763 z"
           style="letter-spacing:0.14579082px;writing-mode:lr-tb;direction:rtl;fill:#ffffff"
           id="path1628"
           inkscape:connector-curvature="0" />
        <path
           d="m 112.45235,34.217993 -1.57898,-0.257847 -0.3382,0.705054 -1.4168,-0.231362 2.41865,-4.210703 1.51167,0.246854 0.95353,4.761375 -1.45047,-0.236859 z m -0.13229,-1.017509 -0.23239,-1.6936 -0.75601,1.532196 z"
           style="letter-spacing:0.14579082px;writing-mode:lr-tb;direction:rtl;fill:#ffffff"
           id="path1630"
           inkscape:connector-curvature="0" />
        <path
           d="m 115.89358,31.032502 1.25645,0.37615 0.91845,2.899802 0.72117,-2.408941 1.26834,0.379707 -1.30363,4.354509 -1.26834,-0.379707 -0.91487,-2.879312 -0.71584,2.391119 -1.26536,-0.378818 z"
           style="letter-spacing:0.14579082px;writing-mode:lr-tb;direction:rtl;fill:#ffffff"
           id="path1632"
           inkscape:connector-curvature="0" />
        <path
           d="m 123.94726,33.865097 2.33758,1.203709 q 0.5844,0.300928 0.74685,0.750769 0.16521,0.45126 -0.0548,0.87853 -0.18453,0.358356 -0.53983,0.499741 -0.23686,0.09426 -0.57464,0.04587 0.3816,0.329026 0.45357,0.690429 0.0761,0.360066 -0.12257,0.745987 -0.16182,0.31425 -0.43709,0.489867 -0.27527,0.175618 -0.60411,0.191125 -0.20397,0.01006 -0.54226,-0.111832 -0.45015,-0.162047 -0.58798,-0.233021 l -2.15565,-1.110024 z m 0.44357,2.233732 0.54304,0.279635 q 0.2922,0.150464 0.45632,0.109425 0.1683,-0.04238 0.26624,-0.23258 0.0909,-0.176421 0.0262,-0.335276 -0.0619,-0.157435 -0.34584,-0.30364 l -0.55132,-0.283894 z m -0.81762,1.587791 0.63677,0.327897 q 0.32252,0.166078 0.51304,0.121192 0.19193,-0.04764 0.29129,-0.240602 0.0923,-0.179178 0.0153,-0.354819 -0.0728,-0.176979 -0.40081,-0.345895 l -0.63401,-0.326478 z"
           style="letter-spacing:0.14579082px;writing-mode:lr-tb;direction:rtl;fill:#ffffff"
           id="path1634"
           inkscape:connector-curvature="0" />
        <path
           d="m 128.89449,36.53353 3.11674,2.110563 -0.54415,0.803574 -1.95117,-1.321275 -0.40508,0.598188 1.80997,1.225656 -0.51982,0.767632 -1.80997,-1.225656 -0.50243,0.741958 2.00765,1.359522 -0.57718,0.852354 -3.17322,-2.14881 z"
           style="letter-spacing:0.14579082px;writing-mode:lr-tb;direction:rtl;fill:#ffffff"
           id="path1636"
           inkscape:connector-curvature="0" />
        <path
           d="m 133.24648,39.578342 0.98709,0.863596 -0.36761,3.019481 1.65574,-1.89252 0.99643,0.871762 -2.99298,3.421003 -0.99643,-0.871762 0.36236,-2.999354 -1.64349,1.878518 -0.9941,-0.869721 z"
           style="letter-spacing:0.14579082px;writing-mode:lr-tb;direction:rtl;fill:#ffffff"
           id="path1638"
           inkscape:connector-curvature="0" />
        <path
           d="m 137.68702,47.673116 0.53723,1.168338 q -0.46994,0.250318 -0.90671,0.280809 -0.43676,0.03049 -0.83215,-0.149558 -0.39332,-0.177727 -0.79816,-0.635112 -0.49115,-0.554899 -0.64331,-1.049602 -0.14779,-0.494436 0.0325,-1.109457 0.18025,-0.61502 0.81409,-1.17604 0.84512,-0.748026 1.69448,-0.700655 0.85374,0.04764 1.58121,0.869538 0.56924,0.643125 0.6339,1.240124 0.0667,0.599321 -0.3137,1.25486 l -1.02864,-0.745805 q 0.1124,-0.186443 0.13711,-0.303549 0.0426,-0.195088 -0.005,-0.380324 -0.048,-0.185237 -0.18775,-0.343117 -0.31648,-0.35755 -0.77289,-0.293112 -0.34101,0.04511 -0.79839,0.449951 -0.56651,0.501424 -0.62572,0.860241 -0.0569,0.356761 0.21849,0.667876 0.26715,0.301828 0.57227,0.305047 0.30717,0.0055 0.69155,-0.210453 z"
           style="letter-spacing:0.14579082px;writing-mode:lr-tb;direction:rtl;fill:#ffffff"
           id="path1640"
           inkscape:connector-curvature="0" />
        <path
           d="m 139.81133,52.371187 -0.90491,-1.319405 -0.7433,0.242849 -0.81197,-1.183884 4.71483,-1.162022 0.86633,1.263151 -2.78225,3.97982 -0.83126,-1.212011 z m 0.64396,-0.798836 1.06343,-1.33843 -1.62987,0.512524 z"
           style="letter-spacing:0.14579082px;writing-mode:lr-tb;direction:rtl;fill:#ffffff"
           id="path1642"
           inkscape:connector-curvature="0" />
        <path
           d="m 144.48774,52.651475 0.59817,1.167198 -1.45723,2.669998 2.23782,-1.146846 0.60383,1.178235 -4.04518,2.07309 -0.60383,-1.178235 1.44492,-2.653235 -2.22127,1.138361 -0.60241,-1.175476 z"
           style="letter-spacing:0.14579082px;writing-mode:lr-tb;direction:rtl;fill:#ffffff"
           id="path1644"
           inkscape:connector-curvature="0" />
        <path
           d="m 144.47585,61.919007 -0.54163,-1.505433 -0.78056,0.04688 -0.486,-1.350806 4.85543,0.06874 0.51853,1.441248 -3.6987,3.146351 -0.49754,-1.382898 z m 0.82513,-0.609906 1.36748,-1.025808 -1.70652,0.08345 z"
           style="letter-spacing:0.14579082px;writing-mode:lr-tb;direction:rtl;fill:#ffffff"
           id="path1646"
           inkscape:connector-curvature="0" />
        <path
           d="m 149.50194,65.808912 0.34978,2.05717 q 0.10342,0.608287 0.002,1.009272 -0.10114,0.404041 -0.36829,0.70107 -0.26715,0.29703 -0.65804,0.476715 -0.39089,0.179684 -0.8494,0.257643 -0.71833,0.122135 -1.14377,0.02464 -0.42186,-0.09496 -0.74022,-0.339615 -0.31531,-0.245172 -0.46061,-0.563282 -0.1997,-0.434662 -0.26259,-0.804525 l -0.34977,-2.05717 z m -0.77939,1.557241 -2.44843,0.416299 0.0577,0.339295 q 0.0738,0.434054 0.19974,0.601346 0.129,0.166771 0.38509,0.230161 0.25915,0.06287 0.79714,-0.0286 0.71221,-0.121095 0.93559,-0.398102 0.22338,-0.277007 0.13191,-0.814989 z"
           style="letter-spacing:0.14579082px;writing-mode:lr-tb;direction:rtl;fill:#ffffff"
           id="path1648"
           inkscape:connector-curvature="0" />
        <path
           d="m 146.65189,74.06282 -0.0773,-1.598033 -0.7601,-0.183627 -0.0694,-1.433894 4.62271,1.486782 0.074,1.5299 -4.45759,1.926072 -0.071,-1.467961 z m 0.9675,-0.341706 1.60783,-0.580667 -1.65622,-0.419653 z"
           style="letter-spacing:0.14579082px;writing-mode:lr-tb;direction:rtl;fill:#ffffff"
           id="path1650"
           inkscape:connector-curvature="0" />
        <path
           d="m 150.47399,76.70019 -0.26203,3.75498 -0.96813,-0.06756 0.16404,-2.350729 -0.72069,-0.05029 -0.15216,2.18061 -0.92483,-0.06454 0.15217,-2.18061 -0.8939,-0.06238 -0.16878,2.418776 -1.0269,-0.07166 0.26678,-3.823027 z"
           style="letter-spacing:0.14579082px;writing-mode:lr-tb;direction:rtl;fill:#ffffff"
           id="path1652"
           inkscape:connector-curvature="0" />
        <path
           d="m 145.55298,81.127176 4.46436,0.854811 -0.44023,2.299175 q -0.12245,0.639505 -0.29681,0.956538 -0.17435,0.317034 -0.51243,0.466969 -0.33505,0.150518 -0.76138,0.06889 -0.37153,-0.07114 -0.61223,-0.281385 -0.23767,-0.209666 -0.35209,-0.518855 -0.0728,-0.197034 -0.0839,-0.518017 -0.12945,0.230923 -0.23325,0.327855 -0.0694,0.06564 -0.27646,0.174361 -0.20766,0.11177 -0.31444,0.141836 l -1.42194,0.419099 0.29855,-1.559175 1.50538,-0.47573 q 0.29176,-0.08935 0.39193,-0.183823 0.13211,-0.129393 0.16826,-0.318199 l 0.0233,-0.121811 -1.81194,-0.346938 z m 2.39016,1.89405 -0.11137,0.581646 q -0.0181,0.0944 -0.009,0.377094 0.001,0.142284 0.0975,0.249126 0.0958,0.109887 0.24193,0.137876 0.21622,0.0414 0.35818,-0.07348 0.14196,-0.114879 0.21426,-0.492492 l 0.11603,-0.606008 z"
           style="letter-spacing:0.14579082px;writing-mode:lr-tb;direction:rtl;fill:#ffffff"
           id="path1654"
           inkscape:connector-curvature="0" />
        <path
           d="m 144.38458,88.981685 0.494,-1.521727 -0.64571,-0.441066 0.44326,-1.365426 3.79585,3.028434 -0.47293,1.456847 -4.85086,0.221457 0.45378,-1.397866 z m 1.02581,0.02332 1.70926,0.02678 -1.40003,-0.97933 z"
           style="letter-spacing:0.14579082px;writing-mode:lr-tb;direction:rtl;fill:#ffffff"
           id="path1656"
           inkscape:connector-curvature="0" />
        <path
           d="m 147.01268,92.862882 -0.60205,1.268991 -1.43707,-0.681793 -0.65787,1.386646 1.43706,0.681793 -0.6047,1.274594 -4.10672,-1.948361 0.60471,-1.274593 1.66118,0.788116 0.65787,-1.386646 -1.66118,-0.788116 0.60205,-1.268991 z"
           style="letter-spacing:0.14579082px;writing-mode:lr-tb;direction:rtl;fill:#ffffff"
           id="path1658"
           inkscape:connector-curvature="0" />
      </g>
      <path
         inkscape:connector-curvature="0"
         id="path1726"
         d="m 2.6740878,296.94037 c -1.4383369,0.0176 -2.61910883,-1.13465 -2.63668747,-2.57298 -0.01757437,-1.43836 1.13463417,-2.61888 2.57298507,-2.63644 1.4383505,-0.0176 2.6191269,1.13463 2.6366876,2.57298 0.017556,1.43834 -1.1346481,2.61888 -2.5729852,2.63644 z m -5.026e-4,-0.0406 c 1.4163051,-0.0173 2.5499592,-1.17907 2.5326738,-2.59538 -0.017287,-1.41632 -1.1790575,-2.54998 -2.595376,-2.53267 -1.4163187,0.0173 -2.54997847,1.17881 -2.53267329,2.59513 0.01730946,1.4163 1.17907549,2.55023 2.59538049,2.53292 z M 2.665124,296.216 c -1.038237,0.0127 -1.8904308,-0.81909 -1.90311321,-1.85732 -0.0126844,-1.03824 0.81908981,-1.89068 1.85732691,-1.90337 1.0382368,-0.0127 1.89068,0.81909 1.903361,1.85733 0.01269,1.03824 -0.8193379,1.89068 -1.8575747,1.90336 z m -5.026e-4,-0.0408 c 1.0162047,-0.0124 1.8296804,-0.84585 1.8172645,-1.86205 -0.012416,-1.01621 -0.8458507,-1.82943 -1.8620554,-1.81702 -1.0162052,0.0124 -1.8294311,0.84585 -1.81701535,1.86206 0.0124133,1.0162 0.84560115,1.82943 1.86180625,1.81701 z"
         style="color:#000000;font-style:normal;font-variant:normal;font-weight:normal;font-stretch:normal;font-size:medium;line-height:normal;font-family:sans-serif;font-variant-ligatures:normal;font-variant-position:normal;font-variant-caps:normal;font-variant-numeric:normal;font-variant-alternates:normal;font-feature-settings:normal;text-indent:0;text-align:start;text-decoration:none;text-decoration-line:none;text-decoration-style:solid;text-decoration-color:#000000;letter-spacing:normal;word-spacing:normal;text-transform:none;writing-mode:lr-tb;direction:ltr;text-orientation:mixed;dominant-baseline:auto;baseline-shift:baseline;text-anchor:start;white-space:normal;shape-padding:0;clip-rule:nonzero;display:inline;overflow:visible;visibility:visible;opacity:1;isolation:auto;mix-blend-mode:normal;color-interpolation:sRGB;color-interpolation-filters:linearRGB;solid-color:#000000;solid-opacity:1;vector-effect:none;fill:#ffffff;fill-opacity:1;fill-rule:nonzero;stroke:none;stroke-width:0.04076962;stroke-linecap:butt;stroke-linejoin:miter;stroke-miterlimit:4;stroke-dasharray:none;stroke-dashoffset:0;stroke-opacity:1;color-rendering:auto;image-rendering:auto;shape-rendering:auto;text-rendering:auto;enable-background:accumulate" />
    </g>
  </g>
</svg>
