<?xml version="1.0" encoding="UTF-8" standalone="no"?>
<!-- Created with Inkscape (http://www.inkscape.org/) -->

<svg
   xmlns:dc="http://purl.org/dc/elements/1.1/"
   xmlns:cc="http://creativecommons.org/ns#"
   xmlns:rdf="http://www.w3.org/1999/02/22-rdf-syntax-ns#"
   xmlns:svg="http://www.w3.org/2000/svg"
   xmlns="http://www.w3.org/2000/svg"
   xmlns:sodipodi="http://sodipodi.sourceforge.net/DTD/sodipodi-0.dtd"
   xmlns:inkscape="http://www.inkscape.org/namespaces/inkscape"
   width="20"
   height="20"
   viewBox="0 0 5.2916666 5.2916669"
   version="1.1"
   id="svg1137"
   inkscape:version="0.92.3 (2405546, 2018-03-11)"
   sodipodi:docname="dashicon-pawon.svg">
  <defs
     id="defs1131" />
  <sodipodi:namedview
     id="base"
     pagecolor="#ffffff"
     bordercolor="#666666"
     borderopacity="1.0"
     inkscape:pageopacity="0.0"
     inkscape:pageshadow="2"
     inkscape:zoom="15.839192"
     inkscape:cx="-1.353715"
     inkscape:cy="14.971736"
     inkscape:document-units="mm"
     inkscape:current-layer="layer1"
     showgrid="false"
     units="px"
     inkscape:window-width="1289"
     inkscape:window-height="739"
     inkscape:window-x="50"
     inkscape:window-y="78"
     inkscape:window-maximized="0" />
  <metadata
     id="metadata1134">
    <rdf:RDF>
      <cc:Work
         rdf:about="">
        <dc:format>image/svg+xml</dc:format>
        <dc:type
           rdf:resource="http://purl.org/dc/dcmitype/StillImage" />
        <dc:title></dc:title>
      </cc:Work>
    </rdf:RDF>
  </metadata>
  <g
     inkscape:label="Layer 1"
     inkscape:groupmode="layer"
     id="layer1"
     transform="translate(0,-291.70832)">
    <path
       style="opacity:1;fill:#ffffff;fill-opacity:1;stroke:none;stroke-width:0.53909671;stroke-miterlimit:4;stroke-dasharray:none;stroke-opacity:1"
       d="m 0.31846,291.76294 c -0.15506348,0 -0.2800491,0.1248 -0.2800491,0.27986 v 4.63543 c 0,0.15508 0.12498562,0.27988 0.2800491,0.27988 h 4.6354372 c 0.1550635,0 0.2798708,-0.1248 0.2798708,-0.27988 v -4.63543 c 0,-0.15506 -0.1248073,-0.27986 -0.2798708,-0.27986 z m 2.6519047,0.37244 c 0.1493644,-9.3e-4 0.2040025,0.19527 0.094895,0.28398 0.054449,0.0214 0.1077191,0.0464 0.1594674,0.0745 0.3224106,0.17566 0.5768461,0.4683 0.7004795,0.81446 6.577e-4,0.002 8.677e-4,0.003 0.00107,0.006 0.055626,-0.002 0.1099315,0.0361 0.1054201,0.0994 -0.0023,0.0322 -0.021701,0.0612 -0.052978,0.0712 -0.017752,0.006 -0.032788,0.004 -0.046377,-10e-4 -0.00225,3.6e-4 -0.00471,3.3e-4 -0.00766,0 -0.1855853,-0.0408 -0.3702352,-0.0868 -0.5543903,-0.13379 -0.330754,-0.0842 -0.6597807,-0.17563 -0.9865933,-0.27416 -0.3244282,-0.0976 -0.6543739,-0.19338 -0.9680425,-0.32233 -7.307e-4,0 -0.00139,-3.7e-4 -0.00214,-7e-4 -2.467e-4,-1.2e-4 -6.028e-4,-2.6e-4 -8.95e-4,-3.6e-4 -0.00333,-0.001 -0.00537,-0.003 -0.00659,-0.006 -0.00142,-10e-4 -0.00283,-0.002 -0.0041,-0.004 -0.025746,-0.0318 -0.016928,-0.0775 0.015161,-0.10504 0.048793,-0.0419 0.1202267,-0.0172 0.1714187,0.007 0.00258,10e-4 0.00479,0.002 0.00642,0.004 0.1540714,-0.1375 0.3499486,-0.22703 0.5483279,-0.27932 0.2261131,-0.0596 0.4631993,-0.0652 0.6895988,-0.0177 -0.023984,-0.0299 -0.030227,-0.0749 -0.016768,-0.11312 0.022267,-0.0632 0.089324,-0.10115 0.1542946,-0.10145 z m -1.2282919,0.99587 c 0.061169,-0.002 0.1224307,0.009 0.1646403,0.0318 0.00878,-0.009 0.027507,-0.008 0.03086,0.009 0.035926,0.17048 0.071806,0.34095 0.1077385,0.51141 0.019988,0.0949 0.048841,0.26492 -0.085976,0.29271 -0.1278932,0.0262 -0.1915197,-0.17158 -0.2322446,-0.25597 -0.068489,-0.14181 -0.1363062,-0.28677 -0.1805158,-0.43844 -1.643e-4,7e-4 -4.384e-4,0.002 -7.122e-4,0.002 v 1.8e-4 c -0.00318,0.0114 -0.021695,0.007 -0.020157,-0.004 0.012666,-0.10006 0.1144212,-0.14385 0.2163691,-0.14804 z m -0.00249,0.0384 c -0.017815,1e-4 -0.036088,0.002 -0.05494,0.006 v 1.9e-4 c -0.0538,0.0114 -0.1071335,0.0374 -0.1309273,0.0872 0.00201,3.7e-4 0.00391,0.001 0.00499,0.003 0.00117,0.002 0.00231,0.004 0.00338,0.007 0.055685,0.11175 0.1030166,0.22765 0.155365,0.34106 0.00103,-0.0146 0.00788,-0.0289 0.021405,-0.0372 0.00792,-0.004 0.018527,-0.007 0.029075,-0.006 -0.022957,-0.045 -0.025814,-0.10264 0.029432,-0.12646 0.023519,-0.0103 0.050656,-0.007 0.068674,0.0123 0.00428,-0.0116 0.01168,-0.0222 0.021762,-0.031 -0.020243,-0.0353 -9.417e-4,-0.10176 0.046913,-0.087 5.847e-4,0 0.00122,3.7e-4 0.00179,7.2e-4 -0.01056,-0.0502 -0.02103,-0.10027 -0.031573,-0.15037 -0.00204,8.1e-4 -0.00437,10e-4 -0.00679,8.9e-4 -0.055113,-0.008 -0.1051298,-0.021 -0.1585757,-0.0207 z m -0.5492174,0.22617 c 0.038401,0.002 0.072933,0.0331 0.090971,0.0675 0.036718,0.0702 0.05041,0.15732 0.074383,0.23259 0.028212,0.0886 0.058364,0.17654 0.090436,0.26383 0.062866,0.17111 0.1330775,0.33947 0.2101262,0.50462 0.00239,-6.9e-4 0.00523,-10e-4 0.00838,-3.6e-4 0.135647,0.0261 0.2312457,0.1354 0.2918218,0.25293 0.011015,0.0213 0.024565,0.0503 0.035854,0.0811 0.1195224,-0.0424 0.2374302,-0.0904 0.3546101,-0.14003 -4.294e-4,-3.4e-4 -8.22e-4,-7.2e-4 -0.00125,-0.001 -0.00594,-0.004 9.178e-4,-0.0145 0.00697,-0.0103 0.00236,0.002 0.00477,0.003 0.00713,0.006 0.025346,-0.0102 0.050864,-0.0211 0.076167,-0.0319 0.3245922,-0.13972 0.6451672,-0.28852 0.9614423,-0.44629 0.085043,-0.0424 0.1689146,-0.0874 0.2543632,-0.12914 0.061181,-0.0299 0.1253967,-0.0541 0.1921102,-0.0356 0.00559,-0.006 0.016176,-0.006 0.020692,0.004 8.949e-4,0.002 0.00189,0.004 0.00286,0.006 0.024629,-0.069 0.083793,-0.14286 0.1564351,-0.14074 0.093707,0.002 0.1775227,0.10949 0.2108395,0.18747 0.038155,0.0893 0.0289,0.1903 -0.061717,0.24206 -0.047653,0.0273 -0.1204135,0.0323 -0.1767697,0.009 0.026755,0.0688 0.052378,0.13771 0.077237,0.2071 0.054467,0.1517 0.1269528,0.31585 0.1261113,0.47966 -0.00141,0.29101 -0.2262507,0.51678 -0.4618135,0.65373 -0.1500962,0.0872 -0.312029,0.15276 -0.4705538,0.22262 -0.1713929,0.0755 -0.3426806,0.15163 -0.5142557,0.22672 -0.1402197,0.0613 -0.2772304,0.0994 -0.4300628,0.0662 -0.1344272,-0.0291 -0.2577077,-0.10017 -0.3572856,-0.19409 -0.1992728,-0.18823 -0.3062703,-0.44583 -0.4018794,-0.70333 -0.016089,0.0344 -0.039341,0.067 -0.059933,0.0973 -0.025655,0.0378 -0.05484,0.0705 -0.1034575,0.0721 -0.1072908,0.003 -0.166362,-0.1181 -0.1985316,-0.20245 v -1.8e-4 c -0.030453,-0.0796 -0.059634,-0.19008 0.01213,-0.25703 0.066614,-0.0623 0.1589985,-0.0481 0.2356335,-0.0138 -0.00188,-0.004 -0.00388,-0.009 -0.00572,-0.014 -0.00624,-0.0154 0.00891,-0.0262 0.021049,-0.0224 3.378e-4,-1.4e-4 6.027e-4,-2.9e-4 8.951e-4,-3.6e-4 0.086615,-0.0128 0.1717202,-0.0312 0.2556115,-0.0532 -0.012975,-0.015 -0.02593,-0.0304 -0.035854,-0.0435 -0.072363,-0.0956 -0.117637,-0.21017 -0.1189764,-0.33053 -0.1249988,-0.16333 -0.2310477,-0.34766 -0.3299941,-0.52764 -0.073217,-0.13311 -0.1386166,-0.27833 -0.1448408,-0.43255 -0.00206,-0.0515 0.0069,-0.12031 0.059399,-0.1452 0.013176,-0.006 0.026441,-0.008 0.039243,-0.008 z m -0.00269,0.035 c -0.025338,6.2e-4 -0.047907,0.0207 -0.056544,0.0523 -0.018254,0.0669 0.00151,0.1484 0.019621,0.21334 v 1.8e-4 c 0.038126,0.13724 0.1101513,0.26177 0.1819428,0.38369 0.083665,0.14195 0.1765693,0.27887 0.2570388,0.42257 0.00356,0.007 0.00103,0.0121 -0.00356,0.0147 0.016545,0.0911 0.046644,0.18147 0.096322,0.2599 0.019709,0.0311 0.044846,0.0648 0.073133,0.0955 0.01514,-0.004 0.030241,-0.008 0.045308,-0.0128 -0.011209,-0.0115 -0.022082,-0.023 -0.026935,-0.0288 -0.065839,-0.077 -0.1158968,-0.17372 -0.1293221,-0.27488 -0.00105,-0.008 0.011433,-0.0103 0.013557,-0.002 0.020281,0.069 0.043754,0.13494 0.08241,0.19603 0.020682,0.0327 0.044592,0.0634 0.071173,0.0915 0.0039,0.004 0.0081,0.008 0.01213,0.0119 0.046353,-0.0138 0.092297,-0.0286 0.1380625,-0.0444 -0.014101,-0.0371 -0.031877,-0.0732 -0.051372,-0.10721 -0.058871,-0.1023 -0.1378632,-0.16937 -0.2490118,-0.20763 -0.00607,0.0102 -0.021023,0.0138 -0.027114,7.2e-4 -0.074889,-0.15973 -0.1436792,-0.32222 -0.2054883,-0.48751 -0.05459,-0.14606 -0.1037935,-0.2939 -0.1478734,-0.44343 -0.011027,-0.0375 -0.019172,-0.0831 -0.047269,-0.112 -0.014902,-0.0154 -0.030996,-0.022 -0.0462,-0.0216 z m 0.7275924,0.32447 c -0.037072,0.003 -0.073663,0.0158 -0.1089871,0.0366 -8.127e-4,3.4e-4 -0.0017,3e-4 -0.00249,5.3e-4 0.00327,0.007 0.00637,0.0128 0.00963,0.0193 0.025545,0.0502 0.063582,0.13699 0.1332464,0.12934 v 1.8e-4 c 0.076746,-0.008 0.086605,-0.10176 0.08009,-0.16304 -0.036819,-0.0187 -0.074414,-0.0258 -0.1114842,-0.0227 z m 0.049411,0.0847 c 0.00279,8.1e-4 0.00508,0.003 0.00572,0.007 1.735e-4,0 2.831e-4,4.3e-4 3.561e-4,7.2e-4 0.00852,0.004 0.00975,0.0184 0,0.0221 -0.00583,0.002 -0.012419,0.002 -0.016768,-0.003 -6.028e-4,-10e-4 -9.982e-4,-0.002 -0.00125,-0.002 l -1.827e-4,-1.9e-4 c -9.13e-5,-2e-4 -7.82e-5,-3.4e-4 -1.826e-4,-3.4e-4 v 3.4e-4 c -0.00123,-10e-4 -0.00206,-0.003 -0.00249,-0.006 -0.00133,-0.006 7.215e-4,-0.0129 0.00606,-0.0167 0.00264,-0.002 0.00596,-0.002 0.00873,-0.001 z m -0.059933,0.0165 c 2.741e-4,1.4e-4 3.562e-4,2.6e-4 5.389e-4,3.7e-4 2.922e-4,1e-5 6.758e-4,4e-5 0.00125,1.9e-4 0.00202,3.4e-4 0.00351,10e-4 0.00517,0.002 v 1.8e-4 c 0.00304,0.002 0.00519,0.004 0.00679,0.008 0.0024,0.004 9.963e-4,0.0114 -0.00321,0.0147 -0.00449,0.003 -0.010322,0.003 -0.015161,7.1e-4 -0.00298,-0.002 -0.00526,-0.004 -0.00697,-0.007 -0.00106,-10e-4 -0.00173,-0.002 -0.00196,-0.004 -3.71e-5,-6.9e-4 -1.553e-4,-0.001 -1.828e-4,-0.002 -1.916e-4,0 -3.836e-4,-2e-4 -7.123e-4,-9e-4 -0.00511,-0.009 0.00668,-0.0174 0.014448,-0.0123 z m 0.029612,0.0195 c 0.00264,-3.8e-4 0.00533,2.2e-4 0.00786,10e-4 0.00409,0.002 0.00833,0.004 0.012664,0.007 0.00993,-7e-5 0.016366,0.0124 0.010527,0.0207 -0.00586,0.008 -0.017792,0.007 -0.022297,-0.001 -0.00174,-10e-4 -0.00396,-0.002 -0.00572,-0.003 -0.00249,-10e-4 -0.00484,-0.003 -0.00731,-0.004 -0.0047,-0.003 -0.006,-0.0102 -0.00269,-0.0147 0.00177,-0.002 0.00431,-0.004 0.00697,-0.004 z m 2.0809255,0.0412 c -0.061025,0.004 -0.1066437,0.0794 -0.1336032,0.13288 0.00668,0.0142 0.013122,0.0285 0.019621,0.0426 l 1.827e-4,1.8e-4 c 0.018717,-0.0321 0.036568,-0.0651 0.056901,-0.0963 0.011689,-0.0178 0.026459,-0.034 0.049946,-0.0302 0.044892,0.007 0.077003,0.0635 0.083837,0.10402 0.013738,0.082 -0.066149,0.15869 -0.1418082,0.13448 0.00785,0.0188 0.01552,0.0378 0.023189,0.0564 0.055894,0.0245 0.1046628,0.053 0.1701701,0.0227 0.087125,-0.0401 0.089807,-0.13222 0.054226,-0.21013 -0.027994,-0.0612 -0.087588,-0.13604 -0.1557217,-0.1543 -0.00934,-0.002 -0.018217,-0.003 -0.026935,-0.002 z m -0.013199,0.0859 c -0.00388,5.4e-4 -0.00771,0.002 -0.011595,0.006 -0.013113,0.0114 -0.023595,0.039 -0.032464,0.0538 -0.011414,0.0192 -0.022836,0.0381 -0.034248,0.0571 -0.00214,0.003 -0.00476,0.006 -0.00749,0.007 0.00727,0.0163 0.014356,0.0325 0.021406,0.0491 0.06364,0.02 0.1328972,-0.0299 0.1205816,-0.10037 -0.00367,-0.0208 -0.029117,-0.0755 -0.056188,-0.0718 z m -1.9407226,0.0628 c 0.01567,0.008 0.030267,0.0186 0.045128,0.0284 0.013599,0.009 0.02882,0.0167 0.040134,0.0282 0.00664,0.007 -0.00198,0.0188 -0.010527,0.0148 v 1.8e-4 c -0.014848,-0.007 -0.027441,-0.0183 -0.040491,-0.0278 -0.014316,-0.0103 -0.029003,-0.0208 -0.042454,-0.0324 -0.0069,-0.006 1.919e-4,-0.0159 0.0082,-0.0116 z m -0.145019,0.0181 c 0.0049,-0.002 0.011719,0.002 0.01,0.009 -0.00315,0.0123 -0.00418,0.0246 -0.00249,0.0373 0.0013,0.0103 0.00556,0.0195 0.00571,0.0296 6.88e-5,0.008 -0.010196,0.0103 -0.014447,0.004 -0.016102,-0.0196 -0.010333,-0.0549 -0.00269,-0.0766 7.946e-4,-0.002 0.00229,-0.003 0.00392,-0.004 z m 0.1086303,0.0458 c 0.00196,5.7e-4 0.0037,0.002 0.00483,0.004 0.00931,0.0204 0.019413,0.0405 0.025507,0.0621 0.00281,0.009 -0.011359,0.0129 -0.015696,0.006 -0.010697,-0.0191 -0.017489,-0.0398 -0.025152,-0.0602 -0.00295,-0.008 0.00465,-0.0136 0.010525,-0.0119 z m 0.1999587,0.1361 c 0.00186,4.6e-4 0.00361,10e-4 0.00483,0.003 0.020755,0.0374 0.051827,0.0531 0.088831,0.0707 0.00664,0.003 0.00517,0.0133 -0.00269,0.0129 -0.043486,-0.002 -0.081032,-0.0404 -0.099892,-0.077 -0.0034,-0.007 0.00333,-0.0117 0.00893,-0.0103 z m -0.2383093,3.5e-4 c 0.00334,-5.7e-4 0.00722,0.001 0.00838,0.006 0.00619,0.0227 0.01183,0.0454 0.016233,0.0688 0.0017,0.009 -0.011232,0.0102 -0.013557,0.002 -0.0064,-0.0227 -0.01152,-0.0455 -0.016231,-0.0688 -9.043e-4,-0.004 0.00183,-0.007 0.00517,-0.008 z m -0.05048,0.082 c 0.00329,3.3e-4 0.00654,0.002 0.00679,0.007 0.00124,0.0286 -0.00634,0.0714 -0.027827,0.0921 v 1.8e-4 c -0.00689,0.007 -0.017456,-0.002 -0.014627,-0.0103 0.0046,-0.0133 0.013901,-0.0243 0.018907,-0.0379 0.00548,-0.0145 0.00766,-0.0295 0.00963,-0.0449 5.205e-4,-0.004 0.00385,-0.007 0.00713,-0.006 z m 0.209591,5.3e-4 c 0.00262,-10e-4 0.00607,-6.9e-4 0.00804,0.002 0.012597,0.022 0.029437,0.0469 0.034961,0.0719 0.00142,0.007 -0.00735,0.0102 -0.011416,0.006 -0.016061,-0.02 -0.025084,-0.0487 -0.034426,-0.0722 -0.00144,-0.003 2.466e-4,-0.007 0.00286,-0.008 z m -0.1048848,0.1056 c 0.00541,-0.002 0.012326,0.002 0.00963,0.009 -0.011073,0.0281 -0.011118,0.0552 -0.015875,0.0844 v 1.8e-4 c -0.00136,0.008 -0.013057,0.009 -0.014985,7.2e-4 -0.00678,-0.0299 0.00412,-0.0636 0.016768,-0.0905 0.00103,-0.002 0.00266,-0.003 0.00445,-0.004 z m 0.2748762,0.0119 c 0.00192,3e-5 0.00387,8.1e-4 0.00552,0.002 0.012221,0.0135 0.024112,0.0275 0.036747,0.0407 0.00842,0.009 -0.00708,0.0221 -0.014447,0.0123 -0.01096,-0.0147 -0.022695,-0.0288 -0.03407,-0.0429 -0.0047,-0.006 5.114e-4,-0.0127 0.00624,-0.0126 z m 0.1546514,0.004 c 0.00187,-7e-5 0.00369,5.8e-4 0.00535,0.002 0.018424,0.0174 0.037186,0.0342 0.054226,0.0532 0.00544,0.006 -0.00353,0.0159 -0.0098,0.0103 -0.019536,-0.017 -0.037341,-0.0356 -0.055475,-0.0542 -0.00499,-0.004 8.45e-5,-0.0114 0.00572,-0.0116 z m -0.2511523,0.10435 c 0.00369,3.2e-4 0.00717,0.003 0.00697,0.008 -5.845e-4,0.0166 3.837e-4,0.0342 -0.00463,0.0502 -0.00212,0.007 -0.013126,0.006 -0.014092,-8.9e-4 -0.00223,-0.0165 0.0017,-0.034 0.00376,-0.0505 v -1.8e-4 c 5.937e-4,-0.004 0.00435,-0.007 0.00804,-0.007 z m -0.1139818,0.0688 c 0.00361,-1.6e-4 0.00745,0.002 0.00804,0.006 0.00285,0.0209 -0.00854,0.0392 -0.028539,0.0454 v -1.8e-4 c -0.00838,0.002 -0.011015,-0.0103 -0.00445,-0.0135 0.011051,-0.007 0.017864,-0.0185 0.017837,-0.031 -3.29e-5,-0.004 0.0035,-0.007 0.00713,-0.007 z m -0.7809269,0.33338 c -0.027921,10e-4 -0.054865,0.009 -0.078843,0.0278 -0.069058,0.0534 -0.037404,0.15752 -0.011595,0.22511 0.0255,0.0665 0.072235,0.17701 0.1567919,0.18122 0.080146,0.004 0.1152592,-0.1147 0.1585755,-0.17427 -0.00681,-0.0183 -0.013471,-0.0367 -0.020156,-0.0547 -0.029,0.0453 -0.073927,0.0987 -0.125933,0.0968 -0.058045,-0.002 -0.07747,-0.0757 -0.09543,-0.11878 -0.017736,-0.0425 -0.063758,-0.11563 -0.00142,-0.14344 0.049041,-0.0217 0.1223094,0.006 0.1719538,0.0291 -0.00494,-0.0127 -0.00989,-0.0256 -0.014985,-0.0386 -0.043124,-0.016 -0.092418,-0.0322 -0.1389544,-0.0302 z m 0.011415,0.0691 c -0.017084,7.4e-4 -0.025664,0.008 -0.021227,0.04 0.00266,0.0194 0.017804,0.0427 0.025329,0.0609 0.012521,0.0304 0.030674,0.10754 0.080269,0.0949 0.038755,-0.0103 0.074992,-0.0562 0.09775,-0.0898 -0.00795,-0.0216 -0.016084,-0.0434 -0.02408,-0.0649 v -3.5e-4 c -0.00339,10e-4 -0.00736,10e-4 -0.011595,-5.3e-4 -0.039286,-0.0185 -0.082823,-0.0366 -0.1266465,-0.0395 -0.00744,-4.1e-4 -0.014105,-9.5e-4 -0.0198,-6.9e-4 z m 0.3621019,1.40845 h 1.9776462 v 0.15858 H 1.6978282 Z"
       id="rect3103"
       inkscape:connector-curvature="0" />
  </g>
</svg>
