<?xml version="1.0" encoding="UTF-8" standalone="no"?>
<!-- Created with Inkscape (http://www.inkscape.org/) -->

<svg
   xmlns:dc="http://purl.org/dc/elements/1.1/"
   xmlns:cc="http://creativecommons.org/ns#"
   xmlns:rdf="http://www.w3.org/1999/02/22-rdf-syntax-ns#"
   xmlns:svg="http://www.w3.org/2000/svg"
   xmlns="http://www.w3.org/2000/svg"
   xmlns:sodipodi="http://sodipodi.sourceforge.net/DTD/sodipodi-0.dtd"
   xmlns:inkscape="http://www.inkscape.org/namespaces/inkscape"
   width="20"
   height="20"
   viewBox="0 0 5.2916665 5.2916665"
   version="1.1"
   id="svg8"
   inkscape:version="0.92.3 (2405546, 2018-03-11)"
   sodipodi:docname="dashicon-bpbd.svg">
  <defs
     id="defs2" />
  <sodipodi:namedview
     id="base"
     pagecolor="#ffffff"
     bordercolor="#666666"
     borderopacity="1.0"
     inkscape:pageopacity="0.0"
     inkscape:pageshadow="2"
     inkscape:zoom="22.4"
     inkscape:cx="-1.052324"
     inkscape:cy="12.306591"
     inkscape:document-units="mm"
     inkscape:current-layer="layer1"
     showgrid="false"
     units="px"
     inkscape:window-width="1920"
     inkscape:window-height="1021"
     inkscape:window-x="0"
     inkscape:window-y="28"
     inkscape:window-maximized="1" />
  <metadata
     id="metadata5">
    <rdf:RDF>
      <cc:Work
         rdf:about="">
        <dc:format>image/svg+xml</dc:format>
        <dc:type
           rdf:resource="http://purl.org/dc/dcmitype/StillImage" />
        <dc:title></dc:title>
      </cc:Work>
    </rdf:RDF>
  </metadata>
  <g
     inkscape:label="Layer 1"
     inkscape:groupmode="layer"
     id="layer1"
     transform="translate(0,-291.70836)">
    <g
       id="g992">
      <path
         transform="matrix(0.26458333,0,0,0.26458333,0,291.70836)"
         id="path1544"
         d="M 4.1542969 13.943359 C 4.1145808 13.9646 1.876213 15.320566 1.8671875 15.328125 C 1.8498842 15.343923 2.1129825 15.714023 2.3730469 16.039062 C 2.6056608 16.329935 2.8015426 16.546679 3.0996094 16.84375 C 3.5803642 17.323183 4.0476831 17.705966 4.5996094 18.070312 C 6.1398613 19.087535 7.8609085 19.629422 9.7460938 19.691406 L 9.7460938 19.693359 C 9.9101589 19.697139 10.360341 19.688946 10.585938 19.673828 C 11.484171 19.620499 12.400892 19.431393 13.273438 19.121094 C 15.129268 18.461188 16.77309 17.223349 17.917969 15.621094 C 17.996337 15.511487 18.059015 15.419481 18.056641 15.417969 C 18.054498 15.416344 17.53871 15.104263 16.910156 14.724609 C 16.281603 14.345069 15.760898 14.027217 15.753906 14.023438 C 15.745678 14.017012 15.701931 14.066551 15.628906 14.164062 C 14.500399 15.67062 12.808325 16.665938 10.941406 16.919922 C 10.567229 16.972079 10.414222 16.981111 9.9765625 16.980469 C 9.4346973 16.979713 9.1012268 16.947499 8.609375 16.849609 C 6.8725373 16.503594 5.3137917 15.507191 4.2851562 14.085938 C 4.1914693 13.955922 4.1721362 13.932021 4.1542969 13.943359 z M 3.9257812 15.216797 L 4.1171875 15.414062 L 3.875 15.648438 L 4.3164062 15.623047 L 4.5722656 15.884766 L 4.1054688 15.884766 L 3.9433594 16.513672 L 3.7089844 16.271484 L 3.8398438 15.882812 L 3.6347656 15.882812 L 3.4785156 16.035156 L 3.2871094 15.837891 L 3.9257812 15.216797 z M 16.175781 15.224609 C 16.223192 15.232168 16.267311 15.254922 16.308594 15.292969 C 16.344567 15.326733 16.368999 15.362533 16.380859 15.402344 C 16.392425 15.442155 16.393736 15.483564 16.384766 15.525391 C 16.379046 15.552099 16.364908 15.582857 16.34375 15.619141 C 16.374115 15.601503 16.397818 15.592363 16.416016 15.589844 C 16.428236 15.58745 16.450069 15.587374 16.480469 15.589844 C 16.511141 15.592011 16.533014 15.594784 16.546875 15.597656 L 16.826172 15.675781 L 16.613281 15.902344 L 16.314453 15.824219 C 16.276078 15.81414 16.248094 15.80998 16.230469 15.8125 C 16.206884 15.817539 16.187063 15.828065 16.169922 15.845703 L 16.154297 15.865234 L 16.416016 16.113281 L 16.228516 16.316406 L 15.580078 15.707031 L 15.892578 15.373047 C 15.950664 15.311063 16.001653 15.268771 16.042969 15.246094 C 16.084287 15.223417 16.128076 15.21705 16.175781 15.224609 z M 16.068359 15.480469 C 16.0447 15.482988 16.016712 15.502276 15.982422 15.539062 L 15.900391 15.628906 L 16.03125 15.751953 L 16.111328 15.667969 C 16.11992 15.65789 16.13364 15.638162 16.152344 15.607422 C 16.162145 15.592304 16.165284 15.573836 16.162109 15.554688 C 16.159237 15.53705 16.150879 15.522175 16.136719 15.507812 C 16.11578 15.487656 16.092009 15.477949 16.068359 15.480469 z M 15.263672 15.986328 L 16.091797 16.453125 L 15.871094 16.638672 L 15.744141 16.552734 L 15.503906 16.753906 L 15.564453 16.894531 L 15.349609 17.076172 L 15.035156 16.179688 L 15.263672 15.986328 z M 4.8398438 16.099609 L 5.0742188 16.287109 L 4.7773438 17.189453 L 4.5527344 17.007812 L 4.6113281 16.867188 L 4.3671875 16.671875 L 4.2421875 16.757812 L 4.0234375 16.582031 L 4.8398438 16.099609 z M 15.294922 16.261719 L 15.425781 16.570312 L 15.576172 16.443359 L 15.294922 16.261719 z M 14.814453 16.365234 L 14.935547 16.548828 L 14.703125 16.703125 L 15.074219 17.261719 L 14.845703 17.414062 L 14.474609 16.855469 L 14.240234 17.011719 L 14.119141 16.830078 L 14.814453 16.365234 z M 4.8105469 16.371094 L 4.5332031 16.558594 L 4.6875 16.681641 L 4.8105469 16.371094 z M 5.4082031 16.541016 L 5.84375 16.814453 C 5.9163673 16.860059 5.9604063 16.912436 5.9765625 16.972656 C 5.9930664 17.033129 5.9844569 17.089413 5.9511719 17.142578 C 5.9232538 17.187177 5.8856084 17.21806 5.8378906 17.232422 C 5.8060796 17.242501 5.7699187 17.240951 5.7265625 17.230469 C 5.7725216 17.277335 5.7973599 17.325173 5.8027344 17.373047 C 5.8086556 17.420669 5.7956848 17.467751 5.765625 17.515625 C 5.7411337 17.55468 5.7115176 17.585815 5.6738281 17.605469 C 5.6361311 17.625626 5.5956295 17.633379 5.5527344 17.630859 C 5.526124 17.629952 5.4918316 17.620813 5.4492188 17.601562 C 5.3925158 17.575611 5.3550169 17.555757 5.3378906 17.544922 L 4.9355469 17.292969 L 5.4082031 16.541016 z M 5.546875 16.841797 L 5.4570312 16.984375 L 5.5585938 17.046875 C 5.5949023 17.069552 5.6247093 17.080645 5.6464844 17.078125 C 5.6688088 17.075605 5.686346 17.061802 5.7011719 17.037109 C 5.7149042 17.014432 5.7195426 16.991365 5.7128906 16.970703 C 5.7065662 16.950546 5.6856587 16.929431 5.6503906 16.90625 L 5.546875 16.841797 z M 13.976562 16.904297 L 14.40625 17.683594 L 14.164062 17.816406 L 13.734375 17.037109 L 13.976562 16.904297 z M 6.1992188 17.025391 L 6.4472656 17.142578 L 6.2167969 17.634766 C 6.196211 17.678608 6.1925553 17.717623 6.2050781 17.753906 C 6.2181301 17.789938 6.2458726 17.817733 6.2890625 17.837891 C 6.3318997 17.858048 6.3707703 17.862208 6.40625 17.849609 C 6.4422689 17.837011 6.4712666 17.808774 6.4921875 17.763672 L 6.7226562 17.273438 L 6.9707031 17.388672 L 6.7460938 17.869141 C 6.7237945 17.916763 6.6950514 17.958865 6.6601562 17.994141 C 6.6257904 18.029416 6.5838798 18.055384 6.5371094 18.072266 C 6.4908757 18.089903 6.4489867 18.094883 6.4082031 18.089844 C 6.3514724 18.084804 6.2884348 18.066652 6.2207031 18.035156 C 6.1815271 18.017518 6.1396263 17.994765 6.0957031 17.966797 C 6.0521453 17.939584 6.0196703 17.911348 5.9960938 17.880859 C 5.9726859 17.849867 5.9533344 17.813815 5.9414062 17.771484 C 5.929841 17.729406 5.9282016 17.688627 5.9335938 17.652344 C 5.9422362 17.593887 5.9561023 17.545418 5.9746094 17.505859 L 6.1992188 17.025391 z M 5.3671875 17.125 L 5.2714844 17.279297 L 5.390625 17.353516 C 5.4307006 17.378712 5.4630341 17.389805 5.4882812 17.384766 C 5.5137427 17.379726 5.5337957 17.364726 5.5488281 17.341797 C 5.5627872 17.31912 5.5666566 17.296618 5.5585938 17.273438 C 5.5510851 17.25076 5.5270891 17.225927 5.4863281 17.199219 L 5.3671875 17.125 z M 13.201172 17.292969 L 13.474609 17.90625 L 13.865234 17.730469 L 13.955078 17.931641 L 13.3125 18.216797 L 12.951172 17.404297 L 13.201172 17.292969 z M 7.1425781 17.451172 L 7.5742188 17.595703 C 7.6685179 17.627199 7.731939 17.673651 7.7636719 17.734375 C 7.7957878 17.795099 7.7972881 17.866573 7.7695312 17.949219 C 7.741006 18.034384 7.6943799 18.092307 7.6269531 18.123047 C 7.5599093 18.153787 7.4741712 18.151014 7.3691406 18.115234 L 7.2265625 18.066406 L 7.1210938 18.380859 L 6.859375 18.292969 L 7.1425781 17.451172 z M 12.523438 17.554688 C 12.605175 17.528987 12.674129 17.52808 12.730469 17.554688 C 12.787192 17.581395 12.824898 17.62583 12.84375 17.685547 C 12.859574 17.735689 12.857821 17.782519 12.837891 17.828125 C 12.824612 17.858613 12.801347 17.887607 12.765625 17.914062 C 12.831167 17.909024 12.883987 17.921502 12.923828 17.949219 C 12.963934 17.975675 12.990788 18.014438 13.007812 18.068359 C 13.021671 18.112202 13.024973 18.155691 13.015625 18.197266 C 13.006252 18.23884 12.986053 18.275145 12.957031 18.306641 C 12.939066 18.326798 12.909701 18.346085 12.867188 18.365234 C 12.810628 18.391439 12.773184 18.407764 12.753906 18.414062 L 12.300781 18.556641 L 12.033203 17.708984 L 12.523438 17.554688 z M 7.3457031 17.710938 L 7.2832031 17.896484 L 7.3476562 17.919922 C 7.3978736 17.93756 7.4348411 17.941719 7.4609375 17.931641 C 7.4871649 17.921562 7.5045506 17.902969 7.5136719 17.875 C 7.5225412 17.848543 7.5212302 17.823269 7.5097656 17.798828 C 7.4983011 17.773631 7.4686047 17.751698 7.4199219 17.736328 L 7.3457031 17.710938 z M 8.1445312 17.75 L 8.4355469 17.814453 L 8.5703125 18.755859 L 8.2890625 18.693359 L 8.2792969 18.541016 L 7.9726562 18.472656 L 7.9003906 18.607422 L 7.625 18.546875 L 8.1445312 17.75 z M 12.556641 17.753906 C 12.536458 17.743828 12.506512 17.745215 12.466797 17.757812 L 12.351562 17.794922 L 12.402344 17.957031 L 12.517578 17.919922 C 12.558447 17.907323 12.584274 17.892196 12.595703 17.873047 C 12.607394 17.852889 12.608 17.828687 12.599609 17.802734 C 12.591824 17.777538 12.577211 17.762221 12.556641 17.753906 z M 11.40625 17.851562 L 11.515625 18.734375 L 11.259766 18.763672 L 10.869141 18.320312 L 10.929688 18.804688 L 10.671875 18.833984 L 10.5625 17.953125 L 10.818359 17.921875 L 11.210938 18.369141 L 11.150391 17.880859 L 11.40625 17.851562 z M 8.7070312 17.873047 L 9.5390625 17.960938 L 9.515625 18.177734 L 9.2363281 18.148438 L 9.1660156 18.814453 L 8.8925781 18.783203 L 8.9628906 18.117188 L 8.6835938 18.087891 L 8.7070312 17.873047 z M 10.402344 17.960938 L 10.404297 18.150391 L 9.9433594 18.152344 L 9.9433594 18.292969 L 10.371094 18.291016 L 10.371094 18.472656 L 9.9433594 18.474609 L 9.9453125 18.650391 L 10.419922 18.648438 L 10.419922 18.849609 L 9.6699219 18.853516 L 9.6660156 17.962891 L 10.402344 17.960938 z M 8.2363281 18.007812 L 8.0722656 18.298828 L 8.2636719 18.339844 L 8.2363281 18.007812 z M 12.689453 18.070312 C 12.666474 18.060235 12.631825 18.063007 12.585938 18.078125 L 12.453125 18.119141 L 12.507812 18.291016 L 12.640625 18.248047 C 12.685735 18.232929 12.714995 18.215974 12.728516 18.195312 C 12.74192 18.172636 12.744845 18.14755 12.736328 18.121094 C 12.728416 18.095897 12.712697 18.079383 12.689453 18.070312 z "
         style="opacity:1;fill:#ffffff;fill-opacity:1;stroke:none;stroke-width:0.1587126;stroke-miterlimit:4;stroke-dasharray:none;stroke-opacity:1" />
      <g
         style="fill:#ffffff;fill-opacity:1"
         id="g1562"
         transform="matrix(0.087632,0,0,0.087632,6.0289851,291.15184)">
        <path
           d="m -38.553726,18.260874 -7.461134,12.644 -7.461135,12.643999 h 29.844651 l -7.46129,-12.643999 -7.461092,-12.644"
           style="fill:#ffffff;fill-opacity:1;fill-rule:evenodd;stroke:none;stroke-width:0.87671852"
           id="path1550"
           inkscape:connector-curvature="0" />
        <g
           style="fill:#ffffff;fill-opacity:1"
           id="g1560"
           transform="matrix(1.2442198,0,0,1.2442198,9.4357968,-10.986227)">
          <path
             inkscape:connector-curvature="0"
             id="path1552"
             style="fill:#ffffff;fill-opacity:1;fill-rule:nonzero;stroke:none;stroke-width:1.07247162"
             d="m -48.592388,45.300542 h 2.509991 c 0.418292,0 0.739641,0.104025 0.962703,0.310878 0.224166,0.20718 0.33627,0.463865 0.33627,0.768951 0,0.256299 -0.07977,0.476596 -0.239324,0.660396 -0.107042,0.12238 -0.262474,0.219332 -0.467601,0.289964 0.311064,0.07475 0.540297,0.20422 0.68789,0.385972 0.146253,0.182739 0.22005,0.41197 0.22005,0.687508 0,0.225498 -0.0525,0.427467 -0.156537,0.607534 -0.105212,0.179543 -0.247359,0.320969 -0.429148,0.425997 -0.112103,0.06456 -0.281939,0.112058 -0.509116,0.141427 -0.302072,0.03935 -0.50218,0.05962 -0.601179,0.05962 h -2.313999 v -4.338213 z m 1.352443,1.701959 h 0.582673 c 0.20924,0 0.354586,-0.03668 0.437565,-0.108172 0.08182,-0.07271 0.122341,-0.176721 0.122341,-0.311831 0,-0.126648 -0.0405,-0.225455 -0.122341,-0.296474 -0.08298,-0.07132 -0.225311,-0.106817 -0.428574,-0.106817 h -0.591664 v 0.823337 z m 0,1.703826 h 0.683777 c 0.231434,0 0.394188,-0.04033 0.487976,-0.122194 0.09509,-0.08162 0.142333,-0.192067 0.142333,-0.330096 0,-0.128181 -0.0463,-0.231482 -0.140276,-0.309202 -0.09398,-0.07776 -0.257643,-0.11713 -0.492663,-0.11713 h -0.681147 v 0.878623" />
          <path
             inkscape:connector-curvature="0"
             id="path1554"
             style="fill:#ffffff;fill-opacity:1;fill-rule:nonzero;stroke:none;stroke-width:1.07247162"
             d="m -43.101643,45.300542 h 2.228436 c 0.484818,0 0.848541,0.115257 1.090113,0.346548 0.24119,0.230141 0.36243,0.559337 0.36243,0.984755 0,0.438287 -0.131332,0.780726 -0.395144,1.027127 -0.263381,0.246636 -0.66546,0.369745 -1.205758,0.369745 h -0.733422 v 1.610038 h -1.346655 z m 1.346655,1.849359 h 0.328234 c 0.258552,0 0.439385,-0.0445 0.544605,-0.134531 0.104014,-0.08988 0.156535,-0.204563 0.156535,-0.344305 0,-0.136408 -0.04558,-0.252385 -0.136545,-0.346559 -0.08966,-0.09469 -0.260273,-0.142188 -0.511171,-0.142188 h -0.381658 v 0.967583" />
          <path
             inkscape:connector-curvature="0"
             id="path1556"
             style="fill:#ffffff;fill-opacity:1;fill-rule:nonzero;stroke:none;stroke-width:1.07247162"
             d="m -37.988995,45.300542 h 2.510374 c 0.418101,0 0.739258,0.104025 0.962513,0.310878 0.224354,0.20718 0.336077,0.463865 0.336077,0.768951 0,0.256299 -0.07957,0.476596 -0.239133,0.660396 -0.107042,0.12238 -0.262856,0.219332 -0.467792,0.289964 0.311064,0.07475 0.540633,0.20422 0.688035,0.385972 0.146491,0.182739 0.220097,0.41197 0.220097,0.687508 0,0.225498 -0.05233,0.427467 -0.156537,0.607534 -0.105031,0.179543 -0.247359,0.320969 -0.429148,0.425997 -0.112104,0.06456 -0.281939,0.112058 -0.509116,0.141427 -0.302072,0.03935 -0.501988,0.05962 -0.600989,0.05962 h -2.314381 v -4.338213 z m 1.352778,1.701959 h 0.58272 c 0.20905,0 0.354587,-0.03668 0.437519,-0.108172 0.08169,-0.07271 0.12201,-0.176721 0.12201,-0.311831 0,-0.126648 -0.04032,-0.225455 -0.12201,-0.296474 -0.08294,-0.07132 -0.225455,-0.106817 -0.428384,-0.106817 h -0.591855 v 0.823337 z m 0,1.703826 h 0.683777 c 0.231291,0 0.394045,-0.04033 0.487642,-0.122194 0.09527,-0.08162 0.142714,-0.192067 0.142714,-0.330096 0,-0.128181 -0.04654,-0.231482 -0.140466,-0.309202 -0.09398,-0.07776 -0.257452,-0.11713 -0.493046,-0.11713 h -0.680621 v 0.878623" />
          <path
             inkscape:connector-curvature="0"
             id="path1558"
             style="fill:#ffffff;fill-opacity:1;fill-rule:nonzero;stroke:none;stroke-width:1.07247162"
             d="m -32.672228,45.300542 h 1.991503 c 0.39218,0 0.709271,0.05341 0.951751,0.159552 0.241525,0.107042 0.440962,0.259452 0.598789,0.458277 0.157351,0.20006 0.271657,0.431532 0.343397,0.69626 0.07077,0.264579 0.106183,0.544215 0.106183,0.840164 0,0.463876 -0.05213,0.823487 -0.158784,1.078692 -0.104737,0.255773 -0.251568,0.469892 -0.43905,0.641735 -0.187001,0.172839 -0.387873,0.287916 -0.603094,0.345261 -0.294134,0.07883 -0.560527,0.118266 -0.799183,0.118266 h -1.991504 z m 1.340104,0.982695 v 2.369669 h 0.328569 c 0.280265,0 0.479702,-0.03024 0.597834,-0.09287 0.118133,-0.06188 0.210916,-0.170748 0.278351,-0.325463 0.06696,-0.154297 0.100432,-0.405952 0.100432,-0.753272 0,-0.459565 -0.07509,-0.773787 -0.224307,-0.943625 -0.150654,-0.169633 -0.399352,-0.254432 -0.746574,-0.254432 h -0.334309" />
        </g>
      </g>
      <g
         aria-label="BADAN PENANGGULANGAN BENCANA DAERAH"
         style="font-style:normal;font-variant:normal;font-weight:900;font-stretch:normal;font-size:6.3499999px;line-height:1.25;font-family:Arial;-inkscape-font-specification:'Arial Heavy';text-align:center;letter-spacing:0px;word-spacing:0px;writing-mode:lr-tb;direction:rtl;text-anchor:middle;fill:#ffffff;fill-opacity:1;stroke:none;stroke-width:0.26458332"
         id="g1660"
         transform="matrix(0.05174904,0,0,0.05174904,-2.7856062,290.43811)">
        <path
           d="M 64.777252,97.046994 63.62297,94.684615 q -0.288571,-0.590594 -0.149873,-1.048317 0.137337,-0.460508 0.569139,-0.671491 0.362158,-0.176954 0.731495,-0.07789 0.246225,0.06604 0.488078,0.306765 -0.109206,-0.491886 0.04915,-0.824627 0.154207,-0.334165 0.544223,-0.524731 0.317584,-0.155174 0.643236,-0.131393 0.325653,0.02378 0.59853,0.207934 0.16952,0.113873 0.367843,0.413825 0.263978,0.399007 0.332037,0.538299 l 1.064444,2.178514 z m 0.979789,-2.055801 -0.268153,-0.548808 q -0.144285,-0.295297 -0.300384,-0.360513 -0.160245,-0.06664 -0.352467,0.02728 -0.178292,0.08711 -0.221412,0.253122 -0.04448,0.163222 0.09572,0.450162 l 0.272237,0.557164 z m 1.604634,-0.784041 -0.314433,-0.643526 q -0.159258,-0.325941 -0.338814,-0.403852 -0.182341,-0.07655 -0.377349,0.01873 -0.181078,0.08848 -0.224389,0.275282 -0.04746,0.185381 0.114524,0.516894 l 0.313072,0.64074 z"
           style="letter-spacing:0.14579082px;writing-mode:lr-tb;direction:rtl;fill:#ffffff"
           id="path1596"
           inkscape:connector-curvature="0" />
        <path
           d="m 65.116936,88.158005 0.520284,1.512941 0.781148,-0.03583 0.466844,1.357543 -4.853971,-0.137392 -0.498101,-1.448437 3.742821,-3.093734 0.477935,1.389795 z m -0.833673,0.598177 -1.381849,1.006369 1.707531,-0.05931 z"
           style="letter-spacing:0.14579082px;writing-mode:lr-tb;direction:rtl;fill:#ffffff"
           id="path1598"
           inkscape:connector-curvature="0" />
        <path
           d="m 60.703102,86.65596 -0.434591,-2.040937 q -0.128505,-0.603487 -0.04353,-1.008334 0.08433,-0.40788 0.338964,-0.715708 0.254633,-0.307829 0.637753,-0.503533 0.383121,-0.195704 0.838011,-0.292567 0.71266,-0.151752 1.141768,-0.07194 0.425429,0.07743 0.753644,0.308696 0.325182,0.231916 0.483515,0.543742 0.21752,0.426027 0.295656,0.792971 l 0.434591,2.040937 z m 0.714296,-1.588156 2.429109,-0.517247 -0.07168,-0.336618 q -0.0917,-0.430628 -0.224452,-0.592566 -0.135789,-0.161291 -0.394287,-0.214031 -0.26153,-0.05209 -0.795267,0.06156 -0.706595,0.15046 -0.918321,0.436472 -0.211726,0.286012 -0.09807,0.819749 z"
           style="letter-spacing:0.14579082px;writing-mode:lr-tb;direction:rtl;fill:#ffffff"
           id="path1600"
           inkscape:connector-curvature="0" />
        <path
           d="m 63.210656,78.290478 0.142493,1.593545 0.766967,0.152438 0.127857,1.429866 -4.679553,-1.296797 -0.136418,-1.525602 4.375236,-2.10647 0.130895,1.463837 z m -0.952746,0.380925 -1.582778,0.64583 1.671975,0.351679 z"
           style="letter-spacing:0.14579082px;writing-mode:lr-tb;direction:rtl;fill:#ffffff"
           id="path1602"
           inkscape:connector-curvature="0" />
        <path
           d="m 59.269704,75.759407 0.04911,-1.310628 2.576904,-1.616159 -2.512812,-0.09416 0.04958,-1.323021 4.542271,0.170215 -0.04958,1.323021 -2.557965,1.607561 2.494221,0.09347 -0.04946,1.319923 z"
           style="letter-spacing:0.14579082px;writing-mode:lr-tb;direction:rtl;fill:#ffffff"
           id="path1604"
           inkscape:connector-curvature="0" />
        <path
           d="m 59.986802,67.288334 0.501203,-2.28031 q 0.163739,-0.744961 0.599255,-1.036538 0.43618,-0.294605 1.090293,-0.150833 0.672283,0.147764 0.961629,0.636758 0.290011,0.485964 0.107635,1.315719 l -0.165071,0.751018 1.647395,0.36209 -0.302851,1.377877 z m 2.195539,-0.961872 0.07388,-0.336141 q 0.08719,-0.396707 -0.0138,-0.587159 -0.104025,-0.191118 -0.319034,-0.238376 -0.208953,-0.04593 -0.384929,0.06142 -0.175976,0.107353 -0.260508,0.491947 l -0.08586,0.390651 z"
           style="letter-spacing:0.14579082px;writing-mode:lr-tb;direction:rtl;fill:#ffffff"
           id="path1606"
           inkscape:connector-curvature="0" />
        <path
           d="m 61.20818,62.164335 1.229024,-3.557814 0.917294,0.316874 -0.769405,2.227296 0.682842,0.235884 0.713725,-2.066111 0.876265,0.3027 -0.713724,2.066111 0.846958,0.292576 0.791678,-2.29177 0.972977,0.336108 -1.251296,3.622288 z"
           style="letter-spacing:0.14579082px;writing-mode:lr-tb;direction:rtl;fill:#ffffff"
           id="path1608"
           inkscape:connector-curvature="0" />
        <path
           d="m 63.021661,57.169924 0.57829,-1.177173 3.011594,-0.427439 -2.256946,-1.108731 0.583759,-1.188306 4.079756,2.004192 -0.583759,1.188306 -2.990794,0.427293 2.240248,1.100528 -0.582392,1.185523 z"
           style="letter-spacing:0.14579082px;writing-mode:lr-tb;direction:rtl;fill:#ffffff"
           id="path1610"
           inkscape:connector-curvature="0" />
        <path
           d="m 70.457823,51.640293 -0.882511,1.33449 0.504434,0.597512 -0.791865,1.19742 -2.849026,-3.932297 0.844884,-1.277592 4.733769,1.082283 -0.810678,1.225867 z m -0.982309,-0.296472 -1.640005,-0.482357 1.08758,1.317706 z"
           style="letter-spacing:0.14579082px;writing-mode:lr-tb;direction:rtl;fill:#ffffff"
           id="path1612"
           inkscape:connector-curvature="0" />
        <path
           d="m 68.959505,47.200075 0.856961,-0.992861 3.021877,0.347367 -1.903572,-1.643016 0.865066,-1.002251 3.440981,2.969991 -0.865065,1.00225 -3.001716,-0.342253 1.889488,1.630861 -0.863039,0.999903 z"
           style="letter-spacing:0.14579082px;writing-mode:lr-tb;direction:rtl;fill:#ffffff"
           id="path1614"
           inkscape:connector-curvature="0" />
        <path
           d="m 76.619469,43.353031 -0.628435,-0.706667 1.621858,-1.442309 1.287776,1.448087 q -0.183424,0.73157 -0.439528,1.166785 -0.255847,0.430838 -0.747038,0.867652 -0.604721,0.537776 -1.170396,0.671541 -0.563357,0.131705 -1.136837,-0.08858 -0.571162,-0.222342 -1.040943,-0.750604 -0.494506,-0.556066 -0.629827,-1.170148 -0.137382,-0.616399 0.115593,-1.223102 0.198932,-0.471509 0.782801,-0.99074 0.563017,-0.500688 0.931709,-0.645995 0.371009,-0.147368 0.745668,-0.09467 0.374916,0.04832 0.760177,0.294911 l -0.851789,1.081134 q -0.233574,-0.136674 -0.474834,-0.10469 -0.238944,0.02992 -0.470638,0.235967 -0.345224,0.307006 -0.337145,0.731347 0.0083,0.419964 0.469873,0.938958 0.490386,0.551432 0.906759,0.60438 0.418689,0.05089 0.7894,-0.278782 0.176087,-0.156594 0.290626,-0.349737 0.114539,-0.193143 0.211543,-0.49932 l -0.284341,-0.319738 z"
           style="letter-spacing:0.14579082px;writing-mode:lr-tb;direction:rtl;fill:#ffffff"
           id="path1616"
           inkscape:connector-curvature="0" />
        <path
           d="m 81.092147,39.892611 -0.529873,-0.78329 1.797715,-1.216102 1.085804,1.605103 q -0.278192,0.701033 -0.589393,1.098721 -0.31037,0.393382 -0.854821,0.761687 -0.670291,0.453432 -1.248656,0.511518 -0.575798,0.05635 -1.115263,-0.237555 -0.536898,-0.295641 -0.932999,-0.881183 -0.416949,-0.616359 -0.470201,-1.242916 -0.05499,-0.629124 0.2757,-1.197217 0.259309,-0.441196 0.906487,-0.878992 0.624063,-0.422161 1.008684,-0.517636 0.387188,-0.09721 0.751641,0.0044 0.365283,0.09729 0.714705,0.392476 l -0.986779,0.959511 q -0.213536,-0.166251 -0.456907,-0.166326 -0.240803,-0.0018 -0.49762,0.171916 -0.382656,0.258855 -0.430545,0.680563 -0.04706,0.417402 0.342095,0.992671 0.413474,0.611223 0.819244,0.718557 0.408338,0.105597 0.819244,-0.172369 0.195181,-0.132034 0.334164,-0.308406 0.138983,-0.176373 0.275473,-0.467104 L 81.8703,39.366213 Z"
           style="letter-spacing:0.14579082px;writing-mode:lr-tb;direction:rtl;fill:#ffffff"
           id="path1618"
           inkscape:connector-curvature="0" />
        <path
           d="m 85.293571,34.157472 1.254546,-0.624676 1.207891,2.425825 q 0.179663,0.36082 0.226181,0.739446 0.04791,0.374469 -0.07333,0.736177 -0.119842,0.357551 -0.335148,0.585987 -0.298652,0.318429 -0.812128,0.574104 -0.296983,0.147877 -0.670207,0.281761 -0.370449,0.132502 -0.667179,0.127851 -0.298112,-0.0074 -0.608502,-0.136898 -0.307614,-0.130853 -0.500015,-0.336392 -0.310056,-0.330531 -0.459315,-0.63029 l -1.207891,-2.425824 1.254546,-0.624676 1.236913,2.484111 q 0.165843,0.333065 0.443007,0.430588 0.278557,0.09337 0.606071,-0.06971 0.324738,-0.161697 0.41671,-0.436097 0.09337,-0.278557 -0.07524,-0.617173 z"
           style="letter-spacing:0.14579082px;writing-mode:lr-tb;direction:rtl;fill:#ffffff"
           id="path1620"
           inkscape:connector-curvature="0" />
        <path
           d="m 88.063749,32.922666 1.32346,-0.470378 1.147391,3.228309 2.065534,-0.734123 0.374849,1.054679 -3.388994,1.204501 z"
           style="letter-spacing:0.14579082px;writing-mode:lr-tb;direction:rtl;fill:#ffffff"
           id="path1622"
           inkscape:connector-curvature="0" />
        <path
           d="m 96.295527,34.419616 -1.559493,0.357304 -0.04701,0.780554 -1.399314,0.320604 0.650143,-4.812195 1.493004,-0.342069 2.680404,4.049115 -1.432558,0.328221 z m -0.506622,-0.892278 -0.854529,-1.480563 -0.121666,1.704224 z"
           style="letter-spacing:0.14579082px;writing-mode:lr-tb;direction:rtl;fill:#ffffff"
           id="path1624"
           inkscape:connector-curvature="0" />
        <path
           d="m 98.277097,30.172099 1.305411,-0.126728 1.946482,2.337433 -0.24297,-2.502809 1.31776,-0.127926 0.4392,4.52419 -1.31775,0.127926 -1.935432,-2.319816 0.241172,2.484293 -1.314669,0.127627 z"
           style="letter-spacing:0.14579082px;writing-mode:lr-tb;direction:rtl;fill:#ffffff"
           id="path1626"
           inkscape:connector-curvature="0" />
        <path
           d="m 106.47369,32.675224 0.0324,-0.945124 2.16914,0.07434 -0.0664,1.936729 q -0.6374,0.403184 -1.12302,0.541661 -0.48241,0.135484 -1.13935,0.112969 -0.80878,-0.02772 -1.31062,-0.321033 -0.49875,-0.293207 -0.76204,-0.848255 -0.2602,-0.554941 -0.23599,-1.26146 0.0255,-0.743704 0.35107,-1.281671 0.32568,-0.541066 0.92731,-0.805868 0.46926,-0.204188 1.25015,-0.177425 0.753,0.02581 1.12018,0.174897 0.37028,0.149197 0.6052,0.445772 0.23813,0.293583 0.347,0.737856 l -1.36244,0.195293 q -0.0748,-0.260065 -0.2716,-0.403314 -0.19365,-0.143143 -0.50352,-0.153763 -0.46172,-0.01582 -0.74856,0.296995 -0.28363,0.309827 -0.30742,1.003951 -0.0253,0.737506 0.23968,1.063032 0.26806,0.325633 0.76386,0.342625 0.23551,0.0081 0.45166,-0.05277 0.21615,-0.06085 0.49757,-0.215627 l 0.0147,-0.42763 z"
           style="letter-spacing:0.14579082px;writing-mode:lr-tb;direction:rtl;fill:#ffffff"
           id="path1628"
           inkscape:connector-curvature="0" />
        <path
           d="m 112.45235,34.217993 -1.57898,-0.257847 -0.3382,0.705054 -1.4168,-0.231362 2.41865,-4.210703 1.51167,0.246854 0.95353,4.761375 -1.45047,-0.236859 z m -0.13229,-1.017509 -0.23239,-1.6936 -0.75601,1.532196 z"
           style="letter-spacing:0.14579082px;writing-mode:lr-tb;direction:rtl;fill:#ffffff"
           id="path1630"
           inkscape:connector-curvature="0" />
        <path
           d="m 115.89358,31.032502 1.25645,0.37615 0.91845,2.899802 0.72117,-2.408941 1.26834,0.379707 -1.30363,4.354509 -1.26834,-0.379707 -0.91487,-2.879312 -0.71584,2.391119 -1.26536,-0.378818 z"
           style="letter-spacing:0.14579082px;writing-mode:lr-tb;direction:rtl;fill:#ffffff"
           id="path1632"
           inkscape:connector-curvature="0" />
        <path
           d="m 123.94726,33.865097 2.33758,1.203709 q 0.5844,0.300928 0.74685,0.750769 0.16521,0.45126 -0.0548,0.87853 -0.18453,0.358356 -0.53983,0.499741 -0.23686,0.09426 -0.57464,0.04587 0.3816,0.329026 0.45357,0.690429 0.0761,0.360066 -0.12257,0.745987 -0.16182,0.31425 -0.43709,0.489867 -0.27527,0.175618 -0.60411,0.191125 -0.20397,0.01006 -0.54226,-0.111832 -0.45015,-0.162047 -0.58798,-0.233021 l -2.15565,-1.110024 z m 0.44357,2.233732 0.54304,0.279635 q 0.2922,0.150464 0.45632,0.109425 0.1683,-0.04238 0.26624,-0.23258 0.0909,-0.176421 0.0262,-0.335276 -0.0619,-0.157435 -0.34584,-0.30364 l -0.55132,-0.283894 z m -0.81762,1.587791 0.63677,0.327897 q 0.32252,0.166078 0.51304,0.121192 0.19193,-0.04764 0.29129,-0.240602 0.0923,-0.179178 0.0153,-0.354819 -0.0728,-0.176979 -0.40081,-0.345895 l -0.63401,-0.326478 z"
           style="letter-spacing:0.14579082px;writing-mode:lr-tb;direction:rtl;fill:#ffffff"
           id="path1634"
           inkscape:connector-curvature="0" />
        <path
           d="m 128.89449,36.53353 3.11674,2.110563 -0.54415,0.803574 -1.95117,-1.321275 -0.40508,0.598188 1.80997,1.225656 -0.51982,0.767632 -1.80997,-1.225656 -0.50243,0.741958 2.00765,1.359522 -0.57718,0.852354 -3.17322,-2.14881 z"
           style="letter-spacing:0.14579082px;writing-mode:lr-tb;direction:rtl;fill:#ffffff"
           id="path1636"
           inkscape:connector-curvature="0" />
        <path
           d="m 133.24648,39.578342 0.98709,0.863596 -0.36761,3.019481 1.65574,-1.89252 0.99643,0.871762 -2.99298,3.421003 -0.99643,-0.871762 0.36236,-2.999354 -1.64349,1.878518 -0.9941,-0.869721 z"
           style="letter-spacing:0.14579082px;writing-mode:lr-tb;direction:rtl;fill:#ffffff"
           id="path1638"
           inkscape:connector-curvature="0" />
        <path
           d="m 137.68702,47.673116 0.53723,1.168338 q -0.46994,0.250318 -0.90671,0.280809 -0.43676,0.03049 -0.83215,-0.149558 -0.39332,-0.177727 -0.79816,-0.635112 -0.49115,-0.554899 -0.64331,-1.049602 -0.14779,-0.494436 0.0325,-1.109457 0.18025,-0.61502 0.81409,-1.17604 0.84512,-0.748026 1.69448,-0.700655 0.85374,0.04764 1.58121,0.869538 0.56924,0.643125 0.6339,1.240124 0.0667,0.599321 -0.3137,1.25486 l -1.02864,-0.745805 q 0.1124,-0.186443 0.13711,-0.303549 0.0426,-0.195088 -0.005,-0.380324 -0.048,-0.185237 -0.18775,-0.343117 -0.31648,-0.35755 -0.77289,-0.293112 -0.34101,0.04511 -0.79839,0.449951 -0.56651,0.501424 -0.62572,0.860241 -0.0569,0.356761 0.21849,0.667876 0.26715,0.301828 0.57227,0.305047 0.30717,0.0055 0.69155,-0.210453 z"
           style="letter-spacing:0.14579082px;writing-mode:lr-tb;direction:rtl;fill:#ffffff"
           id="path1640"
           inkscape:connector-curvature="0" />
        <path
           d="m 139.81133,52.371187 -0.90491,-1.319405 -0.7433,0.242849 -0.81197,-1.183884 4.71483,-1.162022 0.86633,1.263151 -2.78225,3.97982 -0.83126,-1.212011 z m 0.64396,-0.798836 1.06343,-1.33843 -1.62987,0.512524 z"
           style="letter-spacing:0.14579082px;writing-mode:lr-tb;direction:rtl;fill:#ffffff"
           id="path1642"
           inkscape:connector-curvature="0" />
        <path
           d="m 144.48774,52.651475 0.59817,1.167198 -1.45723,2.669998 2.23782,-1.146846 0.60383,1.178235 -4.04518,2.07309 -0.60383,-1.178235 1.44492,-2.653235 -2.22127,1.138361 -0.60241,-1.175476 z"
           style="letter-spacing:0.14579082px;writing-mode:lr-tb;direction:rtl;fill:#ffffff"
           id="path1644"
           inkscape:connector-curvature="0" />
        <path
           d="m 144.47585,61.919007 -0.54163,-1.505433 -0.78056,0.04688 -0.486,-1.350806 4.85543,0.06874 0.51853,1.441248 -3.6987,3.146351 -0.49754,-1.382898 z m 0.82513,-0.609906 1.36748,-1.025808 -1.70652,0.08345 z"
           style="letter-spacing:0.14579082px;writing-mode:lr-tb;direction:rtl;fill:#ffffff"
           id="path1646"
           inkscape:connector-curvature="0" />
        <path
           d="m 149.50194,65.808912 0.34978,2.05717 q 0.10342,0.608287 0.002,1.009272 -0.10114,0.404041 -0.36829,0.70107 -0.26715,0.29703 -0.65804,0.476715 -0.39089,0.179684 -0.8494,0.257643 -0.71833,0.122135 -1.14377,0.02464 -0.42186,-0.09496 -0.74022,-0.339615 -0.31531,-0.245172 -0.46061,-0.563282 -0.1997,-0.434662 -0.26259,-0.804525 l -0.34977,-2.05717 z m -0.77939,1.557241 -2.44843,0.416299 0.0577,0.339295 q 0.0738,0.434054 0.19974,0.601346 0.129,0.166771 0.38509,0.230161 0.25915,0.06287 0.79714,-0.0286 0.71221,-0.121095 0.93559,-0.398102 0.22338,-0.277007 0.13191,-0.814989 z"
           style="letter-spacing:0.14579082px;writing-mode:lr-tb;direction:rtl;fill:#ffffff"
           id="path1648"
           inkscape:connector-curvature="0" />
        <path
           d="m 146.65189,74.06282 -0.0773,-1.598033 -0.7601,-0.183627 -0.0694,-1.433894 4.62271,1.486782 0.074,1.5299 -4.45759,1.926072 -0.071,-1.467961 z m 0.9675,-0.341706 1.60783,-0.580667 -1.65622,-0.419653 z"
           style="letter-spacing:0.14579082px;writing-mode:lr-tb;direction:rtl;fill:#ffffff"
           id="path1650"
           inkscape:connector-curvature="0" />
        <path
           d="m 150.47399,76.70019 -0.26203,3.75498 -0.96813,-0.06756 0.16404,-2.350729 -0.72069,-0.05029 -0.15216,2.18061 -0.92483,-0.06454 0.15217,-2.18061 -0.8939,-0.06238 -0.16878,2.418776 -1.0269,-0.07166 0.26678,-3.823027 z"
           style="letter-spacing:0.14579082px;writing-mode:lr-tb;direction:rtl;fill:#ffffff"
           id="path1652"
           inkscape:connector-curvature="0" />
        <path
           d="m 145.55298,81.127176 4.46436,0.854811 -0.44023,2.299175 q -0.12245,0.639505 -0.29681,0.956538 -0.17435,0.317034 -0.51243,0.466969 -0.33505,0.150518 -0.76138,0.06889 -0.37153,-0.07114 -0.61223,-0.281385 -0.23767,-0.209666 -0.35209,-0.518855 -0.0728,-0.197034 -0.0839,-0.518017 -0.12945,0.230923 -0.23325,0.327855 -0.0694,0.06564 -0.27646,0.174361 -0.20766,0.11177 -0.31444,0.141836 l -1.42194,0.419099 0.29855,-1.559175 1.50538,-0.47573 q 0.29176,-0.08935 0.39193,-0.183823 0.13211,-0.129393 0.16826,-0.318199 l 0.0233,-0.121811 -1.81194,-0.346938 z m 2.39016,1.89405 -0.11137,0.581646 q -0.0181,0.0944 -0.009,0.377094 0.001,0.142284 0.0975,0.249126 0.0958,0.109887 0.24193,0.137876 0.21622,0.0414 0.35818,-0.07348 0.14196,-0.114879 0.21426,-0.492492 l 0.11603,-0.606008 z"
           style="letter-spacing:0.14579082px;writing-mode:lr-tb;direction:rtl;fill:#ffffff"
           id="path1654"
           inkscape:connector-curvature="0" />
        <path
           d="m 144.38458,88.981685 0.494,-1.521727 -0.64571,-0.441066 0.44326,-1.365426 3.79585,3.028434 -0.47293,1.456847 -4.85086,0.221457 0.45378,-1.397866 z m 1.02581,0.02332 1.70926,0.02678 -1.40003,-0.97933 z"
           style="letter-spacing:0.14579082px;writing-mode:lr-tb;direction:rtl;fill:#ffffff"
           id="path1656"
           inkscape:connector-curvature="0" />
        <path
           d="m 147.01268,92.862882 -0.60205,1.268991 -1.43707,-0.681793 -0.65787,1.386646 1.43706,0.681793 -0.6047,1.274594 -4.10672,-1.948361 0.60471,-1.274593 1.66118,0.788116 0.65787,-1.386646 -1.66118,-0.788116 0.60205,-1.268991 z"
           style="letter-spacing:0.14579082px;writing-mode:lr-tb;direction:rtl;fill:#ffffff"
           id="path1658"
           inkscape:connector-curvature="0" />
      </g>
      <path
         inkscape:connector-curvature="0"
         id="path1726"
         d="m 2.6740878,296.94037 c -1.4383369,0.0176 -2.61910883,-1.13465 -2.63668747,-2.57298 -0.01757437,-1.43836 1.13463417,-2.61888 2.57298507,-2.63644 1.4383505,-0.0176 2.6191269,1.13463 2.6366876,2.57298 0.017556,1.43834 -1.1346481,2.61888 -2.5729852,2.63644 z m -5.026e-4,-0.0406 c 1.4163051,-0.0173 2.5499592,-1.17907 2.5326738,-2.59538 -0.017287,-1.41632 -1.1790575,-2.54998 -2.595376,-2.53267 -1.4163187,0.0173 -2.54997847,1.17881 -2.53267329,2.59513 0.01730946,1.4163 1.17907549,2.55023 2.59538049,2.53292 z M 2.665124,296.216 c -1.038237,0.0127 -1.8904308,-0.81909 -1.90311321,-1.85732 -0.0126844,-1.03824 0.81908981,-1.89068 1.85732691,-1.90337 1.0382368,-0.0127 1.89068,0.81909 1.903361,1.85733 0.01269,1.03824 -0.8193379,1.89068 -1.8575747,1.90336 z m -5.026e-4,-0.0408 c 1.0162047,-0.0124 1.8296804,-0.84585 1.8172645,-1.86205 -0.012416,-1.01621 -0.8458507,-1.82943 -1.8620554,-1.81702 -1.0162052,0.0124 -1.8294311,0.84585 -1.81701535,1.86206 0.0124133,1.0162 0.84560115,1.82943 1.86180625,1.81701 z"
         style="color:#000000;font-style:normal;font-variant:normal;font-weight:normal;font-stretch:normal;font-size:medium;line-height:normal;font-family:sans-serif;font-variant-ligatures:normal;font-variant-position:normal;font-variant-caps:normal;font-variant-numeric:normal;font-variant-alternates:normal;font-feature-settings:normal;text-indent:0;text-align:start;text-decoration:none;text-decoration-line:none;text-decoration-style:solid;text-decoration-color:#000000;letter-spacing:normal;word-spacing:normal;text-transform:none;writing-mode:lr-tb;direction:ltr;text-orientation:mixed;dominant-baseline:auto;baseline-shift:baseline;text-anchor:start;white-space:normal;shape-padding:0;clip-rule:nonzero;display:inline;overflow:visible;visibility:visible;opacity:1;isolation:auto;mix-blend-mode:normal;color-interpolation:sRGB;color-interpolation-filters:linearRGB;solid-color:#000000;solid-opacity:1;vector-effect:none;fill:#ffffff;fill-opacity:1;fill-rule:nonzero;stroke:none;stroke-width:0.04076962;stroke-linecap:butt;stroke-linejoin:miter;stroke-miterlimit:4;stroke-dasharray:none;stroke-dashoffset:0;stroke-opacity:1;color-rendering:auto;image-rendering:auto;shape-rendering:auto;text-rendering:auto;enable-background:accumulate" />
    </g>
  </g>
</svg>
