<?xml version="1.0" encoding="UTF-8" standalone="no"?>
<!-- Created with Inkscape (http://www.inkscape.org/) -->

<svg
   xmlns:dc="http://purl.org/dc/elements/1.1/"
   xmlns:cc="http://creativecommons.org/ns#"
   xmlns:rdf="http://www.w3.org/1999/02/22-rdf-syntax-ns#"
   xmlns:svg="http://www.w3.org/2000/svg"
   xmlns="http://www.w3.org/2000/svg"
   xmlns:sodipodi="http://sodipodi.sourceforge.net/DTD/sodipodi-0.dtd"
   xmlns:inkscape="http://www.inkscape.org/namespaces/inkscape"
   width="20"
   height="20"
   viewBox="0 0 5.2916666 5.2916669"
   version="1.1"
   id="svg1888"
   inkscape:version="0.92.3 (2405546, 2018-03-11)"
   sodipodi:docname="dashicon-greenbox.svg">
  <defs
     id="defs1882" />
  <sodipodi:namedview
     id="base"
     pagecolor="#ffffff"
     bordercolor="#666666"
     borderopacity="1.0"
     inkscape:pageopacity="0.0"
     inkscape:pageshadow="2"
     inkscape:zoom="22.627417"
     inkscape:cx="0.80131543"
     inkscape:cy="12.982452"
     inkscape:document-units="mm"
     inkscape:current-layer="layer1"
     showgrid="false"
     units="px"
     inkscape:window-width="1920"
     inkscape:window-height="1021"
     inkscape:window-x="0"
     inkscape:window-y="28"
     inkscape:window-maximized="1" />
  <metadata
     id="metadata1885">
    <rdf:RDF>
      <cc:Work
         rdf:about="">
        <dc:format>image/svg+xml</dc:format>
        <dc:type
           rdf:resource="http://purl.org/dc/dcmitype/StillImage" />
        <dc:title />
      </cc:Work>
    </rdf:RDF>
  </metadata>
  <g
     inkscape:label="Layer 1"
     inkscape:groupmode="layer"
     id="layer1"
     transform="translate(0,-291.70832)">
    <path
       style="opacity:1;fill:#ffffff;fill-opacity:1;stroke:none;stroke-width:1.8916744;stroke-linecap:round;stroke-linejoin:round;stroke-miterlimit:4;stroke-dasharray:none;stroke-opacity:1"
       d="M 0.43945312 0.001953125 C 0.19707813 0.001953125 0.001953125 0.19707813 0.001953125 0.43945312 L 0.001953125 19.564453 C 0.001953125 19.806828 0.19707813 20.001953 0.43945312 20.001953 L 19.560547 20.001953 C 19.802922 20.001953 19.998047 19.806828 19.998047 19.564453 L 19.998047 0.43945312 C 19.998047 0.19707813 19.802922 0.001953125 19.560547 0.001953125 L 0.43945312 0.001953125 z M 10.078125 1.3554688 L 12.193359 2.5449219 L 12.193359 9.6503906 L 15.652344 11.587891 L 15.65625 9.0097656 L 12.822266 7.4179688 L 12.822266 4.6445312 L 17.435547 7.3203125 L 17.435547 14.544922 L 10.074219 18.691406 L 2.7539062 14.544922 L 7.3945312 11.693359 L 7.3945312 9.5742188 L 4.2109375 11.539062 L 4.2089844 9.0898438 L 8.0332031 6.6699219 L 8.0332031 16.230469 L 10.082031 14.802734 L 10.078125 10.876953 L 10.078125 1.3554688 z "
       transform="matrix(0.26458333,0,0,0.26458333,0,291.70832)"
       id="rect816" />
  </g>
</svg>
