<?xml version="1.0" encoding="UTF-8" standalone="no"?>
<!-- Created with Inkscape (http://www.inkscape.org/) -->

<svg
   xmlns:dc="http://purl.org/dc/elements/1.1/"
   xmlns:cc="http://creativecommons.org/ns#"
   xmlns:rdf="http://www.w3.org/1999/02/22-rdf-syntax-ns#"
   xmlns:svg="http://www.w3.org/2000/svg"
   xmlns="http://www.w3.org/2000/svg"
   xmlns:sodipodi="http://sodipodi.sourceforge.net/DTD/sodipodi-0.dtd"
   xmlns:inkscape="http://www.inkscape.org/namespaces/inkscape"
   width="20"
   height="20"
   viewBox="0 0 5.2916666 5.2916669"
   version="1.1"
   id="svg1888"
   inkscape:version="0.92.3 (2405546, 2018-03-11)"
   sodipodi:docname="dashicon-aank.svg">
  <defs
     id="defs1882" />
  <sodipodi:namedview
     id="base"
     pagecolor="#ffffff"
     bordercolor="#666666"
     borderopacity="1.0"
     inkscape:pageopacity="0.0"
     inkscape:pageshadow="2"
     inkscape:zoom="22.4"
     inkscape:cx="7.2341042"
     inkscape:cy="9.6113974"
     inkscape:document-units="mm"
     inkscape:current-layer="layer1"
     showgrid="false"
     units="px"
     inkscape:window-width="1396"
     inkscape:window-height="841"
     inkscape:window-x="148"
     inkscape:window-y="58"
     inkscape:window-maximized="0" />
  <metadata
     id="metadata1885">
    <rdf:RDF>
      <cc:Work
         rdf:about="">
        <dc:format>image/svg+xml</dc:format>
        <dc:type
           rdf:resource="http://purl.org/dc/dcmitype/StillImage" />
        <dc:title></dc:title>
      </cc:Work>
    </rdf:RDF>
  </metadata>
  <g
     inkscape:label="Layer 1"
     inkscape:groupmode="layer"
     id="layer1"
     transform="translate(0,-291.70832)">
    <path
       inkscape:connector-curvature="0"
       id="path1528"
       d="m 2.648213,291.79287 a 2.5577589,2.5577589 0 0 0 -2.55779522,2.55778 2.5577589,2.5577589 0 0 0 0.34697356,1.27999 l 0.95101046,-1.64889 0.9307747,1.58847 -0.6700807,1.13476 a 2.5577589,2.5577589 0 0 0 0.9991172,0.2034 2.5577589,2.5577589 0 0 0 1.655113,-0.61144 l -0.8762195,0.002 -1.6835023,-2.93078 0.9178769,-1.57514 a 2.5577589,2.5577589 0 0 0 -0.013274,-6.9e-4 z m 0.021644,6.9e-4 2.2019262,3.81722 a 2.5577589,2.5577589 0 0 0 0.3341497,-1.26054 2.5577589,2.5577589 0 0 0 -2.5360759,-2.55668 z"
       style="opacity:1;fill:#ffffff;fill-opacity:1;stroke:none;stroke-width:0.06412237;stroke-miterlimit:4;stroke-dasharray:none" />
  </g>
</svg>
