<?xml version="1.0" encoding="UTF-8" standalone="no"?>
<!-- Created with Inkscape (http://www.inkscape.org/) -->

<svg
   xmlns:dc="http://purl.org/dc/elements/1.1/"
   xmlns:cc="http://creativecommons.org/ns#"
   xmlns:rdf="http://www.w3.org/1999/02/22-rdf-syntax-ns#"
   xmlns:svg="http://www.w3.org/2000/svg"
   xmlns="http://www.w3.org/2000/svg"
   xmlns:sodipodi="http://sodipodi.sourceforge.net/DTD/sodipodi-0.dtd"
   xmlns:inkscape="http://www.inkscape.org/namespaces/inkscape"
   width="20mm"
   height="20mm"
   viewBox="0 0 70.866142 70.866125"
   id="svg4266"
   version="1.1"
   inkscape:version="0.92.3 (2405546, 2018-03-11)"
   sodipodi:docname="greenbox-maskot.svg">
  <defs
     id="defs4268" />
  <sodipodi:namedview
     id="base"
     pagecolor="#ffffff"
     bordercolor="#666666"
     borderopacity="1.0"
     inkscape:pageopacity="0.0"
     inkscape:pageshadow="2"
     inkscape:zoom="5.6"
     inkscape:cx="21.658971"
     inkscape:cy="44.201393"
     inkscape:document-units="px"
     inkscape:current-layer="layer1"
     showgrid="false"
     height="36mm"
     inkscape:window-width="1920"
     inkscape:window-height="1021"
     inkscape:window-x="0"
     inkscape:window-y="28"
     inkscape:window-maximized="1" />
  <metadata
     id="metadata4271">
    <rdf:RDF>
      <cc:Work
         rdf:about="">
        <dc:format>image/svg+xml</dc:format>
        <dc:type
           rdf:resource="http://purl.org/dc/dcmitype/StillImage" />
        <dc:title></dc:title>
      </cc:Work>
    </rdf:RDF>
  </metadata>
  <g
     inkscape:label="Layer 1"
     inkscape:groupmode="layer"
     id="layer1"
     transform="translate(0,-981.49609)">
    <g
       style="fill:#ffffff;fill-opacity:1"
       id="g5609"
       transform="matrix(1.2989707,0,0,1.2989707,-136.97862,528.2184)"
       inkscape:export-filename="/home/aank/rect7874.png"
       inkscape:export-xdpi="72"
       inkscape:export-ydpi="72">
      <g
         style="fill:#ffffff;fill-opacity:1"
         id="g5611"
         transform="matrix(0.53948405,0,0,0.53948405,60.69758,173.91653)">
        <path
           style="fill:#ffffff;fill-opacity:1;stroke:none"
           d="m 133.53071,324.74088 c -2.70111,-0.006 -5.4093,0.19709 -8.03816,0.6087 -15.86724,2.48437 -29.784322,12.66187 -37.001112,27.05852 -2.69282,5.3718 -4.14325,10.20828 -5.07303,16.91554 -0.2819,2.03361 -0.23539,9.68976 0.0723,11.86362 1.24075,8.76462 4.13822,16.17917 8.9497,22.90309 4.27367,5.97233 9.400192,10.62621 15.957282,14.48526 0.86253,0.50761 1.58278,0.87961 1.6001,0.82566 0.0175,-0.054 0.52204,-2.88473 1.12247,-6.2904 1.0905,-6.18532 1.09136,-6.19372 0.88595,-6.98649 -0.29333,-1.13193 -0.48762,-3.42129 -0.39325,-4.61799 0.17044,-2.16078 0.37773,-2.98362 2.30825,-9.13652 1.05397,-3.35919 1.59005,-5.20657 1.52778,-5.26888 -0.0203,-0.0203 -0.67044,0.0303 -1.44342,0.1115 -1.30646,0.13727 -1.42315,0.12997 -1.65735,-0.10848 -0.633,-0.64453 -16.355822,-22.64513 -16.312862,-22.82626 0.0641,-0.27019 16.439252,-25.51844 16.788962,-25.88632 l 33.64124,-3.70494 c 0.0492,-5.2e-4 0.36652,0.65822 0.70512,1.4645 0.51143,1.2177 3.9238,9.97417 4.89823,12.57026 l 0.27723,0.73978 0.25311,-0.49118 c 0.46389,-0.9042 4.27029,-11.49896 4.75661,-13.23922 l 0.26067,-0.93113 -0.3375,-0.51077 c -0.18563,-0.2805 -0.41144,-0.86223 -0.50174,-1.29274 -0.1422,-0.67812 -0.13228,-0.86703 0.0738,-1.42079 0.13086,-0.35157 0.25131,-0.68926 0.26819,-0.75033 0.0169,-0.0611 -0.55309,-0.41325 -1.2656,-0.78198 -3.85104,-1.99283 -8.72434,-3.63639 -13.295,-4.48238 -2.91488,-0.53952 -5.96679,-0.81317 -9.02804,-0.81963 z m 28.72792,9.09735 -0.50924,0.57254 c -0.39399,0.44345 -0.7233,0.6453 -1.46148,0.89346 l -0.95374,0.32093 -3.17156,7.80914 -3.17007,7.80914 1.99787,5.2297 1.99635,5.22819 -1.46299,8.95873 c -1.51801,9.29162 -2.44815,14.64517 -2.58397,14.86494 -0.10283,0.16641 -1.71786,0.29213 -4.14186,0.32243 -1.0688,0.0134 -1.94363,0.0538 -1.94363,0.0904 0,0.0366 0.91477,1.97432 2.03252,4.30611 2.62352,5.47306 3.45676,7.59082 4.16446,10.58143 0.40649,1.71766 0.62075,3.37212 0.62075,4.78071 0,1.97708 0.91602,4.57639 4.28501,12.16195 0.19155,0.43126 0.3777,0.78498 0.41285,0.78498 0.11442,0 1.43177,-0.80514 2.71051,-1.65585 10.41427,-6.92827 18.01213,-17.59868 21.00769,-29.50538 4.03508,-16.03849 0.0615,-32.83646 -10.708,-45.27432 -2.25291,-2.60192 -5.44333,-5.56339 -8.13156,-7.54849 z m -42.56228,5.53706 c -0.64362,-7.8e-4 -1.37544,0.12425 -1.96472,0.36914 -3.2097,1.33393 -7.0573,5.65939 -8.03968,9.03859 -0.28176,0.96927 -0.2938,2.46784 -0.0255,3.1098 0.25236,0.60395 0.71596,1.04238 1.24604,1.17973 0.51644,0.13383 1.78347,-0.0348 2.55383,-0.34051 4.12986,-1.6389 8.43224,-7.21974 8.43141,-10.93551 0,-1.03387 -0.26439,-1.6867 -0.86183,-2.12442 -0.27168,-0.19905 -0.77155,-0.29624 -1.33944,-0.29682 z m 13.04637,71.12299 c -0.44171,10e-4 -2.01314,0.30107 -2.90037,0.56952 -0.89309,0.27024 -0.98946,0.33423 -0.99441,0.65391 -0.003,0.19464 0.25574,3.28038 0.57555,6.85842 l 0.58159,6.50586 0.34503,0.0542 c 0.18946,0.0296 0.97295,0.0626 1.74171,0.0738 l 1.39822,0.0211 0.003,-0.58008 c 0.003,-1.05538 -0.58095,-14.07927 -0.63431,-14.13872 -0.0117,-0.013 -0.0514,-0.0182 -0.1145,-0.0181 z"
           id="path5613"
           inkscape:connector-curvature="0"
           sodipodi:nodetypes="cssscsccsccscccccccccccccccccscccccccccccccsscscsssscccccccscscccccccccccccc" />
        <ellipse
           ry="5.9375"
           rx="3.296875"
           cy="346.12573"
           cx="133.45312"
           style="fill:#ffffff;fill-opacity:1;stroke:none"
           id="path5616"
           transform="matrix(0.56533957,0.67256252,-0.71457997,0.76951568,304.5288,-11.838392)" />
      </g>
    </g>
  </g>
</svg>
