<?xml version="1.0" encoding="UTF-8" standalone="no"?>
<!-- Created with Inkscape (http://www.inkscape.org/) -->

<svg
   xmlns:dc="http://purl.org/dc/elements/1.1/"
   xmlns:cc="http://creativecommons.org/ns#"
   xmlns:rdf="http://www.w3.org/1999/02/22-rdf-syntax-ns#"
   xmlns:svg="http://www.w3.org/2000/svg"
   xmlns="http://www.w3.org/2000/svg"
   xmlns:sodipodi="http://sodipodi.sourceforge.net/DTD/sodipodi-0.dtd"
   xmlns:inkscape="http://www.inkscape.org/namespaces/inkscape"
   width="297mm"
   height="210mm"
   viewBox="0 0 297 210"
   version="1.1"
   id="svg898"
   inkscape:version="0.92.3 (unknown)"
   sodipodi:docname="paytrend_logo_vector.svg">
  <defs
     id="defs892">
    <clipPath
       clipPathUnits="userSpaceOnUse"
       id="clipPath1932">
      <path
         style="opacity:1;fill:#ff671d;fill-opacity:1;stroke:none;stroke-width:0.18261494;stroke-miterlimit:4;stroke-dasharray:none;stroke-opacity:1"
         d="m 16.62669,232.68797 0.130186,-31.03071 61.805211,0.34039 -0.228737,54.52105 C 71.091702,226.34426 45.449655,216.00252 16.62669,232.68797 Z"
         id="path1934"
         inkscape:connector-curvature="0"
         sodipodi:nodetypes="ccccc" />
    </clipPath>
    <clipPath
       clipPathUnits="userSpaceOnUse"
       id="clipPath2066">
      <rect
         style="opacity:1;fill:#2e4354;fill-opacity:1;stroke:none;stroke-width:0.58291954;stroke-miterlimit:4;stroke-dasharray:none;stroke-opacity:1"
         id="rect2068"
         width="185.29854"
         height="185.29854"
         x="15.451946"
         y="97.005508" />
    </clipPath>
  </defs>
  <sodipodi:namedview
     id="base"
     pagecolor="#ffffff"
     bordercolor="#666666"
     borderopacity="1.0"
     inkscape:pageopacity="0.0"
     inkscape:pageshadow="2"
     inkscape:zoom="0.7"
     inkscape:cx="511.901"
     inkscape:cy="362.52627"
     inkscape:document-units="mm"
     inkscape:current-layer="layer1"
     showgrid="false"
     inkscape:window-width="1755"
     inkscape:window-height="864"
     inkscape:window-x="1486"
     inkscape:window-y="70"
     inkscape:window-maximized="0" />
  <metadata
     id="metadata895">
    <rdf:RDF>
      <cc:Work
         rdf:about="">
        <dc:format>image/svg+xml</dc:format>
        <dc:type
           rdf:resource="http://purl.org/dc/dcmitype/StillImage" />
        <dc:title></dc:title>
      </cc:Work>
    </rdf:RDF>
  </metadata>
  <g
     inkscape:label="Layer 1"
     inkscape:groupmode="layer"
     id="layer1"
     transform="translate(0,-87)">
    <text
       id="text2083"
       y="234.43982"
       x="71.462433"
       style="font-style:normal;font-variant:normal;font-weight:normal;font-stretch:normal;font-size:4.03528786px;line-height:1.25;font-family:sans-serif;-inkscape-font-specification:sans-serif;letter-spacing:0px;word-spacing:0px;fill:#216778;fill-opacity:1;stroke:none;stroke-width:0.10088218"
       xml:space="preserve"><tspan
         style="font-style:normal;font-variant:normal;font-weight:normal;font-stretch:normal;font-family:sans-serif;-inkscape-font-specification:sans-serif;fill:#216778;fill-opacity:1;stroke-width:0.10088218"
         y="234.43982"
         x="71.462433"
         id="tspan2081"
         sodipodi:role="line">Credit by albert sukmono - http://albert.sukmono.web.id - http://t.me/aank_saputra</tspan></text>
    <path
       style="fill:#2e4251;fill-opacity:1;stroke-width:0.13543952"
       d="m 169.34837,197.14108 c -1.7531,-0.26531 -3.66966,-0.9258 -4.92104,-1.69592 -1.0226,-0.62929 -3.14588,-2.46585 -3.00217,-2.59674 0.1807,-0.16457 4.42457,-3.44633 4.57699,-3.53935 0.11726,-0.0715 0.47142,0.18925 1.06974,0.78758 1.17955,1.17956 2.38961,1.78576 3.98896,1.99831 4.33745,0.57644 7.42969,-1.99927 7.42969,-6.18865 v -0.84423 l -0.92898,0.91255 c -1.54743,1.52003 -3.23372,2.16726 -5.64663,2.16726 -4.12,0 -7.04566,-2.04839 -8.16874,-5.71933 -0.46182,-1.50949 -0.56032,-3.33994 -0.56032,-10.41231 v -6.75762 h 2.97967 2.97967 l 0.002,6.67039 c 0.003,7.06868 0.0584,7.83214 0.6591,9.00973 0.4065,0.7968 1.41486,1.6222 2.29404,1.87778 1.00292,0.29156 2.70368,0.20076 3.58187,-0.19121 0.88867,-0.39664 1.90255,-1.47394 2.28974,-2.43294 0.31384,-0.7773 0.31521,-0.80785 0.3546,-7.85704 l 0.0395,-7.07671 h 2.98311 2.98313 l -0.0539,11.13989 c -0.052,10.73807 -0.0643,11.18555 -0.33975,12.40545 -0.82481,3.65259 -3.48673,6.5865 -7.09117,7.81576 -2.1366,0.72867 -4.88982,0.92228 -7.49941,0.52735 z m -25.3949,-9.27584 c -4.1729,-1.07522 -7.31985,-4.61283 -8.11948,-9.1274 -0.18214,-1.02838 -0.18142,-3.41235 0.001,-4.53902 0.58226,-3.58874 2.84477,-6.77132 5.88334,-8.27585 1.60821,-0.79629 2.9429,-1.10589 4.8081,-1.11526 2.51984,-0.0128 4.28917,0.64312 6.02405,2.23283 l 0.88336,0.80944 v -1.29869 -1.29866 h 2.91194 2.91197 v 11.24147 11.24147 h -2.91197 -2.91194 v -1.38994 -1.38995 l -0.92356,0.88767 c -1.04518,1.00455 -2.42933,1.76163 -3.81682,2.08767 -1.24447,0.29244 -3.47004,0.26155 -4.74037,-0.0657 z m 5.03844,-5.29332 c 1.71937,-0.36511 3.35144,-1.6354 4.14723,-3.22794 1.38806,-2.77775 0.58905,-6.25955 -1.83472,-7.99518 -3.82189,-2.73678 -9.12281,-0.47538 -9.81481,4.18704 -0.64026,4.31381 3.22977,7.94332 7.5023,7.03608 z m 47.71523,5.37046 c -2.44925,-0.53642 -4.03535,-1.92835 -4.74034,-4.16013 -0.47973,-1.5186 -0.60927,-3.36286 -0.6094,-8.6764 l -1.1e-4,-4.70653 h -2.03159 -2.0316 v -2.57335 -2.57334 h 2.02955 2.02954 l 0.0358,-3.96161 0.0358,-3.96161 h 2.84423 2.84423 l 0.036,3.96161 0.0358,3.96161 h 2.90992 2.90989 v 2.57334 2.57335 h -2.91778 -2.91777 l 0.0397,5.39385 0.0397,5.39385 0.36511,0.55148 c 0.69212,1.04541 2.33435,1.29589 3.48853,0.53209 l 0.54204,-0.35871 0.19476,0.30464 c 0.10718,0.16755 0.69264,1.15791 1.30118,2.20079 0.79576,1.36376 1.07169,1.95139 0.98271,2.09285 -0.21178,0.3367 -1.8132,1.0801 -2.9344,1.3622 -1.24994,0.31448 -3.22465,0.34534 -4.4817,0.0701 z m 34.94551,-0.0171 c -2.44122,-0.54409 -4.39174,-1.64799 -6.06944,-3.435 -0.84292,-0.89784 -1.18839,-1.40147 -1.71153,-2.49509 -1.04203,-2.17833 -1.16114,-2.74617 -1.15399,-5.5011 0.006,-2.22906 0.029,-2.43874 0.38824,-3.52142 0.69759,-2.10181 1.58672,-3.53222 3.0777,-4.95131 2.31618,-2.20451 4.93489,-3.22787 8.24342,-3.22141 4.97179,0.01 9.00556,2.62996 10.74601,6.98036 0.61186,1.52941 0.7956,2.59139 0.81558,4.71378 l 0.0186,1.96388 -8.91398,0.0349 -8.91395,0.0349 0.0942,0.30377 c 0.45675,1.47284 1.66881,2.93136 2.98773,3.59521 1.16419,0.58596 2.08683,0.74979 3.82052,0.67836 1.39337,-0.0574 1.56975,-0.0969 2.51177,-0.56249 0.75421,-0.37275 1.22183,-0.72845 1.82953,-1.39165 0.44899,-0.48999 0.86893,-0.86971 0.93319,-0.84381 0.33373,0.13453 4.49976,2.61714 4.49976,2.68151 0,0.24616 -1.56329,1.91542 -2.4828,2.65113 -1.23999,0.99211 -2.55623,1.68099 -4.0183,2.10307 -1.37409,0.39667 -5.26582,0.50268 -6.70214,0.18255 z m 8.52216,-14.30929 c -0.20552,-0.66356 -0.77989,-1.64453 -1.28153,-2.18874 -1.03935,-1.12757 -2.549,-1.70088 -4.48582,-1.70353 -2.58141,-0.003 -4.55394,1.18248 -5.68509,3.41824 l -0.394,0.77877 h 5.97042 5.97042 z m -129.64162,-1.08351 0.0344,-15.20308 6.09478,-0.04 c 3.68652,-0.0243 6.59127,0.0166 7.35131,0.10334 5.45513,0.62234 9.31335,4.42546 9.91971,9.77806 0.52569,4.64057 -2.0909,9.32072 -6.2706,11.21587 -1.95979,0.88863 -2.61708,0.98699 -7.03882,1.05344 l -4.02932,0.0606 v 4.11751 4.11751 h -3.04798 -3.04797 z m 13.22426,1.24471 c 1.63364,-0.37663 2.95519,-1.42646 3.69991,-2.9392 0.42675,-0.86685 0.44653,-0.97612 0.44653,-2.46742 0,-1.46819 -0.0251,-1.61343 -0.42504,-2.45748 -0.58651,-1.23786 -1.25132,-1.92621 -2.40173,-2.48675 -1.28251,-0.62491 -2.18337,-0.74484 -5.60434,-0.74606 l -2.87809,-0.001 v 5.62074 5.62073 l 3.2844,-0.003 c 1.80643,-0.002 3.55169,-0.0649 3.87836,-0.14029 z m 83.03994,2.7169 v -11.24148 h 2.84423 2.84423 v 1.57855 1.57855 l 0.51779,-0.79978 c 0.64785,-1.00069 1.33309,-1.60615 2.37592,-2.09934 1.14841,-0.5431 2.07896,-0.70152 3.73122,-0.63516 1.59997,0.0643 3.36777,0.56465 3.28843,0.93082 -0.035,0.16164 -1.9308,5.41739 -1.9848,5.50256 -0.01,0.016 -0.39799,-0.12414 -0.86183,-0.31151 -0.67503,-0.27265 -1.08396,-0.34179 -2.04897,-0.34636 -2.5443,-0.0128 -4.03461,0.92106 -4.71431,2.95192 -0.18782,0.56115 -0.22727,1.63497 -0.27161,7.3946 l -0.0518,6.7381 h -2.83424 -2.83419 z m 42.66345,0 v -11.24148 h 2.91194 2.91195 v 1.30309 1.30308 l 0.91641,-0.86292 c 1.70609,-1.60651 3.31544,-2.20893 5.85557,-2.19189 2.68791,0.0181 4.51519,0.76113 6.16782,2.50826 0.93207,0.98537 1.61985,2.25509 2.03905,3.76427 0.22002,0.79213 0.24933,1.67106 0.29221,8.76972 l 0.0477,7.88934 h -2.98116 -2.98118 l -0.0394,-7.27987 -0.0394,-7.27986 -0.3908,-0.84617 c -0.42929,-0.92949 -1.25055,-1.78232 -2.07183,-2.15147 -0.37047,-0.16653 -0.901,-0.23532 -1.87143,-0.24266 -1.19827,-0.01 -1.44027,0.031 -2.09932,0.34776 -1.23212,0.5922 -2.04641,1.53335 -2.45081,2.83272 -0.23944,0.76931 -0.25798,1.3243 -0.25798,7.72421 v 6.89534 h -2.97966 -2.97967 z"
       id="path1702"
       inkscape:connector-curvature="0"
       sodipodi:nodetypes="ccccccsccssscccccccccccccccccccccccccccccccccccccccccccccscccccccccccccccccccccccccccccccccccscccccccccsccscccccccccccccccccccccccccccsccscccccccccccccccccccccccccccccccccscsccccccccccscccc" />
    <path
       inkscape:connector-curvature="0"
       id="path1704"
       d="m 30.643347,203.89648 c 0.04246,-0.13565 0.778375,-2.65419 1.635384,-5.59662 0.913066,-3.13488 1.741318,-5.71435 2.000487,-6.23021 0.645291,-1.28443 2.18652,-2.79994 3.489676,-3.43144 1.834894,-0.88917 1.963469,-0.90264 8.619737,-0.90264 h 5.989474 l 0.09915,-0.30473 c 0.05453,-0.1676 2.915919,-9.96497 6.358645,-21.7719 l 6.259501,-21.46716 3.300548,0.01 c 2.882843,0.008 3.480523,0.0477 4.722661,0.31286 7.775332,1.65967 13.852379,7.03704 16.334067,14.45345 1.845275,5.51453 1.407248,11.60753 -1.207773,16.80028 -2.493564,4.95155 -7.283894,9.09338 -12.485223,10.79499 -3.336583,1.09157 -4.354617,1.1729 -14.680722,1.1729 -8.135078,0 -8.668569,0.0144 -8.733585,0.23703 -0.03809,0.13037 -0.751045,2.58177 -1.584358,5.44759 -0.833311,2.86581 -1.627067,5.47175 -1.7639,5.79097 -0.679834,1.58599 -2.058596,3.0566 -3.640688,3.88324 -1.824431,0.95325 -1.710196,0.93998 -8.581683,0.99717 -5.957111,0.0496 -6.20545,0.0416 -6.131393,-0.19509 z"
       style="fill:#fb4c0f;fill-opacity:1;stroke-width:0.13543952"
       sodipodi:nodetypes="ccccsccscccsccscsccccc" />
  </g>
</svg>
