<?xml version="1.0" encoding="UTF-8" standalone="no"?>
<!-- Created with Inkscape (http://www.inkscape.org/) -->

<svg
   xmlns:dc="http://purl.org/dc/elements/1.1/"
   xmlns:cc="http://creativecommons.org/ns#"
   xmlns:rdf="http://www.w3.org/1999/02/22-rdf-syntax-ns#"
   xmlns:svg="http://www.w3.org/2000/svg"
   xmlns="http://www.w3.org/2000/svg"
   xmlns:sodipodi="http://sodipodi.sourceforge.net/DTD/sodipodi-0.dtd"
   xmlns:inkscape="http://www.inkscape.org/namespaces/inkscape"
   width="32"
   height="100"
   id="svg3054"
   version="1.1"
   inkscape:version="0.48.3.1 r9886"
   sodipodi:docname="New document 2">
  <defs
     id="defs3056" />
  <sodipodi:namedview
     id="base"
     pagecolor="#ffffff"
     bordercolor="#666666"
     borderopacity="1.0"
     inkscape:pageopacity="0.0"
     inkscape:pageshadow="2"
     inkscape:zoom="3.959798"
     inkscape:cx="-15.894244"
     inkscape:cy="60.946825"
     inkscape:document-units="px"
     inkscape:current-layer="layer1"
     showgrid="false"
     inkscape:window-width="1366"
     inkscape:window-height="744"
     inkscape:window-x="0"
     inkscape:window-y="24"
     inkscape:window-maximized="1" />
  <metadata
     id="metadata3059">
    <rdf:RDF>
      <cc:Work
         rdf:about="">
        <dc:format>image/svg+xml</dc:format>
        <dc:type
           rdf:resource="http://purl.org/dc/dcmitype/StillImage" />
        <dc:title></dc:title>
      </cc:Work>
    </rdf:RDF>
  </metadata>
  <g
     inkscape:label="Layer 1"
     inkscape:groupmode="layer"
     id="layer1"
     transform="translate(0,-952.35986)">
    <g
       id="g5787"
       transform="matrix(0.16722577,0,0,0.16722577,-13.643859,893.50811)">
      <path
         sodipodi:nodetypes="ccccccccccccccc"
         inkscape:connector-curvature="0"
         style="fill:none;stroke:#000000;stroke-width:0.80216503"
         d="m 206.08229,393.42145 28.83349,-38.99668 35.66218,48.37267 c -0.03,169.48009 0.0817,297.5316 0.0781,455.81584 l -93.81187,89.18515 0,-0.24121 -93.759876,-89.13688 c 0,-92.27458 0,-186.45406 0,-278.72864 l 0.0743,0 0,-177.09091 35.662176,-48.36896 28.83348,38.99297 29.23823,-37.70819 29.18996,37.90499 z"
         id="path3445" />
      <path
         sodipodi:nodetypes="ccccccc"
         inkscape:connector-curvature="0"
         style="fill:#000000;fill-rule:evenodd;stroke:none"
         d="m 176.77224,367.29122 29.4066,37.67105 28.73323,-37.67105 28.51785,37.71933 0,137.74517 -86.58586,0 z"
         id="path3447" />
      <path
         sodipodi:nodetypes="cccccc"
         inkscape:connector-curvature="0"
         style="fill:#000000;fill-rule:evenodd;stroke:none"
         d="m 176.84406,542.75572 -0.003,396.74728 -87.926346,-83.78606 0,-313.94895 87.930066,0.98773 z"
         id="path3449" />
      <path
         sodipodi:nodetypes="ccccc"
         inkscape:connector-curvature="0"
         style="fill:#008000;fill-rule:evenodd;stroke:none"
         d="m 263.42992,542.75572 c 0,92.27087 0,221.67808 0,313.94895 l -86.58586,82.79833 0,-396.74728 z"
         id="path3451" />
      <path
         sodipodi:nodetypes="ccccccc"
         inkscape:connector-curvature="0"
         style="fill:#008000;fill-rule:evenodd;stroke:none"
         d="m 88.932574,542.83979 0,-137.88123 29.457306,-37.66734 29.0043,37.66734 29.38729,-37.66734 0.0633,175.47002 z"
         id="path3453" />
      <path
         id="path3457"
         d="m 160.02157,789.96619 33.42308,0 0,85.59071 -33.42308,0 0,-85.59071 z"
         style="fill:#ffffff;fill-rule:evenodd;stroke:none"
         inkscape:connector-curvature="0" />
      <path
         id="path3459"
         d="m 124.43116,569.16073 33.34881,0 0,29.9549 36.46053,0 0,-29.9549 33.49735,0 0,85.59443 -33.49735,0 0,-34.61875 -36.46053,0 0,34.61875 -33.34881,0 0,-85.59443 z"
         style="fill:#ffffff;fill-rule:evenodd;stroke:none"
         inkscape:connector-curvature="0" />
      <path
         id="path3461"
         d="m 112.22586,709.67378 c 6.06747,-37.01752 55.93288,-33.70158 64.27287,-14.57456 12.65109,-18.87451 58.48389,-21.86369 62.23428,14.98673 l 0,48.39867 -28.68495,0 0,-38.73305 c 0,-5.75555 -1.05457,-9.90327 -3.16741,-12.43943 -2.10914,-2.51016 -4.80125,-3.7801 -8.08749,-3.7801 -2.0163,0 -3.76896,0.5867 -5.28026,1.75637 -1.48902,1.16968 -2.54359,2.70697 -3.17113,4.61188 -0.36018,1.19195 -0.54956,3.43848 -0.54956,6.7767 l 0,41.80763 -13.61282,0 -1.3999,0 -13.60911,0 0,-41.80763 c 0,-3.33822 -0.19309,-5.58475 -0.55328,-6.7767 -0.62382,-1.90491 -1.67839,-3.4422 -3.16741,-4.61188 -1.5113,-1.16967 -3.26396,-1.75637 -5.28026,-1.75637 -3.28995,0 -5.97835,1.26994 -8.08748,3.7801 -2.11285,2.53616 -3.17113,6.68388 -3.17113,12.43943 l 0,38.73305 -28.68496,0 0,-48.81084 z"
         style="fill:#ffffff;fill-rule:evenodd;stroke:none"
         inkscape:connector-curvature="0" />
      <g
         transform="matrix(3.7132628,0,0,3.7132628,-1153.4323,-689.22955)"
         id="g3463"
         style="fill-rule:evenodd">
        <path
           inkscape:connector-curvature="0"
           style="fill:#ffffff;stroke:none"
           d="m 358.654,298.608 c 6.759,0 12.457,4.33 14.2,10.234 -1.328,-3.348 -4.202,-6.063 -8.043,-7.118 -6.537,-1.795 -13.4,1.899 -15.325,8.25 -1.925,6.351 1.815,12.957 8.353,14.752 4.4,1.208 8.947,-0.072 12.038,-2.974 -2.706,3.017 -6.73,4.932 -11.223,4.932 -8.145,0 -14.75,-6.286 -14.75,-14.038 0,-7.752 6.605,-14.038 14.75,-14.038 z"
           id="path3465" />
      </g>
      <path
         inkscape:transform-center-x="-0.40789"
         inkscape:connector-curvature="0"
         id="path4944"
         d="m 231.37003,500.74698 -12.27867,-10.78008 -13.48379,9.22838 6.45815,-15.00894 -12.94344,-9.97212 16.27002,1.50405 5.48432,-15.39149 3.59727,15.93848 16.33293,0.45966 -14.04678,8.34648 z"
         inkscape:transform-center-y="-1.7047551"
         style="fill:#ffffff;fill-opacity:1;stroke:none" />
    </g>
  </g>
</svg>
